<svg class="main-svg" xmlns="http://www.w3.org/2000/svg" xmlns:xlink="http://www.w3.org/1999/xlink" width="300" height="300" style="" viewBox="0 0 300 300"><rect x="0" y="0" width="300" height="300" style="fill: rgb(255, 255, 255); fill-opacity: 1;"/><defs id="defs-9c1557"><g class="clips"><clipPath id="clip9c1557xyplot" class="plotclip"><rect width="229" height="111.14999999999999"/></clipPath><clipPath id="clip9c1557x2y2plot" class="plotclip"><rect width="229" height="111.14999999999999"/></clipPath><clipPath class="axesclip" id="clip9c1557x"><rect x="41" y="0" width="229" height="300"/></clipPath><clipPath class="axesclip" id="clip9c1557y"><rect x="0" y="30" width="300" height="111.14999999999999"/></clipPath><clipPath class="axesclip" id="clip9c1557xy"><rect x="41" y="30" width="229" height="111.14999999999999"/></clipPath><clipPath class="axesclip" id="clip9c1557y2"><rect x="0" y="152.85000000000002" width="300" height="111.14999999999999"/></clipPath><clipPath class="axesclip" id="clip9c1557xy2"><rect x="41" y="152.85000000000002" width="229" height="111.14999999999999"/></clipPath><clipPath class="axesclip" id="clip9c1557x2"><rect x="41" y="0" width="229" height="300"/></clipPath><clipPath class="axesclip" id="clip9c1557x2y"><rect x="41" y="30" width="229" height="111.14999999999999"/></clipPath><clipPath class="axesclip" id="clip9c1557x2y2"><rect x="41" y="152.85000000000002" width="229" height="111.14999999999999"/></clipPath></g><g class="gradients"/><g class="patterns"/></defs><g class="bglayer"/><g class="layer-below"><g class="imagelayer"/><g class="shapelayer"/></g><g class="cartesianlayer"><g class="subplot xy"><g class="layer-subplot"><g class="shapelayer"/><g class="imagelayer"/></g><g class="minor-gridlayer"><g class="x"/><g class="y"/></g><g class="gridlayer"><g class="x"><path class="xgrid crisp" transform="translate(104.16,0)" d="M0,30v111.14999999999999" style="stroke: rgb(128, 128, 128); stroke-opacity: 1; stroke-width: 0.2px;"/><path class="xgrid crisp" transform="translate(167.76,0)" d="M0,30v111.14999999999999" style="stroke: rgb(128, 128, 128); stroke-opacity: 1; stroke-width: 0.2px;"/><path class="xgrid crisp" transform="translate(231.36,0)" d="M0,30v111.14999999999999" style="stroke: rgb(128, 128, 128); stroke-opacity: 1; stroke-width: 0.2px;"/></g><g class="y"><path class="ygrid crisp" transform="translate(0,135.84)" d="M41,0h229" style="stroke: rgb(128, 128, 128); stroke-opacity: 1; stroke-width: 0.2px;"/><path class="ygrid crisp" transform="translate(0,112.31)" d="M41,0h229" style="stroke: rgb(128, 128, 128); stroke-opacity: 1; stroke-width: 0.2px;"/><path class="ygrid crisp" transform="translate(0,88.78999999999999)" d="M41,0h229" style="stroke: rgb(128, 128, 128); stroke-opacity: 1; stroke-width: 0.2px;"/><path class="ygrid crisp" transform="translate(0,65.25999999999999)" d="M41,0h229" style="stroke: rgb(128, 128, 128); stroke-opacity: 1; stroke-width: 0.2px;"/><path class="ygrid crisp" transform="translate(0,41.74)" d="M41,0h229" style="stroke: rgb(128, 128, 128); stroke-opacity: 1; stroke-width: 0.2px;"/></g></g><g class="zerolinelayer"/><g class="layer-between"><g class="shapelayer"/><g class="imagelayer"/></g><path class="xlines-below"/><path class="ylines-below"/><g class="overlines-below"/><g class="xaxislayer-below"/><g class="yaxislayer-below"/><g class="overaxes-below"/><g class="overplot"><g class="xy" transform="translate(41,30)" clip-path="url(#clip9c1557xyplot)"><g class="scatterlayer mlayer"><g class="trace scatter trace343bf5" style="stroke-miterlimit: 2; opacity: 1;"><g class="fills"/><g class="errorbars"/><g class="lines"><path class="js-line" d="M0.05,105.01L10.64,104.82L11.17,104.49L12.76,104.06L13.29,104.06L14.88,104.03L15.41,104.42L17,103.68L17.53,103.71L26.01,102.55L26.54,102.44L33.96,100.6L34.49,100.48L41.38,97.02L41.91,96.41L44.03,94.44L44.56,94.31L47.21,93.42L47.74,93.57L51.45,91.63L51.98,91.52L53.04,90.93L53.57,90.47L59.93,87.58L60.46,86.91L61.52,85.57L62.05,86L62.58,85.56L66.29,82.24L66.82,80.89L67.35,79.29L67.88,79.55L68.41,79.47L71.06,79.8L71.59,80.15L75.83,80.3L76.36,80.34L80.07,80.85L80.6,80.88L91.73,80.95L92.26,80.84L94.38,80.71L94.91,80.52L97.56,80.16L98.09,80.16L101.8,79.48L102.33,79.49L108.69,78.05L109.22,78.08L120.88,74.94L121.41,74.75L125.65,73.67L126.18,73.52L137.84,68.55L138.37,68.6L143.67,66.87L144.2,68.24L146.85,68.45L147.38,68.58L161.69,66.59L162.22,66.46L169.11,64.86L169.64,64.79L173.88,64.16L174.41,63.77L176,63.66L176.53,63.36L190.31,61.46L190.84,61.46L194.02,61.21L194.55,61.17L199.32,60.65L199.85,60.53L203.56,59.95L204.09,59.95L212.04,59.17L212.57,59.15L218.93,58.66L219.46,58.71L227.94,57.92L228.47,57.97L229,57.84" style="vector-effect: none; fill: none; stroke: rgb(138, 43, 226); stroke-opacity: 1; stroke-width: 1.5px; opacity: 1;"/></g><g class="points"/><g class="text"/></g><g class="trace scatter trace73243c" style="stroke-miterlimit: 2; opacity: 1;"><g class="fills"/><g class="errorbars"/><g class="lines"><path class="js-line" d="M0.05,105.39L9.58,105.37L10.11,105.24L15.41,104.39L15.94,104.31L18.59,104.02L19.12,103.93L27.6,102.57L28.13,102.39L33.96,101.04L34.49,100.9L41.38,97.68L41.91,97.07L44.03,94.94L44.56,95.01L46.68,94.08L47.21,94.15L48.27,93.94L48.8,93.79L60.46,88.11L60.99,87.5L62.05,87.13L62.58,86.76L67.35,81.6L67.88,80.54L68.94,79.37L69.47,79.67L70.53,79.69L71.06,79.85L73.18,80.08L73.71,79.93L75.3,79.96L75.83,80.04L77.95,80.68L78.48,80.34L82.72,81.13L83.25,81.24L86.43,81.44L86.96,81.36L89.61,81.54L90.14,81.33L93.32,81.38L93.85,81.24L98.62,80.3L99.15,80.26L103.39,79.38L103.92,79.31L110.28,77.9L110.81,77.5L113.99,76.8L114.52,76.45L121.94,73.92L122.47,73.89L125.12,72.86L125.65,72.82L143.67,66.05L144.2,67.44L146.32,67.45L146.85,67.49L149.5,67.38L150.03,67.32L153.21,66.75L153.74,66.64L158.51,65.76L159.04,65.62L163.81,64.52L164.34,64.26L166.99,63.84L167.52,63.75L170.7,63.21L171.23,63.03L180.24,61.41L180.77,61.56L184.48,60.8L185.01,60.84L199.85,59.4L200.38,59.12L203.03,58.97L203.56,58.82L209.39,58.47L209.92,58.27L212.57,58.14L213.1,58.04L217.87,57.67L218.4,57.63L229,56.9" style="vector-effect: none; fill: none; stroke: rgb(138, 43, 226); stroke-opacity: 1; stroke-width: 1.5px; opacity: 1;"/></g><g class="points"/><g class="text"/></g><g class="trace scatter tracefe04d6" style="stroke-miterlimit: 2; opacity: 1;"><g class="fills"/><g class="errorbars"/><g class="lines"><path class="js-line" d="M0.05,105.44L9.05,105.29L9.58,105.22L12.23,104.55L12.76,104.27L15.41,104.56L15.94,104.24L18.06,104.22L18.59,104.17L36.08,100.34L36.61,100.14L39.79,98.92L40.32,98.68L44.03,95.15L44.56,95.23L46.68,94.22L47.21,94.36L48.27,94.22L48.8,94L51.98,92.72L52.51,92.66L55.16,91.45L55.69,91.52L58.34,89.99L58.87,90.03L65.23,85.67L65.76,85.31L66.82,84.26L67.35,82.84L69.47,81.03L70,80.86L78.48,81.78L79.01,81.64L81.13,82.59L81.66,82.62L93.85,83.08L94.38,82.88L98.09,82.61L98.62,82.37L106.57,81.05L107.1,80.95L112.4,79.56L112.93,79.41L143.67,70.02L144.2,70.85L147.38,70.49L147.91,70.34L161.16,67.08L161.69,66.96L183.95,62.32L184.48,62.26L190.84,61.44L191.37,61.21L194.02,61.14L194.55,61.17L202.5,60.17L203.03,60.01L212.04,59.22L212.57,59.17L224.23,58.55L224.76,58.39L228.47,58.3L229,58.17" style="vector-effect: none; fill: none; stroke: rgb(138, 43, 226); stroke-opacity: 1; stroke-width: 1.5px; opacity: 1;"/></g><g class="points"/><g class="text"/></g><g class="trace scatter trace96af22" style="stroke-miterlimit: 2; opacity: 1;"><g class="fills"/><g class="errorbars"/><g class="lines"><path class="js-line" d="M0.05,105.58L8.52,105.06L9.05,104.6L9.58,104.92L10.11,104.09L11.17,104.2L11.7,104.31L13.29,103.78L13.82,103.57L14.88,102.88L15.41,103.76L17,102.97L17.53,103.17L19.12,102.5L19.65,102.39L27.07,97.73L27.6,97.02L30.78,93.19L31.31,92.61L32.37,87.78L32.9,83.91L35.55,79.2L36.08,78.67L40.32,70.92L40.85,68.37L41.91,67.24L42.44,68.48L42.97,68.61L43.5,66.97L45.09,66.06L45.62,66.59L46.68,66.49L47.21,64.39L49.33,61.7L49.86,61.67L50.92,61.28L51.45,58.97L53.04,53.6L53.57,54.58L55.16,56.43L55.69,56.65L56.75,56.51L57.28,56.67L59.4,58.46L59.93,58.53L61.52,57.9L62.05,59.08L66.29,59.96L66.82,59.88L67.35,58.75L67.88,59.72L70,60.21L70.53,60.1L75.83,60.12L76.36,59.97L78.48,59.81L79.01,59.43L83.25,58.79L83.78,58.54L84.84,58.54L85.37,58.38L93.32,54.75L93.85,54.76L109.22,45.78L109.75,45.62L113.46,43.5L113.99,43.39L115.05,42.77L115.58,42.61L118.76,40.25L119.29,40.23L120.88,39.39L121.41,38.85L123.53,37.92L124.06,37.83L125.65,36.92L126.18,36.21L128.3,34.52L128.83,34.72L130.95,34.19L131.48,34.28L133.6,33.66L134.13,33.54L135.72,33.76L136.25,33.41L138.37,32.63L138.9,32.71L139.96,33.18L140.49,32.35L141.02,32.75L141.55,31.85L143.67,30.78L144.2,35.14L146.32,36.28L146.85,36.39L155.86,35.9L156.39,35.18L157.45,35.33L157.98,35.32L173.88,32.09L174.41,30.83L176,31.39L176.53,31.13L178.65,30.53L179.18,30.56L180.24,30.78L180.77,30.91L184.48,29.89L185.01,30.12L185.54,30.13L186.07,29.27L187.13,29.64L187.66,29.18L188.72,29.67L189.25,28.88L190.31,29.54L190.84,29.58L191.9,28.88L192.43,29.16L192.96,28.56L193.49,29.34L196.14,29.1L196.67,28.99L198.26,29.2L198.79,28.64L199.85,28.7L200.38,28.42L203.03,28.56L203.56,28.54L206.74,27.74L207.27,27.94L208.86,28.23L209.39,28.22L210.45,27.45L210.98,27.95L213.63,28.2L214.16,27.89L215.22,28.33L215.75,27.96L229,27.56" style="vector-effect: none; fill: none; stroke: rgb(252, 141, 98); stroke-opacity: 1; stroke-width: 1.5px; opacity: 1;"/></g><g class="points"/><g class="text"/></g><g class="trace scatter trace1a3b39" style="stroke-miterlimit: 2; opacity: 1;"><g class="fills"/><g class="errorbars"/><g class="lines"><path class="js-line" d="M0.05,105.06L5.87,104.8L6.4,104.78L10.64,103.48L11.17,103.9L12.23,103.7L12.76,103.4L13.29,103.8L13.82,103.22L17,102.95L17.53,102.18L19.12,102.14L19.65,101.91L27.07,97.33L27.6,96.65L30.78,92.93L31.31,92.18L33.43,84.26L33.96,81.33L34.49,81.57L35.02,79.85L37.14,77.86L37.67,75.76L38.2,75.43L38.73,74.07L39.79,72.43L40.32,70.31L41.91,66.82L42.44,68.03L42.97,68.33L43.5,66.9L45.09,65.38L45.62,65.88L46.68,65.8L47.21,63.9L49.86,61.04L50.39,60.93L50.92,60.5L51.45,58.36L53.04,53.36L53.57,53.89L54.1,55.44L60.46,57.76L60.99,57.81L61.52,57.57L62.05,58.59L66.82,59.32L67.35,58.24L68.94,59.61L69.47,59.53L73.71,59.63L74.24,59.57L79.01,59.03L79.54,58.69L83.25,58.18L83.78,57.81L84.84,57.88L85.37,57.7L88.02,56.57L88.55,56.53L93.32,54.18L93.85,54.17L97.56,51.86L98.09,51.65L100.74,49.96L101.27,49.91L102.86,48.84L103.39,48.58L113.99,42.45L114.52,41.59L115.58,41.76L116.11,41.19L120.88,38.57L121.41,37.79L122.47,37.47L123,37.21L125.65,36.36L126.18,35.9L129.89,33.36L130.42,32.49L132.01,31.65L132.54,30.72L134.13,29.47L134.66,29.87L135.19,29.29L135.72,29.84L138.9,29.28L139.43,29.3L139.96,29.39L140.49,28.28L142.61,26.94L143.14,27.29L143.67,27.14L144.2,32.52L145.79,33.87L146.32,33.88L149.5,34.66L150.03,34.43L160.63,33.08L161.16,31.96L162.75,32.17L163.28,31.51L163.81,32.31L164.34,31.91L164.87,31.95L165.4,32.23L165.93,31.5L168.05,31.6L168.58,30.93L172.29,30.67L172.82,30.16L173.88,30.78L174.41,30.13L176.53,29.51L177.06,29.84L178.12,29.91L178.65,30.27L180.77,29.83L181.3,29.82L182.36,29.98L182.89,29.34L185.01,29.44L185.54,29.69L188.19,29.14L188.72,29.18L189.78,29.06L190.31,29.04L190.84,28.93L191.37,27.83L191.9,28.95L192.43,28.53L192.96,28.13L195.61,28.61L196.14,28.13L196.67,27.86L197.2,28.47L197.73,28.64L198.26,27.93L200.38,27.58L200.91,26.93L201.44,27.88L201.97,27.47L202.5,27.76L203.56,26.57L204.09,27.41L204.62,26.8L205.15,27.34L206.74,26.14L207.27,27.26L208.33,27.23L208.86,26.27L209.92,26.86L210.45,26.6L212.04,26.92L212.57,26.45L213.63,26.91L214.16,26.13L216.28,27.04L216.81,27.01L219.99,26.32L220.52,26.96L226.88,26.96L227.41,26.27L228.47,26.82L229,26.83" style="vector-effect: none; fill: none; stroke: rgb(252, 141, 98); stroke-opacity: 1; stroke-width: 1.5px; opacity: 1;"/></g><g class="points"/><g class="text"/></g><g class="trace scatter tracea4723e" style="stroke-miterlimit: 2; opacity: 1;"><g class="fills"/><g class="errorbars"/><g class="lines"><path class="js-line" d="M0.05,105.08L6.93,104.49L7.46,104L10.11,103.73L10.64,103.29L12.23,103.8L12.76,103.56L22.3,100.89L22.83,100.48L25.48,98.9L26.01,98.41L28.66,95.77L29.19,94.87L31.31,92.4L31.84,91.09L33.96,83.07L34.49,81.66L37.14,78.22L37.67,75.94L38.2,75.81L38.73,74.45L40.32,70.61L40.85,68.53L41.91,66.58L42.44,68.29L42.97,68.35L43.5,67.04L44.03,65.53L44.56,65.91L45.09,65.33L46.15,66.3L46.68,65.76L48.8,61.14L49.33,61.13L50.92,60.53L51.45,58.36L53.04,53.36L53.57,53.68L54.1,55.06L56.22,56.09L56.75,56.02L60.99,57.79L61.52,57.59L62.58,58.69L63.11,58.69L66.29,59.37L66.82,59.25L67.35,58.35L67.88,59.39L70,59.73L70.53,59.91L71.59,60.16L72.12,60.46L74.24,59.95L74.77,60.14L75.83,59.88L76.36,60.06L78.48,59.71L79.01,59.55L80.6,59.4L81.13,59.42L84.31,58.83L84.84,58.77L93.32,55.27L93.85,55.32L100.21,51.75L100.74,51.49L102.33,51.05L102.86,50.6L111.34,46.1L111.87,45.49L113.99,44.48L114.52,43.61L116.11,43.38L116.64,43.02L119.82,41.2L120.35,41.01L123.53,39.83L124.06,39.9L126.18,39.15L126.71,38.83L129.89,37.61L130.42,36.86L132.54,35.78L133.07,35.64L139.43,32.57L139.96,33.01L141.55,31.22L142.08,30.96L143.67,29.96L144.2,34.9L146.32,35.5L146.85,35.43L150.03,35.37L150.56,35.08L152.68,34.84L153.21,34.52L157.98,33.72L158.51,33.53L160.1,33L160.63,33.06L174.94,30.42L175.47,30.49L177.59,29.98L178.12,30L183.42,29.37L183.95,29.04L186.6,28.69L187.13,28.25L189.78,28.26L190.31,28.13L192.43,28.1L192.96,27.76L194.55,27.98L195.08,28.14L197.2,27.86L197.73,28.05L199.32,27.51L199.85,27.47L200.91,27.18L201.44,27.2L204.09,26.85L204.62,26.61L209.39,26.5L209.92,26.13L210.98,25.9L211.51,26.19L214.16,25.33L214.69,25.86L216.28,25.77L216.81,25.6L217.87,25.02L218.4,25.4L219.46,25.11L219.99,25.33L222.11,24.92L222.64,24.96L224.76,24.37L225.29,24.97L226.35,24.87L226.88,24.84L229,24.55" style="vector-effect: none; fill: none; stroke: rgb(252, 141, 98); stroke-opacity: 1; stroke-width: 1.5px; opacity: 1;"/></g><g class="points"/><g class="text"/></g><g class="trace scatter trace08c6b5" style="stroke-miterlimit: 2; opacity: 1;"><g class="fills"/><g class="errorbars"/><g class="lines"><path class="js-line" d="M0.05,105.08L7.99,104.52L8.52,103.2L9.58,103.48L10.11,103.09L11.17,102.53L11.7,102.6L12.76,102.75L13.29,102.86L14.35,102.95L14.88,102.75L17,101.95L17.53,102.2L20.71,101.18L21.24,100.99L27.07,98.84L27.6,98.42L34.49,94.37L35.02,93.9L37.67,92.25L38.2,91.33L40.32,87.52L40.85,85.81L42.44,83.39L42.97,83L43.5,83.2L44.03,84.46L46.68,80.77L47.21,81.2L47.74,81.45L51.45,77.09L51.98,76.77L52.51,76.76L53.04,75.79L54.63,73.95L55.16,73.87L56.75,72.31L57.28,71.68L59.4,68.54L59.93,67.73L63.11,62.5L63.64,61.77L67.35,53.03L67.88,53.41L69.47,54.54L70,54.71L73.18,55.13L73.71,55.02L80.07,56.86L80.6,56.9L82.72,57.47L83.25,57.44L85.37,57.74L85.9,57.7L88.55,57.94L89.08,57.78L91.2,58.08L91.73,58.03L95.44,58.17L95.97,57.89L111.34,57.22L111.87,56.95L113.99,56.75L114.52,56.62L120.88,55.9L121.41,55.76L126.71,54.87L127.24,54.63L131.48,53.67L132.01,53.55L143.67,51.24L144.2,51.67L164.34,31.58L164.87,31.37L168.05,28.93L168.58,28.56L171.76,26.26L172.29,25.98L177.06,23.09L177.59,23L182.89,19.89L183.42,19.48L192.96,14.89L193.49,15L214.16,8.99L214.69,9.26L218.4,7.82L218.93,7.63L222.64,6.98L223.17,6.72L226.35,6.48L226.88,6.23L229,5.56" style="vector-effect: none; fill: none; stroke: rgb(61, 91, 226); stroke-opacity: 1; stroke-width: 1.5px; opacity: 1;"/></g><g class="points"/><g class="text"/></g><g class="trace scatter trace4605be" style="stroke-miterlimit: 2; opacity: 1;"><g class="fills"/><g class="errorbars"/><g class="lines"><path class="js-line" d="M0.05,104.28L5.87,103.86L6.4,103.55L7.46,103.15L7.99,102.73L9.05,102.29L9.58,101.79L10.11,102.76L10.64,102.31L11.17,102.71L11.7,101.66L12.23,102.7L13.82,101.82L14.35,102.01L15.94,101.48L16.47,101.41L24.95,98.84L25.48,98.42L28.66,96.99L29.19,96.66L32.37,94.79L32.9,94.45L37.14,91.63L37.67,91.22L39.26,88.4L39.79,86.87L42.97,82.48L43.5,83.06L44.03,84.04L44.56,83.63L45.09,82.8L46.68,80.82L47.21,81.29L47.74,81.54L51.45,77.75L51.98,77.57L53.04,76.77L53.57,75.82L56.75,73.81L57.28,73L59.4,70.56L59.93,69.98L61.52,66.28L62.05,66.91L62.58,65.94L66.29,59.21L66.82,56.18L67.35,54.68L67.88,55.34L68.41,56.31L68.94,56.06L69.47,56.84L71.59,56.68L72.12,57.16L73.71,56.9L74.24,57.11L75.83,56.98L76.36,57.44L77.95,58.3L78.48,58.19L80.07,58.5L80.6,59.12L82.72,59.54L83.25,59.32L86.43,60.39L86.96,60.32L88.55,60.06L89.08,60.61L92.79,60.4L93.32,60.78L95.44,60.53L95.97,60.57L97.03,60.28L97.56,60.65L100.74,59.92L101.27,60.04L102.33,59.92L102.86,59.96L104.45,59.6L104.98,59.19L107.1,59.26L107.63,59.12L115.05,56.53L115.58,56.73L118.23,55.9L118.76,55.82L121.94,54.29L122.47,54.36L124.06,53.72L124.59,53.86L127.77,52.34L128.3,52.37L130.95,50.99L131.48,50.66L135.19,49.14L135.72,48.92L137.84,48.2L138.37,48.06L143.67,46.21L144.2,47.2L159.57,33.52L160.1,33.1L177.06,22.71L177.59,22.71L187.66,18.07L188.19,18.03L207.27,12.29L207.8,12.36L213.63,11.03L214.16,10.69L215.22,10.91L215.75,10.54L221.58,9.85L222.11,9.45L224.23,9.43L224.76,9.2L226.35,9.31L226.88,9.15L229,8.8" style="vector-effect: none; fill: none; stroke: rgb(61, 91, 226); stroke-opacity: 1; stroke-width: 1.5px; opacity: 1;"/></g><g class="points"/><g class="text"/></g><g class="trace scatter traceac47cd" style="stroke-miterlimit: 2; opacity: 1;"><g class="fills"/><g class="errorbars"/><g class="lines"><path class="js-line" d="M0.05,105.08L6.93,104.6L7.46,104.05L8.52,104.33L9.05,103.14L9.58,103.67L10.11,102.43L15.41,102.34L15.94,102.98L18.59,101.88L19.12,101.74L25.48,99.55L26.01,99.41L37.67,92.96L38.2,92.27L39.26,91.03L39.79,88.66L42.97,83.24L43.5,83.82L44.56,84.33L45.09,83.55L46.68,81.53L47.21,82.09L48.27,81.76L48.8,81.13L50.39,79.11L50.92,78.83L53.04,77.39L53.57,76.57L57.28,73.84L57.81,72.89L60.99,68.79L61.52,67.18L62.05,67.62L62.58,66.69L66.29,60.15L66.82,57.88L67.35,55.05L67.88,55.81L68.41,56.21L70,57.01L70.53,57.17L72.12,57.01L72.65,57.26L74.24,57.63L74.77,57.64L75.83,57.74L76.36,57.53L77.42,58.39L77.95,58.68L80.07,59.02L80.6,59.07L81.66,59.63L82.19,59.71L86.96,60.46L87.49,60.31L95.44,61.04L95.97,60.81L104.45,60.64L104.98,60.42L107.63,60.2L108.16,60.28L112.4,59.54L112.93,59.48L117.7,58.44L118.23,58.3L120.35,58.28L120.88,58.06L124.06,57.44L124.59,57.53L143.67,52.65L144.2,53.36L159.04,39.34L159.57,38.88L168.05,32.03L168.58,31.81L171.76,29.22L172.29,28.94L176.53,26.24L177.06,26.06L179.18,24.93L179.71,24.75L191.37,18.89L191.9,18.92L195.08,18.01L195.61,17.82L196.67,17.45L197.2,17.3L199.32,16.55L199.85,16.3L204.09,15.19L204.62,15.14L212.57,13.21L213.1,12.93L215.22,12.74L215.75,12.43L221.58,11.31L222.11,10.91L224.23,10.89L224.76,10.75L226.88,10.75L227.41,10.75L229,10.22" style="vector-effect: none; fill: none; stroke: rgb(61, 91, 226); stroke-opacity: 1; stroke-width: 1.5px; opacity: 1;"/></g><g class="points"/><g class="text"/></g></g></g></g><path class="xlines-above crisp" d="M40.5,141.39999999999998H270.5M40.5,29.75H270.5" style="fill: none; stroke-width: 0.5px; stroke: rgb(0, 0, 0); stroke-opacity: 1;"/><path class="ylines-above crisp" d="M40.75,30V141.14999999999998M270.25,30V141.14999999999998" style="fill: none; stroke-width: 0.5px; stroke: rgb(0, 0, 0); stroke-opacity: 1;"/><g class="overlines-above"/><g class="xaxislayer-above"><path class="xtick ticks crisp" d="M0,141.14999999999998v-5" transform="translate(104.16,0)" style="stroke: rgb(0, 0, 0); stroke-opacity: 1; stroke-width: 0.5px;"/><path class="xtick ticks crisp" d="M0,141.14999999999998v-5" transform="translate(167.76,0)" style="stroke: rgb(0, 0, 0); stroke-opacity: 1; stroke-width: 0.5px;"/><path class="xtick ticks crisp" d="M0,141.14999999999998v-5" transform="translate(231.36,0)" style="stroke: rgb(0, 0, 0); stroke-opacity: 1; stroke-width: 0.5px;"/></g><g class="yaxislayer-above"><path class="ytick ticks crisp" d="M41,0h5" transform="translate(0,135.84)" style="stroke: rgb(0, 0, 0); stroke-opacity: 1; stroke-width: 0.5px;"/><path class="ytick ticks crisp" d="M41,0h5" transform="translate(0,112.31)" style="stroke: rgb(0, 0, 0); stroke-opacity: 1; stroke-width: 0.5px;"/><path class="ytick ticks crisp" d="M41,0h5" transform="translate(0,88.78999999999999)" style="stroke: rgb(0, 0, 0); stroke-opacity: 1; stroke-width: 0.5px;"/><path class="ytick ticks crisp" d="M41,0h5" transform="translate(0,65.25999999999999)" style="stroke: rgb(0, 0, 0); stroke-opacity: 1; stroke-width: 0.5px;"/><path class="ytick ticks crisp" d="M41,0h5" transform="translate(0,41.74)" style="stroke: rgb(0, 0, 0); stroke-opacity: 1; stroke-width: 0.5px;"/><g class="ytick"><text text-anchor="end" x="38.3" y="3.8499999999999996" transform="translate(0,135.84)" style="font-family: 'Open Sans', verdana, arial, sans-serif; font-size: 11px; fill: rgb(0, 0, 0); fill-opacity: 1; white-space: pre; opacity: 1;">0</text></g><g class="ytick"><text text-anchor="end" x="38.3" y="3.8499999999999996" style="font-family: 'Open Sans', verdana, arial, sans-serif; font-size: 11px; fill: rgb(0, 0, 0); fill-opacity: 1; white-space: pre; opacity: 1;" transform="translate(0,112.31)">0.1</text></g><g class="ytick"><text text-anchor="end" x="38.3" y="3.8499999999999996" style="font-family: 'Open Sans', verdana, arial, sans-serif; font-size: 11px; fill: rgb(0, 0, 0); fill-opacity: 1; white-space: pre; opacity: 1;" transform="translate(0,88.78999999999999)">0.2</text></g><g class="ytick"><text text-anchor="end" x="38.3" y="3.8499999999999996" style="font-family: 'Open Sans', verdana, arial, sans-serif; font-size: 11px; fill: rgb(0, 0, 0); fill-opacity: 1; white-space: pre; opacity: 1;" transform="translate(0,65.25999999999999)">0.3</text></g><g class="ytick"><text text-anchor="end" x="38.3" y="3.8499999999999996" style="font-family: 'Open Sans', verdana, arial, sans-serif; font-size: 11px; fill: rgb(0, 0, 0); fill-opacity: 1; white-space: pre; opacity: 1;" transform="translate(0,41.74)">0.4</text></g></g><g class="overaxes-above"/></g><g class="subplot x2y2"><g class="layer-subplot"><g class="shapelayer"/><g class="imagelayer"/></g><g class="minor-gridlayer"><g class="x2"/><g class="y2"/></g><g class="gridlayer"><g class="x2"><path class="x2grid crisp" transform="translate(104.16,0)" d="M0,152.85000000000002v111.14999999999999" style="stroke: rgb(128, 128, 128); stroke-opacity: 1; stroke-width: 0.2px;"/><path class="x2grid crisp" transform="translate(167.76,0)" d="M0,152.85000000000002v111.14999999999999" style="stroke: rgb(128, 128, 128); stroke-opacity: 1; stroke-width: 0.2px;"/><path class="x2grid crisp" transform="translate(231.36,0)" d="M0,152.85000000000002v111.14999999999999" style="stroke: rgb(128, 128, 128); stroke-opacity: 1; stroke-width: 0.2px;"/></g><g class="y2"><path class="y2grid crisp" transform="translate(0,258.49)" d="M41,0h229" style="stroke: rgb(128, 128, 128); stroke-opacity: 1; stroke-width: 0.2px;"/><path class="y2grid crisp" transform="translate(0,221.58000000000004)" d="M41,0h229" style="stroke: rgb(128, 128, 128); stroke-opacity: 1; stroke-width: 0.2px;"/><path class="y2grid crisp" transform="translate(0,184.66000000000003)" d="M41,0h229" style="stroke: rgb(128, 128, 128); stroke-opacity: 1; stroke-width: 0.2px;"/></g></g><g class="zerolinelayer"/><g class="layer-between"><g class="shapelayer"/><g class="imagelayer"/></g><path class="xlines-below"/><path class="ylines-below"/><g class="overlines-below"/><g class="xaxislayer-below"/><g class="yaxislayer-below"/><g class="overaxes-below"/><g class="overplot"><g class="x2y2" transform="translate(41,152.85000000000002)" clip-path="url(#clip9c1557x2y2plot)"><g class="scatterlayer mlayer"><g class="trace scatter traced493a6" style="stroke-miterlimit: 2; opacity: 1;"><g class="fills"/><g class="errorbars"/><g class="lines"><path class="js-line" d="M0,105.52L34.98,103.35L35.51,103.08L36.57,103.01L37.1,102.79L39.22,102.44L39.75,102.13L43.46,100.56L43.99,100.31L45.58,99.83L46.11,99.35L48.23,99.08L48.76,98.64L52.47,97.31L53,97.04L54.06,96.91L54.59,96.2L57.24,94.96L57.77,94.51L58.83,94.36L59.36,93.85L60.42,93.67L60.95,93.33L62.01,92.61L62.54,92.64L65.72,91.38L66.25,90.35L67.31,89.72L67.84,89.42L70.49,87.35L71.02,86.88L73.67,85.68L74.2,84.37L75.79,84.49L76.32,83.92L81.62,81.06L82.15,81.06L82.68,82.14L83.21,81.17L84.27,81.56L84.8,80.62L87.45,80.79L87.98,80.23L93.28,78.96L93.81,79.65L95.4,78.78L95.93,79.27L98.05,78.2L98.58,78.09L99.64,78.47L100.17,77.39L100.7,78.6L101.23,78.24L101.76,77.62L103.88,77.58L104.41,77.02L105.47,76.98L106,77.07L106.53,77.01L107.06,77.85L107.59,78.2L108.12,76.85L109.18,76.73L109.71,77.57L110.77,76.5L111.3,76.14L111.83,76.67L112.36,75.94L112.89,76.02L113.42,75.33L113.95,76.05L114.48,75.11L115.54,75.65L116.07,75.36L117.13,75.71L117.66,74.78L120.31,75.07L120.84,75.9L121.9,75.01L122.43,74.76L122.96,74.65L123.49,73.38L124.02,74.65L124.55,74.01L125.08,73.93L126.67,73.48L127.2,73.22L129.32,73.83L129.85,72.63L130.91,73.34L131.44,72.62L131.97,72.7L132.5,73.87L134.09,72.79L134.62,72.78L135.68,72.52L136.21,72.38L136.74,72.21L137.27,72.86L138.86,71.63L139.39,72L140.98,71.78L141.51,72.07L143.63,70.43L144.16,71.33L145.75,70.25L146.28,71.26L147.34,70.19L147.87,70.56L151.05,69.86L151.58,69.04L152.64,69.68L153.17,69.19L153.7,69.59L154.23,68.9L154.76,68.49L155.29,69.07L156.35,67.89L156.88,67.69L157.94,68.46L158.47,67.55L160.59,67.28L161.12,66.65L162.18,67.52L162.71,66.74L163.24,65.68L163.77,66.5L164.83,66.17L165.36,66.31L168.54,65.12L169.07,65.28L170.66,64.37L171.19,65.32L172.78,63.66L173.31,64.4L174.37,64.29L174.9,63.75L177.55,62.54L178.08,63.55L179.67,62.7L180.2,62.54L183.38,62.09L183.91,62.63L184.44,61.51L184.97,62.1L185.5,62.02L186.03,60.48L186.56,61.36L187.09,61.54L187.62,60.8L188.68,61.19L189.21,61.95L190.27,60.33L190.8,59.98L194.51,61.05L195.04,60.31L196.63,60.1L197.16,59.19L197.69,60.66L198.22,60.07L198.75,59.45L199.81,59.54L200.34,58.22L201.93,59.43L202.46,59.83L203.52,58.53L204.05,58.5L205.11,57.55L205.64,58.45L206.7,59.4L207.23,58.15L209.35,58.32L209.88,57.51L211.47,57.59L212,57.75L213.59,57.79L214.12,56.82L215.18,57.57L215.71,57.41L216.77,57.47L217.3,57.14L218.89,57.71L219.42,56.91L219.95,56.46L220.48,57.92L221.54,56.61L222.07,56.54L223.13,56.66L223.66,56.82L224.72,56.3L225.25,55.95L225.78,56.99L226.31,56.48L226.83,56.06L227.36,56.27L227.89,55.43L228.95,56" style="vector-effect: none; fill: none; stroke: rgb(138, 43, 226); stroke-opacity: 1; stroke-width: 1.5px; opacity: 1;"/></g><g class="points"/><g class="text"/></g><g class="trace scatter trace9f934d" style="stroke-miterlimit: 2; opacity: 1;"><g class="fills"/><g class="errorbars"/><g class="lines"><path class="js-line" d="M0,105.5L25.44,104.55L25.97,104.34L28.62,104.19L29.15,104.25L35.51,103.22L36.04,103.17L37.63,102.79L38.16,102.72L39.75,102.28L40.28,102.14L43.99,100.51L44.52,99.96L45.58,100.12L46.11,99.66L48.23,99.16L48.76,99.09L54.06,96.85L54.59,97.28L56.71,95.67L57.24,95.44L66.78,91.38L67.31,90.82L68.9,89.44L69.43,89.13L74.2,85.61L74.73,86.01L76.85,83.95L77.38,84.47L81.09,82.33L81.62,82.55L82.15,83.05L82.68,81.98L83.74,82.82L84.27,81.95L85.86,80.98L86.39,81.36L92.22,80.28L92.75,79.8L96.46,79.73L96.99,78.83L98.05,78.98L98.58,78.53L99.11,78.85L99.64,78.14L100.17,78.95L100.7,78.58L101.23,79.03L102.82,78.28L103.35,78.47L108.65,77.23L109.18,77.72L110.77,76.75L111.3,76.59L112.36,76.68L112.89,76.2L113.95,76.5L114.48,75.44L116.07,76.32L116.6,75.17L119.78,74.95L120.31,75.83L120.84,74.68L121.37,75.08L121.9,75L123.49,74.11L124.02,74.45L126.14,74.31L126.67,73.31L129.32,73.35L129.85,72.61L131.44,72.77L131.97,72.71L135.15,72.89L135.68,71.74L137.27,72.07L137.8,71.62L138.86,72.1L139.39,71.54L140.45,72.17L140.98,71.44L143.1,70.61L143.63,71.41L144.16,70.2L144.69,70.63L145.22,70.2L145.75,70.86L146.28,70.38L146.81,70.47L148.93,69.48L149.46,70.13L149.99,68.74L150.52,69.12L151.05,69.53L151.58,68.57L152.11,69.31L152.64,68.27L153.17,68.78L153.7,69.34L154.23,68.03L154.76,68.27L155.29,68.42L156.88,67.38L157.41,67.67L158.47,66.82L159,67.57L161.12,66.19L161.65,66.07L162.71,65.49L163.24,65.52L164.3,64.83L164.83,65.42L165.89,64.57L166.42,64.39L167.48,65.03L168.01,64.34L169.6,64.05L170.13,63.77L171.72,63.39L172.25,63.01L173.31,62.7L173.84,62.23L174.9,63.02L175.43,62.83L177.02,61.39L177.55,62.17L180.2,61.79L180.73,60.49L181.26,60.18L181.79,61.32L183.91,60.31L184.44,60.74L187.09,59.2L187.62,59.94L189.21,59.53L189.74,59.08L191.86,58.81L192.39,58.97L193.45,58.01L193.98,58.85L195.04,58.2L195.57,59.02L198.75,57.86L199.28,58.08L200.34,57.44L200.87,58.3L201.4,57.09L201.93,57.5L202.46,56.96L204.05,56.98L204.58,56.31L205.64,56.12L206.17,57.25L206.7,55.93L207.23,56.36L207.76,56.1L208.82,56.71L209.35,55.39L209.88,55.7L210.41,54.97L211.47,56.2L212,55.08L213.59,56.02L214.12,55.29L215.18,55.99L215.71,55.56L216.77,55L217.3,54.99L219.42,55.51L219.95,54.77L221.01,54.63L221.54,55.53L222.6,53.52L223.13,54.78L224.19,53.12L224.72,53.68L225.78,53.66L226.31,54.9L226.83,52.85L227.36,53.86L227.89,53.19L228.42,54.76L228.95,53.33" style="vector-effect: none; fill: none; stroke: rgb(138, 43, 226); stroke-opacity: 1; stroke-width: 1.5px; opacity: 1;"/></g><g class="points"/><g class="text"/></g><g class="trace scatter trace1ed630" style="stroke-miterlimit: 2; opacity: 1;"><g class="fills"/><g class="errorbars"/><g class="lines"><path class="js-line" d="M0,105.56L11.13,105.28L11.66,105.13L36.57,102.98L37.1,102.79L38.69,102.5L39.22,102.2L45.05,99.92L45.58,100L47.17,99.31L47.7,99.1L48.76,98.64L49.29,98.77L50.88,97.87L51.41,97.81L55.65,96.03L56.18,95.97L57.77,95.4L58.3,94.68L59.36,94.79L59.89,94.38L62.01,93.58L62.54,92.88L64.13,93.05L64.66,92.43L68.37,89.95L68.9,89.97L75.26,85.25L75.79,85.41L77.38,84.18L77.91,84.29L79.5,83.88L80.03,83.34L82.68,82.59L83.21,82.53L84.27,81.47L84.8,81.95L86.39,81.04L86.92,81.63L91.69,80.84L92.22,80.44L93.28,80.71L93.81,80.06L95.4,80.33L95.93,79.42L96.46,80.68L96.99,80.35L97.52,80.13L99.64,80.41L100.17,79.76L101.23,79.23L101.76,79.21L103.88,78.83L104.41,78.71L104.94,79.26L105.47,78.35L107.59,78.73L108.12,78.46L109.18,78.31L109.71,78.19L111.83,77.55L112.36,78.23L112.89,77.32L113.42,77.88L113.95,77.45L116.07,77.13L116.6,78.27L117.66,76.34L118.19,76.23L120.31,76.83L120.84,76.52L121.37,75.91L121.9,76.91L122.43,75.09L122.96,75.89L123.49,76.42L124.02,76.37L124.55,75.38L126.14,75.84L126.67,74.78L127.2,74.56L127.73,75.46L128.26,76.01L128.79,75.07L129.32,75.41L129.85,74.44L130.91,74.83L131.44,73.91L131.97,75.56L132.5,74.02L133.03,74.92L133.56,74.38L134.09,73.5L134.62,74.16L135.15,73.09L135.68,74.61L136.21,74.24L136.74,74.66L137.8,73.15L138.33,73.41L140.45,74.39L140.98,73.65L142.04,73.09L142.57,72.15L143.63,72.36L144.16,72.2L145.22,73.06L145.75,72.35L146.81,71.86L147.34,71.41L148.93,71.76L149.46,70.62L150.52,70.86L151.05,70.41L152.11,70.46L152.64,69.69L153.7,71.03L154.23,70.01L154.76,70.18L155.29,68.9L155.82,69.36L156.35,68.65L156.88,69.1L157.41,68.54L158.47,68.85L159,67.91L160.06,68.99L160.59,68.5L161.65,67.52L162.18,68.43L162.71,67.22L163.24,67.8L163.77,68.13L165.89,66.24L166.42,66.19L168.01,66.56L168.54,65.27L169.07,65.87L169.6,64.85L170.13,65.76L170.66,64.77L172.25,64.61L172.78,64.35L173.84,64.83L174.37,64.6L180.2,63.35L180.73,63.94L181.26,63.91L181.79,62.87L182.85,62.32L183.38,62.6L183.91,63.03L184.44,62.24L185.5,61.51L186.03,62.37L188.15,61.53L188.68,61.99L189.21,62.18L189.74,60.92L190.27,61.49L190.8,60.98L191.33,60.08L191.86,60.53L192.39,59.18L192.92,60.81L193.45,60.47L193.98,60.42L195.04,59.61L195.57,60.05L197.16,59.92L197.69,60.33L198.22,60.76L198.75,59.49L200.34,59.65L200.87,59.15L201.93,59.25L202.46,58.98L202.99,57.57L203.52,58.36L204.58,58.82L205.11,57.66L205.64,58.38L206.17,57.65L206.7,58.77L207.23,57.8L210.41,57.48L210.94,58.31L211.47,56.85L212,57.16L212.53,56.38L213.06,57.54L213.59,57.06L214.12,56.76L214.65,56.29L215.18,57.72L215.71,56.02L216.24,57.28L216.77,56.21L217.3,56.6L217.83,57.29L219.42,56L219.95,56.54L221.01,55.35L221.54,56.63L223.13,55.66L223.66,55.78L224.19,56.15L224.72,55.4L225.78,54.9L226.31,55.75L227.36,55.37L227.89,55.14L228.42,55.47L228.95,54.89" style="vector-effect: none; fill: none; stroke: rgb(138, 43, 226); stroke-opacity: 1; stroke-width: 1.5px; opacity: 1;"/></g><g class="points"/><g class="text"/></g><g class="trace scatter trace7e8baf" style="stroke-miterlimit: 2; opacity: 1;"><g class="fills"/><g class="errorbars"/><g class="lines"><path class="js-line" d="M0,105.55L17.49,104.89L18.02,104.82L20.14,104.85L20.67,104.64L23.32,104.45L23.85,104.28L27.56,103.64L28.09,103.4L31.27,102.44L31.8,101.94L35.51,99.4L36.04,99.27L40.28,97.38L40.81,96.78L42.93,95.39L43.46,95L46.11,93.27L46.64,92.96L51.94,87.16L52.47,86.5L54.59,83.87L55.12,83.63L57.77,78.27L58.3,77.39L58.83,77.58L59.36,76.67L62.54,74.21L63.07,74.27L64.66,72.53L65.19,72.83L66.78,72.03L67.31,70.85L68.37,72.06L68.9,71.38L69.96,70.93L70.49,71.1L71.02,69.76L71.55,70.42L72.08,69.37L73.67,70.89L74.2,69.47L75.79,68.59L76.32,68.07L76.85,68.36L77.38,69.61L78.97,67.84L79.5,67.07L80.56,67.13L81.09,66.95L82.15,67.97L82.68,67.35L84.27,67.14L84.8,66.26L86.39,66.83L86.92,66.04L87.45,65.09L87.98,65.95L89.57,65.08L90.1,65.88L90.63,65.28L91.16,65.86L92.22,64.97L92.75,63.99L93.28,65.91L93.81,65.48L94.34,64.27L95.93,64.27L96.46,64.49L96.99,62.98L97.52,63.29L98.05,64.18L99.64,62.32L100.17,63.65L100.7,61.48L101.23,63.12L102.29,62.87L102.82,63.12L104.94,61.89L105.47,62.01L106.53,60.44L107.06,61.58L108.12,61.62L108.65,60.29L109.71,60.8L110.24,60.19L110.77,59.55L111.3,60.94L112.89,59.56L113.42,59.49L115.01,59.77L115.54,58.81L117.13,59.07L117.66,57.56L118.19,57.14L118.72,58.67L119.78,57.64L120.31,58.59L120.84,58.12L121.37,55.91L122.43,57L122.96,57.02L124.02,56.85L124.55,57.47L125.61,55.8L126.14,56L127.2,56.25L127.73,55.77L128.79,56.53L129.32,55.28L131.97,54.61L132.5,54.75L133.56,56.51L134.09,55.36L135.15,55.2L135.68,55.91L136.21,54.81L136.74,55.62L137.27,55.55L137.8,54.31L138.33,55.57L138.86,55.11L139.39,55.32L139.92,54.08L140.45,55.54L142.04,53.38L142.57,53.82L143.1,52.84L143.63,53.92L144.69,54.96L145.22,54.51L145.75,54.03L146.28,54.69L146.81,53.87L147.34,54.57L147.87,53.37L148.4,53.62L148.93,53.87L149.99,52.64L150.52,53.12L151.05,53.35L151.58,52.14L152.11,52.61L152.64,51.57L153.17,52.4L153.7,51.06L154.23,51.56L154.76,50.89L155.29,51.1L155.82,50.01L156.35,50.77L156.88,50.4L157.41,50.23L157.94,49.54L158.47,50.18L159,48.99L159.53,49.57L160.06,49.66L161.12,48.83L161.65,49.34L162.18,48.75L162.71,49.89L164.3,46.47L164.83,47.3L165.89,48.24L166.42,47.13L168.54,45.59L169.07,45.8L170.13,45.48L170.66,45.04L171.19,45.99L171.72,44.46L172.25,45.69L172.78,45.32L173.31,44.98L173.84,45.68L174.37,44.19L174.9,44.76L175.43,44.04L175.96,43.64L176.49,44.3L178.08,43.62L178.61,43.49L179.67,43.61L180.2,42.78L181.26,43.23L181.79,42.79L182.32,42.27L182.85,42.85L183.38,41.27L183.91,42.38L185.5,42.13L186.03,40.99L187.09,42.26L187.62,41.58L188.68,41.52L189.21,40.78L189.74,41.33L190.27,40.44L191.86,41.18L192.39,40.36L193.45,40.51L193.98,41.07L194.51,39.54L195.04,41.35L196.1,40.34L196.63,40.29L197.16,38.48L197.69,39.67L198.75,39.83L199.28,38.73L201.4,38.7L201.93,39.62L202.46,38.51L202.99,39.2L205.64,36.67L206.17,37.46L206.7,37.66L207.23,36.63L207.76,38.08L208.29,37.3L208.82,37.52L209.35,36.7L209.88,37.27L210.41,35.8L211.47,37.52L212,36.72L213.59,37.52L214.12,36.53L214.65,38.01L215.18,37.32L215.71,37.1L216.24,36.77L216.77,37.71L217.3,36.57L217.83,37.65L219.95,36.42L220.48,36.53L221.54,36.58L222.07,35.41L223.66,36.78L224.19,37.01L224.72,36.16L225.25,36.68L225.78,36.54L226.31,37.3L226.83,35.74L227.36,36.33L227.89,35.67L228.95,37.36" style="vector-effect: none; fill: none; stroke: rgb(252, 141, 98); stroke-opacity: 1; stroke-width: 1.5px; opacity: 1;"/></g><g class="points"/><g class="text"/></g><g class="trace scatter trace695029" style="stroke-miterlimit: 2; opacity: 1;"><g class="fills"/><g class="errorbars"/><g class="lines"><path class="js-line" d="M0,105.55L27.03,103.86L27.56,103.73L30.21,103.03L30.74,102.82L35.51,99.64L36.04,99.4L39.22,97.94L39.75,97.7L41.34,96.31L41.87,96.18L42.93,95.93L43.46,95.07L45.05,93.82L45.58,94.07L50.35,89.35L50.88,88.82L53,85.62L53.53,85.32L54.59,84.05L55.12,83.91L56.71,80.82L57.24,79.48L62.54,74.52L63.07,74.55L65.19,72.73L65.72,72.47L66.78,72.41L67.31,72.57L67.84,71.71L68.37,72.2L68.9,71.72L70.49,71.46L71.02,70.36L72.61,70.65L73.14,70.2L73.67,70.15L74.2,70.99L75.79,69.08L76.32,69.59L78.97,68.89L79.5,67.84L80.03,68.66L80.56,67.88L82.15,68.05L82.68,67.89L83.21,68.1L83.74,66.5L85.33,68L85.86,66.7L86.92,66.93L87.45,66.52L87.98,66.47L88.51,65.16L89.57,66.39L90.1,66.75L91.16,66.84L91.69,65.54L92.75,65.75L93.28,65.39L93.81,66.01L94.34,65.15L94.87,65.92L95.4,65.08L95.93,64.06L96.46,64.69L98.05,63.65L98.58,63.82L99.11,64.94L99.64,63.72L100.17,64.85L100.7,63.89L102.29,63.37L102.82,62.51L103.35,63.72L103.88,62.42L104.94,62.54L105.47,61.68L106.53,62.55L107.06,61.95L107.59,62.68L108.12,61.49L109.18,60.69L109.71,61.12L110.24,60.32L110.77,61.26L111.83,59.95L112.36,60.14L113.42,59.33L113.95,59.91L114.48,59.44L115.01,59.99L118.19,58.36L118.72,59.36L119.25,58.23L119.78,58.94L121.37,57.38L121.9,58.22L122.96,58.21L123.49,57.47L124.02,56.89L124.55,57.63L125.08,58.24L125.61,56.09L126.14,56.1L126.67,57.34L127.2,57.09L127.73,55.89L128.26,55.75L128.79,57.04L130.38,54.4L130.91,55.78L132.5,55.45L133.03,54.87L133.56,53.45L134.09,54.12L134.62,54.14L136.21,54.76L136.74,55.03L138.33,54.17L138.86,53.83L139.92,55.26L140.45,55.22L140.98,53.45L141.51,53.73L142.04,53.34L143.63,52.75L144.16,54.51L145.22,54.54L145.75,55.1L146.28,53.33L146.81,54.17L147.34,53.92L147.87,52.79L148.4,54.15L148.93,53.08L149.46,53.39L149.99,53.09L150.52,52.47L151.05,53.19L153.17,51.66L153.7,52.61L154.76,50.77L155.29,51.01L156.35,50.75L156.88,49.85L157.41,49.96L157.94,51.13L158.47,49.05L159,49.27L159.53,48.13L160.59,49.18L161.12,48.95L163.24,47.96L163.77,47.04L165.36,47.52L165.89,46.94L167.48,46.53L168.01,47.08L168.54,47.25L169.07,45.14L169.6,45.21L170.13,46.1L172.78,45.44L173.31,44.69L173.84,45.6L174.37,45.28L174.9,45.22L177.02,44.2L177.55,45.16L178.61,43.86L179.14,44.89L179.67,43.51L180.2,44.05L180.73,43.51L181.79,43.72L182.32,43.25L182.85,42.65L183.38,43.2L183.91,41.85L184.44,42.75L185.5,42.85L186.03,42.43L186.56,42.86L187.09,42.01L187.62,43.27L188.15,42.06L188.68,43.92L189.21,41.96L189.74,41.87L190.27,40.84L191.33,42.88L191.86,42.34L193.98,40.76L194.51,41.87L195.57,41.33L196.1,41.51L196.63,40.69L197.16,41.73L198.75,40.04L199.28,41.11L200.34,40.41L200.87,40.89L201.93,39.64L202.46,40.09L203.52,39.26L204.05,39.93L205.11,39.7L205.64,40.03L206.17,41.62L206.7,38.97L208.82,39.54L209.35,40.09L210.41,38.14L210.94,39.26L211.47,37.79L212,38.06L212.53,38.71L213.59,38.18L214.12,38.87L216.77,39.06L217.3,37.52L217.83,37.25L218.36,38.48L218.89,37.02L219.42,37.49L219.95,38.67L220.48,39.02L221.01,38.05L222.07,37.84L222.6,38.4L223.66,38.95L224.19,37.38L226.83,38.03L227.36,37.8L228.95,37.82" style="vector-effect: none; fill: none; stroke: rgb(252, 141, 98); stroke-opacity: 1; stroke-width: 1.5px; opacity: 1;"/></g><g class="points"/><g class="text"/></g><g class="trace scatter trace267153" style="stroke-miterlimit: 2; opacity: 1;"><g class="fills"/><g class="errorbars"/><g class="lines"><path class="js-line" d="M0,105.48L4.24,105.53L4.77,105.46L10.6,105.21L11.13,105.12L13.78,105.03L14.31,104.97L19.61,104.85L20.14,104.77L30.21,102.97L30.74,102.79L32.86,101.02L33.39,100.55L37.1,98.91L37.63,98.48L43.99,94.98L44.52,94.3L46.64,93.2L47.17,92.33L48.23,91.71L48.76,91.16L53.53,85.21L54.06,85.6L55.65,82.71L56.18,82L58.83,77.67L59.36,77.33L62.01,75.62L62.54,75.8L64.13,73.2L64.66,74.38L65.72,72.21L66.25,72.93L67.31,71.76L67.84,72.71L69.96,71.41L70.49,71.57L72.61,70.12L73.14,70.53L74.2,70.01L74.73,69.95L75.79,69.66L76.32,69.64L77.38,69.33L77.91,69.04L78.97,68.88L79.5,67.95L80.56,68.36L81.09,67.32L82.15,68.73L82.68,68.11L83.21,66.75L83.74,67.26L84.27,67.28L85.86,66.82L86.39,67.52L86.92,67.3L87.45,66.26L88.51,66.6L89.04,66.21L90.1,66.78L90.63,66.31L91.16,66.9L91.69,66.2L92.75,65.68L93.28,65.45L95.93,65.05L96.46,64.44L96.99,64.9L97.52,64.09L98.58,64.23L99.11,64.06L99.64,64.4L100.17,63.74L101.23,64.11L101.76,63.35L102.29,63.06L102.82,64.43L104.41,61.97L104.94,62.54L106,62.7L106.53,61.81L107.59,63.32L108.12,62.04L109.71,61.15L110.24,61.52L110.77,61.19L111.3,62.01L111.83,61.95L112.36,61.04L112.89,59.52L113.42,61.13L115.54,59.44L116.07,60.99L116.6,61.19L117.13,58.98L117.66,59.81L118.19,59.46L118.72,59.4L119.25,59L119.78,59.7L120.31,58.87L120.84,59.81L122.43,58.05L122.96,58.49L124.02,58.65L124.55,58.87L126.14,57.14L126.67,58.16L127.2,57.87L127.73,58.62L129.32,56.86L129.85,56.65L131.97,57.8L132.5,57.24L133.56,56L134.09,56.59L134.62,57.06L135.15,56.33L135.68,56.95L136.21,55.74L136.74,56.59L137.27,54.79L137.8,54.39L138.33,55.21L139.39,55.57L139.92,55.26L140.98,55.76L141.51,54.97L142.04,53.31L142.57,54.3L145.75,54.75L146.28,54.34L147.87,54.06L148.4,53.74L148.93,54.22L149.46,53.08L149.99,53.77L150.52,53.19L152.11,52.41L152.64,52.45L153.17,51.16L153.7,52.92L154.76,51.63L155.29,51.35L156.88,50.42L157.41,51.45L157.94,48.87L158.47,51.02L160.06,49.58L160.59,49.01L161.65,49.15L162.18,49.01L162.71,49.02L163.24,47.92L164.83,47.82L165.36,47.3L165.89,47.88L166.42,46.96L166.95,47.19L167.48,46.45L170.66,45.61L171.19,44.49L172.25,44.44L172.78,44.34L173.84,44.22L174.37,43.52L175.43,44.83L175.96,43.68L176.49,42.31L177.02,42.99L177.55,42.16L178.61,43.36L179.14,43.7L180.2,42.64L180.73,43.32L181.26,41.94L181.79,42.17L182.32,42.06L182.85,42.9L183.38,41.85L183.91,43.07L184.44,41.96L185.5,41.15L186.03,41.71L186.56,40.77L187.09,41.32L187.62,41.58L189.21,40.09L189.74,39.69L190.8,40.5L191.33,39.7L192.92,39.76L193.45,40.32L193.98,40.51L194.51,39.12L195.57,40.23L196.1,40.24L196.63,40.34L197.16,38.35L198.22,40.08L198.75,39.11L199.81,38.97L200.34,38.72L200.87,38.5L201.4,39.49L202.99,37.92L203.52,38.36L204.05,37.85L204.58,38.8L206.17,38.43L206.7,37.11L207.23,38.95L207.76,38.61L208.29,38.7L208.82,38.01L209.35,38.76L210.41,36.92L210.94,36.82L211.47,38.03L212,37.2L212.53,36.42L213.06,37.2L213.59,37.58L214.12,36.99L215.18,37.16L215.71,35.92L217.3,36.9L217.83,36.41L219.42,36.43L219.95,37.03L220.48,36.82L221.01,35.65L223.13,35.79L223.66,35.48L224.19,36.3L224.72,35.17L225.78,36.34L226.31,35.8L226.83,35L227.36,36.7L228.42,35.34L228.95,35.56" style="vector-effect: none; fill: none; stroke: rgb(252, 141, 98); stroke-opacity: 1; stroke-width: 1.5px; opacity: 1;"/></g><g class="points"/><g class="text"/></g><g class="trace scatter tracea42306" style="stroke-miterlimit: 2; opacity: 1;"><g class="fills"/><g class="errorbars"/><g class="lines"><path class="js-line" d="M0,105.36L3.71,105.43L4.24,105.42L16.43,104.28L16.96,104.26L18.02,104.16L18.55,104.36L20.14,103.85L20.67,103.93L24.91,103.05L25.44,103.4L27.03,102.47L27.56,102.51L29.68,102.16L30.21,102.02L36.57,99.43L37.1,99.04L37.63,98.8L38.16,97.72L40.28,95.96L40.81,95.08L41.34,93.83L41.87,94.75L43.46,92.81L43.99,93.33L45.58,92.56L46.11,91.23L46.64,90.24L47.17,90.74L47.7,91.21L48.23,90L48.76,90.35L49.29,89.46L54.06,84.96L54.59,84.86L55.12,84.84L55.65,83.11L56.71,83.77L57.24,82.32L58.3,80.17L58.83,81.13L59.36,79.93L59.89,80.69L61.48,77.48L62.01,77.43L62.54,77.83L63.07,76.66L63.6,76.87L64.13,76.21L66.25,72.17L66.78,71.81L67.84,70.65L68.37,71.15L68.9,68.73L69.43,68.85L69.96,67.81L71.55,65.23L72.08,65.57L72.61,63.73L73.14,64.4L73.67,63.19L74.73,62.03L75.26,61.41L75.79,61.46L76.32,59.76L76.85,60.12L77.38,59.49L78.44,58.67L78.97,57.15L80.03,57.51L80.56,56.81L81.09,56.79L81.62,56L83.21,54.72L83.74,54.73L84.27,55.08L84.8,54.43L86.39,54.55L86.92,53.45L87.45,52.42L87.98,53.33L88.51,54.2L89.04,52.62L89.57,53.76L90.1,53.39L90.63,53.09L92.22,50.86L92.75,51.51L94.34,51.23L94.87,51.97L96.46,50.39L96.99,50.08L97.52,52.1L98.05,50.73L99.11,49.49L99.64,50.06L100.17,51.27L100.7,49.47L101.23,49.14L101.76,50.33L103.35,50.54L103.88,49.37L106,48.68L106.53,49.32L107.59,48.33L108.12,49L108.65,46.25L109.18,46.64L109.71,48.43L110.24,47.45L110.77,49.07L112.36,46.37L112.89,46.66L114.48,48.4L115.01,47.07L117.66,46.87L118.19,46.09L119.78,47.63L120.31,45.81L121.37,46.11L121.9,45.02L122.96,46.58L123.49,45.18L124.02,47.07L124.55,45.24L125.08,45.88L125.61,44.39L126.14,45.91L126.67,44.09L127.73,45.65L128.26,44.76L129.85,43.8L130.38,42.72L132.5,46.13L133.03,41.64L134.62,44.34L135.15,44.02L135.68,45.05L136.21,44.42L136.74,44.53L137.27,42.25L138.86,45.38L139.39,43.76L143.1,43.19L143.63,42.17L144.16,43.7L144.69,42.85L146.28,40.27L146.81,40.64L147.34,41.56L147.87,39.97L148.93,38.91L149.46,39.72L150.52,39.91L151.05,38.55L151.58,38.55L152.11,37.64L152.64,38.67L153.17,36.9L153.7,38.9L154.23,37.19L156.88,33.28L157.41,34.86L157.94,32.83L158.47,33.71L159,33.29L159.53,33.72L160.06,31.3L160.59,32.43L161.12,31.71L161.65,31.54L162.18,32.39L163.24,29.99L163.77,30.34L164.3,29.28L165.89,30.11L166.42,29.13L168.01,27.58L168.54,27.76L169.07,25.31L169.6,27.85L170.13,25.49L170.66,26.45L171.19,25.3L172.25,24.84L172.78,27.26L174.37,24.34L174.9,26.18L176.49,23.63L177.02,25.13L179.67,21.83L180.2,21.95L181.79,20.35L182.32,20.06L183.38,21.26L183.91,19.76L184.44,19L184.97,20.7L186.56,18.03L187.09,18.89L187.62,19.73L188.15,19.2L188.68,18.87L189.74,17.43L190.27,16.95L191.33,16.22L191.86,17.42L192.39,15.59L192.92,18.23L194.51,16.58L195.04,13.72L196.1,16.07L196.63,14.49L197.16,14.92L197.69,14.07L198.22,14.16L198.75,15.27L199.28,13.44L199.81,14.9L200.87,13.07L201.4,14.41L202.46,12.42L202.99,13.56L204.05,11.61L204.58,12.63L205.11,10.87L205.64,12.82L206.17,12.62L206.7,11.53L207.76,12.08L208.29,10.1L208.82,11.56L209.35,10.63L209.88,9.41L210.41,10.16L211.47,11.25L212,10.14L212.53,10.69L213.06,8.29L214.12,10.03L214.65,9.54L215.18,9.84L215.71,9.51L216.24,10.61L218.36,7.93L218.89,7.75L219.95,9.09L220.48,7.34L221.54,7.98L222.07,6.58L223.13,5.79L223.66,7.36L225.25,6.96L225.78,6.24L228.42,5.76L228.95,6.03" style="vector-effect: none; fill: none; stroke: rgb(61, 91, 226); stroke-opacity: 1; stroke-width: 1.5px; opacity: 1;"/></g><g class="points"/><g class="text"/></g><g class="trace scatter tracec05490" style="stroke-miterlimit: 2; opacity: 1;"><g class="fills"/><g class="errorbars"/><g class="lines"><path class="js-line" d="M0,105.44L4.77,105.25L5.3,105.25L7.42,105.29L7.95,104.95L13.78,104.51L14.31,104.72L15.9,104.36L16.43,104.25L17.49,104.06L18.02,103.98L19.08,103.83L19.61,104.01L31.27,101.66L31.8,100.91L32.86,100.84L33.39,100.78L36.04,99.47L36.57,98.74L37.63,98.87L38.16,97.97L42.4,93.9L42.93,93.76L43.46,93.06L43.99,93.65L46.64,91.02L47.17,91.42L49.29,89.95L49.82,88.57L50.88,88.54L51.41,87.6L51.94,88L52.47,87.18L53.53,86.75L54.06,86.23L55.12,84.91L55.65,85.11L56.18,83.35L56.71,83.76L57.24,83.67L58.83,81.45L59.36,81.42L59.89,80.43L60.42,80.84L60.95,81.09L62.54,78.08L63.07,77.92L64.13,77.96L64.66,76.53L69.43,71.7L69.96,69.86L73.14,66.69L73.67,66.94L75.79,63.06L76.32,63.82L77.91,62.32L78.44,60.72L79.5,60.08L80.03,60.36L81.09,60.65L81.62,59.47L82.15,59.82L82.68,58.97L84.27,57.7L84.8,57.98L85.86,58.52L86.39,57.84L87.98,56.45L88.51,57.47L89.57,56.58L90.1,55.89L90.63,56.31L91.16,54.85L92.22,55.37L92.75,57.11L93.81,55.07L94.34,55.88L95.4,55.58L95.93,54.2L96.46,55.29L96.99,54.44L97.52,55.54L98.05,54.73L99.11,55.19L99.64,54.38L100.7,54.25L101.23,53.32L101.76,55.66L102.29,53.77L103.35,53.8L103.88,54.88L104.94,52.86L105.47,52.9L106,54.17L106.53,53.38L107.06,52.6L107.59,53.21L108.12,52.74L108.65,53.71L109.71,51.74L110.24,51.99L110.77,52.91L111.3,52.01L112.89,51.12L113.42,51.21L114.48,51.68L115.01,50.46L116.07,51.91L116.6,51.77L118.19,49.87L118.72,50.62L119.25,49.96L119.78,51.89L120.31,49.69L120.84,49.99L121.37,50.26L121.9,49.83L122.43,50.55L122.96,49.28L123.49,50.62L124.02,48.53L124.55,49.2L125.08,48.12L125.61,48.44L126.14,50.59L127.2,47.86L127.73,49.56L129.85,47.43L130.38,47.58L130.91,47.47L131.44,49.1L133.03,47.47L133.56,47.34L134.09,46.99L134.62,48.8L135.15,48.94L135.68,48.12L136.74,47.1L137.27,47.93L137.8,46.86L138.33,47.62L139.39,48.25L139.92,46.66L140.45,48.6L140.98,47.66L142.04,46.59L142.57,47.23L143.63,46.41L144.16,47.05L145.75,45.07L146.28,46.3L147.87,44.71L148.4,44.75L154.76,39.9L155.29,40.16L156.35,39.63L156.88,38.49L157.94,38.44L158.47,38.32L159,37.35L159.53,38.39L160.59,36.71L161.12,36.71L161.65,38.04L162.18,36.43L162.71,34.18L163.24,35.1L163.77,34.94L164.3,35.18L164.83,34.39L165.36,32.22L165.89,34.2L166.95,32.02L167.48,32.79L168.54,33.18L169.07,32.55L170.66,32.5L171.19,31.27L172.25,32.27L172.78,30.43L173.31,31.18L173.84,29.23L174.37,29.8L174.9,29.01L175.43,30.82L175.96,28.42L176.49,29.81L177.02,28.92L178.08,29.82L178.61,28.63L179.14,27.2L179.67,27.95L181.26,26.83L181.79,27.39L183.38,25.98L183.91,26.8L184.44,24.49L184.97,25.01L185.5,26.42L186.03,25.09L186.56,25.58L187.09,25.34L187.62,25.81L188.15,24.06L189.21,22.9L189.74,23.55L190.27,23.36L190.8,24.56L191.33,23.14L191.86,24.17L192.39,22.07L192.92,22.33L193.45,22.16L193.98,20.89L194.51,22.69L196.63,19.87L197.16,21.7L198.22,19.69L198.75,21.4L199.28,21.01L199.81,18.71L200.34,20.84L200.87,20.53L201.4,19.18L202.46,19.67L202.99,19.1L203.52,19.27L204.05,17.11L204.58,20.38L205.11,17.94L206.17,16.61L206.7,18.46L207.23,19.57L207.76,17.72L208.29,16.54L208.82,18.57L210.41,16.55L210.94,17.24L212.53,16.13L213.06,17.51L213.59,15.09L214.12,17.12L214.65,17.88L215.18,16.69L215.71,15.21L216.24,17.58L216.77,15.42L217.3,15.88L217.83,15.65L218.36,14.8L218.89,15.24L219.42,14.86L219.95,14.6L220.48,15.41L222.07,15.32L222.6,13.78L223.66,14.45L224.19,14.28L224.72,14.16L225.25,13.04L226.31,14.94L226.83,13.67L228.42,14.93L228.95,14.3" style="vector-effect: none; fill: none; stroke: rgb(61, 91, 226); stroke-opacity: 1; stroke-width: 1.5px; opacity: 1;"/></g><g class="points"/><g class="text"/></g><g class="trace scatter trace3aef80" style="stroke-miterlimit: 2; opacity: 1;"><g class="fills"/><g class="errorbars"/><g class="lines"><path class="js-line" d="M0,105.42L3.18,105.32L3.71,105.36L6.36,105.39L6.89,105.17L8.48,104.92L9.01,104.9L11.66,104.75L12.19,104.59L30.74,101.84L31.27,101.57L32.86,101.46L33.39,100.77L34.98,99.76L35.51,100.47L38.69,97.84L39.22,97.62L41.34,95.23L41.87,94.64L43.46,93.1L43.99,93.55L45.05,92.54L45.58,92.08L46.11,92.25L46.64,91.55L49.29,89.53L49.82,88.91L51.94,87.99L52.47,87L53,86.93L53.53,85.94L55.12,84.76L55.65,84.63L56.18,84.77L56.71,83.98L57.24,83.95L57.77,82.8L58.3,81.34L58.83,82.06L59.36,81.64L62.54,78.22L63.07,78.32L63.6,76.81L64.13,77.06L64.66,76.31L67.84,72.13L68.37,73.01L69.43,70.78L69.96,70.22L71.55,66.79L72.08,67.21L72.61,67.15L73.14,65.46L73.67,65.76L74.2,65.03L74.73,65.3L75.26,63.86L76.32,63.07L76.85,61.79L77.91,61.43L78.44,60.85L79.5,59.56L80.03,60.35L81.09,57.97L81.62,58.35L82.15,58.64L82.68,57.02L83.74,56.49L84.27,57.77L85.33,57.08L85.86,56.32L86.92,57.12L87.45,54.55L88.51,54.76L89.04,54.51L90.1,56.49L90.63,55.74L91.69,53.49L92.22,54.97L93.28,54.26L93.81,54.27L94.87,54.68L95.4,53.34L96.99,51.88L97.52,52.75L98.58,53.55L99.11,52.57L99.64,53.2L100.17,52.13L100.7,53.2L101.23,52.02L102.82,53.06L103.35,52.24L103.88,51.06L104.41,52.09L104.94,51.22L105.47,51.85L106,52.63L106.53,51.33L107.06,52.44L107.59,51.53L108.12,51.27L108.65,52.06L109.18,50.42L109.71,50.87L110.24,50.94L110.77,49.93L111.3,51.7L112.36,50.31L112.89,51.28L115.01,48.84L115.54,51.13L116.07,51.54L116.6,50.35L117.66,49.41L118.19,49.07L119.78,51.14L120.31,49.56L121.37,48.5L121.9,49.15L122.43,48.21L122.96,49.38L124.55,48.35L125.08,48.86L125.61,47.86L126.14,50.51L126.67,46.75L127.2,47.3L127.73,48.26L128.79,48.67L129.32,47.17L130.38,48.08L130.91,47.49L131.97,49.3L132.5,48.68L133.03,47.2L133.56,47.75L134.09,48.45L134.62,47.15L135.15,47.86L135.68,47.25L136.21,48.54L137.27,47.31L137.8,48.19L139.39,46.38L139.92,47.97L140.98,47.81L141.51,47.45L143.1,45.67L143.63,47.14L145.22,46.17L145.75,45.53L147.34,45.82L147.87,43.53L149.46,44.51L149.99,43.62L150.52,42.72L151.05,43.27L151.58,43.01L152.11,42.38L152.64,43.04L153.17,42.99L153.7,41.88L155.29,40.01L155.82,39.67L156.35,40.85L156.88,39.09L157.41,40.72L157.94,38.81L159,38.66L159.53,38.06L160.06,37.24L160.59,38.01L161.12,36.65L161.65,37.3L162.18,36.71L162.71,35.98L163.24,36.52L163.77,37.48L165.36,34.9L165.89,34.57L166.42,35.73L166.95,34.4L169.6,32.45L170.13,33.36L170.66,31.35L171.19,32.33L172.25,33.07L172.78,32.29L173.31,31.97L173.84,32.67L174.37,30.41L174.9,31.41L175.43,32.3L177.02,28.88L177.55,29.96L179.14,27.8L179.67,29.14L180.73,29.05L181.26,27.85L183.38,28.45L183.91,26.72L184.44,27.13L184.97,26.02L187.09,26.75L187.62,26.03L189.74,24.3L190.27,23.08L190.8,24.22L191.33,21.81L192.39,23.63L192.92,22.95L193.98,23.76L194.51,22.78L195.04,21.9L195.57,23.2L196.1,23.16L196.63,22.35L197.69,20.57L198.22,22.05L198.75,20.96L199.28,22.04L200.34,21.17L200.87,18.71L201.93,21.61L202.46,21.75L204.58,19.81L205.11,20.74L205.64,19.56L206.17,19.83L206.7,19.64L207.23,19.45L207.76,16.77L208.29,19.99L208.82,18.67L209.35,17.13L209.88,20.37L210.41,16.73L212.53,19.15L213.06,15.48L213.59,19.09L214.12,18.33L214.65,18.53L215.18,17.35L215.71,19L216.24,15.96L216.77,17.07L217.3,18.6L219.42,15.08L219.95,16.16L221.54,15.91L222.07,17.12L223.66,13.93L224.19,15.39L225.78,13.07L226.31,14.6L227.36,15.58L227.89,13.44L228.42,13.78L228.95,15.21" style="vector-effect: none; fill: none; stroke: rgb(61, 91, 226); stroke-opacity: 1; stroke-width: 1.5px; opacity: 1;"/></g><g class="points"/><g class="text"/></g></g></g></g><path class="xlines-above crisp" d="M40.5,264.25H270.5M40.5,152.60000000000002H270.5" style="fill: none; stroke-width: 0.5px; stroke: rgb(0, 0, 0); stroke-opacity: 1;"/><path class="ylines-above crisp" d="M40.75,152.85000000000002V264M270.25,152.85000000000002V264" style="fill: none; stroke-width: 0.5px; stroke: rgb(0, 0, 0); stroke-opacity: 1;"/><g class="overlines-above"/><g class="xaxislayer-above"><path class="x2tick ticks crisp" d="M0,264v-5" transform="translate(104.16,0)" style="stroke: rgb(0, 0, 0); stroke-opacity: 1; stroke-width: 0.5px;"/><path class="x2tick ticks crisp" d="M0,264v-5" transform="translate(167.76,0)" style="stroke: rgb(0, 0, 0); stroke-opacity: 1; stroke-width: 0.5px;"/><path class="x2tick ticks crisp" d="M0,264v-5" transform="translate(231.36,0)" style="stroke: rgb(0, 0, 0); stroke-opacity: 1; stroke-width: 0.5px;"/><g class="x2tick"><text text-anchor="middle" x="0" y="277.7" transform="translate(104.16,0)" style="font-family: 'Open Sans', verdana, arial, sans-serif; font-size: 11px; fill: rgb(0, 0, 0); fill-opacity: 1; white-space: pre; opacity: 1;">20</text></g><g class="x2tick"><text text-anchor="middle" x="0" y="277.7" style="font-family: 'Open Sans', verdana, arial, sans-serif; font-size: 11px; fill: rgb(0, 0, 0); fill-opacity: 1; white-space: pre; opacity: 1;" transform="translate(167.76,0)">40</text></g><g class="x2tick"><text text-anchor="middle" x="0" y="277.7" style="font-family: 'Open Sans', verdana, arial, sans-serif; font-size: 11px; fill: rgb(0, 0, 0); fill-opacity: 1; white-space: pre; opacity: 1;" transform="translate(231.36,0)">60</text></g></g><g class="yaxislayer-above"><path class="y2tick ticks crisp" d="M41,0h5" transform="translate(0,258.49)" style="stroke: rgb(0, 0, 0); stroke-opacity: 1; stroke-width: 0.5px;"/><path class="y2tick ticks crisp" d="M41,0h5" transform="translate(0,221.58000000000004)" style="stroke: rgb(0, 0, 0); stroke-opacity: 1; stroke-width: 0.5px;"/><path class="y2tick ticks crisp" d="M41,0h5" transform="translate(0,184.66000000000003)" style="stroke: rgb(0, 0, 0); stroke-opacity: 1; stroke-width: 0.5px;"/><g class="y2tick"><text text-anchor="end" x="38.3" y="3.8499999999999996" transform="translate(0,258.49)" style="font-family: 'Open Sans', verdana, arial, sans-serif; font-size: 11px; fill: rgb(0, 0, 0); fill-opacity: 1; white-space: pre; opacity: 1;">0</text></g><g class="y2tick"><text text-anchor="end" x="38.3" y="3.8499999999999996" style="font-family: 'Open Sans', verdana, arial, sans-serif; font-size: 11px; fill: rgb(0, 0, 0); fill-opacity: 1; white-space: pre; opacity: 1;" transform="translate(0,221.58000000000004)">5k</text></g><g class="y2tick"><text text-anchor="end" x="38.3" y="3.8499999999999996" style="font-family: 'Open Sans', verdana, arial, sans-serif; font-size: 11px; fill: rgb(0, 0, 0); fill-opacity: 1; white-space: pre; opacity: 1;" transform="translate(0,184.66000000000003)">10k</text></g></g><g class="overaxes-above"/></g></g><g class="polarlayer"/><g class="smithlayer"/><g class="ternarylayer"/><g class="geolayer"/><g class="funnelarealayer"/><g class="pielayer"/><g class="iciclelayer"/><g class="treemaplayer"/><g class="sunburstlayer"/><g class="glimages"/><defs id="topdefs-9c1557"><g class="clips"/></defs><g class="layer-above"><g class="imagelayer"/><g class="shapelayer"/></g><g class="infolayer"><g class="g-gtitle"><text class="gtitle" x="150" y="15" text-anchor="middle" dy="0em" style="opacity: 1; font-family: 'Open Sans', verdana, arial, sans-serif; font-size: 11px; fill: rgb(0, 0, 0); fill-opacity: 1; white-space: pre;">Oa growth and mCherry expression</text></g><g class="g-xtitle"><text class="xtitle" x="155.5" y="149.09999999999997" text-anchor="middle" style="opacity: 1; font-family: 'Open Sans', verdana, arial, sans-serif; font-size: 11px; fill: rgb(0, 0, 0); fill-opacity: 1; white-space: pre;">Time (h)</text></g><g class="g-x2title" transform="translate(0,4.550000000000011)"><text class="x2title" x="155.5" y="288.153125" text-anchor="middle" style="opacity: 1; font-family: 'Open Sans', verdana, arial, sans-serif; font-size: 11px; fill: rgb(0, 0, 0); fill-opacity: 1; white-space: pre;">Time (h)</text></g><g class="g-ytitle"><text class="ytitle" transform="rotate(-90,19.18125,85.57499999999999)" x="19.18125" y="85.57499999999999" text-anchor="middle" style="opacity: 1; font-family: 'Open Sans', verdana, arial, sans-serif; font-size: 11px; fill: rgb(0, 0, 0); fill-opacity: 1; white-space: pre;">OD600</text></g><g class="g-y2title"><text class="y2title" transform="rotate(-90,16.3375,208.425)" x="16.3375" y="208.425" text-anchor="middle" style="opacity: 1; font-family: 'Open Sans', verdana, arial, sans-serif; font-size: 11px; fill: rgb(0, 0, 0); fill-opacity: 1; white-space: pre;">mCherry</text></g></g></svg>