<svg class="main-svg" xmlns="http://www.w3.org/2000/svg" xmlns:xlink="http://www.w3.org/1999/xlink" width="300" height="300" style="" viewBox="0 0 300 300"><rect x="0" y="0" width="300" height="300" style="fill: rgb(255, 255, 255); fill-opacity: 1;"/><defs id="defs-437d2c"><g class="clips"><clipPath id="clip437d2cxyplot" class="plotclip"><rect width="222" height="111.14999999999999"/></clipPath><clipPath id="clip437d2cx2y2plot" class="plotclip"><rect width="222" height="111.14999999999999"/></clipPath><clipPath class="axesclip" id="clip437d2cx"><rect x="48" y="0" width="222" height="300"/></clipPath><clipPath class="axesclip" id="clip437d2cy"><rect x="0" y="30" width="300" height="111.14999999999999"/></clipPath><clipPath class="axesclip" id="clip437d2cxy"><rect x="48" y="30" width="222" height="111.14999999999999"/></clipPath><clipPath class="axesclip" id="clip437d2cy2"><rect x="0" y="152.85000000000002" width="300" height="111.14999999999999"/></clipPath><clipPath class="axesclip" id="clip437d2cxy2"><rect x="48" y="152.85000000000002" width="222" height="111.14999999999999"/></clipPath><clipPath class="axesclip" id="clip437d2cx2"><rect x="48" y="0" width="222" height="300"/></clipPath><clipPath class="axesclip" id="clip437d2cx2y"><rect x="48" y="30" width="222" height="111.14999999999999"/></clipPath><clipPath class="axesclip" id="clip437d2cx2y2"><rect x="48" y="152.85000000000002" width="222" height="111.14999999999999"/></clipPath></g><g class="gradients"/><g class="patterns"/></defs><g class="bglayer"/><g class="layer-below"><g class="imagelayer"/><g class="shapelayer"/></g><g class="cartesianlayer"><g class="subplot xy"><g class="layer-subplot"><g class="shapelayer"/><g class="imagelayer"/></g><g class="minor-gridlayer"><g class="x"/><g class="y"/></g><g class="gridlayer"><g class="x"><path class="xgrid crisp" transform="translate(109.25999999999999,0)" d="M0,30v111.14999999999999" style="stroke: rgb(128, 128, 128); stroke-opacity: 1; stroke-width: 0.2px;"/><path class="xgrid crisp" transform="translate(170.9,0)" d="M0,30v111.14999999999999" style="stroke: rgb(128, 128, 128); stroke-opacity: 1; stroke-width: 0.2px;"/><path class="xgrid crisp" transform="translate(232.55,0)" d="M0,30v111.14999999999999" style="stroke: rgb(128, 128, 128); stroke-opacity: 1; stroke-width: 0.2px;"/></g><g class="y"><path class="ygrid crisp" transform="translate(0,135.95)" d="M48,0h222" style="stroke: rgb(128, 128, 128); stroke-opacity: 1; stroke-width: 0.2px;"/><path class="ygrid crisp" transform="translate(0,95.52)" d="M48,0h222" style="stroke: rgb(128, 128, 128); stroke-opacity: 1; stroke-width: 0.2px;"/><path class="ygrid crisp" transform="translate(0,55.09)" d="M48,0h222" style="stroke: rgb(128, 128, 128); stroke-opacity: 1; stroke-width: 0.2px;"/></g></g><g class="zerolinelayer"/><g class="layer-between"><g class="shapelayer"/><g class="imagelayer"/></g><path class="xlines-below"/><path class="ylines-below"/><g class="overlines-below"/><g class="xaxislayer-below"/><g class="yaxislayer-below"/><g class="overaxes-below"/><g class="overplot"><g class="xy" transform="translate(48,30)" clip-path="url(#clip437d2cxyplot)"><g class="scatterlayer mlayer"><g class="trace scatter trace96db85" style="stroke-miterlimit: 2; opacity: 1;"><g class="fills"/><g class="errorbars"/><g class="lines"><path class="js-line" d="M0.09,105.13L13.96,104.45L14.47,104.31L19.09,104.23L19.61,104.26L22.18,103.9L22.69,104.14L30.39,103.84L30.91,103.81L41.7,103.14L42.21,103.04L49.91,102.45L50.43,102.39L55.05,101.94L55.57,101.74L61.22,101.33L61.73,101.22L64.81,100.39L65.33,99.22L67.38,97.41L67.89,97.26L70.98,96.92L71.49,96.9L81.25,96.21L81.76,96.26L89.98,94.74L90.5,94.72L94.09,93.69L94.61,93.58L104.37,91.81L104.88,91.95L110.02,91.5L110.53,91.19L116.69,86.45L117.21,86.05L118.24,85.31L118.75,84.67L122.86,81.09L123.37,80.67L125.94,78.86L126.45,78.79L130.56,77.96L131.08,77.74L139.3,75.28L139.81,76.07L145.46,73.38L145.97,73.09L153.17,70.14L153.68,69.93L159.33,67.26L159.84,67.47L169.6,64.93L170.12,64.88L172.69,64.29L173.2,64.26L176.8,63.61L177.31,63.49L203.51,60.21L204.02,59.92L205.05,60.36L205.56,60.23L216.35,59.31L216.86,58.96L219.95,58.94L220.46,58.95L222,58.77" style="vector-effect: none; fill: none; stroke: rgb(138, 43, 226); stroke-opacity: 1; stroke-width: 1.5px; opacity: 1;"/></g><g class="points"/><g class="text"/></g><g class="trace scatter tracec4443c" style="stroke-miterlimit: 2; opacity: 1;"><g class="fills"/><g class="errorbars"/><g class="lines"><path class="js-line" d="M0.09,105.59L25.77,104.24L26.29,104.46L30.39,104.31L30.91,104.34L47.35,103.15L47.86,103.13L60.19,101.94L60.7,101.87L64.81,101.26L65.33,100.51L67.89,98.65L68.41,98.42L70.46,97.69L70.98,97.57L74.06,97.52L74.57,97.26L87.93,96.14L88.44,96.02L105.39,92.16L105.91,92.31L111.56,91.97L112.07,91.51L117.72,87.37L118.24,86.99L124.91,80.57L125.43,80.44L126.45,80.36L126.97,78.21L129.02,78.02L129.54,78.02L132.1,77.66L132.62,77.45L135.7,76.72L136.21,76.35L139.3,74.99L139.81,75.91L145.46,73.72L145.97,73.45L154.71,69.99L155.22,69.78L162.41,67.25L162.93,67.17L174.74,64.35L175.25,64.51L181.93,63.11L182.45,63.09L189.12,62.7L189.64,62.48L191.18,62.36L191.69,62.51L194.26,61.68L194.77,61.83L196.32,61.76L196.83,61.44L200.43,61.19L200.94,61.23L202.48,61.21L202.99,61.02L204.53,60.95L205.05,60.92L208.13,60.76L208.64,60.8L210.7,60.09L211.21,60.2L221.49,59.66L222,59.37" style="vector-effect: none; fill: none; stroke: rgb(138, 43, 226); stroke-opacity: 1; stroke-width: 1.5px; opacity: 1;"/></g><g class="points"/><g class="text"/></g><g class="trace scatter trace9542c8" style="stroke-miterlimit: 2; opacity: 1;"><g class="fills"/><g class="errorbars"/><g class="lines"><path class="js-line" d="M0.09,105.29L35.02,103.87L35.53,103.88L40.67,103.47L41.18,103.36L47.35,102.93L47.86,102.86L54.54,102.4L55.05,102.38L60.19,101.72L60.7,101.65L64.81,100.9L65.33,99.93L67.38,98.32L67.89,98.13L70.98,97.49L71.49,97.67L75.09,97.22L75.6,97.3L79.2,96.9L79.71,97.05L106.93,92.49L107.45,92.61L111.56,91.67L112.07,91.33L124.91,80.35L125.43,80.46L125.94,80.4L126.45,78.54L127.48,78.29L128,78.33L134.67,76.92L135.19,76.8L136.73,76.3L137.24,75.96L139.3,75.09L139.81,75.81L144.95,73.92L145.46,73.62L150.6,71.62L151.11,71.52L167.55,66.25L168.06,66.25L174.74,64.65L175.25,64.79L183.47,63.19L183.99,63.23L191.18,62.53L191.69,62.67L194.26,61.83L194.77,61.99L196.83,61.58L197.34,61.45L199.91,61.39L200.43,61.37L203.51,60.96L204.02,60.65L205.05,61.06L205.56,60.96L222,59.66" style="vector-effect: none; fill: none; stroke: rgb(138, 43, 226); stroke-opacity: 1; stroke-width: 1.5px; opacity: 1;"/></g><g class="points"/><g class="text"/></g><g class="trace scatter trace0aee76" style="stroke-miterlimit: 2; opacity: 1;"><g class="fills"/><g class="errorbars"/><g class="lines"><path class="js-line" d="M0.09,104.97L12.93,103.36L13.44,103.26L24.74,99.62L25.26,99.35L33.48,93.78L33.99,93.16L37.59,87.18L38.1,86.08L41.7,78.23L42.21,76.58L54.54,66.11L55.05,66.44L56.08,66.18L56.59,65.87L58.65,65.11L59.16,65.48L61.73,64.87L62.24,65.05L64.81,64.43L65.33,63.74L68.92,61.9L69.44,61.56L70.46,60.44L70.98,60.45L73.03,58.61L73.54,58.12L75.6,56.14L76.11,54.26L78.17,53.51L78.68,53.83L87.93,52.62L88.44,52.5L91.01,52.07L91.52,51.69L96.66,50.03L97.17,49.49L99.23,49.37L99.74,49.01L105.39,47.13L105.91,47.37L113.61,45.38L114.13,45.14L130.56,42.57L131.08,42.2L132.1,42.14L132.62,42.07L135.7,42.43L136.21,41.66L137.24,41.76L137.76,41.77L139.3,41.47L139.81,44.47L141.35,45.8L141.86,45.58L144.95,46.77L145.46,46.41L148.03,46.6L148.54,46.75L151.62,46.91L152.14,46.57L154.19,46.57L154.71,46.62L158.82,46.25L159.33,45.67L160.36,46.51L160.87,46.39L164.47,45.85L164.98,46.21L168.58,46.29L169.09,45.44L170.12,46.29L170.63,45.93L171.66,45.62L172.17,45.88L174.23,46.14L174.74,45.91L175.77,46.31L176.28,46.03L192.21,46.54L192.72,46.27L193.75,46.53L194.26,46.16L195.8,46.79L196.32,46.58L197.86,46.39L198.37,46.21L199.91,46.45L200.43,46.43L202.48,46.69L202.99,46.5L204.02,45.93L204.53,46.8L208.13,46.83L208.64,46.91L209.67,46.47L210.19,46.47L212.24,46.33L212.75,46.7L216.86,46.39L217.38,46.56L218.92,46.42L219.43,46.66L220.97,46.3L221.49,46.76L222,46.43" style="vector-effect: none; fill: none; stroke: rgb(252, 141, 98); stroke-opacity: 1; stroke-width: 1.5px; opacity: 1;"/></g><g class="points"/><g class="text"/></g><g class="trace scatter tracede5b4a" style="stroke-miterlimit: 2; opacity: 1;"><g class="fills"/><g class="errorbars"/><g class="lines"><path class="js-line" d="M0.09,104.74L13.96,103.14L14.47,102.83L22.18,100.67L22.69,100.5L27.31,98.05L27.83,97.75L32.96,94.18L33.48,93.6L37.07,87.7L37.59,86.55L42.72,75.47L43.24,76.02L44.26,75.47L44.78,74.55L48.89,70.65L49.4,70.72L52.48,68.08L53,67.56L55.05,66.7L55.57,66.89L58.13,65.24L58.65,65.53L59.67,65.44L60.19,65.23L66.35,64.22L66.87,63.97L68.92,62.85L69.44,62.08L71.49,60.73L72,60.28L75.09,58.31L75.6,57.23L76.63,54.87L77.14,54.74L80.22,54.51L80.74,54.66L82.28,53.89L82.79,54.02L85.36,53.42L85.87,53.47L87.93,52.9L88.44,52.68L90.5,52.32L91.01,52.19L92.55,51.44L93.06,51.56L97.69,49.82L98.2,49.75L100.77,48.81L101.28,48.63L110.02,46.51L110.53,46.91L113.61,45.76L114.13,45.54L119.26,44.76L119.78,44.52L121.83,44.66L122.34,44.32L123.89,44.3L124.4,44.01L128.51,42.93L129.02,42.92L131.08,42.3L131.59,42.37L134.67,42.23L135.19,42.17L136.73,42.28L137.24,41.9L139.3,41.72L139.81,44.45L141.35,46.29L141.86,46.11L144.95,47.28L145.46,46.85L148.03,47.1L148.54,47.24L153.68,46.93L154.19,46.83L158.82,46.55L159.33,45.94L160.36,46.76L160.87,46.63L166.01,46.49L166.52,46.58L168.58,46.83L169.09,46.02L170.12,46.79L170.63,46.49L171.66,46.16L172.17,46.39L175.77,46.86L176.28,46.64L192.21,47.19L192.72,46.87L193.75,47.11L194.26,46.78L195.8,47.44L196.32,47.22L197.86,47.03L198.37,46.8L199.91,47.08L200.43,47.08L202.99,47.17L203.51,46.85L204.02,46.49L204.53,47.36L208.13,47.48L208.64,47.6L209.67,47.13L210.19,47.16L212.24,47.04L212.75,47.38L215.84,47.21L216.35,47.36L217.89,46.89L218.4,47.24L220.97,47.05L221.49,47.43L222,47.1" style="vector-effect: none; fill: none; stroke: rgb(252, 141, 98); stroke-opacity: 1; stroke-width: 1.5px; opacity: 1;"/></g><g class="points"/><g class="text"/></g><g class="trace scatter tracedd6e3c" style="stroke-miterlimit: 2; opacity: 1;"><g class="fills"/><g class="errorbars"/><g class="lines"><path class="js-line" d="M0.09,104.88L12.42,103.51L12.93,103.36L23.72,100.43L24.23,100.06L32.45,95.41L32.96,94.95L36.05,91.5L36.56,90.73L39.13,85.05L39.64,83.78L41.7,78.82L42.21,77.47L43.24,76.34L43.75,76.62L46.83,72.89L47.35,72.51L49.91,70.44L50.43,70.09L54.54,66.66L55.05,67.15L55.57,67.29L56.08,66.5L58.65,65.51L59.16,65.94L61.22,65.02L61.73,64.99L63.78,65.08L64.3,64.66L64.81,64.61L65.33,63.07L71.49,59.84L72,59.19L75.6,57.07L76.11,55.6L77.14,53.93L77.65,53.81L86.9,53.52L87.41,53.19L92.55,51.42L93.06,51.62L96.15,50.28L96.66,50.21L98.72,49.35L99.23,49.57L104.37,47.3L104.88,47.41L108.48,46.58L108.99,46.57L117.21,44.77L117.72,44.29L121.83,44.09L122.34,43.92L124.4,43.55L124.91,43.25L134.16,41.3L134.67,41.6L137.76,41.31L138.27,41.16L139.3,41.05L139.81,44.05L141.35,46.02L141.86,45.81L144.95,46.83L145.46,46.39L147.52,46.41L148.03,46.29L150.08,46.6L150.6,46.23L152.65,46.22L153.17,46.12L157.79,45.83L158.3,45.42L158.82,45.62L159.33,44.97L160.36,45.85L160.87,45.7L164.98,45.58L165.49,45.69L167.04,45.61L167.55,45.56L168.58,45.68L169.09,44.77L170.12,45.68L170.63,45.36L171.66,44.95L172.17,45.21L174.23,45.51L174.74,45.28L175.77,45.63L176.28,45.36L185.53,45.21L186.04,45.64L188.1,45.71L188.61,45.77L191.69,46.14L192.21,45.73L194.26,45.25L194.77,45.66L196.32,45.65L196.83,45.35L199.4,45.61L199.91,45.61L204.02,45.02L204.53,45.91L208.13,46L208.64,46.08L209.67,45.6L210.19,45.63L211.73,45.48L212.24,45.42L213.27,45.63L213.78,45.54L215.84,45.55L216.35,45.69L217.89,45.23L218.4,45.64L219.95,45.46L220.46,45.52L222,45.42" style="vector-effect: none; fill: none; stroke: rgb(252, 141, 98); stroke-opacity: 1; stroke-width: 1.5px; opacity: 1;"/></g><g class="points"/><g class="text"/></g><g class="trace scatter traceea84cf" style="stroke-miterlimit: 2; opacity: 1;"><g class="fills"/><g class="errorbars"/><g class="lines"><path class="js-line" d="M0.09,104.14L10.36,101.62L10.87,100.75L13.44,100.53L13.96,100.21L15.5,100.29L16.01,99.84L24.74,97.04L25.26,96.56L27.31,94.87L27.83,94.32L31.94,90.41L32.45,89.68L41.7,79.75L42.21,79.26L49.4,72.2L49.91,71.97L55.57,69.83L56.08,69.83L58.65,68.5L59.16,68.63L63.27,67.15L63.78,67.07L64.81,66.85L65.33,63.5L73.54,63.42L74.06,63.17L77.65,62.57L78.17,62.36L80.74,62.07L81.25,61.69L81.76,61.87L82.28,61.22L85.87,59.7L86.39,59.06L87.93,58.2L88.44,57.67L89.47,57.27L89.98,56.8L92.04,55.72L92.55,55.32L93.58,55.21L94.09,54.47L98.72,51.87L99.23,52.07L100.77,51.03L101.28,50.83L105.91,46.69L106.42,45.75L106.93,45.79L107.45,44.63L110.02,42.03L110.53,40.56L111.04,40.81L111.56,39.75L112.58,39.48L113.1,36.81L114.64,33.86L115.15,34.36L116.18,34.33L116.69,34.64L117.72,34.55L118.24,34.3L122.86,34.84L123.37,34.36L124.4,34.2L124.91,33.97L126.97,33.64L127.48,33.04L132.1,31.3L132.62,30.95L134.67,30.95L135.19,30.95L135.7,31.03L136.21,30.3L137.24,30.13L137.76,30.11L139.3,29.28L139.81,31.92L142.89,30.19L143.41,29.98L145.46,28.55L145.97,28.13L151.62,25.06L152.14,24.47L153.68,23.6L154.19,23.21L156.76,21.91L157.28,21.78L159.33,19.76L159.84,20.13L164.47,17.48L164.98,17.69L168.58,16.58L169.09,15.61L170.12,16.06L170.63,15.5L172.17,15.05L172.69,15.03L175.77,14.21L176.28,13.56L180.39,12.85L180.91,12.55L183.47,11.66L183.99,11.93L186.04,11.33L186.56,11.27L187.07,10.81L187.58,11.42L189.64,11.24L190.15,11.5L192.72,10.19L193.23,10.67L195.29,10.31L195.8,10.4L198.37,8.95L198.88,9.26L202.48,8.7L202.99,8.56L204.02,7.62L204.53,8.47L207.62,7.16L208.13,7.97L210.19,7.26L210.7,6.76L213.27,6.85L213.78,6.55L214.81,6.7L215.32,6.37L217.38,6.26L217.89,5.85L219.43,6.18L219.95,5.83L222,5.56" style="vector-effect: none; fill: none; stroke: rgb(61, 91, 226); stroke-opacity: 1; stroke-width: 1.5px; opacity: 1;"/></g><g class="points"/><g class="text"/></g><g class="trace scatter trace2fc53d" style="stroke-miterlimit: 2; opacity: 1;"><g class="fills"/><g class="errorbars"/><g class="lines"><path class="js-line" d="M0.09,103.74L9.85,101.6L10.36,100.29L10.87,100.59L11.39,99.93L15.5,99.72L16.01,99.28L18.58,99.12L19.09,98.83L26.29,95.77L26.8,95.36L40.67,81.1L41.18,80.55L47.86,72.45L48.37,71.92L54.54,68.6L55.05,68.46L63.78,64.72L64.3,64.86L64.81,64.63L65.33,62.08L67.89,61.15L68.41,61.41L70.98,61.97L71.49,61.77L76.63,61.21L77.14,60.81L80.74,60.05L81.25,59.47L82.28,59.44L82.79,59.29L86.9,57.2L87.41,56.74L93.06,53.68L93.58,53.47L95.12,52.44L95.63,52.08L97.17,50.81L97.69,50.99L98.2,50.96L98.72,50.09L99.74,49.68L100.26,49.2L103.34,47.73L103.85,47.18L108.48,43.37L108.99,42.82L114.64,35.96L115.15,36.1L116.18,33.52L116.69,31.37L118.75,29.75L119.26,30.02L120.8,29.68L121.32,29.86L122.86,30.15L123.37,30.27L124.4,30.11L124.91,30.01L139.3,24.06L139.81,26.66L143.92,25.15L144.43,24.57L145.46,23.98L145.97,23.77L147.52,23.51L148.03,23.31L154.71,20.4L155.22,20.11L159.33,17.22L159.84,17.98L163.44,16.51L163.95,15.83L168.06,15.26L168.58,15.25L169.09,14.12L169.6,14.78L170.12,14.72L171.66,13.67L172.17,13.83L174.23,13.54L174.74,13.24L175.77,13.4L176.28,13L183.99,11.45L184.5,11.27L185.01,11.47L185.53,10.83L186.56,11.27L187.07,10.61L188.1,11.11L188.61,11.3L191.69,11.35L192.21,10.87L193.23,10.79L193.75,10.6L194.26,9.98L194.77,10.52L195.29,10.6L196.32,10.29L196.83,9.86L198.37,9.56L198.88,9.99L200.94,9.6L201.45,9.82L204.02,8.23L204.53,9.36L207.62,8.09L208.13,9.02L208.64,9.1L209.16,8.13L211.21,8.06L211.73,8.01L214.29,7.63L214.81,8.08L216.86,7.4L217.38,7.59L217.89,7.03L218.4,7.57L218.92,7.23L220.46,7.34L220.97,6.95L222,6.89" style="vector-effect: none; fill: none; stroke: rgb(61, 91, 226); stroke-opacity: 1; stroke-width: 1.5px; opacity: 1;"/></g><g class="points"/><g class="text"/></g><g class="trace scatter traceb89a64" style="stroke-miterlimit: 2; opacity: 1;"><g class="fills"/><g class="errorbars"/><g class="lines"><path class="js-line" d="M0.09,103.9L6.77,102.3L7.28,101.99L10.87,100.83L11.39,100.69L11.9,100.02L12.42,100.59L13.44,100.09L13.96,100.25L15.5,99.84L16.01,99.8L17.55,98.75L18.07,99.47L24.74,97.36L25.26,96.76L26.8,95.48L27.31,94.99L32.45,89.84L32.96,89.04L35.53,86.61L36.05,85.71L38.1,83.83L38.61,83.33L41.7,80.11L42.21,79.55L44.26,76.97L44.78,76.18L48.89,71.93L49.4,71.64L51.97,70.5L52.48,69.3L55.57,68.33L56.08,68.42L58.65,67.2L59.16,67.34L59.67,66.41L60.19,67.04L64.81,65.92L65.33,63.46L67.89,64.18L68.41,64.44L70.46,65.38L70.98,65.41L73.03,65.65L73.54,65.84L81.76,65.59L82.28,65.1L85.36,64.49L85.87,64.35L88.44,62.97L88.96,62.89L92.55,61.1L93.06,60.96L100.26,57.2L100.77,56.93L105.91,53.2L106.42,52.22L107.45,51.3L107.96,50.67L108.48,50.49L108.99,49.13L111.04,46.43L111.56,45.33L113.61,43.43L114.13,43.12L115.15,40.42L115.67,38.02L118.75,37.75L119.26,38.19L120.29,38.54L120.8,38.74L124.4,38.93L124.91,38.86L133.65,35.65L134.16,35.8L135.7,35.56L136.21,34.71L137.24,34.41L137.76,34.36L139.3,33.48L139.81,35.84L145.46,31.02L145.97,30.52L161.38,20.13L161.9,19.92L166.52,18.25L167.04,18.09L169.09,16.86L169.6,17.53L172.69,16.41L173.2,16.43L178.85,14.64L179.36,14.67L181.93,13.95L182.45,13.68L185.01,13.37L185.53,12.57L186.56,13.17L187.07,12.75L188.1,13.05L188.61,13.12L190.15,13.36L190.67,13.16L192.72,12.38L193.23,12.77L194.77,12.42L195.29,12.5L196.32,12.15L196.83,11.68L198.37,11.26L198.88,11.45L202.99,10.75L203.51,10.42L204.02,9.92L204.53,10.89L207.62,9.63L208.13,10.31L208.64,10.44L209.16,9.63L211.21,9.52L211.73,9.34L214.29,8.93L214.81,9.37L216.86,8.78L217.38,9.01L218.4,8.78L218.92,8.48L220.46,8.39L220.97,8.08L222,8.15" style="vector-effect: none; fill: none; stroke: rgb(61, 91, 226); stroke-opacity: 1; stroke-width: 1.5px; opacity: 1;"/></g><g class="points"/><g class="text"/></g></g></g></g><path class="xlines-above crisp" d="M47.5,141.39999999999998H270.5M47.5,29.75H270.5" style="fill: none; stroke-width: 0.5px; stroke: rgb(0, 0, 0); stroke-opacity: 1;"/><path class="ylines-above crisp" d="M47.75,30V141.14999999999998M270.25,30V141.14999999999998" style="fill: none; stroke-width: 0.5px; stroke: rgb(0, 0, 0); stroke-opacity: 1;"/><g class="overlines-above"/><g class="xaxislayer-above"><path class="xtick ticks crisp" d="M0,141.14999999999998v-5" transform="translate(109.25999999999999,0)" style="stroke: rgb(0, 0, 0); stroke-opacity: 1; stroke-width: 0.5px;"/><path class="xtick ticks crisp" d="M0,141.14999999999998v-5" transform="translate(170.9,0)" style="stroke: rgb(0, 0, 0); stroke-opacity: 1; stroke-width: 0.5px;"/><path class="xtick ticks crisp" d="M0,141.14999999999998v-5" transform="translate(232.55,0)" style="stroke: rgb(0, 0, 0); stroke-opacity: 1; stroke-width: 0.5px;"/></g><g class="yaxislayer-above"><path class="ytick ticks crisp" d="M48,0h5" transform="translate(0,135.95)" style="stroke: rgb(0, 0, 0); stroke-opacity: 1; stroke-width: 0.5px;"/><path class="ytick ticks crisp" d="M48,0h5" transform="translate(0,95.52)" style="stroke: rgb(0, 0, 0); stroke-opacity: 1; stroke-width: 0.5px;"/><path class="ytick ticks crisp" d="M48,0h5" transform="translate(0,55.09)" style="stroke: rgb(0, 0, 0); stroke-opacity: 1; stroke-width: 0.5px;"/><g class="ytick"><text text-anchor="end" x="45.3" y="3.8499999999999996" transform="translate(0,135.95)" style="font-family: 'Open Sans', verdana, arial, sans-serif; font-size: 11px; fill: rgb(0, 0, 0); fill-opacity: 1; white-space: pre; opacity: 1;">0</text></g><g class="ytick"><text text-anchor="end" x="45.3" y="3.8499999999999996" style="font-family: 'Open Sans', verdana, arial, sans-serif; font-size: 11px; fill: rgb(0, 0, 0); fill-opacity: 1; white-space: pre; opacity: 1;" transform="translate(0,95.52)">0.2</text></g><g class="ytick"><text text-anchor="end" x="45.3" y="3.8499999999999996" style="font-family: 'Open Sans', verdana, arial, sans-serif; font-size: 11px; fill: rgb(0, 0, 0); fill-opacity: 1; white-space: pre; opacity: 1;" transform="translate(0,55.09)">0.4</text></g></g><g class="overaxes-above"/></g><g class="subplot x2y2"><g class="layer-subplot"><g class="shapelayer"/><g class="imagelayer"/></g><g class="minor-gridlayer"><g class="x2"/><g class="y2"/></g><g class="gridlayer"><g class="x2"><path class="x2grid crisp" transform="translate(109.25999999999999,0)" d="M0,152.85000000000002v111.14999999999999" style="stroke: rgb(128, 128, 128); stroke-opacity: 1; stroke-width: 0.2px;"/><path class="x2grid crisp" transform="translate(170.9,0)" d="M0,152.85000000000002v111.14999999999999" style="stroke: rgb(128, 128, 128); stroke-opacity: 1; stroke-width: 0.2px;"/><path class="x2grid crisp" transform="translate(232.55,0)" d="M0,152.85000000000002v111.14999999999999" style="stroke: rgb(128, 128, 128); stroke-opacity: 1; stroke-width: 0.2px;"/></g><g class="y2"><path class="y2grid crisp" transform="translate(0,257.94000000000005)" d="M48,0h222" style="stroke: rgb(128, 128, 128); stroke-opacity: 1; stroke-width: 0.2px;"/><path class="y2grid crisp" transform="translate(0,220.3)" d="M48,0h222" style="stroke: rgb(128, 128, 128); stroke-opacity: 1; stroke-width: 0.2px;"/><path class="y2grid crisp" transform="translate(0,182.65000000000003)" d="M48,0h222" style="stroke: rgb(128, 128, 128); stroke-opacity: 1; stroke-width: 0.2px;"/></g></g><g class="zerolinelayer"/><g class="layer-between"><g class="shapelayer"/><g class="imagelayer"/></g><path class="xlines-below"/><path class="ylines-below"/><g class="overlines-below"/><g class="xaxislayer-below"/><g class="yaxislayer-below"/><g class="overaxes-below"/><g class="overplot"><g class="x2y2" transform="translate(48,152.85000000000002)" clip-path="url(#clip437d2cx2y2plot)"><g class="scatterlayer mlayer"><g class="trace scatter traceb39bd1" style="stroke-miterlimit: 2; opacity: 1;"><g class="fills"/><g class="errorbars"/><g class="lines"><path class="js-line" d="M0,104.79L1.03,105.19L1.54,104.04L2.57,104.79L3.08,104.79L7.71,104.06L8.22,104.36L12.33,103.86L12.84,103.36L14.9,103.66L15.41,103.11L16.44,103.81L16.95,102.86L17.98,103.08L18.49,102.98L19.52,103.03L20.03,102.46L21.57,102.66L22.09,102.43L23.12,103.11L23.63,102.46L32.36,101.73L32.88,101.15L33.9,101.8L34.42,101.8L35.96,101.25L36.47,101.63L37.5,101.05L38.01,101.1L38.53,101.25L39.04,100.35L39.55,100.07L40.07,101.02L42.12,100.17L42.64,100.52L45.2,99.64L45.72,99.82L46.75,99.82L47.26,99.49L48.29,99.54L48.8,99.02L50.34,99.87L50.85,98.69L51.88,98.79L52.4,99.44L52.91,98.11L53.42,98.82L53.94,98.97L55.48,97.79L55.99,98.41L56.51,97.71L57.02,98.16L57.53,98.14L60.1,96.56L60.62,96.91L62.16,96.76L62.67,96.31L64.72,95.15L65.24,94.35L67.81,92.47L68.32,92.79L69.86,91.56L70.38,91.97L71.92,92.44L72.43,92.34L73.97,91.14L74.48,91.09L76.03,91.24L76.54,90.61L78.08,90.38L78.59,89.98L80.14,89.98L80.65,89.43L83.73,89.58L84.24,88.98L87.84,87.27L88.35,87L88.87,87.1L89.38,86.12L91.44,85.64L91.95,85.31L92.98,85.19L93.49,84.64L95.55,84.34L96.06,83.46L99.66,82.35L100.17,81.68L100.68,82.23L101.2,81.5L102.22,81.88L102.74,81.52L103.25,82.4L103.76,82.05L104.28,82.13L104.79,82.96L105.31,81.85L105.82,82.8L106.33,82.5L106.85,83.01L107.36,83.28L107.87,82.53L110.96,78.69L111.47,79.14L113.01,77.99L113.52,77.91L115.58,75L116.09,74.3L116.61,74.32L117.12,73.27L118.15,72.01L118.66,72.47L121.74,67.85L122.26,68.1L123.8,67.07L124.31,66.42L124.83,66.64L125.34,67.77L126.37,67.6L126.88,68.6L127.39,67.92L127.91,68.4L128.42,68.75L128.94,67.77L129.45,69.1L129.96,69.78L130.48,68.73L131.5,70.01L132.02,69.28L134.07,69.75L134.59,70.08L136.64,70.21L137.15,69.96L138.7,69.98L139.21,70.38L140.24,70.13L140.75,70.53L142.29,70.06L142.8,69.83L143.83,69.68L144.35,69.55L144.86,69.65L145.37,68.58L145.89,69.6L146.4,68.47L148.46,68.6L148.97,68.52L149.48,67.35L150,68.15L152.05,67.4L152.56,67.5L153.59,66.59L154.11,66.54L154.62,65.74L155.13,66.12L155.65,65.69L158.22,65.51L158.73,64.58L160.78,63.56L161.3,63.66L163.35,63.18L163.87,62.6L164.38,63.76L164.89,63.28L165.41,62.4L167.46,61.75L167.98,62.43L168.49,62.13L169,60.82L170.54,61.05L171.06,61L175.17,59.99L175.68,60.39L177.22,59.89L177.74,59.59L178.76,58.81L179.28,59.44L181.33,58.24L181.85,59.11L182.87,58.46L183.39,58.34L184.41,57.73L184.93,58.79L187.5,56.65L188.01,57.58L189.55,57.58L190.06,56.53L190.58,57.31L191.09,56.7L193.15,57.26L193.66,56.43L194.69,56.38L195.2,56.5L196.23,56.3L196.74,55.85L199.31,54.9L199.82,54.6L200.34,55.32L200.85,54.85L201.37,55.15L202.91,53.62L203.42,54.7L203.93,53.97L204.45,54.75L211.13,53.34L211.64,52.26L213.18,53.24L213.69,53.07L214.21,52.39L214.72,53.34L215.23,53.94L215.75,52.46L217.8,52.39L218.32,52.46L220.37,51.38L220.89,51.79L221.91,51.41" style="vector-effect: none; fill: none; stroke: rgb(138, 43, 226); stroke-opacity: 1; stroke-width: 1.5px; opacity: 1;"/></g><g class="points"/><g class="text"/></g><g class="trace scatter tracebc2f4b" style="stroke-miterlimit: 2; opacity: 1;"><g class="fills"/><g class="errorbars"/><g class="lines"><path class="js-line" d="M0,104.64L1.54,104.34L2.05,104.26L3.08,105.09L3.6,104.59L4.62,104.39L5.14,104.99L6.68,104.54L7.19,104.31L9.25,104.64L9.76,104.14L11.3,103.71L11.81,104.24L12.84,103.43L13.36,104.16L15.41,103.03L15.92,102.86L16.95,103.31L17.47,102.73L18.49,102.76L19.01,102.56L20.03,102.68L20.55,102.71L21.57,103.48L22.09,102.36L25.17,102.51L25.68,102.2L26.71,102.46L27.23,102.25L28.77,102.08L29.28,101.55L30.82,102.1L31.33,101.5L32.88,102.36L33.39,101.68L35.96,101.55L36.47,101.1L37.5,101.43L38.01,101.4L39.04,101.25L39.55,100.45L40.58,100.95L41.09,101.02L42.64,100.45L43.15,100.87L44.69,100.2L45.2,100.25L46.75,99.9L47.26,99.95L48.8,99.39L49.31,100.05L50.85,98.99L51.37,98.64L52.4,99.37L52.91,98.64L53.42,99.42L53.94,98.89L54.45,98.36L55.99,98.87L56.51,98.31L57.53,98.21L58.05,97.46L59.07,97.46L59.59,96.91L61.13,97.96L61.64,97.56L62.16,97.51L62.67,96.68L63.18,97.11L63.7,95.93L65.24,96.16L65.75,94.8L67.81,94.05L68.32,93.32L69.35,93.5L69.86,93.07L72.94,91.99L73.46,91.56L75,91.86L75.51,91.97L79.11,91.11L79.62,91.34L80.65,90.11L81.16,90.76L82.7,89.86L83.22,89.68L84.76,89.58L85.27,89.2L85.79,89.66L86.3,89.03L86.81,89.3L87.33,88.43L87.84,89L88.35,88.05L88.87,88.38L89.38,87.62L90.41,87.65L90.92,87.55L95.55,85.77L96.06,84.74L97.6,84.91L98.11,84.54L100.17,82.65L100.68,83.06L101.2,83.38L101.71,82.68L103.76,82.28L104.28,82.5L105.82,82.2L106.33,82.58L108.39,82.7L108.9,83.86L111.47,81.32L111.98,81.35L114.55,78.01L115.07,78.54L117.63,75.35L118.15,74.95L123.28,69.98L123.8,68.2L124.31,68.22L124.83,67.24L126.88,66.12L127.39,67.02L127.91,66.97L128.42,67.7L128.94,67.32L129.45,68.12L131.5,68.8L132.02,68.83L132.53,68.42L133.04,69.68L134.59,68.88L135.1,69.4L135.61,69.5L136.13,68.83L137.67,69.65L138.18,68.98L139.72,70.11L140.24,69.15L141.26,69.8L141.78,69.45L143.83,69.45L144.35,68.12L144.86,69.13L145.37,68.65L145.89,68.4L146.91,68.42L147.43,67.85L148.46,67.77L148.97,68.15L150.51,67.19L151.02,66.79L151.54,67.95L152.05,66.94L154.11,66.24L154.62,65.74L157.19,65.04L157.7,64.94L158.22,65.14L158.73,64.28L159.24,63.28L159.76,64.13L161.81,63.28L162.33,64.18L163.35,62.43L163.87,62.53L167.98,61.37L168.49,61.52L169,59.69L169.52,60.74L171.06,60.47L171.57,60.37L173.11,60.02L173.63,60.34L175.68,58.74L176.19,59.49L178.25,58.46L178.76,57.61L179.79,58.46L180.3,58.31L181.33,57.56L181.85,57.98L182.36,57.13L182.87,57.56L183.39,57.13L184.41,57.13L184.93,55.93L185.95,57.46L186.47,56.55L188.01,56.68L188.52,56.28L190.06,56.45L190.58,54.9L191.61,55.68L192.12,55.47L193.15,55.22L193.66,56.2L194.17,54.62L194.69,54.8L195.2,55.07L197.77,54.45L198.28,53.39L200.85,53.49L201.37,54.17L203.93,52.01L204.45,52.56L205.47,52.79L205.99,52.66L207.53,52.04L208.04,52.49L208.56,52.76L209.07,51.56L210.1,52.21L210.61,50.86L211.13,51.84L211.64,51.13L212.15,50.83L212.67,51.48L213.69,50.81L214.21,51.56L215.23,50.56L215.75,51.48L217.29,51.08L217.8,49.6L218.32,51.18L218.83,49.95L219.34,50.71L219.86,49.28L220.37,50.41L220.89,49.38L221.4,50.3L221.91,47.87" style="vector-effect: none; fill: none; stroke: rgb(138, 43, 226); stroke-opacity: 1; stroke-width: 1.5px; opacity: 1;"/></g><g class="points"/><g class="text"/></g><g class="trace scatter trace2b6132" style="stroke-miterlimit: 2; opacity: 1;"><g class="fills"/><g class="errorbars"/><g class="lines"><path class="js-line" d="M0,104.79L1.03,105.04L1.54,104.94L2.05,105.17L2.57,104.49L3.08,104.94L3.6,104.14L5.65,104.84L6.16,104.79L8.22,104.36L8.73,104.76L10.27,104.09L10.79,104.21L11.81,104.16L12.33,103.86L15.41,103.63L15.92,102.93L17.47,103.48L17.98,102.71L19.01,103.38L19.52,103.03L21.57,102.81L22.09,102.36L24.14,102.48L24.66,102.53L26.71,102.46L27.23,102.71L29.28,102L29.79,102.43L31.33,102.03L31.85,102.18L33.39,102.36L33.9,101.88L34.42,101.43L34.93,102.46L36.47,101.78L36.99,101.45L37.5,100.6L38.01,101.1L38.53,101.7L40.07,101.1L40.58,101.33L42.12,100.1L42.64,100.6L47.26,99.49L47.77,99.82L48.29,100.07L48.8,99.09L49.83,99.57L50.34,99.64L51.37,98.72L51.88,99.24L54.96,98.09L55.48,99.29L57.02,97.94L57.53,98.29L59.59,97.59L60.1,97.46L61.13,97.06L61.64,97.79L64.72,95.75L65.24,95.7L66.27,94.42L66.78,94.25L68.32,93.47L68.83,93.32L70.38,93.02L70.89,92.84L71.92,93.27L72.43,92.49L72.94,92.97L73.46,92.17L76.03,91.61L76.54,91.74L78.59,90.89L79.11,90.58L80.14,90.89L80.65,90.79L81.16,91.44L81.68,90.58L84.76,89.43L85.27,89.13L87.84,88.4L88.35,88.13L88.87,88.6L89.38,87.4L91.44,87.6L91.95,86.74L92.46,87.15L92.98,86.54L94.52,85.72L95.03,85.62L95.55,86.14L96.06,84.74L97.6,84.99L98.11,83.93L101.2,83.16L101.71,83.13L103.25,83.16L103.76,82.35L104.79,82.65L105.31,82.45L106.33,82.8L106.85,82.85L107.87,83.88L108.39,83.31L110.44,82.25L110.96,81.78L114.04,78.56L114.55,78.31L115.07,78.24L115.58,77.03L116.61,76.43L117.12,75.6L117.63,75.5L118.15,74.5L119.18,73.92L119.69,73.37L124.31,67.92L124.83,66.79L125.85,67.47L126.37,66.47L126.88,68.52L127.39,67.7L127.91,68.1L129.96,69.78L130.48,68.95L130.99,69.45L131.5,68.8L132.53,69.63L133.04,69.15L137.15,69.28L137.67,70.18L139.21,69.55L139.72,69.88L143.32,70.08L143.83,68.85L144.86,69.65L145.37,68.5L145.89,69.23L146.4,68.4L146.91,68.8L147.43,68.15L150.51,68.17L151.02,67.47L151.54,67.27L152.05,68L154.11,66.77L154.62,66.57L155.65,66.22L156.16,66.77L157.7,64.71L158.22,65.96L158.73,64.58L159.24,64.86L159.76,64.81L160.78,64.23L161.3,64.18L162.33,64.41L162.84,63.48L163.35,63.1L163.87,63.73L165.41,62.7L165.92,62.83L166.43,62.15L166.95,63.03L167.98,61.3L168.49,62.2L169,61.2L169.52,61.65L170.03,62.4L171.06,60.69L171.57,61.27L174.65,60.32L175.17,60.52L176.19,59.19L176.71,60.37L181.33,58.61L181.85,58.74L184.41,57.66L184.93,56.83L185.44,56.55L185.95,58.06L186.47,57.91L186.98,56.93L188.01,57.73L188.52,57.03L189.55,57.66L190.06,56.91L190.58,56.93L191.09,56.03L192.12,56.68L192.63,56.13L194.17,56.35L194.69,55.47L195.2,56.2L195.71,55.8L196.23,54.95L196.74,54.87L197.26,55.55L198.28,54.37L198.8,55.15L200.34,53.37L200.85,54.24L201.37,55.07L201.88,54.24L203.42,53.57L203.93,53.44L204.96,54.12L205.47,53.47L207.53,52.34L208.04,53.02L208.56,53.52L209.07,52.24L209.58,53.77L210.1,53.04L210.61,52.36L211.64,52.19L212.15,52.04L213.69,51.79L214.21,52.69L214.72,51.99L215.23,52.59L216.26,50.98L216.78,51.41L217.29,51.69L217.8,50.66L218.32,51.26L218.83,51.16L219.34,51.53L219.86,50.18L220.37,51.31L220.89,50.43L221.4,50.91L221.91,50.2" style="vector-effect: none; fill: none; stroke: rgb(138, 43, 226); stroke-opacity: 1; stroke-width: 1.5px; opacity: 1;"/></g><g class="points"/><g class="text"/></g><g class="trace scatter trace544f0a" style="stroke-miterlimit: 2; opacity: 1;"><g class="fills"/><g class="errorbars"/><g class="lines"><path class="js-line" d="M0,104.94L1.03,105.04L1.54,104.41L2.05,105.24L2.57,104.86L3.08,104.64L4.11,104.61L4.62,104.76L7.19,104.39L7.71,104.66L10.27,103.63L10.79,103.61L12.84,103.43L13.36,103.03L14.38,103.13L14.9,102.53L16.44,102.98L16.95,102.18L17.47,102.88L17.98,102.33L18.49,102.15L19.52,102.43L20.03,101.7L21.57,101.75L22.09,101.23L24.66,99.59L25.17,100.62L26.2,99.69L26.71,99.9L28.25,98.82L28.77,98.24L29.28,98.39L29.79,97.61L31.33,97.29L31.85,96.38L33.9,95.4L34.42,94.58L35.96,92.97L36.47,93.04L38.01,90.48L38.53,89.43L41.09,87.25L41.61,85.87L44.18,84.46L44.69,83.18L45.72,83.33L46.23,83.11L47.26,83.01L47.77,82.5L48.29,82.3L48.8,81.02L50.34,80.97L50.85,79.64L51.37,79.97L51.88,79.37L54.45,76.53L54.96,76.48L56.51,75.43L57.02,75.2L58.05,74.5L58.56,74.37L61.13,72.36L61.64,72.57L62.67,72.06L63.18,71.13L64.72,68.8L65.24,68.9L68.83,63.58L69.35,62.78L75,54.97L75.51,55.15L76.03,54.5L76.54,55.07L77.57,55.37L78.08,56.13L78.59,56.03L79.11,56.93L81.16,56.43L81.68,56.7L82.19,56.28L82.7,56.96L83.22,57.23L83.73,56.6L84.76,58.03L85.27,57.51L85.79,57.58L87.33,57.78L87.84,58.21L88.35,57.41L88.87,58.11L89.38,57.36L89.9,58.21L91.44,58.84L91.95,58.36L95.03,58.13L95.55,58.96L97.09,57.16L97.6,57.88L98.11,58.56L98.63,58.06L99.14,58.26L100.17,57.51L100.68,58.13L101.71,56.63L102.22,57.86L102.74,56.53L103.25,57.41L104.28,57.06L104.79,57.36L105.82,58.03L106.33,56.6L107.36,56.63L107.87,57.46L108.9,57.06L109.42,57.03L110.96,55.95L111.47,56.33L111.98,57.33L112.5,55.78L113.52,55.85L114.04,55.83L114.55,54.9L115.07,56.03L118.15,55.22L118.66,54.32L119.69,55.45L120.2,55.05L121.74,54.9L122.26,55.45L122.77,54.32L123.28,55.07L123.8,54.35L124.31,55.88L125.85,53.69L126.37,53.97L127.91,55.15L128.42,54.37L129.45,53.82L129.96,52.99L130.48,52.69L130.99,53.57L131.5,52.54L132.02,53.62L133.04,51.99L133.56,53.12L134.59,53.07L135.1,53.07L136.13,54.3L136.64,52.59L138.7,52.21L139.21,51.86L140.24,53.49L140.75,53.74L141.26,54.52L141.78,53.34L142.8,55.15L143.32,54.42L144.86,55.05L145.37,53.97L146.91,54.04L147.43,55.05L148.46,53.84L148.97,54.67L150.51,53.94L151.02,54.14L151.54,54.55L152.05,53.84L153.08,54.7L153.59,53.94L154.11,53.22L154.62,54.14L155.13,52.79L155.65,53.34L156.16,53.44L157.19,53.44L157.7,53.27L159.24,52.29L159.76,52.61L160.27,52.81L160.78,52.19L161.3,53.27L161.81,52.89L162.33,52.14L162.84,52.94L163.35,52.26L165.41,51.79L165.92,51.61L168.49,52.41L169,50.81L169.52,51.94L170.03,51.03L172.09,51.06L172.6,51.86L173.63,50.63L174.14,51.28L175.68,51.74L176.19,51.13L177.22,51.31L177.74,51.01L178.76,50.46L179.28,51.23L180.3,51.38L180.82,50.53L181.33,49.5L181.85,50.83L182.36,49.98L182.87,50.86L183.9,50.56L184.41,50.13L184.93,50.66L185.44,50.08L185.95,50.76L186.47,50.23L186.98,49.93L188.01,50.73L188.52,50.48L190.06,51.03L190.58,50.23L192.12,49.98L192.63,49.8L193.15,50.41L193.66,49.28L195.71,49.85L196.23,49.6L198.28,48.5L198.8,48.37L199.31,49.48L199.82,48.8L200.34,48.1L200.85,49.95L201.37,49.28L201.88,48.6L202.91,49.02L203.42,48.75L203.93,48.25L204.45,48.8L204.96,49.15L205.47,48.42L207.02,47.59L207.53,48.42L208.04,48.27L208.56,48.92L209.07,47.19L209.58,47.74L210.1,47.09L211.13,47.77L211.64,46.84L212.15,46.92L212.67,48.25L214.21,47.19L214.72,47.62L216.26,47.07L216.78,46.82L217.29,47.24L217.8,46.52L218.32,47.95L218.83,46.04L219.34,47.17L219.86,46.49L220.89,47.34L221.4,47.14L221.91,46.82" style="vector-effect: none; fill: none; stroke: rgb(252, 141, 98); stroke-opacity: 1; stroke-width: 1.5px; opacity: 1;"/></g><g class="points"/><g class="text"/></g><g class="trace scatter trace8fbb14" style="stroke-miterlimit: 2; opacity: 1;"><g class="fills"/><g class="errorbars"/><g class="lines"><path class="js-line" d="M0,104.86L3.08,104.64L3.6,104.21L5.65,104.76L6.16,104.26L7.19,104.39L7.71,104.14L9.25,104.41L9.76,103.84L11.81,103.79L12.33,103.48L13.36,103.48L13.87,103.21L16.95,102.63L17.47,102.96L18.49,102.08L19.01,102.71L20.03,101.93L20.55,101.73L22.09,101.45L22.6,100.45L23.12,101.45L23.63,100.42L25.17,100.25L25.68,99.64L27.23,99.17L27.74,98.49L29.28,97.79L29.79,97.16L30.31,98.09L30.82,97.59L31.33,97.51L32.36,96.08L32.88,96.03L35.96,92.29L36.47,92.67L38.01,89.81L38.53,89.43L40.58,87.7L41.09,86.64L41.61,86.39L42.12,85.26L43.66,84.96L44.18,84.39L45.2,83.53L45.72,83.18L46.23,83.78L46.75,82.96L48.29,82.08L48.8,81.7L52.4,78.36L52.91,77.63L53.94,77.06L54.45,76.61L55.48,76.48L55.99,76.2L57.53,74.72L58.05,74.27L59.07,74.87L59.59,73.87L60.62,73.87L61.13,73.34L62.67,72.82L63.18,71.89L66.27,66.87L66.78,66.54L67.29,65.71L67.81,66.34L69.86,62.2L70.38,62.53L71.4,60.17L71.92,60.44L72.43,60.12L72.94,58.26L75.51,54.62L76.03,56.53L77.05,55.25L77.57,56.58L78.08,56.8L78.59,55.95L79.62,56.78L80.14,56.78L80.65,58.19L81.16,57.18L81.68,57.46L82.19,56.73L84.76,58.94L85.27,57.36L86.3,58.16L86.81,58.21L87.33,57.86L87.84,58.59L89.38,58.79L89.9,58.44L90.41,58.66L90.92,58.03L94,59.59L94.52,58.69L95.03,58.13L95.55,59.26L96.06,58.61L96.57,59.29L97.09,58.36L97.6,59.01L98.11,58.94L98.63,57.38L99.66,58.86L100.17,58.41L101.2,58.76L101.71,57.76L102.74,57.81L103.25,57.33L104.79,58.64L105.31,57.91L105.82,58.34L106.33,57.43L107.36,57.46L107.87,57.83L108.9,59.09L109.42,57.26L111.47,57.01L111.98,57.33L112.5,58.41L113.01,56.98L115.58,55.95L116.09,56.68L117.63,56.68L118.15,55.68L118.66,56.35L119.18,55.7L119.69,56.58L120.2,55.5L120.72,56.65L121.23,55.78L121.74,55.95L122.26,55L123.28,56.13L123.8,55.7L124.31,56.4L124.83,55.57L126.88,54.75L127.39,53.92L128.94,55.73L129.45,54.5L130.99,53.49L131.5,54.42L132.02,53.54L132.53,54.27L134.07,53.42L134.59,54.27L135.61,54.22L136.13,53.77L137.15,54.45L137.67,53.54L138.7,54.17L139.21,53.14L141.26,55.2L141.78,54.09L142.8,55.45L143.32,55.7L144.35,54.8L144.86,56.33L145.37,54.5L145.89,55.3L146.4,54.55L146.91,55.78L147.43,55.27L147.94,55.47L149.48,55.45L150,54.9L150.51,54.7L151.02,55.5L152.05,54.75L152.56,55.6L154.11,54.5L154.62,54.82L155.65,53.94L156.16,53.89L156.67,53.89L157.19,54.95L157.7,53.49L158.22,53.69L158.73,53.14L159.24,52.74L159.76,53.67L160.78,53.54L161.3,53.72L164.38,52.24L164.89,53.12L166.43,52.89L166.95,53.24L167.46,52.56L167.98,53.24L168.49,53.09L169,51.26L169.52,53.44L170.03,52.99L170.54,52.01L173.11,51.96L173.63,52.74L174.65,51.43L175.17,52.46L175.68,53.54L176.19,51.74L177.74,52.06L178.25,51.69L178.76,50.91L179.28,51.84L181.33,51.23L181.85,52.41L183.39,50.35L183.9,51.38L186.47,51.06L186.98,50.68L187.5,51.84L188.01,50.66L189.55,51.86L190.06,51.56L191.09,50.68L191.61,51.76L192.12,50.88L192.63,51.31L193.15,51.46L193.66,51.16L194.17,49.65L195.2,51.23L195.71,50.68L198.28,49.7L198.8,49.8L199.31,49.48L199.82,50.3L200.85,49.8L201.37,51.08L201.88,50.63L202.39,48.9L202.91,50.53L203.42,48.9L203.93,48.92L204.45,50.53L205.99,49.58L206.5,49.6L208.56,48.7L209.07,48.25L210.1,49.13L210.61,48.22L212.15,48.27L212.67,49.53L213.69,48.32L214.21,49L215.23,48.67L215.75,48.1L217.29,48.45L217.8,47.72L218.32,48.92L218.83,47.77L219.34,48.07L219.86,47.32L220.37,48.15L220.89,47.04L221.91,47.57" style="vector-effect: none; fill: none; stroke: rgb(252, 141, 98); stroke-opacity: 1; stroke-width: 1.5px; opacity: 1;"/></g><g class="points"/><g class="text"/></g><g class="trace scatter trace503dd3" style="stroke-miterlimit: 2; opacity: 1;"><g class="fills"/><g class="errorbars"/><g class="lines"><path class="js-line" d="M0,104.34L1.03,105.04L1.54,104.41L2.57,104.94L3.08,104.64L3.6,104.06L4.11,104.76L5.65,104.99L6.16,104.04L7.71,104.51L8.22,104.44L9.25,104.26L9.76,104.14L11.81,103.63L12.33,103.41L13.87,103.58L14.38,103.06L15.92,102.63L16.44,103.21L17.98,102.18L18.49,102.68L21.06,101.53L21.57,101.75L22.09,101.98L22.6,101.2L23.12,101.38L23.63,100.65L26.2,99.85L26.71,99.74L36.47,93.12L36.99,91.51L39.55,88.02L40.07,88.23L40.58,88.08L41.09,87.02L41.61,86.85L42.12,85.34L43.15,84.39L43.66,85.11L45.72,83.03L46.23,84.16L46.75,82.73L47.26,82.93L47.77,82.2L48.29,82.15L48.8,81.32L49.83,80.9L50.34,81.27L52.91,78.01L53.42,78.26L61.13,72.82L61.64,73.24L62.16,72.52L62.67,73.04L63.18,72.57L65.24,68.6L65.75,68.37L67.29,65.56L67.81,65.14L68.32,65.76L68.83,64.56L71.92,59.84L72.43,60.64L74.48,55.78L75,55.35L76.03,54.42L76.54,56.28L77.05,55.78L77.57,56.5L79.11,55.05L79.62,57.01L80.14,56.48L80.65,58.11L81.68,57.98L82.19,57.78L82.7,57.86L83.22,57.08L84.24,57.96L84.76,58.19L86.3,58.91L86.81,57.98L87.33,57.86L87.84,58.74L88.87,59.01L89.38,59.01L90.41,58.66L90.92,57.96L92.46,59.82L92.98,59.89L94,60.42L94.52,59.59L95.03,58.13L95.55,58.89L96.06,59.29L97.6,59.62L98.11,59.69L98.63,58.21L99.14,58.56L99.66,58.41L101.2,59.21L101.71,58.74L102.22,58.01L102.74,58.64L104.28,57.66L104.79,58.94L105.82,58.94L106.33,58.41L106.85,56.73L107.36,57.23L107.87,57.16L108.39,57.11L108.9,58.64L110.96,57.16L111.47,57.16L111.98,56.88L112.5,57.51L114.04,57.41L114.55,56.25L116.61,56.7L117.12,57.61L117.63,56L118.15,56.43L118.66,56.35L119.69,55.45L120.2,56.18L120.72,55.98L121.23,57.13L121.74,55.8L122.26,56.88L123.8,54.8L124.31,55.95L124.83,55.5L125.34,56.7L126.88,54.37L127.39,54.75L128.42,55.12L128.94,56.1L130.99,53.64L131.5,53.67L133.56,54.32L134.07,54.17L135.61,53.92L136.13,54.6L136.64,53.87L137.15,54.9L137.67,55.05L138.18,54.37L139.21,53.07L139.72,55.2L141.26,55.35L141.78,54.62L143.32,56.08L143.83,56.05L144.86,56.63L145.37,55.4L146.91,55.25L147.43,55.65L148.97,54.97L149.48,55.07L152.56,54.77L153.08,53.12L153.59,54.17L154.11,53.22L154.62,54.14L155.13,53.77L155.65,53.94L156.67,53.14L157.19,53.74L158.22,53.62L158.73,52.39L160.27,53.49L160.78,53.39L162.33,52.81L162.84,53.54L163.87,52.44L164.38,52.69L164.89,52.29L165.41,52.91L166.95,51.89L167.46,52.11L167.98,52.86L168.49,52.49L169,50.81L169.52,52.09L170.03,51.79L170.54,51.86L172.09,51.51L172.6,51.94L174.65,51.36L175.17,51.86L176.71,51.48L177.22,51.69L178.25,51.31L178.76,49.33L179.79,51.01L180.3,50.86L180.82,50.91L181.33,50.18L181.85,51.43L182.36,49.9L182.87,50.93L183.39,50.58L183.9,50.48L184.41,50.05L184.93,50.66L186.47,50.53L186.98,49.63L189.04,50.88L189.55,50.35L190.06,50.96L190.58,50L191.61,50.48L192.12,49.9L193.66,50.33L194.17,49.2L195.2,50.48L195.71,49.78L196.23,50.2L196.74,48.77L197.26,49.68L197.77,49.18L198.28,49.02L198.8,49.35L199.31,48.65L200.34,48.4L200.85,49.43L203.42,49.13L203.93,48.25L204.96,49.23L205.47,48.2L205.99,48.52L206.5,47.87L207.53,48.8L208.04,48.05L208.56,48.85L209.07,47.12L210.1,48.15L210.61,47.09L212.15,47.07L212.67,48.47L213.69,46.74L214.21,47.34L214.72,49.43L215.23,48.07L215.75,47.12L216.26,47.74L216.78,47.42L217.29,47.47L217.8,46.06L218.32,47.57L218.83,46.57L219.34,48.15L219.86,45.89L221.91,46.82" style="vector-effect: none; fill: none; stroke: rgb(252, 141, 98); stroke-opacity: 1; stroke-width: 1.5px; opacity: 1;"/></g><g class="points"/><g class="text"/></g><g class="trace scatter trace3bced8" style="stroke-miterlimit: 2; opacity: 1;"><g class="fills"/><g class="errorbars"/><g class="lines"><path class="js-line" d="M0,103.74L1.03,104.99L1.54,104.34L3.08,104.04L3.6,102.88L4.62,104.14L5.14,104.29L6.16,103.74L6.68,103.99L7.19,102.63L7.71,103.03L8.22,103.18L9.76,103.18L10.27,102.18L11.81,103.23L12.33,101.88L13.87,102.38L14.38,101.02L16.44,103.28L16.95,101.38L17.47,102.33L17.98,101.38L19.52,102.18L20.03,101.02L21.06,101.58L21.57,101.73L22.09,100.22L22.6,100.62L23.12,100.37L23.63,99.67L24.14,100.32L24.66,98.62L25.17,99.47L25.68,100.07L28.25,98.72L28.77,97.86L30.31,97.86L30.82,96.86L31.85,95.2L32.36,95.96L34.42,93.85L34.93,94.1L35.96,92.89L36.47,93.5L37.5,91.29L38.01,91.24L39.04,91.24L39.55,89.48L40.07,89.88L40.58,88.08L41.09,86.57L41.61,87.27L42.12,86.22L42.64,86.62L43.15,85.36L43.66,83.81L44.18,84.46L44.69,83.56L45.2,83.51L45.72,81.6L47.77,82.05L48.29,80.9L48.8,80.14L49.31,81.3L49.83,82.45L50.34,81.4L50.85,82.35L51.37,80.9L52.4,81.15L52.91,80.6L53.42,80.8L53.94,79.89L54.45,79.89L54.96,78.44L55.48,80.55L55.99,79.09L57.02,78.29L57.53,78.84L59.07,77.03L59.59,77.13L60.1,77.33L60.62,75.78L61.13,75.18L61.64,76.18L62.67,74.57L63.18,73.62L64.21,73.32L64.72,73.17L65.24,72.31L65.75,72.92L67.29,70.46L67.81,71.11L71.4,67.95L71.92,68.5L72.43,69.05L72.94,66.99L74.48,65.64L75,65.09L76.03,64.89L76.54,64.69L77.05,62.63L77.57,64.23L78.59,61.92L79.11,62.08L80.65,60.07L81.16,60.47L81.68,60.27L82.19,59.11L83.73,57.66L84.24,57.36L84.76,57.81L85.27,56.3L89.38,51.33L89.9,51.69L90.41,50.63L90.92,51.33L92.98,47.97L93.49,48.67L95.03,45.06L95.55,45.51L97.09,43.25L97.6,44.86L100.68,37.53L101.2,38.79L101.71,36.02L102.22,36.38L102.74,35.07L103.76,33.87L104.28,31.61L106.85,29.6L107.36,27.29L108.9,24.38L109.42,24.03L109.93,21.42L110.44,22.52L110.96,21.27L111.47,22.92L111.98,19.66L112.5,18.66L113.01,15.5L114.04,19.96L114.55,19.46L115.07,20.36L115.58,19.91L116.09,20.31L116.61,20.97L117.12,19.91L118.15,22.97L118.66,21.17L119.69,23.43L120.2,21.87L122.26,24.78L122.77,26.29L123.28,25.23L123.8,25.74L124.31,25.03L124.83,23.53L125.34,24.88L125.85,27.44L126.37,25.89L127.91,26.89L128.42,25.79L128.94,25.03L129.45,26.64L130.48,28.14L130.99,28.4L131.5,29.05L132.02,27.44L133.56,28.4L134.07,29.9L134.59,28.75L135.1,29.05L135.61,29.55L136.64,27.34L137.15,27.44L138.18,29.4L138.7,27.64L140.24,29.9L140.75,27.39L141.26,28.65L141.78,27.79L142.8,28.09L143.32,27.69L143.83,27.64L144.35,29.5L145.37,27.09L145.89,27.64L146.4,27.04L146.91,25.58L147.43,26.69L147.94,27.09L148.46,26.09L148.97,26.69L149.48,25.38L150.51,24.78L151.02,26.54L152.05,24.73L152.56,25.68L154.11,23.93L154.62,24.28L155.65,22.97L156.16,24.38L156.67,24.08L157.19,22.87L158.22,22.62L158.73,21.67L159.24,22.67L159.76,22.12L160.27,22.07L162.33,21.17L162.84,22.47L163.35,20.52L163.87,21.62L165.92,18.91L166.43,20.41L166.95,20.52L167.46,19.61L167.98,19.31L168.49,21.57L169,18.51L169.52,18.96L170.03,20.01L171.57,18.96L172.09,19.16L173.63,16.65L174.14,18.71L175.17,17.15L175.68,18.56L177.22,16.05L177.74,16.95L179.28,16.05L179.79,16.65L181.85,16.3L182.36,16.1L182.87,16.65L183.39,15.65L183.9,14.69L184.41,15.65L186.47,15.24L186.98,13.44L187.5,12.89L188.01,15.8L188.52,14.69L189.04,15.65L190.58,15.7L191.09,14.64L192.12,13.69L192.63,13.64L193.15,15.75L193.66,14.24L194.17,13.79L194.69,14.44L195.71,12.99L196.23,13.99L197.26,11.73L197.77,12.68L198.8,11.53L199.31,12.08L200.85,11.98L201.37,11.23L201.88,11.83L202.39,11.23L202.91,12.99L203.42,10.78L204.45,12.84L204.96,10.98L205.99,10.33L206.5,12.03L207.02,12.08L207.53,10.88L208.04,9.82L208.56,10.83L209.07,9.47L209.58,10.28L210.1,9.72L210.61,11.08L211.64,9.67L212.15,9.37L212.67,10.38L213.18,9.22L213.69,9.02L214.21,9.77L214.72,8.67L215.23,9.72L216.26,9.22L216.78,9.17L217.29,7.77L217.8,8.27L218.32,9.62L218.83,6.71L219.34,7.62L219.86,8.37L220.37,8.97L220.89,6.91L221.91,8.12" style="vector-effect: none; fill: none; stroke: rgb(61, 91, 226); stroke-opacity: 1; stroke-width: 1.5px; opacity: 1;"/></g><g class="points"/><g class="text"/></g><g class="trace scatter trace7daa59" style="stroke-miterlimit: 2; opacity: 1;"><g class="fills"/><g class="errorbars"/><g class="lines"><path class="js-line" d="M0,105.39L1.03,105.59L1.54,104.04L2.57,104.79L3.08,104.79L3.6,102.43L4.11,104.89L4.62,103.38L5.14,103.69L5.65,103.99L6.68,102.93L7.19,103.38L7.71,102.28L8.22,103.18L10.27,102.33L10.79,101.83L13.36,102.48L13.87,102.53L14.9,101.63L15.41,102.18L15.92,101.83L16.44,103.43L16.95,100.62L17.47,102.33L18.49,100.87L19.01,101.68L20.03,101.48L20.55,100.77L21.57,101.43L22.09,100.07L22.6,101.38L23.12,100.22L23.63,100.87L24.14,100.02L25.17,100.07L25.68,100.82L26.2,99.27L26.71,99.97L27.23,100.17L28.25,98.57L28.77,99.07L29.79,97.21L30.31,98.16L30.82,98.21L31.33,96.71L32.36,94.45L32.88,94.95L33.39,95.7L34.42,94.15L34.93,94.55L35.96,93.95L36.47,92.29L38.53,91.24L39.04,90.33L40.07,90.18L40.58,88.53L41.09,88.53L41.61,87.27L43.15,87.17L43.66,85.77L45.2,83.81L45.72,82.96L47.77,82.2L48.29,82.25L50.34,81.55L50.85,80.85L51.88,80.3L52.4,81.75L53.42,80.04L53.94,79.89L54.45,78.39L54.96,79.19L55.48,79.64L57.53,78.99L58.05,77.48L58.56,78.89L59.07,77.94L59.59,78.04L60.1,77.03L60.62,75.18L61.13,76.38L61.64,77.69L62.16,75.93L63.18,74.07L63.7,74.72L64.21,72.72L64.72,73.62L65.24,73.22L65.75,73.07L66.27,71.71L66.78,70.76L67.29,71.21L67.81,72.01L68.83,71.16L69.35,71.06L70.38,68.6L70.89,70.21L71.4,67.35L71.92,69.55L72.43,69.35L72.94,67.6L74.48,66.99L75,66.59L76.54,63.78L77.05,64.89L80.65,60.97L81.16,62.88L83.73,57.81L84.24,57.96L84.76,57.96L85.27,56.45L85.79,56L86.3,57.31L87.33,54.9L87.84,54.85L88.35,54.6L88.87,53.14L89.9,53.49L90.41,51.53L91.44,50.08L91.95,50.48L92.46,48.72L92.98,50.38L95.03,45.96L95.55,46.41L96.06,45.71L97.09,44.91L97.6,45.91L98.11,45.61L98.63,43.7L100.68,40.39L101.2,41.5L103.25,38.94L103.76,35.82L104.28,36.73L104.79,35.22L105.31,34.82L105.82,32.81L106.33,32.96L106.85,30.96L107.36,30.91L107.87,28.5L108.9,27.54L109.42,28.09L110.96,22.92L111.47,23.68L113.01,20.62L113.52,20.77L116.61,12.38L117.12,17.5L117.63,18.36L118.15,17.7L118.66,16.95L119.18,17.45L119.69,17.55L120.2,16L120.72,17.1L121.23,20.62L121.74,19.76L122.26,21.32L122.77,21.17L123.28,19.36L123.8,17.6L124.31,21.42L124.83,20.36L125.34,22.92L125.85,22.92L126.37,21.97L126.88,22.77L127.39,21.42L128.42,21.42L128.94,24.28L129.45,25.28L129.96,24.68L130.48,24.98L131.5,22.42L132.02,22.47L132.53,22.72L133.04,24.63L133.56,23.88L134.07,24.78L134.59,25.58L135.1,24.23L135.61,24.58L136.13,23.23L136.64,21.92L137.15,25.03L138.18,25.79L138.7,25.53L139.21,23.93L139.72,24.58L140.24,25.53L143.32,25.58L143.83,25.38L144.35,24.38L144.86,25.48L145.37,24.08L145.89,24.93L146.4,24.78L146.91,25.74L147.43,23.38L147.94,23.63L148.46,23.38L148.97,24.13L149.48,22.67L150,24.58L150.51,23.73L151.02,22.47L151.54,23.58L152.05,22.62L152.56,23.43L153.08,21.92L153.59,22.22L154.11,21.52L154.62,21.12L155.13,22.17L155.65,20.72L156.16,22.57L157.7,20.11L158.22,19.76L158.73,20.16L159.24,19.06L160.27,20.11L160.78,19.46L161.81,20.87L162.33,20.26L163.35,18.71L163.87,19.96L164.38,18.06L164.89,19.06L166.43,17.7L166.95,19.46L167.98,17.5L168.49,18.71L170.03,17.3L170.54,16.85L171.06,16.75L171.57,17.6L172.09,18.26L172.6,16.4L173.11,17.8L173.63,15.45L174.65,17.8L175.17,16.1L175.68,17.05L176.19,16.3L177.22,17.7L177.74,15.9L178.25,16.8L178.76,13.89L179.79,15.45L180.3,15.14L180.82,16.45L181.33,15.14L181.85,15.09L182.36,13.69L182.87,15.6L183.39,14.74L183.9,14.24L184.41,12.94L184.93,15.19L185.44,12.68L185.95,15.55L186.47,16.3L186.98,13.14L189.04,15.04L189.55,14.44L190.06,14.59L190.58,12.84L191.09,14.49L191.61,13.04L192.12,14.29L192.63,13.19L193.15,14.84L193.66,12.74L194.17,11.98L194.69,12.48L195.2,13.49L195.71,12.99L196.23,13.84L196.74,13.39L197.26,11.58L197.77,11.78L198.28,10.88L198.8,11.38L199.31,10.43L199.82,10.28L200.34,11.13L200.85,11.98L201.37,11.38L202.39,11.38L202.91,10.43L203.42,8.97L203.93,9.77L204.45,10.73L205.99,9.87L206.5,10.83L207.02,9.82L207.53,10.88L209.07,7.97L209.58,10.58L210.1,8.52L210.61,8.97L211.13,8.82L211.64,7.57L212.15,8.77L213.18,7.11L213.69,10.68L214.21,9.62L214.72,10.18L215.23,10.18L216.26,7.26L216.78,8.12L217.8,7.52L218.32,9.32L219.34,7.31L219.86,6.41L220.37,6.56L220.89,7.52L221.91,5.56" style="vector-effect: none; fill: none; stroke: rgb(61, 91, 226); stroke-opacity: 1; stroke-width: 1.5px; opacity: 1;"/></g><g class="points"/><g class="text"/></g><g class="trace scatter trace70ff69" style="stroke-miterlimit: 2; opacity: 1;"><g class="fills"/><g class="errorbars"/><g class="lines"><path class="js-line" d="M0,104.34L0.51,104.34L1.03,105.44L1.54,103.58L2.05,104.64L3.08,104.49L3.6,103.94L5.65,103.99L6.16,104.34L7.71,102.28L8.22,103.03L9.25,104.19L9.76,103.18L11.3,102.63L11.81,102.93L12.84,102.38L13.36,103.08L14.38,101.93L14.9,102.08L15.92,102.13L16.44,102.68L17.98,101.38L18.49,101.48L19.52,102.48L20.03,101.33L21.06,101.43L21.57,101.43L22.6,100.47L23.12,101.28L23.63,100.87L24.14,99.42L25.17,99.62L25.68,99.62L27.23,99.57L27.74,99.12L29.79,97.06L30.31,98.77L31.33,95.35L31.85,95.65L32.36,95.65L32.88,95.86L33.39,94.95L34.93,93.95L35.44,94.3L37.5,91.44L38.01,91.24L39.04,91.39L39.55,89.48L41.09,88.08L41.61,88.18L42.12,85.92L42.64,86.77L43.15,84.91L44.69,84.31L45.2,83.66L45.72,81.45L46.23,82.2L46.75,82.65L47.77,81.9L48.29,82.55L48.8,81.05L49.31,81.9L50.34,83.36L50.85,82.5L51.37,79.69L51.88,80.6L52.4,80.55L52.91,79.99L53.42,80.65L53.94,80.8L54.45,79.29L55.48,79.94L55.99,79.99L56.51,78.44L57.02,78.74L57.53,79.59L58.56,78.29L59.07,78.09L61.13,75.02L61.64,76.78L63.18,74.82L63.7,73.67L64.72,73.92L65.24,74.12L66.27,72.77L66.78,71.36L67.29,72.26L67.81,71.26L68.32,70.56L68.83,71.01L69.35,71.81L70.38,71.01L70.89,70.66L71.92,68.8L72.43,70.26L73.46,68.1L73.97,68.3L74.48,68.5L75,66.89L75.51,66.79L76.03,67.75L76.54,65.89L77.05,66.54L77.57,66.34L79.11,64.33L79.62,64.63L80.14,61.92L80.65,62.63L81.16,62.28L81.68,61.47L82.19,62.28L82.7,61.22L83.22,62.38L83.73,59.92L84.24,60.52L84.76,59.16L89.9,54.7L90.41,53.49L91.95,53.04L92.46,51.89L93.49,51.38L94,51.28L95.03,48.97L95.55,49.88L97.09,46.26L97.6,47.87L99.14,45.01L99.66,45.46L101.2,43.3L101.71,42.5L102.22,42.25L102.74,39.89L103.25,40.44L103.76,37.78L104.28,37.63L104.79,35.97L105.82,35.82L106.33,32.96L106.85,34.12L107.36,31.81L108.9,29.2L109.42,29.15L109.93,28.5L110.44,26.44L110.96,26.54L111.47,25.18L113.01,21.82L113.52,22.42L115.07,17.96L115.58,18.86L116.09,20.01L116.61,18.11L118.66,22.82L119.18,21.82L120.72,21.32L121.23,23.33L121.74,23.38L122.26,24.48L122.77,26.29L123.28,25.99L123.8,24.53L124.31,25.18L124.83,23.38L126.88,28.35L127.39,27.29L127.91,27.19L128.42,28.04L128.94,26.99L129.45,29.05L129.96,29.65L130.48,28.9L130.99,29.6L131.5,28.9L132.53,28.45L133.04,30.05L134.59,30.85L135.1,29.05L135.61,30L136.13,29.4L136.64,28.24L138.18,30.15L138.7,30.96L140.75,29.5L141.26,29.7L142.29,27.64L142.8,28.85L143.83,30.35L144.35,29.5L145.37,27.99L145.89,29.3L147.43,27.14L147.94,28.14L148.46,28.65L148.97,27.44L150.51,26.59L151.02,26.24L151.54,26.74L152.05,25.18L153.08,26.44L153.59,25.84L154.62,24.88L155.13,23.53L155.65,23.43L156.16,24.53L156.67,24.68L157.19,23.63L158.22,22.77L158.73,24.38L159.24,22.82L159.76,23.18L160.27,22.97L163.87,21.62L164.38,23.33L165.41,19.56L165.92,20.11L166.95,22.32L167.46,19.91L167.98,21.72L168.49,21.57L169,18.36L169.52,20.46L170.03,19.26L170.54,18.66L171.06,19.91L172.09,18.11L172.6,19.71L173.11,20.06L173.63,18.61L174.14,19.91L174.65,19.61L175.17,20.31L176.19,17.96L176.71,18.51L178.76,16.75L179.28,18.01L179.79,17.1L180.3,17.7L180.82,17.05L181.33,16.8L181.85,18.11L182.36,17.91L182.87,16.05L183.39,15.8L183.9,17.1L184.93,17.75L185.44,14.64L186.47,15.7L186.98,15.4L188.01,16.7L188.52,15.29L189.04,16.85L189.55,16.55L190.06,16.4L191.61,15.6L192.12,16.4L192.63,14.54L193.15,15.29L193.66,14.99L194.17,15.45L194.69,13.99L195.2,15.45L195.71,14.64L196.23,14.44L197.26,13.09L197.77,14.04L198.8,13.19L199.31,13.74L201.37,13.49L201.88,14.54L203.93,11.28L204.45,13.14L204.96,13.39L205.47,12.68L205.99,13.34L206.5,11.88L207.02,11.63L207.53,12.53L209.07,11.58L209.58,11.63L210.61,9.72L211.13,10.02L211.64,10.28L212.15,10.13L212.67,12.18L213.69,10.07L214.21,11.28L214.72,11.98L215.23,10.93L216.26,8.77L216.78,9.62L217.29,10.18L217.8,8.12L218.32,10.68L218.83,9.27L219.34,10.33L219.86,7.46L220.37,9.87L220.89,9.32L221.4,9.07L221.91,8.27" style="vector-effect: none; fill: none; stroke: rgb(61, 91, 226); stroke-opacity: 1; stroke-width: 1.5px; opacity: 1;"/></g><g class="points"/><g class="text"/></g></g></g></g><path class="xlines-above crisp" d="M47.5,264.25H270.5M47.5,152.60000000000002H270.5" style="fill: none; stroke-width: 0.5px; stroke: rgb(0, 0, 0); stroke-opacity: 1;"/><path class="ylines-above crisp" d="M47.75,152.85000000000002V264M270.25,152.85000000000002V264" style="fill: none; stroke-width: 0.5px; stroke: rgb(0, 0, 0); stroke-opacity: 1;"/><g class="overlines-above"/><g class="xaxislayer-above"><path class="x2tick ticks crisp" d="M0,264v-5" transform="translate(109.25999999999999,0)" style="stroke: rgb(0, 0, 0); stroke-opacity: 1; stroke-width: 0.5px;"/><path class="x2tick ticks crisp" d="M0,264v-5" transform="translate(170.9,0)" style="stroke: rgb(0, 0, 0); stroke-opacity: 1; stroke-width: 0.5px;"/><path class="x2tick ticks crisp" d="M0,264v-5" transform="translate(232.55,0)" style="stroke: rgb(0, 0, 0); stroke-opacity: 1; stroke-width: 0.5px;"/><g class="x2tick"><text text-anchor="middle" x="0" y="277.7" transform="translate(109.25999999999999,0)" style="font-family: 'Open Sans', verdana, arial, sans-serif; font-size: 11px; fill: rgb(0, 0, 0); fill-opacity: 1; white-space: pre; opacity: 1;">20</text></g><g class="x2tick"><text text-anchor="middle" x="0" y="277.7" style="font-family: 'Open Sans', verdana, arial, sans-serif; font-size: 11px; fill: rgb(0, 0, 0); fill-opacity: 1; white-space: pre; opacity: 1;" transform="translate(170.9,0)">40</text></g><g class="x2tick"><text text-anchor="middle" x="0" y="277.7" style="font-family: 'Open Sans', verdana, arial, sans-serif; font-size: 11px; fill: rgb(0, 0, 0); fill-opacity: 1; white-space: pre; opacity: 1;" transform="translate(232.55,0)">60</text></g></g><g class="yaxislayer-above"><path class="y2tick ticks crisp" d="M48,0h5" transform="translate(0,257.94000000000005)" style="stroke: rgb(0, 0, 0); stroke-opacity: 1; stroke-width: 0.5px;"/><path class="y2tick ticks crisp" d="M48,0h5" transform="translate(0,220.3)" style="stroke: rgb(0, 0, 0); stroke-opacity: 1; stroke-width: 0.5px;"/><path class="y2tick ticks crisp" d="M48,0h5" transform="translate(0,182.65000000000003)" style="stroke: rgb(0, 0, 0); stroke-opacity: 1; stroke-width: 0.5px;"/><g class="y2tick"><text text-anchor="end" x="45.3" y="3.8499999999999996" transform="translate(0,257.94000000000005)" style="font-family: 'Open Sans', verdana, arial, sans-serif; font-size: 11px; fill: rgb(0, 0, 0); fill-opacity: 1; white-space: pre; opacity: 1;">0</text></g><g class="y2tick"><text text-anchor="end" x="45.3" y="3.8499999999999996" style="font-family: 'Open Sans', verdana, arial, sans-serif; font-size: 11px; fill: rgb(0, 0, 0); fill-opacity: 1; white-space: pre; opacity: 1;" transform="translate(0,220.3)">500</text></g><g class="y2tick"><text text-anchor="end" x="45.3" y="3.8499999999999996" style="font-family: 'Open Sans', verdana, arial, sans-serif; font-size: 11px; fill: rgb(0, 0, 0); fill-opacity: 1; white-space: pre; opacity: 1;" transform="translate(0,182.65000000000003)">1000</text></g></g><g class="overaxes-above"/></g></g><g class="polarlayer"/><g class="smithlayer"/><g class="ternarylayer"/><g class="geolayer"/><g class="funnelarealayer"/><g class="pielayer"/><g class="iciclelayer"/><g class="treemaplayer"/><g class="sunburstlayer"/><g class="glimages"/><defs id="topdefs-437d2c"><g class="clips"/></defs><g class="layer-above"><g class="imagelayer"/><g class="shapelayer"/></g><g class="infolayer"><g class="g-gtitle"><text class="gtitle" x="150" y="15" text-anchor="middle" dy="0em" style="opacity: 1; font-family: 'Open Sans', verdana, arial, sans-serif; font-size: 11px; fill: rgb(0, 0, 0); fill-opacity: 1; white-space: pre;">At growth and GFP expression</text></g><g class="g-xtitle"/><g class="g-x2title" transform="translate(0,4.550000000000011)"><text class="x2title" x="159" y="288.153125" text-anchor="middle" style="opacity: 1; font-family: 'Open Sans', verdana, arial, sans-serif; font-size: 11px; fill: rgb(0, 0, 0); fill-opacity: 1; white-space: pre;">Time (h)</text></g><g class="g-ytitle"><text class="ytitle" transform="rotate(-90,26.18125,85.57499999999999)" x="26.18125" y="85.57499999999999" text-anchor="middle" style="opacity: 1; font-family: 'Open Sans', verdana, arial, sans-serif; font-size: 11px; fill: rgb(0, 0, 0); fill-opacity: 1; white-space: pre;">OD600</text></g><g class="g-y2title"><text class="y2title" transform="rotate(-90,16.540625,208.425)" x="16.540625" y="208.425" text-anchor="middle" style="opacity: 1; font-family: 'Open Sans', verdana, arial, sans-serif; font-size: 11px; fill: rgb(0, 0, 0); fill-opacity: 1; white-space: pre;">GFP</text></g></g></svg>