<svg class="main-svg" xmlns="http://www.w3.org/2000/svg" xmlns:xlink="http://www.w3.org/1999/xlink" width="700" height="500" style="" viewBox="0 0 700 500"><rect x="0" y="0" width="700" height="500" style="fill: rgb(255, 255, 255); fill-opacity: 1;"/><defs id="defs-d39b84"><g class="clips"><clipPath id="clipd39b84xyplot" class="plotclip"><rect width="539" height="416"/></clipPath><clipPath class="axesclip" id="clipd39b84x"><rect x="47" y="0" width="539" height="500"/></clipPath><clipPath class="axesclip" id="clipd39b84y"><rect x="0" y="30" width="700" height="416"/></clipPath><clipPath class="axesclip" id="clipd39b84xy"><rect x="47" y="30" width="539" height="416"/></clipPath><clipPath class="contourclip" id="clipb06833"><path d="M0,0L539,0L539,416L0,416Z"/></clipPath></g><g class="gradients"/><g class="patterns"/></defs><g class="bglayer"/><g class="layer-below"><g class="imagelayer"/><g class="shapelayer"/></g><g class="cartesianlayer"><g class="subplot xy"><g class="layer-subplot"><g class="shapelayer"/><g class="imagelayer"/></g><g class="minor-gridlayer"><g class="x"/><g class="y"/></g><g class="gridlayer"><g class="x"><path class="xgrid crisp" transform="translate(154.8,0)" d="M0,30v416" style="stroke: rgb(128, 128, 128); stroke-opacity: 1; stroke-width: 0.2px;"/><path class="xgrid crisp" transform="translate(262.6,0)" d="M0,30v416" style="stroke: rgb(128, 128, 128); stroke-opacity: 1; stroke-width: 0.2px;"/><path class="xgrid crisp" transform="translate(370.4,0)" d="M0,30v416" style="stroke: rgb(128, 128, 128); stroke-opacity: 1; stroke-width: 0.2px;"/><path class="xgrid crisp" transform="translate(478.2,0)" d="M0,30v416" style="stroke: rgb(128, 128, 128); stroke-opacity: 1; stroke-width: 0.2px;"/></g><g class="y"><path class="ygrid crisp" transform="translate(0,362.8)" d="M47,0h539" style="stroke: rgb(128, 128, 128); stroke-opacity: 1; stroke-width: 0.2px;"/><path class="ygrid crisp" transform="translate(0,279.6)" d="M47,0h539" style="stroke: rgb(128, 128, 128); stroke-opacity: 1; stroke-width: 0.2px;"/><path class="ygrid crisp" transform="translate(0,196.4)" d="M47,0h539" style="stroke: rgb(128, 128, 128); stroke-opacity: 1; stroke-width: 0.2px;"/><path class="ygrid crisp" transform="translate(0,113.2)" d="M47,0h539" style="stroke: rgb(128, 128, 128); stroke-opacity: 1; stroke-width: 0.2px;"/></g></g><g class="zerolinelayer"/><g class="layer-between"><g class="shapelayer"/><g class="imagelayer"/></g><path class="xlines-below"/><path class="ylines-below"/><g class="overlines-below"/><g class="xaxislayer-below"/><g class="yaxislayer-below"/><g class="overaxes-below"/><g class="overplot"><g class="xy" transform="translate(47,30)" clip-path="url(#clipd39b84xyplot)"><g class="contourlayer mlayer"><g class="contour" clip-path="url(#clipb06833)" style="opacity: 1;"><g class="heatmapcoloring"/><g class="contourbg"><path d="M0,0L539,0L539,416L0,416Z" style="stroke: none; fill: rgb(68, 1, 84);"/></g><g class="contourfill"><path d="M307.47,0Q307.47,14.59 307.47,21.89C307.47,29.19 307.47,36.49 307.47,43.79C307.47,51.09 307.47,58.38 307.47,65.68C307.47,72.98 307.47,80.28 307.47,87.58C307.47,94.88 307.47,102.17 307.47,109.47C307.47,116.77 307.47,124.07 307.47,131.37C307.47,138.67 307.47,145.96 307.47,153.26C307.47,160.56 307.47,167.86 307.47,175.16C307.47,182.46 307.47,189.75 307.47,197.05C307.47,204.35 307.47,211.65 307.47,218.95C307.47,226.25 307.45,233.54 307.47,240.84C307.49,248.14 306.9,255.35 307.58,262.74C308.29,270.43 308.22,279.03 311.78999999999996,286.08C315.68,293.76 325.47,302.87 331.16,306.53C334.51,308.69 336.44,308.7 340.42,309.7C347.25,311.42 359.31,313.14 368.79,314.37C378.23,315.59 387.7,316.33 397.16,317.06C406.61,317.79 416.07,318.27 425.53,318.74C434.98,319.21 444.43,319.56 453.89,319.9C463.34,320.24 472.8,320.51 482.26,320.77C491.72,321.03 501.17,321.26 510.63,321.47Q520.09,321.68 539,322.04L539,416L0,416L0,0Z" style="stroke: none; fill: rgb(72, 40, 120);"/><path d="M265.08,0Q265.08,14.59 265.08,21.89C265.08,29.19 265.08,36.49 265.08,43.79C265.08,51.09 265.08,58.38 265.08,65.68C265.08,72.98 265.08,80.28 265.08,87.58C265.08,94.88 265.08,102.17 265.08,109.47C265.08,116.77 265.08,124.07 265.08,131.37C265.08,138.67 265.08,145.96 265.08,153.26C265.08,160.56 265.08,167.86 265.08,175.16C265.08,182.46 265.08,189.75 265.08,197.05C265.08,204.35 265.06,211.65 265.08,218.95C265.1,226.25 262.91,233.9 265.22,240.84C267.79,248.58 278.51,257.88 281.36,262.74C282.66,264.95 282.22,265.85 283.68,267.86C286.75,272.09 297.48,278 302.02,284.63C306.53,291.21 305.52,300.75 310.885,307.465C317.47,315.71 331.17,323.97 341.545,328.14C350.51,331.75 359.6,331.46 368.79,332.87C378.14,334.3 387.7,335.42 397.16,336.64C406.61,337.86 416.07,339.01 425.53,340.19C434.98,341.37 444.44,342.53 453.89,343.7C463.35,344.87 472.93,346.05 482.26,347.21C491.35,348.34 499.97,349.31 509.15999999999997,350.555Q518.86,351.87 539,354.95L539,416L0,416L0,0Z" style="stroke: none; fill: rgb(62, 73, 137);"/><path d="M243.94,0Q243.94,14.59 243.94,21.89C243.94,29.19 243.94,36.49 243.94,43.79C243.94,51.09 243.94,58.38 243.94,65.68C243.94,72.98 243.94,80.28 243.94,87.58C243.94,94.88 243.94,102.17 243.94,109.47C243.94,116.77 243.94,124.07 243.94,131.37C243.94,138.67 243.94,145.96 243.94,153.26C243.94,160.56 243.94,167.86 243.94,175.16C243.94,182.46 243.84,189.75 243.96,197.05C244.08,204.35 243.17,211.68 244.66,218.95C246.25,226.68 248.82,235.07 253.70999999999998,242.03C259.23,249.87 272.4,256 277.41,262.74C280.89,267.42 280.94,272.79 283.68,276.56C286.11,279.91 289.51,281.01 292.51,284.63C296.91,289.94 302.11,302.06 306.07,306.53C308.23,308.97 309.34,309.29 312.05,311.33C317.38,315.34 331.92,323.26 336.38,328.42C338.83,331.26 337.71,334.13 340.42,336.44C345.36,340.64 360.04,342.95 368.79,345.37C376.18,347.42 384.24,348.76 389.43,350.32C392.66,351.29 393.75,352.01 397.16,353.12C403.62,355.23 416.07,358.66 425.53,361.41C434.98,364.16 446.85,367.67 453.89,369.61C458.04,370.75 460.03,371.04 463.82,372.21C469.05,373.83 475.44,376.45 482.26,378.82C490.69,381.75 502.25,385.62 510.63,388.37C517.28,390.55 523.41,392.24 528.55,394.11Q532.53,395.56 539,398.38L539,416L0,416L0,0Z" style="stroke: none; fill: rgb(49, 104, 142);"/><path d="M227.42,0Q227.42,14.59 227.42,21.89C227.42,29.19 227.42,36.49 227.42,43.79C227.42,51.09 227.42,58.38 227.42,65.68C227.42,72.98 227.42,80.28 227.42,87.58C227.42,94.88 227.42,102.17 227.42,109.47C227.42,116.77 227.42,124.07 227.42,131.37C227.42,138.67 227.42,145.96 227.42,153.26C227.42,160.56 227.41,167.86 227.42,175.16C227.43,182.46 227.17,189.76 227.46,197.05C227.75,204.35 226.37,212.07 229.17,218.95C232.35,226.79 242.29,236.05 247.37,240.84C250.36,243.67 252.2,244.19 255.32,246.71C260.21,250.66 268.78,256.39 273.47,262.74C278.16,269.09 278.97,277.77 283.48,284.78499999999997C288.4,292.44 296.96,301.28 302.42,306.53C305.99,309.97 308.2,311.37 312.05,314.27C317.49,318.36 327.38,322.85 332.2,328.42C336.35,333.22 336.34,341.05 340.42,344.71C344.24,348.14 350.69,347.91 355.42,350.32C360.15,352.74 363.35,356.19 368.79,359.2C376.4,363.41 387.98,367.47 397.39,372.125C406.89,376.83 417.67,383.33 425.53,387.31C431.07,390.11 435.21,391.49 439.88,394.11C444.67,396.81 448.62,400.1 453.89,403.33Q460.41,407.32 476.22,416L0,416L0,0Z" style="stroke: none; fill: rgb(38, 130, 142);"/><path d="M213.14,0Q213.14,14.59 213.14,21.89C213.14,29.19 213.14,36.49 213.14,43.79C213.14,51.09 213.14,58.38 213.14,65.68C213.14,72.98 213.14,80.28 213.14,87.58C213.14,94.88 213.14,102.17 213.14,109.47C213.14,116.77 213.13,124.07 213.13,131.37C213.13,138.67 213.11,145.96 213.13,153.26C213.15,160.56 212.99,167.86 213.25,175.16C213.51,182.46 213.58,189.8 214.7,197.05C215.84,204.4 217.04,214.66 220.08,218.95C221.92,221.54 224.36,221.22 226.95,223.43C231.33,227.17 237.46,236.14 242.65,240.84C246.9,244.7 251.05,246.74 255.32,250.19C260,253.97 265.86,257.43 269.52,262.74C273.58,268.64 274.49,280.3 277.72,284.63C279.55,287.08 281.37,286.98 283.68,289.14C287.73,292.92 293.69,301.63 298.78,306.53C303.16,310.75 307.36,313.67 312.05,317.2C317.07,320.98 323.65,323.28 328.03,328.42C333.09,334.36 333.62,344.81 339.40999999999997,351.84000000000003C346.2,360.09 358.59,366.1 368.02,373.395C377.42,380.67 387,388.26 395.905,395.57Q404.29,402.45 420.02,416L0,416L0,0Z" style="stroke: none; fill: rgb(31, 158, 137);"/><path d="M0,182.01Q18.92,181.49 28.37,181.04C37.83,180.59 47.29,180.12 56.74,179.31C66.21,178.5 79.23,177.01 85.11,176.17C87.78,175.79 90.36,176.34 90.9,175.16C91.65,173.53 87.06,168.84 85.11,165.39C82.96,161.59 82,157.24 78.58,153.26C73.76,147.65 62.29,140.75 56.74,136.8C53.42,134.44 51.93,133.65 48.64,131.37C43.39,127.73 34.23,120.86 28.37,116.89C24.02,113.94 20.99,112.29 16.81,109.47Q11.69,106.02 0,97.56L0,0L198.94,0Q198.94,14.59 198.94,21.89C198.94,29.19 198.94,36.49 198.94,43.79C198.94,51.09 198.93,58.38 198.93,65.68C198.93,72.98 198.93,80.28 198.93,87.58C198.93,94.88 198.93,102.17 198.93,109.47C198.93,116.77 198.91,124.07 198.91,131.37C198.91,138.67 198.87,145.96 198.91,153.26C198.95,160.56 198.63,167.88 199.15,175.16C199.67,182.47 200,189.9 202.06,197.05C204.21,204.51 207.41,213.55 212.06,218.95C216.05,223.59 222.58,224.93 226.95,228.67C231.15,232.26 233.62,236.94 237.92,240.84C242.87,245.32 250.36,249.67 255.32,253.68C259.27,256.87 262.9,258.58 265.57,262.74C269.02,268.12 268.49,279.36 272.15,284.63C275.06,288.82 280.01,289.91 283.68,293.34C287.71,297.11 290.73,302.29 295.13,306.53C300.04,311.26 306.86,316.23 312.05,320.13C316.28,323.31 320.7,324.35 323.86,328.42C327.88,333.6 328.98,344.19 332.12,350.32C334.64,355.23 336.92,359.22 340.42,362.81C344.08,366.56 349.63,367.87 353.8,372.21C359.16,377.79 363.03,387.67 368.425,394.93Q373.89,402.28 386.41,416L0,416Z" style="stroke: none; fill: rgb(53, 183, 121);"/><path d="M0,200.78Q18.91,200.77 28.37,200.77C37.83,200.76 47.28,200.76 56.74,200.75C66.2,200.74 75.65,200.74 85.11,200.71C94.56,200.69 104.02,200.65 113.47,200.6C122.93,200.55 132.38,200.35 141.84,200.41C151.3,200.47 160.83,199.67 170.21,200.96C179.74,202.27 193.15,203.99 198.58,208.33C202.05,211.1 200.94,215.51 204.05,218.95C208.75,224.16 221.88,229.57 226.95,233.91C229.91,236.44 230.3,238.21 233.2,240.84C238.17,245.35 250.25,253.07 255.32,257.17C258.12,259.44 259.93,259.89 261.62,262.74C264.38,267.39 262.82,278.8 266.59,284.63C270.27,290.33 279.25,293.4 283.68,297.54C286.98,300.63 288.07,303.25 291.48,306.53C296.55,311.41 306.81,319.12 312.05,323.06C315.16,325.4 317.62,325.51 319.68,328.42C322.9,332.97 322.6,343.26 325.83,350.32C329.31,357.92 335.57,364.95 340.385,372.27C345.17,379.55 350.71,386.63 354.63,394.11Q358.36,401.23 363.55,416L0,416ZM170.61,0Q170.55,14.59 170.48,21.89C170.41,29.2 170.79,36.54 170.21,43.83C169.63,51.14 169.79,58.71 166.98,65.68C163.88,73.37 156.51,83.48 151.35,87.58C148.16,90.11 144.15,92.01 141.84,91.51C140.17,91.15 139.88,89.42 138.16,87.58C134.11,83.24 122.12,70.17 117.81,65.68C115.85,63.64 115.31,63.28 113.47,61.29C109.92,57.44 103.29,49.5 98.45,43.79C93.85,38.37 88.58,31.87 85.11,27.86C82.96,25.37 82.07,24.53 79.79,21.89Q75.47,16.9 61.35,0Z" style="stroke: none; fill: rgb(110, 206, 88);"/><path d="M0,225.31Q18.91,225.31 28.37,225.31C37.83,225.31 47.28,225.31 56.74,225.31C66.2,225.31 75.65,225.31 85.11,225.31C94.56,225.31 104.02,225.31 113.47,225.31C122.93,225.31 132.38,225.3 141.84,225.33C151.3,225.36 160.76,225.01 170.21,225.5C179.68,225.99 189.22,225.97 198.58,228.26C208.4,230.66 218.37,234.71 227.71499999999997,239.995C237.73,245.65 251.18,253.21 256.495,261.695C260.78,268.53 256.97,278.16 261.02,284.63C265.48,291.76 279.27,297.63 283.68,301.75C285.76,303.7 285.72,304.51 287.83,306.53C292.66,311.16 308.58,319.12 313.78,327.20500000000004C318.18,334.05 317.17,342.79 319.55,350.32C321.91,357.79 324.52,365.11 327.99,372.21C331.56,379.52 337.48,386.11 340.805,393.52Q344.04,400.73 347.82,416L0,416Z" style="stroke: none; fill: rgb(181, 222, 43);"/><path d="M0,281.29Q18.91,281.29 28.37,281.29C37.83,281.29 47.28,281.29 56.74,281.29C66.2,281.29 75.65,281.29 85.11,281.29C94.56,281.29 104.02,281.29 113.47,281.29C122.93,281.29 132.38,281.29 141.84,281.29C151.3,281.29 160.75,281.29 170.21,281.29C179.67,281.29 189.12,281.27 198.58,281.29C208.04,281.31 217.5,280.94 226.95,281.39C236.43,281.84 246.39,280.42 255.39,283.98C265.52,287.99 276.07,298.28 283.93,306.24C290.82,313.22 295.48,322.61 300.78,328.42C304.71,332.72 310.05,334.77 312.05,338.73C313.8,342.19 312.79,345.85 313.27,350.32C313.92,356.47 314.59,364.93 315.63,372.21C316.67,379.53 318.2,386.81 319.53,394.11Q320.87,401.41 323.64,416L0,416Z" style="stroke: none; fill: rgb(253, 231, 37);"/></g><g class="contourlines"><g class="contourlevel"><path class="openline" d="M307.47,0Q307.47,14.59 307.47,21.89C307.47,29.19 307.47,36.49 307.47,43.79C307.47,51.09 307.47,58.38 307.47,65.68C307.47,72.98 307.47,80.28 307.47,87.58C307.47,94.88 307.47,102.17 307.47,109.47C307.47,116.77 307.47,124.07 307.47,131.37C307.47,138.67 307.47,145.96 307.47,153.26C307.47,160.56 307.47,167.86 307.47,175.16C307.47,182.46 307.47,189.75 307.47,197.05C307.47,204.35 307.47,211.65 307.47,218.95C307.47,226.25 307.45,233.54 307.47,240.84C307.49,248.14 306.9,255.35 307.58,262.74C308.29,270.43 308.22,279.03 311.78999999999996,286.08C315.68,293.76 325.47,302.87 331.16,306.53C334.51,308.69 336.44,308.7 340.42,309.7C347.25,311.42 359.31,313.14 368.79,314.37C378.23,315.59 387.7,316.33 397.16,317.06C406.61,317.79 416.07,318.27 425.53,318.74C434.98,319.21 444.43,319.56 453.89,319.9C463.34,320.24 472.8,320.51 482.26,320.77C491.72,321.03 501.17,321.26 510.63,321.47Q520.09,321.68 539,322.04" style="stroke-miterlimit: 1; vector-effect: none; fill: none; stroke: rgb(0, 0, 0); stroke-opacity: 1; stroke-width: 1px;"/></g><g class="contourlevel"><path class="openline" d="M265.08,0Q265.08,14.59 265.08,21.89C265.08,29.19 265.08,36.49 265.08,43.79C265.08,51.09 265.08,58.38 265.08,65.68C265.08,72.98 265.08,80.28 265.08,87.58C265.08,94.88 265.08,102.17 265.08,109.47C265.08,116.77 265.08,124.07 265.08,131.37C265.08,138.67 265.08,145.96 265.08,153.26C265.08,160.56 265.08,167.86 265.08,175.16C265.08,182.46 265.08,189.75 265.08,197.05C265.08,204.35 265.06,211.65 265.08,218.95C265.1,226.25 262.91,233.9 265.22,240.84C267.79,248.58 278.51,257.88 281.36,262.74C282.66,264.95 282.22,265.85 283.68,267.86C286.75,272.09 297.48,278 302.02,284.63C306.53,291.21 305.52,300.75 310.885,307.465C317.47,315.71 331.17,323.97 341.545,328.14C350.51,331.75 359.6,331.46 368.79,332.87C378.14,334.3 387.7,335.42 397.16,336.64C406.61,337.86 416.07,339.01 425.53,340.19C434.98,341.37 444.44,342.53 453.89,343.7C463.35,344.87 472.93,346.05 482.26,347.21C491.35,348.34 499.97,349.31 509.15999999999997,350.555Q518.86,351.87 539,354.95" style="stroke-miterlimit: 1; vector-effect: none; fill: none; stroke: rgb(0, 0, 0); stroke-opacity: 1; stroke-width: 1px;"/></g><g class="contourlevel"><path class="openline" d="M243.94,0Q243.94,14.59 243.94,21.89C243.94,29.19 243.94,36.49 243.94,43.79C243.94,51.09 243.94,58.38 243.94,65.68C243.94,72.98 243.94,80.28 243.94,87.58C243.94,94.88 243.94,102.17 243.94,109.47C243.94,116.77 243.94,124.07 243.94,131.37C243.94,138.67 243.94,145.96 243.94,153.26C243.94,160.56 243.94,167.86 243.94,175.16C243.94,182.46 243.84,189.75 243.96,197.05C244.08,204.35 243.17,211.68 244.66,218.95C246.25,226.68 248.82,235.07 253.70999999999998,242.03C259.23,249.87 272.4,256 277.41,262.74C280.89,267.42 280.94,272.79 283.68,276.56C286.11,279.91 289.51,281.01 292.51,284.63C296.91,289.94 302.11,302.06 306.07,306.53C308.23,308.97 309.34,309.29 312.05,311.33C317.38,315.34 331.92,323.26 336.38,328.42C338.83,331.26 337.71,334.13 340.42,336.44C345.36,340.64 360.04,342.95 368.79,345.37C376.18,347.42 384.24,348.76 389.43,350.32C392.66,351.29 393.75,352.01 397.16,353.12C403.62,355.23 416.07,358.66 425.53,361.41C434.98,364.16 446.85,367.67 453.89,369.61C458.04,370.75 460.03,371.04 463.82,372.21C469.05,373.83 475.44,376.45 482.26,378.82C490.69,381.75 502.25,385.62 510.63,388.37C517.28,390.55 523.41,392.24 528.55,394.11Q532.53,395.56 539,398.38" style="stroke-miterlimit: 1; vector-effect: none; fill: none; stroke: rgb(0, 0, 0); stroke-opacity: 1; stroke-width: 1px;"/></g><g class="contourlevel"><path class="openline" d="M227.42,0Q227.42,14.59 227.42,21.89C227.42,29.19 227.42,36.49 227.42,43.79C227.42,51.09 227.42,58.38 227.42,65.68C227.42,72.98 227.42,80.28 227.42,87.58C227.42,94.88 227.42,102.17 227.42,109.47C227.42,116.77 227.42,124.07 227.42,131.37C227.42,138.67 227.42,145.96 227.42,153.26C227.42,160.56 227.41,167.86 227.42,175.16C227.43,182.46 227.17,189.76 227.46,197.05C227.75,204.35 226.37,212.07 229.17,218.95C232.35,226.79 242.29,236.05 247.37,240.84C250.36,243.67 252.2,244.19 255.32,246.71C260.21,250.66 268.78,256.39 273.47,262.74C278.16,269.09 278.97,277.77 283.48,284.78499999999997C288.4,292.44 296.96,301.28 302.42,306.53C305.99,309.97 308.2,311.37 312.05,314.27C317.49,318.36 327.38,322.85 332.2,328.42C336.35,333.22 336.34,341.05 340.42,344.71C344.24,348.14 350.69,347.91 355.42,350.32C360.15,352.74 363.35,356.19 368.79,359.2C376.4,363.41 387.98,367.47 397.39,372.125C406.89,376.83 417.67,383.33 425.53,387.31C431.07,390.11 435.21,391.49 439.88,394.11C444.67,396.81 448.62,400.1 453.89,403.33Q460.41,407.32 476.22,416" style="stroke-miterlimit: 1; vector-effect: none; fill: none; stroke: rgb(0, 0, 0); stroke-opacity: 1; stroke-width: 1px;"/></g><g class="contourlevel"><path class="openline" d="M213.14,0Q213.14,14.59 213.14,21.89C213.14,29.19 213.14,36.49 213.14,43.79C213.14,51.09 213.14,58.38 213.14,65.68C213.14,72.98 213.14,80.28 213.14,87.58C213.14,94.88 213.14,102.17 213.14,109.47C213.14,116.77 213.13,124.07 213.13,131.37C213.13,138.67 213.11,145.96 213.13,153.26C213.15,160.56 212.99,167.86 213.25,175.16C213.51,182.46 213.58,189.8 214.7,197.05C215.84,204.4 217.04,214.66 220.08,218.95C221.92,221.54 224.36,221.22 226.95,223.43C231.33,227.17 237.46,236.14 242.65,240.84C246.9,244.7 251.05,246.74 255.32,250.19C260,253.97 265.86,257.43 269.52,262.74C273.58,268.64 274.49,280.3 277.72,284.63C279.55,287.08 281.37,286.98 283.68,289.14C287.73,292.92 293.69,301.63 298.78,306.53C303.16,310.75 307.36,313.67 312.05,317.2C317.07,320.98 323.65,323.28 328.03,328.42C333.09,334.36 333.62,344.81 339.40999999999997,351.84000000000003C346.2,360.09 358.59,366.1 368.02,373.395C377.42,380.67 387,388.26 395.905,395.57Q404.29,402.45 420.02,416" style="stroke-miterlimit: 1; vector-effect: none; fill: none; stroke: rgb(0, 0, 0); stroke-opacity: 1; stroke-width: 1px;"/></g><g class="contourlevel"><path class="openline" d="M0,182.01Q18.92,181.49 28.37,181.04C37.83,180.59 47.29,180.12 56.74,179.31C66.21,178.5 79.23,177.01 85.11,176.17C87.78,175.79 90.36,176.34 90.9,175.16C91.65,173.53 87.06,168.84 85.11,165.39C82.96,161.59 82,157.24 78.58,153.26C73.76,147.65 62.29,140.75 56.74,136.8C53.42,134.44 51.93,133.65 48.64,131.37C43.39,127.73 34.23,120.86 28.37,116.89C24.02,113.94 20.99,112.29 16.81,109.47Q11.69,106.02 0,97.56" style="stroke-miterlimit: 1; vector-effect: none; fill: none; stroke: rgb(0, 0, 0); stroke-opacity: 1; stroke-width: 1px;"/><path class="openline" d="M198.94,0Q198.94,14.59 198.94,21.89C198.94,29.19 198.94,36.49 198.94,43.79C198.94,51.09 198.93,58.38 198.93,65.68C198.93,72.98 198.93,80.28 198.93,87.58C198.93,94.88 198.93,102.17 198.93,109.47C198.93,116.77 198.91,124.07 198.91,131.37C198.91,138.67 198.87,145.96 198.91,153.26C198.95,160.56 198.63,167.88 199.15,175.16C199.67,182.47 200,189.9 202.06,197.05C204.21,204.51 207.41,213.55 212.06,218.95C216.05,223.59 222.58,224.93 226.95,228.67C231.15,232.26 233.62,236.94 237.92,240.84C242.87,245.32 250.36,249.67 255.32,253.68C259.27,256.87 262.9,258.58 265.57,262.74C269.02,268.12 268.49,279.36 272.15,284.63C275.06,288.82 280.01,289.91 283.68,293.34C287.71,297.11 290.73,302.29 295.13,306.53C300.04,311.26 306.86,316.23 312.05,320.13C316.28,323.31 320.7,324.35 323.86,328.42C327.88,333.6 328.98,344.19 332.12,350.32C334.64,355.23 336.92,359.22 340.42,362.81C344.08,366.56 349.63,367.87 353.8,372.21C359.16,377.79 363.03,387.67 368.425,394.93Q373.89,402.28 386.41,416" style="stroke-miterlimit: 1; vector-effect: none; fill: none; stroke: rgb(0, 0, 0); stroke-opacity: 1; stroke-width: 1px;"/></g><g class="contourlevel"><path class="openline" d="M0,200.78Q18.91,200.77 28.37,200.77C37.83,200.76 47.28,200.76 56.74,200.75C66.2,200.74 75.65,200.74 85.11,200.71C94.56,200.69 104.02,200.65 113.47,200.6C122.93,200.55 132.38,200.35 141.84,200.41C151.3,200.47 160.83,199.67 170.21,200.96C179.74,202.27 193.15,203.99 198.58,208.33C202.05,211.1 200.94,215.51 204.05,218.95C208.75,224.16 221.88,229.57 226.95,233.91C229.91,236.44 230.3,238.21 233.2,240.84C238.17,245.35 250.25,253.07 255.32,257.17C258.12,259.44 259.93,259.89 261.62,262.74C264.38,267.39 262.82,278.8 266.59,284.63C270.27,290.33 279.25,293.4 283.68,297.54C286.98,300.63 288.07,303.25 291.48,306.53C296.55,311.41 306.81,319.12 312.05,323.06C315.16,325.4 317.62,325.51 319.68,328.42C322.9,332.97 322.6,343.26 325.83,350.32C329.31,357.92 335.57,364.95 340.385,372.27C345.17,379.55 350.71,386.63 354.63,394.11Q358.36,401.23 363.55,416" style="stroke-miterlimit: 1; vector-effect: none; fill: none; stroke: rgb(0, 0, 0); stroke-opacity: 1; stroke-width: 1px;"/><path class="openline" d="M170.61,0Q170.55,14.59 170.48,21.89C170.41,29.2 170.79,36.54 170.21,43.83C169.63,51.14 169.79,58.71 166.98,65.68C163.88,73.37 156.51,83.48 151.35,87.58C148.16,90.11 144.15,92.01 141.84,91.51C140.17,91.15 139.88,89.42 138.16,87.58C134.11,83.24 122.12,70.17 117.81,65.68C115.85,63.64 115.31,63.28 113.47,61.29C109.92,57.44 103.29,49.5 98.45,43.79C93.85,38.37 88.58,31.87 85.11,27.86C82.96,25.37 82.07,24.53 79.79,21.89Q75.47,16.9 61.35,0" style="stroke-miterlimit: 1; vector-effect: none; fill: none; stroke: rgb(0, 0, 0); stroke-opacity: 1; stroke-width: 1px;"/></g><g class="contourlevel"><path class="openline" d="M0,225.31Q18.91,225.31 28.37,225.31C37.83,225.31 47.28,225.31 56.74,225.31C66.2,225.31 75.65,225.31 85.11,225.31C94.56,225.31 104.02,225.31 113.47,225.31C122.93,225.31 132.38,225.3 141.84,225.33C151.3,225.36 160.76,225.01 170.21,225.5C179.68,225.99 189.22,225.97 198.58,228.26C208.4,230.66 218.37,234.71 227.71499999999997,239.995C237.73,245.65 251.18,253.21 256.495,261.695C260.78,268.53 256.97,278.16 261.02,284.63C265.48,291.76 279.27,297.63 283.68,301.75C285.76,303.7 285.72,304.51 287.83,306.53C292.66,311.16 308.58,319.12 313.78,327.20500000000004C318.18,334.05 317.17,342.79 319.55,350.32C321.91,357.79 324.52,365.11 327.99,372.21C331.56,379.52 337.48,386.11 340.805,393.52Q344.04,400.73 347.82,416" style="stroke-miterlimit: 1; vector-effect: none; fill: none; stroke: rgb(0, 0, 0); stroke-opacity: 1; stroke-width: 1px;"/></g><g class="contourlevel"><path class="openline" d="M0,281.29Q18.91,281.29 28.37,281.29C37.83,281.29 47.28,281.29 56.74,281.29C66.2,281.29 75.65,281.29 85.11,281.29C94.56,281.29 104.02,281.29 113.47,281.29C122.93,281.29 132.38,281.29 141.84,281.29C151.3,281.29 160.75,281.29 170.21,281.29C179.67,281.29 189.12,281.27 198.58,281.29C208.04,281.31 217.5,280.94 226.95,281.39C236.43,281.84 246.39,280.42 255.39,283.98C265.52,287.99 276.07,298.28 283.93,306.24C290.82,313.22 295.48,322.61 300.78,328.42C304.71,332.72 310.05,334.77 312.05,338.73C313.8,342.19 312.79,345.85 313.27,350.32C313.92,356.47 314.59,364.93 315.63,372.21C316.67,379.53 318.2,386.81 319.53,394.11Q320.87,401.41 323.64,416" style="stroke-miterlimit: 1; vector-effect: none; fill: none; stroke: rgb(0, 0, 0); stroke-opacity: 1; stroke-width: 1px;"/></g></g></g></g></g></g><path class="xlines-above crisp" d="M46.5,446.25H586.5M46.5,29.75H586.5" style="fill: none; stroke-width: 0.5px; stroke: rgb(0, 0, 0); stroke-opacity: 1;"/><path class="ylines-above crisp" d="M46.75,30V446M586.25,30V446" style="fill: none; stroke-width: 0.5px; stroke: rgb(0, 0, 0); stroke-opacity: 1;"/><g class="overlines-above"/><g class="xaxislayer-above"><path class="xtick ticks crisp" d="M0,446v-5" transform="translate(154.8,0)" style="stroke: rgb(0, 0, 0); stroke-opacity: 1; stroke-width: 0.5px;"/><path class="xtick ticks crisp" d="M0,446v-5" transform="translate(262.6,0)" style="stroke: rgb(0, 0, 0); stroke-opacity: 1; stroke-width: 0.5px;"/><path class="xtick ticks crisp" d="M0,446v-5" transform="translate(370.4,0)" style="stroke: rgb(0, 0, 0); stroke-opacity: 1; stroke-width: 0.5px;"/><path class="xtick ticks crisp" d="M0,446v-5" transform="translate(478.2,0)" style="stroke: rgb(0, 0, 0); stroke-opacity: 1; stroke-width: 0.5px;"/><g class="xtick"><text text-anchor="middle" x="0" y="464.5" transform="translate(47,0)" style="font-family: 'Open Sans', verdana, arial, sans-serif; font-size: 15px; fill: rgb(0, 0, 0); fill-opacity: 1; white-space: pre; opacity: 1;">0</text></g><g class="xtick"><text text-anchor="middle" x="0" y="464.5" style="font-family: 'Open Sans', verdana, arial, sans-serif; font-size: 15px; fill: rgb(0, 0, 0); fill-opacity: 1; white-space: pre; opacity: 1;" transform="translate(154.8,0)">0.2</text></g><g class="xtick"><text text-anchor="middle" x="0" y="464.5" style="font-family: 'Open Sans', verdana, arial, sans-serif; font-size: 15px; fill: rgb(0, 0, 0); fill-opacity: 1; white-space: pre; opacity: 1;" transform="translate(262.6,0)">0.4</text></g><g class="xtick"><text text-anchor="middle" x="0" y="464.5" style="font-family: 'Open Sans', verdana, arial, sans-serif; font-size: 15px; fill: rgb(0, 0, 0); fill-opacity: 1; white-space: pre; opacity: 1;" transform="translate(370.4,0)">0.6</text></g><g class="xtick"><text text-anchor="middle" x="0" y="464.5" style="font-family: 'Open Sans', verdana, arial, sans-serif; font-size: 15px; fill: rgb(0, 0, 0); fill-opacity: 1; white-space: pre; opacity: 1;" transform="translate(478.2,0)">0.8</text></g><g class="xtick"><text text-anchor="middle" x="0" y="464.5" style="font-family: 'Open Sans', verdana, arial, sans-serif; font-size: 15px; fill: rgb(0, 0, 0); fill-opacity: 1; white-space: pre; opacity: 1;" transform="translate(586,0)">1</text></g></g><g class="yaxislayer-above"><path class="ytick ticks crisp" d="M47,0h5" transform="translate(0,362.8)" style="stroke: rgb(0, 0, 0); stroke-opacity: 1; stroke-width: 0.5px;"/><path class="ytick ticks crisp" d="M47,0h5" transform="translate(0,279.6)" style="stroke: rgb(0, 0, 0); stroke-opacity: 1; stroke-width: 0.5px;"/><path class="ytick ticks crisp" d="M47,0h5" transform="translate(0,196.4)" style="stroke: rgb(0, 0, 0); stroke-opacity: 1; stroke-width: 0.5px;"/><path class="ytick ticks crisp" d="M47,0h5" transform="translate(0,113.2)" style="stroke: rgb(0, 0, 0); stroke-opacity: 1; stroke-width: 0.5px;"/><g class="ytick"><text text-anchor="end" x="43.5" y="5.25" transform="translate(0,446)" style="font-family: 'Open Sans', verdana, arial, sans-serif; font-size: 15px; fill: rgb(0, 0, 0); fill-opacity: 1; white-space: pre; opacity: 1;">0</text></g><g class="ytick"><text text-anchor="end" x="43.5" y="5.25" style="font-family: 'Open Sans', verdana, arial, sans-serif; font-size: 15px; fill: rgb(0, 0, 0); fill-opacity: 1; white-space: pre; opacity: 1;" transform="translate(0,362.8)">0.2</text></g><g class="ytick"><text text-anchor="end" x="43.5" y="5.25" style="font-family: 'Open Sans', verdana, arial, sans-serif; font-size: 15px; fill: rgb(0, 0, 0); fill-opacity: 1; white-space: pre; opacity: 1;" transform="translate(0,279.6)">0.4</text></g><g class="ytick"><text text-anchor="end" x="43.5" y="5.25" style="font-family: 'Open Sans', verdana, arial, sans-serif; font-size: 15px; fill: rgb(0, 0, 0); fill-opacity: 1; white-space: pre; opacity: 1;" transform="translate(0,196.4)">0.6</text></g><g class="ytick"><text text-anchor="end" x="43.5" y="5.25" style="font-family: 'Open Sans', verdana, arial, sans-serif; font-size: 15px; fill: rgb(0, 0, 0); fill-opacity: 1; white-space: pre; opacity: 1;" transform="translate(0,113.2)">0.8</text></g><g class="ytick"><text text-anchor="end" x="43.5" y="5.25" style="font-family: 'Open Sans', verdana, arial, sans-serif; font-size: 15px; fill: rgb(0, 0, 0); fill-opacity: 1; white-space: pre; opacity: 1;" transform="translate(0,30)">1</text></g></g><g class="overaxes-above"/></g></g><g class="polarlayer"/><g class="smithlayer"/><g class="ternarylayer"/><g class="geolayer"/><g class="funnelarealayer"/><g class="pielayer"/><g class="iciclelayer"/><g class="treemaplayer"/><g class="sunburstlayer"/><g class="glimages"/><defs id="topdefs-d39b84"><g class="clips"/></defs><g class="layer-above"><g class="imagelayer"/><g class="shapelayer"/></g><g class="infolayer"><g class="cbb06833 colorbar" transform="translate(47,30)"><rect class="cbbg" x="550" y="208" width="90.953125" height="250" style="fill: rgb(0, 0, 0); fill-opacity: 0; stroke: rgb(68, 68, 68); stroke-opacity: 1; stroke-width: 0;"/><g class="cbfills" transform="translate(0,247)"><rect class="cbfill" style="" x="560" y="1" width="10" height="200" fill="#440154"/><rect class="cbfill" style="" x="560" y="1" width="10" height="180" fill="#482878"/><rect class="cbfill" style="" x="560" y="1" width="10" height="160" fill="#3e4989"/><rect class="cbfill" style="" x="560" y="1" width="10" height="140" fill="#31688e"/><rect class="cbfill" style="" x="560" y="1" width="10" height="120" fill="#26828e"/><rect class="cbfill" style="" x="560" y="1" width="10" height="100" fill="#1f9e89"/><rect class="cbfill" style="" x="560" y="1" width="10" height="79" fill="#35b779"/><rect class="cbfill" style="" x="560" y="1" width="10" height="59" fill="#6ece58"/><rect class="cbfill" style="" x="560" y="1" width="10" height="39" fill="#b5de2b"/><rect class="cbfill" style="" x="560" y="0" width="10" height="20" fill="#fde725"/></g><g class="cblines" transform="translate(0,247)"><path class="cbline" d="M560,181.5h10" style="fill: none; stroke: rgb(0, 0, 0); stroke-opacity: 1; stroke-width: 1px;"/><path class="cbline" d="M560,161.5h10" style="fill: none; stroke: rgb(0, 0, 0); stroke-opacity: 1; stroke-width: 1px;"/><path class="cbline" d="M560,141.5h10" style="fill: none; stroke: rgb(0, 0, 0); stroke-opacity: 1; stroke-width: 1px;"/><path class="cbline" d="M560,121.5h10" style="fill: none; stroke: rgb(0, 0, 0); stroke-opacity: 1; stroke-width: 1px;"/><path class="cbline" d="M560,101.5h10" style="fill: none; stroke: rgb(0, 0, 0); stroke-opacity: 1; stroke-width: 1px;"/><path class="cbline" d="M560,80.5h10" style="fill: none; stroke: rgb(0, 0, 0); stroke-opacity: 1; stroke-width: 1px;"/><path class="cbline" d="M560,60.5h10" style="fill: none; stroke: rgb(0, 0, 0); stroke-opacity: 1; stroke-width: 1px;"/><path class="cbline" d="M560,40.5h10" style="fill: none; stroke: rgb(0, 0, 0); stroke-opacity: 1; stroke-width: 1px;"/><path class="cbline" d="M560,20.5h10" style="fill: none; stroke: rgb(0, 0, 0); stroke-opacity: 1; stroke-width: 1px;"/></g><g class="cbaxis crisp" transform="translate(0,-30)"><g class="ycbb06833tick"><text text-anchor="start" x="573.5" y="5.25" transform="translate(0,477.8)" style="font-family: 'Open Sans', verdana, arial, sans-serif; font-size: 15px; fill: rgb(0, 0, 0); fill-opacity: 1; white-space: pre; opacity: 1;">0</text></g><g class="ycbb06833tick"><text text-anchor="start" x="573.5" y="5.25" style="font-family: 'Open Sans', verdana, arial, sans-serif; font-size: 15px; fill: rgb(0, 0, 0); fill-opacity: 1; white-space: pre; opacity: 1;" transform="translate(0,437.6)">0.2</text></g><g class="ycbb06833tick"><text text-anchor="start" x="573.5" y="5.25" style="font-family: 'Open Sans', verdana, arial, sans-serif; font-size: 15px; fill: rgb(0, 0, 0); fill-opacity: 1; white-space: pre; opacity: 1;" transform="translate(0,397.4)">0.4</text></g><g class="ycbb06833tick"><text text-anchor="start" x="573.5" y="5.25" style="font-family: 'Open Sans', verdana, arial, sans-serif; font-size: 15px; fill: rgb(0, 0, 0); fill-opacity: 1; white-space: pre; opacity: 1;" transform="translate(0,357.20000000000005)">0.6</text></g><g class="ycbb06833tick"><text text-anchor="start" x="573.5" y="5.25" style="font-family: 'Open Sans', verdana, arial, sans-serif; font-size: 15px; fill: rgb(0, 0, 0); fill-opacity: 1; white-space: pre; opacity: 1;" transform="translate(0,317)">0.8</text></g><g class="ycbb06833tick"><text text-anchor="start" x="573.5" y="5.25" style="font-family: 'Open Sans', verdana, arial, sans-serif; font-size: 15px; fill: rgb(0, 0, 0); fill-opacity: 1; white-space: pre; opacity: 1;" transform="translate(0,276.8)">1</text></g></g><g class="cbtitleunshift" transform="translate(-47,-30)"><g class="cbtitle" transform=""><text class="ycbb06833title" x="606.78" y="264.3" text-anchor="start" style="opacity: 1; font-family: 'Open Sans', verdana, arial, sans-serif; font-size: 18px; fill: rgb(0, 0, 0); fill-opacity: 1; white-space: pre;">C1 [mM]</text></g></g><rect class="cboutline" x="560" y="247" width="10" height="201" style="stroke: rgb(68, 68, 68); stroke-opacity: 1; fill: none; stroke-width: 0;"/></g><g class="g-gtitle"><text class="gtitle" x="35" y="15" text-anchor="start" dy="0em" style="opacity: 1; font-family: 'Open Sans', verdana, arial, sans-serif; font-size: 15px; fill: rgb(0, 0, 0); fill-opacity: 1; white-space: pre;">Steady state Succinate concentration [mM]</text></g><g class="g-xtitle"><text class="xtitle" x="316.5" y="478.75" text-anchor="middle" style="opacity: 1; font-family: 'Open Sans', verdana, arial, sans-serif; font-size: 15px; fill: rgb(0, 0, 0); fill-opacity: 1; white-space: pre;">a1</text></g><g class="g-ytitle"><text class="ytitle" transform="rotate(-90,17.34375,238)" x="17.34375" y="238" text-anchor="middle" style="opacity: 1; font-family: 'Open Sans', verdana, arial, sans-serif; font-size: 15px; fill: rgb(0, 0, 0); fill-opacity: 1; white-space: pre;">a2</text></g></g></svg>