<svg class="main-svg" xmlns="http://www.w3.org/2000/svg" xmlns:xlink="http://www.w3.org/1999/xlink" width="700" height="500" style="" viewBox="0 0 700 500"><rect x="0" y="0" width="700" height="500" style="fill: rgb(255, 255, 255); fill-opacity: 1;"/><defs id="defs-f0c17b"><g class="clips"><clipPath id="clipf0c17bxyplot" class="plotclip"><rect width="564" height="425"/></clipPath><clipPath class="axesclip" id="clipf0c17bx"><rect x="47" y="0" width="564" height="500"/></clipPath><clipPath class="axesclip" id="clipf0c17by"><rect x="0" y="30" width="700" height="425"/></clipPath><clipPath class="axesclip" id="clipf0c17bxy"><rect x="47" y="30" width="564" height="425"/></clipPath></g><g class="gradients"><linearGradient x1="0" y1="1" x2="0" y2="0" gradientUnits="objectBoundingBox" id="gf0c17b-cb748f18"><stop offset="0%" stop-color="rgb(68, 1, 84)" stop-opacity="1"/><stop offset="11.111111%" stop-color="rgb(72, 40, 120)" stop-opacity="1"/><stop offset="22.222222%" stop-color="rgb(62, 73, 137)" stop-opacity="1"/><stop offset="33.333333%" stop-color="rgb(49, 104, 142)" stop-opacity="1"/><stop offset="44.444444%" stop-color="rgb(38, 130, 142)" stop-opacity="1"/><stop offset="55.555556%" stop-color="rgb(31, 158, 137)" stop-opacity="1"/><stop offset="66.666667%" stop-color="rgb(53, 183, 121)" stop-opacity="1"/><stop offset="77.777778%" stop-color="rgb(110, 206, 88)" stop-opacity="1"/><stop offset="88.888889%" stop-color="rgb(181, 222, 43)" stop-opacity="1"/><stop offset="100%" stop-color="rgb(253, 231, 37)" stop-opacity="1"/></linearGradient></g><g class="patterns"/></defs><g class="bglayer"/><g class="layer-below"><g class="imagelayer"/><g class="shapelayer"/></g><g class="cartesianlayer"><g class="subplot xy"><g class="layer-subplot"><g class="shapelayer"/><g class="imagelayer"/></g><g class="minor-gridlayer"><g class="x"/><g class="y"/></g><g class="gridlayer"><g class="x"><path class="xgrid crisp" transform="translate(68.86,0)" d="M0,30v425" style="stroke: rgb(128, 128, 128); stroke-opacity: 1; stroke-width: 0.2px;"/><path class="xgrid crisp" transform="translate(170.4,0)" d="M0,30v425" style="stroke: rgb(128, 128, 128); stroke-opacity: 1; stroke-width: 0.2px;"/><path class="xgrid crisp" transform="translate(271.94,0)" d="M0,30v425" style="stroke: rgb(128, 128, 128); stroke-opacity: 1; stroke-width: 0.2px;"/><path class="xgrid crisp" transform="translate(373.47,0)" d="M0,30v425" style="stroke: rgb(128, 128, 128); stroke-opacity: 1; stroke-width: 0.2px;"/><path class="xgrid crisp" transform="translate(475.01,0)" d="M0,30v425" style="stroke: rgb(128, 128, 128); stroke-opacity: 1; stroke-width: 0.2px;"/><path class="xgrid crisp" transform="translate(576.55,0)" d="M0,30v425" style="stroke: rgb(128, 128, 128); stroke-opacity: 1; stroke-width: 0.2px;"/></g><g class="y"><path class="ygrid crisp" transform="translate(0,449.84)" d="M47,0h564" style="stroke: rgb(128, 128, 128); stroke-opacity: 1; stroke-width: 0.2px;"/><path class="ygrid crisp" transform="translate(0,371.37)" d="M47,0h564" style="stroke: rgb(128, 128, 128); stroke-opacity: 1; stroke-width: 0.2px;"/><path class="ygrid crisp" transform="translate(0,292.9)" d="M47,0h564" style="stroke: rgb(128, 128, 128); stroke-opacity: 1; stroke-width: 0.2px;"/><path class="ygrid crisp" transform="translate(0,214.43)" d="M47,0h564" style="stroke: rgb(128, 128, 128); stroke-opacity: 1; stroke-width: 0.2px;"/><path class="ygrid crisp" transform="translate(0,135.97)" d="M47,0h564" style="stroke: rgb(128, 128, 128); stroke-opacity: 1; stroke-width: 0.2px;"/><path class="ygrid crisp" transform="translate(0,57.5)" d="M47,0h564" style="stroke: rgb(128, 128, 128); stroke-opacity: 1; stroke-width: 0.2px;"/></g></g><g class="zerolinelayer"/><g class="layer-between"><g class="shapelayer"/><g class="imagelayer"/></g><path class="xlines-below"/><path class="ylines-below"/><g class="overlines-below"/><g class="xaxislayer-below"/><g class="yaxislayer-below"/><g class="overaxes-below"/><g class="overplot"><g class="xy" transform="translate(47,30)" clip-path="url(#clipf0c17bxyplot)"><g class="scatterlayer mlayer"><g class="trace scatter trace748f18" style="stroke-miterlimit: 2; opacity: 1;"><g class="fills"/><g class="errorbars"/><g class="lines"/><g class="points"><path class="point" transform="translate(529.55,302.14)" d="M-5.77,2.5H5.77L0,-5Z" style="opacity: 1; stroke-width: 0px; fill: rgb(68, 1, 84); fill-opacity: 1;"/><path class="point" transform="translate(524.72,303.66)" d="M-5.77,2.5H5.77L0,-5Z" style="opacity: 1; stroke-width: 0px; fill: rgb(68, 5, 87); fill-opacity: 1;"/><path class="point" transform="translate(519.71,305.18)" d="M-5.77,2.5H5.77L0,-5Z" style="opacity: 1; stroke-width: 0px; fill: rgb(69, 8, 91); fill-opacity: 1;"/><path class="point" transform="translate(514.5,306.7)" d="M-5.77,2.5H5.77L0,-5Z" style="opacity: 1; stroke-width: 0px; fill: rgb(69, 12, 94); fill-opacity: 1;"/><path class="point" transform="translate(509.09,308.23)" d="M-5.77,2.5H5.77L0,-5Z" style="opacity: 1; stroke-width: 0px; fill: rgb(69, 15, 97); fill-opacity: 1;"/><path class="point" transform="translate(503.47,309.75)" d="M-5.77,2.5H5.77L0,-5Z" style="opacity: 1; stroke-width: 0px; fill: rgb(70, 19, 100); fill-opacity: 1;"/><path class="point" transform="translate(497.64,311.27)" d="M-5.77,2.5H5.77L0,-5Z" style="opacity: 1; stroke-width: 0px; fill: rgb(70, 22, 104); fill-opacity: 1;"/><path class="point" transform="translate(491.58,312.79)" d="M-5.77,2.5H5.77L0,-5Z" style="opacity: 1; stroke-width: 0px; fill: rgb(71, 26, 107); fill-opacity: 1;"/><path class="point" transform="translate(485.28,314.31)" d="M-5.77,2.5H5.77L0,-5Z" style="opacity: 1; stroke-width: 0px; fill: rgb(71, 29, 110); fill-opacity: 1;"/><path class="point" transform="translate(478.73,315.83)" d="M-5.77,2.5H5.77L0,-5Z" style="opacity: 1; stroke-width: 0px; fill: rgb(71, 33, 113); fill-opacity: 1;"/><path class="point" transform="translate(471.92,317.35)" d="M-5.77,2.5H5.77L0,-5Z" style="opacity: 1; stroke-width: 0px; fill: rgb(72, 36, 117); fill-opacity: 1;"/><path class="point" transform="translate(464.85,318.87)" d="M-5.77,2.5H5.77L0,-5Z" style="opacity: 1; stroke-width: 0px; fill: rgb(72, 40, 120); fill-opacity: 1;"/><path class="point" transform="translate(457.49,320.38)" d="M-5.77,2.5H5.77L0,-5Z" style="opacity: 1; stroke-width: 0px; fill: rgb(71, 43, 122); fill-opacity: 1;"/><path class="point" transform="translate(449.84,321.9)" d="M-5.77,2.5H5.77L0,-5Z" style="opacity: 1; stroke-width: 0px; fill: rgb(70, 46, 123); fill-opacity: 1;"/><path class="point" transform="translate(441.88,323.41)" d="M-5.77,2.5H5.77L0,-5Z" style="opacity: 1; stroke-width: 0px; fill: rgb(69, 49, 125); fill-opacity: 1;"/><path class="point" transform="translate(433.6,324.92)" d="M-5.77,2.5H5.77L0,-5Z" style="opacity: 1; stroke-width: 0px; fill: rgb(68, 52, 126); fill-opacity: 1;"/><path class="point" transform="translate(424.98,326.43)" d="M-5.77,2.5H5.77L0,-5Z" style="opacity: 1; stroke-width: 0px; fill: rgb(67, 55, 128); fill-opacity: 1;"/><path class="point" transform="translate(416,327.94)" d="M-5.77,2.5H5.77L0,-5Z" style="opacity: 1; stroke-width: 0px; fill: rgb(67, 58, 129); fill-opacity: 1;"/><path class="point" transform="translate(406.66,329.44)" d="M-5.77,2.5H5.77L0,-5Z" style="opacity: 1; stroke-width: 0px; fill: rgb(66, 61, 131); fill-opacity: 1;"/><path class="point" transform="translate(396.93,330.94)" d="M-5.77,2.5H5.77L0,-5Z" style="opacity: 1; stroke-width: 0px; fill: rgb(65, 64, 132); fill-opacity: 1;"/><path class="point" transform="translate(386.8,332.44)" d="M-5.77,2.5H5.77L0,-5Z" style="opacity: 1; stroke-width: 0px; fill: rgb(64, 67, 134); fill-opacity: 1;"/><path class="point" transform="translate(376.24,333.93)" d="M-5.77,2.5H5.77L0,-5Z" style="opacity: 1; stroke-width: 0px; fill: rgb(63, 70, 135); fill-opacity: 1;"/><path class="point" transform="translate(365.24,335.41)" d="M-5.77,2.5H5.77L0,-5Z" style="opacity: 1; stroke-width: 0px; fill: rgb(62, 73, 137); fill-opacity: 1;"/><path class="point" transform="translate(353.78,336.88)" d="M-5.77,2.5H5.77L0,-5Z" style="opacity: 1; stroke-width: 0px; fill: rgb(61, 76, 137); fill-opacity: 1;"/><path class="point" transform="translate(341.83,338.35)" d="M-5.77,2.5H5.77L0,-5Z" style="opacity: 1; stroke-width: 0px; fill: rgb(60, 79, 138); fill-opacity: 1;"/><path class="point" transform="translate(329.39,339.81)" d="M-5.77,2.5H5.77L0,-5Z" style="opacity: 1; stroke-width: 0px; fill: rgb(58, 81, 138); fill-opacity: 1;"/><path class="point" transform="translate(316.42,341.25)" d="M-5.77,2.5H5.77L0,-5Z" style="opacity: 1; stroke-width: 0px; fill: rgb(57, 84, 139); fill-opacity: 1;"/><path class="point" transform="translate(302.92,342.68)" d="M-5.77,2.5H5.77L0,-5Z" style="opacity: 1; stroke-width: 0px; fill: rgb(56, 87, 139); fill-opacity: 1;"/><path class="point" transform="translate(288.88,344.09)" d="M-5.77,2.5H5.77L0,-5Z" style="opacity: 1; stroke-width: 0px; fill: rgb(55, 90, 140); fill-opacity: 1;"/><path class="point" transform="translate(274.27,345.48)" d="M-5.77,2.5H5.77L0,-5Z" style="opacity: 1; stroke-width: 0px; fill: rgb(54, 93, 140); fill-opacity: 1;"/><path class="point" transform="translate(259.1,346.84)" d="M-5.77,2.5H5.77L0,-5Z" style="opacity: 1; stroke-width: 0px; fill: rgb(53, 96, 141); fill-opacity: 1;"/><path class="point" transform="translate(243.39,348.16)" d="M-5.77,2.5H5.77L0,-5Z" style="opacity: 1; stroke-width: 0px; fill: rgb(51, 98, 141); fill-opacity: 1;"/><path class="point" transform="translate(227.16,349.44)" d="M-5.77,2.5H5.77L0,-5Z" style="opacity: 1; stroke-width: 0px; fill: rgb(50, 101, 142); fill-opacity: 1;"/><path class="point" transform="translate(210.47,350.66)" d="M-5.77,2.5H5.77L0,-5Z" style="opacity: 1; stroke-width: 0px; fill: rgb(49, 104, 142); fill-opacity: 1;"/><path class="point" transform="translate(193.42,351.8)" d="M-5.77,2.5H5.77L0,-5Z" style="opacity: 1; stroke-width: 0px; fill: rgb(48, 106, 142); fill-opacity: 1;"/><path class="point" transform="translate(176.15,352.83)" d="M-5.77,2.5H5.77L0,-5Z" style="opacity: 1; stroke-width: 0px; fill: rgb(47, 109, 142); fill-opacity: 1;"/><path class="point" transform="translate(158.89,353.73)" d="M-5.77,2.5H5.77L0,-5Z" style="opacity: 1; stroke-width: 0px; fill: rgb(46, 111, 142); fill-opacity: 1;"/><path class="point" transform="translate(141.97,354.45)" d="M-5.77,2.5H5.77L0,-5Z" style="opacity: 1; stroke-width: 0px; fill: rgb(45, 113, 142); fill-opacity: 1;"/><path class="point" transform="translate(125.8,354.93)" d="M-5.77,2.5H5.77L0,-5Z" style="opacity: 1; stroke-width: 0px; fill: rgb(44, 116, 142); fill-opacity: 1;"/><path class="point" transform="translate(110.83,355.12)" d="M-5.77,2.5H5.77L0,-5Z" style="opacity: 1; stroke-width: 0px; fill: rgb(43, 118, 142); fill-opacity: 1;"/><path class="point" transform="translate(97.52,354.96)" d="M-5.77,2.5H5.77L0,-5Z" style="opacity: 1; stroke-width: 0px; fill: rgb(42, 121, 142); fill-opacity: 1;"/><path class="point" transform="translate(86.12,354.44)" d="M-5.77,2.5H5.77L0,-5Z" style="opacity: 1; stroke-width: 0px; fill: rgb(41, 123, 142); fill-opacity: 1;"/><path class="point" transform="translate(76.68,353.53)" d="M-5.77,2.5H5.77L0,-5Z" style="opacity: 1; stroke-width: 0px; fill: rgb(40, 125, 142); fill-opacity: 1;"/><path class="point" transform="translate(69.03,352.27)" d="M-5.77,2.5H5.77L0,-5Z" style="opacity: 1; stroke-width: 0px; fill: rgb(39, 128, 142); fill-opacity: 1;"/><path class="point" transform="translate(62.91,350.68)" d="M-5.77,2.5H5.77L0,-5Z" style="opacity: 1; stroke-width: 0px; fill: rgb(38, 130, 142); fill-opacity: 1;"/><path class="point" transform="translate(58.02,348.78)" d="M-5.77,2.5H5.77L0,-5Z" style="opacity: 1; stroke-width: 0px; fill: rgb(37, 133, 142); fill-opacity: 1;"/><path class="point" transform="translate(54.08,346.6)" d="M-5.77,2.5H5.77L0,-5Z" style="opacity: 1; stroke-width: 0px; fill: rgb(37, 135, 141); fill-opacity: 1;"/><path class="point" transform="translate(50.89,344.16)" d="M-5.77,2.5H5.77L0,-5Z" style="opacity: 1; stroke-width: 0px; fill: rgb(36, 138, 141); fill-opacity: 1;"/><path class="point" transform="translate(48.28,341.46)" d="M-5.77,2.5H5.77L0,-5Z" style="opacity: 1; stroke-width: 0px; fill: rgb(35, 140, 140); fill-opacity: 1;"/><path class="point" transform="translate(46.12,338.5)" d="M-5.77,2.5H5.77L0,-5Z" style="opacity: 1; stroke-width: 0px; fill: rgb(35, 143, 140); fill-opacity: 1;"/><path class="point" transform="translate(44.31,335.28)" d="M-5.77,2.5H5.77L0,-5Z" style="opacity: 1; stroke-width: 0px; fill: rgb(34, 145, 139); fill-opacity: 1;"/><path class="point" transform="translate(42.79,331.79)" d="M-5.77,2.5H5.77L0,-5Z" style="opacity: 1; stroke-width: 0px; fill: rgb(34, 148, 139); fill-opacity: 1;"/><path class="point" transform="translate(41.51,328.03)" d="M-5.77,2.5H5.77L0,-5Z" style="opacity: 1; stroke-width: 0px; fill: rgb(33, 150, 138); fill-opacity: 1;"/><path class="point" transform="translate(40.41,324)" d="M-5.77,2.5H5.77L0,-5Z" style="opacity: 1; stroke-width: 0px; fill: rgb(32, 153, 138); fill-opacity: 1;"/><path class="point" transform="translate(39.47,319.67)" d="M-5.77,2.5H5.77L0,-5Z" style="opacity: 1; stroke-width: 0px; fill: rgb(32, 155, 137); fill-opacity: 1;"/><path class="point" transform="translate(38.66,315.04)" d="M-5.77,2.5H5.77L0,-5Z" style="opacity: 1; stroke-width: 0px; fill: rgb(31, 158, 137); fill-opacity: 1;"/><path class="point" transform="translate(37.96,310.12)" d="M-5.77,2.5H5.77L0,-5Z" style="opacity: 1; stroke-width: 0px; fill: rgb(33, 160, 136); fill-opacity: 1;"/><path class="point" transform="translate(37.36,304.88)" d="M-5.77,2.5H5.77L0,-5Z" style="opacity: 1; stroke-width: 0px; fill: rgb(35, 163, 134); fill-opacity: 1;"/><path class="point" transform="translate(36.84,299.34)" d="M-5.77,2.5H5.77L0,-5Z" style="opacity: 1; stroke-width: 0px; fill: rgb(37, 165, 133); fill-opacity: 1;"/><path class="point" transform="translate(36.4,293.5)" d="M-5.77,2.5H5.77L0,-5Z" style="opacity: 1; stroke-width: 0px; fill: rgb(39, 167, 131); fill-opacity: 1;"/><path class="point" transform="translate(36.02,287.36)" d="M-5.77,2.5H5.77L0,-5Z" style="opacity: 1; stroke-width: 0px; fill: rgb(41, 169, 130); fill-opacity: 1;"/><path class="point" transform="translate(35.69,280.94)" d="M-5.77,2.5H5.77L0,-5Z" style="opacity: 1; stroke-width: 0px; fill: rgb(43, 172, 128); fill-opacity: 1;"/><path class="point" transform="translate(35.41,274.25)" d="M-5.77,2.5H5.77L0,-5Z" style="opacity: 1; stroke-width: 0px; fill: rgb(45, 174, 127); fill-opacity: 1;"/><path class="point" transform="translate(35.18,267.32)" d="M-5.77,2.5H5.77L0,-5Z" style="opacity: 1; stroke-width: 0px; fill: rgb(47, 176, 125); fill-opacity: 1;"/><path class="point" transform="translate(34.99,260.16)" d="M-5.77,2.5H5.77L0,-5Z" style="opacity: 1; stroke-width: 0px; fill: rgb(49, 178, 124); fill-opacity: 1;"/><path class="point" transform="translate(34.83,252.81)" d="M-5.77,2.5H5.77L0,-5Z" style="opacity: 1; stroke-width: 0px; fill: rgb(51, 181, 122); fill-opacity: 1;"/><path class="point" transform="translate(34.71,245.3)" d="M-5.77,2.5H5.77L0,-5Z" style="opacity: 1; stroke-width: 0px; fill: rgb(53, 183, 121); fill-opacity: 1;"/><path class="point" transform="translate(34.61,237.66)" d="M-5.77,2.5H5.77L0,-5Z" style="opacity: 1; stroke-width: 0px; fill: rgb(58, 185, 118); fill-opacity: 1;"/><path class="point" transform="translate(34.54,229.91)" d="M-5.77,2.5H5.77L0,-5Z" style="opacity: 1; stroke-width: 0px; fill: rgb(63, 187, 115); fill-opacity: 1;"/><path class="point" transform="translate(34.49,222.09)" d="M-5.77,2.5H5.77L0,-5Z" style="opacity: 1; stroke-width: 0px; fill: rgb(69, 189, 112); fill-opacity: 1;"/><path class="point" transform="translate(34.46,214.23)" d="M-5.77,2.5H5.77L0,-5Z" style="opacity: 1; stroke-width: 0px; fill: rgb(74, 191, 109); fill-opacity: 1;"/><path class="point" transform="translate(34.45,206.36)" d="M-5.77,2.5H5.77L0,-5Z" style="opacity: 1; stroke-width: 0px; fill: rgb(79, 193, 106); fill-opacity: 1;"/><path class="point" transform="translate(34.45,198.5)" d="M-5.77,2.5H5.77L0,-5Z" style="opacity: 1; stroke-width: 0px; fill: rgb(84, 196, 103); fill-opacity: 1;"/><path class="point" transform="translate(34.47,190.67)" d="M-5.77,2.5H5.77L0,-5Z" style="opacity: 1; stroke-width: 0px; fill: rgb(89, 198, 100); fill-opacity: 1;"/><path class="point" transform="translate(34.51,182.9)" d="M-5.77,2.5H5.77L0,-5Z" style="opacity: 1; stroke-width: 0px; fill: rgb(94, 200, 97); fill-opacity: 1;"/><path class="point" transform="translate(34.55,175.2)" d="M-5.77,2.5H5.77L0,-5Z" style="opacity: 1; stroke-width: 0px; fill: rgb(100, 202, 94); fill-opacity: 1;"/><path class="point" transform="translate(34.6,167.59)" d="M-5.77,2.5H5.77L0,-5Z" style="opacity: 1; stroke-width: 0px; fill: rgb(105, 204, 91); fill-opacity: 1;"/><path class="point" transform="translate(34.66,160.07)" d="M-5.77,2.5H5.77L0,-5Z" style="opacity: 1; stroke-width: 0px; fill: rgb(110, 206, 88); fill-opacity: 1;"/><path class="point" transform="translate(34.73,152.67)" d="M-5.77,2.5H5.77L0,-5Z" style="opacity: 1; stroke-width: 0px; fill: rgb(116, 207, 84); fill-opacity: 1;"/><path class="point" transform="translate(34.81,145.39)" d="M-5.77,2.5H5.77L0,-5Z" style="opacity: 1; stroke-width: 0px; fill: rgb(123, 209, 80); fill-opacity: 1;"/><path class="point" transform="translate(34.89,138.23)" d="M-5.77,2.5H5.77L0,-5Z" style="opacity: 1; stroke-width: 0px; fill: rgb(129, 210, 76); fill-opacity: 1;"/><path class="point" transform="translate(34.98,131.2)" d="M-5.77,2.5H5.77L0,-5Z" style="opacity: 1; stroke-width: 0px; fill: rgb(136, 212, 72); fill-opacity: 1;"/><path class="point" transform="translate(35.08,124.3)" d="M-5.77,2.5H5.77L0,-5Z" style="opacity: 1; stroke-width: 0px; fill: rgb(142, 213, 68); fill-opacity: 1;"/><path class="point" transform="translate(35.17,117.54)" d="M-5.77,2.5H5.77L0,-5Z" style="opacity: 1; stroke-width: 0px; fill: rgb(149, 215, 63); fill-opacity: 1;"/><path class="point" transform="translate(35.28,110.92)" d="M-5.77,2.5H5.77L0,-5Z" style="opacity: 1; stroke-width: 0px; fill: rgb(155, 216, 59); fill-opacity: 1;"/><path class="point" transform="translate(35.38,104.44)" d="M-5.77,2.5H5.77L0,-5Z" style="opacity: 1; stroke-width: 0px; fill: rgb(162, 218, 55); fill-opacity: 1;"/><path class="point" transform="translate(35.49,98.1)" d="M-5.77,2.5H5.77L0,-5Z" style="opacity: 1; stroke-width: 0px; fill: rgb(168, 219, 51); fill-opacity: 1;"/><path class="point" transform="translate(35.6,91.89)" d="M-5.77,2.5H5.77L0,-5Z" style="opacity: 1; stroke-width: 0px; fill: rgb(175, 221, 47); fill-opacity: 1;"/><path class="point" transform="translate(35.72,85.83)" d="M-5.77,2.5H5.77L0,-5Z" style="opacity: 1; stroke-width: 0px; fill: rgb(181, 222, 43); fill-opacity: 1;"/><path class="point" transform="translate(35.84,79.89)" d="M-5.77,2.5H5.77L0,-5Z" style="opacity: 1; stroke-width: 0px; fill: rgb(188, 223, 42); fill-opacity: 1;"/><path class="point" transform="translate(35.95,74.1)" d="M-5.77,2.5H5.77L0,-5Z" style="opacity: 1; stroke-width: 0px; fill: rgb(194, 224, 42); fill-opacity: 1;"/><path class="point" transform="translate(36.08,68.43)" d="M-5.77,2.5H5.77L0,-5Z" style="opacity: 1; stroke-width: 0px; fill: rgb(201, 224, 41); fill-opacity: 1;"/><path class="point" transform="translate(36.2,62.89)" d="M-5.77,2.5H5.77L0,-5Z" style="opacity: 1; stroke-width: 0px; fill: rgb(207, 225, 41); fill-opacity: 1;"/><path class="point" transform="translate(36.32,57.48)" d="M-5.77,2.5H5.77L0,-5Z" style="opacity: 1; stroke-width: 0px; fill: rgb(214, 226, 40); fill-opacity: 1;"/><path class="point" transform="translate(36.45,52.19)" d="M-5.77,2.5H5.77L0,-5Z" style="opacity: 1; stroke-width: 0px; fill: rgb(220, 227, 40); fill-opacity: 1;"/><path class="point" transform="translate(36.57,47.02)" d="M-5.77,2.5H5.77L0,-5Z" style="opacity: 1; stroke-width: 0px; fill: rgb(227, 228, 39); fill-opacity: 1;"/><path class="point" transform="translate(36.7,41.97)" d="M-5.77,2.5H5.77L0,-5Z" style="opacity: 1; stroke-width: 0px; fill: rgb(233, 229, 39); fill-opacity: 1;"/><path class="point" transform="translate(36.83,37.04)" d="M-5.77,2.5H5.77L0,-5Z" style="opacity: 1; stroke-width: 0px; fill: rgb(240, 229, 38); fill-opacity: 1;"/><path class="point" transform="translate(36.96,32.21)" d="M-5.77,2.5H5.77L0,-5Z" style="opacity: 1; stroke-width: 0px; fill: rgb(246, 230, 38); fill-opacity: 1;"/><path class="point" transform="translate(37.09,27.5)" d="M-5.77,2.5H5.77L0,-5Z" style="opacity: 1; stroke-width: 0px; fill: rgb(253, 231, 37); fill-opacity: 1;"/></g><g class="text"/></g><g class="trace scatter trace03b256" style="stroke-miterlimit: 2; opacity: 1;"><g class="fills"/><g class="errorbars"/><g class="lines"/><g class="points"><path class="point" transform="translate(529.55,396.3)" d="M5,0A5,5 0 1,1 0,-5A5,5 0 0,1 5,0Z" style="opacity: 1; stroke-width: 0px; fill: rgb(68, 1, 84); fill-opacity: 1;"/><path class="point" transform="translate(524.14,396.4)" d="M5,0A5,5 0 1,1 0,-5A5,5 0 0,1 5,0Z" style="opacity: 1; stroke-width: 0px; fill: rgb(68, 5, 87); fill-opacity: 1;"/><path class="point" transform="translate(518.63,396.5)" d="M5,0A5,5 0 1,1 0,-5A5,5 0 0,1 5,0Z" style="opacity: 1; stroke-width: 0px; fill: rgb(69, 8, 91); fill-opacity: 1;"/><path class="point" transform="translate(513,396.6)" d="M5,0A5,5 0 1,1 0,-5A5,5 0 0,1 5,0Z" style="opacity: 1; stroke-width: 0px; fill: rgb(69, 12, 94); fill-opacity: 1;"/><path class="point" transform="translate(507.27,396.7)" d="M5,0A5,5 0 1,1 0,-5A5,5 0 0,1 5,0Z" style="opacity: 1; stroke-width: 0px; fill: rgb(69, 15, 97); fill-opacity: 1;"/><path class="point" transform="translate(501.43,396.79)" d="M5,0A5,5 0 1,1 0,-5A5,5 0 0,1 5,0Z" style="opacity: 1; stroke-width: 0px; fill: rgb(70, 19, 100); fill-opacity: 1;"/><path class="point" transform="translate(495.48,396.88)" d="M5,0A5,5 0 1,1 0,-5A5,5 0 0,1 5,0Z" style="opacity: 1; stroke-width: 0px; fill: rgb(70, 22, 104); fill-opacity: 1;"/><path class="point" transform="translate(489.41,396.97)" d="M5,0A5,5 0 1,1 0,-5A5,5 0 0,1 5,0Z" style="opacity: 1; stroke-width: 0px; fill: rgb(71, 26, 107); fill-opacity: 1;"/><path class="point" transform="translate(483.23,397.05)" d="M5,0A5,5 0 1,1 0,-5A5,5 0 0,1 5,0Z" style="opacity: 1; stroke-width: 0px; fill: rgb(71, 29, 110); fill-opacity: 1;"/><path class="point" transform="translate(476.94,397.12)" d="M5,0A5,5 0 1,1 0,-5A5,5 0 0,1 5,0Z" style="opacity: 1; stroke-width: 0px; fill: rgb(71, 33, 113); fill-opacity: 1;"/><path class="point" transform="translate(470.53,397.19)" d="M5,0A5,5 0 1,1 0,-5A5,5 0 0,1 5,0Z" style="opacity: 1; stroke-width: 0px; fill: rgb(72, 36, 117); fill-opacity: 1;"/><path class="point" transform="translate(464.01,397.26)" d="M5,0A5,5 0 1,1 0,-5A5,5 0 0,1 5,0Z" style="opacity: 1; stroke-width: 0px; fill: rgb(72, 40, 120); fill-opacity: 1;"/><path class="point" transform="translate(457.37,397.32)" d="M5,0A5,5 0 1,1 0,-5A5,5 0 0,1 5,0Z" style="opacity: 1; stroke-width: 0px; fill: rgb(71, 43, 122); fill-opacity: 1;"/><path class="point" transform="translate(450.62,397.37)" d="M5,0A5,5 0 1,1 0,-5A5,5 0 0,1 5,0Z" style="opacity: 1; stroke-width: 0px; fill: rgb(70, 46, 123); fill-opacity: 1;"/><path class="point" transform="translate(443.77,397.41)" d="M5,0A5,5 0 1,1 0,-5A5,5 0 0,1 5,0Z" style="opacity: 1; stroke-width: 0px; fill: rgb(69, 49, 125); fill-opacity: 1;"/><path class="point" transform="translate(436.8,397.45)" d="M5,0A5,5 0 1,1 0,-5A5,5 0 0,1 5,0Z" style="opacity: 1; stroke-width: 0px; fill: rgb(68, 52, 126); fill-opacity: 1;"/><path class="point" transform="translate(429.72,397.48)" d="M5,0A5,5 0 1,1 0,-5A5,5 0 0,1 5,0Z" style="opacity: 1; stroke-width: 0px; fill: rgb(67, 55, 128); fill-opacity: 1;"/><path class="point" transform="translate(422.55,397.49)" d="M5,0A5,5 0 1,1 0,-5A5,5 0 0,1 5,0Z" style="opacity: 1; stroke-width: 0px; fill: rgb(67, 58, 129); fill-opacity: 1;"/><path class="point" transform="translate(415.27,397.5)" d="M5,0A5,5 0 1,1 0,-5A5,5 0 0,1 5,0Z" style="opacity: 1; stroke-width: 0px; fill: rgb(66, 61, 131); fill-opacity: 1;"/><path class="point" transform="translate(407.9,397.49)" d="M5,0A5,5 0 1,1 0,-5A5,5 0 0,1 5,0Z" style="opacity: 1; stroke-width: 0px; fill: rgb(65, 64, 132); fill-opacity: 1;"/><path class="point" transform="translate(400.44,397.47)" d="M5,0A5,5 0 1,1 0,-5A5,5 0 0,1 5,0Z" style="opacity: 1; stroke-width: 0px; fill: rgb(64, 67, 134); fill-opacity: 1;"/><path class="point" transform="translate(392.9,397.44)" d="M5,0A5,5 0 1,1 0,-5A5,5 0 0,1 5,0Z" style="opacity: 1; stroke-width: 0px; fill: rgb(63, 70, 135); fill-opacity: 1;"/><path class="point" transform="translate(385.29,397.39)" d="M5,0A5,5 0 1,1 0,-5A5,5 0 0,1 5,0Z" style="opacity: 1; stroke-width: 0px; fill: rgb(62, 73, 137); fill-opacity: 1;"/><path class="point" transform="translate(377.61,397.32)" d="M5,0A5,5 0 1,1 0,-5A5,5 0 0,1 5,0Z" style="opacity: 1; stroke-width: 0px; fill: rgb(61, 76, 137); fill-opacity: 1;"/><path class="point" transform="translate(369.88,397.24)" d="M5,0A5,5 0 1,1 0,-5A5,5 0 0,1 5,0Z" style="opacity: 1; stroke-width: 0px; fill: rgb(60, 79, 138); fill-opacity: 1;"/><path class="point" transform="translate(362.1,397.13)" d="M5,0A5,5 0 1,1 0,-5A5,5 0 0,1 5,0Z" style="opacity: 1; stroke-width: 0px; fill: rgb(58, 81, 138); fill-opacity: 1;"/><path class="point" transform="translate(354.28,397)" d="M5,0A5,5 0 1,1 0,-5A5,5 0 0,1 5,0Z" style="opacity: 1; stroke-width: 0px; fill: rgb(57, 84, 139); fill-opacity: 1;"/><path class="point" transform="translate(346.45,396.84)" d="M5,0A5,5 0 1,1 0,-5A5,5 0 0,1 5,0Z" style="opacity: 1; stroke-width: 0px; fill: rgb(56, 87, 139); fill-opacity: 1;"/><path class="point" transform="translate(338.61,396.65)" d="M5,0A5,5 0 1,1 0,-5A5,5 0 0,1 5,0Z" style="opacity: 1; stroke-width: 0px; fill: rgb(55, 90, 140); fill-opacity: 1;"/><path class="point" transform="translate(330.79,396.43)" d="M5,0A5,5 0 1,1 0,-5A5,5 0 0,1 5,0Z" style="opacity: 1; stroke-width: 0px; fill: rgb(54, 93, 140); fill-opacity: 1;"/><path class="point" transform="translate(322.98,396.18)" d="M5,0A5,5 0 1,1 0,-5A5,5 0 0,1 5,0Z" style="opacity: 1; stroke-width: 0px; fill: rgb(53, 96, 141); fill-opacity: 1;"/><path class="point" transform="translate(315.22,395.88)" d="M5,0A5,5 0 1,1 0,-5A5,5 0 0,1 5,0Z" style="opacity: 1; stroke-width: 0px; fill: rgb(51, 98, 141); fill-opacity: 1;"/><path class="point" transform="translate(307.52,395.55)" d="M5,0A5,5 0 1,1 0,-5A5,5 0 0,1 5,0Z" style="opacity: 1; stroke-width: 0px; fill: rgb(50, 101, 142); fill-opacity: 1;"/><path class="point" transform="translate(299.9,395.16)" d="M5,0A5,5 0 1,1 0,-5A5,5 0 0,1 5,0Z" style="opacity: 1; stroke-width: 0px; fill: rgb(49, 104, 142); fill-opacity: 1;"/><path class="point" transform="translate(292.38,394.72)" d="M5,0A5,5 0 1,1 0,-5A5,5 0 0,1 5,0Z" style="opacity: 1; stroke-width: 0px; fill: rgb(48, 106, 142); fill-opacity: 1;"/><path class="point" transform="translate(284.96,394.21)" d="M5,0A5,5 0 1,1 0,-5A5,5 0 0,1 5,0Z" style="opacity: 1; stroke-width: 0px; fill: rgb(47, 109, 142); fill-opacity: 1;"/><path class="point" transform="translate(277.68,393.64)" d="M5,0A5,5 0 1,1 0,-5A5,5 0 0,1 5,0Z" style="opacity: 1; stroke-width: 0px; fill: rgb(46, 111, 142); fill-opacity: 1;"/><path class="point" transform="translate(270.55,392.99)" d="M5,0A5,5 0 1,1 0,-5A5,5 0 0,1 5,0Z" style="opacity: 1; stroke-width: 0px; fill: rgb(45, 113, 142); fill-opacity: 1;"/><path class="point" transform="translate(263.59,392.25)" d="M5,0A5,5 0 1,1 0,-5A5,5 0 0,1 5,0Z" style="opacity: 1; stroke-width: 0px; fill: rgb(44, 116, 142); fill-opacity: 1;"/><path class="point" transform="translate(256.81,391.42)" d="M5,0A5,5 0 1,1 0,-5A5,5 0 0,1 5,0Z" style="opacity: 1; stroke-width: 0px; fill: rgb(43, 118, 142); fill-opacity: 1;"/><path class="point" transform="translate(250.24,390.47)" d="M5,0A5,5 0 1,1 0,-5A5,5 0 0,1 5,0Z" style="opacity: 1; stroke-width: 0px; fill: rgb(42, 121, 142); fill-opacity: 1;"/><path class="point" transform="translate(243.87,389.39)" d="M5,0A5,5 0 1,1 0,-5A5,5 0 0,1 5,0Z" style="opacity: 1; stroke-width: 0px; fill: rgb(41, 123, 142); fill-opacity: 1;"/><path class="point" transform="translate(237.75,388.16)" d="M5,0A5,5 0 1,1 0,-5A5,5 0 0,1 5,0Z" style="opacity: 1; stroke-width: 0px; fill: rgb(40, 125, 142); fill-opacity: 1;"/><path class="point" transform="translate(231.86,386.75)" d="M5,0A5,5 0 1,1 0,-5A5,5 0 0,1 5,0Z" style="opacity: 1; stroke-width: 0px; fill: rgb(39, 128, 142); fill-opacity: 1;"/><path class="point" transform="translate(226.24,385.15)" d="M5,0A5,5 0 1,1 0,-5A5,5 0 0,1 5,0Z" style="opacity: 1; stroke-width: 0px; fill: rgb(38, 130, 142); fill-opacity: 1;"/><path class="point" transform="translate(220.9,383.31)" d="M5,0A5,5 0 1,1 0,-5A5,5 0 0,1 5,0Z" style="opacity: 1; stroke-width: 0px; fill: rgb(37, 133, 142); fill-opacity: 1;"/><path class="point" transform="translate(215.85,381.19)" d="M5,0A5,5 0 1,1 0,-5A5,5 0 0,1 5,0Z" style="opacity: 1; stroke-width: 0px; fill: rgb(37, 135, 141); fill-opacity: 1;"/><path class="point" transform="translate(211.11,378.75)" d="M5,0A5,5 0 1,1 0,-5A5,5 0 0,1 5,0Z" style="opacity: 1; stroke-width: 0px; fill: rgb(36, 138, 141); fill-opacity: 1;"/><path class="point" transform="translate(206.71,375.93)" d="M5,0A5,5 0 1,1 0,-5A5,5 0 0,1 5,0Z" style="opacity: 1; stroke-width: 0px; fill: rgb(35, 140, 140); fill-opacity: 1;"/><path class="point" transform="translate(202.66,372.64)" d="M5,0A5,5 0 1,1 0,-5A5,5 0 0,1 5,0Z" style="opacity: 1; stroke-width: 0px; fill: rgb(35, 143, 140); fill-opacity: 1;"/><path class="point" transform="translate(199,368.82)" d="M5,0A5,5 0 1,1 0,-5A5,5 0 0,1 5,0Z" style="opacity: 1; stroke-width: 0px; fill: rgb(34, 145, 139); fill-opacity: 1;"/><path class="point" transform="translate(195.76,364.37)" d="M5,0A5,5 0 1,1 0,-5A5,5 0 0,1 5,0Z" style="opacity: 1; stroke-width: 0px; fill: rgb(34, 148, 139); fill-opacity: 1;"/><path class="point" transform="translate(192.97,359.19)" d="M5,0A5,5 0 1,1 0,-5A5,5 0 0,1 5,0Z" style="opacity: 1; stroke-width: 0px; fill: rgb(33, 150, 138); fill-opacity: 1;"/><path class="point" transform="translate(190.67,353.17)" d="M5,0A5,5 0 1,1 0,-5A5,5 0 0,1 5,0Z" style="opacity: 1; stroke-width: 0px; fill: rgb(32, 153, 138); fill-opacity: 1;"/><path class="point" transform="translate(188.91,346.24)" d="M5,0A5,5 0 1,1 0,-5A5,5 0 0,1 5,0Z" style="opacity: 1; stroke-width: 0px; fill: rgb(32, 155, 137); fill-opacity: 1;"/><path class="point" transform="translate(187.7,338.32)" d="M5,0A5,5 0 1,1 0,-5A5,5 0 0,1 5,0Z" style="opacity: 1; stroke-width: 0px; fill: rgb(31, 158, 137); fill-opacity: 1;"/><path class="point" transform="translate(187.07,329.42)" d="M5,0A5,5 0 1,1 0,-5A5,5 0 0,1 5,0Z" style="opacity: 1; stroke-width: 0px; fill: rgb(33, 160, 136); fill-opacity: 1;"/><path class="point" transform="translate(187.02,319.59)" d="M5,0A5,5 0 1,1 0,-5A5,5 0 0,1 5,0Z" style="opacity: 1; stroke-width: 0px; fill: rgb(35, 163, 134); fill-opacity: 1;"/><path class="point" transform="translate(187.52,308.95)" d="M5,0A5,5 0 1,1 0,-5A5,5 0 0,1 5,0Z" style="opacity: 1; stroke-width: 0px; fill: rgb(37, 165, 133); fill-opacity: 1;"/><path class="point" transform="translate(188.53,297.66)" d="M5,0A5,5 0 1,1 0,-5A5,5 0 0,1 5,0Z" style="opacity: 1; stroke-width: 0px; fill: rgb(39, 167, 131); fill-opacity: 1;"/><path class="point" transform="translate(190,285.92)" d="M5,0A5,5 0 1,1 0,-5A5,5 0 0,1 5,0Z" style="opacity: 1; stroke-width: 0px; fill: rgb(41, 169, 130); fill-opacity: 1;"/><path class="point" transform="translate(191.85,273.92)" d="M5,0A5,5 0 1,1 0,-5A5,5 0 0,1 5,0Z" style="opacity: 1; stroke-width: 0px; fill: rgb(43, 172, 128); fill-opacity: 1;"/><path class="point" transform="translate(194.04,261.84)" d="M5,0A5,5 0 1,1 0,-5A5,5 0 0,1 5,0Z" style="opacity: 1; stroke-width: 0px; fill: rgb(45, 174, 127); fill-opacity: 1;"/><path class="point" transform="translate(196.5,249.82)" d="M5,0A5,5 0 1,1 0,-5A5,5 0 0,1 5,0Z" style="opacity: 1; stroke-width: 0px; fill: rgb(47, 176, 125); fill-opacity: 1;"/><path class="point" transform="translate(199.2,237.97)" d="M5,0A5,5 0 1,1 0,-5A5,5 0 0,1 5,0Z" style="opacity: 1; stroke-width: 0px; fill: rgb(49, 178, 124); fill-opacity: 1;"/><path class="point" transform="translate(202.08,226.39)" d="M5,0A5,5 0 1,1 0,-5A5,5 0 0,1 5,0Z" style="opacity: 1; stroke-width: 0px; fill: rgb(51, 181, 122); fill-opacity: 1;"/><path class="point" transform="translate(205.11,215.13)" d="M5,0A5,5 0 1,1 0,-5A5,5 0 0,1 5,0Z" style="opacity: 1; stroke-width: 0px; fill: rgb(53, 183, 121); fill-opacity: 1;"/><path class="point" transform="translate(208.27,204.24)" d="M5,0A5,5 0 1,1 0,-5A5,5 0 0,1 5,0Z" style="opacity: 1; stroke-width: 0px; fill: rgb(58, 185, 118); fill-opacity: 1;"/><path class="point" transform="translate(211.53,193.75)" d="M5,0A5,5 0 1,1 0,-5A5,5 0 0,1 5,0Z" style="opacity: 1; stroke-width: 0px; fill: rgb(63, 187, 115); fill-opacity: 1;"/><path class="point" transform="translate(214.88,183.66)" d="M5,0A5,5 0 1,1 0,-5A5,5 0 0,1 5,0Z" style="opacity: 1; stroke-width: 0px; fill: rgb(69, 189, 112); fill-opacity: 1;"/><path class="point" transform="translate(218.3,173.98)" d="M5,0A5,5 0 1,1 0,-5A5,5 0 0,1 5,0Z" style="opacity: 1; stroke-width: 0px; fill: rgb(74, 191, 109); fill-opacity: 1;"/><path class="point" transform="translate(221.78,164.72)" d="M5,0A5,5 0 1,1 0,-5A5,5 0 0,1 5,0Z" style="opacity: 1; stroke-width: 0px; fill: rgb(79, 193, 106); fill-opacity: 1;"/><path class="point" transform="translate(225.31,155.85)" d="M5,0A5,5 0 1,1 0,-5A5,5 0 0,1 5,0Z" style="opacity: 1; stroke-width: 0px; fill: rgb(84, 196, 103); fill-opacity: 1;"/><path class="point" transform="translate(228.88,147.39)" d="M5,0A5,5 0 1,1 0,-5A5,5 0 0,1 5,0Z" style="opacity: 1; stroke-width: 0px; fill: rgb(89, 198, 100); fill-opacity: 1;"/><path class="point" transform="translate(232.49,139.31)" d="M5,0A5,5 0 1,1 0,-5A5,5 0 0,1 5,0Z" style="opacity: 1; stroke-width: 0px; fill: rgb(94, 200, 97); fill-opacity: 1;"/><path class="point" transform="translate(236.13,131.61)" d="M5,0A5,5 0 1,1 0,-5A5,5 0 0,1 5,0Z" style="opacity: 1; stroke-width: 0px; fill: rgb(100, 202, 94); fill-opacity: 1;"/><path class="point" transform="translate(239.79,124.27)" d="M5,0A5,5 0 1,1 0,-5A5,5 0 0,1 5,0Z" style="opacity: 1; stroke-width: 0px; fill: rgb(105, 204, 91); fill-opacity: 1;"/><path class="point" transform="translate(243.48,117.27)" d="M5,0A5,5 0 1,1 0,-5A5,5 0 0,1 5,0Z" style="opacity: 1; stroke-width: 0px; fill: rgb(110, 206, 88); fill-opacity: 1;"/><path class="point" transform="translate(247.18,110.61)" d="M5,0A5,5 0 1,1 0,-5A5,5 0 0,1 5,0Z" style="opacity: 1; stroke-width: 0px; fill: rgb(116, 207, 84); fill-opacity: 1;"/><path class="point" transform="translate(250.9,104.27)" d="M5,0A5,5 0 1,1 0,-5A5,5 0 0,1 5,0Z" style="opacity: 1; stroke-width: 0px; fill: rgb(123, 209, 80); fill-opacity: 1;"/><path class="point" transform="translate(254.64,98.24)" d="M5,0A5,5 0 1,1 0,-5A5,5 0 0,1 5,0Z" style="opacity: 1; stroke-width: 0px; fill: rgb(129, 210, 76); fill-opacity: 1;"/><path class="point" transform="translate(258.38,92.5)" d="M5,0A5,5 0 1,1 0,-5A5,5 0 0,1 5,0Z" style="opacity: 1; stroke-width: 0px; fill: rgb(136, 212, 72); fill-opacity: 1;"/><path class="point" transform="translate(262.14,87.04)" d="M5,0A5,5 0 1,1 0,-5A5,5 0 0,1 5,0Z" style="opacity: 1; stroke-width: 0px; fill: rgb(142, 213, 68); fill-opacity: 1;"/><path class="point" transform="translate(265.9,81.86)" d="M5,0A5,5 0 1,1 0,-5A5,5 0 0,1 5,0Z" style="opacity: 1; stroke-width: 0px; fill: rgb(149, 215, 63); fill-opacity: 1;"/><path class="point" transform="translate(269.67,76.93)" d="M5,0A5,5 0 1,1 0,-5A5,5 0 0,1 5,0Z" style="opacity: 1; stroke-width: 0px; fill: rgb(155, 216, 59); fill-opacity: 1;"/><path class="point" transform="translate(273.45,72.24)" d="M5,0A5,5 0 1,1 0,-5A5,5 0 0,1 5,0Z" style="opacity: 1; stroke-width: 0px; fill: rgb(162, 218, 55); fill-opacity: 1;"/><path class="point" transform="translate(277.23,67.8)" d="M5,0A5,5 0 1,1 0,-5A5,5 0 0,1 5,0Z" style="opacity: 1; stroke-width: 0px; fill: rgb(168, 219, 51); fill-opacity: 1;"/><path class="point" transform="translate(281.01,63.58)" d="M5,0A5,5 0 1,1 0,-5A5,5 0 0,1 5,0Z" style="opacity: 1; stroke-width: 0px; fill: rgb(175, 221, 47); fill-opacity: 1;"/><path class="point" transform="translate(284.8,59.57)" d="M5,0A5,5 0 1,1 0,-5A5,5 0 0,1 5,0Z" style="opacity: 1; stroke-width: 0px; fill: rgb(181, 222, 43); fill-opacity: 1;"/><path class="point" transform="translate(288.59,55.78)" d="M5,0A5,5 0 1,1 0,-5A5,5 0 0,1 5,0Z" style="opacity: 1; stroke-width: 0px; fill: rgb(188, 223, 42); fill-opacity: 1;"/><path class="point" transform="translate(292.38,52.18)" d="M5,0A5,5 0 1,1 0,-5A5,5 0 0,1 5,0Z" style="opacity: 1; stroke-width: 0px; fill: rgb(194, 224, 42); fill-opacity: 1;"/><path class="point" transform="translate(296.17,48.77)" d="M5,0A5,5 0 1,1 0,-5A5,5 0 0,1 5,0Z" style="opacity: 1; stroke-width: 0px; fill: rgb(201, 224, 41); fill-opacity: 1;"/><path class="point" transform="translate(299.96,45.55)" d="M5,0A5,5 0 1,1 0,-5A5,5 0 0,1 5,0Z" style="opacity: 1; stroke-width: 0px; fill: rgb(207, 225, 41); fill-opacity: 1;"/><path class="point" transform="translate(303.76,42.5)" d="M5,0A5,5 0 1,1 0,-5A5,5 0 0,1 5,0Z" style="opacity: 1; stroke-width: 0px; fill: rgb(214, 226, 40); fill-opacity: 1;"/><path class="point" transform="translate(307.55,39.62)" d="M5,0A5,5 0 1,1 0,-5A5,5 0 0,1 5,0Z" style="opacity: 1; stroke-width: 0px; fill: rgb(220, 227, 40); fill-opacity: 1;"/><path class="point" transform="translate(311.34,36.9)" d="M5,0A5,5 0 1,1 0,-5A5,5 0 0,1 5,0Z" style="opacity: 1; stroke-width: 0px; fill: rgb(227, 228, 39); fill-opacity: 1;"/><path class="point" transform="translate(315.13,34.33)" d="M5,0A5,5 0 1,1 0,-5A5,5 0 0,1 5,0Z" style="opacity: 1; stroke-width: 0px; fill: rgb(233, 229, 39); fill-opacity: 1;"/><path class="point" transform="translate(318.91,31.91)" d="M5,0A5,5 0 1,1 0,-5A5,5 0 0,1 5,0Z" style="opacity: 1; stroke-width: 0px; fill: rgb(240, 229, 38); fill-opacity: 1;"/><path class="point" transform="translate(322.7,29.64)" d="M5,0A5,5 0 1,1 0,-5A5,5 0 0,1 5,0Z" style="opacity: 1; stroke-width: 0px; fill: rgb(246, 230, 38); fill-opacity: 1;"/><path class="point" transform="translate(326.48,27.5)" d="M5,0A5,5 0 1,1 0,-5A5,5 0 0,1 5,0Z" style="opacity: 1; stroke-width: 0px; fill: rgb(253, 231, 37); fill-opacity: 1;"/></g><g class="text"/></g></g></g></g><path class="xlines-above crisp" d="M46.5,455.25H611.5M46.5,29.75H611.5" style="fill: none; stroke-width: 0.5px; stroke: rgb(0, 0, 0); stroke-opacity: 1;"/><path class="ylines-above crisp" d="M46.75,30V455M611.25,30V455" style="fill: none; stroke-width: 0.5px; stroke: rgb(0, 0, 0); stroke-opacity: 1;"/><g class="overlines-above"/><g class="xaxislayer-above"><path class="xtick ticks crisp" d="M0,455v-5" transform="translate(68.86,0)" style="stroke: rgb(0, 0, 0); stroke-opacity: 1; stroke-width: 0.5px;"/><path class="xtick ticks crisp" d="M0,455v-5" transform="translate(170.4,0)" style="stroke: rgb(0, 0, 0); stroke-opacity: 1; stroke-width: 0.5px;"/><path class="xtick ticks crisp" d="M0,455v-5" transform="translate(271.94,0)" style="stroke: rgb(0, 0, 0); stroke-opacity: 1; stroke-width: 0.5px;"/><path class="xtick ticks crisp" d="M0,455v-5" transform="translate(373.47,0)" style="stroke: rgb(0, 0, 0); stroke-opacity: 1; stroke-width: 0.5px;"/><path class="xtick ticks crisp" d="M0,455v-5" transform="translate(475.01,0)" style="stroke: rgb(0, 0, 0); stroke-opacity: 1; stroke-width: 0.5px;"/><path class="xtick ticks crisp" d="M0,455v-5" transform="translate(576.55,0)" style="stroke: rgb(0, 0, 0); stroke-opacity: 1; stroke-width: 0.5px;"/><g class="xtick"><text text-anchor="middle" x="0" y="473.5" transform="translate(68.86,0)" style="font-family: 'Open Sans', verdana, arial, sans-serif; font-size: 15px; fill: rgb(0, 0, 0); fill-opacity: 1; white-space: pre; opacity: 1;">0</text></g><g class="xtick"><text text-anchor="middle" x="0" y="473.5" style="font-family: 'Open Sans', verdana, arial, sans-serif; font-size: 15px; fill: rgb(0, 0, 0); fill-opacity: 1; white-space: pre; opacity: 1;" transform="translate(170.4,0)">0.2</text></g><g class="xtick"><text text-anchor="middle" x="0" y="473.5" style="font-family: 'Open Sans', verdana, arial, sans-serif; font-size: 15px; fill: rgb(0, 0, 0); fill-opacity: 1; white-space: pre; opacity: 1;" transform="translate(271.94,0)">0.4</text></g><g class="xtick"><text text-anchor="middle" x="0" y="473.5" style="font-family: 'Open Sans', verdana, arial, sans-serif; font-size: 15px; fill: rgb(0, 0, 0); fill-opacity: 1; white-space: pre; opacity: 1;" transform="translate(373.47,0)">0.6</text></g><g class="xtick"><text text-anchor="middle" x="0" y="473.5" style="font-family: 'Open Sans', verdana, arial, sans-serif; font-size: 15px; fill: rgb(0, 0, 0); fill-opacity: 1; white-space: pre; opacity: 1;" transform="translate(475.01,0)">0.8</text></g><g class="xtick"><text text-anchor="middle" x="0" y="473.5" style="font-family: 'Open Sans', verdana, arial, sans-serif; font-size: 15px; fill: rgb(0, 0, 0); fill-opacity: 1; white-space: pre; opacity: 1;" transform="translate(576.55,0)">1</text></g></g><g class="yaxislayer-above"><path class="ytick ticks crisp" d="M47,0h5" transform="translate(0,449.84)" style="stroke: rgb(0, 0, 0); stroke-opacity: 1; stroke-width: 0.5px;"/><path class="ytick ticks crisp" d="M47,0h5" transform="translate(0,371.37)" style="stroke: rgb(0, 0, 0); stroke-opacity: 1; stroke-width: 0.5px;"/><path class="ytick ticks crisp" d="M47,0h5" transform="translate(0,292.9)" style="stroke: rgb(0, 0, 0); stroke-opacity: 1; stroke-width: 0.5px;"/><path class="ytick ticks crisp" d="M47,0h5" transform="translate(0,214.43)" style="stroke: rgb(0, 0, 0); stroke-opacity: 1; stroke-width: 0.5px;"/><path class="ytick ticks crisp" d="M47,0h5" transform="translate(0,135.97)" style="stroke: rgb(0, 0, 0); stroke-opacity: 1; stroke-width: 0.5px;"/><path class="ytick ticks crisp" d="M47,0h5" transform="translate(0,57.5)" style="stroke: rgb(0, 0, 0); stroke-opacity: 1; stroke-width: 0.5px;"/><g class="ytick"><text text-anchor="end" x="43.5" y="5.25" transform="translate(0,449.84)" style="font-family: 'Open Sans', verdana, arial, sans-serif; font-size: 15px; fill: rgb(0, 0, 0); fill-opacity: 1; white-space: pre; opacity: 1;">0</text></g><g class="ytick"><text text-anchor="end" x="43.5" y="5.25" style="font-family: 'Open Sans', verdana, arial, sans-serif; font-size: 15px; fill: rgb(0, 0, 0); fill-opacity: 1; white-space: pre; opacity: 1;" transform="translate(0,371.37)">0.2</text></g><g class="ytick"><text text-anchor="end" x="43.5" y="5.25" style="font-family: 'Open Sans', verdana, arial, sans-serif; font-size: 15px; fill: rgb(0, 0, 0); fill-opacity: 1; white-space: pre; opacity: 1;" transform="translate(0,292.9)">0.4</text></g><g class="ytick"><text text-anchor="end" x="43.5" y="5.25" style="font-family: 'Open Sans', verdana, arial, sans-serif; font-size: 15px; fill: rgb(0, 0, 0); fill-opacity: 1; white-space: pre; opacity: 1;" transform="translate(0,214.43)">0.6</text></g><g class="ytick"><text text-anchor="end" x="43.5" y="5.25" style="font-family: 'Open Sans', verdana, arial, sans-serif; font-size: 15px; fill: rgb(0, 0, 0); fill-opacity: 1; white-space: pre; opacity: 1;" transform="translate(0,135.97)">0.8</text></g><g class="ytick"><text text-anchor="end" x="43.5" y="5.25" style="font-family: 'Open Sans', verdana, arial, sans-serif; font-size: 15px; fill: rgb(0, 0, 0); fill-opacity: 1; white-space: pre; opacity: 1;" transform="translate(0,57.5)">1</text></g></g><g class="overaxes-above"/></g></g><g class="polarlayer"/><g class="smithlayer"/><g class="ternarylayer"/><g class="geolayer"/><g class="funnelarealayer"/><g class="pielayer"/><g class="iciclelayer"/><g class="treemaplayer"/><g class="sunburstlayer"/><g class="glimages"/><defs id="topdefs-f0c17b"><g class="clips"/><clipPath id="legendf0c17b"><rect width="66" height="55" x="0" y="0"/></clipPath></defs><g class="layer-above"><g class="imagelayer"/><g class="shapelayer"/></g><g class="infolayer"><g class="legend" pointer-events="all" transform="translate(622.28,30)"><rect class="bg" shape-rendering="crispEdges" style="stroke: rgb(68, 68, 68); stroke-opacity: 1; fill: rgb(255, 255, 255); fill-opacity: 1; stroke-width: 0px;" width="66" height="55" x="0" y="0"/><g class="scrollbox" transform="" clip-path="url(#legendf0c17b)"><g class="groups"><g class="traces" transform="translate(0,16.25)" style="opacity: 1;"><text class="legendtext" text-anchor="start" x="40" y="5.85" style="font-family: 'Open Sans', verdana, arial, sans-serif; font-size: 15px; fill: rgb(0, 0, 0); fill-opacity: 1; white-space: pre;">At</text><g class="layers" style="opacity: 1;"><g class="legendfill"/><g class="legendlines"/><g class="legendsymbols"><g class="legendpoints"><path class="scatterpts" transform="translate(20,0)" d="M-5.77,2.5H5.77L0,-5Z" style="opacity: 1; stroke-width: 0px; fill: rgb(68, 1, 84); fill-opacity: 1;"/></g></g></g><rect class="legendtoggle" x="0" y="-11.25" width="60.03125" height="22.5" style="fill: rgb(0, 0, 0); fill-opacity: 0;"/></g><g class="traces" transform="translate(0,38.75)" style="opacity: 1;"><text class="legendtext" text-anchor="start" x="40" y="5.85" style="font-family: 'Open Sans', verdana, arial, sans-serif; font-size: 15px; fill: rgb(0, 0, 0); fill-opacity: 1; white-space: pre;">Oa</text><g class="layers" style="opacity: 1;"><g class="legendfill"/><g class="legendlines"/><g class="legendsymbols"><g class="legendpoints"><path class="scatterpts" transform="translate(20,0)" d="M5,0A5,5 0 1,1 0,-5A5,5 0 0,1 5,0Z" style="opacity: 1; stroke-width: 0px; fill: rgb(68, 1, 84); fill-opacity: 1;"/></g></g></g><rect class="legendtoggle" x="0" y="-11.25" width="60.03125" height="22.5" style="fill: rgb(0, 0, 0); fill-opacity: 0;"/></g></g></g><rect class="scrollbar" rx="20" ry="3" width="0" height="0" style="fill: rgb(128, 139, 164); fill-opacity: 1;" x="0" y="0"/></g><g class="cb748f18 colorbar" transform="translate(47,30)"><rect class="cbbg" x="574.5" y="96" width="56.578125" height="235" style="fill: rgb(0, 0, 0); fill-opacity: 0; stroke: rgb(68, 68, 68); stroke-opacity: 1; stroke-width: 0;"/><g class="cbfills" transform="translate(0,135)"><rect class="cbfill gradient_filled" style="fill: url('#gf0c17b-cb748f18');" x="585" y="0" width="14" height="185"/></g><g class="cblines" transform="translate(0,135)"/><g class="cbaxis crisp" transform="translate(0,-30)"><g class="ycb748f18tick"><text text-anchor="start" x="603" y="5.25" transform="translate(0,349.5)" style="font-family: 'Open Sans', verdana, arial, sans-serif; font-size: 15px; fill: rgb(0, 0, 0); fill-opacity: 1; white-space: pre; opacity: 1;">0</text></g><g class="ycb748f18tick"><text text-anchor="start" x="603" y="5.25" style="font-family: 'Open Sans', verdana, arial, sans-serif; font-size: 15px; fill: rgb(0, 0, 0); fill-opacity: 1; white-space: pre; opacity: 1;" transform="translate(0,312.5)">0.2</text></g><g class="ycb748f18tick"><text text-anchor="start" x="603" y="5.25" style="font-family: 'Open Sans', verdana, arial, sans-serif; font-size: 15px; fill: rgb(0, 0, 0); fill-opacity: 1; white-space: pre; opacity: 1;" transform="translate(0,275.5)">0.4</text></g><g class="ycb748f18tick"><text text-anchor="start" x="603" y="5.25" style="font-family: 'Open Sans', verdana, arial, sans-serif; font-size: 15px; fill: rgb(0, 0, 0); fill-opacity: 1; white-space: pre; opacity: 1;" transform="translate(0,238.50000000000003)">0.6</text></g><g class="ycb748f18tick"><text text-anchor="start" x="603" y="5.25" style="font-family: 'Open Sans', verdana, arial, sans-serif; font-size: 15px; fill: rgb(0, 0, 0); fill-opacity: 1; white-space: pre; opacity: 1;" transform="translate(0,201.50000000000003)">0.8</text></g><g class="ycb748f18tick"><text text-anchor="start" x="603" y="5.25" style="font-family: 'Open Sans', verdana, arial, sans-serif; font-size: 15px; fill: rgb(0, 0, 0); fill-opacity: 1; white-space: pre; opacity: 1;" transform="translate(0,164.50000000000003)">1</text></g></g><g class="cbtitleunshift" transform="translate(-47,-30)"><g class="cbtitle" transform="translate(-0.5,-0.5)"><text class="ycb748f18title" x="632.28" y="152" text-anchor="start" style="opacity: 1; font-family: 'Open Sans', verdana, arial, sans-serif; font-size: 18px; fill: rgb(0, 0, 0); fill-opacity: 1; white-space: pre;">a</text></g></g><rect class="cboutline" x="585" y="135" width="14" height="185" style="stroke: rgb(68, 68, 68); stroke-opacity: 1; fill: none; stroke-width: 1;"/></g><g class="g-gtitle"><text class="gtitle" x="35" y="15" text-anchor="start" dy="0em" style="opacity: 1; font-family: 'Open Sans', verdana, arial, sans-serif; font-size: 15px; fill: rgb(0, 0, 0); fill-opacity: 1; white-space: pre;">Mono-culture</text></g><g class="g-xtitle" transform="translate(0,5.75)"><text class="xtitle" x="329" y="487.75" text-anchor="middle" style="opacity: 1; font-family: 'Open Sans', verdana, arial, sans-serif; font-size: 15px; fill: rgb(0, 0, 0); fill-opacity: 1; white-space: pre;">Succinate [mM]</text></g><g class="g-ytitle"><text class="ytitle" transform="rotate(-90,17.34375,242.5)" x="17.34375" y="242.5" text-anchor="middle" style="opacity: 1; font-family: 'Open Sans', verdana, arial, sans-serif; font-size: 15px; fill: rgb(0, 0, 0); fill-opacity: 1; white-space: pre;">Glucose [mM]</text></g></g></svg>