<svg class="main-svg" xmlns="http://www.w3.org/2000/svg" xmlns:xlink="http://www.w3.org/1999/xlink" width="600" height="400" style="" viewBox="0 0 600 400"><rect x="0" y="0" width="600" height="400" style="fill: rgb(255, 255, 255); fill-opacity: 1;"/><defs id="defs-1f3bbd"><g class="clips"><clipPath id="clip1f3bbdxyplot" class="plotclip"><rect width="442" height="334"/></clipPath><clipPath class="axesclip" id="clip1f3bbdx"><rect x="48" y="0" width="442" height="400"/></clipPath><clipPath class="axesclip" id="clip1f3bbdy"><rect x="0" y="30" width="600" height="334"/></clipPath><clipPath class="axesclip" id="clip1f3bbdxy"><rect x="48" y="30" width="442" height="334"/></clipPath></g><g class="gradients"/><g class="patterns"/></defs><g class="bglayer"/><g class="layer-below"><g class="imagelayer"/><g class="shapelayer"/></g><g class="cartesianlayer"><g class="subplot xy"><g class="layer-subplot"><g class="shapelayer"/><g class="imagelayer"/></g><g class="minor-gridlayer"><g class="x"/><g class="y"/></g><g class="gridlayer"><g class="x"><path class="xgrid crisp" transform="translate(158.5,0)" d="M0,30v334" style="stroke: rgb(128, 128, 128); stroke-opacity: 1; stroke-width: 0.2px;"/><path class="xgrid crisp" transform="translate(269,0)" d="M0,30v334" style="stroke: rgb(128, 128, 128); stroke-opacity: 1; stroke-width: 0.2px;"/><path class="xgrid crisp" transform="translate(379.5,0)" d="M0,30v334" style="stroke: rgb(128, 128, 128); stroke-opacity: 1; stroke-width: 0.2px;"/></g><g class="y"><path class="ygrid crisp" transform="translate(0,306.37)" d="M48,0h442" style="stroke: rgb(128, 128, 128); stroke-opacity: 1; stroke-width: 0.2px;"/><path class="ygrid crisp" transform="translate(0,246.25)" d="M48,0h442" style="stroke: rgb(128, 128, 128); stroke-opacity: 1; stroke-width: 0.2px;"/><path class="ygrid crisp" transform="translate(0,186.12)" d="M48,0h442" style="stroke: rgb(128, 128, 128); stroke-opacity: 1; stroke-width: 0.2px;"/><path class="ygrid crisp" transform="translate(0,126)" d="M48,0h442" style="stroke: rgb(128, 128, 128); stroke-opacity: 1; stroke-width: 0.2px;"/><path class="ygrid crisp" transform="translate(0,65.87)" d="M48,0h442" style="stroke: rgb(128, 128, 128); stroke-opacity: 1; stroke-width: 0.2px;"/></g></g><g class="zerolinelayer"/><g class="layer-between"><g class="shapelayer"/><g class="imagelayer"/></g><path class="xlines-below"/><path class="ylines-below"/><g class="overlines-below"/><g class="xaxislayer-below"/><g class="yaxislayer-below"/><g class="overaxes-below"/><g class="overplot"><g class="xy" transform="translate(48,30)" clip-path="url(#clip1f3bbdxyplot)"><g class="scatterlayer mlayer"><g class="trace scatter trace7bd65b" style="stroke-miterlimit: 2; opacity: 1;"><g class="fills"/><g class="errorbars"/><g class="lines"><path class="js-line" d="M0,7014L2.9599211268298675,7014L2.96,98.99L3.85,64.27L3.89,64.02L5.3,60.17L5.35,60.09L15.43,40.67L15.47,40.58L25.2,22.47L25.24,22.42L29.09,18.52L29.13,18.49L32.31,16.99L32.36,16.98L36.29,16.81L36.34,16.82L41.99,18.56L42.04,18.58L48.89,22.04L48.93,22.07L59.94,28.41L59.99,28.44L95.39,49.35L95.44,49.37L130.98,70.37L131.02,70.39L166.69,91.47L166.74,91.49L202.19,112.44L202.24,112.46L237.91,133.54L237.95,133.56L281.63,159.38L281.67,159.41L305.01,173.23L305.05,173.26L339.36,193.72L339.4,193.75L358.72,205.34L358.76,205.37L377.02,216.66L377.06,216.69L428.87,250.37L428.92,250.41L435.9,256.02L435.94,256.06L441.96,263.13L442,263.19" style="vector-effect: none; fill: none; stroke: rgb(99, 110, 250); stroke-opacity: 1; stroke-width: 1.5px; opacity: 1;"/></g><g class="points"/><g class="text"/></g><g class="trace scatter tracec3afa6" style="stroke-miterlimit: 2; opacity: 1;"><g class="fills"/><g class="errorbars"/><g class="lines"><path class="js-line" d="M0,23.91L1.55,92.36L1.59,108.07L1.5914769338785983,7014L0,7014L20.075193933769437,7013.999999999534L20.11,125.71L20.16,124.9L22.06,102.35L22.1,101.94L23.96,92.56L24,92.47L26.96,88.7L27.01,88.66L30.28,86.44L30.32,86.42L34.04,85.77L34.08,85.77L38.46,86.75L38.5,86.77L44.12,89.43L44.16,89.45L66.4,102.26L66.44,102.28L121.34,131.93L121.39,131.95L133.1,138.28L133.14,138.3L164.75,155.5L164.79,155.52L195.07,171.96L195.12,171.98L198.92,174.25L198.96,174.28L225.35,188.86L225.4,188.88L230.75,192.35L230.79,192.39L233.05,193.74L233.09,193.75L234.81,193.48L234.86,193.45L236.8,192.86L236.85,192.86L238.66,193.58L238.7,193.63L244.14,199.02L244.19,199.05L247.19,200.25L247.24,200.25L251.52,200.79L251.57,200.82L253.11,203.06L253.16,203.16L254.93,205.76L254.97,205.8L257.71,207.68L257.76,207.68L260.5,208.26L260.54,208.28L264.56,210.64L264.61,210.67L289.23,224.54L289.27,224.57L302.84,232.19L302.89,232.22L365.44,267.82L365.48,267.85L387.81,281.11L387.85,281.14L409.38,293.95L409.42,293.98L422.2,301.93L422.24,301.96L438.11,313.46L438.15,313.5L442,317.3" style="vector-effect: none; fill: none; stroke: rgb(239, 85, 59); stroke-opacity: 1; stroke-width: 1.5px; opacity: 1;"/></g><g class="points"/><g class="text"/></g></g></g></g><path class="xlines-above crisp" d="M47.5,364.25H490.5M47.5,29.75H490.5" style="fill: none; stroke-width: 0.5px; stroke: rgb(0, 0, 0); stroke-opacity: 1;"/><path class="ylines-above crisp" d="M47.75,30V364M490.25,30V364" style="fill: none; stroke-width: 0.5px; stroke: rgb(0, 0, 0); stroke-opacity: 1;"/><g class="overlines-above"/><g class="xaxislayer-above"><path class="xtick ticks crisp" d="M0,364v-5" transform="translate(158.5,0)" style="stroke: rgb(0, 0, 0); stroke-opacity: 1; stroke-width: 0.5px;"/><path class="xtick ticks crisp" d="M0,364v-5" transform="translate(269,0)" style="stroke: rgb(0, 0, 0); stroke-opacity: 1; stroke-width: 0.5px;"/><path class="xtick ticks crisp" d="M0,364v-5" transform="translate(379.5,0)" style="stroke: rgb(0, 0, 0); stroke-opacity: 1; stroke-width: 0.5px;"/><g class="xtick"><text text-anchor="middle" x="0" y="377.7" transform="translate(48,0)" style="font-family: 'Open Sans', verdana, arial, sans-serif; font-size: 11px; fill: rgb(0, 0, 0); fill-opacity: 1; white-space: pre; opacity: 1;">0</text></g><g class="xtick"><text text-anchor="middle" x="0" y="377.7" style="font-family: 'Open Sans', verdana, arial, sans-serif; font-size: 11px; fill: rgb(0, 0, 0); fill-opacity: 1; white-space: pre; opacity: 1;" transform="translate(158.5,0)">50</text></g><g class="xtick"><text text-anchor="middle" x="0" y="377.7" style="font-family: 'Open Sans', verdana, arial, sans-serif; font-size: 11px; fill: rgb(0, 0, 0); fill-opacity: 1; white-space: pre; opacity: 1;" transform="translate(269,0)">100</text></g><g class="xtick"><text text-anchor="middle" x="0" y="377.7" style="font-family: 'Open Sans', verdana, arial, sans-serif; font-size: 11px; fill: rgb(0, 0, 0); fill-opacity: 1; white-space: pre; opacity: 1;" transform="translate(379.5,0)">150</text></g><g class="xtick"><text text-anchor="middle" x="0" y="377.7" style="font-family: 'Open Sans', verdana, arial, sans-serif; font-size: 11px; fill: rgb(0, 0, 0); fill-opacity: 1; white-space: pre; opacity: 1;" transform="translate(490,0)">200</text></g></g><g class="yaxislayer-above"><path class="ytick ticks crisp" d="M48,0h5" transform="translate(0,306.37)" style="stroke: rgb(0, 0, 0); stroke-opacity: 1; stroke-width: 0.5px;"/><path class="ytick ticks crisp" d="M48,0h5" transform="translate(0,246.25)" style="stroke: rgb(0, 0, 0); stroke-opacity: 1; stroke-width: 0.5px;"/><path class="ytick ticks crisp" d="M48,0h5" transform="translate(0,186.12)" style="stroke: rgb(0, 0, 0); stroke-opacity: 1; stroke-width: 0.5px;"/><path class="ytick ticks crisp" d="M48,0h5" transform="translate(0,126)" style="stroke: rgb(0, 0, 0); stroke-opacity: 1; stroke-width: 0.5px;"/><path class="ytick ticks crisp" d="M48,0h5" transform="translate(0,65.87)" style="stroke: rgb(0, 0, 0); stroke-opacity: 1; stroke-width: 0.5px;"/><g class="ytick"><text text-anchor="end" x="45.3" y="3.8499999999999996" transform="translate(0,306.37)" style="font-family: 'Open Sans', verdana, arial, sans-serif; font-size: 11px; fill: rgb(0, 0, 0); fill-opacity: 1; white-space: pre; opacity: 1;">100p</text></g><g class="ytick"><text text-anchor="end" x="45.3" y="3.8499999999999996" style="font-family: 'Open Sans', verdana, arial, sans-serif; font-size: 11px; fill: rgb(0, 0, 0); fill-opacity: 1; white-space: pre; opacity: 1;" transform="translate(0,246.25)">10n</text></g><g class="ytick"><text text-anchor="end" x="45.3" y="3.8499999999999996" style="font-family: 'Open Sans', verdana, arial, sans-serif; font-size: 11px; fill: rgb(0, 0, 0); fill-opacity: 1; white-space: pre; opacity: 1;" transform="translate(0,186.12)">1μ</text></g><g class="ytick"><text text-anchor="end" x="45.3" y="3.8499999999999996" style="font-family: 'Open Sans', verdana, arial, sans-serif; font-size: 11px; fill: rgb(0, 0, 0); fill-opacity: 1; white-space: pre; opacity: 1;" transform="translate(0,126)">100μ</text></g><g class="ytick"><text text-anchor="end" x="45.3" y="3.8499999999999996" style="font-family: 'Open Sans', verdana, arial, sans-serif; font-size: 11px; fill: rgb(0, 0, 0); fill-opacity: 1; white-space: pre; opacity: 1;" transform="translate(0,65.87)">0.01</text></g></g><g class="overaxes-above"/></g></g><g class="polarlayer"/><g class="smithlayer"/><g class="ternarylayer"/><g class="geolayer"/><g class="funnelarealayer"/><g class="pielayer"/><g class="iciclelayer"/><g class="treemaplayer"/><g class="sunburstlayer"/><g class="glimages"/><defs id="topdefs-1f3bbd"><g class="clips"/><clipPath id="legend1f3bbd"><rect width="89" height="48" x="0" y="0"/></clipPath></defs><g class="layer-above"><g class="imagelayer"/><g class="shapelayer"/></g><g class="infolayer"><g class="legend" pointer-events="all" transform="translate(498.84000000000003,30)"><rect class="bg" shape-rendering="crispEdges" width="89" height="48" x="0" y="0" style="stroke: rgb(68, 68, 68); stroke-opacity: 1; fill: rgb(255, 255, 255); fill-opacity: 1; stroke-width: 0px;"/><g class="scrollbox" transform="" clip-path="url(#legend1f3bbd)"><g class="groups"><g class="traces" transform="translate(0,14.5)" style="opacity: 1;"><text class="legendtext" text-anchor="start" x="40" y="4.29" style="font-family: 'Open Sans', verdana, arial, sans-serif; font-size: 11px; fill: rgb(0, 0, 0); fill-opacity: 1; white-space: pre;">dCefoC1</text><g class="layers" style="opacity: 1;"><g class="legendfill"/><g class="legendlines"><path class="js-line" d="M5,0h30" style="fill: none; stroke: rgb(99, 110, 250); stroke-opacity: 1; stroke-width: 1.5px;"/></g><g class="legendsymbols"><g class="legendpoints"/></g></g><rect class="legendtoggle" x="0" y="-9.5" width="83.453125" height="19" style="fill: rgb(0, 0, 0); fill-opacity: 0;"/></g><g class="traces" transform="translate(0,33.5)" style="opacity: 1;"><text class="legendtext" text-anchor="start" x="40" y="4.29" style="font-family: 'Open Sans', verdana, arial, sans-serif; font-size: 11px; fill: rgb(0, 0, 0); fill-opacity: 1; white-space: pre;">dCefoC2</text><g class="layers" style="opacity: 1;"><g class="legendfill"/><g class="legendlines"><path class="js-line" d="M5,0h30" style="fill: none; stroke: rgb(239, 85, 59); stroke-opacity: 1; stroke-width: 1.5px;"/></g><g class="legendsymbols"><g class="legendpoints"/></g></g><rect class="legendtoggle" x="0" y="-9.5" width="83.453125" height="19" style="fill: rgb(0, 0, 0); fill-opacity: 0;"/></g></g></g><rect class="scrollbar" rx="20" ry="3" width="0" height="0" x="0" y="0" style="fill: rgb(128, 139, 164); fill-opacity: 1;"/></g><g class="g-gtitle"/><g class="g-xtitle" transform="translate(0,4.550000000000011)"><text class="xtitle" x="269" y="388.153125" text-anchor="middle" style="opacity: 1; font-family: 'Open Sans', verdana, arial, sans-serif; font-size: 11px; fill: rgb(0, 0, 0); fill-opacity: 1; white-space: pre;">Time</text></g><g class="g-ytitle"><text class="ytitle" transform="rotate(-90,16.009375,197)" x="16.009375" y="197" text-anchor="middle" style="opacity: 1; font-family: 'Open Sans', verdana, arial, sans-serif; font-size: 11px; fill: rgb(0, 0, 0); fill-opacity: 1; white-space: pre;">Change in Concentration [uM/h]</text></g></g></svg>