<svg class="main-svg" xmlns="http://www.w3.org/2000/svg" xmlns:xlink="http://www.w3.org/1999/xlink" width="380" height="200" style="" viewBox="0 0 380 200"><rect x="0" y="0" width="380" height="200" style="fill: rgb(255, 255, 255); fill-opacity: 1;"/><defs id="defs-128007"><g class="clips"><clipPath id="clip128007xyplot" class="plotclip"><rect width="137.25" height="134"/></clipPath><clipPath id="clip128007x2y2plot" class="plotclip"><rect width="137.25" height="134"/></clipPath><clipPath class="axesclip" id="clip128007x"><rect x="45" y="0" width="137.25" height="200"/></clipPath><clipPath class="axesclip" id="clip128007y"><rect x="0" y="30" width="380" height="134"/></clipPath><clipPath class="axesclip" id="clip128007xy"><rect x="45" y="30" width="137.25" height="134"/></clipPath><clipPath class="axesclip" id="clip128007y2"><rect x="0" y="30" width="380" height="134"/></clipPath><clipPath class="axesclip" id="clip128007xy2"><rect x="45" y="30" width="137.25" height="134"/></clipPath><clipPath class="axesclip" id="clip128007x2"><rect x="212.75" y="0" width="137.25" height="200"/></clipPath><clipPath class="axesclip" id="clip128007x2y"><rect x="212.75" y="30" width="137.25" height="134"/></clipPath><clipPath class="axesclip" id="clip128007x2y2"><rect x="212.75" y="30" width="137.25" height="134"/></clipPath></g><g class="gradients"/><g class="patterns"/></defs><g class="bglayer"/><g class="layer-below"><g class="imagelayer"/><g class="shapelayer"/></g><g class="cartesianlayer"><g class="subplot xy"><g class="layer-subplot"><g class="shapelayer"/><g class="imagelayer"/></g><g class="minor-gridlayer"><g class="x"/><g class="y"/></g><g class="gridlayer"><g class="x"><path class="xgrid crisp" transform="translate(83.13,0)" d="M0,30v134" style="stroke: rgb(128, 128, 128); stroke-opacity: 1; stroke-width: 0.2px;"/><path class="xgrid crisp" transform="translate(121.25,0)" d="M0,30v134" style="stroke: rgb(128, 128, 128); stroke-opacity: 1; stroke-width: 0.2px;"/><path class="xgrid crisp" transform="translate(159.38,0)" d="M0,30v134" style="stroke: rgb(128, 128, 128); stroke-opacity: 1; stroke-width: 0.2px;"/></g><g class="y"><path class="ygrid crisp" transform="translate(0,157.3)" d="M45,0h137.25" style="stroke: rgb(128, 128, 128); stroke-opacity: 1; stroke-width: 0.2px;"/><path class="ygrid crisp" transform="translate(0,109.06)" d="M45,0h137.25" style="stroke: rgb(128, 128, 128); stroke-opacity: 1; stroke-width: 0.2px;"/><path class="ygrid crisp" transform="translate(0,60.82)" d="M45,0h137.25" style="stroke: rgb(128, 128, 128); stroke-opacity: 1; stroke-width: 0.2px;"/></g></g><g class="zerolinelayer"/><g class="layer-between"><g class="shapelayer"/><g class="imagelayer"/></g><path class="xlines-below"/><path class="ylines-below"/><g class="overlines-below"/><g class="xaxislayer-below"/><g class="yaxislayer-below"/><g class="overaxes-below"/><g class="overplot"><g class="xy" transform="translate(45,30)" clip-path="url(#clip128007xyplot)"><g class="scatterlayer mlayer"><g class="trace scatter trace079dfc" style="stroke-miterlimit: 2; opacity: 1;"><g class="fills"/><g class="errorbars"/><g class="lines"><path class="js-line" d="M0,6.7L7.71,46.84L7.73,46.89L12.31,64.08L12.33,64.13L16.7,77.09L16.72,77.13L22.96,91.15L22.98,91.17L28,99.54L28.02,99.56L33.05,106L33.07,106.02L40.05,112.55L40.07,112.56L45.65,116.3L45.67,116.31L52.43,119.6L52.45,119.6L60.6,122.28L60.62,122.28L71.93,124.53L71.94,124.53L90.32,126.24L90.33,126.24L112.45,126.97L112.46,126.97L137.25,127.21" style="vector-effect: none; fill: none; stroke: rgb(0, 0, 0); stroke-opacity: 1; stroke-width: 1.5px; opacity: 1;"/></g><g class="points"/><g class="text"/></g></g></g></g><path class="xlines-above crisp" d="M44.5,164.25H182.75M44.5,29.75H182.75" style="fill: none; stroke-width: 0.5px; stroke: rgb(0, 0, 0); stroke-opacity: 1;"/><path class="ylines-above crisp" d="M44.75,30V164M182.5,30V164" style="fill: none; stroke-width: 0.5px; stroke: rgb(0, 0, 0); stroke-opacity: 1;"/><g class="overlines-above"/><g class="xaxislayer-above"><path class="xtick ticks crisp" d="M0,164v-5" transform="translate(83.13,0)" style="stroke: rgb(0, 0, 0); stroke-opacity: 1; stroke-width: 0.5px;"/><path class="xtick ticks crisp" d="M0,164v-5" transform="translate(121.25,0)" style="stroke: rgb(0, 0, 0); stroke-opacity: 1; stroke-width: 0.5px;"/><path class="xtick ticks crisp" d="M0,164v-5" transform="translate(159.38,0)" style="stroke: rgb(0, 0, 0); stroke-opacity: 1; stroke-width: 0.5px;"/><g class="xtick"><text text-anchor="middle" x="0" y="177.7" transform="translate(45,0)" style="font-family: 'Open Sans', verdana, arial, sans-serif; font-size: 11px; fill: rgb(0, 0, 0); fill-opacity: 1; white-space: pre; opacity: 1;">0</text></g><g class="xtick"><text text-anchor="middle" x="0" y="177.7" style="font-family: 'Open Sans', verdana, arial, sans-serif; font-size: 11px; fill: rgb(0, 0, 0); fill-opacity: 1; white-space: pre; opacity: 1;" transform="translate(83.13,0)">20</text></g><g class="xtick"><text text-anchor="middle" x="0" y="177.7" style="font-family: 'Open Sans', verdana, arial, sans-serif; font-size: 11px; fill: rgb(0, 0, 0); fill-opacity: 1; white-space: pre; opacity: 1;" transform="translate(121.25,0)">40</text></g><g class="xtick"><text text-anchor="middle" x="0" y="177.7" style="font-family: 'Open Sans', verdana, arial, sans-serif; font-size: 11px; fill: rgb(0, 0, 0); fill-opacity: 1; white-space: pre; opacity: 1;" transform="translate(159.38,0)">60</text></g></g><g class="yaxislayer-above"><path class="ytick ticks crisp" d="M45,0h5" transform="translate(0,157.3)" style="stroke: rgb(0, 0, 0); stroke-opacity: 1; stroke-width: 0.5px;"/><path class="ytick ticks crisp" d="M45,0h5" transform="translate(0,109.06)" style="stroke: rgb(0, 0, 0); stroke-opacity: 1; stroke-width: 0.5px;"/><path class="ytick ticks crisp" d="M45,0h5" transform="translate(0,60.82)" style="stroke: rgb(0, 0, 0); stroke-opacity: 1; stroke-width: 0.5px;"/><g class="ytick"><text text-anchor="end" x="42.3" y="3.8499999999999996" transform="translate(0,157.3)" style="font-family: 'Open Sans', verdana, arial, sans-serif; font-size: 11px; fill: rgb(0, 0, 0); fill-opacity: 1; white-space: pre; opacity: 1;">0</text></g><g class="ytick"><text text-anchor="end" x="42.3" y="3.8499999999999996" style="font-family: 'Open Sans', verdana, arial, sans-serif; font-size: 11px; fill: rgb(0, 0, 0); fill-opacity: 1; white-space: pre; opacity: 1;" transform="translate(0,109.06)">20M</text></g><g class="ytick"><text text-anchor="end" x="42.3" y="3.8499999999999996" style="font-family: 'Open Sans', verdana, arial, sans-serif; font-size: 11px; fill: rgb(0, 0, 0); fill-opacity: 1; white-space: pre; opacity: 1;" transform="translate(0,60.82)">40M</text></g></g><g class="overaxes-above"/></g><g class="subplot x2y2"><g class="layer-subplot"><g class="shapelayer"/><g class="imagelayer"/></g><g class="minor-gridlayer"><g class="x2"/><g class="y2"/></g><g class="gridlayer"><g class="x2"><path class="x2grid crisp" transform="translate(250.88,0)" d="M0,30v134" style="stroke: rgb(128, 128, 128); stroke-opacity: 1; stroke-width: 0.2px;"/><path class="x2grid crisp" transform="translate(289,0)" d="M0,30v134" style="stroke: rgb(128, 128, 128); stroke-opacity: 1; stroke-width: 0.2px;"/><path class="x2grid crisp" transform="translate(327.13,0)" d="M0,30v134" style="stroke: rgb(128, 128, 128); stroke-opacity: 1; stroke-width: 0.2px;"/></g><g class="y2"><path class="y2grid crisp" transform="translate(0,157.3)" d="M212.75,0h137.25" style="stroke: rgb(128, 128, 128); stroke-opacity: 1; stroke-width: 0.2px;"/><path class="y2grid crisp" transform="translate(0,109.06)" d="M212.75,0h137.25" style="stroke: rgb(128, 128, 128); stroke-opacity: 1; stroke-width: 0.2px;"/><path class="y2grid crisp" transform="translate(0,60.82)" d="M212.75,0h137.25" style="stroke: rgb(128, 128, 128); stroke-opacity: 1; stroke-width: 0.2px;"/></g></g><g class="zerolinelayer"/><g class="layer-between"><g class="shapelayer"/><g class="imagelayer"/></g><path class="xlines-below"/><path class="ylines-below"/><g class="overlines-below"/><g class="xaxislayer-below"/><g class="yaxislayer-below"/><g class="overaxes-below"/><g class="overplot"><g class="x2y2" transform="translate(212.75,30)" clip-path="url(#clip128007x2y2plot)"><g class="scatterlayer mlayer"><g class="trace scatter tracec12659" style="stroke-miterlimit: 2; opacity: 1;"><g class="fills"/><g class="errorbars"/><g class="lines"><path class="js-line" d="M0,127.3L4.98,103.03L5,102.98L8.41,93.06L8.43,93.03L12.27,86.52L12.29,86.5L15.15,84L15.17,84L18.27,82.97L18.28,82.97L22.14,83.45L22.15,83.46L26.67,85.65L26.68,85.66L33.45,90.7L33.46,90.71L59.33,110.6L59.34,110.6L67.31,114.84L67.33,114.84L76.24,118.46L76.25,118.46L84.46,120.94L84.47,120.94L97.03,123.52L97.05,123.52L107.86,124.92L107.88,124.92L121.57,125.99L121.59,125.99L137.25,126.65" style="vector-effect: none; fill: none; stroke: rgb(0, 0, 0); stroke-opacity: 1; stroke-width: 1.5px; opacity: 1;"/></g><g class="points"/><g class="text"/></g></g></g></g><path class="xlines-above crisp" d="M212.25,164.25H350.5M212.25,29.75H350.5" style="fill: none; stroke-width: 0.5px; stroke: rgb(0, 0, 0); stroke-opacity: 1;"/><path class="ylines-above crisp" d="M212.5,30V164M350.25,30V164" style="fill: none; stroke-width: 0.5px; stroke: rgb(0, 0, 0); stroke-opacity: 1;"/><g class="overlines-above"/><g class="xaxislayer-above"><path class="x2tick ticks crisp" d="M0,164v-5" transform="translate(250.88,0)" style="stroke: rgb(0, 0, 0); stroke-opacity: 1; stroke-width: 0.5px;"/><path class="x2tick ticks crisp" d="M0,164v-5" transform="translate(289,0)" style="stroke: rgb(0, 0, 0); stroke-opacity: 1; stroke-width: 0.5px;"/><path class="x2tick ticks crisp" d="M0,164v-5" transform="translate(327.13,0)" style="stroke: rgb(0, 0, 0); stroke-opacity: 1; stroke-width: 0.5px;"/><g class="x2tick"><text text-anchor="middle" x="0" y="177.7" transform="translate(212.75,0)" style="font-family: 'Open Sans', verdana, arial, sans-serif; font-size: 11px; fill: rgb(0, 0, 0); fill-opacity: 1; white-space: pre; opacity: 1;">0</text></g><g class="x2tick"><text text-anchor="middle" x="0" y="177.7" style="font-family: 'Open Sans', verdana, arial, sans-serif; font-size: 11px; fill: rgb(0, 0, 0); fill-opacity: 1; white-space: pre; opacity: 1;" transform="translate(250.88,0)">20</text></g><g class="x2tick"><text text-anchor="middle" x="0" y="177.7" style="font-family: 'Open Sans', verdana, arial, sans-serif; font-size: 11px; fill: rgb(0, 0, 0); fill-opacity: 1; white-space: pre; opacity: 1;" transform="translate(289,0)">40</text></g><g class="x2tick"><text text-anchor="middle" x="0" y="177.7" style="font-family: 'Open Sans', verdana, arial, sans-serif; font-size: 11px; fill: rgb(0, 0, 0); fill-opacity: 1; white-space: pre; opacity: 1;" transform="translate(327.13,0)">60</text></g></g><g class="yaxislayer-above"><path class="y2tick ticks crisp" d="M212.75,0h5" transform="translate(0,157.3)" style="stroke: rgb(0, 0, 0); stroke-opacity: 1; stroke-width: 0.5px;"/><path class="y2tick ticks crisp" d="M212.75,0h5" transform="translate(0,109.06)" style="stroke: rgb(0, 0, 0); stroke-opacity: 1; stroke-width: 0.5px;"/><path class="y2tick ticks crisp" d="M212.75,0h5" transform="translate(0,60.82)" style="stroke: rgb(0, 0, 0); stroke-opacity: 1; stroke-width: 0.5px;"/></g><g class="overaxes-above"/></g></g><g class="polarlayer"/><g class="smithlayer"/><g class="ternarylayer"/><g class="geolayer"/><g class="funnelarealayer"/><g class="pielayer"/><g class="iciclelayer"/><g class="treemaplayer"/><g class="sunburstlayer"/><g class="glimages"/><defs id="topdefs-128007"><g class="clips"/></defs><g class="layer-above"><g class="imagelayer"/><g class="shapelayer"/></g><g class="infolayer"><g class="g-gtitle"/><g class="g-xtitle" transform="translate(0,4.550000000000011)"><text class="xtitle" x="113.625" y="188.153125" text-anchor="middle" style="opacity: 1; font-family: 'Open Sans', verdana, arial, sans-serif; font-size: 11px; fill: rgb(0, 0, 0); fill-opacity: 1; white-space: pre;">Time</text></g><g class="g-x2title"/><g class="g-ytitle"><text class="ytitle" transform="rotate(-90,16.18125,97)" x="16.18125" y="97" text-anchor="middle" style="opacity: 1; font-family: 'Open Sans', verdana, arial, sans-serif; font-size: 11px; fill: rgb(0, 0, 0); fill-opacity: 1; white-space: pre;">CFUs/mL</text></g><g class="g-y2title"/><g class="annotation" data-index="0" style="opacity: 1;"><g class="annotation-text-g" transform="rotate(0,113.625,20.5)"><g class="cursor-pointer" transform="translate(105,11)"><rect class="bg" x="0.5" y="0.5" width="16" height="18" style="stroke-width: 1px; stroke: rgb(0, 0, 0); stroke-opacity: 0; fill: rgb(0, 0, 0); fill-opacity: 0;"/><text class="annotation-text" text-anchor="middle" x="8.625" y="14" style="font-family: 'Open Sans', verdana, arial, sans-serif; font-size: 11px; fill: rgb(0, 0, 0); fill-opacity: 1; white-space: pre;">C1</text></g></g></g><g class="annotation" data-index="1" style="opacity: 1;"><g class="annotation-text-g" transform="rotate(0,281.375,20.5)"><g class="cursor-pointer" transform="translate(273,11)"><rect class="bg" x="0.5" y="0.5" width="16" height="18" style="stroke-width: 1px; stroke: rgb(0, 0, 0); stroke-opacity: 0; fill: rgb(0, 0, 0); fill-opacity: 0;"/><text class="annotation-text" text-anchor="middle" x="8.625" y="14" style="font-family: 'Open Sans', verdana, arial, sans-serif; font-size: 11px; fill: rgb(0, 0, 0); fill-opacity: 1; white-space: pre;">C2</text></g></g></g></g></svg>