<svg class="main-svg" xmlns="http://www.w3.org/2000/svg" xmlns:xlink="http://www.w3.org/1999/xlink" width="380" height="200" style="" viewBox="0 0 380 200"><rect x="0" y="0" width="380" height="200" style="fill: rgb(255, 255, 255); fill-opacity: 1;"/><defs id="defs-055537"><g class="clips"><clipPath id="clip055537xyplot" class="plotclip"><rect width="140.4" height="134"/></clipPath><clipPath id="clip055537x2y2plot" class="plotclip"><rect width="140.39999999999998" height="134"/></clipPath><clipPath class="axesclip" id="clip055537x"><rect x="38" y="0" width="140.4" height="200"/></clipPath><clipPath class="axesclip" id="clip055537y"><rect x="0" y="30" width="380" height="134"/></clipPath><clipPath class="axesclip" id="clip055537xy"><rect x="38" y="30" width="140.4" height="134"/></clipPath><clipPath class="axesclip" id="clip055537y2"><rect x="0" y="30" width="380" height="134"/></clipPath><clipPath class="axesclip" id="clip055537xy2"><rect x="38" y="30" width="140.4" height="134"/></clipPath><clipPath class="axesclip" id="clip055537x2"><rect x="209.60000000000002" y="0" width="140.39999999999998" height="200"/></clipPath><clipPath class="axesclip" id="clip055537x2y"><rect x="209.60000000000002" y="30" width="140.39999999999998" height="134"/></clipPath><clipPath class="axesclip" id="clip055537x2y2"><rect x="209.60000000000002" y="30" width="140.39999999999998" height="134"/></clipPath></g><g class="gradients"/><g class="patterns"/></defs><g class="bglayer"/><g class="layer-below"><g class="imagelayer"/><g class="shapelayer"/></g><g class="cartesianlayer"><g class="subplot xy"><g class="layer-subplot"><g class="shapelayer"/><g class="imagelayer"/></g><g class="minor-gridlayer"><g class="x"/><g class="y"/></g><g class="gridlayer"><g class="x"><path class="xgrid crisp" transform="translate(73.1,0)" d="M0,30v134" style="stroke: rgb(128, 128, 128); stroke-opacity: 1; stroke-width: 0.2px;"/><path class="xgrid crisp" transform="translate(108.2,0)" d="M0,30v134" style="stroke: rgb(128, 128, 128); stroke-opacity: 1; stroke-width: 0.2px;"/><path class="xgrid crisp" transform="translate(143.3,0)" d="M0,30v134" style="stroke: rgb(128, 128, 128); stroke-opacity: 1; stroke-width: 0.2px;"/></g><g class="y"><path class="ygrid crisp" transform="translate(0,157.3)" d="M38,0h140.4" style="stroke: rgb(128, 128, 128); stroke-opacity: 1; stroke-width: 0.2px;"/><path class="ygrid crisp" transform="translate(0,117.84)" d="M38,0h140.4" style="stroke: rgb(128, 128, 128); stroke-opacity: 1; stroke-width: 0.2px;"/><path class="ygrid crisp" transform="translate(0,78.39)" d="M38,0h140.4" style="stroke: rgb(128, 128, 128); stroke-opacity: 1; stroke-width: 0.2px;"/><path class="ygrid crisp" transform="translate(0,38.93)" d="M38,0h140.4" style="stroke: rgb(128, 128, 128); stroke-opacity: 1; stroke-width: 0.2px;"/></g></g><g class="zerolinelayer"/><g class="layer-between"><g class="shapelayer"/><g class="imagelayer"/></g><path class="xlines-below"/><path class="ylines-below"/><g class="overlines-below"/><g class="xaxislayer-below"/><g class="yaxislayer-below"/><g class="overaxes-below"/><g class="overplot"><g class="xy" transform="translate(38,30)" clip-path="url(#clip055537xyplot)"><g class="scatterlayer mlayer"><g class="trace scatter tracec6055e" style="stroke-miterlimit: 2; opacity: 1;"><g class="fills"/><g class="errorbars"/><g class="lines"><path class="js-line" d="M0,48.39L1.18,6.7L1.56,12.15L1.57,12.36L7.44,69.09L7.46,69.18L9.42,79.46L9.44,79.52L12.79,91.82L12.81,91.86L16.13,99.99L16.15,100.02L20.82,107.71L20.84,107.73L26.62,114.05L26.64,114.06L32.49,118.41L32.51,118.42L40.99,122.43L41,122.43L48.82,124.57L48.84,124.57L60.72,126.19L60.73,126.19L70.97,126.8L70.98,126.8L87.65,127.16L87.66,127.16L140.4,127.3" style="vector-effect: none; fill: none; stroke: rgb(117, 112, 179); stroke-opacity: 1; stroke-width: 1.5px; opacity: 1;"/></g><g class="points"/><g class="text"/></g><g class="trace scatter tracecfbcbd" style="stroke-miterlimit: 2; opacity: 1;"><g class="fills"/><g class="errorbars"/><g class="lines"><path class="js-line" d="M0,48.39L1.21,39.54L1.61,41.68L1.63,41.76L4.73,54.08L4.75,54.12L7.39,60.06L7.4,60.08L10.14,63.37L10.15,63.38L13.21,64.81L13.23,64.81L16.46,64.7L16.47,64.69L20.71,63.14L20.73,63.13L41.2,53.3L41.21,53.3L51.36,50.9L51.38,50.9L60.9,49.76L60.91,49.76L71.91,49.14L71.92,49.14L88.28,48.8L88.29,48.8L140.4,48.67" style="vector-effect: none; fill: none; stroke: rgb(217, 95, 2); stroke-opacity: 1; stroke-width: 1.5px; opacity: 1;"/></g><g class="points"/><g class="text"/></g></g></g></g><path class="xlines-above crisp" d="M37.5,164.25H178.9M37.5,29.75H178.9" style="fill: none; stroke-width: 0.5px; stroke: rgb(0, 0, 0); stroke-opacity: 1;"/><path class="ylines-above crisp" d="M37.75,30V164M178.65,30V164" style="fill: none; stroke-width: 0.5px; stroke: rgb(0, 0, 0); stroke-opacity: 1;"/><g class="overlines-above"/><g class="xaxislayer-above"><path class="xtick ticks crisp" d="M0,164v-5" transform="translate(73.1,0)" style="stroke: rgb(0, 0, 0); stroke-opacity: 1; stroke-width: 0.5px;"/><path class="xtick ticks crisp" d="M0,164v-5" transform="translate(108.2,0)" style="stroke: rgb(0, 0, 0); stroke-opacity: 1; stroke-width: 0.5px;"/><path class="xtick ticks crisp" d="M0,164v-5" transform="translate(143.3,0)" style="stroke: rgb(0, 0, 0); stroke-opacity: 1; stroke-width: 0.5px;"/><g class="xtick"><text text-anchor="middle" x="0" y="177.7" transform="translate(38,0)" style="font-family: 'Open Sans', verdana, arial, sans-serif; font-size: 11px; fill: rgb(0, 0, 0); fill-opacity: 1; white-space: pre; opacity: 1;">0</text></g><g class="xtick"><text text-anchor="middle" x="0" y="177.7" style="font-family: 'Open Sans', verdana, arial, sans-serif; font-size: 11px; fill: rgb(0, 0, 0); fill-opacity: 1; white-space: pre; opacity: 1;" transform="translate(73.1,0)">50</text></g><g class="xtick"><text text-anchor="middle" x="0" y="177.7" style="font-family: 'Open Sans', verdana, arial, sans-serif; font-size: 11px; fill: rgb(0, 0, 0); fill-opacity: 1; white-space: pre; opacity: 1;" transform="translate(108.2,0)">100</text></g><g class="xtick"><text text-anchor="middle" x="0" y="177.7" style="font-family: 'Open Sans', verdana, arial, sans-serif; font-size: 11px; fill: rgb(0, 0, 0); fill-opacity: 1; white-space: pre; opacity: 1;" transform="translate(143.3,0)">150</text></g><g class="xtick"><text text-anchor="middle" x="0" y="177.7" style="font-family: 'Open Sans', verdana, arial, sans-serif; font-size: 11px; fill: rgb(0, 0, 0); fill-opacity: 1; white-space: pre; opacity: 1;" transform="translate(178.4,0)">200</text></g></g><g class="yaxislayer-above"><path class="ytick ticks crisp" d="M38,0h5" transform="translate(0,157.3)" style="stroke: rgb(0, 0, 0); stroke-opacity: 1; stroke-width: 0.5px;"/><path class="ytick ticks crisp" d="M38,0h5" transform="translate(0,117.84)" style="stroke: rgb(0, 0, 0); stroke-opacity: 1; stroke-width: 0.5px;"/><path class="ytick ticks crisp" d="M38,0h5" transform="translate(0,78.39)" style="stroke: rgb(0, 0, 0); stroke-opacity: 1; stroke-width: 0.5px;"/><path class="ytick ticks crisp" d="M38,0h5" transform="translate(0,38.93)" style="stroke: rgb(0, 0, 0); stroke-opacity: 1; stroke-width: 0.5px;"/><g class="ytick"><text text-anchor="end" x="35.3" y="3.8499999999999996" transform="translate(0,157.3)" style="font-family: 'Open Sans', verdana, arial, sans-serif; font-size: 11px; fill: rgb(0, 0, 0); fill-opacity: 1; white-space: pre; opacity: 1;">0</text></g><g class="ytick"><text text-anchor="end" x="35.3" y="3.8499999999999996" style="font-family: 'Open Sans', verdana, arial, sans-serif; font-size: 11px; fill: rgb(0, 0, 0); fill-opacity: 1; white-space: pre; opacity: 1;" transform="translate(0,117.84)">0.5</text></g><g class="ytick"><text text-anchor="end" x="35.3" y="3.8499999999999996" style="font-family: 'Open Sans', verdana, arial, sans-serif; font-size: 11px; fill: rgb(0, 0, 0); fill-opacity: 1; white-space: pre; opacity: 1;" transform="translate(0,78.39)">1</text></g><g class="ytick"><text text-anchor="end" x="35.3" y="3.8499999999999996" style="font-family: 'Open Sans', verdana, arial, sans-serif; font-size: 11px; fill: rgb(0, 0, 0); fill-opacity: 1; white-space: pre; opacity: 1;" transform="translate(0,38.93)">1.5</text></g></g><g class="overaxes-above"/></g><g class="subplot x2y2"><g class="layer-subplot"><g class="shapelayer"/><g class="imagelayer"/></g><g class="minor-gridlayer"><g class="x2"/><g class="y2"/></g><g class="gridlayer"><g class="x2"><path class="x2grid crisp" transform="translate(244.70000000000002,0)" d="M0,30v134" style="stroke: rgb(128, 128, 128); stroke-opacity: 1; stroke-width: 0.2px;"/><path class="x2grid crisp" transform="translate(279.8,0)" d="M0,30v134" style="stroke: rgb(128, 128, 128); stroke-opacity: 1; stroke-width: 0.2px;"/><path class="x2grid crisp" transform="translate(314.90000000000003,0)" d="M0,30v134" style="stroke: rgb(128, 128, 128); stroke-opacity: 1; stroke-width: 0.2px;"/></g><g class="y2"><path class="y2grid crisp" transform="translate(0,157.3)" d="M209.60000000000002,0h140.39999999999998" style="stroke: rgb(128, 128, 128); stroke-opacity: 1; stroke-width: 0.2px;"/><path class="y2grid crisp" transform="translate(0,117.84)" d="M209.60000000000002,0h140.39999999999998" style="stroke: rgb(128, 128, 128); stroke-opacity: 1; stroke-width: 0.2px;"/><path class="y2grid crisp" transform="translate(0,78.39)" d="M209.60000000000002,0h140.39999999999998" style="stroke: rgb(128, 128, 128); stroke-opacity: 1; stroke-width: 0.2px;"/><path class="y2grid crisp" transform="translate(0,38.93)" d="M209.60000000000002,0h140.39999999999998" style="stroke: rgb(128, 128, 128); stroke-opacity: 1; stroke-width: 0.2px;"/></g></g><g class="zerolinelayer"/><g class="layer-between"><g class="shapelayer"/><g class="imagelayer"/></g><path class="xlines-below"/><path class="ylines-below"/><g class="overlines-below"/><g class="xaxislayer-below"/><g class="yaxislayer-below"/><g class="overaxes-below"/><g class="overplot"><g class="x2y2" transform="translate(209.60000000000002,30)" clip-path="url(#clip055537x2y2plot)"><g class="scatterlayer mlayer"><g class="trace scatter trace5176a0" style="stroke-miterlimit: 2; opacity: 1;"><g class="fills"/><g class="errorbars"/><g class="lines"><path class="js-line" d="M0,127.3L3.3,81.08L3.31,80.98L5.46,70.65L5.48,70.61L7.15,68.51L7.16,68.51L8.51,69.09L8.52,69.1L10.32,71.76L10.33,71.79L13.59,79.11L13.61,79.15L22.45,98.72L22.47,98.74L27.52,106.64L27.54,106.66L32.21,112.09L32.23,112.1L37.17,116.38L37.18,116.39L45.07,120.97L45.09,120.97L53.83,123.92L53.85,123.92L62.96,125.58L62.98,125.58L77.07,126.71L77.09,126.71L94.93,127.15L94.95,127.15L140.4,127.3" style="vector-effect: none; fill: none; stroke: rgb(117, 112, 179); stroke-opacity: 1; stroke-width: 1.5px; opacity: 1;"/></g><g class="points"/><g class="text"/></g><g class="trace scatter trace437607" style="stroke-miterlimit: 2; opacity: 1;"><g class="fills"/><g class="errorbars"/><g class="lines"><path class="js-line" d="M0,127.3L2.37,98.02L2.39,97.9L5.36,79.96L5.38,79.91L7.79,72.91L7.81,72.89L10.56,69.05L10.57,69.04L14.29,66.9L14.31,66.9L33.62,59.04L33.63,59.03L45.68,53.84L45.69,53.84L53.86,51.57L53.88,51.57L61.99,50.18L62.01,50.18L76.48,49L76.5,49L94.65,48.54L94.67,48.54L140.4,48.39" style="vector-effect: none; fill: none; stroke: rgb(217, 95, 2); stroke-opacity: 1; stroke-width: 1.5px; opacity: 1;"/></g><g class="points"/><g class="text"/></g></g></g></g><path class="xlines-above crisp" d="M209.10000000000002,164.25H350.5M209.10000000000002,29.75H350.5" style="fill: none; stroke-width: 0.5px; stroke: rgb(0, 0, 0); stroke-opacity: 1;"/><path class="ylines-above crisp" d="M209.35000000000002,30V164M350.25,30V164" style="fill: none; stroke-width: 0.5px; stroke: rgb(0, 0, 0); stroke-opacity: 1;"/><g class="overlines-above"/><g class="xaxislayer-above"><path class="x2tick ticks crisp" d="M0,164v-5" transform="translate(244.70000000000002,0)" style="stroke: rgb(0, 0, 0); stroke-opacity: 1; stroke-width: 0.5px;"/><path class="x2tick ticks crisp" d="M0,164v-5" transform="translate(279.8,0)" style="stroke: rgb(0, 0, 0); stroke-opacity: 1; stroke-width: 0.5px;"/><path class="x2tick ticks crisp" d="M0,164v-5" transform="translate(314.90000000000003,0)" style="stroke: rgb(0, 0, 0); stroke-opacity: 1; stroke-width: 0.5px;"/><g class="x2tick"><text text-anchor="middle" x="0" y="177.7" transform="translate(209.60000000000002,0)" style="font-family: 'Open Sans', verdana, arial, sans-serif; font-size: 11px; fill: rgb(0, 0, 0); fill-opacity: 1; white-space: pre; opacity: 1;">0</text></g><g class="x2tick"><text text-anchor="middle" x="0" y="177.7" style="font-family: 'Open Sans', verdana, arial, sans-serif; font-size: 11px; fill: rgb(0, 0, 0); fill-opacity: 1; white-space: pre; opacity: 1;" transform="translate(244.70000000000002,0)">50</text></g><g class="x2tick"><text text-anchor="middle" x="0" y="177.7" style="font-family: 'Open Sans', verdana, arial, sans-serif; font-size: 11px; fill: rgb(0, 0, 0); fill-opacity: 1; white-space: pre; opacity: 1;" transform="translate(279.8,0)">100</text></g><g class="x2tick"><text text-anchor="middle" x="0" y="177.7" style="font-family: 'Open Sans', verdana, arial, sans-serif; font-size: 11px; fill: rgb(0, 0, 0); fill-opacity: 1; white-space: pre; opacity: 1;" transform="translate(314.90000000000003,0)">150</text></g><g class="x2tick"><text text-anchor="middle" x="0" y="177.7" style="font-family: 'Open Sans', verdana, arial, sans-serif; font-size: 11px; fill: rgb(0, 0, 0); fill-opacity: 1; white-space: pre; opacity: 1;" transform="translate(350,0)">200</text></g></g><g class="yaxislayer-above"><path class="y2tick ticks crisp" d="M209.60000000000002,0h5" transform="translate(0,157.3)" style="stroke: rgb(0, 0, 0); stroke-opacity: 1; stroke-width: 0.5px;"/><path class="y2tick ticks crisp" d="M209.60000000000002,0h5" transform="translate(0,117.84)" style="stroke: rgb(0, 0, 0); stroke-opacity: 1; stroke-width: 0.5px;"/><path class="y2tick ticks crisp" d="M209.60000000000002,0h5" transform="translate(0,78.39)" style="stroke: rgb(0, 0, 0); stroke-opacity: 1; stroke-width: 0.5px;"/><path class="y2tick ticks crisp" d="M209.60000000000002,0h5" transform="translate(0,38.93)" style="stroke: rgb(0, 0, 0); stroke-opacity: 1; stroke-width: 0.5px;"/></g><g class="overaxes-above"/></g></g><g class="polarlayer"/><g class="smithlayer"/><g class="ternarylayer"/><g class="geolayer"/><g class="funnelarealayer"/><g class="pielayer"/><g class="iciclelayer"/><g class="treemaplayer"/><g class="sunburstlayer"/><g class="glimages"/><defs id="topdefs-055537"><g class="clips"/></defs><g class="layer-above"><g class="imagelayer"/><g class="shapelayer"/></g><g class="infolayer"><g class="g-gtitle"/><g class="g-xtitle" transform="translate(0,4.550000000000011)"><text class="xtitle" x="108.2" y="188.153125" text-anchor="middle" style="opacity: 1; font-family: 'Open Sans', verdana, arial, sans-serif; font-size: 11px; fill: rgb(0, 0, 0); fill-opacity: 1; white-space: pre;">Time</text></g><g class="g-x2title"/><g class="g-ytitle" transform="translate(-0.712890625,0)"><text class="ytitle" transform="rotate(-90,16.18125,97)" x="16.18125" y="97" text-anchor="middle" style="opacity: 1; font-family: 'Open Sans', verdana, arial, sans-serif; font-size: 11px; fill: rgb(0, 0, 0); fill-opacity: 1; white-space: pre;">OD​<tspan style="font-size:70%" dy="0.3em">600</tspan><tspan dy="-0.21em">​</tspan></text></g><g class="g-y2title"/><g class="annotation" data-index="0" style="opacity: 1;"><g class="annotation-text-g" transform="rotate(0,108.2,20.5)"><g class="cursor-pointer" transform="translate(100,11)"><rect class="bg" x="0.5" y="0.5" width="16" height="18" style="stroke-width: 1px; stroke: rgb(0, 0, 0); stroke-opacity: 0; fill: rgb(0, 0, 0); fill-opacity: 0;"/><text class="annotation-text" text-anchor="middle" x="8.625" y="14" style="font-family: 'Open Sans', verdana, arial, sans-serif; font-size: 11px; fill: rgb(0, 0, 0); fill-opacity: 1; white-space: pre;">C1</text></g></g></g><g class="annotation" data-index="1" style="opacity: 1;"><g class="annotation-text-g" transform="rotate(0,279.8,20.5)"><g class="cursor-pointer" transform="translate(271,11)"><rect class="bg" x="0.5" y="0.5" width="16" height="18" style="stroke-width: 1px; stroke: rgb(0, 0, 0); stroke-opacity: 0; fill: rgb(0, 0, 0); fill-opacity: 0;"/><text class="annotation-text" text-anchor="middle" x="8.625" y="14" style="font-family: 'Open Sans', verdana, arial, sans-serif; font-size: 11px; fill: rgb(0, 0, 0); fill-opacity: 1; white-space: pre;">C2</text></g></g></g></g></svg>