<svg class="main-svg" xmlns="http://www.w3.org/2000/svg" xmlns:xlink="http://www.w3.org/1999/xlink" width="700" height="500" style="" viewBox="0 0 700 500"><rect x="0" y="0" width="700" height="500" style="fill: rgb(255, 255, 255); fill-opacity: 1;"/><defs id="defs-adbdc2"><g class="clips"><clipPath id="clipadbdc2xyplot" class="plotclip"><rect width="570" height="434"/></clipPath><clipPath class="axesclip" id="clipadbdc2x"><rect x="38" y="0" width="570" height="500"/></clipPath><clipPath class="axesclip" id="clipadbdc2y"><rect x="0" y="30" width="700" height="434"/></clipPath><clipPath class="axesclip" id="clipadbdc2xy"><rect x="38" y="30" width="570" height="434"/></clipPath></g><g class="gradients"/><g class="patterns"/></defs><g class="bglayer"/><g class="layer-below"><g class="imagelayer"/><g class="shapelayer"/></g><g class="cartesianlayer"><g class="subplot xy"><g class="layer-subplot"><g class="shapelayer"/><g class="imagelayer"/></g><g class="minor-gridlayer"><g class="x"/><g class="y"/></g><g class="gridlayer"><g class="x"><path class="xgrid crisp" transform="translate(152,0)" d="M0,30v434" style="stroke: rgb(128, 128, 128); stroke-opacity: 1; stroke-width: 0.2px;"/><path class="xgrid crisp" transform="translate(266,0)" d="M0,30v434" style="stroke: rgb(128, 128, 128); stroke-opacity: 1; stroke-width: 0.2px;"/><path class="xgrid crisp" transform="translate(380,0)" d="M0,30v434" style="stroke: rgb(128, 128, 128); stroke-opacity: 1; stroke-width: 0.2px;"/><path class="xgrid crisp" transform="translate(494,0)" d="M0,30v434" style="stroke: rgb(128, 128, 128); stroke-opacity: 1; stroke-width: 0.2px;"/></g><g class="y"><path class="ygrid crisp" transform="translate(0,449.39)" d="M38,0h570" style="stroke: rgb(128, 128, 128); stroke-opacity: 1; stroke-width: 0.2px;"/><path class="ygrid crisp" transform="translate(0,376.49)" d="M38,0h570" style="stroke: rgb(128, 128, 128); stroke-opacity: 1; stroke-width: 0.2px;"/><path class="ygrid crisp" transform="translate(0,303.59)" d="M38,0h570" style="stroke: rgb(128, 128, 128); stroke-opacity: 1; stroke-width: 0.2px;"/><path class="ygrid crisp" transform="translate(0,230.69)" d="M38,0h570" style="stroke: rgb(128, 128, 128); stroke-opacity: 1; stroke-width: 0.2px;"/><path class="ygrid crisp" transform="translate(0,157.79000000000002)" d="M38,0h570" style="stroke: rgb(128, 128, 128); stroke-opacity: 1; stroke-width: 0.2px;"/><path class="ygrid crisp" transform="translate(0,84.89)" d="M38,0h570" style="stroke: rgb(128, 128, 128); stroke-opacity: 1; stroke-width: 0.2px;"/></g></g><g class="zerolinelayer"/><g class="layer-between"><g class="shapelayer"/><g class="imagelayer"/></g><path class="xlines-below"/><path class="ylines-below"/><g class="overlines-below"/><g class="xaxislayer-below"/><g class="yaxislayer-below"/><g class="overaxes-below"/><g class="overplot"><g class="xy" transform="translate(38,30)" clip-path="url(#clipadbdc2xyplot)"><g class="scatterlayer mlayer"><g class="trace scatter trace7d94d2" style="stroke-miterlimit: 2; opacity: 1;"><g class="fills"/><g class="errorbars"/><g class="lines"><path class="js-line" d="M0,395.41L19.32,384.79L28.98,393.63L38.64,380.55L48.31,334.21L57.97,375.92L67.63,370.82L77.29,357.46L86.95,352.31L96.61,340.36L106.27,345.58L115.93,351.18L125.59,332.66L135.25,341.6L144.92,322.82L154.58,319.54L164.24,309.08L173.9,309.9L183.56,307.19L193.22,311.94L202.88,293.41L212.54,262.96L222.2,257.62L241.53,267.96L251.19,239.36L260.85,225.68L270.51,222.89L280.17,216.36L289.83,197.33L299.49,176.25L309.15,188.64L318.81,184.16L328.47,170.94L338.14,184.45L347.8,185.36L357.46,179.7L367.12,182.83L376.78,184.15L386.44,180.23L396.1,174.01L405.76,174.83L415.42,160.34L425.08,165.67L434.75,164.92L444.41,171.27L454.07,171.39L463.73,193.55L473.39,180.88L483.05,144.64L492.71,174.95L502.37,183.19L512.03,172.19L521.69,180.74L531.36,182.46L541.02,178.45L550.68,177.8L560.34,172.68L570,192.59" style="vector-effect: none; fill: none; stroke: rgb(99, 110, 250); stroke-opacity: 1; stroke-width: 1.5px; opacity: 1;"/></g><g class="points"/><g class="text"/></g><g class="trace scatter trace56aec1" style="stroke-miterlimit: 2; opacity: 1;"><g class="fills"/><g class="errorbars"/><g class="lines"><path class="js-line" d="M0,379.85L9.66,381.86L19.32,381.22L38.64,374.35L48.31,381.74L57.97,366.97L67.63,378.21L77.29,372.15L86.95,368.96L96.61,359.55L106.27,364.85L115.93,372.69L125.59,364.21L135.25,359.71L144.92,366.72L154.58,356.65L164.24,356.58L173.9,354.7L183.56,343.85L193.22,343.73L202.88,344.79L212.54,345.2L222.2,353.8L231.86,341.07L241.53,338.75L251.19,329.66L260.85,326.37L270.51,328.05L280.17,325.89L299.49,315.76L309.15,308.09L318.81,301.18L328.47,313.14L338.14,308.13L347.8,297.31L357.46,309.24L367.12,304.51L376.78,293.86L386.44,292.41L396.1,310.33L405.76,303.77L415.42,300.79L425.08,299.27L434.75,303.07L444.41,293.97L454.07,302.25L463.73,303.13L483.05,301.17L492.71,306.15L502.37,300.93L512.03,299.99L521.69,319.23L531.36,295.4L541.02,309.76L550.68,302.15L560.34,297.94L570,297.97" style="vector-effect: none; fill: none; stroke: rgb(239, 85, 59); stroke-opacity: 1; stroke-width: 1.5px; opacity: 1;"/></g><g class="points"/><g class="text"/></g><g class="trace scatter trace954ce7" style="stroke-miterlimit: 2; opacity: 1;"><g class="fills"/><g class="errorbars"/><g class="lines"><path class="js-line" d="M0,382.7L9.66,348.74L19.32,333.01L28.98,349.65L38.64,338.13L48.31,300.76L57.97,299.74L67.63,328.53L77.29,273.15L86.95,326.79L96.61,271.3L106.27,300.59L115.93,318.02L125.59,256.09L135.25,263.54L144.92,254.8L154.58,258.81L164.24,225.9L173.9,237.1L183.56,214.62L193.22,259.89L202.88,199.14L212.54,193.15L222.2,172.75L231.86,175.07L241.53,225.96L251.19,126.99L260.85,152.97L270.51,119.94L280.17,110.42L289.83,95.96L299.49,72.14L309.15,78L318.81,109.53L328.47,82.82L338.14,57.25L347.8,49.83L357.46,51.61L367.12,91.21L376.78,66.49L386.44,84.51L396.1,66.48L405.76,60.68L415.42,51.23L425.08,69.37L434.75,40.89L444.41,41.26L454.07,71.88L463.73,69.29L473.39,43.73L483.05,58.02L492.71,33.17L502.37,52.72L512.03,21.7L521.69,68.19L531.36,58.11L541.02,63.63L550.68,76.12L560.34,53.2L570,80.55" style="vector-effect: none; fill: none; stroke: rgb(0, 204, 150); stroke-opacity: 1; stroke-width: 1.5px; opacity: 1;"/></g><g class="points"/><g class="text"/></g><g class="trace scatter tracea433ff" style="stroke-miterlimit: 2; opacity: 1;"><g class="fills"/><g class="errorbars"/><g class="lines"><path class="js-line" d="M0,372.66L9.66,385.4L19.32,376.08L28.98,370.26L38.64,356.32L48.31,367.05L57.97,338.38L67.63,363.4L77.29,346.58L86.95,337.92L96.61,346.24L106.27,324.83L115.93,336.27L125.59,352.89L135.25,342.28L144.92,310.71L154.58,307.95L164.24,350.83L173.9,308.94L183.56,310.5L193.22,309.1L202.88,297.79L212.54,289.08L222.2,271.92L231.86,260.8L241.53,280.93L251.19,212.26L260.85,261.14L270.51,240.58L280.17,223.23L289.83,171.31L299.49,212.88L309.15,221.91L318.81,193.87L328.47,183.74L338.14,170.44L347.8,191.37L357.46,182.72L367.12,181.41L386.44,191.25L396.1,188.28L405.76,172.03L415.42,187.63L425.08,180.94L434.75,172.95L444.41,154.86L454.07,182.52L463.73,185L473.39,181.51L483.05,198.27L492.71,183.4L502.37,184.53L512.03,194.25L521.69,187.85L531.36,185.1L541.02,176.14L550.68,193.39L560.34,176.7" style="vector-effect: none; fill: none; stroke: rgb(171, 99, 250); stroke-opacity: 1; stroke-width: 2px; opacity: 1;"/></g><g class="points"/><g class="text"/></g><g class="trace scatter tracecb476e" style="stroke-miterlimit: 2; opacity: 1;"><g class="fills"/><g class="errorbars"/><g class="lines"><path class="js-line" d="M0,395.87L19.32,359.17L28.98,356.2L38.64,361.45L48.31,329.01L57.97,412.3L67.63,369.62L77.29,400.16L86.95,349.64L96.61,369.05L106.27,372.43L115.93,368.75L125.59,385.51L144.92,340.15L154.58,372.62L164.24,329.5L173.9,383.91L183.56,337.44L193.22,328.85L202.88,374.76L212.54,367.43L222.2,340.93L231.86,318.68L241.53,336.92L251.19,338.17L260.85,343.01L270.51,332.93L280.17,343.92L289.83,341.6L299.49,317.44L309.15,319.12L318.81,299.97L328.47,298.86L338.14,305.77L347.8,333.92L357.46,306.37L367.12,315.17L376.78,292.26L386.44,277.15L396.1,303.52L405.76,307.57L415.42,298.88L425.08,307.04L434.75,346.53L444.41,274.72L454.07,336.84L463.73,262.99L473.39,318.27L483.05,317.95L492.71,325.94L502.37,295.08L512.03,306.8L521.69,287.83L531.36,279.62L541.02,310.16L550.68,317.41L560.34,281.23" style="vector-effect: none; fill: none; stroke: rgb(255, 161, 90); stroke-opacity: 1; stroke-width: 2px; opacity: 1;"/></g><g class="points"/><g class="text"/></g></g></g></g><path class="xlines-above crisp" d="M37.5,464.25H608.5M37.5,29.75H608.5" style="fill: none; stroke-width: 0.5px; stroke: rgb(0, 0, 0); stroke-opacity: 1;"/><path class="ylines-above crisp" d="M37.75,30V464M608.25,30V464" style="fill: none; stroke-width: 0.5px; stroke: rgb(0, 0, 0); stroke-opacity: 1;"/><g class="overlines-above"/><g class="xaxislayer-above"><path class="xtick ticks crisp" d="M0,464v-5" transform="translate(152,0)" style="stroke: rgb(0, 0, 0); stroke-opacity: 1; stroke-width: 0.5px;"/><path class="xtick ticks crisp" d="M0,464v-5" transform="translate(266,0)" style="stroke: rgb(0, 0, 0); stroke-opacity: 1; stroke-width: 0.5px;"/><path class="xtick ticks crisp" d="M0,464v-5" transform="translate(380,0)" style="stroke: rgb(0, 0, 0); stroke-opacity: 1; stroke-width: 0.5px;"/><path class="xtick ticks crisp" d="M0,464v-5" transform="translate(494,0)" style="stroke: rgb(0, 0, 0); stroke-opacity: 1; stroke-width: 0.5px;"/><g class="xtick"><text text-anchor="middle" x="0" y="477.7" transform="translate(38,0)" style="font-family: 'Open Sans', verdana, arial, sans-serif; font-size: 11px; fill: rgb(0, 0, 0); fill-opacity: 1; white-space: pre; opacity: 1;">0</text></g><g class="xtick"><text text-anchor="middle" x="0" y="477.7" style="font-family: 'Open Sans', verdana, arial, sans-serif; font-size: 11px; fill: rgb(0, 0, 0); fill-opacity: 1; white-space: pre; opacity: 1;" transform="translate(152,0)">2</text></g><g class="xtick"><text text-anchor="middle" x="0" y="477.7" style="font-family: 'Open Sans', verdana, arial, sans-serif; font-size: 11px; fill: rgb(0, 0, 0); fill-opacity: 1; white-space: pre; opacity: 1;" transform="translate(266,0)">4</text></g><g class="xtick"><text text-anchor="middle" x="0" y="477.7" style="font-family: 'Open Sans', verdana, arial, sans-serif; font-size: 11px; fill: rgb(0, 0, 0); fill-opacity: 1; white-space: pre; opacity: 1;" transform="translate(380,0)">6</text></g><g class="xtick"><text text-anchor="middle" x="0" y="477.7" style="font-family: 'Open Sans', verdana, arial, sans-serif; font-size: 11px; fill: rgb(0, 0, 0); fill-opacity: 1; white-space: pre; opacity: 1;" transform="translate(494,0)">8</text></g><g class="xtick"><text text-anchor="middle" x="0" y="477.7" style="font-family: 'Open Sans', verdana, arial, sans-serif; font-size: 11px; fill: rgb(0, 0, 0); fill-opacity: 1; white-space: pre; opacity: 1;" transform="translate(608,0)">10</text></g></g><g class="yaxislayer-above"><path class="ytick ticks crisp" d="M38,0h5" transform="translate(0,449.39)" style="stroke: rgb(0, 0, 0); stroke-opacity: 1; stroke-width: 0.5px;"/><path class="ytick ticks crisp" d="M38,0h5" transform="translate(0,376.49)" style="stroke: rgb(0, 0, 0); stroke-opacity: 1; stroke-width: 0.5px;"/><path class="ytick ticks crisp" d="M38,0h5" transform="translate(0,303.59)" style="stroke: rgb(0, 0, 0); stroke-opacity: 1; stroke-width: 0.5px;"/><path class="ytick ticks crisp" d="M38,0h5" transform="translate(0,230.69)" style="stroke: rgb(0, 0, 0); stroke-opacity: 1; stroke-width: 0.5px;"/><path class="ytick ticks crisp" d="M38,0h5" transform="translate(0,157.79000000000002)" style="stroke: rgb(0, 0, 0); stroke-opacity: 1; stroke-width: 0.5px;"/><path class="ytick ticks crisp" d="M38,0h5" transform="translate(0,84.89)" style="stroke: rgb(0, 0, 0); stroke-opacity: 1; stroke-width: 0.5px;"/><g class="ytick"><text text-anchor="end" x="35.3" y="3.8499999999999996" transform="translate(0,449.39)" style="font-family: 'Open Sans', verdana, arial, sans-serif; font-size: 11px; fill: rgb(0, 0, 0); fill-opacity: 1; white-space: pre; opacity: 1;">0</text></g><g class="ytick"><text text-anchor="end" x="35.3" y="3.8499999999999996" style="font-family: 'Open Sans', verdana, arial, sans-serif; font-size: 11px; fill: rgb(0, 0, 0); fill-opacity: 1; white-space: pre; opacity: 1;" transform="translate(0,376.49)">0.2</text></g><g class="ytick"><text text-anchor="end" x="35.3" y="3.8499999999999996" style="font-family: 'Open Sans', verdana, arial, sans-serif; font-size: 11px; fill: rgb(0, 0, 0); fill-opacity: 1; white-space: pre; opacity: 1;" transform="translate(0,303.59)">0.4</text></g><g class="ytick"><text text-anchor="end" x="35.3" y="3.8499999999999996" style="font-family: 'Open Sans', verdana, arial, sans-serif; font-size: 11px; fill: rgb(0, 0, 0); fill-opacity: 1; white-space: pre; opacity: 1;" transform="translate(0,230.69)">0.6</text></g><g class="ytick"><text text-anchor="end" x="35.3" y="3.8499999999999996" style="font-family: 'Open Sans', verdana, arial, sans-serif; font-size: 11px; fill: rgb(0, 0, 0); fill-opacity: 1; white-space: pre; opacity: 1;" transform="translate(0,157.79000000000002)">0.8</text></g><g class="ytick"><text text-anchor="end" x="35.3" y="3.8499999999999996" style="font-family: 'Open Sans', verdana, arial, sans-serif; font-size: 11px; fill: rgb(0, 0, 0); fill-opacity: 1; white-space: pre; opacity: 1;" transform="translate(0,84.89)">1</text></g></g><g class="overaxes-above"/></g></g><g class="polarlayer"/><g class="smithlayer"/><g class="ternarylayer"/><g class="geolayer"/><g class="funnelarealayer"/><g class="pielayer"/><g class="iciclelayer"/><g class="treemaplayer"/><g class="sunburstlayer"/><g class="glimages"/><defs id="topdefs-adbdc2"><g class="clips"/><clipPath id="legendadbdc2"><rect width="69" height="105" x="0" y="0"/></clipPath></defs><g class="layer-above"><g class="imagelayer"/><g class="shapelayer"/></g><g class="infolayer"><g class="legend" pointer-events="all" transform="translate(619.4,30)"><rect class="bg" shape-rendering="crispEdges" style="stroke: rgb(68, 68, 68); stroke-opacity: 1; fill: rgb(255, 255, 255); fill-opacity: 1; stroke-width: 0px;" width="69" height="105" x="0" y="0"/><g class="scrollbox" transform="" clip-path="url(#legendadbdc2)"><g class="groups"><g class="traces" transform="translate(0,14.5)" style="opacity: 1;"><text class="legendtext" text-anchor="start" x="40" y="4.29" style="font-family: 'Open Sans', verdana, arial, sans-serif; font-size: 11px; fill: rgb(0, 0, 0); fill-opacity: 1; white-space: pre;">N1</text><g class="layers" style="opacity: 1;"><g class="legendfill"/><g class="legendlines"><path class="js-line" d="M5,0h30" style="fill: none; stroke: rgb(99, 110, 250); stroke-opacity: 1; stroke-width: 1.5px;"/></g><g class="legendsymbols"><g class="legendpoints"/></g></g><rect class="legendtoggle" x="0" y="-9.5" width="63.3125" height="19" style="fill: rgb(0, 0, 0); fill-opacity: 0;"/></g><g class="traces" transform="translate(0,33.5)" style="opacity: 1;"><text class="legendtext" text-anchor="start" x="40" y="4.29" style="font-family: 'Open Sans', verdana, arial, sans-serif; font-size: 11px; fill: rgb(0, 0, 0); fill-opacity: 1; white-space: pre;">N2</text><g class="layers" style="opacity: 1;"><g class="legendfill"/><g class="legendlines"><path class="js-line" d="M5,0h30" style="fill: none; stroke: rgb(239, 85, 59); stroke-opacity: 1; stroke-width: 1.5px;"/></g><g class="legendsymbols"><g class="legendpoints"/></g></g><rect class="legendtoggle" x="0" y="-9.5" width="63.3125" height="19" style="fill: rgb(0, 0, 0); fill-opacity: 0;"/></g><g class="traces" transform="translate(0,52.5)" style="opacity: 1;"><text class="legendtext" text-anchor="start" x="40" y="4.29" style="font-family: 'Open Sans', verdana, arial, sans-serif; font-size: 11px; fill: rgb(0, 0, 0); fill-opacity: 1; white-space: pre;">total</text><g class="layers" style="opacity: 1;"><g class="legendfill"/><g class="legendlines"><path class="js-line" d="M5,0h30" style="fill: none; stroke: rgb(0, 204, 150); stroke-opacity: 1; stroke-width: 1.5px;"/></g><g class="legendsymbols"><g class="legendpoints"/></g></g><rect class="legendtoggle" x="0" y="-9.5" width="63.3125" height="19" style="fill: rgb(0, 0, 0); fill-opacity: 0;"/></g><g class="traces" transform="translate(0,71.5)" style="opacity: 1;"><text class="legendtext" text-anchor="start" x="40" y="4.29" style="font-family: 'Open Sans', verdana, arial, sans-serif; font-size: 11px; fill: rgb(0, 0, 0); fill-opacity: 1; white-space: pre;">rN1</text><g class="layers" style="opacity: 1;"><g class="legendfill"/><g class="legendlines"><path class="js-line" d="M5,0h30" style="fill: none; stroke: rgb(171, 99, 250); stroke-opacity: 1; stroke-width: 2px;"/></g><g class="legendsymbols"><g class="legendpoints"/></g></g><rect class="legendtoggle" x="0" y="-9.5" width="63.3125" height="19" style="fill: rgb(0, 0, 0); fill-opacity: 0;"/></g><g class="traces" transform="translate(0,90.5)" style="opacity: 1;"><text class="legendtext" text-anchor="start" x="40" y="4.29" style="font-family: 'Open Sans', verdana, arial, sans-serif; font-size: 11px; fill: rgb(0, 0, 0); fill-opacity: 1; white-space: pre;">rN2</text><g class="layers" style="opacity: 1;"><g class="legendfill"/><g class="legendlines"><path class="js-line" d="M5,0h30" style="fill: none; stroke: rgb(255, 161, 90); stroke-opacity: 1; stroke-width: 2px;"/></g><g class="legendsymbols"><g class="legendpoints"/></g></g><rect class="legendtoggle" x="0" y="-9.5" width="63.3125" height="19" style="fill: rgb(0, 0, 0); fill-opacity: 0;"/></g></g></g><rect class="scrollbar" rx="20" ry="3" width="0" height="0" style="fill: rgb(128, 139, 164); fill-opacity: 1;" x="0" y="0"/></g><g class="g-gtitle"><text class="gtitle" x="35" y="15" text-anchor="start" dy="0em" style="opacity: 1; font-family: 'Open Sans', verdana, arial, sans-serif; font-size: 11px; fill: rgb(0, 0, 0); fill-opacity: 1; white-space: pre;">Population Dynamics with Noise</text></g><g class="g-xtitle"><text class="xtitle" x="323" y="488.153125" text-anchor="middle" style="opacity: 1; font-family: 'Open Sans', verdana, arial, sans-serif; font-size: 11px; fill: rgb(0, 0, 0); fill-opacity: 1; white-space: pre;">Time</text></g><g class="g-ytitle"><text class="ytitle" transform="rotate(-90,16.18125,247)" x="16.18125" y="247" text-anchor="middle" style="opacity: 1; font-family: 'Open Sans', verdana, arial, sans-serif; font-size: 11px; fill: rgb(0, 0, 0); fill-opacity: 1; white-space: pre;">Population</text></g></g></svg>