<svg class="main-svg" xmlns="http://www.w3.org/2000/svg" xmlns:xlink="http://www.w3.org/1999/xlink" width="600" height="400" style="" viewBox="0 0 600 400"><rect x="0" y="0" width="600" height="400" style="fill: rgb(255, 255, 255); fill-opacity: 1;"/><defs id="defs-d8ce3b"><g class="clips"><clipPath id="clipd8ce3bxyplot" class="plotclip"><rect width="345" height="334"/></clipPath><clipPath class="axesclip" id="clipd8ce3bx"><rect x="35" y="0" width="345" height="400"/></clipPath><clipPath class="axesclip" id="clipd8ce3by"><rect x="0" y="30" width="600" height="334"/></clipPath><clipPath class="axesclip" id="clipd8ce3bxy"><rect x="35" y="30" width="345" height="334"/></clipPath><clipPath class="contourclip" id="clipbdd298"><path d="M0.35,0L345,0L345,333.67L0.35,333.67Z"/></clipPath><clipPath class="contourclip" id="clip8a34ef"><path d="M0.35,0L345,0L345,333.67L0.35,333.67Z"/></clipPath></g><g class="gradients"/><g class="patterns"/></defs><g class="bglayer"/><g class="layer-below"><g class="imagelayer"/><g class="shapelayer"/></g><g class="cartesianlayer"><g class="subplot xy"><g class="layer-subplot"><g class="shapelayer"/><g class="imagelayer"/></g><g class="minor-gridlayer"><g class="x"/><g class="y"/></g><g class="gridlayer"><g class="x"><path class="xgrid crisp" transform="translate(104,0)" d="M0,30v334" style="stroke: rgb(128, 128, 128); stroke-opacity: 1; stroke-width: 0.2px;"/><path class="xgrid crisp" transform="translate(173,0)" d="M0,30v334" style="stroke: rgb(128, 128, 128); stroke-opacity: 1; stroke-width: 0.2px;"/><path class="xgrid crisp" transform="translate(242,0)" d="M0,30v334" style="stroke: rgb(128, 128, 128); stroke-opacity: 1; stroke-width: 0.2px;"/><path class="xgrid crisp" transform="translate(311,0)" d="M0,30v334" style="stroke: rgb(128, 128, 128); stroke-opacity: 1; stroke-width: 0.2px;"/></g><g class="y"><path class="ygrid crisp" transform="translate(0,297.2)" d="M35,0h345" style="stroke: rgb(128, 128, 128); stroke-opacity: 1; stroke-width: 0.2px;"/><path class="ygrid crisp" transform="translate(0,230.4)" d="M35,0h345" style="stroke: rgb(128, 128, 128); stroke-opacity: 1; stroke-width: 0.2px;"/><path class="ygrid crisp" transform="translate(0,163.6)" d="M35,0h345" style="stroke: rgb(128, 128, 128); stroke-opacity: 1; stroke-width: 0.2px;"/><path class="ygrid crisp" transform="translate(0,96.8)" d="M35,0h345" style="stroke: rgb(128, 128, 128); stroke-opacity: 1; stroke-width: 0.2px;"/></g></g><g class="zerolinelayer"/><g class="layer-between"><g class="shapelayer"/><g class="imagelayer"/></g><path class="xlines-below"/><path class="ylines-below"/><g class="overlines-below"/><g class="xaxislayer-below"/><g class="yaxislayer-below"/><g class="overaxes-below"/><g class="overplot"><g class="xy" transform="translate(35,30)" clip-path="url(#clipd8ce3bxyplot)"><g class="contourlayer mlayer"><g class="contour" clip-path="url(#clipbdd298)" style="opacity: 1;"><g class="heatmapcoloring"/><g class="contourbg"/><g class="contourfill"/><g class="contourlines"><g class="contourlevel"><path class="openline" d="M345,313.58Q342.68,313.55 341.52,313.54C340.36,313.53 339.2,313.51 338.04,313.5C336.88,313.49 335.43,313.47 334.56,313.46C334.05,313.45 333.8,313.45 333.33,313.44C332.69,313.43 331.9,313.42 331.07,313.41C330.03,313.4 328.75,313.38 327.59,313.36C326.43,313.34 325.27,313.33 324.11,313.31C322.95,313.29 321.79,313.28 320.63,313.26C319.47,313.24 318.31,313.22 317.15,313.2C315.99,313.18 314.83,313.17 313.67,313.15C312.51,313.13 311.35,313.11 310.19,313.09C309.03,313.07 307.87,313.06 306.71,313.04C305.55,313.02 304.38,313 303.22,312.98C302.06,312.96 300.9,312.94 299.74,312.92C298.58,312.9 297.42,312.88 296.26,312.86C295.1,312.84 293.94,312.81 292.78,312.79C291.62,312.77 290.46,312.75 289.3,312.73C288.14,312.71 286.98,312.68 285.82,312.66C284.66,312.64 283.5,312.62 282.34,312.6C281.18,312.58 280.01,312.55 278.85,312.53C277.69,312.51 276.53,312.48 275.37,312.46C274.21,312.43 273.05,312.41 271.89,312.38C270.73,312.36 269.57,312.33 268.41,312.31C267.25,312.28 266.09,312.26 264.93,312.23C263.77,312.2 262.61,312.18 261.45,312.15C260.29,312.12 259.13,312.1 257.97,312.07C256.81,312.04 255.64,312.02 254.48,311.99C253.32,311.96 252.16,311.94 251,311.91C249.84,311.88 248.68,311.85 247.52,311.82C246.36,311.79 245.2,311.76 244.04,311.73C242.88,311.7 241.72,311.67 240.56,311.64C239.4,311.61 238.24,311.57 237.08,311.54C235.92,311.51 234.76,311.47 233.6,311.44C232.44,311.41 231.28,311.37 230.12,311.34C228.96,311.31 227.79,311.28 226.63,311.24C225.47,311.21 224.31,311.17 223.15,311.13C221.99,311.09 220.83,311.06 219.67,311.02C218.51,310.98 217.35,310.94 216.19,310.9C215.03,310.86 213.87,310.82 212.71,310.78C211.55,310.74 210.39,310.7 209.23,310.66C208.07,310.62 206.91,310.58 205.75,310.54C204.59,310.5 203.42,310.45 202.26,310.4C201.1,310.36 199.94,310.31 198.78,310.27C197.62,310.22 196.19,310.17 195.3,310.13C194.75,310.11 194.47,310.09 193.97,310.07C193.34,310.04 192.62,310.01 191.82,309.97C190.8,309.92 189.5,309.85 188.34,309.79C187.18,309.73 186.02,309.67 184.86,309.61C183.7,309.55 182.54,309.48 181.38,309.41C180.22,309.34 179.05,309.28 177.89,309.21C176.73,309.14 175.57,309.08 174.41,309.01C173.25,308.94 172.09,308.86 170.93,308.79C169.77,308.72 168.61,308.65 167.45,308.57C166.29,308.49 165.13,308.41 163.97,308.33C162.81,308.25 161.65,308.17 160.49,308.09C159.33,308.01 158.17,307.92 157.01,307.83C155.85,307.74 154.68,307.66 153.52,307.57C152.36,307.48 151.2,307.38 150.04,307.29C148.88,307.19 147.71,307.1 146.56,307C145.42,306.9 144.31,306.81 143.16000000000003,306.695C141.99,306.58 140.78,306.44 139.6,306.31C138.43,306.18 137.28,306.05 136.12,305.92C134.96,305.78 133.8,305.64 132.64,305.5C131.48,305.36 130.32,305.21 129.16,305.06C128,304.91 126.83,304.76 125.67,304.6C124.51,304.44 123.35,304.28 122.19,304.11C121.03,303.94 119.66,303.75 118.71,303.6C118.05,303.5 117.59,303.43 117.02,303.33C116.43,303.23 115.92,303.14 115.23,303.01C114.26,302.83 112.91,302.57 111.75,302.34C110.59,302.11 109.43,301.87 108.27,301.62C107.11,301.37 105.96,301.13 104.79,300.86C103.59,300.59 102.32,300.31 101.13499999999999,300.005C100,299.71 98.94,299.39 97.82,299.06C96.67,298.72 95.5,298.36 94.34,297.99C93.18,297.62 91.58,297.09 90.86,296.84C90.54,296.73 90.47,296.71 90.16,296.59C89.54,296.35 88.36,295.87 87.38,295.46C86.28,295 84.82,294.36 83.9,293.94C83.29,293.66 82.91,293.49 82.38,293.22C81.76,292.91 81.17,292.58 80.42,292.16C79.37,291.57 77.89,290.75 76.71000000000001,289.99C75.57,289.26 74.33,288.33 73.45,287.68C72.84,287.22 72.45,286.92 71.92,286.48C71.3,285.97 70.6,285.34 69.97,284.77C69.37,284.22 68.8,283.69 68.23,283.11C67.64,282.51 67.02,281.83 66.49,281.24C66.02,280.72 65.69,280.34 65.21,279.74C64.53,278.9 63.6,277.71 62.834999999999994,276.615C62.04,275.47 61.14,274 60.54,273C60.12,272.31 59.85,271.8 59.53,271.22C59.23,270.68 59.01,270.26 58.7,269.63C58.25,268.72 57.57,267.3 57.1,266.26C56.7,265.38 56.31,264.41 56.05,263.79C55.9,263.42 55.84,263.29 55.69,262.89C55.4,262.13 54.87,260.65 54.48,259.52C54.09,258.4 53.7,257.21 53.37,256.15C53.08,255.22 52.75,254.11 52.57,253.5C52.48,253.19 52.46,253.11 52.37,252.78C52.18,252.07 51.78,250.53 51.5,249.41C51.22,248.29 50.96,247.16 50.7,246.04C50.45,244.92 50.21,243.79 49.97,242.67C49.73,241.55 49.44,240.1 49.28,239.3C49.19,238.86 49.16,238.68 49.08,238.27C48.97,237.65 48.82,236.78 48.68,235.93C48.51,234.91 48.31,233.68 48.13,232.56C47.95,231.43 47.78,230.31 47.61,229.18C47.44,228.06 47.29,226.93 47.13,225.81C46.98,224.69 46.83,223.56 46.68,222.44C46.53,221.32 46.39,220.19 46.25,219.07C46.11,217.95 45.97,216.7 45.85,215.7C45.76,214.89 45.67,214.12 45.6,213.5C45.55,213.05 45.53,212.82 45.48,212.33C45.4,211.5 45.26,210.08 45.15,208.96C45.04,207.84 44.94,206.71 44.84,205.59C44.74,204.47 44.65,203.34 44.55,202.22C44.46,201.1 44.36,199.97 44.27,198.85C44.18,197.73 44.09,196.6 44,195.48C43.91,194.36 43.82,193.23 43.74,192.11C43.66,190.99 43.58,189.86 43.5,188.74C43.42,187.62 43.35,186.49 43.27,185.37C43.2,184.25 43.12,183.12 43.05,182C42.98,180.88 42.9,179.75 42.83,178.63C42.76,177.51 42.7,176.38 42.63,175.26C42.57,174.14 42.5,173.01 42.44,171.89C42.38,170.77 42.31,169.55 42.25,168.52C42.2,167.64 42.15,166.71 42.12,166.09C42.1,165.7 42.1,165.56 42.08,165.15C42.05,164.37 41.97,162.9 41.92,161.78C41.87,160.66 41.82,159.53 41.77,158.41C41.72,157.29 41.67,156.16 41.62,155.04C41.57,153.92 41.53,152.79 41.48,151.67C41.44,150.55 41.39,149.42 41.35,148.3C41.31,147.18 41.26,146.05 41.22,144.93C41.18,143.81 41.13,142.68 41.09,141.56C41.05,140.43 41.01,139.31 40.97,138.18C40.93,137.06 40.89,135.93 40.85,134.81C40.81,133.69 40.78,132.56 40.74,131.44C40.7,130.32 40.67,129.19 40.63,128.07C40.59,126.95 40.56,125.82 40.52,124.7C40.49,123.58 40.45,122.45 40.42,121.33C40.39,120.21 40.35,119.08 40.32,117.96C40.29,116.84 40.25,115.71 40.22,114.59C40.19,113.47 40.16,112.34 40.13,111.22C40.1,110.1 40.07,108.97 40.04,107.85C40.01,106.73 39.98,105.6 39.95,104.48C39.92,103.36 39.9,102.23 39.87,101.11C39.84,99.99 39.81,98.86 39.78,97.74C39.75,96.62 39.73,95.49 39.7,94.37C39.67,93.25 39.65,92.12 39.62,91C39.6,89.88 39.57,88.75 39.55,87.63C39.52,86.51 39.5,85.38 39.47,84.26C39.45,83.14 39.42,82.01 39.4,80.89C39.38,79.77 39.35,78.64 39.33,77.52C39.31,76.4 39.28,75.27 39.26,74.15C39.24,73.03 39.22,71.9 39.2,70.78C39.18,69.66 39.15,68.53 39.13,67.41C39.11,66.29 39.09,65.16 39.07,64.04C39.05,62.92 39.02,61.79 39,60.67C38.98,59.55 38.96,58.42 38.94,57.3C38.92,56.18 38.91,55.05 38.89,53.93C38.87,52.81 38.85,51.68 38.83,50.56C38.81,49.44 38.79,48.31 38.77,47.19C38.75,46.06 38.74,44.94 38.72,43.81C38.7,42.69 38.67,41.34 38.66,40.44C38.65,39.85 38.65,39.48 38.64,38.96C38.63,38.37 38.62,37.79 38.61,37.07C38.6,36.11 38.58,34.82 38.57,33.7C38.55,32.58 38.54,31.45 38.52,30.33C38.51,29.21 38.49,28.08 38.48,26.96C38.46,25.84 38.45,24.71 38.43,23.59C38.42,22.47 38.4,21.34 38.39,20.22C38.38,19.1 38.36,17.97 38.35,16.85C38.34,15.73 38.32,14.6 38.31,13.48C38.3,12.36 38.28,11.23 38.27,10.11C38.26,8.99 38.24,7.86 38.23,6.74C38.22,5.62 38.2,4.49 38.19,3.37Q38.18,2.25 38.15,0" style="stroke-miterlimit: 1; vector-effect: none; fill: none; stroke: rgb(228, 26, 28); stroke-opacity: 1; stroke-width: 3px;"/></g></g></g><g class="contour" clip-path="url(#clip8a34ef)" style="opacity: 1;"><g class="heatmapcoloring"/><g class="contourbg"/><g class="contourfill"/><g class="contourlines"><g class="contourlevel"><path class="openline" d="M345,329.11Q342.68,329.1 341.52,329.09C340.36,329.08 339.2,329.08 338.04,329.07C336.88,329.06 335.72,329.06 334.56,329.05C333.4,329.04 332.23,329.04 331.07,329.03C329.91,329.02 328.75,329.02 327.59,329.01C326.43,329 325.27,329 324.11,328.99C322.95,328.98 321.79,328.98 320.63,328.97C319.47,328.96 318.31,328.96 317.15,328.95C315.99,328.94 314.83,328.94 313.67,328.93C312.51,328.92 311.35,328.92 310.19,328.91C309.03,328.9 307.87,328.9 306.71,328.89C305.55,328.88 304.38,328.87 303.22,328.86C302.06,328.85 300.9,328.85 299.74,328.84C298.58,328.83 297.42,328.83 296.26,328.82C295.1,328.81 293.94,328.8 292.78,328.79C291.62,328.78 290.46,328.78 289.3,328.77C288.14,328.76 286.98,328.75 285.82,328.74C284.66,328.73 283.5,328.73 282.34,328.72C281.18,328.71 280.01,328.7 278.85,328.69C277.69,328.68 276.53,328.67 275.37,328.66C274.21,328.65 273.05,328.64 271.89,328.63C270.73,328.62 269.57,328.62 268.41,328.61C267.25,328.6 266.09,328.59 264.93,328.58C263.77,328.57 262.61,328.55 261.45,328.54C260.29,328.53 259.13,328.52 257.97,328.51C256.81,328.5 255.64,328.49 254.48,328.48C253.32,328.47 252.16,328.46 251,328.45C249.84,328.44 248.68,328.42 247.52,328.41C246.36,328.4 245.2,328.39 244.04,328.38C242.88,328.37 241.72,328.35 240.56,328.34C239.4,328.33 238.24,328.32 237.08,328.31C235.92,328.3 234.76,328.28 233.6,328.27C232.44,328.26 231.28,328.24 230.12,328.23C228.96,328.22 227.79,328.2 226.63,328.19C225.47,328.18 224.31,328.16 223.15,328.15C221.99,328.13 220.83,328.12 219.67,328.1C218.51,328.09 217.35,328.07 216.19,328.06C215.03,328.04 213.87,328.03 212.71,328.01C211.55,328 210.39,327.98 209.23,327.97C208.07,327.95 206.91,327.94 205.75,327.92C204.59,327.9 203.42,327.89 202.26,327.87C201.1,327.85 199.94,327.83 198.78,327.81C197.62,327.79 196.46,327.78 195.3,327.76C194.14,327.74 192.98,327.72 191.82,327.7C190.66,327.68 189.5,327.66 188.34,327.64C187.18,327.62 186.02,327.6 184.86,327.58C183.7,327.56 182.54,327.54 181.38,327.52C180.22,327.5 179.05,327.48 177.89,327.46C176.73,327.44 175.57,327.41 174.41,327.39C173.25,327.37 172.09,327.34 170.93,327.32C169.77,327.29 168.61,327.27 167.45,327.24C166.29,327.22 165.13,327.19 163.97,327.17C162.81,327.14 161.65,327.12 160.49,327.09C159.33,327.06 158.15,327.03 157.01,327C155.9,326.97 154.86,326.96 153.73000000000002,326.91499999999996C152.54,326.87 151.25,326.79 150.04,326.73C148.86,326.67 147.72,326.6 146.56,326.54C145.4,326.47 144.24,326.41 143.08,326.34C141.92,326.27 140.76,326.2 139.6,326.13C138.44,326.06 137.28,325.99 136.12,325.92C134.96,325.85 133.8,325.77 132.64,325.69C131.48,325.61 130.32,325.53 129.16,325.45C128,325.37 126.83,325.28 125.67,325.19C124.51,325.1 123.35,325.01 122.19,324.92C121.03,324.83 119.87,324.74 118.71,324.64C117.55,324.54 116.39,324.44 115.23,324.34C114.07,324.24 112.91,324.13 111.75,324.02C110.59,323.91 109.12,323.76 108.27,323.67C107.78,323.62 107.56,323.61 107.11,323.55C106.47,323.46 105.64,323.3 104.79,323.15C103.74,322.96 102.46,322.73 101.3,322.51C100.14,322.29 98.98,322.06 97.82,321.82C96.66,321.58 95.52,321.35 94.34,321.09C93.12,320.82 91.82,320.58 90.63499999999999,320.235C89.5,319.9 88.48,319.48 87.38,319.07C86.24,318.64 84.9,318.1 83.9,317.69C83.12,317.37 82.46,317.13 81.85,316.81C81.32,316.54 81,316.31 80.42,315.94C79.48,315.35 77.94,314.47 76.78,313.55C75.56,312.58 74.33,311.41 73.285,310.245C72.28,309.12 71.18,307.55 70.61,306.7C70.31,306.25 70.21,306.05 69.97,305.62C69.62,305 69.14,304.18 68.72,303.33C68.22,302.32 67.63,300.95 67.23,299.96C66.93,299.2 66.7,298.54 66.49,297.93C66.32,297.44 66.21,297.14 66.04,296.59C65.77,295.72 65.37,294.35 65.07,293.22C64.77,292.1 64.51,290.98 64.26,289.85C64.01,288.73 63.77,287.59 63.56,286.48C63.35,285.4 63.16,284.37 62.985,283.27C62.8,282.12 62.62,280.9 62.46,279.74C62.3,278.6 62.15,277.49 62.01,276.37C61.87,275.25 61.74,274.12 61.62,273C61.5,271.88 61.38,270.75 61.27,269.63C61.16,268.51 61.05,267.38 60.95,266.26C60.85,265.14 60.75,264.01 60.66,262.89C60.57,261.77 60.48,260.64 60.4,259.52C60.32,258.4 60.24,257.27 60.16,256.15C60.09,255.03 60.02,253.9 59.95,252.78C59.88,251.66 59.81,250.56 59.74,249.41C59.67,248.21 59.61,246.91 59.545,245.745C59.49,244.68 59.44,243.72 59.39,242.67C59.34,241.57 59.29,240.42 59.24,239.3C59.19,238.18 59.15,237.05 59.1,235.93C59.06,234.81 59.01,233.68 58.97,232.56C58.93,231.43 58.89,230.31 58.85,229.18C58.81,228.06 58.78,226.93 58.74,225.81C58.7,224.69 58.67,223.56 58.63,222.44C58.6,221.32 58.56,220.19 58.53,219.07C58.5,217.95 58.46,216.82 58.43,215.7C58.4,214.58 58.37,213.45 58.34,212.33C58.31,211.21 58.28,210.08 58.25,208.96C58.22,207.84 58.2,206.71 58.17,205.59C58.15,204.47 58.12,203.34 58.1,202.22C58.07,201.1 58.05,199.97 58.02,198.85C58,197.73 57.97,196.6 57.95,195.48C57.93,194.36 57.91,193.23 57.89,192.11C57.87,190.99 57.85,189.86 57.83,188.74C57.81,187.62 57.78,186.49 57.76,185.37C57.74,184.25 57.73,183.12 57.71,182C57.69,180.88 57.67,179.75 57.65,178.63C57.63,177.51 57.62,176.38 57.6,175.26C57.58,174.14 57.57,173.01 57.55,171.89C57.53,170.77 57.52,169.64 57.5,168.52C57.48,167.4 57.47,166.27 57.45,165.15C57.44,164.03 57.42,162.9 57.41,161.78C57.4,160.66 57.38,159.53 57.37,158.41C57.35,157.29 57.34,156.16 57.32,155.04C57.31,153.92 57.29,152.79 57.28,151.67C57.27,150.55 57.26,149.42 57.25,148.3C57.24,147.18 57.22,146.05 57.21,144.93C57.2,143.81 57.18,142.68 57.17,141.56C57.16,140.43 57.15,139.31 57.14,138.18C57.13,137.06 57.12,135.93 57.11,134.81C57.1,133.69 57.08,132.56 57.07,131.44C57.06,130.32 57.05,129.19 57.04,128.07C57.03,126.95 57.02,125.82 57.01,124.7C57,123.58 56.99,122.45 56.98,121.33C56.97,120.21 56.96,119.08 56.95,117.96C56.94,116.84 56.94,115.71 56.93,114.59C56.92,113.47 56.91,112.34 56.9,111.22C56.89,110.1 56.88,108.97 56.87,107.85C56.86,106.73 56.86,105.6 56.85,104.48C56.84,103.36 56.83,102.23 56.82,101.11C56.81,99.99 56.81,98.86 56.8,97.74C56.79,96.62 56.79,95.49 56.78,94.37C56.77,93.25 56.77,92.12 56.76,91C56.75,89.88 56.74,88.75 56.73,87.63C56.72,86.51 56.72,85.38 56.71,84.26C56.7,83.14 56.7,82.01 56.69,80.89C56.68,79.77 56.68,78.64 56.67,77.52C56.66,76.4 56.66,75.27 56.65,74.15C56.64,73.03 56.64,71.9 56.63,70.78C56.63,69.66 56.62,68.53 56.62,67.41C56.61,66.29 56.61,65.16 56.6,64.04C56.59,62.92 56.59,61.79 56.58,60.67C56.57,59.55 56.57,58.42 56.56,57.3C56.56,56.18 56.55,55.05 56.55,53.93C56.54,52.81 56.54,51.68 56.53,50.56C56.52,49.44 56.51,48.31 56.51,47.19C56.5,46.06 56.51,44.94 56.5,43.81C56.5,42.69 56.49,41.56 56.48,40.44C56.48,39.32 56.47,38.19 56.47,37.07C56.46,35.95 56.46,34.82 56.45,33.7C56.45,32.58 56.44,31.45 56.44,30.33C56.43,29.21 56.43,28.08 56.42,26.96C56.42,25.84 56.41,24.71 56.41,23.59C56.41,22.47 56.4,21.34 56.4,20.22C56.39,19.1 56.39,17.97 56.38,16.85C56.38,15.73 56.37,14.6 56.37,13.48C56.37,12.36 56.36,11.23 56.36,10.11C56.36,8.99 56.35,7.86 56.35,6.74C56.34,5.62 56.34,4.49 56.33,3.37Q56.33,2.25 56.32,0" style="stroke-miterlimit: 1; vector-effect: none; fill: none; stroke: rgb(55, 126, 184); stroke-opacity: 1; stroke-width: 3px;"/></g></g></g></g><g class="scatterlayer mlayer"><g class="trace scatter trace7331f3" style="stroke-miterlimit: 2; opacity: 1;"><g class="fills"/><g class="errorbars"/><g class="lines"><path class="js-line" d="M0.35,383.68L345,-33.4" style="vector-effect: none; fill: none; stroke: rgb(228, 26, 28); stroke-opacity: 1; stroke-dasharray: 9px, 9px; stroke-width: 3px; opacity: 1;"/></g><g class="points"/><g class="text"/></g><g class="trace scatter trace41dba6" style="stroke-miterlimit: 2; opacity: 1;"><g class="fills"/><g class="errorbars"/><g class="lines"><path class="js-line" d="M0.35,273.65L345,40.08" style="vector-effect: none; fill: none; stroke: rgb(55, 126, 184); stroke-opacity: 1; stroke-dasharray: 9px, 9px; stroke-width: 3px; opacity: 1;"/></g><g class="points"/><g class="text"/></g><g class="trace scatter trace1be2de" style="stroke-miterlimit: 2; opacity: 1;"><g class="fills"/><g class="errorbars"/><g class="lines"/><g class="points"><path class="point" transform="translate(207,133.6)" d="M5,0A5,5 0 1,1 0,-5A5,5 0 0,1 5,0Z" style="opacity: 1; stroke-width: 0px; fill: rgb(77, 175, 74); fill-opacity: 1;"/></g><g class="text"><g class="textpoint" transform="translate(-7.25,-10)"><text x="207" y="133.6" text-anchor="end" style="font-family: 'Open Sans', verdana, arial, sans-serif; font-size: 11px; fill: rgb(0, 0, 0); fill-opacity: 1; white-space: pre;">Supply Point</text></g></g></g></g></g></g><g class="zerolinelayer-above"/><path class="xlines-above crisp" d="M34.5,364.25H380.5M34.5,29.75H380.5" style="fill: none; stroke-width: 0.5px; stroke: rgb(0, 0, 0); stroke-opacity: 1;"/><path class="ylines-above crisp" d="M34.75,30V364M380.25,30V364" style="fill: none; stroke-width: 0.5px; stroke: rgb(0, 0, 0); stroke-opacity: 1;"/><g class="overlines-above"/><g class="xaxislayer-above"><path class="xtick ticks crisp" d="M0,364v-5" transform="translate(104,0)" style="stroke: rgb(0, 0, 0); stroke-opacity: 1; stroke-width: 0.5px;"/><path class="xtick ticks crisp" d="M0,364v-5" transform="translate(173,0)" style="stroke: rgb(0, 0, 0); stroke-opacity: 1; stroke-width: 0.5px;"/><path class="xtick ticks crisp" d="M0,364v-5" transform="translate(242,0)" style="stroke: rgb(0, 0, 0); stroke-opacity: 1; stroke-width: 0.5px;"/><path class="xtick ticks crisp" d="M0,364v-5" transform="translate(311,0)" style="stroke: rgb(0, 0, 0); stroke-opacity: 1; stroke-width: 0.5px;"/><g class="xtick"><text text-anchor="middle" x="0" y="377.7" transform="translate(35,0)" style="font-family: 'Open Sans', verdana, arial, sans-serif; font-size: 11px; fill: rgb(0, 0, 0); fill-opacity: 1; white-space: pre;">0</text></g><g class="xtick"><text text-anchor="middle" x="0" y="377.7" style="font-family: 'Open Sans', verdana, arial, sans-serif; font-size: 11px; fill: rgb(0, 0, 0); fill-opacity: 1; white-space: pre;" transform="translate(104,0)">2</text></g><g class="xtick"><text text-anchor="middle" x="0" y="377.7" style="font-family: 'Open Sans', verdana, arial, sans-serif; font-size: 11px; fill: rgb(0, 0, 0); fill-opacity: 1; white-space: pre;" transform="translate(173,0)">4</text></g><g class="xtick"><text text-anchor="middle" x="0" y="377.7" style="font-family: 'Open Sans', verdana, arial, sans-serif; font-size: 11px; fill: rgb(0, 0, 0); fill-opacity: 1; white-space: pre;" transform="translate(242,0)">6</text></g><g class="xtick"><text text-anchor="middle" x="0" y="377.7" style="font-family: 'Open Sans', verdana, arial, sans-serif; font-size: 11px; fill: rgb(0, 0, 0); fill-opacity: 1; white-space: pre;" transform="translate(311,0)">8</text></g><g class="xtick"><text text-anchor="middle" x="0" y="377.7" style="font-family: 'Open Sans', verdana, arial, sans-serif; font-size: 11px; fill: rgb(0, 0, 0); fill-opacity: 1; white-space: pre;" transform="translate(380,0)">10</text></g></g><g class="yaxislayer-above"><path class="ytick ticks crisp" d="M35,0h5" transform="translate(0,297.2)" style="stroke: rgb(0, 0, 0); stroke-opacity: 1; stroke-width: 0.5px;"/><path class="ytick ticks crisp" d="M35,0h5" transform="translate(0,230.4)" style="stroke: rgb(0, 0, 0); stroke-opacity: 1; stroke-width: 0.5px;"/><path class="ytick ticks crisp" d="M35,0h5" transform="translate(0,163.6)" style="stroke: rgb(0, 0, 0); stroke-opacity: 1; stroke-width: 0.5px;"/><path class="ytick ticks crisp" d="M35,0h5" transform="translate(0,96.8)" style="stroke: rgb(0, 0, 0); stroke-opacity: 1; stroke-width: 0.5px;"/><g class="ytick"><text text-anchor="end" x="32.3" y="3.8499999999999996" transform="translate(0,364)" style="font-family: 'Open Sans', verdana, arial, sans-serif; font-size: 11px; fill: rgb(0, 0, 0); fill-opacity: 1; white-space: pre;">0</text></g><g class="ytick"><text text-anchor="end" x="32.3" y="3.8499999999999996" style="font-family: 'Open Sans', verdana, arial, sans-serif; font-size: 11px; fill: rgb(0, 0, 0); fill-opacity: 1; white-space: pre;" transform="translate(0,297.2)">2</text></g><g class="ytick"><text text-anchor="end" x="32.3" y="3.8499999999999996" style="font-family: 'Open Sans', verdana, arial, sans-serif; font-size: 11px; fill: rgb(0, 0, 0); fill-opacity: 1; white-space: pre;" transform="translate(0,230.4)">4</text></g><g class="ytick"><text text-anchor="end" x="32.3" y="3.8499999999999996" style="font-family: 'Open Sans', verdana, arial, sans-serif; font-size: 11px; fill: rgb(0, 0, 0); fill-opacity: 1; white-space: pre;" transform="translate(0,163.6)">6</text></g><g class="ytick"><text text-anchor="end" x="32.3" y="3.8499999999999996" style="font-family: 'Open Sans', verdana, arial, sans-serif; font-size: 11px; fill: rgb(0, 0, 0); fill-opacity: 1; white-space: pre;" transform="translate(0,96.8)">8</text></g><g class="ytick"><text text-anchor="end" x="32.3" y="3.8499999999999996" style="font-family: 'Open Sans', verdana, arial, sans-serif; font-size: 11px; fill: rgb(0, 0, 0); fill-opacity: 1; white-space: pre;" transform="translate(0,30)">10</text></g></g><g class="overaxes-above"/></g></g><g class="polarlayer"/><g class="smithlayer"/><g class="ternarylayer"/><g class="geolayer"/><g class="funnelarealayer"/><g class="pielayer"/><g class="iciclelayer"/><g class="treemaplayer"/><g class="sunburstlayer"/><g class="glimages"/><defs id="topdefs-d8ce3b"><g class="clips"/><clipPath id="legendd8ce3b"><rect width="201" height="86" x="0" y="0"/></clipPath></defs><g class="layer-above"><g class="imagelayer"/><g class="shapelayer"/></g><g class="infolayer"><g class="legend" pointer-events="all" transform="translate(386.90000000000003,30)"><rect class="bg" shape-rendering="crispEdges" style="stroke: rgb(68, 68, 68); stroke-opacity: 1; fill: rgb(255, 255, 255); fill-opacity: 1; stroke-width: 0px;" width="201" height="86" x="0" y="0"/><g class="scrollbox" transform="" clip-path="url(#legendd8ce3b)"><g class="groups"><g class="traces" transform="translate(0,14.5)" style="opacity: 1;"><text class="legendtext" text-anchor="start" x="40" y="4.29" style="font-family: 'Open Sans', verdana, arial, sans-serif; font-size: 11px; fill: rgb(0, 0, 0); fill-opacity: 1; white-space: pre;">Species 1 Consumption Vector</text><g class="layers" style="opacity: 1;"><g class="legendfill"/><g class="legendlines"><path class="js-line" d="M5,0h30" style="fill: none; stroke: rgb(228, 26, 28); stroke-opacity: 1; stroke-dasharray: 9px, 9px; stroke-width: 3px;"/></g><g class="legendsymbols"><g class="legendpoints"/></g></g><rect class="legendtoggle" x="0" y="-9.5" width="195.87890625" height="19" style="fill: rgb(0, 0, 0); fill-opacity: 0;"/></g><g class="traces" transform="translate(0,33.5)" style="opacity: 1;"><text class="legendtext" text-anchor="start" x="40" y="4.29" style="font-family: 'Open Sans', verdana, arial, sans-serif; font-size: 11px; fill: rgb(0, 0, 0); fill-opacity: 1; white-space: pre;">Species 2 Consumption Vector</text><g class="layers" style="opacity: 1;"><g class="legendfill"/><g class="legendlines"><path class="js-line" d="M5,0h30" style="fill: none; stroke: rgb(55, 126, 184); stroke-opacity: 1; stroke-dasharray: 9px, 9px; stroke-width: 3px;"/></g><g class="legendsymbols"><g class="legendpoints"/></g></g><rect class="legendtoggle" x="0" y="-9.5" width="195.87890625" height="19" style="fill: rgb(0, 0, 0); fill-opacity: 0;"/></g><g class="traces" transform="translate(0,52.5)" style="opacity: 1;"><text class="legendtext" text-anchor="start" x="40" y="4.29" style="font-family: 'Open Sans', verdana, arial, sans-serif; font-size: 11px; fill: rgb(0, 0, 0); fill-opacity: 1; white-space: pre;">Species 1 ZNGI</text><g class="layers" style="opacity: 1;"><g class="legendfill"/><g class="legendlines"><path class="js-line" d="M5,0h30" style="fill: none; stroke: rgb(228, 26, 28); stroke-opacity: 1; stroke-width: 3px;"/></g><g class="legendsymbols"><g class="legendpoints"/></g></g><rect class="legendtoggle" x="0" y="-9.5" width="195.87890625" height="19" style="fill: rgb(0, 0, 0); fill-opacity: 0;"/></g><g class="traces" transform="translate(0,71.5)" style="opacity: 1;"><text class="legendtext" text-anchor="start" x="40" y="4.29" style="font-family: 'Open Sans', verdana, arial, sans-serif; font-size: 11px; fill: rgb(0, 0, 0); fill-opacity: 1; white-space: pre;">Species 2 ZNGI</text><g class="layers" style="opacity: 1;"><g class="legendfill"/><g class="legendlines"><path class="js-line" d="M5,0h30" style="fill: none; stroke: rgb(55, 126, 184); stroke-opacity: 1; stroke-width: 3px;"/></g><g class="legendsymbols"><g class="legendpoints"/></g></g><rect class="legendtoggle" x="0" y="-9.5" width="195.87890625" height="19" style="fill: rgb(0, 0, 0); fill-opacity: 0;"/></g></g></g><rect class="scrollbar" rx="20" ry="3" width="0" height="0" style="fill: rgb(128, 139, 164); fill-opacity: 1;" x="0" y="0"/></g><g class="g-gtitle"><text class="gtitle" x="30" y="15" text-anchor="start" dy="0em" style="opacity: 1; font-family: 'Open Sans', verdana, arial, sans-serif; font-size: 11px; fill: rgb(0, 0, 0); fill-opacity: 1; white-space: pre;">Zero Net Growth Isoclines (ZNGIs) mu = 0.1 1/h</text></g><g class="g-xtitle" transform="translate(0,4.550000000000011)"><text class="xtitle" x="207.5" y="388.1501953125" text-anchor="middle" style="opacity: 1; font-family: 'Open Sans', verdana, arial, sans-serif; font-size: 11px; fill: rgb(0, 0, 0); fill-opacity: 1; white-space: pre;">Resource 1 (R1)</text></g><g class="g-ytitle"><text class="ytitle" transform="rotate(-90,16.1060546875,197)" x="16.1060546875" y="197" text-anchor="middle" style="opacity: 1; font-family: 'Open Sans', verdana, arial, sans-serif; font-size: 11px; fill: rgb(0, 0, 0); fill-opacity: 1; white-space: pre;">Resource 2 (R2)</text></g></g></svg>