<svg class="main-svg" xmlns="http://www.w3.org/2000/svg" xmlns:xlink="http://www.w3.org/1999/xlink" width="700" height="500" style="" viewBox="0 0 700 500"><rect x="0" y="0" width="700" height="500" style="fill: rgb(255, 255, 255); fill-opacity: 1;"/><defs id="defs-d8f435"><g class="clips"><clipPath id="clipd8f435xyplot" class="plotclip"><rect width="568" height="427"/></clipPath><clipPath class="axesclip" id="clipd8f435x"><rect x="45" y="0" width="568" height="500"/></clipPath><clipPath class="axesclip" id="clipd8f435y"><rect x="0" y="30" width="700" height="427"/></clipPath><clipPath class="axesclip" id="clipd8f435xy"><rect x="45" y="30" width="568" height="427"/></clipPath></g><g class="gradients"><linearGradient x1="0" y1="1" x2="0" y2="0" gradientUnits="objectBoundingBox" id="gd8f435-cb903c2c"><stop offset="0%" stop-color="rgb(68, 1, 84)" stop-opacity="1"/><stop offset="11.111111%" stop-color="rgb(72, 40, 120)" stop-opacity="1"/><stop offset="22.222222%" stop-color="rgb(62, 73, 137)" stop-opacity="1"/><stop offset="33.333333%" stop-color="rgb(49, 104, 142)" stop-opacity="1"/><stop offset="44.444444%" stop-color="rgb(38, 130, 142)" stop-opacity="1"/><stop offset="55.555556%" stop-color="rgb(31, 158, 137)" stop-opacity="1"/><stop offset="66.666667%" stop-color="rgb(53, 183, 121)" stop-opacity="1"/><stop offset="77.777778%" stop-color="rgb(110, 206, 88)" stop-opacity="1"/><stop offset="88.888889%" stop-color="rgb(181, 222, 43)" stop-opacity="1"/><stop offset="100%" stop-color="rgb(253, 231, 37)" stop-opacity="1"/></linearGradient></g><g class="patterns"/></defs><g class="bglayer"/><g class="layer-below"><g class="imagelayer"/><g class="shapelayer"/></g><g class="cartesianlayer"><g class="subplot xy"><g class="layer-subplot"><g class="shapelayer"/><g class="imagelayer"/></g><g class="minor-gridlayer"><g class="x"/><g class="y"/></g><g class="gridlayer"><g class="x"><path class="xgrid crisp" transform="translate(66.97,0)" d="M0,30v427" style="stroke: rgb(128, 128, 128); stroke-opacity: 1; stroke-width: 0.2px;"/><path class="xgrid crisp" transform="translate(169.24,0)" d="M0,30v427" style="stroke: rgb(128, 128, 128); stroke-opacity: 1; stroke-width: 0.2px;"/><path class="xgrid crisp" transform="translate(271.52,0)" d="M0,30v427" style="stroke: rgb(128, 128, 128); stroke-opacity: 1; stroke-width: 0.2px;"/><path class="xgrid crisp" transform="translate(373.8,0)" d="M0,30v427" style="stroke: rgb(128, 128, 128); stroke-opacity: 1; stroke-width: 0.2px;"/><path class="xgrid crisp" transform="translate(476.07,0)" d="M0,30v427" style="stroke: rgb(128, 128, 128); stroke-opacity: 1; stroke-width: 0.2px;"/><path class="xgrid crisp" transform="translate(578.35,0)" d="M0,30v427" style="stroke: rgb(128, 128, 128); stroke-opacity: 1; stroke-width: 0.2px;"/></g><g class="y"><path class="ygrid crisp" transform="translate(0,451.85)" d="M45,0h568" style="stroke: rgb(128, 128, 128); stroke-opacity: 1; stroke-width: 0.2px;"/><path class="ygrid crisp" transform="translate(0,373)" d="M45,0h568" style="stroke: rgb(128, 128, 128); stroke-opacity: 1; stroke-width: 0.2px;"/><path class="ygrid crisp" transform="translate(0,294.15)" d="M45,0h568" style="stroke: rgb(128, 128, 128); stroke-opacity: 1; stroke-width: 0.2px;"/><path class="ygrid crisp" transform="translate(0,215.3)" d="M45,0h568" style="stroke: rgb(128, 128, 128); stroke-opacity: 1; stroke-width: 0.2px;"/><path class="ygrid crisp" transform="translate(0,136.45)" d="M45,0h568" style="stroke: rgb(128, 128, 128); stroke-opacity: 1; stroke-width: 0.2px;"/><path class="ygrid crisp" transform="translate(0,57.6)" d="M45,0h568" style="stroke: rgb(128, 128, 128); stroke-opacity: 1; stroke-width: 0.2px;"/></g></g><g class="zerolinelayer"/><g class="layer-between"><g class="shapelayer"/><g class="imagelayer"/></g><path class="xlines-below"/><path class="ylines-below"/><g class="overlines-below"/><g class="xaxislayer-below"/><g class="yaxislayer-below"/><g class="overaxes-below"/><g class="overplot"><g class="xy" transform="translate(45,30)" clip-path="url(#clipd8f435xyplot)"><g class="scatterlayer mlayer"><g class="trace scatter trace903c2c" style="stroke-miterlimit: 2; opacity: 1;"><g class="fills"/><g class="errorbars"/><g class="lines"/><g class="points"><path class="point" transform="translate(533.35,303.57)" d="M-5.77,2.5H5.77L0,-5Z" style="opacity: 1; stroke-width: 0px; fill: rgb(68, 1, 84); fill-opacity: 1;"/><path class="point" transform="translate(528.49,305.1)" d="M-5.77,2.5H5.77L0,-5Z" style="opacity: 1; stroke-width: 0px; fill: rgb(68, 5, 87); fill-opacity: 1;"/><path class="point" transform="translate(523.43,306.63)" d="M-5.77,2.5H5.77L0,-5Z" style="opacity: 1; stroke-width: 0px; fill: rgb(69, 8, 91); fill-opacity: 1;"/><path class="point" transform="translate(518.19,308.16)" d="M-5.77,2.5H5.77L0,-5Z" style="opacity: 1; stroke-width: 0px; fill: rgb(69, 12, 94); fill-opacity: 1;"/><path class="point" transform="translate(512.74,309.69)" d="M-5.77,2.5H5.77L0,-5Z" style="opacity: 1; stroke-width: 0px; fill: rgb(69, 15, 97); fill-opacity: 1;"/><path class="point" transform="translate(507.08,311.22)" d="M-5.77,2.5H5.77L0,-5Z" style="opacity: 1; stroke-width: 0px; fill: rgb(70, 19, 100); fill-opacity: 1;"/><path class="point" transform="translate(501.21,312.75)" d="M-5.77,2.5H5.77L0,-5Z" style="opacity: 1; stroke-width: 0px; fill: rgb(70, 22, 104); fill-opacity: 1;"/><path class="point" transform="translate(495.1,314.28)" d="M-5.77,2.5H5.77L0,-5Z" style="opacity: 1; stroke-width: 0px; fill: rgb(71, 26, 107); fill-opacity: 1;"/><path class="point" transform="translate(488.76,315.81)" d="M-5.77,2.5H5.77L0,-5Z" style="opacity: 1; stroke-width: 0px; fill: rgb(71, 29, 110); fill-opacity: 1;"/><path class="point" transform="translate(482.16,317.33)" d="M-5.77,2.5H5.77L0,-5Z" style="opacity: 1; stroke-width: 0px; fill: rgb(71, 33, 113); fill-opacity: 1;"/><path class="point" transform="translate(475.31,318.86)" d="M-5.77,2.5H5.77L0,-5Z" style="opacity: 1; stroke-width: 0px; fill: rgb(72, 36, 117); fill-opacity: 1;"/><path class="point" transform="translate(468.18,320.38)" d="M-5.77,2.5H5.77L0,-5Z" style="opacity: 1; stroke-width: 0px; fill: rgb(72, 40, 120); fill-opacity: 1;"/><path class="point" transform="translate(460.77,321.91)" d="M-5.77,2.5H5.77L0,-5Z" style="opacity: 1; stroke-width: 0px; fill: rgb(71, 43, 122); fill-opacity: 1;"/><path class="point" transform="translate(453.06,323.43)" d="M-5.77,2.5H5.77L0,-5Z" style="opacity: 1; stroke-width: 0px; fill: rgb(70, 46, 123); fill-opacity: 1;"/><path class="point" transform="translate(445.04,324.95)" d="M-5.77,2.5H5.77L0,-5Z" style="opacity: 1; stroke-width: 0px; fill: rgb(69, 49, 125); fill-opacity: 1;"/><path class="point" transform="translate(436.7,326.47)" d="M-5.77,2.5H5.77L0,-5Z" style="opacity: 1; stroke-width: 0px; fill: rgb(68, 52, 126); fill-opacity: 1;"/><path class="point" transform="translate(428.02,327.99)" d="M-5.77,2.5H5.77L0,-5Z" style="opacity: 1; stroke-width: 0px; fill: rgb(67, 55, 128); fill-opacity: 1;"/><path class="point" transform="translate(418.98,329.5)" d="M-5.77,2.5H5.77L0,-5Z" style="opacity: 1; stroke-width: 0px; fill: rgb(67, 58, 129); fill-opacity: 1;"/><path class="point" transform="translate(409.57,331.01)" d="M-5.77,2.5H5.77L0,-5Z" style="opacity: 1; stroke-width: 0px; fill: rgb(66, 61, 131); fill-opacity: 1;"/><path class="point" transform="translate(399.77,332.52)" d="M-5.77,2.5H5.77L0,-5Z" style="opacity: 1; stroke-width: 0px; fill: rgb(65, 64, 132); fill-opacity: 1;"/><path class="point" transform="translate(389.56,334.02)" d="M-5.77,2.5H5.77L0,-5Z" style="opacity: 1; stroke-width: 0px; fill: rgb(64, 67, 134); fill-opacity: 1;"/><path class="point" transform="translate(378.92,335.52)" d="M-5.77,2.5H5.77L0,-5Z" style="opacity: 1; stroke-width: 0px; fill: rgb(63, 70, 135); fill-opacity: 1;"/><path class="point" transform="translate(367.84,337.01)" d="M-5.77,2.5H5.77L0,-5Z" style="opacity: 1; stroke-width: 0px; fill: rgb(62, 73, 137); fill-opacity: 1;"/><path class="point" transform="translate(356.3,338.49)" d="M-5.77,2.5H5.77L0,-5Z" style="opacity: 1; stroke-width: 0px; fill: rgb(61, 76, 137); fill-opacity: 1;"/><path class="point" transform="translate(344.27,339.96)" d="M-5.77,2.5H5.77L0,-5Z" style="opacity: 1; stroke-width: 0px; fill: rgb(60, 79, 138); fill-opacity: 1;"/><path class="point" transform="translate(331.73,341.43)" d="M-5.77,2.5H5.77L0,-5Z" style="opacity: 1; stroke-width: 0px; fill: rgb(58, 81, 138); fill-opacity: 1;"/><path class="point" transform="translate(318.67,342.88)" d="M-5.77,2.5H5.77L0,-5Z" style="opacity: 1; stroke-width: 0px; fill: rgb(57, 84, 139); fill-opacity: 1;"/><path class="point" transform="translate(305.08,344.32)" d="M-5.77,2.5H5.77L0,-5Z" style="opacity: 1; stroke-width: 0px; fill: rgb(56, 87, 139); fill-opacity: 1;"/><path class="point" transform="translate(290.93,345.73)" d="M-5.77,2.5H5.77L0,-5Z" style="opacity: 1; stroke-width: 0px; fill: rgb(55, 90, 140); fill-opacity: 1;"/><path class="point" transform="translate(276.21,347.13)" d="M-5.77,2.5H5.77L0,-5Z" style="opacity: 1; stroke-width: 0px; fill: rgb(54, 93, 140); fill-opacity: 1;"/><path class="point" transform="translate(260.94,348.5)" d="M-5.77,2.5H5.77L0,-5Z" style="opacity: 1; stroke-width: 0px; fill: rgb(53, 96, 141); fill-opacity: 1;"/><path class="point" transform="translate(245.11,349.82)" d="M-5.77,2.5H5.77L0,-5Z" style="opacity: 1; stroke-width: 0px; fill: rgb(51, 98, 141); fill-opacity: 1;"/><path class="point" transform="translate(228.76,351.11)" d="M-5.77,2.5H5.77L0,-5Z" style="opacity: 1; stroke-width: 0px; fill: rgb(50, 101, 142); fill-opacity: 1;"/><path class="point" transform="translate(211.95,352.33)" d="M-5.77,2.5H5.77L0,-5Z" style="opacity: 1; stroke-width: 0px; fill: rgb(49, 104, 142); fill-opacity: 1;"/><path class="point" transform="translate(194.77,353.47)" d="M-5.77,2.5H5.77L0,-5Z" style="opacity: 1; stroke-width: 0px; fill: rgb(48, 106, 142); fill-opacity: 1;"/><path class="point" transform="translate(177.38,354.51)" d="M-5.77,2.5H5.77L0,-5Z" style="opacity: 1; stroke-width: 0px; fill: rgb(47, 109, 142); fill-opacity: 1;"/><path class="point" transform="translate(160,355.42)" d="M-5.77,2.5H5.77L0,-5Z" style="opacity: 1; stroke-width: 0px; fill: rgb(46, 111, 142); fill-opacity: 1;"/><path class="point" transform="translate(142.95,356.14)" d="M-5.77,2.5H5.77L0,-5Z" style="opacity: 1; stroke-width: 0px; fill: rgb(45, 113, 142); fill-opacity: 1;"/><path class="point" transform="translate(126.66,356.62)" d="M-5.77,2.5H5.77L0,-5Z" style="opacity: 1; stroke-width: 0px; fill: rgb(44, 116, 142); fill-opacity: 1;"/><path class="point" transform="translate(111.59,356.81)" d="M-5.77,2.5H5.77L0,-5Z" style="opacity: 1; stroke-width: 0px; fill: rgb(43, 118, 142); fill-opacity: 1;"/><path class="point" transform="translate(98.18,356.66)" d="M-5.77,2.5H5.77L0,-5Z" style="opacity: 1; stroke-width: 0px; fill: rgb(42, 121, 142); fill-opacity: 1;"/><path class="point" transform="translate(86.69,356.13)" d="M-5.77,2.5H5.77L0,-5Z" style="opacity: 1; stroke-width: 0px; fill: rgb(41, 123, 142); fill-opacity: 1;"/><path class="point" transform="translate(77.18,355.22)" d="M-5.77,2.5H5.77L0,-5Z" style="opacity: 1; stroke-width: 0px; fill: rgb(40, 125, 142); fill-opacity: 1;"/><path class="point" transform="translate(69.48,353.95)" d="M-5.77,2.5H5.77L0,-5Z" style="opacity: 1; stroke-width: 0px; fill: rgb(39, 128, 142); fill-opacity: 1;"/><path class="point" transform="translate(63.32,352.35)" d="M-5.77,2.5H5.77L0,-5Z" style="opacity: 1; stroke-width: 0px; fill: rgb(38, 130, 142); fill-opacity: 1;"/><path class="point" transform="translate(58.39,350.44)" d="M-5.77,2.5H5.77L0,-5Z" style="opacity: 1; stroke-width: 0px; fill: rgb(37, 133, 142); fill-opacity: 1;"/><path class="point" transform="translate(54.42,348.25)" d="M-5.77,2.5H5.77L0,-5Z" style="opacity: 1; stroke-width: 0px; fill: rgb(37, 135, 141); fill-opacity: 1;"/><path class="point" transform="translate(51.21,345.8)" d="M-5.77,2.5H5.77L0,-5Z" style="opacity: 1; stroke-width: 0px; fill: rgb(36, 138, 141); fill-opacity: 1;"/><path class="point" transform="translate(48.58,343.08)" d="M-5.77,2.5H5.77L0,-5Z" style="opacity: 1; stroke-width: 0px; fill: rgb(35, 140, 140); fill-opacity: 1;"/><path class="point" transform="translate(46.4,340.11)" d="M-5.77,2.5H5.77L0,-5Z" style="opacity: 1; stroke-width: 0px; fill: rgb(35, 143, 140); fill-opacity: 1;"/><path class="point" transform="translate(44.59,336.87)" d="M-5.77,2.5H5.77L0,-5Z" style="opacity: 1; stroke-width: 0px; fill: rgb(34, 145, 139); fill-opacity: 1;"/><path class="point" transform="translate(43.06,333.37)" d="M-5.77,2.5H5.77L0,-5Z" style="opacity: 1; stroke-width: 0px; fill: rgb(34, 148, 139); fill-opacity: 1;"/><path class="point" transform="translate(41.76,329.6)" d="M-5.77,2.5H5.77L0,-5Z" style="opacity: 1; stroke-width: 0px; fill: rgb(33, 150, 138); fill-opacity: 1;"/><path class="point" transform="translate(40.65,325.54)" d="M-5.77,2.5H5.77L0,-5Z" style="opacity: 1; stroke-width: 0px; fill: rgb(32, 153, 138); fill-opacity: 1;"/><path class="point" transform="translate(39.7,321.19)" d="M-5.77,2.5H5.77L0,-5Z" style="opacity: 1; stroke-width: 0px; fill: rgb(32, 155, 137); fill-opacity: 1;"/><path class="point" transform="translate(38.89,316.54)" d="M-5.77,2.5H5.77L0,-5Z" style="opacity: 1; stroke-width: 0px; fill: rgb(31, 158, 137); fill-opacity: 1;"/><path class="point" transform="translate(38.19,311.59)" d="M-5.77,2.5H5.77L0,-5Z" style="opacity: 1; stroke-width: 0px; fill: rgb(33, 160, 136); fill-opacity: 1;"/><path class="point" transform="translate(37.58,306.33)" d="M-5.77,2.5H5.77L0,-5Z" style="opacity: 1; stroke-width: 0px; fill: rgb(35, 163, 134); fill-opacity: 1;"/><path class="point" transform="translate(37.06,300.77)" d="M-5.77,2.5H5.77L0,-5Z" style="opacity: 1; stroke-width: 0px; fill: rgb(37, 165, 133); fill-opacity: 1;"/><path class="point" transform="translate(36.61,294.9)" d="M-5.77,2.5H5.77L0,-5Z" style="opacity: 1; stroke-width: 0px; fill: rgb(39, 167, 131); fill-opacity: 1;"/><path class="point" transform="translate(36.23,288.73)" d="M-5.77,2.5H5.77L0,-5Z" style="opacity: 1; stroke-width: 0px; fill: rgb(41, 169, 130); fill-opacity: 1;"/><path class="point" transform="translate(35.9,282.27)" d="M-5.77,2.5H5.77L0,-5Z" style="opacity: 1; stroke-width: 0px; fill: rgb(43, 172, 128); fill-opacity: 1;"/><path class="point" transform="translate(35.62,275.55)" d="M-5.77,2.5H5.77L0,-5Z" style="opacity: 1; stroke-width: 0px; fill: rgb(45, 174, 127); fill-opacity: 1;"/><path class="point" transform="translate(35.39,268.58)" d="M-5.77,2.5H5.77L0,-5Z" style="opacity: 1; stroke-width: 0px; fill: rgb(47, 176, 125); fill-opacity: 1;"/><path class="point" transform="translate(35.19,261.39)" d="M-5.77,2.5H5.77L0,-5Z" style="opacity: 1; stroke-width: 0px; fill: rgb(49, 178, 124); fill-opacity: 1;"/><path class="point" transform="translate(35.04,254.01)" d="M-5.77,2.5H5.77L0,-5Z" style="opacity: 1; stroke-width: 0px; fill: rgb(51, 181, 122); fill-opacity: 1;"/><path class="point" transform="translate(34.91,246.46)" d="M-5.77,2.5H5.77L0,-5Z" style="opacity: 1; stroke-width: 0px; fill: rgb(53, 183, 121); fill-opacity: 1;"/><path class="point" transform="translate(34.81,238.78)" d="M-5.77,2.5H5.77L0,-5Z" style="opacity: 1; stroke-width: 0px; fill: rgb(58, 185, 118); fill-opacity: 1;"/><path class="point" transform="translate(34.74,230.99)" d="M-5.77,2.5H5.77L0,-5Z" style="opacity: 1; stroke-width: 0px; fill: rgb(63, 187, 115); fill-opacity: 1;"/><path class="point" transform="translate(34.69,223.14)" d="M-5.77,2.5H5.77L0,-5Z" style="opacity: 1; stroke-width: 0px; fill: rgb(69, 189, 112); fill-opacity: 1;"/><path class="point" transform="translate(34.66,215.24)" d="M-5.77,2.5H5.77L0,-5Z" style="opacity: 1; stroke-width: 0px; fill: rgb(74, 191, 109); fill-opacity: 1;"/><path class="point" transform="translate(34.65,207.33)" d="M-5.77,2.5H5.77L0,-5Z" style="opacity: 1; stroke-width: 0px; fill: rgb(79, 193, 106); fill-opacity: 1;"/><path class="point" transform="translate(34.65,199.43)" d="M-5.77,2.5H5.77L0,-5Z" style="opacity: 1; stroke-width: 0px; fill: rgb(84, 196, 103); fill-opacity: 1;"/><path class="point" transform="translate(34.67,191.57)" d="M-5.77,2.5H5.77L0,-5Z" style="opacity: 1; stroke-width: 0px; fill: rgb(89, 198, 100); fill-opacity: 1;"/><path class="point" transform="translate(34.71,183.76)" d="M-5.77,2.5H5.77L0,-5Z" style="opacity: 1; stroke-width: 0px; fill: rgb(94, 200, 97); fill-opacity: 1;"/><path class="point" transform="translate(34.75,176.02)" d="M-5.77,2.5H5.77L0,-5Z" style="opacity: 1; stroke-width: 0px; fill: rgb(100, 202, 94); fill-opacity: 1;"/><path class="point" transform="translate(34.8,168.37)" d="M-5.77,2.5H5.77L0,-5Z" style="opacity: 1; stroke-width: 0px; fill: rgb(105, 204, 91); fill-opacity: 1;"/><path class="point" transform="translate(34.86,160.82)" d="M-5.77,2.5H5.77L0,-5Z" style="opacity: 1; stroke-width: 0px; fill: rgb(110, 206, 88); fill-opacity: 1;"/><path class="point" transform="translate(34.94,153.38)" d="M-5.77,2.5H5.77L0,-5Z" style="opacity: 1; stroke-width: 0px; fill: rgb(116, 207, 84); fill-opacity: 1;"/><path class="point" transform="translate(35.01,146.06)" d="M-5.77,2.5H5.77L0,-5Z" style="opacity: 1; stroke-width: 0px; fill: rgb(123, 209, 80); fill-opacity: 1;"/><path class="point" transform="translate(35.1,138.87)" d="M-5.77,2.5H5.77L0,-5Z" style="opacity: 1; stroke-width: 0px; fill: rgb(129, 210, 76); fill-opacity: 1;"/><path class="point" transform="translate(35.19,131.8)" d="M-5.77,2.5H5.77L0,-5Z" style="opacity: 1; stroke-width: 0px; fill: rgb(136, 212, 72); fill-opacity: 1;"/><path class="point" transform="translate(35.28,124.87)" d="M-5.77,2.5H5.77L0,-5Z" style="opacity: 1; stroke-width: 0px; fill: rgb(142, 213, 68); fill-opacity: 1;"/><path class="point" transform="translate(35.38,118.08)" d="M-5.77,2.5H5.77L0,-5Z" style="opacity: 1; stroke-width: 0px; fill: rgb(149, 215, 63); fill-opacity: 1;"/><path class="point" transform="translate(35.48,111.43)" d="M-5.77,2.5H5.77L0,-5Z" style="opacity: 1; stroke-width: 0px; fill: rgb(155, 216, 59); fill-opacity: 1;"/><path class="point" transform="translate(35.59,104.92)" d="M-5.77,2.5H5.77L0,-5Z" style="opacity: 1; stroke-width: 0px; fill: rgb(162, 218, 55); fill-opacity: 1;"/><path class="point" transform="translate(35.7,98.54)" d="M-5.77,2.5H5.77L0,-5Z" style="opacity: 1; stroke-width: 0px; fill: rgb(168, 219, 51); fill-opacity: 1;"/><path class="point" transform="translate(35.81,92.31)" d="M-5.77,2.5H5.77L0,-5Z" style="opacity: 1; stroke-width: 0px; fill: rgb(175, 221, 47); fill-opacity: 1;"/><path class="point" transform="translate(35.93,86.21)" d="M-5.77,2.5H5.77L0,-5Z" style="opacity: 1; stroke-width: 0px; fill: rgb(181, 222, 43); fill-opacity: 1;"/><path class="point" transform="translate(36.05,80.25)" d="M-5.77,2.5H5.77L0,-5Z" style="opacity: 1; stroke-width: 0px; fill: rgb(188, 223, 42); fill-opacity: 1;"/><path class="point" transform="translate(36.17,74.42)" d="M-5.77,2.5H5.77L0,-5Z" style="opacity: 1; stroke-width: 0px; fill: rgb(194, 224, 42); fill-opacity: 1;"/><path class="point" transform="translate(36.29,68.73)" d="M-5.77,2.5H5.77L0,-5Z" style="opacity: 1; stroke-width: 0px; fill: rgb(201, 224, 41); fill-opacity: 1;"/><path class="point" transform="translate(36.41,63.16)" d="M-5.77,2.5H5.77L0,-5Z" style="opacity: 1; stroke-width: 0px; fill: rgb(207, 225, 41); fill-opacity: 1;"/><path class="point" transform="translate(36.54,57.72)" d="M-5.77,2.5H5.77L0,-5Z" style="opacity: 1; stroke-width: 0px; fill: rgb(214, 226, 40); fill-opacity: 1;"/><path class="point" transform="translate(36.66,52.41)" d="M-5.77,2.5H5.77L0,-5Z" style="opacity: 1; stroke-width: 0px; fill: rgb(220, 227, 40); fill-opacity: 1;"/><path class="point" transform="translate(36.79,47.22)" d="M-5.77,2.5H5.77L0,-5Z" style="opacity: 1; stroke-width: 0px; fill: rgb(227, 228, 39); fill-opacity: 1;"/><path class="point" transform="translate(36.92,42.14)" d="M-5.77,2.5H5.77L0,-5Z" style="opacity: 1; stroke-width: 0px; fill: rgb(233, 229, 39); fill-opacity: 1;"/><path class="point" transform="translate(37.05,37.18)" d="M-5.77,2.5H5.77L0,-5Z" style="opacity: 1; stroke-width: 0px; fill: rgb(240, 229, 38); fill-opacity: 1;"/><path class="point" transform="translate(37.18,32.34)" d="M-5.77,2.5H5.77L0,-5Z" style="opacity: 1; stroke-width: 0px; fill: rgb(246, 230, 38); fill-opacity: 1;"/><path class="point" transform="translate(37.31,27.6)" d="M-5.77,2.5H5.77L0,-5Z" style="opacity: 1; stroke-width: 0px; fill: rgb(253, 231, 37); fill-opacity: 1;"/></g><g class="text"/></g><g class="trace scatter trace98fecc" style="stroke-miterlimit: 2; opacity: 1;"><g class="fills"/><g class="errorbars"/><g class="lines"/><g class="points"><path class="point" transform="translate(533.35,398.19)" d="M5,0A5,5 0 1,1 0,-5A5,5 0 0,1 5,0Z" style="opacity: 1; stroke-width: 0px; fill: rgb(68, 1, 84); fill-opacity: 1;"/><path class="point" transform="translate(527.9,398.3)" d="M5,0A5,5 0 1,1 0,-5A5,5 0 0,1 5,0Z" style="opacity: 1; stroke-width: 0px; fill: rgb(68, 5, 87); fill-opacity: 1;"/><path class="point" transform="translate(522.35,398.4)" d="M5,0A5,5 0 1,1 0,-5A5,5 0 0,1 5,0Z" style="opacity: 1; stroke-width: 0px; fill: rgb(69, 8, 91); fill-opacity: 1;"/><path class="point" transform="translate(516.68,398.5)" d="M5,0A5,5 0 1,1 0,-5A5,5 0 0,1 5,0Z" style="opacity: 1; stroke-width: 0px; fill: rgb(69, 12, 94); fill-opacity: 1;"/><path class="point" transform="translate(510.91,398.59)" d="M5,0A5,5 0 1,1 0,-5A5,5 0 0,1 5,0Z" style="opacity: 1; stroke-width: 0px; fill: rgb(69, 15, 97); fill-opacity: 1;"/><path class="point" transform="translate(505.03,398.69)" d="M5,0A5,5 0 1,1 0,-5A5,5 0 0,1 5,0Z" style="opacity: 1; stroke-width: 0px; fill: rgb(70, 19, 100); fill-opacity: 1;"/><path class="point" transform="translate(499.03,398.78)" d="M5,0A5,5 0 1,1 0,-5A5,5 0 0,1 5,0Z" style="opacity: 1; stroke-width: 0px; fill: rgb(70, 22, 104); fill-opacity: 1;"/><path class="point" transform="translate(492.92,398.86)" d="M5,0A5,5 0 1,1 0,-5A5,5 0 0,1 5,0Z" style="opacity: 1; stroke-width: 0px; fill: rgb(71, 26, 107); fill-opacity: 1;"/><path class="point" transform="translate(486.69,398.94)" d="M5,0A5,5 0 1,1 0,-5A5,5 0 0,1 5,0Z" style="opacity: 1; stroke-width: 0px; fill: rgb(71, 29, 110); fill-opacity: 1;"/><path class="point" transform="translate(480.35,399.02)" d="M5,0A5,5 0 1,1 0,-5A5,5 0 0,1 5,0Z" style="opacity: 1; stroke-width: 0px; fill: rgb(71, 33, 113); fill-opacity: 1;"/><path class="point" transform="translate(473.9,399.09)" d="M5,0A5,5 0 1,1 0,-5A5,5 0 0,1 5,0Z" style="opacity: 1; stroke-width: 0px; fill: rgb(72, 36, 117); fill-opacity: 1;"/><path class="point" transform="translate(467.33,399.16)" d="M5,0A5,5 0 1,1 0,-5A5,5 0 0,1 5,0Z" style="opacity: 1; stroke-width: 0px; fill: rgb(72, 40, 120); fill-opacity: 1;"/><path class="point" transform="translate(460.65,399.22)" d="M5,0A5,5 0 1,1 0,-5A5,5 0 0,1 5,0Z" style="opacity: 1; stroke-width: 0px; fill: rgb(71, 43, 122); fill-opacity: 1;"/><path class="point" transform="translate(453.85,399.27)" d="M5,0A5,5 0 1,1 0,-5A5,5 0 0,1 5,0Z" style="opacity: 1; stroke-width: 0px; fill: rgb(70, 46, 123); fill-opacity: 1;"/><path class="point" transform="translate(446.94,399.31)" d="M5,0A5,5 0 1,1 0,-5A5,5 0 0,1 5,0Z" style="opacity: 1; stroke-width: 0px; fill: rgb(69, 49, 125); fill-opacity: 1;"/><path class="point" transform="translate(439.92,399.35)" d="M5,0A5,5 0 1,1 0,-5A5,5 0 0,1 5,0Z" style="opacity: 1; stroke-width: 0px; fill: rgb(68, 52, 126); fill-opacity: 1;"/><path class="point" transform="translate(432.8,399.38)" d="M5,0A5,5 0 1,1 0,-5A5,5 0 0,1 5,0Z" style="opacity: 1; stroke-width: 0px; fill: rgb(67, 55, 128); fill-opacity: 1;"/><path class="point" transform="translate(425.57,399.39)" d="M5,0A5,5 0 1,1 0,-5A5,5 0 0,1 5,0Z" style="opacity: 1; stroke-width: 0px; fill: rgb(67, 58, 129); fill-opacity: 1;"/><path class="point" transform="translate(418.24,399.4)" d="M5,0A5,5 0 1,1 0,-5A5,5 0 0,1 5,0Z" style="opacity: 1; stroke-width: 0px; fill: rgb(66, 61, 131); fill-opacity: 1;"/><path class="point" transform="translate(410.82,399.39)" d="M5,0A5,5 0 1,1 0,-5A5,5 0 0,1 5,0Z" style="opacity: 1; stroke-width: 0px; fill: rgb(65, 64, 132); fill-opacity: 1;"/><path class="point" transform="translate(403.3,399.37)" d="M5,0A5,5 0 1,1 0,-5A5,5 0 0,1 5,0Z" style="opacity: 1; stroke-width: 0px; fill: rgb(64, 67, 134); fill-opacity: 1;"/><path class="point" transform="translate(395.71,399.34)" d="M5,0A5,5 0 1,1 0,-5A5,5 0 0,1 5,0Z" style="opacity: 1; stroke-width: 0px; fill: rgb(63, 70, 135); fill-opacity: 1;"/><path class="point" transform="translate(388.04,399.29)" d="M5,0A5,5 0 1,1 0,-5A5,5 0 0,1 5,0Z" style="opacity: 1; stroke-width: 0px; fill: rgb(62, 73, 137); fill-opacity: 1;"/><path class="point" transform="translate(380.31,399.22)" d="M5,0A5,5 0 1,1 0,-5A5,5 0 0,1 5,0Z" style="opacity: 1; stroke-width: 0px; fill: rgb(61, 76, 137); fill-opacity: 1;"/><path class="point" transform="translate(372.51,399.14)" d="M5,0A5,5 0 1,1 0,-5A5,5 0 0,1 5,0Z" style="opacity: 1; stroke-width: 0px; fill: rgb(60, 79, 138); fill-opacity: 1;"/><path class="point" transform="translate(364.68,399.03)" d="M5,0A5,5 0 1,1 0,-5A5,5 0 0,1 5,0Z" style="opacity: 1; stroke-width: 0px; fill: rgb(58, 81, 138); fill-opacity: 1;"/><path class="point" transform="translate(356.81,398.89)" d="M5,0A5,5 0 1,1 0,-5A5,5 0 0,1 5,0Z" style="opacity: 1; stroke-width: 0px; fill: rgb(57, 84, 139); fill-opacity: 1;"/><path class="point" transform="translate(348.92,398.74)" d="M5,0A5,5 0 1,1 0,-5A5,5 0 0,1 5,0Z" style="opacity: 1; stroke-width: 0px; fill: rgb(56, 87, 139); fill-opacity: 1;"/><path class="point" transform="translate(341.03,398.55)" d="M5,0A5,5 0 1,1 0,-5A5,5 0 0,1 5,0Z" style="opacity: 1; stroke-width: 0px; fill: rgb(55, 90, 140); fill-opacity: 1;"/><path class="point" transform="translate(333.14,398.33)" d="M5,0A5,5 0 1,1 0,-5A5,5 0 0,1 5,0Z" style="opacity: 1; stroke-width: 0px; fill: rgb(54, 93, 140); fill-opacity: 1;"/><path class="point" transform="translate(325.28,398.07)" d="M5,0A5,5 0 1,1 0,-5A5,5 0 0,1 5,0Z" style="opacity: 1; stroke-width: 0px; fill: rgb(53, 96, 141); fill-opacity: 1;"/><path class="point" transform="translate(317.47,397.78)" d="M5,0A5,5 0 1,1 0,-5A5,5 0 0,1 5,0Z" style="opacity: 1; stroke-width: 0px; fill: rgb(51, 98, 141); fill-opacity: 1;"/><path class="point" transform="translate(309.71,397.44)" d="M5,0A5,5 0 1,1 0,-5A5,5 0 0,1 5,0Z" style="opacity: 1; stroke-width: 0px; fill: rgb(50, 101, 142); fill-opacity: 1;"/><path class="point" transform="translate(302.03,397.05)" d="M5,0A5,5 0 1,1 0,-5A5,5 0 0,1 5,0Z" style="opacity: 1; stroke-width: 0px; fill: rgb(49, 104, 142); fill-opacity: 1;"/><path class="point" transform="translate(294.45,396.6)" d="M5,0A5,5 0 1,1 0,-5A5,5 0 0,1 5,0Z" style="opacity: 1; stroke-width: 0px; fill: rgb(48, 106, 142); fill-opacity: 1;"/><path class="point" transform="translate(286.98,396.1)" d="M5,0A5,5 0 1,1 0,-5A5,5 0 0,1 5,0Z" style="opacity: 1; stroke-width: 0px; fill: rgb(47, 109, 142); fill-opacity: 1;"/><path class="point" transform="translate(279.65,395.52)" d="M5,0A5,5 0 1,1 0,-5A5,5 0 0,1 5,0Z" style="opacity: 1; stroke-width: 0px; fill: rgb(46, 111, 142); fill-opacity: 1;"/><path class="point" transform="translate(272.47,394.87)" d="M5,0A5,5 0 1,1 0,-5A5,5 0 0,1 5,0Z" style="opacity: 1; stroke-width: 0px; fill: rgb(45, 113, 142); fill-opacity: 1;"/><path class="point" transform="translate(265.46,394.13)" d="M5,0A5,5 0 1,1 0,-5A5,5 0 0,1 5,0Z" style="opacity: 1; stroke-width: 0px; fill: rgb(44, 116, 142); fill-opacity: 1;"/><path class="point" transform="translate(258.63,393.29)" d="M5,0A5,5 0 1,1 0,-5A5,5 0 0,1 5,0Z" style="opacity: 1; stroke-width: 0px; fill: rgb(43, 118, 142); fill-opacity: 1;"/><path class="point" transform="translate(252,392.33)" d="M5,0A5,5 0 1,1 0,-5A5,5 0 0,1 5,0Z" style="opacity: 1; stroke-width: 0px; fill: rgb(42, 121, 142); fill-opacity: 1;"/><path class="point" transform="translate(245.6,391.25)" d="M5,0A5,5 0 1,1 0,-5A5,5 0 0,1 5,0Z" style="opacity: 1; stroke-width: 0px; fill: rgb(41, 123, 142); fill-opacity: 1;"/><path class="point" transform="translate(239.42,390.01)" d="M5,0A5,5 0 1,1 0,-5A5,5 0 0,1 5,0Z" style="opacity: 1; stroke-width: 0px; fill: rgb(40, 125, 142); fill-opacity: 1;"/><path class="point" transform="translate(233.5,388.6)" d="M5,0A5,5 0 1,1 0,-5A5,5 0 0,1 5,0Z" style="opacity: 1; stroke-width: 0px; fill: rgb(39, 128, 142); fill-opacity: 1;"/><path class="point" transform="translate(227.84,386.99)" d="M5,0A5,5 0 1,1 0,-5A5,5 0 0,1 5,0Z" style="opacity: 1; stroke-width: 0px; fill: rgb(38, 130, 142); fill-opacity: 1;"/><path class="point" transform="translate(222.46,385.14)" d="M5,0A5,5 0 1,1 0,-5A5,5 0 0,1 5,0Z" style="opacity: 1; stroke-width: 0px; fill: rgb(37, 133, 142); fill-opacity: 1;"/><path class="point" transform="translate(217.37,383.01)" d="M5,0A5,5 0 1,1 0,-5A5,5 0 0,1 5,0Z" style="opacity: 1; stroke-width: 0px; fill: rgb(37, 135, 141); fill-opacity: 1;"/><path class="point" transform="translate(212.6,380.56)" d="M5,0A5,5 0 1,1 0,-5A5,5 0 0,1 5,0Z" style="opacity: 1; stroke-width: 0px; fill: rgb(36, 138, 141); fill-opacity: 1;"/><path class="point" transform="translate(208.16,377.72)" d="M5,0A5,5 0 1,1 0,-5A5,5 0 0,1 5,0Z" style="opacity: 1; stroke-width: 0px; fill: rgb(35, 140, 140); fill-opacity: 1;"/><path class="point" transform="translate(204.09,374.42)" d="M5,0A5,5 0 1,1 0,-5A5,5 0 0,1 5,0Z" style="opacity: 1; stroke-width: 0px; fill: rgb(35, 143, 140); fill-opacity: 1;"/><path class="point" transform="translate(200.4,370.58)" d="M5,0A5,5 0 1,1 0,-5A5,5 0 0,1 5,0Z" style="opacity: 1; stroke-width: 0px; fill: rgb(34, 145, 139); fill-opacity: 1;"/><path class="point" transform="translate(197.13,366.11)" d="M5,0A5,5 0 1,1 0,-5A5,5 0 0,1 5,0Z" style="opacity: 1; stroke-width: 0px; fill: rgb(34, 148, 139); fill-opacity: 1;"/><path class="point" transform="translate(194.32,360.9)" d="M5,0A5,5 0 1,1 0,-5A5,5 0 0,1 5,0Z" style="opacity: 1; stroke-width: 0px; fill: rgb(33, 150, 138); fill-opacity: 1;"/><path class="point" transform="translate(192.01,354.86)" d="M5,0A5,5 0 1,1 0,-5A5,5 0 0,1 5,0Z" style="opacity: 1; stroke-width: 0px; fill: rgb(32, 153, 138); fill-opacity: 1;"/><path class="point" transform="translate(190.23,347.89)" d="M5,0A5,5 0 1,1 0,-5A5,5 0 0,1 5,0Z" style="opacity: 1; stroke-width: 0px; fill: rgb(32, 155, 137); fill-opacity: 1;"/><path class="point" transform="translate(189.01,339.93)" d="M5,0A5,5 0 1,1 0,-5A5,5 0 0,1 5,0Z" style="opacity: 1; stroke-width: 0px; fill: rgb(31, 158, 137); fill-opacity: 1;"/><path class="point" transform="translate(188.38,330.99)" d="M5,0A5,5 0 1,1 0,-5A5,5 0 0,1 5,0Z" style="opacity: 1; stroke-width: 0px; fill: rgb(33, 160, 136); fill-opacity: 1;"/><path class="point" transform="translate(188.33,321.11)" d="M5,0A5,5 0 1,1 0,-5A5,5 0 0,1 5,0Z" style="opacity: 1; stroke-width: 0px; fill: rgb(35, 163, 134); fill-opacity: 1;"/><path class="point" transform="translate(188.83,310.42)" d="M5,0A5,5 0 1,1 0,-5A5,5 0 0,1 5,0Z" style="opacity: 1; stroke-width: 0px; fill: rgb(37, 165, 133); fill-opacity: 1;"/><path class="point" transform="translate(189.85,299.08)" d="M5,0A5,5 0 1,1 0,-5A5,5 0 0,1 5,0Z" style="opacity: 1; stroke-width: 0px; fill: rgb(39, 167, 131); fill-opacity: 1;"/><path class="point" transform="translate(191.33,287.28)" d="M5,0A5,5 0 1,1 0,-5A5,5 0 0,1 5,0Z" style="opacity: 1; stroke-width: 0px; fill: rgb(41, 169, 130); fill-opacity: 1;"/><path class="point" transform="translate(193.2,275.22)" d="M5,0A5,5 0 1,1 0,-5A5,5 0 0,1 5,0Z" style="opacity: 1; stroke-width: 0px; fill: rgb(43, 172, 128); fill-opacity: 1;"/><path class="point" transform="translate(195.4,263.08)" d="M5,0A5,5 0 1,1 0,-5A5,5 0 0,1 5,0Z" style="opacity: 1; stroke-width: 0px; fill: rgb(45, 174, 127); fill-opacity: 1;"/><path class="point" transform="translate(197.88,251)" d="M5,0A5,5 0 1,1 0,-5A5,5 0 0,1 5,0Z" style="opacity: 1; stroke-width: 0px; fill: rgb(47, 176, 125); fill-opacity: 1;"/><path class="point" transform="translate(200.59,239.1)" d="M5,0A5,5 0 1,1 0,-5A5,5 0 0,1 5,0Z" style="opacity: 1; stroke-width: 0px; fill: rgb(49, 178, 124); fill-opacity: 1;"/><path class="point" transform="translate(203.49,227.46)" d="M5,0A5,5 0 1,1 0,-5A5,5 0 0,1 5,0Z" style="opacity: 1; stroke-width: 0px; fill: rgb(51, 181, 122); fill-opacity: 1;"/><path class="point" transform="translate(206.55,216.15)" d="M5,0A5,5 0 1,1 0,-5A5,5 0 0,1 5,0Z" style="opacity: 1; stroke-width: 0px; fill: rgb(53, 183, 121); fill-opacity: 1;"/><path class="point" transform="translate(209.73,205.2)" d="M5,0A5,5 0 1,1 0,-5A5,5 0 0,1 5,0Z" style="opacity: 1; stroke-width: 0px; fill: rgb(58, 185, 118); fill-opacity: 1;"/><path class="point" transform="translate(213.02,194.66)" d="M5,0A5,5 0 1,1 0,-5A5,5 0 0,1 5,0Z" style="opacity: 1; stroke-width: 0px; fill: rgb(63, 187, 115); fill-opacity: 1;"/><path class="point" transform="translate(216.39,184.52)" d="M5,0A5,5 0 1,1 0,-5A5,5 0 0,1 5,0Z" style="opacity: 1; stroke-width: 0px; fill: rgb(69, 189, 112); fill-opacity: 1;"/><path class="point" transform="translate(219.84,174.79)" d="M5,0A5,5 0 1,1 0,-5A5,5 0 0,1 5,0Z" style="opacity: 1; stroke-width: 0px; fill: rgb(74, 191, 109); fill-opacity: 1;"/><path class="point" transform="translate(223.34,165.48)" d="M5,0A5,5 0 1,1 0,-5A5,5 0 0,1 5,0Z" style="opacity: 1; stroke-width: 0px; fill: rgb(79, 193, 106); fill-opacity: 1;"/><path class="point" transform="translate(226.9,156.58)" d="M5,0A5,5 0 1,1 0,-5A5,5 0 0,1 5,0Z" style="opacity: 1; stroke-width: 0px; fill: rgb(84, 196, 103); fill-opacity: 1;"/><path class="point" transform="translate(230.5,148.07)" d="M5,0A5,5 0 1,1 0,-5A5,5 0 0,1 5,0Z" style="opacity: 1; stroke-width: 0px; fill: rgb(89, 198, 100); fill-opacity: 1;"/><path class="point" transform="translate(234.13,139.96)" d="M5,0A5,5 0 1,1 0,-5A5,5 0 0,1 5,0Z" style="opacity: 1; stroke-width: 0px; fill: rgb(94, 200, 97); fill-opacity: 1;"/><path class="point" transform="translate(237.8,132.22)" d="M5,0A5,5 0 1,1 0,-5A5,5 0 0,1 5,0Z" style="opacity: 1; stroke-width: 0px; fill: rgb(100, 202, 94); fill-opacity: 1;"/><path class="point" transform="translate(241.49,124.84)" d="M5,0A5,5 0 1,1 0,-5A5,5 0 0,1 5,0Z" style="opacity: 1; stroke-width: 0px; fill: rgb(105, 204, 91); fill-opacity: 1;"/><path class="point" transform="translate(245.2,117.81)" d="M5,0A5,5 0 1,1 0,-5A5,5 0 0,1 5,0Z" style="opacity: 1; stroke-width: 0px; fill: rgb(110, 206, 88); fill-opacity: 1;"/><path class="point" transform="translate(248.93,111.12)" d="M5,0A5,5 0 1,1 0,-5A5,5 0 0,1 5,0Z" style="opacity: 1; stroke-width: 0px; fill: rgb(116, 207, 84); fill-opacity: 1;"/><path class="point" transform="translate(252.68,104.75)" d="M5,0A5,5 0 1,1 0,-5A5,5 0 0,1 5,0Z" style="opacity: 1; stroke-width: 0px; fill: rgb(123, 209, 80); fill-opacity: 1;"/><path class="point" transform="translate(256.44,98.68)" d="M5,0A5,5 0 1,1 0,-5A5,5 0 0,1 5,0Z" style="opacity: 1; stroke-width: 0px; fill: rgb(129, 210, 76); fill-opacity: 1;"/><path class="point" transform="translate(260.21,92.92)" d="M5,0A5,5 0 1,1 0,-5A5,5 0 0,1 5,0Z" style="opacity: 1; stroke-width: 0px; fill: rgb(136, 212, 72); fill-opacity: 1;"/><path class="point" transform="translate(264,87.43)" d="M5,0A5,5 0 1,1 0,-5A5,5 0 0,1 5,0Z" style="opacity: 1; stroke-width: 0px; fill: rgb(142, 213, 68); fill-opacity: 1;"/><path class="point" transform="translate(267.79,82.22)" d="M5,0A5,5 0 1,1 0,-5A5,5 0 0,1 5,0Z" style="opacity: 1; stroke-width: 0px; fill: rgb(149, 215, 63); fill-opacity: 1;"/><path class="point" transform="translate(271.58,77.27)" d="M5,0A5,5 0 1,1 0,-5A5,5 0 0,1 5,0Z" style="opacity: 1; stroke-width: 0px; fill: rgb(155, 216, 59); fill-opacity: 1;"/><path class="point" transform="translate(275.39,72.56)" d="M5,0A5,5 0 1,1 0,-5A5,5 0 0,1 5,0Z" style="opacity: 1; stroke-width: 0px; fill: rgb(162, 218, 55); fill-opacity: 1;"/><path class="point" transform="translate(279.19,68.09)" d="M5,0A5,5 0 1,1 0,-5A5,5 0 0,1 5,0Z" style="opacity: 1; stroke-width: 0px; fill: rgb(168, 219, 51); fill-opacity: 1;"/><path class="point" transform="translate(283.01,63.85)" d="M5,0A5,5 0 1,1 0,-5A5,5 0 0,1 5,0Z" style="opacity: 1; stroke-width: 0px; fill: rgb(175, 221, 47); fill-opacity: 1;"/><path class="point" transform="translate(286.82,59.83)" d="M5,0A5,5 0 1,1 0,-5A5,5 0 0,1 5,0Z" style="opacity: 1; stroke-width: 0px; fill: rgb(181, 222, 43); fill-opacity: 1;"/><path class="point" transform="translate(290.64,56.02)" d="M5,0A5,5 0 1,1 0,-5A5,5 0 0,1 5,0Z" style="opacity: 1; stroke-width: 0px; fill: rgb(188, 223, 42); fill-opacity: 1;"/><path class="point" transform="translate(294.46,52.4)" d="M5,0A5,5 0 1,1 0,-5A5,5 0 0,1 5,0Z" style="opacity: 1; stroke-width: 0px; fill: rgb(194, 224, 42); fill-opacity: 1;"/><path class="point" transform="translate(298.28,48.98)" d="M5,0A5,5 0 1,1 0,-5A5,5 0 0,1 5,0Z" style="opacity: 1; stroke-width: 0px; fill: rgb(201, 224, 41); fill-opacity: 1;"/><path class="point" transform="translate(302.09,45.74)" d="M5,0A5,5 0 1,1 0,-5A5,5 0 0,1 5,0Z" style="opacity: 1; stroke-width: 0px; fill: rgb(207, 225, 41); fill-opacity: 1;"/><path class="point" transform="translate(305.91,42.67)" d="M5,0A5,5 0 1,1 0,-5A5,5 0 0,1 5,0Z" style="opacity: 1; stroke-width: 0px; fill: rgb(214, 226, 40); fill-opacity: 1;"/><path class="point" transform="translate(309.73,39.78)" d="M5,0A5,5 0 1,1 0,-5A5,5 0 0,1 5,0Z" style="opacity: 1; stroke-width: 0px; fill: rgb(220, 227, 40); fill-opacity: 1;"/><path class="point" transform="translate(313.55,37.04)" d="M5,0A5,5 0 1,1 0,-5A5,5 0 0,1 5,0Z" style="opacity: 1; stroke-width: 0px; fill: rgb(227, 228, 39); fill-opacity: 1;"/><path class="point" transform="translate(317.37,34.47)" d="M5,0A5,5 0 1,1 0,-5A5,5 0 0,1 5,0Z" style="opacity: 1; stroke-width: 0px; fill: rgb(233, 229, 39); fill-opacity: 1;"/><path class="point" transform="translate(321.18,32.04)" d="M5,0A5,5 0 1,1 0,-5A5,5 0 0,1 5,0Z" style="opacity: 1; stroke-width: 0px; fill: rgb(240, 229, 38); fill-opacity: 1;"/><path class="point" transform="translate(325,29.75)" d="M5,0A5,5 0 1,1 0,-5A5,5 0 0,1 5,0Z" style="opacity: 1; stroke-width: 0px; fill: rgb(246, 230, 38); fill-opacity: 1;"/><path class="point" transform="translate(328.81,27.6)" d="M5,0A5,5 0 1,1 0,-5A5,5 0 0,1 5,0Z" style="opacity: 1; stroke-width: 0px; fill: rgb(253, 231, 37); fill-opacity: 1;"/></g><g class="text"/></g></g></g></g><g class="zerolinelayer-above"/><path class="xlines-above crisp" d="M44.5,457.25H613.5M44.5,29.75H613.5" style="fill: none; stroke-width: 0.5px; stroke: rgb(0, 0, 0); stroke-opacity: 1;"/><path class="ylines-above crisp" d="M44.75,30V457M613.25,30V457" style="fill: none; stroke-width: 0.5px; stroke: rgb(0, 0, 0); stroke-opacity: 1;"/><g class="overlines-above"/><g class="xaxislayer-above"><path class="xtick ticks crisp" d="M0,457v-5" transform="translate(66.97,0)" style="stroke: rgb(0, 0, 0); stroke-opacity: 1; stroke-width: 0.5px;"/><path class="xtick ticks crisp" d="M0,457v-5" transform="translate(169.24,0)" style="stroke: rgb(0, 0, 0); stroke-opacity: 1; stroke-width: 0.5px;"/><path class="xtick ticks crisp" d="M0,457v-5" transform="translate(271.52,0)" style="stroke: rgb(0, 0, 0); stroke-opacity: 1; stroke-width: 0.5px;"/><path class="xtick ticks crisp" d="M0,457v-5" transform="translate(373.8,0)" style="stroke: rgb(0, 0, 0); stroke-opacity: 1; stroke-width: 0.5px;"/><path class="xtick ticks crisp" d="M0,457v-5" transform="translate(476.07,0)" style="stroke: rgb(0, 0, 0); stroke-opacity: 1; stroke-width: 0.5px;"/><path class="xtick ticks crisp" d="M0,457v-5" transform="translate(578.35,0)" style="stroke: rgb(0, 0, 0); stroke-opacity: 1; stroke-width: 0.5px;"/><g class="xtick"><text text-anchor="middle" x="0" y="474.3" transform="translate(66.97,0)" style="font-family: 'Open Sans', verdana, arial, sans-serif; font-size: 14px; fill: rgb(0, 0, 0); fill-opacity: 1; white-space: pre;">0</text></g><g class="xtick"><text text-anchor="middle" x="0" y="474.3" style="font-family: 'Open Sans', verdana, arial, sans-serif; font-size: 14px; fill: rgb(0, 0, 0); fill-opacity: 1; white-space: pre;" transform="translate(169.24,0)">0.2</text></g><g class="xtick"><text text-anchor="middle" x="0" y="474.3" style="font-family: 'Open Sans', verdana, arial, sans-serif; font-size: 14px; fill: rgb(0, 0, 0); fill-opacity: 1; white-space: pre;" transform="translate(271.52,0)">0.4</text></g><g class="xtick"><text text-anchor="middle" x="0" y="474.3" style="font-family: 'Open Sans', verdana, arial, sans-serif; font-size: 14px; fill: rgb(0, 0, 0); fill-opacity: 1; white-space: pre;" transform="translate(373.8,0)">0.6</text></g><g class="xtick"><text text-anchor="middle" x="0" y="474.3" style="font-family: 'Open Sans', verdana, arial, sans-serif; font-size: 14px; fill: rgb(0, 0, 0); fill-opacity: 1; white-space: pre;" transform="translate(476.07,0)">0.8</text></g><g class="xtick"><text text-anchor="middle" x="0" y="474.3" style="font-family: 'Open Sans', verdana, arial, sans-serif; font-size: 14px; fill: rgb(0, 0, 0); fill-opacity: 1; white-space: pre;" transform="translate(578.35,0)">1</text></g></g><g class="yaxislayer-above"><path class="ytick ticks crisp" d="M45,0h5" transform="translate(0,451.85)" style="stroke: rgb(0, 0, 0); stroke-opacity: 1; stroke-width: 0.5px;"/><path class="ytick ticks crisp" d="M45,0h5" transform="translate(0,373)" style="stroke: rgb(0, 0, 0); stroke-opacity: 1; stroke-width: 0.5px;"/><path class="ytick ticks crisp" d="M45,0h5" transform="translate(0,294.15)" style="stroke: rgb(0, 0, 0); stroke-opacity: 1; stroke-width: 0.5px;"/><path class="ytick ticks crisp" d="M45,0h5" transform="translate(0,215.3)" style="stroke: rgb(0, 0, 0); stroke-opacity: 1; stroke-width: 0.5px;"/><path class="ytick ticks crisp" d="M45,0h5" transform="translate(0,136.45)" style="stroke: rgb(0, 0, 0); stroke-opacity: 1; stroke-width: 0.5px;"/><path class="ytick ticks crisp" d="M45,0h5" transform="translate(0,57.6)" style="stroke: rgb(0, 0, 0); stroke-opacity: 1; stroke-width: 0.5px;"/><g class="ytick"><text text-anchor="end" x="41.7" y="4.8999999999999995" transform="translate(0,451.85)" style="font-family: 'Open Sans', verdana, arial, sans-serif; font-size: 14px; fill: rgb(0, 0, 0); fill-opacity: 1; white-space: pre;">0</text></g><g class="ytick"><text text-anchor="end" x="41.7" y="4.8999999999999995" style="font-family: 'Open Sans', verdana, arial, sans-serif; font-size: 14px; fill: rgb(0, 0, 0); fill-opacity: 1; white-space: pre;" transform="translate(0,373)">0.2</text></g><g class="ytick"><text text-anchor="end" x="41.7" y="4.8999999999999995" style="font-family: 'Open Sans', verdana, arial, sans-serif; font-size: 14px; fill: rgb(0, 0, 0); fill-opacity: 1; white-space: pre;" transform="translate(0,294.15)">0.4</text></g><g class="ytick"><text text-anchor="end" x="41.7" y="4.8999999999999995" style="font-family: 'Open Sans', verdana, arial, sans-serif; font-size: 14px; fill: rgb(0, 0, 0); fill-opacity: 1; white-space: pre;" transform="translate(0,215.3)">0.6</text></g><g class="ytick"><text text-anchor="end" x="41.7" y="4.8999999999999995" style="font-family: 'Open Sans', verdana, arial, sans-serif; font-size: 14px; fill: rgb(0, 0, 0); fill-opacity: 1; white-space: pre;" transform="translate(0,136.45)">0.8</text></g><g class="ytick"><text text-anchor="end" x="41.7" y="4.8999999999999995" style="font-family: 'Open Sans', verdana, arial, sans-serif; font-size: 14px; fill: rgb(0, 0, 0); fill-opacity: 1; white-space: pre;" transform="translate(0,57.6)">1</text></g></g><g class="overaxes-above"/></g></g><g class="polarlayer"/><g class="smithlayer"/><g class="ternarylayer"/><g class="geolayer"/><g class="funnelarealayer"/><g class="pielayer"/><g class="iciclelayer"/><g class="treemaplayer"/><g class="sunburstlayer"/><g class="glimages"/><defs id="topdefs-d8f435"><g class="clips"/><clipPath id="legendd8f435"><rect width="64" height="53" x="0" y="0"/></clipPath></defs><g class="layer-above"><g class="imagelayer"/><g class="shapelayer"/></g><g class="infolayer"><g class="legend" pointer-events="all" transform="translate(624.36,30)"><rect class="bg" shape-rendering="crispEdges" style="stroke: rgb(68, 68, 68); stroke-opacity: 1; fill: rgb(255, 255, 255); fill-opacity: 1; stroke-width: 0px;" width="64" height="53" x="0" y="0"/><g class="scrollbox" transform="" clip-path="url(#legendd8f435)"><g class="groups"><g class="traces" transform="translate(0,15.6)" style="opacity: 1;"><text class="legendtext" text-anchor="start" x="40" y="5.46" style="font-family: 'Open Sans', verdana, arial, sans-serif; font-size: 14px; fill: rgb(0, 0, 0); fill-opacity: 1; white-space: pre;">At</text><g class="layers" style="opacity: 1;"><g class="legendfill"/><g class="legendlines"/><g class="legendsymbols"><g class="legendpoints"><path class="scatterpts" transform="translate(20,0)" d="M-5.77,2.5H5.77L0,-5Z" style="opacity: 1; stroke-width: 0px; fill: rgb(68, 1, 84); fill-opacity: 1;"/></g></g></g><rect class="legendtoggle" x="0" y="-10.6" width="58.703125" height="21.2" style="fill: rgb(0, 0, 0); fill-opacity: 0;"/></g><g class="traces" transform="translate(0,36.8)" style="opacity: 1;"><text class="legendtext" text-anchor="start" x="40" y="5.46" style="font-family: 'Open Sans', verdana, arial, sans-serif; font-size: 14px; fill: rgb(0, 0, 0); fill-opacity: 1; white-space: pre;">Oa</text><g class="layers" style="opacity: 1;"><g class="legendfill"/><g class="legendlines"/><g class="legendsymbols"><g class="legendpoints"><path class="scatterpts" transform="translate(20,0)" d="M5,0A5,5 0 1,1 0,-5A5,5 0 0,1 5,0Z" style="opacity: 1; stroke-width: 0px; fill: rgb(68, 1, 84); fill-opacity: 1;"/></g></g></g><rect class="legendtoggle" x="0" y="-10.6" width="58.703125" height="21.2" style="fill: rgb(0, 0, 0); fill-opacity: 0;"/></g></g></g><rect class="scrollbar" rx="20" ry="3" width="0" height="0" style="fill: rgb(128, 139, 164); fill-opacity: 1;" x="0" y="0"/></g><g class="cb903c2c colorbar" transform="translate(45,30)"><rect class="cbbg" x="578.5" y="96" width="54.75" height="236" style="fill: rgb(0, 0, 0); fill-opacity: 0; stroke: rgb(68, 68, 68); stroke-opacity: 1; stroke-width: 0;"/><g class="cbfills" transform="translate(0,134)"><rect class="cbfill gradient_filled" style="fill: url('#gd8f435-cb903c2c');" x="589" y="0" width="14" height="187"/></g><g class="cblines" transform="translate(0,134)"/><g class="cbaxis crisp" transform="translate(0,-30)"><g class="ycb903c2ctick"><text text-anchor="start" x="606.8" y="4.8999999999999995" transform="translate(0,351)" style="font-family: 'Open Sans', verdana, arial, sans-serif; font-size: 14px; fill: rgb(0, 0, 0); fill-opacity: 1; white-space: pre;">0</text></g><g class="ycb903c2ctick"><text text-anchor="start" x="606.8" y="4.8999999999999995" style="font-family: 'Open Sans', verdana, arial, sans-serif; font-size: 14px; fill: rgb(0, 0, 0); fill-opacity: 1; white-space: pre;" transform="translate(0,313.6)">0.2</text></g><g class="ycb903c2ctick"><text text-anchor="start" x="606.8" y="4.8999999999999995" style="font-family: 'Open Sans', verdana, arial, sans-serif; font-size: 14px; fill: rgb(0, 0, 0); fill-opacity: 1; white-space: pre;" transform="translate(0,276.2)">0.4</text></g><g class="ycb903c2ctick"><text text-anchor="start" x="606.8" y="4.8999999999999995" style="font-family: 'Open Sans', verdana, arial, sans-serif; font-size: 14px; fill: rgb(0, 0, 0); fill-opacity: 1; white-space: pre;" transform="translate(0,238.8)">0.6</text></g><g class="ycb903c2ctick"><text text-anchor="start" x="606.8" y="4.8999999999999995" style="font-family: 'Open Sans', verdana, arial, sans-serif; font-size: 14px; fill: rgb(0, 0, 0); fill-opacity: 1; white-space: pre;" transform="translate(0,201.4)">0.8</text></g><g class="ycb903c2ctick"><text text-anchor="start" x="606.8" y="4.8999999999999995" style="font-family: 'Open Sans', verdana, arial, sans-serif; font-size: 14px; fill: rgb(0, 0, 0); fill-opacity: 1; white-space: pre;" transform="translate(0,164)">1</text></g></g><g class="cbtitleunshift" transform="translate(-45,-30)"><g class="cbtitle" transform="translate(-0.5,-0.5)"><text class="ycb903c2ctitle" x="634.36" y="151.75" text-anchor="start" style="opacity: 1; font-family: 'Open Sans', verdana, arial, sans-serif; font-size: 17px; fill: rgb(0, 0, 0); fill-opacity: 1; white-space: pre;">a</text></g></g><rect class="cboutline" x="589" y="134" width="14" height="187" style="stroke: rgb(68, 68, 68); stroke-opacity: 1; fill: none; stroke-width: 1;"/></g><g class="g-gtitle"><text class="gtitle" x="35" y="15" text-anchor="start" dy="0em" style="opacity: 1; font-family: 'Open Sans', verdana, arial, sans-serif; font-size: 14px; fill: rgb(0, 0, 0); fill-opacity: 1; white-space: pre;">Mono-culture</text></g><g class="g-xtitle" transform="translate(0,5.449999999999989)"><text class="xtitle" x="329" y="487.8498046875" text-anchor="middle" style="opacity: 1; font-family: 'Open Sans', verdana, arial, sans-serif; font-size: 14px; fill: rgb(0, 0, 0); fill-opacity: 1; white-space: pre;">Succinate [mM]</text></g><g class="g-ytitle"><text class="ytitle" transform="rotate(-90,17.3001953125,243.5)" x="17.3001953125" y="243.5" text-anchor="middle" style="opacity: 1; font-family: 'Open Sans', verdana, arial, sans-serif; font-size: 14px; fill: rgb(0, 0, 0); fill-opacity: 1; white-space: pre;">Glucose [mM]</text></g></g></svg>