<svg class="main-svg" xmlns="http://www.w3.org/2000/svg" xmlns:xlink="http://www.w3.org/1999/xlink" width="700" height="500" style="" viewBox="0 0 700 500"><rect x="0" y="0" width="700" height="500" style="fill: rgb(255, 255, 255); fill-opacity: 1;"/><defs id="defs-5e19a4"><g class="clips"><clipPath id="clip5e19a4xyplot" class="plotclip"><rect width="492" height="121.52000000000001"/></clipPath><clipPath id="clip5e19a4x2y2plot" class="plotclip"><rect width="492" height="121.51999999999997"/></clipPath><clipPath id="clip5e19a4x3y3plot" class="plotclip"><rect width="492" height="121.51999999999998"/></clipPath><clipPath class="axesclip" id="clip5e19a4x"><rect x="38" y="0" width="492" height="500"/></clipPath><clipPath class="axesclip" id="clip5e19a4y"><rect x="0" y="30" width="700" height="121.52000000000001"/></clipPath><clipPath class="axesclip" id="clip5e19a4xy"><rect x="38" y="30" width="492" height="121.52000000000001"/></clipPath><clipPath class="axesclip" id="clip5e19a4y2"><rect x="0" y="186.24000000000004" width="700" height="121.51999999999997"/></clipPath><clipPath class="axesclip" id="clip5e19a4xy2"><rect x="38" y="186.24000000000004" width="492" height="121.51999999999997"/></clipPath><clipPath class="axesclip" id="clip5e19a4y3"><rect x="0" y="342.47999999999996" width="700" height="121.51999999999998"/></clipPath><clipPath class="axesclip" id="clip5e19a4xy3"><rect x="38" y="342.47999999999996" width="492" height="121.51999999999998"/></clipPath><clipPath class="axesclip" id="clip5e19a4x2"><rect x="38" y="0" width="492" height="500"/></clipPath><clipPath class="axesclip" id="clip5e19a4x2y"><rect x="38" y="30" width="492" height="121.52000000000001"/></clipPath><clipPath class="axesclip" id="clip5e19a4x2y2"><rect x="38" y="186.24000000000004" width="492" height="121.51999999999997"/></clipPath><clipPath class="axesclip" id="clip5e19a4x2y3"><rect x="38" y="342.47999999999996" width="492" height="121.51999999999998"/></clipPath><clipPath class="axesclip" id="clip5e19a4x3"><rect x="38" y="0" width="492" height="500"/></clipPath><clipPath class="axesclip" id="clip5e19a4x3y"><rect x="38" y="30" width="492" height="121.52000000000001"/></clipPath><clipPath class="axesclip" id="clip5e19a4x3y2"><rect x="38" y="186.24000000000004" width="492" height="121.51999999999997"/></clipPath><clipPath class="axesclip" id="clip5e19a4x3y3"><rect x="38" y="342.47999999999996" width="492" height="121.51999999999998"/></clipPath></g><g class="gradients"/><g class="patterns"/></defs><g class="bglayer"/><g class="layer-below"><g class="imagelayer"/><g class="shapelayer"/></g><g class="cartesianlayer"><g class="subplot xy"><g class="layer-subplot"><g class="shapelayer"/><g class="imagelayer"/></g><g class="minor-gridlayer"><g class="x"/><g class="y"/></g><g class="gridlayer"><g class="x"><path class="xgrid crisp" transform="translate(108.79,0)" d="M0,30v121.52000000000001" style="stroke: rgb(128, 128, 128); stroke-opacity: 1; stroke-width: 0.2px;"/><path class="xgrid crisp" transform="translate(179.57,0)" d="M0,30v121.52000000000001" style="stroke: rgb(128, 128, 128); stroke-opacity: 1; stroke-width: 0.2px;"/><path class="xgrid crisp" transform="translate(250.36,0)" d="M0,30v121.52000000000001" style="stroke: rgb(128, 128, 128); stroke-opacity: 1; stroke-width: 0.2px;"/><path class="xgrid crisp" transform="translate(321.15,0)" d="M0,30v121.52000000000001" style="stroke: rgb(128, 128, 128); stroke-opacity: 1; stroke-width: 0.2px;"/><path class="xgrid crisp" transform="translate(391.93,0)" d="M0,30v121.52000000000001" style="stroke: rgb(128, 128, 128); stroke-opacity: 1; stroke-width: 0.2px;"/><path class="xgrid crisp" transform="translate(462.72,0)" d="M0,30v121.52000000000001" style="stroke: rgb(128, 128, 128); stroke-opacity: 1; stroke-width: 0.2px;"/></g><g class="y"><path class="ygrid crisp" transform="translate(0,145.82999999999998)" d="M38,0h492" style="stroke: rgb(128, 128, 128); stroke-opacity: 1; stroke-width: 0.2px;"/><path class="ygrid crisp" transform="translate(0,97.56)" d="M38,0h492" style="stroke: rgb(128, 128, 128); stroke-opacity: 1; stroke-width: 0.2px;"/><path class="ygrid crisp" transform="translate(0,49.3)" d="M38,0h492" style="stroke: rgb(128, 128, 128); stroke-opacity: 1; stroke-width: 0.2px;"/></g></g><g class="zerolinelayer"/><g class="layer-between"><g class="shapelayer"/><g class="imagelayer"/></g><path class="xlines-below"/><path class="ylines-below"/><g class="overlines-below"/><g class="xaxislayer-below"/><g class="yaxislayer-below"/><g class="overaxes-below"/><g class="overplot"><g class="xy" transform="translate(38,30)" clip-path="url(#clip5e19a4xyplot)"><g class="scatterlayer mlayer"><g class="trace scatter trace694e17" style="stroke-miterlimit: 2; opacity: 1;"><g class="fills"/><g class="errorbars"/><g class="lines"><path class="js-line" d="M0,115.31L35.41,114.61L38.94,114.59L67.25,113.53L70.9,113.28L85.06,111.71L89.78,110.96L95.57,110.11L99.24,109.38L113.38,105.67L118.09,104.07L120.36,103.42L123.88,103.46L127.53,101.04L132.25,99.82L138.04,96.66L141.68,94.92L148.69,92.66L152.22,89.73L162.83,86.99L166.36,85.03L170.01,84.03L174.73,81.14L180.54,76.81L184.17,76.41L191.14,71.38L194.66,71.32L203.06,69.7L205.32,68.74L219.45,66.06L222.98,65.51L240.81,65.02L245.51,63.79L247.76,66.44L251.32,67.34L259.69,58.19L261.95,63.44L265.49,55.35L269.11,49.39L273.85,43.03L276.07,42.56L283.27,36.09L288.02,33.87L302.14,25.86L304.39,30.29L311.61,24.56L316.31,23.45L325.76,23.94L330.46,24.57L332.72,24.68L336.24,26.01L339.9,25.92L344.64,26.57L346.87,27.03L350.4,26.97L383.19,28.24L387.57,27.55L389.45,28L395.45,27.8L398.52,28.18L401.56,27.78L438.99,29.02L443.74,28.46L445.99,29.04L449.5,28.96L463.66,28.95L467.31,29.43L492,29.65" style="vector-effect: none; fill: none; stroke: rgb(71, 43, 121); stroke-opacity: 1; stroke-width: 1.5px; opacity: 1;"/></g><g class="points"/><g class="text"/></g><g class="trace scatter tracea114ce" style="stroke-miterlimit: 2; opacity: 1;"><g class="fills"/><g class="errorbars"/><g class="lines"><path class="js-line" d="M0,115.42L58.86,114.21L62.6,113.94L70.9,113.73L75.62,113.47L103.95,109.21L106.21,108.71L123.88,103.99L127.53,101.82L134.5,99.51L138.04,97.24L141.68,96.15L146.4,93.83L148.69,94.22L152.22,90.48L162.83,87.91L166.36,85.57L170.01,84.42L174.73,81.86L180.54,78.01L184.17,76.31L194.66,70.81L198.35,70.25L208.83,67.97L212.47,66.6L222.98,64.29L226.63,63.76L240.81,62.28L245.51,60.48L247.76,62.89L251.32,63.25L254.96,61.92L259.69,58.78L261.95,62.09L265.49,57.2L273.85,46.57L276.07,46.12L283.27,38.68L288.02,36.32L290.24,34.43L293.8,32.54L304.39,25.38L307.92,24.28L311.61,24.88L316.31,23.22L318.56,21.15L322.09,20.95L332.72,20.66L336.24,21.53L339.9,21.62L344.64,20.32L346.87,22.06L350.4,22.4L368.21,22.63L374.91,22.66L379.47,22.71L383.19,22.62L389.45,22.28L395.45,21.88L398.52,22.31L401.56,21.93L403.52,21.34L407.02,21.32L417.65,20.84L421.18,20.55L492,15.17" style="vector-effect: none; fill: none; stroke: rgb(71, 43, 121); stroke-opacity: 1; stroke-width: 1.5px; opacity: 1;"/></g><g class="points"/><g class="text"/></g><g class="trace scatter tracec4b94a" style="stroke-miterlimit: 2; opacity: 1;"><g class="fills"/><g class="errorbars"/><g class="lines"><path class="js-line" d="M0,115.34L58.86,113.97L62.6,113.76L77.89,112.53L81.44,112.22L106.21,107.33L109.75,106.09L123.88,101.73L127.53,98.9L141.68,91.74L146.4,89.61L148.69,89.12L152.22,87.35L176.99,77.96L180.54,76.08L191.14,71.2L194.66,70.91L205.32,69.11L208.83,68.29L217.19,65.76L219.45,65.29L237.17,61.04L240.81,59.34L245.51,57.72L247.76,59.64L251.32,58.87L254.96,56.78L259.69,55.75L261.95,56.13L269.11,49.11L273.85,43.02L276.07,41.83L279.64,38.73L283.27,35.94L288.02,33.26L297.42,27.51L302.14,24.62L304.39,22.69L307.92,24.1L311.61,19.34L316.31,19.21L318.56,18.19L322.09,18.35L330.46,17.14L332.72,17.33L339.9,17.13L344.64,14.53L346.87,16.65L350.4,16.49L368.21,15.4L374.91,14.26L383.19,13.97L387.57,13.07L389.45,13.27L395.45,12.2L401.56,12.24L403.52,11.86L410.7,11.41L415.4,10.37L421.18,10.23L424.87,9.9L445.99,8.45L449.5,8.47L472.03,6.82L474.28,7.02L492,6.08" style="vector-effect: none; fill: none; stroke: rgb(71, 43, 121); stroke-opacity: 1; stroke-width: 1.5px; opacity: 1;"/></g><g class="points"/><g class="text"/></g><g class="trace scatter trace12b1d7" style="stroke-miterlimit: 2; opacity: 1;"><g class="fills"/><g class="errorbars"/><g class="lines"><path class="js-line" d="M0,115.29L75.62,113.32L77.89,112.99L92.05,110.92L95.57,110.23L109.75,106.64L113.38,105.41L123.88,102.5L127.53,100.64L134.5,98.65L138.04,97.05L146.4,92.33L148.69,92.33L152.22,89.07L155.86,88.09L162.83,84.5L166.36,83.76L174.73,82.84L176.99,82.6L191.14,81.18L194.66,80.97L219.45,77.99L222.98,77.07L233.61,75.38L237.17,74.62L240.81,73.84L245.51,71.97L247.76,74.52L251.32,76.12L254.96,68.7L259.69,64.25L261.95,64.1L265.49,58.23L269.11,53.71L273.85,51.55L276.07,48.2L279.64,48.18L290.24,49.22L293.8,49.64L311.61,51.41L316.31,51.45L330.46,51.6L332.72,52.09L344.64,52.02L346.87,52.67L358.77,52.23L361.02,52.52L368.21,52.11L374.91,51.91L383.19,51.86L387.57,50.99L389.45,51.25L395.45,50.67L398.52,51.29L401.56,50.85L415.4,49.15L417.65,49.32L453.17,47.22L457.87,46.91L481.47,45.24L486.18,45.22L492,44.8" style="vector-effect: none; fill: none; stroke: rgb(56, 87, 139); stroke-opacity: 1; stroke-width: 1.5px; opacity: 1;"/></g><g class="points"/><g class="text"/></g><g class="trace scatter tracef09aa4" style="stroke-miterlimit: 2; opacity: 1;"><g class="fills"/><g class="errorbars"/><g class="lines"><path class="js-line" d="M0,114.86L81.44,112.8L85.06,112.18L103.95,108.83L106.21,108.16L120.36,104.34L123.88,102.98L141.68,97.51L146.4,94.6L148.69,94.12L152.22,90.47L155.86,89.16L160.57,86.1L162.83,87.91L166.36,83.98L174.73,83.33L176.99,83.4L180.54,83.19L184.17,82.13L194.66,81.41L198.35,80.91L203.06,81.01L205.32,80.22L212.47,79.71L217.19,79.3L222.98,77.95L226.63,77.52L240.81,74.23L245.51,71.73L247.76,74.3L251.32,75.8L254.96,71.45L259.69,67.73L261.95,68.48L265.49,64.02L269.11,60.4L273.85,53.36L276.07,53.42L279.64,50.11L283.27,48.81L288.02,48.83L293.8,48.97L297.42,49.66L325.76,51.85L330.46,52L383.19,51.91L387.57,50.9L389.45,51.24L395.45,50.37L398.52,51.17L401.56,50.61L417.65,49.41L421.18,49.33L431.82,48.22L435.37,48.71L445.99,47.01L449.5,47.69L463.66,46.66L467.31,46.22L492,44.54" style="vector-effect: none; fill: none; stroke: rgb(56, 87, 139); stroke-opacity: 1; stroke-width: 1.5px; opacity: 1;"/></g><g class="points"/><g class="text"/></g><g class="trace scatter traceec4a81" style="stroke-miterlimit: 2; opacity: 1;"><g class="fills"/><g class="errorbars"/><g class="lines"><path class="js-line" d="M0,114.29L42.57,113.81L47.33,113.73L58.86,113.32L62.6,113.9L77.89,112.9L81.44,112.41L99.24,109.2L103.95,107.88L113.38,105.45L118.09,103.84L120.36,102.86L123.88,102.3L127.53,99.53L132.25,97.76L134.5,97.46L138.04,95.21L141.68,93.39L146.4,90.17L148.69,91L152.22,86.96L162.83,81.92L166.36,81.52L208.83,77.1L212.47,76.19L219.45,75.22L222.98,74.45L233.61,72.57L237.17,70.9L240.81,69.85L245.51,70.76L247.76,70.67L251.32,73.24L254.96,67.77L259.69,63.61L261.95,64.05L265.49,60.15L269.11,57.04L273.85,50.54L276.07,52.78L279.64,44.81L297.42,44.6L302.14,44.75L311.61,44.57L316.31,44.51L325.76,43.92L330.46,43.63L339.9,42.97L344.64,40.22L346.87,42.52L350.4,42.45L368.21,41.62L374.91,40.92L383.19,40.74L387.57,39.5L389.45,39.76L395.45,38.93L398.52,39.36L401.56,39.01L403.52,36.85L407.02,38.53L415.4,37.12L417.65,34.89L421.18,37.16L424.87,37.16L429.56,36.87L431.82,33.49L435.37,36.54L438.99,36.58L443.74,36.22L445.99,33.24L449.5,36.11L453.17,35.69L457.87,35.68L460.13,33.23L463.66,35.34L467.31,35.45L472.03,35.12L474.28,32.68L477.82,35.12L481.47,34.87L486.18,34.74L488.47,32.28L492,34.35" style="vector-effect: none; fill: none; stroke: rgb(56, 87, 139); stroke-opacity: 1; stroke-width: 1.5px; opacity: 1;"/></g><g class="points"/><g class="text"/></g><g class="trace scatter trace537f22" style="stroke-miterlimit: 2; opacity: 1;"><g class="fills"/><g class="errorbars"/><g class="lines"><path class="js-line" d="M0,115.34L58.86,114.55L62.6,114.46L67.25,114.49L70.9,114.43L92.05,112.84L95.57,112.28L109.75,108.29L113.38,106.89L120.36,104.63L123.88,104.37L127.53,101.65L132.25,99.66L138.04,98.63L141.68,98.26L160.57,97.93L162.83,98.24L180.54,97.66L184.17,97.29L194.66,96.17L198.35,95.28L208.83,93.51L212.47,92.4L237.17,85.5L240.81,80.92L245.51,80.32L247.76,81.36L251.32,82.3L254.96,82.28L279.64,83.41L283.27,83.47L307.92,84.16L311.61,83.69L325.76,84.07L330.46,84.12L336.24,84.14L339.9,84.11L358.77,84.22L361.02,84.54L368.21,84.32L374.91,84.43L383.19,84.34L387.57,83.33L389.45,83.66L395.45,83.67L398.52,84.23L401.56,83.47L417.65,84.29L421.18,84.42L431.82,84.35L435.37,84.52L457.87,84.04L460.13,84.23L477.82,84.4L481.47,84.3L492,84.39" style="vector-effect: none; fill: none; stroke: rgb(40, 125, 142); stroke-opacity: 1; stroke-width: 1.5px; opacity: 1;"/></g><g class="points"/><g class="text"/></g><g class="trace scatter tracee8ea8d" style="stroke-miterlimit: 2; opacity: 1;"><g class="fills"/><g class="errorbars"/><g class="lines"><path class="js-line" d="M0,115.06L19,115.16L21.26,115.15L75.62,114.25L77.89,113.89L85.06,113.07L89.78,112.31L99.24,110.56L103.95,109.18L120.36,104.01L123.88,102.57L127.53,102.09L132.25,98.69L134.5,97.85L138.04,98.25L148.69,97.92L152.22,98.06L155.86,97.65L160.57,98.21L166.36,98.52L170.01,98.22L184.17,97.86L188.88,97.69L217.19,92.49L219.45,91.74L240.81,85.74L245.51,80.52L251.32,82.39L254.96,82.3L269.11,83.74L273.85,83.88L290.24,84.38L293.8,84.41L304.39,84.4L307.92,84.42L330.46,84.62L332.72,84.6L358.77,84.76L361.02,84.96L383.19,85.06L387.57,83.66L395.45,84.2L398.52,84.27L401.56,83.87L403.52,82.46L407.02,84.04L410.7,84.48L415.4,84.35L417.65,83.11L421.18,84.43L424.87,84.47L429.56,84.58L431.82,82.41L435.37,84.75L438.99,84.78L443.74,84.43L445.99,82.5L449.5,84.66L453.17,84.41L457.87,84.52L460.13,83.41L463.66,84.63L467.31,84.77L472.03,84.69L474.28,82.83L477.82,84.76L481.47,84.6L486.18,84.81L488.47,83.23L492,84.67" style="vector-effect: none; fill: none; stroke: rgb(40, 125, 142); stroke-opacity: 1; stroke-width: 1.5px; opacity: 1;"/></g><g class="points"/><g class="text"/></g><g class="trace scatter tracef54d66" style="stroke-miterlimit: 2; opacity: 1;"><g class="fills"/><g class="errorbars"/><g class="lines"><path class="js-line" d="M0,115.44L77.89,113.94L81.44,113.47L99.24,110.61L103.95,109.24L113.38,106.18L118.09,104.88L120.36,104.19L123.88,104.66L127.53,101.4L132.25,98.43L152.22,97.22L155.86,96.98L194.66,95.25L198.35,94.54L212.47,91.94L217.19,90.6L222.98,89.16L226.63,87.68L240.81,82.81L245.51,78.76L251.32,79.78L254.96,79.19L276.07,80.22L279.64,80.25L290.24,80.88L293.8,80.91L304.39,80.98L307.92,81.06L322.09,80.91L325.76,80.76L368.21,81.05L374.91,80.91L379.47,81.01L383.19,80.74L387.57,78.55L389.45,78.89L401.56,77.34L403.52,75.85L410.7,77.86L415.4,77.38L417.65,74.79L421.18,74.44L424.87,74.87L429.56,76.91L431.82,73.77L435.37,73.88L438.99,74.4L443.74,75.93L445.99,73.44L449.5,73.37L453.17,72.66L457.87,74.32L460.13,72.4L463.66,71.7L467.31,71.45L472.03,73.19L474.28,71.03L477.82,70.61L481.47,70.02L486.18,71.57L488.47,69.58L492,68.77" style="vector-effect: none; fill: none; stroke: rgb(40, 125, 142); stroke-opacity: 1; stroke-width: 1.5px; opacity: 1;"/></g><g class="points"/><g class="text"/></g><g class="trace scatter trace4c2cac" style="stroke-miterlimit: 2; opacity: 1;"><g class="fills"/><g class="errorbars"/><g class="lines"><path class="js-line" d="M0,115.02L14.28,114.34L19,114.18L70.9,113.98L75.62,113.79L95.57,112.28L99.24,111.46L109.75,109.08L113.38,108.72L134.5,107.74L138.04,107.27L180.54,103.7L184.17,103.25L208.83,97.69L212.47,97.63L226.63,98.67L231.35,98.46L251.32,98.63L254.96,98.6L283.27,98.72L288.02,98.89L307.92,98.73L311.61,98.8L332.72,98.89L336.24,98.77L361.02,98.94L364.56,98.95L395.45,98.57L398.52,98.9L407.02,98.53L410.7,98.82L429.56,98.67L431.82,98.71L445.99,98.67L449.5,98.67L492,98.89" style="vector-effect: none; fill: none; stroke: rgb(35, 163, 134); stroke-opacity: 1; stroke-width: 1.5px; opacity: 1;"/></g><g class="points"/><g class="text"/></g><g class="trace scatter trace2d6a3b" style="stroke-miterlimit: 2; opacity: 1;"><g class="fills"/><g class="errorbars"/><g class="lines"><path class="js-line" d="M0,115.36L77.89,113.63L81.44,113.48L99.24,111.87L103.95,111.02L113.38,108.58L118.09,108.46L127.53,108.1L132.25,107.83L141.68,107.25L146.4,107.17L166.36,106.16L170.01,106.13L191.14,103.13L194.66,102.45L208.83,99.49L212.47,97.83L222.98,98.02L226.63,98.45L261.95,98.51L265.49,98.6L316.31,98.9L318.56,98.75L354.06,98.88L358.77,98.84L383.19,98.92L387.57,98.09L401.56,98.21L403.52,97.28L407.02,98.36L410.7,98.56L415.4,98.27L417.65,97.16L421.18,98.46L424.87,98.55L429.56,98.61L431.82,96.77L435.37,98.68L438.99,98.58L443.74,98.66L445.99,96.55L449.5,98.55L453.17,98.61L457.87,98.46L460.13,97.52L463.66,98.69L467.31,98.54L472.03,98.6L474.28,97.05L477.82,98.42L481.47,98.56L486.18,98.71L488.47,97.01L492,98.61" style="vector-effect: none; fill: none; stroke: rgb(35, 163, 134); stroke-opacity: 1; stroke-width: 1.5px; opacity: 1;"/></g><g class="points"/><g class="text"/></g><g class="trace scatter tracedb12f3" style="stroke-miterlimit: 2; opacity: 1;"><g class="fills"/><g class="errorbars"/><g class="lines"><path class="js-line" d="M0,115.18L47.33,114.83L49.56,114.58L77.89,113.54L81.44,113.34L99.24,111.33L103.95,110.14L118.09,108.46L120.36,108.49L127.53,108.03L132.25,107.76L146.4,107.13L148.69,106.94L184.17,104.23L188.88,103.14L194.66,102.03L198.35,101.41L208.83,99.27L212.47,97.35L226.63,98.5L231.35,98.47L383.19,98.85L387.57,98.09L398.52,98.16L401.56,97.95L403.52,96.21L407.02,98.07L410.7,98.59L415.4,98.43L417.65,96.02L421.18,96.29L429.56,98.71L431.82,95.87L438.99,97.59L443.74,98.84L445.99,96.18L449.5,96.71L453.17,97.02L457.87,98.57L460.13,96.88L463.66,96.86L467.31,97L472.03,98.56L474.28,96.65L477.82,96.88L481.47,97.2L486.18,98.5L488.47,96.84L492,96.67" style="vector-effect: none; fill: none; stroke: rgb(35, 163, 134); stroke-opacity: 1; stroke-width: 1.5px; opacity: 1;"/></g><g class="points"/><g class="text"/></g><g class="trace scatter trace06069f" style="stroke-miterlimit: 2; opacity: 1;"><g class="fills"/><g class="errorbars"/><g class="lines"><path class="js-line" d="M0,115.18L62.6,114.3L64.12,114.13L85.06,113.25L89.78,112.74L146.4,110.96L148.69,110.71L194.66,105.46L198.35,105.52L212.47,105.5L217.19,105.53L311.61,105.67L316.31,105.82L325.76,105.7L330.46,105.79L383.19,105.69L387.57,104.79L410.7,105.36L415.4,105.2L457.87,105.13L460.13,105.22L472.03,105.16L474.28,105.15L492,105.21" style="vector-effect: none; fill: none; stroke: rgb(84, 196, 103); stroke-opacity: 1; stroke-width: 1.5px; opacity: 1;"/></g><g class="points"/><g class="text"/></g><g class="trace scatter trace2081d7" style="stroke-miterlimit: 2; opacity: 1;"><g class="fills"/><g class="errorbars"/><g class="lines"><path class="js-line" d="M0,115.33L38.94,114.9L42.57,113.97L49.56,114.53L55.81,114.51L92.05,112.79L95.57,112.55L148.69,110.9L152.22,110.63L162.83,109.62L166.36,109.08L180.54,107.16L184.17,106.91L194.66,105.44L198.35,105.42L226.63,105.56L231.35,105.31L245.51,105.41L247.76,105.39L344.64,105.57L346.87,105.47L374.91,105.6L376.43,105.58L383.19,105.56L387.57,104.01L395.45,104.53L398.52,104.58L401.56,104.43L403.52,102.86L407.02,104.47L410.7,104.61L415.4,104.49L417.65,102.76L421.18,104.46L424.87,104.62L429.56,104.57L431.82,102.18L435.37,104.56L438.99,104.76L443.74,104.74L445.99,102.1L449.5,104.63L453.17,104.2L457.87,104L460.13,102.69L463.66,104.67L467.31,104.53L472.03,104.63L474.28,102.45L477.82,104.51L481.47,104.59L486.18,104.43L488.47,102.18L492,104.6" style="vector-effect: none; fill: none; stroke: rgb(84, 196, 103); stroke-opacity: 1; stroke-width: 1.5px; opacity: 1;"/></g><g class="points"/><g class="text"/></g><g class="trace scatter traced08a16" style="stroke-miterlimit: 2; opacity: 1;"><g class="fills"/><g class="errorbars"/><g class="lines"><path class="js-line" d="M0,115.1L64.12,114.13L67.25,114.01L113.38,111.83L118.09,111.8L134.5,111.6L138.04,111.29L160.57,109.6L162.83,109.31L198.35,104.76L203.06,104.72L276.07,104.64L279.64,104.7L339.9,104.96L344.64,104.77L354.06,104.93L358.77,104.89L383.19,104.91L387.57,104.14L395.45,104.36L398.52,103.47L401.56,102.84L403.52,101.27L410.7,103.51L415.4,104.39L417.65,102L421.18,102.13L424.87,102.51L429.56,104.58L431.82,102.16L435.37,102.36L443.74,103.66L445.99,102.12L460.13,101.46L463.66,101.05L467.31,100.57L472.03,101.13L477.82,100.28L481.47,100.11L488.47,100.18L492,99.63" style="vector-effect: none; fill: none; stroke: rgb(84, 196, 103); stroke-opacity: 1; stroke-width: 1.5px; opacity: 1;"/></g><g class="points"/><g class="text"/></g><g class="trace scatter tracedeb302" style="stroke-miterlimit: 2; opacity: 1;"><g class="fills"/><g class="errorbars"/><g class="lines"><path class="js-line" d="M0,115.09L35.41,114.79L38.94,114.77L70.9,113.96L75.62,113.84L123.88,114.17L127.53,114.02L160.57,112.76L162.83,112.57L203.06,112.48L205.32,112.49L222.98,112.37L226.63,112.53L247.76,112.34L251.32,112.29L350.4,112.14L354.06,112.25L383.19,112.19L387.57,111.05L398.52,111.8L401.56,111.54L435.37,111.61L438.99,111.73L492,111.62" style="vector-effect: none; fill: none; stroke: rgb(175, 221, 47); stroke-opacity: 1; stroke-width: 1.5px; opacity: 1;"/></g><g class="points"/><g class="text"/></g><g class="trace scatter tracea8cd59" style="stroke-miterlimit: 2; opacity: 1;"><g class="fills"/><g class="errorbars"/><g class="lines"><path class="js-line" d="M0,115.14L47.33,114.6L49.56,114.49L70.9,113.41L75.62,113.92L109.75,114.1L113.38,114.1L152.22,113.56L155.86,113.34L180.54,112.74L184.17,112.79L383.19,112.57L387.57,111.73L401.56,112.08L403.52,111.98L417.65,112.03L421.18,112.1L429.56,112.17L431.82,110.85L435.37,112.17L438.99,112.28L443.74,112.27L445.99,110.99L449.5,112.27L453.17,112.15L472.03,112.12L474.28,111.05L477.82,112.14L481.47,112.17L486.18,112.16L488.47,111.14L492,112.18" style="vector-effect: none; fill: none; stroke: rgb(175, 221, 47); stroke-opacity: 1; stroke-width: 1.5px; opacity: 1;"/></g><g class="points"/><g class="text"/></g><g class="trace scatter trace2796dd" style="stroke-miterlimit: 2; opacity: 1;"><g class="fills"/><g class="errorbars"/><g class="lines"><path class="js-line" d="M0,115.17L64.12,114.2L67.25,114.01L106.21,114.1L109.75,114.11L152.22,113.44L155.86,113.2L222.98,112.54L226.63,112.68L261.95,112.53L265.49,112.53L322.09,112.41L325.76,112.44L376.43,112.39L379.47,112.35L383.19,112.37L387.57,111.51L401.56,111.75L403.52,110.03L407.02,111.85L410.7,111.89L415.4,111.67L417.65,109.91L421.18,111.77L424.87,111.75L429.56,111.73L431.82,109.18L435.37,111.67L438.99,111.91L443.74,111.96L445.99,109.45L449.5,111.89L453.17,111.84L457.87,111.75L460.13,109.77L463.66,111.89L467.31,111.71L472.03,111.71L474.28,109.39L477.82,111.67L481.47,111.8L486.18,111.84L488.47,109.75L492,111.67" style="vector-effect: none; fill: none; stroke: rgb(175, 221, 47); stroke-opacity: 1; stroke-width: 1.5px; opacity: 1;"/></g><g class="points"/><g class="text"/></g></g></g></g><path class="xlines-above crisp" d="M37.5,151.77H530.5M37.5,29.75H530.5" style="fill: none; stroke-width: 0.5px; stroke: rgb(0, 0, 0); stroke-opacity: 1;"/><path class="ylines-above crisp" d="M37.75,30V151.52M530.25,30V151.52" style="fill: none; stroke-width: 0.5px; stroke: rgb(0, 0, 0); stroke-opacity: 1;"/><g class="overlines-above"/><g class="xaxislayer-above"><path class="xtick ticks crisp" d="M0,151.52v-5" transform="translate(108.79,0)" style="stroke: rgb(0, 0, 0); stroke-opacity: 1; stroke-width: 0.5px;"/><path class="xtick ticks crisp" d="M0,151.52v-5" transform="translate(179.57,0)" style="stroke: rgb(0, 0, 0); stroke-opacity: 1; stroke-width: 0.5px;"/><path class="xtick ticks crisp" d="M0,151.52v-5" transform="translate(250.36,0)" style="stroke: rgb(0, 0, 0); stroke-opacity: 1; stroke-width: 0.5px;"/><path class="xtick ticks crisp" d="M0,151.52v-5" transform="translate(321.15,0)" style="stroke: rgb(0, 0, 0); stroke-opacity: 1; stroke-width: 0.5px;"/><path class="xtick ticks crisp" d="M0,151.52v-5" transform="translate(391.93,0)" style="stroke: rgb(0, 0, 0); stroke-opacity: 1; stroke-width: 0.5px;"/><path class="xtick ticks crisp" d="M0,151.52v-5" transform="translate(462.72,0)" style="stroke: rgb(0, 0, 0); stroke-opacity: 1; stroke-width: 0.5px;"/></g><g class="yaxislayer-above"><path class="ytick ticks crisp" d="M38,0h5" transform="translate(0,145.82999999999998)" style="stroke: rgb(0, 0, 0); stroke-opacity: 1; stroke-width: 0.5px;"/><path class="ytick ticks crisp" d="M38,0h5" transform="translate(0,97.56)" style="stroke: rgb(0, 0, 0); stroke-opacity: 1; stroke-width: 0.5px;"/><path class="ytick ticks crisp" d="M38,0h5" transform="translate(0,49.3)" style="stroke: rgb(0, 0, 0); stroke-opacity: 1; stroke-width: 0.5px;"/><g class="ytick"><text text-anchor="end" x="35.3" y="3.8499999999999996" transform="translate(0,145.82999999999998)" style="font-family: 'Open Sans', verdana, arial, sans-serif; font-size: 11px; fill: rgb(0, 0, 0); fill-opacity: 1; white-space: pre; opacity: 1;">0</text></g><g class="ytick"><text text-anchor="end" x="35.3" y="3.8499999999999996" style="font-family: 'Open Sans', verdana, arial, sans-serif; font-size: 11px; fill: rgb(0, 0, 0); fill-opacity: 1; white-space: pre; opacity: 1;" transform="translate(0,97.56)">0.5</text></g><g class="ytick"><text text-anchor="end" x="35.3" y="3.8499999999999996" style="font-family: 'Open Sans', verdana, arial, sans-serif; font-size: 11px; fill: rgb(0, 0, 0); fill-opacity: 1; white-space: pre; opacity: 1;" transform="translate(0,49.3)">1</text></g></g><g class="overaxes-above"/></g><g class="subplot x2y2"><g class="layer-subplot"><g class="shapelayer"/><g class="imagelayer"/></g><g class="minor-gridlayer"><g class="x2"/><g class="y2"/></g><g class="gridlayer"><g class="x2"><path class="x2grid crisp" transform="translate(108.79,0)" d="M0,186.24000000000004v121.51999999999997" style="stroke: rgb(128, 128, 128); stroke-opacity: 1; stroke-width: 0.2px;"/><path class="x2grid crisp" transform="translate(179.57,0)" d="M0,186.24000000000004v121.51999999999997" style="stroke: rgb(128, 128, 128); stroke-opacity: 1; stroke-width: 0.2px;"/><path class="x2grid crisp" transform="translate(250.36,0)" d="M0,186.24000000000004v121.51999999999997" style="stroke: rgb(128, 128, 128); stroke-opacity: 1; stroke-width: 0.2px;"/><path class="x2grid crisp" transform="translate(321.15,0)" d="M0,186.24000000000004v121.51999999999997" style="stroke: rgb(128, 128, 128); stroke-opacity: 1; stroke-width: 0.2px;"/><path class="x2grid crisp" transform="translate(391.93,0)" d="M0,186.24000000000004v121.51999999999997" style="stroke: rgb(128, 128, 128); stroke-opacity: 1; stroke-width: 0.2px;"/><path class="x2grid crisp" transform="translate(462.72,0)" d="M0,186.24000000000004v121.51999999999997" style="stroke: rgb(128, 128, 128); stroke-opacity: 1; stroke-width: 0.2px;"/></g><g class="y2"><path class="y2grid crisp" transform="translate(0,301.75000000000006)" d="M38,0h492" style="stroke: rgb(128, 128, 128); stroke-opacity: 1; stroke-width: 0.2px;"/><path class="y2grid crisp" transform="translate(0,277.20000000000005)" d="M38,0h492" style="stroke: rgb(128, 128, 128); stroke-opacity: 1; stroke-width: 0.2px;"/><path class="y2grid crisp" transform="translate(0,252.65000000000003)" d="M38,0h492" style="stroke: rgb(128, 128, 128); stroke-opacity: 1; stroke-width: 0.2px;"/><path class="y2grid crisp" transform="translate(0,228.11000000000004)" d="M38,0h492" style="stroke: rgb(128, 128, 128); stroke-opacity: 1; stroke-width: 0.2px;"/><path class="y2grid crisp" transform="translate(0,203.56000000000003)" d="M38,0h492" style="stroke: rgb(128, 128, 128); stroke-opacity: 1; stroke-width: 0.2px;"/></g></g><g class="zerolinelayer"/><g class="layer-between"><g class="shapelayer"/><g class="imagelayer"/></g><path class="xlines-below"/><path class="ylines-below"/><g class="overlines-below"/><g class="xaxislayer-below"/><g class="yaxislayer-below"/><g class="overaxes-below"/><g class="overplot"><g class="x2y2" transform="translate(38,186.24000000000004)" clip-path="url(#clip5e19a4x2y2plot)"><g class="scatterlayer mlayer"><g class="trace scatter trace556445" style="stroke-miterlimit: 2; opacity: 1;"><g class="fills"/><g class="errorbars"/><g class="lines"><path class="js-line" d="M0,115.03L99.24,114.02L103.95,113.64L118.09,113.02L120.36,112.83L141.68,110.27L146.4,109.49L170.01,103.71L174.73,101.84L180.54,98.89L184.17,97.05L188.88,95.02L191.14,93.22L208.83,80.76L212.47,79L217.19,76.39L219.45,74.16L222.98,72.01L226.63,68.72L237.17,61.28L240.81,56.81L245.51,51.15L247.76,44.87L251.32,38.64L254.96,34.98L261.95,22.16L265.49,26.35L269.11,12.41L273.85,9.03L276.07,6.08L279.64,6.19L283.27,9.84L288.02,10.25L290.24,13.16L293.8,20.28L297.42,27.24L302.14,31.01L304.39,33.26L307.92,37.98L311.61,37.28L316.31,34.82L318.56,32.75L322.09,31.35L325.76,29.08L330.46,27.36L332.72,24.45L336.24,24.16L339.9,21.41L344.64,19.31L346.87,12.7L350.4,11.2L354.06,12.22L358.77,11.95L364.56,11.08L368.21,11.88L374.91,12.51L376.43,11.74L383.19,12.45L387.57,10.77L389.45,11.08L395.45,11.08L398.52,12L401.56,11.95L415.4,11.03L417.65,10.9L421.18,10.7L424.87,11.57L435.37,10.75L438.99,11.12L443.74,11.24L445.99,10.45L449.5,11.05L453.17,10.63L472.03,9.97L474.28,9.68L492,8.87" style="vector-effect: none; fill: none; stroke: rgb(71, 43, 121); stroke-opacity: 1; stroke-width: 1.5px; opacity: 1;"/></g><g class="points"/><g class="text"/></g><g class="trace scatter traced9cb70" style="stroke-miterlimit: 2; opacity: 1;"><g class="fills"/><g class="errorbars"/><g class="lines"><path class="js-line" d="M0,115.03L99.24,114L103.95,113.68L113.38,113.37L118.09,113.08L141.68,110.41L146.4,109.48L166.36,104.86L170.01,103.5L184.17,96.76L188.88,94.93L198.35,88.08L203.06,85.47L205.32,83.28L208.83,81.01L226.63,70L231.35,66.33L240.81,59.38L245.51,53.66L251.32,43.18L254.96,38.72L259.69,28.07L261.95,25.92L265.49,18.86L269.11,18.33L273.85,18.18L276.07,20.74L279.64,23.24L283.27,26.82L290.24,40.34L293.8,41.31L297.42,41.42L302.14,39.76L304.39,38.19L307.92,37.89L316.31,33.53L318.56,31.19L325.76,28L330.46,25.98L332.72,23.12L336.24,21.72L339.9,18.94L344.64,13.37L346.87,11.33L350.4,12.22L358.77,12.92L361.02,11.46L368.21,13.26L374.91,12.6L376.43,12.08L379.47,13.02L383.19,12.95L387.57,10.29L401.56,10.86L403.52,10.48L407.02,11.46L410.7,10.79L429.56,11.06L431.82,9.73L438.99,11.15L443.74,10.9L445.99,10.14L449.5,10.54L488.47,8.33L492,7.93" style="vector-effect: none; fill: none; stroke: rgb(71, 43, 121); stroke-opacity: 1; stroke-width: 1.5px; opacity: 1;"/></g><g class="points"/><g class="text"/></g><g class="trace scatter tracef423ba" style="stroke-miterlimit: 2; opacity: 1;"><g class="fills"/><g class="errorbars"/><g class="lines"><path class="js-line" d="M0,114.94L81.44,114.64L85.06,114.34L127.53,112.47L132.25,111.97L148.69,109.35L152.22,108.73L166.36,105.52L170.01,104.06L191.14,94.02L194.66,91.93L212.47,79.92L217.19,77.71L219.45,75.21L222.98,73.74L231.35,67.26L233.61,66.3L240.81,61.28L245.51,55.48L247.76,53.48L251.32,44.14L254.96,42.33L259.69,28.83L261.95,29.66L265.49,14.32L269.11,13.57L273.85,19.81L276.07,23.75L279.64,26.1L283.27,32.44L288.02,42.36L293.8,41.63L297.42,41.32L316.31,34.45L318.56,31.92L322.09,29.61L325.76,28.27L330.46,25.64L332.72,23.5L336.24,21.84L339.9,19L344.64,12.98L346.87,12.14L350.4,11.9L354.06,13.65L358.77,12.98L361.02,11.82L364.56,12.27L368.21,13.85L374.91,13.2L376.43,11.74L379.47,12.76L383.19,12.62L387.57,11.67L389.45,12.04L403.52,11.81L407.02,12.58L410.7,11.34L415.4,12.2L417.65,11.74L421.18,12.05L429.56,12.72L431.82,11.82L443.74,11.99L445.99,11.38L449.5,12.09L453.17,11.69L467.31,10.55L472.03,10.85L492,9.37" style="vector-effect: none; fill: none; stroke: rgb(71, 43, 121); stroke-opacity: 1; stroke-width: 1.5px; opacity: 1;"/></g><g class="points"/><g class="text"/></g><g class="trace scatter trace72987d" style="stroke-miterlimit: 2; opacity: 1;"><g class="fills"/><g class="errorbars"/><g class="lines"><path class="js-line" d="M0,114.62L28.43,114.74L33.15,114.74L49.56,114.57L55.81,114.66L58.86,114.26L62.6,114.62L75.62,114.83L77.89,114.72L99.24,114.42L103.95,114.25L127.53,113.13L132.25,112.71L138.04,112.25L141.68,111.57L155.86,108.82L160.57,107.52L170.01,104.74L174.73,102.59L176.99,102.09L180.54,100.22L184.17,97.95L188.88,95.95L198.35,87.74L203.06,85.2L208.83,80.23L212.47,78.31L222.98,70.55L226.63,67.68L231.35,64.46L233.61,59.93L237.17,61.93L240.81,65.95L247.76,64.8L251.32,65.16L265.49,62.89L269.11,62.48L273.85,61.45L276.07,59.85L283.27,58.89L288.02,56.7L290.24,55.61L293.8,54.7L297.42,53.63L302.14,50.43L304.39,48.23L307.92,45.98L311.61,45.54L316.31,45.94L318.56,45.02L322.09,45.1L325.76,45.76L330.46,44.85L339.9,45.34L344.64,45.29L346.87,44.53L350.4,44.93L354.06,44.58L358.77,45.91L361.02,45.11L364.56,45.2L374.91,44.3L376.43,44.91L379.47,45.8L383.19,45.67L387.57,44.3L389.45,44.66L401.56,44.82L403.52,42.22L407.02,44.89L410.7,44.69L415.4,44.57L417.65,40.94L424.87,44.71L429.56,44.64L431.82,39.98L435.37,43.18L438.99,44.23L443.74,43.8L445.99,39.89L449.5,41.79L453.17,43.4L457.87,43.2L460.13,39.93L463.66,41.97L467.31,42.84L472.03,42.67L474.28,38.62L477.82,41.56L481.47,42.07L486.18,41.48L488.47,38.11L492,39.07" style="vector-effect: none; fill: none; stroke: rgb(56, 87, 139); stroke-opacity: 1; stroke-width: 1.5px; opacity: 1;"/></g><g class="points"/><g class="text"/></g><g class="trace scatter trace85b7f5" style="stroke-miterlimit: 2; opacity: 1;"><g class="fills"/><g class="errorbars"/><g class="lines"><path class="js-line" d="M0,115.04L7.1,114.16L10.64,114.16L49.56,114.18L55.81,114.18L118.09,113.85L120.36,113.73L152.22,109.95L155.86,108.81L174.73,103.13L176.99,102.18L191.14,94.02L194.66,91.24L208.83,80.6L212.47,78.76L217.19,76.21L219.45,74.03L222.98,72.16L226.63,69.08L231.35,65.84L233.61,62.15L237.17,63.74L240.81,66.56L247.76,65.05L251.32,65.33L265.49,62.9L269.11,62.53L273.85,61.67L276.07,60.08L283.27,59L288.02,57.19L293.8,54.02L297.42,53.43L307.92,45.62L311.61,45.37L316.31,46.33L318.56,44.39L322.09,46.16L325.76,45.96L336.24,45.38L339.9,46.28L344.64,46.25L346.87,44.85L350.4,45.55L354.06,45.45L361.02,45.24L364.56,45.3L376.43,44.47L379.47,46.49L383.19,46.15L387.57,44.28L395.45,44.65L398.52,43.85L401.56,44.48L403.52,41.73L407.02,44.72L410.7,44.85L415.4,44.88L417.65,40.36L421.18,41.42L424.87,44.87L429.56,44.61L431.82,39.4L435.37,41.24L438.99,44.14L443.74,44.06L445.99,39.16L453.17,43.03L457.87,43.28L460.13,39.14L463.66,40.76L467.31,42.84L472.03,42.62L474.28,38.33L477.82,40.52L481.47,42.24L486.18,42.05L488.47,38.1L492,38.75" style="vector-effect: none; fill: none; stroke: rgb(56, 87, 139); stroke-opacity: 1; stroke-width: 1.5px; opacity: 1;"/></g><g class="points"/><g class="text"/></g><g class="trace scatter traceb2c55d" style="stroke-miterlimit: 2; opacity: 1;"><g class="fills"/><g class="errorbars"/><g class="lines"><path class="js-line" d="M0,110.6L4.84,115.03L7.1,114.97L99.24,114.8L103.95,114.58L120.36,113.96L123.88,113.52L138.04,112.52L141.68,111.87L155.86,109.34L160.57,107.94L170.01,105.31L174.73,103.61L180.54,100.76L184.17,98.46L188.88,96.4L191.14,94.39L198.35,88.54L203.06,86.35L208.83,81.45L212.47,79.45L217.19,77.32L219.45,74.91L231.35,68.07L233.61,63.72L240.81,66.8L245.51,65.5L273.85,61.85L276.07,60.72L288.02,57.48L290.24,56.04L297.42,53.3L302.14,50.06L307.92,46.02L311.61,46.28L316.31,46.64L318.56,44.9L325.76,46.6L330.46,45.39L336.24,45.75L339.9,45.65L344.64,46.11L346.87,45.08L350.4,46.31L354.06,45.26L364.56,45.9L368.21,46.05L376.43,44.79L379.47,46.3L383.19,46.31L387.57,44.46L389.45,45.01L395.45,45.14L398.52,44.77L401.56,45.21L403.52,42.48L407.02,45.43L415.4,44.99L417.65,41.26L421.18,43.79L424.87,45.17L429.56,45.21L431.82,40.13L435.37,43.73L438.99,44.66L443.74,44.47L445.99,39.92L449.5,43.55L453.17,43.84L457.87,43.56L460.13,40L463.66,42.92L467.31,43.13L472.03,42.81L474.28,38.98L477.82,42.46L481.47,42.81L486.18,42.33L488.47,38.6L492,41.12" style="vector-effect: none; fill: none; stroke: rgb(56, 87, 139); stroke-opacity: 1; stroke-width: 1.5px; opacity: 1;"/></g><g class="points"/><g class="text"/></g><g class="trace scatter trace244b77" style="stroke-miterlimit: 2; opacity: 1;"><g class="fills"/><g class="errorbars"/><g class="lines"><path class="js-line" d="M0,115.16L81.44,115.42L85.06,115.19L127.53,114.38L132.25,114.03L138.04,113.71L141.68,113.3L155.86,110.91L160.57,109.82L166.36,108.4L170.01,107.19L191.14,97.23L194.66,93.93L198.35,92.67L203.06,92.22L208.83,91L212.47,91.22L222.98,89.53L226.63,89.67L237.17,87.68L240.81,87.88L259.69,84.61L261.95,83.91L269.11,81L273.85,80.84L276.07,79.81L279.64,80.49L297.42,80.9L302.14,80.78L304.39,80.91L307.92,81.94L311.61,80.91L316.31,81.25L322.09,80.92L325.76,81.18L339.9,81.36L344.64,81.97L350.4,81.34L354.06,81.36L376.43,81.39L379.47,81.66L383.19,81.51L387.57,80.1L389.45,80.44L395.45,80.53L401.56,77.74L403.52,75.56L410.7,76.84L415.4,77.43L421.18,75.76L424.87,75.23L429.56,76.15L431.82,74.97L438.99,74.05L443.74,73.97L457.87,72L460.13,71.93L467.31,71.26L472.03,71.12L474.28,70.57L477.82,70.55L488.47,69.84L492,68.53" style="vector-effect: none; fill: none; stroke: rgb(40, 125, 142); stroke-opacity: 1; stroke-width: 1.5px; opacity: 1;"/></g><g class="points"/><g class="text"/></g><g class="trace scatter trace272ca0" style="stroke-miterlimit: 2; opacity: 1;"><g class="fills"/><g class="errorbars"/><g class="lines"><path class="js-line" d="M0,111.07L4.84,115.05L7.1,115.01L38.94,115.02L42.57,114.94L127.53,114.47L132.25,114.12L141.68,113.51L146.4,112.95L155.86,111.26L160.57,110.15L162.83,110.03L166.36,108.96L174.73,106.1L176.99,105.27L191.14,99.14L194.66,96.78L198.35,93.63L203.06,93.32L205.32,92.56L208.83,92.21L212.47,92.09L217.19,90.32L219.45,89.57L222.98,89.3L231.35,88.86L233.61,87.8L254.96,87.07L259.69,86.32L265.49,84.43L269.11,83.24L276.07,81.97L279.64,82.31L290.24,82.9L293.8,83.02L304.39,82.83L307.92,83.76L311.61,82.91L316.31,83.09L322.09,82.79L325.76,82.98L332.72,82.68L336.24,83.43L346.87,83.27L350.4,83.26L358.77,83.13L361.02,83.07L383.19,83.45L387.57,81.93L389.45,82.3L395.45,82.6L403.52,76.86L407.02,77.5L415.4,78.56L417.65,77.6L424.87,76.52L429.56,76.82L435.37,75.09L438.99,75.1L449.5,74.1L453.17,73.39L463.66,72.34L467.31,71.79L474.28,71.43L477.82,71.24L481.47,70.61L486.18,70.89L492,69.69" style="vector-effect: none; fill: none; stroke: rgb(40, 125, 142); stroke-opacity: 1; stroke-width: 1.5px; opacity: 1;"/></g><g class="points"/><g class="text"/></g><g class="trace scatter tracec43926" style="stroke-miterlimit: 2; opacity: 1;"><g class="fills"/><g class="errorbars"/><g class="lines"><path class="js-line" d="M0,109.14L4.84,115.05L7.1,114.99L120.36,114.72L123.88,114.42L141.68,113.21L146.4,112.54L155.86,110.85L160.57,109.71L162.83,109.54L166.36,108.43L176.99,104.64L180.54,103.02L191.14,98.03L194.66,95.05L198.35,92.61L203.06,92.38L208.83,91.16L212.47,90.86L237.17,87.57L240.81,87.71L259.69,84.72L261.95,84.13L269.11,81.5L273.85,80.74L276.07,80.02L279.64,80.57L293.8,81.19L297.42,80.71L304.39,80.63L307.92,81.7L311.61,80.78L316.31,80.97L322.09,80.59L325.76,80.99L332.72,80.36L336.24,81.5L339.9,81.02L344.64,81.68L361.02,80.94L364.56,81.06L383.19,81.05L387.57,79.6L389.45,79.93L395.45,80.19L403.52,73.48L407.02,73.78L417.65,73.42L421.18,72.17L429.56,72.52L431.82,71.52L435.37,70.57L438.99,70.59L460.13,67.7L463.66,66.63L472.03,66.75L474.28,65.9L492,64.33" style="vector-effect: none; fill: none; stroke: rgb(40, 125, 142); stroke-opacity: 1; stroke-width: 1.5px; opacity: 1;"/></g><g class="points"/><g class="text"/></g><g class="trace scatter traceafec83" style="stroke-miterlimit: 2; opacity: 1;"><g class="fills"/><g class="errorbars"/><g class="lines"><path class="js-line" d="M0,114.88L38.94,114.81L42.57,114.76L75.62,114.78L77.89,114.82L134.5,113.74L138.04,113.27L152.22,111.61L155.86,110.73L170.01,107.62L174.73,107.16L198.35,104.13L203.06,103.23L231.35,99.72L233.61,99.19L245.51,97.25L247.76,97.69L269.11,97.46L273.85,97.26L304.39,97.54L307.92,97.77L354.06,98.01L358.77,97.91L383.19,97.91L387.57,96.71L395.45,97.11L398.52,95.16L401.56,93.95L403.52,91.83L407.02,92.95L410.7,93.29L415.4,93.81L417.65,92.89L424.87,92.01L429.56,92.76L431.82,91.9L435.37,91.4L443.74,91.43L445.99,90.48L449.5,90.32L453.17,89.4L463.66,88.91L467.31,88.15L477.82,87.75L481.47,87.06L488.47,87.27L492,85.98" style="vector-effect: none; fill: none; stroke: rgb(35, 163, 134); stroke-opacity: 1; stroke-width: 1.5px; opacity: 1;"/></g><g class="points"/><g class="text"/></g><g class="trace scatter tracef8ce32" style="stroke-miterlimit: 2; opacity: 1;"><g class="fills"/><g class="errorbars"/><g class="lines"><path class="js-line" d="M0,112.34L4.84,114.91L7.1,114.91L58.86,114.75L62.6,114.87L89.78,114.64L92.05,114.76L118.09,114.17L120.36,114.28L148.69,112.31L152.22,111.57L170.01,107.61L174.73,107.15L184.17,106.22L188.88,105.58L222.98,100.63L226.63,100.52L245.51,97.12L247.76,97.73L259.69,97.44L261.95,97.75L265.49,97.17L269.11,97.37L279.64,97.22L283.27,97.65L332.72,97.66L336.24,97.89L383.19,97.77L387.57,96.64L395.45,97.08L398.52,94.77L401.56,93.16L403.52,91.08L410.7,91.86L415.4,91.88L421.18,89.94L424.87,89.77L431.82,89.28L435.37,88.41L443.74,88.19L445.99,87.19L460.13,85.77L463.66,85.07L467.31,84.37L472.03,84.7L477.82,83.63L481.47,83.2L488.47,83.06L492,82.28" style="vector-effect: none; fill: none; stroke: rgb(35, 163, 134); stroke-opacity: 1; stroke-width: 1.5px; opacity: 1;"/></g><g class="points"/><g class="text"/></g><g class="trace scatter trace4da1a7" style="stroke-miterlimit: 2; opacity: 1;"><g class="fills"/><g class="errorbars"/><g class="lines"><path class="js-line" d="M0,108.69L4.84,114.81L7.1,114.79L77.89,114.56L81.44,114.52L106.21,114.32L109.75,114.29L134.5,113.73L138.04,113.33L152.22,111.63L155.86,110.9L170.01,107.61L174.73,107.24L184.17,106.38L188.88,105.64L222.98,100.74L226.63,100.59L245.51,97.12L247.76,97.66L259.69,97.34L261.95,97.64L265.49,97.07L269.11,97.25L279.64,97.17L283.27,97.54L350.4,97.82L354.06,97.78L383.19,97.75L387.57,96.56L395.45,96.97L398.52,94.62L401.56,92.79L403.52,90.53L410.7,90.86L415.4,90.98L421.18,88.93L424.87,88.79L429.56,89.02L431.82,87.97L438.99,87.27L443.74,86.84L449.5,85.6L453.17,85.28L467.31,83.05L472.03,83.17L492,80.82" style="vector-effect: none; fill: none; stroke: rgb(35, 163, 134); stroke-opacity: 1; stroke-width: 1.5px; opacity: 1;"/></g><g class="points"/><g class="text"/></g><g class="trace scatter trace54f06c" style="stroke-miterlimit: 2; opacity: 1;"><g class="fills"/><g class="errorbars"/><g class="lines"><path class="js-line" d="M0,115.04L28.43,114.9L33.15,113.93L35.41,114.95L38.94,113.82L42.57,114.82L47.33,114.99L49.56,114.35L55.81,114.95L67.25,114.7L70.9,114.92L134.5,114.02L138.04,113.6L180.54,110.38L184.17,110.49L217.19,106.59L219.45,105.61L222.98,104.75L226.63,105.84L237.17,105.23L240.81,105.67L254.96,105.31L259.69,105.64L288.02,105.79L290.24,105.4L307.92,105.54L311.61,105.76L383.19,105.76L387.57,104.61L395.45,104.83L398.52,103.28L401.56,102.32L403.52,100.09L407.02,101.61L410.7,102.3L415.4,103.68L417.65,102.4L421.18,101.54L424.87,101.51L429.56,102.42L431.82,101.41L435.37,100.25L438.99,100.85L443.74,100.68L445.99,99.64L453.17,99.26L457.87,97.6L460.13,98.78L463.66,98.38L467.31,97.66L472.03,97.74L481.47,96.81L486.18,96.6L492,95.82" style="vector-effect: none; fill: none; stroke: rgb(84, 196, 103); stroke-opacity: 1; stroke-width: 1.5px; opacity: 1;"/></g><g class="points"/><g class="text"/></g><g class="trace scatter trace10075a" style="stroke-miterlimit: 2; opacity: 1;"><g class="fills"/><g class="errorbars"/><g class="lines"><path class="js-line" d="M0,114.81L109.75,114.22L113.38,114.18L141.68,112.86L146.4,112.63L184.17,109.81L188.88,109.41L222.98,104.91L226.63,105.47L237.17,105.15L240.81,105.21L288.02,105L290.24,104.62L311.61,105.22L316.31,104.99L322.09,105.07L325.76,104.88L358.77,104.99L361.02,104.99L374.91,105.11L376.43,105.12L383.19,105.04L387.57,103.78L395.45,104.12L398.52,102.16L401.56,100.64L403.52,98.47L410.7,99.3L415.4,99.26L421.18,97.28L424.87,97.02L429.56,97.39L431.82,96.44L435.37,95.48L438.99,95.32L449.5,94.17L453.17,93.55L460.13,92.24L463.66,91.6L467.31,90.9L472.03,91L486.18,89.65L488.47,89.59L492,88.77" style="vector-effect: none; fill: none; stroke: rgb(84, 196, 103); stroke-opacity: 1; stroke-width: 1.5px; opacity: 1;"/></g><g class="points"/><g class="text"/></g><g class="trace scatter trace5585e5" style="stroke-miterlimit: 2; opacity: 1;"><g class="fills"/><g class="errorbars"/><g class="lines"><path class="js-line" d="M0,114.28L10.64,114.88L14.28,115.06L42.57,114.74L47.33,114.82L67.25,114.79L70.9,114.76L138.04,113.42L141.68,113.17L194.66,109.2L198.35,108.78L217.19,106.44L219.45,105.96L222.98,105.4L226.63,105.66L237.17,105.18L240.81,105.43L265.49,105.33L269.11,105.47L293.8,105.21L297.42,105.44L383.19,105.55L387.57,104.2L395.45,104.82L398.52,102.53L401.56,100.62L403.52,98.42L410.7,98.25L415.4,97.79L424.87,95.38L429.56,95.83L431.82,94.5L435.37,93.56L443.74,93.11L445.99,92.49L457.87,90.55L460.13,90.46L467.31,89.64L472.03,89.32L481.47,88.09L486.18,88.46L492,87.03" style="vector-effect: none; fill: none; stroke: rgb(84, 196, 103); stroke-opacity: 1; stroke-width: 1.5px; opacity: 1;"/></g><g class="points"/><g class="text"/></g><g class="trace scatter trace04945c" style="stroke-miterlimit: 2; opacity: 1;"><g class="fills"/><g class="errorbars"/><g class="lines"><path class="js-line" d="M0,114.64L42.57,114.49L47.33,114.56L58.86,114.48L62.6,114.56L81.44,114.44L85.06,114.43L127.53,113.95L132.25,114.04L138.04,114L141.68,113.89L160.57,113.94L162.83,113.77L231.35,113.08L233.61,113.21L265.49,113.06L269.11,113.06L383.19,112.85L387.57,111.6L401.56,111.88L403.52,109.17L407.02,112.08L410.7,112.06L415.4,111.83L417.65,108.88L421.18,110.94L424.87,112L429.56,111.97L431.82,108.1L435.37,109.59L438.99,112.06L443.74,112.14L445.99,108.37L449.5,110.94L453.17,111.73L457.87,111.81L460.13,108.86L467.31,111.55L472.03,111.84L474.28,108.31L477.82,110.17L481.47,111.65L486.18,111.84L488.47,108.86L492,110.07" style="vector-effect: none; fill: none; stroke: rgb(175, 221, 47); stroke-opacity: 1; stroke-width: 1.5px; opacity: 1;"/></g><g class="points"/><g class="text"/></g><g class="trace scatter tracec4f5f0" style="stroke-miterlimit: 2; opacity: 1;"><g class="fills"/><g class="errorbars"/><g class="lines"><path class="js-line" d="M0,115.07L174.73,114.13L176.99,114.12L208.83,113.72L212.47,113.72L383.19,113.59L387.57,112.06L395.45,112.63L398.52,111.12L401.56,111.09L403.52,108.42L407.02,111.26L410.7,112.26L415.4,112.57L417.65,109.37L421.18,109.42L424.87,110.89L429.56,112.77L431.82,108.56L435.37,108.6L438.99,110.15L443.74,112.62L445.99,109.37L453.17,109.96L457.87,111.87L460.13,109.52L463.66,109.47L467.31,109.83L472.03,111.76L474.28,109.06L477.82,109.34L486.18,111.29L488.47,109.5L492,109.15" style="vector-effect: none; fill: none; stroke: rgb(175, 221, 47); stroke-opacity: 1; stroke-width: 1.5px; opacity: 1;"/></g><g class="points"/><g class="text"/></g><g class="trace scatter trace0dbdf8" style="stroke-miterlimit: 2; opacity: 1;"><g class="fills"/><g class="errorbars"/><g class="lines"><path class="js-line" d="M0,114.83L92.05,114.59L95.57,114.49L141.68,114.24L146.4,114.4L155.86,114.18L160.57,114.29L170.01,114.05L174.73,113.96L205.32,113.68L208.83,113.53L350.4,113.35L354.06,113.51L383.19,113.41L387.57,112.03L395.45,112.66L398.52,110.79L401.56,110.14L403.52,107.91L410.7,111.3L415.4,112.36L417.65,110.11L421.18,110.04L424.87,110.82L429.56,112.65L431.82,109.41L435.37,109.45L438.99,110.22L443.74,112.24L445.99,109.5L449.5,110.45L453.17,109.77L457.87,111.42L460.13,109.74L463.66,109.95L467.31,109.96L472.03,111.1L474.28,109.65L477.82,109.56L486.18,110.75L488.47,109.64L492,109.1" style="vector-effect: none; fill: none; stroke: rgb(175, 221, 47); stroke-opacity: 1; stroke-width: 1.5px; opacity: 1;"/></g><g class="points"/><g class="text"/></g></g></g></g><path class="xlines-above crisp" d="M37.5,308.01H530.5M37.5,185.99000000000004H530.5" style="fill: none; stroke-width: 0.5px; stroke: rgb(0, 0, 0); stroke-opacity: 1;"/><path class="ylines-above crisp" d="M37.75,186.24000000000004V307.76M530.25,186.24000000000004V307.76" style="fill: none; stroke-width: 0.5px; stroke: rgb(0, 0, 0); stroke-opacity: 1;"/><g class="overlines-above"/><g class="xaxislayer-above"><path class="x2tick ticks crisp" d="M0,307.76v-5" transform="translate(108.79,0)" style="stroke: rgb(0, 0, 0); stroke-opacity: 1; stroke-width: 0.5px;"/><path class="x2tick ticks crisp" d="M0,307.76v-5" transform="translate(179.57,0)" style="stroke: rgb(0, 0, 0); stroke-opacity: 1; stroke-width: 0.5px;"/><path class="x2tick ticks crisp" d="M0,307.76v-5" transform="translate(250.36,0)" style="stroke: rgb(0, 0, 0); stroke-opacity: 1; stroke-width: 0.5px;"/><path class="x2tick ticks crisp" d="M0,307.76v-5" transform="translate(321.15,0)" style="stroke: rgb(0, 0, 0); stroke-opacity: 1; stroke-width: 0.5px;"/><path class="x2tick ticks crisp" d="M0,307.76v-5" transform="translate(391.93,0)" style="stroke: rgb(0, 0, 0); stroke-opacity: 1; stroke-width: 0.5px;"/><path class="x2tick ticks crisp" d="M0,307.76v-5" transform="translate(462.72,0)" style="stroke: rgb(0, 0, 0); stroke-opacity: 1; stroke-width: 0.5px;"/></g><g class="yaxislayer-above"><path class="y2tick ticks crisp" d="M38,0h5" transform="translate(0,301.75000000000006)" style="stroke: rgb(0, 0, 0); stroke-opacity: 1; stroke-width: 0.5px;"/><path class="y2tick ticks crisp" d="M38,0h5" transform="translate(0,277.20000000000005)" style="stroke: rgb(0, 0, 0); stroke-opacity: 1; stroke-width: 0.5px;"/><path class="y2tick ticks crisp" d="M38,0h5" transform="translate(0,252.65000000000003)" style="stroke: rgb(0, 0, 0); stroke-opacity: 1; stroke-width: 0.5px;"/><path class="y2tick ticks crisp" d="M38,0h5" transform="translate(0,228.11000000000004)" style="stroke: rgb(0, 0, 0); stroke-opacity: 1; stroke-width: 0.5px;"/><path class="y2tick ticks crisp" d="M38,0h5" transform="translate(0,203.56000000000003)" style="stroke: rgb(0, 0, 0); stroke-opacity: 1; stroke-width: 0.5px;"/><g class="y2tick"><text text-anchor="end" x="35.3" y="3.8499999999999996" transform="translate(0,301.75000000000006)" style="font-family: 'Open Sans', verdana, arial, sans-serif; font-size: 11px; fill: rgb(0, 0, 0); fill-opacity: 1; white-space: pre; opacity: 1;">0</text></g><g class="y2tick"><text text-anchor="end" x="35.3" y="3.8499999999999996" style="font-family: 'Open Sans', verdana, arial, sans-serif; font-size: 11px; fill: rgb(0, 0, 0); fill-opacity: 1; white-space: pre; opacity: 1;" transform="translate(0,277.20000000000005)">0.2</text></g><g class="y2tick"><text text-anchor="end" x="35.3" y="3.8499999999999996" style="font-family: 'Open Sans', verdana, arial, sans-serif; font-size: 11px; fill: rgb(0, 0, 0); fill-opacity: 1; white-space: pre; opacity: 1;" transform="translate(0,252.65000000000003)">0.4</text></g><g class="y2tick"><text text-anchor="end" x="35.3" y="3.8499999999999996" style="font-family: 'Open Sans', verdana, arial, sans-serif; font-size: 11px; fill: rgb(0, 0, 0); fill-opacity: 1; white-space: pre; opacity: 1;" transform="translate(0,228.11000000000004)">0.6</text></g><g class="y2tick"><text text-anchor="end" x="35.3" y="3.8499999999999996" style="font-family: 'Open Sans', verdana, arial, sans-serif; font-size: 11px; fill: rgb(0, 0, 0); fill-opacity: 1; white-space: pre; opacity: 1;" transform="translate(0,203.56000000000003)">0.8</text></g></g><g class="overaxes-above"/></g><g class="subplot x3y3"><g class="layer-subplot"><g class="shapelayer"/><g class="imagelayer"/></g><g class="minor-gridlayer"><g class="x3"/><g class="y3"/></g><g class="gridlayer"><g class="x3"><path class="x3grid crisp" transform="translate(108.79,0)" d="M0,342.47999999999996v121.51999999999998" style="stroke: rgb(128, 128, 128); stroke-opacity: 1; stroke-width: 0.2px;"/><path class="x3grid crisp" transform="translate(179.57,0)" d="M0,342.47999999999996v121.51999999999998" style="stroke: rgb(128, 128, 128); stroke-opacity: 1; stroke-width: 0.2px;"/><path class="x3grid crisp" transform="translate(250.36,0)" d="M0,342.47999999999996v121.51999999999998" style="stroke: rgb(128, 128, 128); stroke-opacity: 1; stroke-width: 0.2px;"/><path class="x3grid crisp" transform="translate(321.15,0)" d="M0,342.47999999999996v121.51999999999998" style="stroke: rgb(128, 128, 128); stroke-opacity: 1; stroke-width: 0.2px;"/><path class="x3grid crisp" transform="translate(391.93,0)" d="M0,342.47999999999996v121.51999999999998" style="stroke: rgb(128, 128, 128); stroke-opacity: 1; stroke-width: 0.2px;"/><path class="x3grid crisp" transform="translate(462.72,0)" d="M0,342.47999999999996v121.51999999999998" style="stroke: rgb(128, 128, 128); stroke-opacity: 1; stroke-width: 0.2px;"/></g><g class="y3"><path class="y3grid crisp" transform="translate(0,458.29999999999995)" d="M38,0h492" style="stroke: rgb(128, 128, 128); stroke-opacity: 1; stroke-width: 0.2px;"/><path class="y3grid crisp" transform="translate(0,409.78)" d="M38,0h492" style="stroke: rgb(128, 128, 128); stroke-opacity: 1; stroke-width: 0.2px;"/><path class="y3grid crisp" transform="translate(0,361.26)" d="M38,0h492" style="stroke: rgb(128, 128, 128); stroke-opacity: 1; stroke-width: 0.2px;"/></g></g><g class="zerolinelayer"/><g class="layer-between"><g class="shapelayer"/><g class="imagelayer"/></g><path class="xlines-below"/><path class="ylines-below"/><g class="overlines-below"/><g class="xaxislayer-below"/><g class="yaxislayer-below"/><g class="overaxes-below"/><g class="overplot"><g class="x3y3" transform="translate(38,342.47999999999996)" clip-path="url(#clip5e19a4x3y3plot)"><g class="scatterlayer mlayer"><g class="trace scatter traced58f33" style="stroke-miterlimit: 2; opacity: 1;"><g class="fills"/><g class="errorbars"/><g class="lines"><path class="js-line" d="M0,115.38L47.33,114.89L49.56,114.45L70.9,114.52L75.62,114.31L99.24,112.25L103.95,111.47L118.09,108.97L120.36,108.53L141.68,101.32L146.4,99.32L148.69,98.71L152.22,96.48L162.83,92.1L166.36,89.17L170.01,87.28L174.73,83.99L176.99,83.23L180.54,80.81L188.88,78.01L191.14,75.93L198.35,71.28L203.06,65.69L205.32,65.2L208.83,63.43L217.19,61.38L219.45,60.59L237.17,57.55L240.81,57.41L254.96,55.49L259.69,53.09L261.95,53.24L265.49,50.4L269.11,46.48L273.85,42.5L276.07,42.53L279.64,39.31L288.02,30.96L290.24,30.64L297.42,24.89L302.14,21.97L307.92,18.59L311.61,16.04L316.31,12.42L318.56,12.64L322.09,13.53L325.76,13.03L330.46,13.28L332.72,12.54L336.24,14.13L339.9,13.78L344.64,12.72L346.87,14.92L358.77,15.83L361.02,16.12L376.43,16.26L379.47,16.78L389.45,16.5L395.45,15.49L398.52,16.15L401.56,15.28L407.02,15.63L410.7,15.45L417.65,14.6L421.18,14.71L429.56,13.79L431.82,13.65L435.37,13.7L438.99,12.91L453.17,11.67L457.87,11.51L477.82,10.44L481.47,10.31L488.47,9.74L492,9.42" style="vector-effect: none; fill: none; stroke: rgb(71, 43, 121); stroke-opacity: 1; stroke-width: 1.5px; opacity: 1;"/></g><g class="points"/><g class="text"/></g><g class="trace scatter trace3692bd" style="stroke-miterlimit: 2; opacity: 1;"><g class="fills"/><g class="errorbars"/><g class="lines"><path class="js-line" d="M0,114.89L24.78,114.82L28.43,114.86L81.44,113.63L85.06,113.14L109.75,109.81L113.38,109.25L123.88,106.77L127.53,105.31L138.04,101.92L141.68,100.05L162.83,90.36L166.36,87.69L170.01,86.31L174.73,83.18L176.99,80.95L180.54,79.3L184.17,78.68L188.88,76.45L191.14,74.15L194.66,71.74L198.35,69.46L203.06,63.94L208.83,61.76L212.47,61.17L222.98,57.91L226.63,57.16L240.81,55.2L245.51,54.33L247.76,54.81L251.32,53.71L259.69,48.15L261.95,48.49L265.49,43.83L269.11,42.12L273.85,39.22L276.07,39.17L288.02,29.88L290.24,29.68L297.42,24.09L302.14,21.19L307.92,17.36L311.61,20.16L316.31,11.34L318.56,13.32L339.9,11.41L344.64,9.61L346.87,10.87L350.4,10.92L361.02,10.56L364.56,10.54L383.19,10.47L387.57,9.18L389.45,9.24L395.45,8.58L401.56,8.74L403.52,8.4L410.7,8.63L415.4,7.86L429.56,8.09L431.82,7.51L445.99,7.34L449.5,7.41L481.47,6.65L486.18,6.59L488.47,6.08L492,6.14" style="vector-effect: none; fill: none; stroke: rgb(71, 43, 121); stroke-opacity: 1; stroke-width: 1.5px; opacity: 1;"/></g><g class="points"/><g class="text"/></g><g class="trace scatter trace7910bd" style="stroke-miterlimit: 2; opacity: 1;"><g class="fills"/><g class="errorbars"/><g class="lines"><path class="js-line" d="M0,115.34L81.44,113.96L85.06,113.53L106.21,111.13L109.75,110.5L120.36,108.47L123.88,107.54L141.68,101.63L146.4,99.61L162.83,92.09L166.36,90.05L170.01,88.44L174.73,85.39L180.54,81.52L184.17,80.58L188.88,78.44L191.14,76.34L203.06,68.3L205.32,63.85L217.19,60.76L219.45,60.35L233.61,57.44L237.17,56.99L251.32,55.03L254.96,53.43L259.69,51.17L261.95,51.95L265.49,46.94L269.11,43.69L273.85,41.4L276.07,41.76L279.64,37.91L283.27,36.02L288.02,31.93L290.24,31.99L297.42,25.18L302.14,22.45L311.61,16.64L316.31,16.37L318.56,12.72L322.09,12.52L325.76,12.79L330.46,12.06L332.72,11.61L336.24,12.31L344.64,9.56L346.87,9.77L354.06,9.76L358.77,9.34L376.43,8.6L379.47,8.9L389.45,8.59L395.45,7.8L398.52,8.72L401.56,8.41L410.7,8.75L415.4,7.83L429.56,8.05L431.82,7.83L438.99,7.86L443.74,7.89L477.82,7.64L481.47,7.64L492,7.44" style="vector-effect: none; fill: none; stroke: rgb(71, 43, 121); stroke-opacity: 1; stroke-width: 1.5px; opacity: 1;"/></g><g class="points"/><g class="text"/></g><g class="trace scatter tracef9d0f3" style="stroke-miterlimit: 2; opacity: 1;"><g class="fills"/><g class="errorbars"/><g class="lines"><path class="js-line" d="M0,110.81L4.84,115.36L7.1,115.23L35.41,115.06L38.94,115.06L81.44,114.25L85.06,113.84L109.75,111.09L113.38,110.36L132.25,105.45L134.5,104.36L152.22,96.75L155.86,94.86L162.83,91.38L166.36,88.46L170.01,86.91L174.73,83.05L176.99,82.33L180.54,79.76L184.17,78.81L188.88,78.5L194.66,77.31L198.35,76.73L237.17,73.91L240.81,73.51L254.96,70.77L259.69,68.98L261.95,70.16L265.49,68.79L269.11,64.74L273.85,61.87L276.07,61.31L279.64,58.42L288.02,50.2L290.24,49.73L293.8,50.29L297.42,49.89L304.39,49.87L307.92,50.25L330.46,50.53L332.72,50.08L339.9,50.21L344.64,49.62L350.4,50.23L354.06,50L374.91,48.75L376.43,48.38L383.19,48.04L387.57,46.43L389.45,46.27L395.45,44.96L398.52,45.23L401.56,44.57L403.52,41.92L407.02,43.93L415.4,42.29L417.65,39.9L421.18,42.09L424.87,41.56L429.56,41.42L431.82,37.92L435.37,40.78L438.99,40.47L443.74,39.55L445.99,36.35L449.5,39.7L453.17,38.95L457.87,38.4L460.13,35.91L463.66,37.92L467.31,37.9L472.03,37.2L474.28,34.53L477.82,37.47L481.47,37.05L486.18,36.7L488.47,33.88L492,36.14" style="vector-effect: none; fill: none; stroke: rgb(56, 87, 139); stroke-opacity: 1; stroke-width: 1.5px; opacity: 1;"/></g><g class="points"/><g class="text"/></g><g class="trace scatter trace9e9f80" style="stroke-miterlimit: 2; opacity: 1;"><g class="fills"/><g class="errorbars"/><g class="lines"><path class="js-line" d="M0,110.46L4.84,115.32L7.1,115.25L81.44,114.47L85.06,114.1L106.21,111.73L109.75,111.17L127.53,106.88L132.25,105.08L146.4,99.24L148.69,98.97L155.86,94.81L160.57,92.8L170.01,88.04L174.73,84.1L176.99,83.33L180.54,79.72L194.66,77.52L198.35,76.58L226.63,73.27L231.35,72.88L251.32,70.31L254.96,69.09L259.69,67.21L261.95,69.33L269.11,63.23L273.85,60.18L276.07,59.84L279.64,57.75L288.02,49.5L290.24,48.74L293.8,49.1L297.42,48.62L302.14,47.82L304.39,48.32L316.31,48.23L318.56,47.98L330.46,47.78L332.72,47.56L339.9,47.45L344.64,46.26L346.87,47.15L350.4,47.13L383.19,44.57L387.57,42.52L389.45,42.6L395.45,41.66L401.56,41.56L403.52,38.57L407.02,41.1L410.7,40.83L415.4,39.61L417.65,36.7L421.18,38.42L424.87,39.25L429.56,39L431.82,34.97L435.37,37.91L438.99,38.44L443.74,37.98L445.99,34.45L449.5,37.22L453.17,37.73L457.87,37.4L460.13,34.29L463.66,36.84L467.31,36.99L472.03,36.46L474.28,33.2L477.82,36.08L481.47,36.36L486.18,36.05L488.47,32.94L492,34.71" style="vector-effect: none; fill: none; stroke: rgb(56, 87, 139); stroke-opacity: 1; stroke-width: 1.5px; opacity: 1;"/></g><g class="points"/><g class="text"/></g><g class="trace scatter tracec742fc" style="stroke-miterlimit: 2; opacity: 1;"><g class="fills"/><g class="errorbars"/><g class="lines"><path class="js-line" d="M0,109.79L4.84,115.22L7.1,115.22L81.44,114.51L85.06,114.1L106.21,111.71L109.75,111.07L127.53,106.82L132.25,105.08L146.4,99.17L148.69,98.85L155.86,94.53L160.57,92.77L166.36,88.91L170.01,87.96L174.73,84.1L176.99,84.01L180.54,79.91L184.17,79.24L188.88,78.92L191.14,77.96L205.32,75.5L208.83,75.2L251.32,70.31L254.96,69.29L259.69,67.55L261.95,69.45L269.11,63.29L273.85,60.32L276.07,59.86L279.64,57.4L288.02,49.2L290.24,48.41L293.8,48.88L297.42,48.49L304.39,48.19L307.92,48.41L339.9,48.17L344.64,47.1L346.87,47.81L350.4,48.01L376.43,45.74L379.47,45.98L383.19,45.54L387.57,43.8L389.45,43.82L395.45,42.97L401.56,42.75L403.52,40.14L407.02,42.25L410.7,41.83L415.4,40.86L417.65,38.1L421.18,40.64L424.87,40.38L429.56,40.28L431.82,36.81L435.37,39.79L438.99,39.7L443.74,39.29L445.99,36.32L449.5,39.47L453.17,38.89L457.87,38.55L460.13,35.93L463.66,38.45L467.31,38.12L472.03,37.64L474.28,34.87L477.82,38.08L481.47,37.46L486.18,37.06L488.47,34.55L492,36.87" style="vector-effect: none; fill: none; stroke: rgb(56, 87, 139); stroke-opacity: 1; stroke-width: 1.5px; opacity: 1;"/></g><g class="points"/><g class="text"/></g><g class="trace scatter tracea32f7d" style="stroke-miterlimit: 2; opacity: 1;"><g class="fills"/><g class="errorbars"/><g class="lines"><path class="js-line" d="M0,108.06L4.84,115.44L7.1,115.38L49.56,115.13L55.81,115.01L89.78,114.14L92.05,114.08L106.21,112.5L109.75,111.93L141.68,103.46L146.4,100.03L152.22,96.94L155.86,96.94L166.36,96.25L170.01,95.91L191.14,96.81L194.66,96.49L217.19,93.95L219.45,93.58L237.17,89.27L240.81,88.19L251.32,84.43L254.96,81.67L261.95,83.04L265.49,82.86L279.64,83.92L283.27,83.98L316.31,84.15L318.56,84.1L350.4,84.28L354.06,83.95L368.21,84L374.91,83.63L383.19,83.19L387.57,81.83L389.45,81.76L395.45,80.56L401.56,79.01L403.52,77.12L415.4,79.95L417.65,78.11L424.87,78.54L429.56,79.5L431.82,76.89L435.37,77.06L443.74,77.68L445.99,75.74L457.87,76.26L460.13,74.67L472.03,74.99L474.28,73.06L486.18,74.11L488.47,72.15L492,71.16" style="vector-effect: none; fill: none; stroke: rgb(40, 125, 142); stroke-opacity: 1; stroke-width: 1.5px; opacity: 1;"/></g><g class="points"/><g class="text"/></g><g class="trace scatter trace705ffa" style="stroke-miterlimit: 2; opacity: 1;"><g class="fills"/><g class="errorbars"/><g class="lines"><path class="js-line" d="M0,109.07L4.84,115.14L7.1,115.17L58.86,114.89L62.6,114.77L81.44,114.54L85.06,114.14L103.95,112.6L106.21,112.36L120.36,109.59L123.88,108.4L138.04,104.41L141.68,102.54L152.22,98.01L155.86,97.61L170.01,96.63L174.73,97.09L188.88,96.73L191.14,96.47L208.83,94.85L212.47,94.38L226.63,91.64L231.35,90.35L240.81,87.58L245.51,85.89L247.76,85.19L251.32,83.21L254.96,81.41L259.69,82.32L261.95,82.85L265.49,82.71L316.31,83.89L318.56,83.64L336.24,83.67L339.9,83.51L350.4,83.81L354.06,83.58L379.47,83.33L383.19,83.22L387.57,82.08L389.45,82.37L395.45,82.26L398.52,80.73L401.56,79.35L403.52,77.52L417.65,78.06L421.18,77.22L431.82,76.69L435.37,76.17L445.99,75.53L449.5,75.06L467.31,73.4L472.03,73.56L474.28,73.1L477.82,73.19L481.47,72.62L486.18,72.9L492,71.96" style="vector-effect: none; fill: none; stroke: rgb(40, 125, 142); stroke-opacity: 1; stroke-width: 1.5px; opacity: 1;"/></g><g class="points"/><g class="text"/></g><g class="trace scatter trace0746c0" style="stroke-miterlimit: 2; opacity: 1;"><g class="fills"/><g class="errorbars"/><g class="lines"><path class="js-line" d="M0,108.42L4.84,115.44L7.1,115.39L42.57,115.18L47.33,115.09L89.78,114.16L92.05,114.09L106.21,112.57L109.75,112.1L118.09,110.14L120.36,109.88L123.88,107.45L127.53,107.85L141.68,103.09L146.4,100.25L152.22,97.37L155.86,97.12L184.17,94.64L188.88,95L205.32,94.69L208.83,94.29L226.63,91.5L231.35,90.36L240.81,87.6L245.51,85.85L251.32,84.26L254.96,81.04L261.95,82.39L265.49,82L283.27,83.04L288.02,83.16L293.8,83.25L297.42,83.1L368.21,82.67L374.91,82.34L379.47,81.84L383.19,81.74L387.57,80.17L389.45,80.36L398.52,78L401.56,76.48L403.52,74.45L407.02,74.79L415.4,75.49L417.65,74.32L421.18,73.16L424.87,73.33L429.56,74.07L431.82,72.81L457.87,70.08L460.13,69.32L481.47,66.89L486.18,67.31L492,65.33" style="vector-effect: none; fill: none; stroke: rgb(40, 125, 142); stroke-opacity: 1; stroke-width: 1.5px; opacity: 1;"/></g><g class="points"/><g class="text"/></g><g class="trace scatter trace3f9e1c" style="stroke-miterlimit: 2; opacity: 1;"><g class="fills"/><g class="errorbars"/><g class="lines"><path class="js-line" d="M0,107.48L4.84,114.84L7.1,114.85L95.57,113.21L99.24,112.9L113.38,111.11L118.09,110.09L120.36,109.9L123.88,107.86L138.04,107.94L141.68,107.39L148.69,106.72L152.22,106.83L162.83,106.45L166.36,105.71L170.01,104.81L174.73,104.62L180.54,105.05L184.17,104.92L217.19,99.85L219.45,99.4L222.98,98.19L226.63,98.18L269.11,98.56L273.85,98.62L307.92,98.52L311.61,98.55L330.46,98.75L332.72,98.61L383.19,98.45L387.57,97.78L395.45,97.93L398.52,95.97L401.56,94.49L403.52,92.69L415.4,92.89L417.65,92.3L421.18,91.15L424.87,91.35L429.56,91.44L431.82,90.66L438.99,89.97L443.74,89.72L445.99,88.92L449.5,88.54L488.47,85.38L492,85.05" style="vector-effect: none; fill: none; stroke: rgb(35, 163, 134); stroke-opacity: 1; stroke-width: 1.5px; opacity: 1;"/></g><g class="points"/><g class="text"/></g><g class="trace scatter trace928b36" style="stroke-miterlimit: 2; opacity: 1;"><g class="fills"/><g class="errorbars"/><g class="lines"><path class="js-line" d="M0,108.47L4.84,115.19L7.1,115.17L81.44,114.23L85.06,114.05L106.21,112.48L109.75,112.03L120.36,109.86L123.88,108.51L134.5,108.74L138.04,108.41L174.73,105.69L176.99,105.63L212.47,100.72L217.19,99.78L222.98,98.12L226.63,98.46L251.32,98.84L254.96,98.66L354.06,99L358.77,98.91L368.21,98.83L374.91,98.85L383.19,98.66L387.57,97.97L395.45,98.16L398.52,96.11L403.52,92.46L407.02,92.66L417.65,92.1L421.18,91.23L431.82,90.29L435.37,89.6L445.99,88.6L449.5,88.23L467.31,86.32L472.03,86.29L481.47,85.32L486.18,85.52L492,84.36" style="vector-effect: none; fill: none; stroke: rgb(35, 163, 134); stroke-opacity: 1; stroke-width: 1.5px; opacity: 1;"/></g><g class="points"/><g class="text"/></g><g class="trace scatter tracecf285f" style="stroke-miterlimit: 2; opacity: 1;"><g class="fills"/><g class="errorbars"/><g class="lines"><path class="js-line" d="M0,108.4L4.84,115.31L7.1,115.25L92.05,113.93L95.57,113.64L99.24,112.17L103.95,111.67L120.36,109.89L123.88,108.18L134.5,108.82L138.04,108.45L152.22,107.37L155.86,107.37L166.36,106.17L170.01,105.45L205.32,102.38L208.83,101.64L219.45,99.54L222.98,98.03L237.17,98.57L240.81,98.52L265.49,98.55L269.11,98.47L304.39,98.58L307.92,98.6L325.76,98.48L330.46,98.71L350.4,98.7L354.06,98.64L383.19,98.33L387.57,97.58L395.45,97.71L398.52,95.74L403.52,92.12L407.02,92.12L417.65,91.43L421.18,90.5L431.82,89.86L435.37,89.18L449.5,87.98L453.17,87.23L477.82,85.48L481.47,85.05L488.47,85.03L492,84.08" style="vector-effect: none; fill: none; stroke: rgb(35, 163, 134); stroke-opacity: 1; stroke-width: 1.5px; opacity: 1;"/></g><g class="points"/><g class="text"/></g><g class="trace scatter trace35cfea" style="stroke-miterlimit: 2; opacity: 1;"><g class="fills"/><g class="errorbars"/><g class="lines"><path class="js-line" d="M0,108.99L4.84,115.24L7.1,115.29L92.05,113.81L95.57,113.45L132.25,111.83L134.5,112.16L148.69,111.91L152.22,111.84L170.01,110.7L174.73,110.19L176.99,110.19L180.54,109.31L191.14,108.15L194.66,107.56L208.83,105.65L212.47,105.56L251.32,105.58L254.96,105.53L304.39,105.63L307.92,105.55L330.46,105.83L332.72,105.56L383.19,105.49L387.57,104.58L395.45,104.83L398.52,102.36L403.52,98.67L407.02,98.73L417.65,97.89L421.18,96.7L431.82,95.4L435.37,94.69L443.74,94.74L445.99,93.49L449.5,93.54L453.17,92.84L477.82,91L481.47,90.53L488.47,90.52L492,89.6" style="vector-effect: none; fill: none; stroke: rgb(84, 196, 103); stroke-opacity: 1; stroke-width: 1.5px; opacity: 1;"/></g><g class="points"/><g class="text"/></g><g class="trace scatter trace1a4963" style="stroke-miterlimit: 2; opacity: 1;"><g class="fills"/><g class="errorbars"/><g class="lines"><path class="js-line" d="M0,111.65L4.84,115.33L7.1,115.31L77.89,114.51L81.44,114.39L141.68,112.02L146.4,112.18L174.73,110.42L176.99,110.28L184.17,109.28L188.88,108.63L198.35,107.48L203.06,106.6L222.98,106.21L226.63,106.47L240.81,106.2L245.51,106.17L254.96,106.12L259.69,106.15L316.31,106.33L318.56,106.17L354.06,106.26L358.77,106.19L383.19,106.11L387.57,104.87L395.45,105.31L398.52,103.35L403.52,99.8L407.02,99.71L417.65,98.17L421.18,97.46L431.82,95.96L435.37,95.27L443.74,94.81L445.99,94.09L467.31,91.93L472.03,91.78L474.28,91.06L477.82,90.93L492,89.9" style="vector-effect: none; fill: none; stroke: rgb(84, 196, 103); stroke-opacity: 1; stroke-width: 1.5px; opacity: 1;"/></g><g class="points"/><g class="text"/></g><g class="trace scatter trace9f9f19" style="stroke-miterlimit: 2; opacity: 1;"><g class="fills"/><g class="errorbars"/><g class="lines"><path class="js-line" d="M0,109.4L4.84,115.24L7.1,115.21L49.56,114.84L55.81,114.64L67.25,114.52L70.9,114.43L132.25,111.95L134.5,112.22L148.69,111.81L152.22,111.75L170.01,110.56L174.73,110.18L176.99,110.12L180.54,109.22L191.14,108.03L194.66,107.5L208.83,105.65L212.47,105.58L254.96,105.53L259.69,105.53L322.09,105.62L325.76,105.61L364.56,105.69L368.21,105.56L383.19,105.47L387.57,104.51L389.45,104.37L395.45,104.73L403.52,98.71L407.02,98.96L417.65,98.24L421.18,97.38L431.82,96.29L435.37,95.96L449.5,94.45L453.17,93.89L472.03,92.14L474.28,91.99L481.47,91.25L486.18,91.86L488.47,90.94L492,90.46" style="vector-effect: none; fill: none; stroke: rgb(84, 196, 103); stroke-opacity: 1; stroke-width: 1.5px; opacity: 1;"/></g><g class="points"/><g class="text"/></g><g class="trace scatter trace86867c" style="stroke-miterlimit: 2; opacity: 1;"><g class="fills"/><g class="errorbars"/><g class="lines"><path class="js-line" d="M0,115.24L70.9,114.52L75.62,114.38L103.95,114.11L106.21,114.13L160.57,113.9L162.83,113.75L191.14,113.11L194.66,113.07L376.43,112.99L379.47,112.92L383.19,112.96L387.57,111.98L395.45,112.23L398.52,110.74L401.56,110.53L403.52,108.55L407.02,110.83L410.7,111.72L415.4,112.14L417.65,109.8L421.18,110.4L424.87,112L429.56,112.29L431.82,109.25L435.37,109.7L438.99,111.88L443.74,112.4L445.99,109.32L449.5,111.25L453.17,111.87L457.87,112.15L460.13,109.72L463.66,111.31L467.31,111.91L472.03,112.3L474.28,109.74L477.82,111.66L481.47,112.16L486.18,112.29L488.47,109.96L492,111.01" style="vector-effect: none; fill: none; stroke: rgb(175, 221, 47); stroke-opacity: 1; stroke-width: 1.5px; opacity: 1;"/></g><g class="points"/><g class="text"/></g><g class="trace scatter tracee82989" style="stroke-miterlimit: 2; opacity: 1;"><g class="fills"/><g class="errorbars"/><g class="lines"><path class="js-line" d="M0,115.36L70.9,114.7L75.62,114.53L106.21,114.39L109.75,114.38L155.86,114.02L160.57,114.03L176.99,113.42L180.54,113.29L208.83,113.18L212.47,113.19L383.19,113.12L387.57,112.35L395.45,112.64L398.52,111.17L401.56,110.3L403.52,108.65L415.4,111.91L417.65,110.07L421.18,109.63L424.87,110.26L429.56,112.41L431.82,109.69L435.37,109.36L438.99,110.24L443.74,111.72L445.99,109.64L453.17,109.74L457.87,111.09L460.13,109.59L463.66,109.66L467.31,109.7L472.03,110.99L474.28,109.37L477.82,109.48L486.18,110.01L488.47,109.42L492,108.99" style="vector-effect: none; fill: none; stroke: rgb(175, 221, 47); stroke-opacity: 1; stroke-width: 1.5px; opacity: 1;"/></g><g class="points"/><g class="text"/></g><g class="trace scatter traceafbfac" style="stroke-miterlimit: 2; opacity: 1;"><g class="fills"/><g class="errorbars"/><g class="lines"><path class="js-line" d="M0,115.33L132.25,114.45L134.5,114.62L155.86,114.06L160.57,114.06L176.99,113.35L180.54,113.26L217.19,113.29L219.45,113.26L311.61,113.1L316.31,113.3L330.46,113.18L332.72,113.12L383.19,113.06L387.57,112.16L395.45,112.39L398.52,110.82L401.56,110.14L403.52,108.14L407.02,110.18L410.7,111.17L415.4,112.14L417.65,110.06L421.18,110.17L424.87,111.45L429.56,112.53L431.82,109.62L435.37,109.83L438.99,111.65L443.74,112.53L445.99,109.68L453.17,111.54L457.87,112.21L460.13,110.04L463.66,111.09L472.03,112.32L474.28,110.04L481.47,112.02L486.18,112.37L488.47,110.25L492,110.73" style="vector-effect: none; fill: none; stroke: rgb(175, 221, 47); stroke-opacity: 1; stroke-width: 1.5px; opacity: 1;"/></g><g class="points"/><g class="text"/></g></g></g></g><path class="xlines-above crisp" d="M37.5,464.24999999999994H530.5M37.5,342.22999999999996H530.5" style="fill: none; stroke-width: 0.5px; stroke: rgb(0, 0, 0); stroke-opacity: 1;"/><path class="ylines-above crisp" d="M37.75,342.47999999999996V463.99999999999994M530.25,342.47999999999996V463.99999999999994" style="fill: none; stroke-width: 0.5px; stroke: rgb(0, 0, 0); stroke-opacity: 1;"/><g class="overlines-above"/><g class="xaxislayer-above"><path class="x3tick ticks crisp" d="M0,463.99999999999994v-5" transform="translate(108.79,0)" style="stroke: rgb(0, 0, 0); stroke-opacity: 1; stroke-width: 0.5px;"/><path class="x3tick ticks crisp" d="M0,463.99999999999994v-5" transform="translate(179.57,0)" style="stroke: rgb(0, 0, 0); stroke-opacity: 1; stroke-width: 0.5px;"/><path class="x3tick ticks crisp" d="M0,463.99999999999994v-5" transform="translate(250.36,0)" style="stroke: rgb(0, 0, 0); stroke-opacity: 1; stroke-width: 0.5px;"/><path class="x3tick ticks crisp" d="M0,463.99999999999994v-5" transform="translate(321.15,0)" style="stroke: rgb(0, 0, 0); stroke-opacity: 1; stroke-width: 0.5px;"/><path class="x3tick ticks crisp" d="M0,463.99999999999994v-5" transform="translate(391.93,0)" style="stroke: rgb(0, 0, 0); stroke-opacity: 1; stroke-width: 0.5px;"/><path class="x3tick ticks crisp" d="M0,463.99999999999994v-5" transform="translate(462.72,0)" style="stroke: rgb(0, 0, 0); stroke-opacity: 1; stroke-width: 0.5px;"/><g class="x3tick"><text text-anchor="middle" x="0" y="477.69999999999993" transform="translate(38,0)" style="font-family: 'Open Sans', verdana, arial, sans-serif; font-size: 11px; fill: rgb(0, 0, 0); fill-opacity: 1; white-space: pre; opacity: 1;">0</text></g><g class="x3tick"><text text-anchor="middle" x="0" y="477.69999999999993" style="font-family: 'Open Sans', verdana, arial, sans-serif; font-size: 11px; fill: rgb(0, 0, 0); fill-opacity: 1; white-space: pre; opacity: 1;" transform="translate(108.79,0)">5</text></g><g class="x3tick"><text text-anchor="middle" x="0" y="477.69999999999993" style="font-family: 'Open Sans', verdana, arial, sans-serif; font-size: 11px; fill: rgb(0, 0, 0); fill-opacity: 1; white-space: pre; opacity: 1;" transform="translate(179.57,0)">10</text></g><g class="x3tick"><text text-anchor="middle" x="0" y="477.69999999999993" style="font-family: 'Open Sans', verdana, arial, sans-serif; font-size: 11px; fill: rgb(0, 0, 0); fill-opacity: 1; white-space: pre; opacity: 1;" transform="translate(250.36,0)">15</text></g><g class="x3tick"><text text-anchor="middle" x="0" y="477.69999999999993" style="font-family: 'Open Sans', verdana, arial, sans-serif; font-size: 11px; fill: rgb(0, 0, 0); fill-opacity: 1; white-space: pre; opacity: 1;" transform="translate(321.15,0)">20</text></g><g class="x3tick"><text text-anchor="middle" x="0" y="477.69999999999993" style="font-family: 'Open Sans', verdana, arial, sans-serif; font-size: 11px; fill: rgb(0, 0, 0); fill-opacity: 1; white-space: pre; opacity: 1;" transform="translate(391.93,0)">25</text></g><g class="x3tick"><text text-anchor="middle" x="0" y="477.69999999999993" style="font-family: 'Open Sans', verdana, arial, sans-serif; font-size: 11px; fill: rgb(0, 0, 0); fill-opacity: 1; white-space: pre; opacity: 1;" transform="translate(462.72,0)">30</text></g></g><g class="yaxislayer-above"><path class="y3tick ticks crisp" d="M38,0h5" transform="translate(0,458.29999999999995)" style="stroke: rgb(0, 0, 0); stroke-opacity: 1; stroke-width: 0.5px;"/><path class="y3tick ticks crisp" d="M38,0h5" transform="translate(0,409.78)" style="stroke: rgb(0, 0, 0); stroke-opacity: 1; stroke-width: 0.5px;"/><path class="y3tick ticks crisp" d="M38,0h5" transform="translate(0,361.26)" style="stroke: rgb(0, 0, 0); stroke-opacity: 1; stroke-width: 0.5px;"/><g class="y3tick"><text text-anchor="end" x="35.3" y="3.8499999999999996" transform="translate(0,458.29999999999995)" style="font-family: 'Open Sans', verdana, arial, sans-serif; font-size: 11px; fill: rgb(0, 0, 0); fill-opacity: 1; white-space: pre; opacity: 1;">0</text></g><g class="y3tick"><text text-anchor="end" x="35.3" y="3.8499999999999996" style="font-family: 'Open Sans', verdana, arial, sans-serif; font-size: 11px; fill: rgb(0, 0, 0); fill-opacity: 1; white-space: pre; opacity: 1;" transform="translate(0,409.78)">0.5</text></g><g class="y3tick"><text text-anchor="end" x="35.3" y="3.8499999999999996" style="font-family: 'Open Sans', verdana, arial, sans-serif; font-size: 11px; fill: rgb(0, 0, 0); fill-opacity: 1; white-space: pre; opacity: 1;" transform="translate(0,361.26)">1</text></g></g><g class="overaxes-above"/></g></g><g class="polarlayer"/><g class="smithlayer"/><g class="ternarylayer"/><g class="geolayer"/><g class="funnelarealayer"/><g class="pielayer"/><g class="iciclelayer"/><g class="treemaplayer"/><g class="sunburstlayer"/><g class="glimages"/><defs id="topdefs-5e19a4"><g class="clips"/><clipPath id="legend5e19a4"><rect width="148" height="250" x="0" y="0"/></clipPath></defs><g class="layer-above"><g class="imagelayer"/><g class="shapelayer"/></g><g class="infolayer"><g class="legend" pointer-events="all" transform="translate(539.84,30)"><rect class="bg" shape-rendering="crispEdges" style="stroke: rgb(68, 68, 68); stroke-opacity: 1; fill: rgb(255, 255, 255); fill-opacity: 1; stroke-width: 0px;" width="148" height="250" x="0" y="0"/><g class="scrollbox" transform="" clip-path="url(#legend5e19a4)"><g class="groups" transform=""><g class="traces" transform="translate(0,20.8)" style="opacity: 1;"><text class="legendtext" text-anchor="start" x="40" y="-2.8600000000000003" style="font-family: 'Open Sans', verdana, arial, sans-serif; font-size: 11px; fill: rgb(0, 0, 0); fill-opacity: 1; white-space: pre;"><tspan class="line" dy="0em" x="40" y="-2.8600000000000003">11.25 mM Succinate</tspan><tspan class="line" dy="1.3em" x="40" y="-2.8600000000000003"> 7.5 mM Glucose</tspan></text><g class="layers" style="opacity: 1;"><g class="legendfill"/><g class="legendlines"><path class="js-line" d="M5,0h30" style="fill: none; stroke: rgb(71, 43, 121); stroke-opacity: 1; stroke-width: 1.5px;"/></g><g class="legendsymbols"><g class="legendpoints"/></g></g><rect class="legendtoggle" x="0" y="-15.8" width="142.9375" height="31.6" style="fill: rgb(0, 0, 0); fill-opacity: 0;"/></g></g><g class="groups" transform="translate(0,10)"><g class="traces" transform="translate(0,52.400000000000006)" style="opacity: 1;"><text class="legendtext" text-anchor="start" x="40" y="-2.8600000000000003" style="font-family: 'Open Sans', verdana, arial, sans-serif; font-size: 11px; fill: rgb(0, 0, 0); fill-opacity: 1; white-space: pre;"><tspan class="line" dy="0em" x="40" y="-2.8600000000000003">7.5 mM Succinate</tspan><tspan class="line" dy="1.3em" x="40" y="-2.8600000000000003"> 5 mM Glucose</tspan></text><g class="layers" style="opacity: 1;"><g class="legendfill"/><g class="legendlines"><path class="js-line" d="M5,0h30" style="fill: none; stroke: rgb(56, 87, 139); stroke-opacity: 1; stroke-width: 1.5px;"/></g><g class="legendsymbols"><g class="legendpoints"/></g></g><rect class="legendtoggle" x="0" y="-15.8" width="142.9375" height="31.6" style="fill: rgb(0, 0, 0); fill-opacity: 0;"/></g></g><g class="groups" transform="translate(0,20)"><g class="traces" transform="translate(0,84)" style="opacity: 1;"><text class="legendtext" text-anchor="start" x="40" y="-2.8600000000000003" style="font-family: 'Open Sans', verdana, arial, sans-serif; font-size: 11px; fill: rgb(0, 0, 0); fill-opacity: 1; white-space: pre;"><tspan class="line" dy="0em" x="40" y="-2.8600000000000003">3.75 mM Succinate</tspan><tspan class="line" dy="1.3em" x="40" y="-2.8600000000000003"> 2.5 mM Glucose</tspan></text><g class="layers" style="opacity: 1;"><g class="legendfill"/><g class="legendlines"><path class="js-line" d="M5,0h30" style="fill: none; stroke: rgb(40, 125, 142); stroke-opacity: 1; stroke-width: 1.5px;"/></g><g class="legendsymbols"><g class="legendpoints"/></g></g><rect class="legendtoggle" x="0" y="-15.8" width="142.9375" height="31.6" style="fill: rgb(0, 0, 0); fill-opacity: 0;"/></g></g><g class="groups" transform="translate(0,30)"><g class="traces" transform="translate(0,115.60000000000001)" style="opacity: 1;"><text class="legendtext" text-anchor="start" x="40" y="-2.8600000000000003" style="font-family: 'Open Sans', verdana, arial, sans-serif; font-size: 11px; fill: rgb(0, 0, 0); fill-opacity: 1; white-space: pre;"><tspan class="line" dy="0em" x="40" y="-2.8600000000000003">1.875 mM Succinate</tspan><tspan class="line" dy="1.3em" x="40" y="-2.8600000000000003"> 1.25 mM Glucose</tspan></text><g class="layers" style="opacity: 1;"><g class="legendfill"/><g class="legendlines"><path class="js-line" d="M5,0h30" style="fill: none; stroke: rgb(35, 163, 134); stroke-opacity: 1; stroke-width: 1.5px;"/></g><g class="legendsymbols"><g class="legendpoints"/></g></g><rect class="legendtoggle" x="0" y="-15.8" width="142.9375" height="31.6" style="fill: rgb(0, 0, 0); fill-opacity: 0;"/></g></g><g class="groups" transform="translate(0,40)"><g class="traces" transform="translate(0,147.20000000000002)" style="opacity: 1;"><text class="legendtext" text-anchor="start" x="40" y="-2.8600000000000003" style="font-family: 'Open Sans', verdana, arial, sans-serif; font-size: 11px; fill: rgb(0, 0, 0); fill-opacity: 1; white-space: pre;"><tspan class="line" dy="0em" x="40" y="-2.8600000000000003">1.25 mM Succinate</tspan><tspan class="line" dy="1.3em" x="40" y="-2.8600000000000003"> 0.833 mM Glucose</tspan></text><g class="layers" style="opacity: 1;"><g class="legendfill"/><g class="legendlines"><path class="js-line" d="M5,0h30" style="fill: none; stroke: rgb(84, 196, 103); stroke-opacity: 1; stroke-width: 1.5px;"/></g><g class="legendsymbols"><g class="legendpoints"/></g></g><rect class="legendtoggle" x="0" y="-15.8" width="142.9375" height="31.6" style="fill: rgb(0, 0, 0); fill-opacity: 0;"/></g></g><g class="groups" transform="translate(0,50)"><g class="traces" transform="translate(0,178.8)" style="opacity: 1;"><text class="legendtext" text-anchor="start" x="40" y="-2.8600000000000003" style="font-family: 'Open Sans', verdana, arial, sans-serif; font-size: 11px; fill: rgb(0, 0, 0); fill-opacity: 1; white-space: pre;"><tspan class="line" dy="0em" x="40" y="-2.8600000000000003">0.625 mM Succinate</tspan><tspan class="line" dy="1.3em" x="40" y="-2.8600000000000003"> 0.417 mM Glucose</tspan></text><g class="layers" style="opacity: 1;"><g class="legendfill"/><g class="legendlines"><path class="js-line" d="M5,0h30" style="fill: none; stroke: rgb(175, 221, 47); stroke-opacity: 1; stroke-width: 1.5px;"/></g><g class="legendsymbols"><g class="legendpoints"/></g></g><rect class="legendtoggle" x="0" y="-15.8" width="142.9375" height="31.6" style="fill: rgb(0, 0, 0); fill-opacity: 0;"/></g></g></g><rect class="scrollbar" rx="20" ry="3" width="0" height="0" style="fill: rgb(128, 139, 164); fill-opacity: 1;" x="0" y="0"/></g><g class="g-gtitle"><text class="gtitle" x="35" y="15" text-anchor="start" dy="0em" style="opacity: 1; font-family: 'Open Sans', verdana, arial, sans-serif; font-size: 11px; fill: rgb(0, 0, 0); fill-opacity: 1; white-space: pre;">Growth on Succinate+Glucose</text></g><g class="g-xtitle"/><g class="g-x2title"/><g class="g-x3title" transform="translate(0,4.550000000000011)"><text class="x3title" x="284" y="488.153125" text-anchor="middle" style="opacity: 1; font-family: 'Open Sans', verdana, arial, sans-serif; font-size: 11px; fill: rgb(0, 0, 0); fill-opacity: 1; white-space: pre;">Time (hours)</text></g><g class="g-ytitle"/><g class="g-y2title"><text class="y2title" transform="rotate(-90,16.18125,247.00000000000003)" x="16.18125" y="247.00000000000003" text-anchor="middle" style="opacity: 1; font-family: 'Open Sans', verdana, arial, sans-serif; font-size: 11px; fill: rgb(0, 0, 0); fill-opacity: 1; white-space: pre;">OD600</text></g><g class="g-y3title"/><g class="annotation" data-index="0" style="opacity: 1;"><g class="annotation-text-g" transform="rotate(0,284,20.5)"><g class="cursor-pointer" transform="translate(277,11)"><rect class="bg" x="0.5" y="0.5" width="14" height="18" style="stroke-width: 1px; stroke: rgb(0, 0, 0); stroke-opacity: 0; fill: rgb(0, 0, 0); fill-opacity: 0;"/><text class="annotation-text" text-anchor="middle" x="7.4375" y="14" style="font-family: 'Open Sans', verdana, arial, sans-serif; font-size: 11px; fill: rgb(0, 0, 0); fill-opacity: 1; white-space: pre;">At</text></g></g></g><g class="annotation" data-index="1" style="opacity: 1;"><g class="annotation-text-g" transform="rotate(0,284,176.74000000000004)"><g class="cursor-pointer" transform="translate(275,167)"><rect class="bg" x="0.5" y="0.5" width="18" height="18" style="stroke-width: 1px; stroke: rgb(0, 0, 0); stroke-opacity: 0; fill: rgb(0, 0, 0); fill-opacity: 0;"/><text class="annotation-text" text-anchor="middle" x="9.34375" y="14" style="font-family: 'Open Sans', verdana, arial, sans-serif; font-size: 11px; fill: rgb(0, 0, 0); fill-opacity: 1; white-space: pre;">Oa</text></g></g></g><g class="annotation" data-index="2" style="opacity: 1;"><g class="annotation-text-g" transform="rotate(0,284,332.97999999999996)"><g class="cursor-pointer" transform="translate(266,323)"><rect class="bg" x="0.5" y="0.5" width="35" height="18" style="stroke-width: 1px; stroke: rgb(0, 0, 0); stroke-opacity: 0; fill: rgb(0, 0, 0); fill-opacity: 0;"/><text class="annotation-text" text-anchor="middle" x="17.921875" y="14" style="font-family: 'Open Sans', verdana, arial, sans-serif; font-size: 11px; fill: rgb(0, 0, 0); fill-opacity: 1; white-space: pre;">At+Oa</text></g></g></g></g></svg>