<svg class="main-svg" xmlns="http://www.w3.org/2000/svg" xmlns:xlink="http://www.w3.org/1999/xlink" width="700" height="500" style="" viewBox="0 0 700 500"><rect x="0" y="0" width="700" height="500" style="fill: rgb(255, 255, 255); fill-opacity: 1;"/><defs id="defs-75ad99"><g class="clips"><clipPath id="clip75ad99xyplot" class="plotclip"><rect width="542" height="121.52000000000001"/></clipPath><clipPath id="clip75ad99x2y2plot" class="plotclip"><rect width="542" height="121.51999999999997"/></clipPath><clipPath id="clip75ad99x3y3plot" class="plotclip"><rect width="542" height="121.51999999999998"/></clipPath><clipPath class="axesclip" id="clip75ad99x"><rect x="38" y="0" width="542" height="500"/></clipPath><clipPath class="axesclip" id="clip75ad99y"><rect x="0" y="30" width="700" height="121.52000000000001"/></clipPath><clipPath class="axesclip" id="clip75ad99xy"><rect x="38" y="30" width="542" height="121.52000000000001"/></clipPath><clipPath class="axesclip" id="clip75ad99y2"><rect x="0" y="186.24000000000004" width="700" height="121.51999999999997"/></clipPath><clipPath class="axesclip" id="clip75ad99xy2"><rect x="38" y="186.24000000000004" width="542" height="121.51999999999997"/></clipPath><clipPath class="axesclip" id="clip75ad99y3"><rect x="0" y="342.47999999999996" width="700" height="121.51999999999998"/></clipPath><clipPath class="axesclip" id="clip75ad99xy3"><rect x="38" y="342.47999999999996" width="542" height="121.51999999999998"/></clipPath><clipPath class="axesclip" id="clip75ad99x2"><rect x="38" y="0" width="542" height="500"/></clipPath><clipPath class="axesclip" id="clip75ad99x2y"><rect x="38" y="30" width="542" height="121.52000000000001"/></clipPath><clipPath class="axesclip" id="clip75ad99x2y2"><rect x="38" y="186.24000000000004" width="542" height="121.51999999999997"/></clipPath><clipPath class="axesclip" id="clip75ad99x2y3"><rect x="38" y="342.47999999999996" width="542" height="121.51999999999998"/></clipPath><clipPath class="axesclip" id="clip75ad99x3"><rect x="38" y="0" width="542" height="500"/></clipPath><clipPath class="axesclip" id="clip75ad99x3y"><rect x="38" y="30" width="542" height="121.52000000000001"/></clipPath><clipPath class="axesclip" id="clip75ad99x3y2"><rect x="38" y="186.24000000000004" width="542" height="121.51999999999997"/></clipPath><clipPath class="axesclip" id="clip75ad99x3y3"><rect x="38" y="342.47999999999996" width="542" height="121.51999999999998"/></clipPath></g><g class="gradients"/><g class="patterns"/></defs><g class="bglayer"/><g class="layer-below"><g class="imagelayer"/><g class="shapelayer"/></g><g class="cartesianlayer"><g class="subplot xy"><g class="layer-subplot"><g class="shapelayer"/><g class="imagelayer"/></g><g class="minor-gridlayer"><g class="x"/><g class="y"/></g><g class="gridlayer"><g class="x"><path class="xgrid crisp" transform="translate(115.98,0)" d="M0,30v121.52000000000001" style="stroke: rgb(128, 128, 128); stroke-opacity: 1; stroke-width: 0.2px;"/><path class="xgrid crisp" transform="translate(193.96,0)" d="M0,30v121.52000000000001" style="stroke: rgb(128, 128, 128); stroke-opacity: 1; stroke-width: 0.2px;"/><path class="xgrid crisp" transform="translate(271.94,0)" d="M0,30v121.52000000000001" style="stroke: rgb(128, 128, 128); stroke-opacity: 1; stroke-width: 0.2px;"/><path class="xgrid crisp" transform="translate(349.92,0)" d="M0,30v121.52000000000001" style="stroke: rgb(128, 128, 128); stroke-opacity: 1; stroke-width: 0.2px;"/><path class="xgrid crisp" transform="translate(427.9,0)" d="M0,30v121.52000000000001" style="stroke: rgb(128, 128, 128); stroke-opacity: 1; stroke-width: 0.2px;"/><path class="xgrid crisp" transform="translate(505.88,0)" d="M0,30v121.52000000000001" style="stroke: rgb(128, 128, 128); stroke-opacity: 1; stroke-width: 0.2px;"/></g><g class="y"><path class="ygrid crisp" transform="translate(0,145.84)" d="M38,0h542" style="stroke: rgb(128, 128, 128); stroke-opacity: 1; stroke-width: 0.2px;"/><path class="ygrid crisp" transform="translate(0,87.00999999999999)" d="M38,0h542" style="stroke: rgb(128, 128, 128); stroke-opacity: 1; stroke-width: 0.2px;"/></g></g><g class="zerolinelayer"/><g class="layer-between"><g class="shapelayer"/><g class="imagelayer"/></g><path class="xlines-below"/><path class="ylines-below"/><g class="overlines-below"/><g class="xaxislayer-below"/><g class="yaxislayer-below"/><g class="overaxes-below"/><g class="overplot"><g class="xy" transform="translate(38,30)" clip-path="url(#clip75ad99xyplot)"><g class="scatterlayer mlayer"><g class="trace scatter trace579c9b" style="stroke-miterlimit: 2; opacity: 1;"><g class="fills"/><g class="errorbars"/><g class="lines"><path class="js-line" d="M0,115.22L120.9,114.49L124.9,114.26L145.68,113.1L148.17,112.86L156.07,111.95L161.28,110.97L167.68,110.22L171.69,109.15L202.88,100.02L208.08,97.68L214.44,95.04L218.51,93.18L245.64,76.89L249.66,73.37L254.86,70.96L257.35,68.88L261.27,67.62L265.28,62.71L270.46,62.1L272.94,57.99L276.87,51.79L280.86,49.36L286.08,42.1L288.57,40.85L296.46,33.58L301.68,26.4L308.05,21.41L312.05,16.85L319.73,16.4L323.65,16.02L327.65,16.44L332.84,15.51L339.22,14.79L343.28,13.89L350.94,13.48L354.82,10.97L358.87,12.66L364.04,12.48L366.53,12.46L370.41,11.46L374.44,11.83L379.67,10.1L390.04,11.75L395.23,11.19L413.01,10.24L414.69,11.02L422.14,10.72L427,9.64L431.77,10.59L435.63,9.71L439.02,10.46L442.37,10.39L444.53,9.66L448.38,9.48L457.61,7.74L460.09,6.08L463.98,7.66L468.04,8.29L473.21,7.57L475.7,8.4L479.62,7.72L483.6,7.95L499.23,8.27L504.4,8.23L520,7.13L522.48,8.73L526.37,8.17L530.39,8.45L535.58,7.48L538.11,8.11L542,7.25" style="vector-effect: none; fill: none; stroke: rgb(71, 43, 121); stroke-opacity: 1; stroke-width: 1.5px; opacity: 1;"/></g><g class="points"/><g class="text"/></g><g class="trace scatter trace9dea69" style="stroke-miterlimit: 2; opacity: 1;"><g class="fills"/><g class="errorbars"/><g class="lines"><path class="js-line" d="M0,115.21L120.9,114.62L124.9,114.42L148.17,113.15L152.07,112.78L176.89,108.72L179.38,108L202.88,101.97L208.08,99.85L210.57,98.36L214.44,97.17L218.51,95.11L223.69,91.03L239.27,80.97L241.76,79.29L249.66,72.64L254.86,68.33L257.35,66.81L261.27,62.79L265.28,59.01L270.46,57.63L272.94,55.51L276.87,50.48L280.86,47.56L286.08,42.33L288.57,40.92L292.46,36.49L296.46,34.65L301.68,29.07L304.13,27.68L308.05,23.14L312.05,19.3L317.29,16.33L339.22,15.26L343.28,14.22L350.94,13.83L354.82,12.04L358.87,13.35L364.04,13.26L374.44,12.59L379.67,11.11L390.04,12.51L395.23,12.03L397.71,11.4L401.61,11.45L422.14,11.48L427,10.26L431.77,11.43L435.63,10.72L442.37,11.41L444.53,10.82L457.61,8.94L460.09,7.57L468.04,9.62L473.21,9.05L475.7,9.73L479.62,9.02L488.83,9.64L491.31,9.77L495.18,10.24L499.23,9.55L506.89,9.84L510.78,9.01L514.79,9.56L520,8.64L522.48,10.43L526.37,9.98L535.58,9.21L538.11,9.97L542,8.99" style="vector-effect: none; fill: none; stroke: rgb(71, 43, 121); stroke-opacity: 1; stroke-width: 1.5px; opacity: 1;"/></g><g class="points"/><g class="text"/></g><g class="trace scatter trace2c70d4" style="stroke-miterlimit: 2; opacity: 1;"><g class="fills"/><g class="errorbars"/><g class="lines"><path class="js-line" d="M0,115.22L64.84,115.23L68.97,115.21L101.4,115.22L105.28,115L140.49,113.88L145.68,113.51L163.8,111.33L167.68,110.77L198.89,103.46L202.88,102.29L218.51,95.22L223.69,91.33L234.06,85.17L239.27,81.57L249.66,73.68L254.86,69.23L257.35,68.02L261.27,64.71L265.28,60.99L270.46,59.39L272.94,57.46L276.87,51.69L280.86,49.01L286.08,44.21L296.46,35.61L301.68,29.74L304.13,28.29L308.05,23.78L317.29,16.72L319.73,16.63L332.84,16.18L335.33,16.35L343.28,14.68L348.45,14.63L350.94,14.34L354.82,12.14L358.87,13.53L364.04,13.22L366.53,13.35L370.41,12.7L382.12,11.87L386.01,12.29L390.04,12.46L395.23,11.87L401.61,11.29L405.63,11.51L413.01,10.79L414.69,11.51L422.14,11.47L427,10.31L431.77,11.1L435.63,10.64L439.02,11.34L442.37,11.24L448.38,10.46L452.44,10.02L457.61,9.2L460.09,7.58L468.04,9.73L473.21,9.26L475.7,9.69L479.62,9.3L488.83,9.53L491.31,9.66L495.18,10.26L499.23,9.55L506.89,9.86L510.78,8.84L514.79,9.47L520,8.62L522.48,10.61L526.37,9.85L530.39,10.06L535.58,9.42L538.11,9.89L542,8.91" style="vector-effect: none; fill: none; stroke: rgb(71, 43, 121); stroke-opacity: 1; stroke-width: 1.5px; opacity: 1;"/></g><g class="points"/><g class="text"/></g><g class="trace scatter trace29c195" style="stroke-miterlimit: 2; opacity: 1;"><g class="fills"/><g class="errorbars"/><g class="lines"><path class="js-line" d="M0,115L20.92,114.17L23.42,115.02L132.59,114.12L136.47,113.93L148.17,113.93L152.07,113.82L167.68,112.31L171.69,111.41L183.26,109.32L187.28,108.18L202.88,102.35L208.08,99.95L223.69,92.89L226.18,91.16L230.05,89.38L234.06,86.69L245.64,80.44L249.66,78.06L254.86,75.44L257.35,75.06L270.46,67.2L272.94,64.46L276.87,60L280.86,51.37L286.08,46.42L288.57,46.14L292.46,46.26L296.46,45.54L308.05,42.59L312.05,41.98L323.65,40.74L327.65,40.92L343.28,38.06L348.45,37.99L350.94,37.46L354.82,34.91L358.87,37.17L364.04,36.46L370.41,35.12L374.44,35.8L382.12,34.61L386.01,35.26L390.04,35.77L395.23,35.2L397.71,34.49L401.61,34.61L418.04,34.89L422.14,34.73L427,33.57L431.77,34.95L435.63,34.04L439.02,34.22L442.37,34.15L444.53,33.35L448.38,33.49L452.44,32.75L457.61,32.13L460.09,30.64L468.04,32.69L473.21,32.13L475.7,32.48L479.62,32.03L488.83,32.69L491.31,32.15L495.18,32.98L499.23,32.52L506.89,32.16L510.78,31.42L514.79,31.79L520,31.29L522.48,32.52L526.37,32.1L530.39,32.33L535.58,31.49L538.11,31.91L542,31.1" style="vector-effect: none; fill: none; stroke: rgb(56, 87, 139); stroke-opacity: 1; stroke-width: 1.5px; opacity: 1;"/></g><g class="points"/><g class="text"/></g><g class="trace scatter trace9b9d0b" style="stroke-miterlimit: 2; opacity: 1;"><g class="fills"/><g class="errorbars"/><g class="lines"><path class="js-line" d="M0,115.17L68.97,115.01L70.63,115.1L93.71,115.05L98.91,115.23L114.51,114.85L117.01,114.84L156.07,113.96L161.28,113.51L176.89,111.4L179.38,110.91L194.98,106.99L198.89,105.11L214.44,98.79L218.51,97.13L234.06,88.93L239.27,85.34L241.76,85.55L245.64,80.89L254.86,75.72L257.35,75.41L261.27,71.5L265.28,69.43L270.46,67.88L272.94,64.19L280.86,56.05L286.08,47.66L288.57,46.65L292.46,46.49L323.65,41.13L327.65,41.33L343.28,38.45L348.45,38.59L350.94,38.1L354.82,35.98L358.87,37.91L364.04,37.45L374.44,36.67L379.67,35.25L395.23,36.15L397.71,35.43L405.63,35.72L413.01,35.32L418.04,35.99L422.14,35.97L427,34.27L431.77,31.61L435.63,34.42L439.02,35.12L442.37,35.15L444.53,33.67L448.38,34.42L452.44,33.81L457.61,33.2L460.09,31.32L463.98,33.06L468.04,33.8L479.62,33.37L483.6,33.75L488.83,34.14L491.31,32.94L495.18,34.34L499.23,33.74L504.4,33.96L506.89,33.01L520,33L522.48,33.97L542,32.77" style="vector-effect: none; fill: none; stroke: rgb(56, 87, 139); stroke-opacity: 1; stroke-width: 1.5px; opacity: 1;"/></g><g class="points"/><g class="text"/></g><g class="trace scatter traceb228ef" style="stroke-miterlimit: 2; opacity: 1;"><g class="fills"/><g class="errorbars"/><g class="lines"><path class="js-line" d="M0,115.29L132.59,114.82L136.47,114.69L156.07,114.12L161.28,113.68L171.69,112.51L176.89,111.7L194.98,107.28L198.89,105.55L223.69,95.22L226.18,93.87L230.05,92.55L234.06,90.19L239.27,86.77L241.76,87.49L245.64,82.2L249.66,78.98L257.35,75.63L261.27,70.83L265.28,68.62L270.46,66.67L272.94,64.34L276.87,57.5L288.57,46.21L292.46,46.01L304.13,43.91L308.05,43.14L323.65,41.13L327.65,41.41L343.28,38.58L348.45,38.96L350.94,38.34L354.82,35.81L358.87,38.12L364.04,37.57L370.41,36.43L374.44,36.93L379.67,35.48L382.12,35.76L390.04,36.85L395.23,36.46L397.71,35.83L401.61,35.96L422.14,36.38L427,35.08L431.77,30.64L435.63,30.91L442.37,35.52L444.53,33.66L448.38,35.12L452.44,34.49L457.61,33.88L460.09,30.82L463.98,33.87L468.04,34.62L473.21,34.27L475.7,32.44L479.62,34.22L483.6,34.54L488.83,34.76L491.31,32.99L495.18,35.14L499.23,34.48L504.4,34.69L506.89,32.95L514.79,34.39L520,33.84L530.39,34.86L535.58,34.21L538.11,33.23L542,33.75" style="vector-effect: none; fill: none; stroke: rgb(56, 87, 139); stroke-opacity: 1; stroke-width: 1.5px; opacity: 1;"/></g><g class="points"/><g class="text"/></g><g class="trace scatter trace4e2c4e" style="stroke-miterlimit: 2; opacity: 1;"><g class="fills"/><g class="errorbars"/><g class="lines"><path class="js-line" d="M0,115.2L105.28,114.5L109.32,114.19L152.07,113.38L156.07,113.24L171.69,112.52L176.89,112.35L179.38,111.45L183.26,111.66L194.98,108.87L198.89,107.56L202.88,106.43L208.08,103.94L218.51,98.52L223.69,96.03L226.18,94.26L230.05,92.86L239.27,87.46L241.76,85.54L245.64,82.53L249.66,81.7L257.35,79.41L261.27,79.26L280.86,76.01L286.08,75.19L288.57,74.79L292.46,75.04L312.05,71.66L317.29,71.57L319.73,71.02L323.65,71.02L327.65,71.45L332.84,70.69L343.28,69.36L348.45,69.17L354.82,66.54L358.87,68.56L370.41,67.69L374.44,68.15L379.67,67.01L382.12,67.5L390.04,68.59L395.23,68.06L397.71,67.44L401.61,67.79L405.63,68.14L413.01,67.46L414.69,67.95L418.04,67.98L422.14,67.86L427,66.13L431.77,67.25L435.63,66.52L442.37,66.1L444.53,65.11L448.38,65.31L452.44,64.44L457.61,64.04L460.09,61.85L463.98,63.57L468.04,64.16L479.62,63.94L483.6,64.25L495.18,64.48L499.23,63.89L506.89,63.73L510.78,62.91L520,62.84L522.48,63.82L535.58,62.75L538.11,62.9L542,62.3" style="vector-effect: none; fill: none; stroke: rgb(40, 125, 142); stroke-opacity: 1; stroke-width: 1.5px; opacity: 1;"/></g><g class="points"/><g class="text"/></g><g class="trace scatter traced06970" style="stroke-miterlimit: 2; opacity: 1;"><g class="fills"/><g class="errorbars"/><g class="lines"><path class="js-line" d="M0,115.43L105.28,114.88L109.32,114.84L132.59,114.64L136.47,114.46L156.07,114.26L161.28,114L171.69,113.45L176.89,113.06L194.98,110.39L198.89,109.2L208.08,106.13L210.57,104.59L218.51,100.69L223.69,98.26L241.76,88.06L245.64,85.28L249.66,83.06L254.86,81.89L280.86,77.29L286.08,76.81L292.46,76.39L296.46,75.93L323.65,73.11L327.65,73.45L348.45,71.21L350.94,70.48L354.82,68.64L358.87,70.52L370.41,69.3L374.44,69.76L386.01,69.58L390.04,70.08L395.23,69.71L397.71,68.74L405.63,69.42L413.01,68.92L422.14,69.65L427,67.32L431.77,64.35L435.63,64.64L439.02,67.55L442.37,67.53L444.53,65.35L448.38,66.83L457.61,65.74L460.09,62.76L463.98,65.24L468.04,66.03L473.21,65.78L475.7,63.64L479.62,65.82L483.6,66.18L488.83,66.34L491.31,64.04L495.18,66.24L499.23,65.8L504.4,65.97L506.89,63.59L510.78,64.74L514.79,65.1L522.48,64.39L526.37,65.18L535.58,64.66L538.11,63.33L542,64.05" style="vector-effect: none; fill: none; stroke: rgb(40, 125, 142); stroke-opacity: 1; stroke-width: 1.5px; opacity: 1;"/></g><g class="points"/><g class="text"/></g><g class="trace scatter tracef9abef" style="stroke-miterlimit: 2; opacity: 1;"><g class="fills"/><g class="errorbars"/><g class="lines"><path class="js-line" d="M0,115.44L78.11,115.25L83.31,113.85L85.8,113.99L89.71,115.39L98.91,115.26L101.4,113.69L105.28,114.36L109.32,113.53L114.51,114.92L117.01,114.79L124.9,114.74L130.09,113.79L132.59,114.63L136.47,113.61L140.49,114.37L145.68,114.55L148.17,113.46L152.07,114.41L156.07,113.57L161.28,114.06L167.68,113.16L171.69,113.66L179.38,112.24L183.26,112.75L198.89,109.84L202.88,108.82L210.57,106.04L214.44,103.84L234.06,93.39L239.27,90.13L245.64,87.08L249.66,83.48L276.87,77.19L280.86,76.92L312.05,72.92L317.29,73.13L323.65,72.12L327.65,72.46L350.94,69.69L354.82,67.11L358.87,69.81L364.04,69.67L366.53,69.14L370.41,69.17L374.44,69.35L379.67,68.7L390.04,69.35L395.23,68.99L397.71,68.01L401.61,68.37L405.63,68.58L413.01,68.13L422.14,68.59L427,66.31L431.77,62.23L435.63,61.77L439.02,62.93L442.37,63.18L444.53,61.02L448.38,63.25L452.44,64.46L457.61,64.38L460.09,59.21L463.98,64.15L473.21,64.65L475.7,61.79L479.62,64.44L483.6,64.92L488.83,65L491.31,62.33L495.18,64.78L499.23,64.29L504.4,64.73L506.89,62.34L510.78,63.83L514.79,63.96L520,63.68L522.48,62.73L526.37,63.81L530.39,64.04L535.58,63.61L538.11,61.66L542,62.98" style="vector-effect: none; fill: none; stroke: rgb(40, 125, 142); stroke-opacity: 1; stroke-width: 1.5px; opacity: 1;"/></g><g class="points"/><g class="text"/></g><g class="trace scatter tracef9b366" style="stroke-miterlimit: 2; opacity: 1;"><g class="fills"/><g class="errorbars"/><g class="lines"><path class="js-line" d="M0,115.03L54.6,114.99L61.48,114.34L120.9,114.55L124.9,114.46L163.8,113.6L167.68,113.42L187.28,111.46L192.49,110.45L198.89,108.9L202.88,107.53L214.44,102.87L218.51,102.57L265.28,96.64L270.46,96.59L286.08,95.75L288.57,95.22L296.46,95.04L301.68,94.1L304.13,94.64L308.05,94.55L317.29,93.74L319.73,93.78L335.33,92.89L339.22,92.4L350.94,91.63L354.82,89.69L358.87,91.7L364.04,91.31L374.44,91.03L379.67,89.89L390.04,90.2L395.23,90.17L401.61,89.93L405.63,90.16L422.14,89.61L427,88.53L431.77,88.95L435.63,88.43L442.37,88.59L444.53,87.96L452.44,87.65L457.61,87.57L460.09,86.54L463.98,87.1L475.7,87.44L479.62,87.08L506.89,86.77L510.78,86.25L530.39,86.35L535.58,86.31L538.11,86.5L542,85.79" style="vector-effect: none; fill: none; stroke: rgb(35, 163, 134); stroke-opacity: 1; stroke-width: 1.5px; opacity: 1;"/></g><g class="points"/><g class="text"/></g><g class="trace scatter trace648281" style="stroke-miterlimit: 2; opacity: 1;"><g class="fills"/><g class="errorbars"/><g class="lines"><path class="js-line" d="M0,113.95L42.89,114.14L46.9,114.09L120.9,113.69L124.9,113.59L171.69,112.54L176.89,112.27L194.98,110.3L198.89,109.55L214.44,104.52L218.51,102.99L230.05,101.33L234.06,100.89L254.86,98.4L257.35,97.97L265.28,97.38L270.46,97.14L288.57,95.55L292.46,95.63L332.84,93.32L335.33,93.48L350.94,92.09L354.82,90.48L358.87,92.06L364.04,91.81L374.44,91.55L379.67,90.62L414.69,90.36L418.04,90L422.14,90.28L427,89.29L431.77,85.76L435.63,86.11L439.02,89.6L442.37,89.47L444.53,87.93L448.38,89.11L457.61,88.48L460.09,86.67L463.98,88.22L468.04,88.28L473.21,88.28L475.7,86.93L479.62,88.13L483.6,88.24L488.83,88.3L491.31,87.29L495.18,88.23L499.23,87.69L504.4,87.95L506.89,86.81L510.78,87.51L514.79,87.4L535.58,87.19L538.11,86.55L542,86.64" style="vector-effect: none; fill: none; stroke: rgb(35, 163, 134); stroke-opacity: 1; stroke-width: 1.5px; opacity: 1;"/></g><g class="points"/><g class="text"/></g><g class="trace scatter tracec60b7c" style="stroke-miterlimit: 2; opacity: 1;"><g class="fills"/><g class="errorbars"/><g class="lines"><path class="js-line" d="M0,115.2L167.68,113.77L171.69,113.6L192.49,111.86L194.98,111.66L202.88,109.91L208.08,108.23L214.44,105.72L218.51,104.03L230.05,102.36L234.06,102.17L249.66,100.38L254.86,99.7L257.35,98.99L261.27,98.84L288.57,96.57L292.46,96.8L335.33,94.27L339.22,94.26L343.28,93.44L348.45,93.4L350.94,93.12L354.82,91.66L358.87,92.99L364.04,92.59L374.44,92.16L379.67,91.44L390.04,91.92L395.23,92.03L401.61,91.56L405.63,91.55L422.14,91.31L427,90.01L431.77,85.19L435.63,84.3L442.37,87.48L444.53,85.95L448.38,89.2L452.44,89.45L457.61,89.25L460.09,86.8L463.98,88.9L468.04,89.01L473.21,88.92L475.7,86.78L479.62,88.8L483.6,89.1L488.83,88.97L491.31,87.23L495.18,88.88L499.23,88.23L504.4,88.8L506.89,86.88L510.78,87.99L514.79,88.19L520,88.13L522.48,87.07L526.37,88.4L530.39,88.07L535.58,88.12L538.11,86.63L542,87.43" style="vector-effect: none; fill: none; stroke: rgb(35, 163, 134); stroke-opacity: 1; stroke-width: 1.5px; opacity: 1;"/></g><g class="points"/><g class="text"/></g><g class="trace scatter tracee9325a" style="stroke-miterlimit: 2; opacity: 1;"><g class="fills"/><g class="errorbars"/><g class="lines"><path class="js-line" d="M0,115.03L152.07,114.05L156.07,113.88L187.28,111.68L192.49,111.05L208.08,109.86L210.57,109.75L241.76,108.8L245.64,109.26L257.35,108.8L261.27,109.04L265.28,108.46L270.46,108.55L296.46,107.88L301.68,107.54L308.05,107.68L312.05,107.48L339.22,106.92L343.28,105.93L366.53,105.82L370.41,105.7L390.04,106.62L395.23,106.75L422.14,109.03L427,107.93L431.77,107.15L435.63,107.79L444.53,106.33L448.38,106.86L460.09,105.57L463.98,105.62L473.21,104.7L475.7,104.84L520,102.58L522.48,102.81L535.58,101.82L538.11,101.83L542,101.28" style="vector-effect: none; fill: none; stroke: rgb(84, 196, 103); stroke-opacity: 1; stroke-width: 1.5px; opacity: 1;"/></g><g class="points"/><g class="text"/></g><g class="trace scatter traceacbaba" style="stroke-miterlimit: 2; opacity: 1;"><g class="fills"/><g class="errorbars"/><g class="lines"><path class="js-line" d="M0,115.1L109.32,114.4L114.51,114.35L179.38,112.87L183.26,112.64L202.88,110.61L208.08,110.33L317.29,108.62L319.73,108.86L339.22,107.66L343.28,106.96L405.63,107.55L413.01,108.72L422.14,109.63L427,107.69L431.77,105.09L435.63,104.28L439.02,106.73L442.37,107.71L444.53,106.02L448.38,107.36L457.61,106.98L460.09,104.85L463.98,106.38L468.04,106.12L473.21,106.12L475.7,103.95L479.62,105.77L483.6,106.21L488.83,106.08L491.31,104.07L495.18,105.91L499.23,105.55L504.4,106.36L506.89,104.55L510.78,105.65L514.79,105.54L520,105.73L522.48,104.77L526.37,105.73L530.39,105.47L535.58,105.57L538.11,104.17L542,104.78" style="vector-effect: none; fill: none; stroke: rgb(84, 196, 103); stroke-opacity: 1; stroke-width: 1.5px; opacity: 1;"/></g><g class="points"/><g class="text"/></g><g class="trace scatter trace5752ad" style="stroke-miterlimit: 2; opacity: 1;"><g class="fills"/><g class="errorbars"/><g class="lines"><path class="js-line" d="M0,114.55L11.71,114.57L15.73,114.58L52.13,114.14L54.6,113.97L64.84,114.82L68.97,114.72L101.4,114.43L105.28,114.35L148.17,113.86L152.07,113.76L187.28,112.2L192.49,111.75L214.44,109.97L218.51,110.03L261.27,109.08L265.28,108.53L288.57,108.61L292.46,108.54L327.65,107.78L332.84,107.4L335.33,107.62L339.22,107.17L348.45,106.5L350.94,106.59L354.82,105.86L358.87,106.02L405.63,106.48L413.01,107.95L418.04,108.86L422.14,109.17L427,108.54L431.77,104.68L435.63,103.35L439.02,104.68L442.37,105.34L444.53,103.83L448.38,107.95L452.44,108.11L457.61,107.96L460.09,106.04L463.98,107.41L468.04,106.75L473.21,106.79L475.7,104.66L479.62,106.76L483.6,107L488.83,106.61L491.31,105.01L495.18,106.62L499.23,106.46L504.4,107.03L506.89,105.55L510.78,106.57L514.79,106.55L520,106.86L522.48,106L530.39,107.18L535.58,107.21L538.11,105.99L542,106.22" style="vector-effect: none; fill: none; stroke: rgb(84, 196, 103); stroke-opacity: 1; stroke-width: 1.5px; opacity: 1;"/></g><g class="points"/><g class="text"/></g><g class="trace scatter tracea619a1" style="stroke-miterlimit: 2; opacity: 1;"><g class="fills"/><g class="errorbars"/><g class="lines"><path class="js-line" d="M0,115.1L117.01,114.49L120.9,114.4L335.33,113.48L339.22,113.48L405.63,113.4L413.01,113.4L422.14,113.47L427,112.23L431.77,111.33L435.63,112.44L526.37,112.86L530.39,112.53L542,112.5" style="vector-effect: none; fill: none; stroke: rgb(175, 221, 47); stroke-opacity: 1; stroke-width: 1.5px; opacity: 1;"/></g><g class="points"/><g class="text"/></g><g class="trace scatter trace5aa187" style="stroke-miterlimit: 2; opacity: 1;"><g class="fills"/><g class="errorbars"/><g class="lines"><path class="js-line" d="M0,114.13L15.73,113.65L20.92,113.64L31.32,113.79L36.51,113.85L78.11,113.71L83.31,113.78L124.9,113.22L130.09,113.27L148.17,112.94L152.07,112.99L163.8,112.68L167.68,111.79L183.26,111.51L187.28,112.54L192.49,112.52L194.98,111.68L198.89,112.48L202.88,111.51L210.57,112.5L214.44,112.28L218.51,111.29L223.69,111.95L226.18,111.42L230.05,112.44L239.27,112.47L241.76,111.25L245.64,112.35L249.66,112.42L254.86,112.4L257.35,111.62L261.27,111.31L265.28,111.78L276.87,111.36L280.86,112.37L286.08,112.35L288.57,111.31L296.46,112.38L301.68,111.84L308.05,111.82L312.05,111.93L339.22,111.85L343.28,111.32L366.53,111.84L370.41,111.56L374.44,111.92L379.67,111.26L382.12,111.57L386.01,111.28L422.14,111.29L427,110.22L431.77,107.07L435.63,109.98L439.02,110.81L442.37,110.48L463.98,110.82L468.04,111.14L526.37,110.87L530.39,110.92L542,111.09" style="vector-effect: none; fill: none; stroke: rgb(175, 221, 47); stroke-opacity: 1; stroke-width: 1.5px; opacity: 1;"/></g><g class="points"/><g class="text"/></g><g class="trace scatter tracede5182" style="stroke-miterlimit: 2; opacity: 1;"><g class="fills"/><g class="errorbars"/><g class="lines"><path class="js-line" d="M0,115.12L161.28,113.64L163.8,113.52L202.88,113.41L208.08,113.38L382.12,113.38L386.01,113.33L422.14,113.49L427,112.53L431.77,108.37L435.63,108.5L439.02,112.85L442.37,112.79L444.53,112.49L448.38,113.02L463.98,112.98L468.04,112.98L542,112.92" style="vector-effect: none; fill: none; stroke: rgb(175, 221, 47); stroke-opacity: 1; stroke-width: 1.5px; opacity: 1;"/></g><g class="points"/><g class="text"/></g></g></g></g><path class="xlines-above crisp" d="M37.5,151.77H580.5M37.5,29.75H580.5" style="fill: none; stroke-width: 0.5px; stroke: rgb(0, 0, 0); stroke-opacity: 1;"/><path class="ylines-above crisp" d="M37.75,30V151.52M580.25,30V151.52" style="fill: none; stroke-width: 0.5px; stroke: rgb(0, 0, 0); stroke-opacity: 1;"/><g class="overlines-above"/><g class="xaxislayer-above"><path class="xtick ticks crisp" d="M0,151.52v-5" transform="translate(115.98,0)" style="stroke: rgb(0, 0, 0); stroke-opacity: 1; stroke-width: 0.5px;"/><path class="xtick ticks crisp" d="M0,151.52v-5" transform="translate(193.96,0)" style="stroke: rgb(0, 0, 0); stroke-opacity: 1; stroke-width: 0.5px;"/><path class="xtick ticks crisp" d="M0,151.52v-5" transform="translate(271.94,0)" style="stroke: rgb(0, 0, 0); stroke-opacity: 1; stroke-width: 0.5px;"/><path class="xtick ticks crisp" d="M0,151.52v-5" transform="translate(349.92,0)" style="stroke: rgb(0, 0, 0); stroke-opacity: 1; stroke-width: 0.5px;"/><path class="xtick ticks crisp" d="M0,151.52v-5" transform="translate(427.9,0)" style="stroke: rgb(0, 0, 0); stroke-opacity: 1; stroke-width: 0.5px;"/><path class="xtick ticks crisp" d="M0,151.52v-5" transform="translate(505.88,0)" style="stroke: rgb(0, 0, 0); stroke-opacity: 1; stroke-width: 0.5px;"/></g><g class="yaxislayer-above"><path class="ytick ticks crisp" d="M38,0h5" transform="translate(0,145.84)" style="stroke: rgb(0, 0, 0); stroke-opacity: 1; stroke-width: 0.5px;"/><path class="ytick ticks crisp" d="M38,0h5" transform="translate(0,87.00999999999999)" style="stroke: rgb(0, 0, 0); stroke-opacity: 1; stroke-width: 0.5px;"/><g class="ytick"><text text-anchor="end" x="35.3" y="3.8499999999999996" transform="translate(0,145.84)" style="font-family: 'Open Sans', verdana, arial, sans-serif; font-size: 11px; fill: rgb(0, 0, 0); fill-opacity: 1; white-space: pre; opacity: 1;">0</text></g><g class="ytick"><text text-anchor="end" x="35.3" y="3.8499999999999996" style="font-family: 'Open Sans', verdana, arial, sans-serif; font-size: 11px; fill: rgb(0, 0, 0); fill-opacity: 1; white-space: pre; opacity: 1;" transform="translate(0,87.00999999999999)">0.5</text></g></g><g class="overaxes-above"/></g><g class="subplot x2y2"><g class="layer-subplot"><g class="shapelayer"/><g class="imagelayer"/></g><g class="minor-gridlayer"><g class="x2"/><g class="y2"/></g><g class="gridlayer"><g class="x2"><path class="x2grid crisp" transform="translate(115.98,0)" d="M0,186.24000000000004v121.51999999999997" style="stroke: rgb(128, 128, 128); stroke-opacity: 1; stroke-width: 0.2px;"/><path class="x2grid crisp" transform="translate(193.96,0)" d="M0,186.24000000000004v121.51999999999997" style="stroke: rgb(128, 128, 128); stroke-opacity: 1; stroke-width: 0.2px;"/><path class="x2grid crisp" transform="translate(271.94,0)" d="M0,186.24000000000004v121.51999999999997" style="stroke: rgb(128, 128, 128); stroke-opacity: 1; stroke-width: 0.2px;"/><path class="x2grid crisp" transform="translate(349.92,0)" d="M0,186.24000000000004v121.51999999999997" style="stroke: rgb(128, 128, 128); stroke-opacity: 1; stroke-width: 0.2px;"/><path class="x2grid crisp" transform="translate(427.9,0)" d="M0,186.24000000000004v121.51999999999997" style="stroke: rgb(128, 128, 128); stroke-opacity: 1; stroke-width: 0.2px;"/><path class="x2grid crisp" transform="translate(505.88,0)" d="M0,186.24000000000004v121.51999999999997" style="stroke: rgb(128, 128, 128); stroke-opacity: 1; stroke-width: 0.2px;"/></g><g class="y2"><path class="y2grid crisp" transform="translate(0,301.70000000000005)" d="M38,0h542" style="stroke: rgb(128, 128, 128); stroke-opacity: 1; stroke-width: 0.2px;"/><path class="y2grid crisp" transform="translate(0,261.61)" d="M38,0h542" style="stroke: rgb(128, 128, 128); stroke-opacity: 1; stroke-width: 0.2px;"/><path class="y2grid crisp" transform="translate(0,221.53000000000003)" d="M38,0h542" style="stroke: rgb(128, 128, 128); stroke-opacity: 1; stroke-width: 0.2px;"/></g></g><g class="zerolinelayer"/><g class="layer-between"><g class="shapelayer"/><g class="imagelayer"/></g><path class="xlines-below"/><path class="ylines-below"/><g class="overlines-below"/><g class="xaxislayer-below"/><g class="yaxislayer-below"/><g class="overaxes-below"/><g class="overplot"><g class="x2y2" transform="translate(38,186.24000000000004)" clip-path="url(#clip75ad99x2y2plot)"><g class="scatterlayer mlayer"><g class="trace scatter trace5c6d32" style="stroke-miterlimit: 2; opacity: 1;"><g class="fills"/><g class="errorbars"/><g class="lines"><path class="js-line" d="M0,114.67L214.44,114.72L218.51,114.64L261.27,113.78L265.28,113.36L292.46,111.08L296.46,110.65L335.33,102.04L339.22,100.85L348.45,97.77L350.94,96.69L379.67,87.8L382.12,86.01L405.63,74.33L413.01,69.56L418.04,67.84L422.14,64.53L427,58.52L431.77,55.38L435.63,53.17L439.02,49.3L444.53,44.93L448.38,40.62L460.09,29.5L463.98,23.16L473.21,12.76L475.7,8.36L479.62,8.46L483.6,9.79L491.31,9.67L495.18,11.19L499.23,10.26L504.4,10.46L506.89,11.57L510.78,10.71L514.79,11.85L520,11.31L522.48,11.93L526.37,11.48L530.39,12.24L535.58,10.67L538.11,8.96L542,10.21" style="vector-effect: none; fill: none; stroke: rgb(71, 43, 121); stroke-opacity: 1; stroke-width: 1.5px; opacity: 1;"/></g><g class="points"/><g class="text"/></g><g class="trace scatter trace321ce5" style="stroke-miterlimit: 2; opacity: 1;"><g class="fills"/><g class="errorbars"/><g class="lines"><path class="js-line" d="M0,114.61L52.13,114.77L54.6,114.68L101.4,115.2L105.28,114.89L257.35,113.97L261.27,113.82L301.68,109.62L304.13,109.16L323.65,104.87L327.65,103.94L350.94,96.75L354.82,95.33L370.41,91.17L374.44,89.23L379.67,87.64L382.12,85.71L395.23,79.71L397.71,77.97L405.63,74.33L413.01,69.18L418.04,67.62L422.14,64.33L427,55.83L431.77,52.37L435.63,51.25L439.02,47.31L444.53,43.04L448.38,38.44L460.09,27.01L463.98,20.19L468.04,16.62L473.21,9.41L475.7,6.08L479.62,6.28L483.6,8.47L488.83,8.18L491.31,7.85L495.18,9.71L499.23,8.64L504.4,9.6L506.89,9.2L510.78,9.6L514.79,10.53L520,10.59L522.48,9.16L526.37,9.3L530.39,10.77L535.58,9.66L538.11,8.23L542,9.85" style="vector-effect: none; fill: none; stroke: rgb(71, 43, 121); stroke-opacity: 1; stroke-width: 1.5px; opacity: 1;"/></g><g class="points"/><g class="text"/></g><g class="trace scatter trace8de4e4" style="stroke-miterlimit: 2; opacity: 1;"><g class="fills"/><g class="errorbars"/><g class="lines"><path class="js-line" d="M0,114.61L54.6,114.66L61.48,114.66L109.32,114.77L114.51,114.78L223.69,114.61L226.18,114.59L261.27,114.02L265.28,113.3L286.08,111.63L288.57,111.43L304.13,109.1L308.05,108.34L319.73,105.83L323.65,104.79L335.33,102.2L339.22,100.87L348.45,98.35L350.94,97.29L374.44,90.18L379.67,88.06L386.01,84.58L390.04,83.15L401.61,76.7L405.63,74.67L414.69,69.2L418.04,68.38L422.14,64.87L427,58.35L431.77,49.96L435.63,53.11L439.02,49.07L442.37,46.5L460.09,29.18L463.98,21.58L468.04,18.02L473.21,11.33L475.7,7.94L479.62,8.26L483.6,9.79L488.83,9.46L491.31,9.49L495.18,10.53L506.89,10.97L510.78,11.61L520,12.15L522.48,10.49L526.37,10.42L530.39,11.71L538.11,10.12L542,10.21" style="vector-effect: none; fill: none; stroke: rgb(71, 43, 121); stroke-opacity: 1; stroke-width: 1.5px; opacity: 1;"/></g><g class="points"/><g class="text"/></g><g class="trace scatter trace58f957" style="stroke-miterlimit: 2; opacity: 1;"><g class="fills"/><g class="errorbars"/><g class="lines"><path class="js-line" d="M0,114.79L187.28,114.9L192.49,114.85L210.57,114.81L214.44,114.76L265.28,114.84L270.46,114.83L296.46,113.75L301.68,113.37L317.29,111.86L319.73,111.48L343.28,107.31L348.45,106.1L370.41,99.91L374.44,98.21L379.67,97.04L382.12,95.61L395.23,90.72L397.71,89.37L405.63,86.23L413.01,82.69L418.04,80.77L422.14,78.46L427,73.43L431.77,60.27L435.63,59.58L439.02,60.16L442.37,62.19L444.53,58.07L448.38,60.29L452.44,56.94L457.61,52.56L460.09,48.58L468.04,44.66L473.21,45.43L475.7,41.47L479.62,45.08L483.6,46.55L488.83,46.48L491.31,43L495.18,45.99L499.23,45.2L504.4,45.95L506.89,43.34L510.78,45.58L520,45.38L522.48,43.36L526.37,45.43L530.39,45.21L535.58,44.58L538.11,41.91L542,44.4" style="vector-effect: none; fill: none; stroke: rgb(56, 87, 139); stroke-opacity: 1; stroke-width: 1.5px; opacity: 1;"/></g><g class="points"/><g class="text"/></g><g class="trace scatter trace7550ef" style="stroke-miterlimit: 2; opacity: 1;"><g class="fills"/><g class="errorbars"/><g class="lines"><path class="js-line" d="M0,114.77L198.89,114.88L202.88,114.82L276.87,114.71L280.86,114.54L308.05,112.79L312.05,112.26L323.65,110.95L327.65,110.51L343.28,107.21L348.45,105.9L370.41,99.89L374.44,98.09L379.67,96.94L382.12,95.17L395.23,90.48L397.71,89.17L405.63,85.99L413.01,82.43L418.04,80.51L422.14,78.2L427,72L431.77,58.36L435.63,56.64L439.02,56.71L442.37,57.78L444.53,53.16L448.38,58.62L452.44,55.54L457.61,51.28L460.09,46.74L463.98,43.72L468.04,45L473.21,45.69L475.7,38.95L479.62,45.08L483.6,46.27L488.83,45.76L491.31,40.48L495.18,45.65L499.23,44.8L504.4,45.43L506.89,41.55L510.78,45.04L514.79,44.64L520,44.94L522.48,41.77L526.37,45.09L530.39,45.21L535.58,44.2L538.11,40.56L542,44.2" style="vector-effect: none; fill: none; stroke: rgb(56, 87, 139); stroke-opacity: 1; stroke-width: 1.5px; opacity: 1;"/></g><g class="points"/><g class="text"/></g><g class="trace scatter trace3ad42b" style="stroke-miterlimit: 2; opacity: 1;"><g class="fills"/><g class="errorbars"/><g class="lines"><path class="js-line" d="M0,114.47L120.9,114.6L124.9,114.54L152.07,114.68L156.07,114.66L179.38,114.56L183.26,114.54L226.18,114.39L230.05,114.48L241.76,114.79L245.64,114.83L276.87,114.41L280.86,114.18L308.05,112.49L312.05,111.98L323.65,110.45L327.65,109.93L343.28,106.71L348.45,105.42L364.04,101.63L366.53,100.36L370.41,99.69L374.44,97.95L379.67,96.86L382.12,94.99L395.23,90.16L397.71,88.83L405.63,85.63L413.01,82.05L418.04,80.25L422.14,77.98L427,72.81L431.77,57.5L435.63,56.68L439.02,57.97L442.37,61.71L444.53,57.33L448.38,59.34L452.44,56.22L457.61,51.74L460.09,47.72L463.98,44.69L468.04,45.08L473.21,45.33L475.7,42.33L479.62,45.92L483.6,46.57L488.83,46.82L491.31,42.86L495.18,46.53L499.23,45.42L504.4,46.22L506.89,43.38L510.78,45.92L514.79,45.3L520,45.56L522.48,43.82L526.37,45.67L530.39,46.11L535.58,44.82L538.11,42.31L542,44.73" style="vector-effect: none; fill: none; stroke: rgb(56, 87, 139); stroke-opacity: 1; stroke-width: 1.5px; opacity: 1;"/></g><g class="points"/><g class="text"/></g><g class="trace scatter trace5400fe" style="stroke-miterlimit: 2; opacity: 1;"><g class="fills"/><g class="errorbars"/><g class="lines"><path class="js-line" d="M0,113.77L11.71,114.63L15.73,114.65L223.69,114.67L226.18,114.59L272.94,114.79L276.87,114.67L319.73,113.75L323.65,113.39L335.33,113L339.22,112.53L364.04,109.71L366.53,109.28L382.12,105.37L386.01,104.02L401.61,97.99L405.63,96.36L422.14,89.94L427,86.37L431.77,74.44L435.63,71.45L439.02,73.65L442.37,74.92L444.53,73.45L448.38,78.38L452.44,81.81L457.61,82.37L460.09,79.79L463.98,82.27L473.21,82.55L475.7,78.69L479.62,81.98L483.6,83.03L488.83,82.84L491.31,79.5L495.18,82.75L499.23,82.28L504.4,82.25L506.89,79.65L510.78,81.92L514.79,82.26L520,82.12L522.48,79.91L526.37,81.95L530.39,82.23L535.58,81.8L538.11,79.97L542,81.66" style="vector-effect: none; fill: none; stroke: rgb(40, 125, 142); stroke-opacity: 1; stroke-width: 1.5px; opacity: 1;"/></g><g class="points"/><g class="text"/></g><g class="trace scatter trace37610a" style="stroke-miterlimit: 2; opacity: 1;"><g class="fills"/><g class="errorbars"/><g class="lines"><path class="js-line" d="M0,114.71L31.32,114.74L36.51,114.72L85.8,114.78L89.71,115.26L117.01,114.77L120.9,114.8L218.51,114.76L223.69,114.55L241.76,115.05L245.64,115.07L308.05,114.17L312.05,114.08L335.33,113.04L339.22,112.55L350.94,111.26L354.82,110.57L366.53,108.94L370.41,108.29L374.44,106.93L379.67,106.06L390.04,102L395.23,99.78L405.63,95.63L413.01,92.59L414.69,92.53L418.04,90.93L422.14,88.96L427,85.31L431.77,72.27L435.63,69.61L442.37,73.63L444.53,72.12L448.38,77.12L452.44,80.95L457.61,82.55L460.09,79.65L463.98,82.11L468.04,82.6L473.21,82.73L475.7,78.87L479.62,82.16L483.6,83.03L488.83,82.82L491.31,79.58L495.18,82.81L499.23,82.44L504.4,82.33L506.89,79.81L510.78,82.06L514.79,82.52L520,82.22L522.48,80.13L526.37,81.75L530.39,82.19L535.58,81.9L538.11,80.07L542,81.83" style="vector-effect: none; fill: none; stroke: rgb(40, 125, 142); stroke-opacity: 1; stroke-width: 1.5px; opacity: 1;"/></g><g class="points"/><g class="text"/></g><g class="trace scatter trace9f22a4" style="stroke-miterlimit: 2; opacity: 1;"><g class="fills"/><g class="errorbars"/><g class="lines"><path class="js-line" d="M0,114.39L85.8,114.8L89.71,115.24L117.01,114.87L120.9,114.86L152.07,114.92L156.07,114.96L202.88,114.82L208.08,114.88L234.06,114.64L239.27,115.17L261.27,114.98L265.28,114.88L288.57,114.66L292.46,114.65L323.65,113.67L327.65,113.42L343.28,112.24L348.45,111.74L370.41,108.45L374.44,107.05L382.12,105.03L386.01,103.64L418.04,91.29L422.14,89.16L427,85.47L431.77,71.87L435.63,69.02L439.02,71.1L442.37,72.79L444.53,71.44L448.38,77.5L452.44,81.61L457.61,82.53L460.09,79.87L463.98,82.11L468.04,82.74L473.21,82.73L475.7,79.29L479.62,82.12L483.6,83.11L488.83,82.9L491.31,79.78L495.18,82.75L499.23,82.48L504.4,82.65L506.89,80.44L510.78,82.4L514.79,82.62L520,82.44L522.48,80.88L526.37,82.15L530.39,82.59L535.58,82.2L538.11,80.87L542,82.03" style="vector-effect: none; fill: none; stroke: rgb(40, 125, 142); stroke-opacity: 1; stroke-width: 1.5px; opacity: 1;"/></g><g class="points"/><g class="text"/></g><g class="trace scatter trace296d1c" style="stroke-miterlimit: 2; opacity: 1;"><g class="fills"/><g class="errorbars"/><g class="lines"><path class="js-line" d="M0,114.64L70.63,114.83L74.09,114.84L148.17,114.85L152.07,114.94L167.68,114.8L171.69,114.9L343.28,112.88L348.45,112.68L370.41,110.25L374.44,109.61L397.71,105.56L401.61,105.42L418.04,105.04L422.14,104.87L427,103.14L431.77,94.53L435.63,92.03L439.02,94.53L442.37,95.79L444.53,94.59L452.44,102.48L457.61,103.24L460.09,101.25L463.98,102.91L473.21,103.13L475.7,100.04L479.62,103.28L483.6,103.32L488.83,103.16L491.31,100.62L495.18,103.24L499.23,102.8L504.4,102.96L506.89,100.34L510.78,102.78L514.79,102.89L520,103.18L522.48,100.8L526.37,103.19L530.39,102.83L535.58,102.93L538.11,100.86L542,102.5" style="vector-effect: none; fill: none; stroke: rgb(35, 163, 134); stroke-opacity: 1; stroke-width: 1.5px; opacity: 1;"/></g><g class="points"/><g class="text"/></g><g class="trace scatter tracedeaa3a" style="stroke-miterlimit: 2; opacity: 1;"><g class="fills"/><g class="errorbars"/><g class="lines"><path class="js-line" d="M0,114.42L83.31,114.78L85.8,114.78L161.28,114.72L163.8,114.78L198.89,114.68L202.88,114.78L343.28,112.8L348.45,112.44L364.04,111.01L366.53,110.58L382.12,107.54L386.01,106.4L401.61,105.24L405.63,105.38L422.14,104.85L427,103.36L431.77,93.98L435.63,90.71L439.02,92.71L442.37,93.66L444.53,92.48L448.38,97.37L457.61,103.4L460.09,101.35L463.98,103.19L468.04,103.31L473.21,103.31L475.7,100.14L479.62,103.3L483.6,103.24L488.83,103.38L491.31,100.64L495.18,103.49L499.23,102.82L504.4,103.22L506.89,100.41L510.78,102.9L514.79,103.07L520,103.14L522.48,100.82L526.37,103.19L530.39,102.87L535.58,102.99L538.11,100.94L542,102.72" style="vector-effect: none; fill: none; stroke: rgb(35, 163, 134); stroke-opacity: 1; stroke-width: 1.5px; opacity: 1;"/></g><g class="points"/><g class="text"/></g><g class="trace scatter tracedc9a6f" style="stroke-miterlimit: 2; opacity: 1;"><g class="fills"/><g class="errorbars"/><g class="lines"><path class="js-line" d="M0,114.22L61.48,114.51L64.84,114.56L132.59,114.6L136.47,114.66L265.28,114.24L270.46,114.21L332.84,113.12L335.33,113.01L364.04,110.73L366.53,110.22L382.12,107.32L386.01,106.16L405.63,105.24L413.01,104.87L414.69,105.14L418.04,104.72L422.14,104.63L427,103.3L431.77,92.74L435.63,89.25L442.37,92.1L444.53,91.3L448.38,96.06L452.44,98.93L457.61,103.74L460.09,101.13L463.98,103.49L468.04,103.57L473.21,103.77L475.7,100.61L479.62,103.46L483.6,103.71L488.83,103.61L491.31,100.76L495.18,103.71L499.23,102.96L504.4,103.46L506.89,100.57L510.78,103.26L514.79,103.27L520,103.32L522.48,101.02L526.37,103.33L530.39,103.35L535.58,103.31L538.11,101.18L542,103.06" style="vector-effect: none; fill: none; stroke: rgb(35, 163, 134); stroke-opacity: 1; stroke-width: 1.5px; opacity: 1;"/></g><g class="points"/><g class="text"/></g><g class="trace scatter trace42b87f" style="stroke-miterlimit: 2; opacity: 1;"><g class="fills"/><g class="errorbars"/><g class="lines"><path class="js-line" d="M0,114.1L39,114.32L42.89,114.38L70.63,114.39L74.09,114.44L148.17,114.41L152.07,114.5L218.51,114.25L223.69,114.26L257.35,114.01L261.27,113.98L288.57,113.69L292.46,113.81L312.05,113.35L317.29,113.35L327.65,113.17L332.84,113.02L343.28,112.6L348.45,112.26L370.41,111.52L374.44,111.54L422.14,111.38L427,110.16L431.77,101.46L435.63,98.21L439.02,100.69L442.37,102.02L444.53,101.26L448.38,106.91L452.44,110.61L457.61,111.17L460.09,108.98L463.98,111.01L473.21,110.99L475.7,107.82L479.62,111.06L483.6,111.18L488.83,111.04L491.31,108.58L495.18,111.04L499.23,110.4L504.4,111.05L506.89,108.34L510.78,110.83L514.79,110.61L520,111.05L522.48,108.92L526.37,111.09L530.39,110.87L535.58,110.91L538.11,108.98L542,110.65" style="vector-effect: none; fill: none; stroke: rgb(84, 196, 103); stroke-opacity: 1; stroke-width: 1.5px; opacity: 1;"/></g><g class="points"/><g class="text"/></g><g class="trace scatter traceb8f03d" style="stroke-miterlimit: 2; opacity: 1;"><g class="fills"/><g class="errorbars"/><g class="lines"><path class="js-line" d="M0,114.48L42.89,114.78L46.9,114.82L109.32,114.78L114.51,114.84L132.59,114.82L136.47,114.88L194.98,114.58L198.89,114.42L202.88,114.54L208.08,113.72L218.51,114.61L223.69,114.5L241.76,114.62L245.64,114.58L276.87,114.18L280.86,114.19L332.84,113.3L335.33,113.17L379.67,111.86L382.12,111.89L418.04,111.74L422.14,111.82L427,110.46L431.77,101.14L435.63,97.45L439.02,99.16L442.37,100.28L444.53,99.46L452.44,109.75L457.61,111.17L460.09,108.74L463.98,111.05L473.21,111.23L475.7,108.2L479.62,111.18L483.6,111.4L488.83,111.14L491.31,108.5L495.18,111.24L499.23,110.72L504.4,111.11L506.89,108.5L510.78,110.89L514.79,110.87L520,111.17L522.48,109.14L526.37,111.27L530.39,111.01L535.58,111.05L538.11,109.32L542,110.85" style="vector-effect: none; fill: none; stroke: rgb(84, 196, 103); stroke-opacity: 1; stroke-width: 1.5px; opacity: 1;"/></g><g class="points"/><g class="text"/></g><g class="trace scatter trace629e00" style="stroke-miterlimit: 2; opacity: 1;"><g class="fills"/><g class="errorbars"/><g class="lines"><path class="js-line" d="M0,114.26L42.89,114.58L46.9,114.56L70.63,114.55L74.09,114.64L156.07,114.5L161.28,114.6L183.26,114.56L187.28,114.61L312.05,113.69L317.29,113.61L335.33,113.11L339.22,112.81L382.12,111.59L386.01,111.51L422.14,111.46L427,109.4L431.77,99.28L435.63,95L439.02,96.72L442.37,97.39L444.53,96.47L448.38,101.05L452.44,106.12L457.61,110.59L460.09,107.76L463.98,110.29L473.21,110.35L475.7,106.92L479.62,110.4L483.6,110.68L488.83,110.4L491.31,107.23L495.18,110.52L499.23,109.9L504.4,110.39L506.89,107.24L510.78,110.09L514.79,110.15L520,110.29L522.48,107.99L526.37,110.33L530.39,110.49L535.58,110.33L538.11,108.24L542,110.07" style="vector-effect: none; fill: none; stroke: rgb(84, 196, 103); stroke-opacity: 1; stroke-width: 1.5px; opacity: 1;"/></g><g class="points"/><g class="text"/></g><g class="trace scatter traceeb4b58" style="stroke-miterlimit: 2; opacity: 1;"><g class="fills"/><g class="errorbars"/><g class="lines"><path class="js-line" d="M0,114.48L89.71,114.66L93.71,114.72L148.17,114.65L152.07,114.7L171.69,114.6L176.89,114.52L198.89,114.48L202.88,114.5L422.14,113.77L427,112.14L431.77,103.16L435.63,102.12L439.02,112.45L442.37,112.28L444.53,111.88L448.38,112.74L457.61,112.86L460.09,112.99L475.7,112.69L479.62,113.11L506.89,112.51L510.78,112.78L542,112.68" style="vector-effect: none; fill: none; stroke: rgb(175, 221, 47); stroke-opacity: 1; stroke-width: 1.5px; opacity: 1;"/></g><g class="points"/><g class="text"/></g><g class="trace scatter trace51d51a" style="stroke-miterlimit: 2; opacity: 1;"><g class="fills"/><g class="errorbars"/><g class="lines"><path class="js-line" d="M0,114.58L74.09,114.86L78.11,114.72L114.51,114.84L117.01,114.7L152.07,114.9L156.07,114.72L194.98,114.66L198.89,114.58L265.28,114.22L270.46,114.15L422.14,114.01L427,112.06L431.77,103.59L435.63,100.89L439.02,112.67L442.37,112.81L444.53,112.38L448.38,113.14L452.44,112.9L457.61,113.44L468.04,113.29L473.21,113.37L479.62,113.11L483.6,113.49L499.23,112.89L504.4,113.28L510.78,112.96L514.79,112.95L538.11,113.39L542,112.8" style="vector-effect: none; fill: none; stroke: rgb(175, 221, 47); stroke-opacity: 1; stroke-width: 1.5px; opacity: 1;"/></g><g class="points"/><g class="text"/></g><g class="trace scatter trace2f392b" style="stroke-miterlimit: 2; opacity: 1;"><g class="fills"/><g class="errorbars"/><g class="lines"><path class="js-line" d="M0,114.4L52.13,114.56L54.6,114.51L245.64,114.42L249.66,114.27L354.82,113.93L358.87,113.91L422.14,113.89L427,112.54L431.77,102.98L435.63,100.71L439.02,113.27L442.37,113.17L444.53,112.74L448.38,113.56L452.44,113.22L457.61,113.76L479.62,113.37L483.6,113.59L514.79,113.33L520,113.36L542,113.34" style="vector-effect: none; fill: none; stroke: rgb(175, 221, 47); stroke-opacity: 1; stroke-width: 1.5px; opacity: 1;"/></g><g class="points"/><g class="text"/></g></g></g></g><path class="xlines-above crisp" d="M37.5,308.01H580.5M37.5,185.99000000000004H580.5" style="fill: none; stroke-width: 0.5px; stroke: rgb(0, 0, 0); stroke-opacity: 1;"/><path class="ylines-above crisp" d="M37.75,186.24000000000004V307.76M580.25,186.24000000000004V307.76" style="fill: none; stroke-width: 0.5px; stroke: rgb(0, 0, 0); stroke-opacity: 1;"/><g class="overlines-above"/><g class="xaxislayer-above"><path class="x2tick ticks crisp" d="M0,307.76v-5" transform="translate(115.98,0)" style="stroke: rgb(0, 0, 0); stroke-opacity: 1; stroke-width: 0.5px;"/><path class="x2tick ticks crisp" d="M0,307.76v-5" transform="translate(193.96,0)" style="stroke: rgb(0, 0, 0); stroke-opacity: 1; stroke-width: 0.5px;"/><path class="x2tick ticks crisp" d="M0,307.76v-5" transform="translate(271.94,0)" style="stroke: rgb(0, 0, 0); stroke-opacity: 1; stroke-width: 0.5px;"/><path class="x2tick ticks crisp" d="M0,307.76v-5" transform="translate(349.92,0)" style="stroke: rgb(0, 0, 0); stroke-opacity: 1; stroke-width: 0.5px;"/><path class="x2tick ticks crisp" d="M0,307.76v-5" transform="translate(427.9,0)" style="stroke: rgb(0, 0, 0); stroke-opacity: 1; stroke-width: 0.5px;"/><path class="x2tick ticks crisp" d="M0,307.76v-5" transform="translate(505.88,0)" style="stroke: rgb(0, 0, 0); stroke-opacity: 1; stroke-width: 0.5px;"/></g><g class="yaxislayer-above"><path class="y2tick ticks crisp" d="M38,0h5" transform="translate(0,301.70000000000005)" style="stroke: rgb(0, 0, 0); stroke-opacity: 1; stroke-width: 0.5px;"/><path class="y2tick ticks crisp" d="M38,0h5" transform="translate(0,261.61)" style="stroke: rgb(0, 0, 0); stroke-opacity: 1; stroke-width: 0.5px;"/><path class="y2tick ticks crisp" d="M38,0h5" transform="translate(0,221.53000000000003)" style="stroke: rgb(0, 0, 0); stroke-opacity: 1; stroke-width: 0.5px;"/><g class="y2tick"><text text-anchor="end" x="35.3" y="3.8499999999999996" transform="translate(0,301.70000000000005)" style="font-family: 'Open Sans', verdana, arial, sans-serif; font-size: 11px; fill: rgb(0, 0, 0); fill-opacity: 1; white-space: pre; opacity: 1;">0</text></g><g class="y2tick"><text text-anchor="end" x="35.3" y="3.8499999999999996" style="font-family: 'Open Sans', verdana, arial, sans-serif; font-size: 11px; fill: rgb(0, 0, 0); fill-opacity: 1; white-space: pre; opacity: 1;" transform="translate(0,261.61)">0.2</text></g><g class="y2tick"><text text-anchor="end" x="35.3" y="3.8499999999999996" style="font-family: 'Open Sans', verdana, arial, sans-serif; font-size: 11px; fill: rgb(0, 0, 0); fill-opacity: 1; white-space: pre; opacity: 1;" transform="translate(0,221.53000000000003)">0.4</text></g></g><g class="overaxes-above"/></g><g class="subplot x3y3"><g class="layer-subplot"><g class="shapelayer"/><g class="imagelayer"/></g><g class="minor-gridlayer"><g class="x3"/><g class="y3"/></g><g class="gridlayer"><g class="x3"><path class="x3grid crisp" transform="translate(115.98,0)" d="M0,342.47999999999996v121.51999999999998" style="stroke: rgb(128, 128, 128); stroke-opacity: 1; stroke-width: 0.2px;"/><path class="x3grid crisp" transform="translate(193.96,0)" d="M0,342.47999999999996v121.51999999999998" style="stroke: rgb(128, 128, 128); stroke-opacity: 1; stroke-width: 0.2px;"/><path class="x3grid crisp" transform="translate(271.94,0)" d="M0,342.47999999999996v121.51999999999998" style="stroke: rgb(128, 128, 128); stroke-opacity: 1; stroke-width: 0.2px;"/><path class="x3grid crisp" transform="translate(349.92,0)" d="M0,342.47999999999996v121.51999999999998" style="stroke: rgb(128, 128, 128); stroke-opacity: 1; stroke-width: 0.2px;"/><path class="x3grid crisp" transform="translate(427.9,0)" d="M0,342.47999999999996v121.51999999999998" style="stroke: rgb(128, 128, 128); stroke-opacity: 1; stroke-width: 0.2px;"/><path class="x3grid crisp" transform="translate(505.88,0)" d="M0,342.47999999999996v121.51999999999998" style="stroke: rgb(128, 128, 128); stroke-opacity: 1; stroke-width: 0.2px;"/></g><g class="y3"><path class="y3grid crisp" transform="translate(0,458.03999999999996)" d="M38,0h542" style="stroke: rgb(128, 128, 128); stroke-opacity: 1; stroke-width: 0.2px;"/><path class="y3grid crisp" transform="translate(0,433.34999999999997)" d="M38,0h542" style="stroke: rgb(128, 128, 128); stroke-opacity: 1; stroke-width: 0.2px;"/><path class="y3grid crisp" transform="translate(0,408.66999999999996)" d="M38,0h542" style="stroke: rgb(128, 128, 128); stroke-opacity: 1; stroke-width: 0.2px;"/><path class="y3grid crisp" transform="translate(0,383.98999999999995)" d="M38,0h542" style="stroke: rgb(128, 128, 128); stroke-opacity: 1; stroke-width: 0.2px;"/><path class="y3grid crisp" transform="translate(0,359.30999999999995)" d="M38,0h542" style="stroke: rgb(128, 128, 128); stroke-opacity: 1; stroke-width: 0.2px;"/></g></g><g class="zerolinelayer"/><g class="layer-between"><g class="shapelayer"/><g class="imagelayer"/></g><path class="xlines-below"/><path class="ylines-below"/><g class="overlines-below"/><g class="xaxislayer-below"/><g class="yaxislayer-below"/><g class="overaxes-below"/><g class="overplot"><g class="x3y3" transform="translate(38,342.47999999999996)" clip-path="url(#clip75ad99x3y3plot)"><g class="scatterlayer mlayer"><g class="trace scatter traceeeaa20" style="stroke-miterlimit: 2; opacity: 1;"><g class="fills"/><g class="errorbars"/><g class="lines"><path class="js-line" d="M0,114.81L42.89,114.82L46.9,114.81L101.4,114.99L105.28,114.8L148.17,114.19L152.07,113.99L171.69,112.69L176.89,112.07L187.28,110.88L192.49,109.86L202.88,107.88L208.08,106.62L214.44,105.05L218.51,103.84L234.06,99.4L239.27,97.75L249.66,93.81L254.86,91.42L272.94,82.13L276.87,79.24L280.86,75.93L286.08,73.29L288.57,74L292.46,67.96L296.46,66.13L301.68,59.07L304.13,57.35L308.05,52.73L319.73,37.47L323.65,33.54L327.65,29.5L332.84,27.96L335.33,27.95L339.22,26.85L350.94,24.94L354.82,24.19L364.04,23.6L366.53,23.07L374.44,22.95L379.67,22.14L390.04,22.63L395.23,21.12L397.71,20.3L401.61,20.28L414.69,18.41L418.04,18.94L422.14,18.6L427,16.15L431.77,10.82L435.63,15.19L439.02,15.74L442.37,15.14L444.53,14.31L448.38,13.87L457.61,11.81L460.09,10.07L463.98,12.28L468.04,12.51L475.7,11.58L479.62,11.14L483.6,11.51L488.83,10.44L491.31,10.01L495.18,10.44L506.89,8.55L510.78,8.55L514.79,8.75L520,7.32L522.48,8.71L526.37,8.22L530.39,8.29L535.58,7.1L542,6.34" style="vector-effect: none; fill: none; stroke: rgb(71, 43, 121); stroke-opacity: 1; stroke-width: 1.5px; opacity: 1;"/></g><g class="points"/><g class="text"/></g><g class="trace scatter traceea207a" style="stroke-miterlimit: 2; opacity: 1;"><g class="fills"/><g class="errorbars"/><g class="lines"><path class="js-line" d="M0,114.88L39,114.98L42.89,114.98L132.59,114.81L136.47,114.65L163.8,113.58L167.68,113.28L187.28,110.77L192.49,109.68L198.89,108.46L202.88,107.62L241.76,96.59L245.64,95L257.35,89.59L261.27,87.52L276.87,77.86L280.86,74.41L292.46,66.88L296.46,64.45L312.05,47.11L317.29,40.28L323.65,33.92L327.65,30.03L335.33,27.97L339.22,27.65L343.28,26.95L348.45,25.16L358.87,23.93L364.04,22.77L366.53,22.25L370.41,22.75L395.23,21.04L397.71,19.92L401.61,20.31L405.63,19.59L418.04,18.31L422.14,18.61L431.77,11.45L435.63,14.27L442.37,14.57L444.53,13.37L452.44,12L457.61,10.86L460.09,8.94L463.98,10.59L468.04,10.9L473.21,9.98L475.7,10.24L479.62,9.7L483.6,10.38L488.83,9.68L491.31,9.06L495.18,9.4L499.23,8.55L504.4,8.3L510.78,7.29L514.79,8L520,6.8L522.48,7.7L526.37,7.15L530.39,7.69L542,6.08" style="vector-effect: none; fill: none; stroke: rgb(71, 43, 121); stroke-opacity: 1; stroke-width: 1.5px; opacity: 1;"/></g><g class="points"/><g class="text"/></g><g class="trace scatter tracea29b31" style="stroke-miterlimit: 2; opacity: 1;"><g class="fills"/><g class="errorbars"/><g class="lines"><path class="js-line" d="M0,114.93L64.84,114.98L68.97,114.93L98.91,115.28L101.4,115.15L136.47,114.68L140.49,114.64L163.8,113.61L167.68,113.32L187.28,111.05L192.49,110.05L208.08,106.81L210.57,105.7L218.51,104.01L223.69,102.27L234.06,99.45L239.27,97.61L249.66,93.62L254.86,91.05L265.28,85.45L270.46,82.02L276.87,78.07L280.86,74.59L296.46,64.66L301.68,58.68L304.13,57.15L308.05,52.28L312.05,48.78L317.29,41.09L319.73,40.33L323.65,34.78L327.65,28.9L332.84,26.39L339.22,25.43L343.28,24.99L354.82,22.47L358.87,22.99L366.53,21.46L370.41,21.37L390.04,20.33L395.23,19.12L397.71,18.35L401.61,18.4L422.14,16.45L427,14.13L431.77,9.51L435.63,13.78L442.37,14.5L444.53,13.12L452.44,12.71L457.61,11.32L460.09,9.08L463.98,10.74L468.04,11.24L473.21,10.28L488.83,9.8L491.31,9.33L495.18,9.67L499.23,8.63L510.78,7.6L514.79,8.39L520,7.07L522.48,8.4L542,6.53" style="vector-effect: none; fill: none; stroke: rgb(71, 43, 121); stroke-opacity: 1; stroke-width: 1.5px; opacity: 1;"/></g><g class="points"/><g class="text"/></g><g class="trace scatter tracebd1930" style="stroke-miterlimit: 2; opacity: 1;"><g class="fills"/><g class="errorbars"/><g class="lines"><path class="js-line" d="M0,114.98L132.59,114.63L136.47,114.41L152.07,114.58L156.07,114.52L187.28,113.05L192.49,112.49L198.89,111.66L202.88,110.81L218.51,106.96L223.69,105.06L230.05,103.08L234.06,101.75L249.66,95.77L254.86,93.18L257.35,92.51L261.27,90.37L280.86,79.98L286.08,76.15L288.57,76.48L292.46,70.79L296.46,67.65L301.68,62.14L304.13,62.87L308.05,55.34L312.05,56.26L317.29,54.53L335.33,50.06L339.22,49.57L350.94,48.9L354.82,47.58L358.87,48.08L364.04,47.52L370.41,46.76L374.44,46.91L379.67,45.65L382.12,45.91L390.04,46.14L395.23,44.98L397.71,44.17L401.61,43.99L405.63,44.04L413.01,42.74L414.69,42.39L418.04,42.89L422.14,42.98L427,40.46L431.77,33.08L435.63,33.12L439.02,38.31L442.37,40.13L444.53,39.18L448.38,39.46L457.61,37.83L460.09,35.14L463.98,37.55L468.04,38.15L475.7,36.2L479.62,36.97L483.6,37.16L488.83,36.64L491.31,35.46L495.18,36.47L506.89,33.99L510.78,34.19L514.79,34.75L520,33.48L522.48,34.28L526.37,33.69L530.39,34.19L535.58,32.96L542,32.41" style="vector-effect: none; fill: none; stroke: rgb(56, 87, 139); stroke-opacity: 1; stroke-width: 1.5px; opacity: 1;"/></g><g class="points"/><g class="text"/></g><g class="trace scatter trace5f227f" style="stroke-miterlimit: 2; opacity: 1;"><g class="fills"/><g class="errorbars"/><g class="lines"><path class="js-line" d="M0,114.81L156.07,114.44L161.28,114.18L171.69,113.89L176.89,113.67L194.98,112.13L198.89,111.42L210.57,109L214.44,108.05L218.51,106.96L223.69,104.75L241.76,98.66L245.64,97.26L261.27,90.25L265.28,88.03L276.87,82.27L280.86,79.3L286.08,75.84L288.57,76.53L292.46,71.41L296.46,68.71L301.68,63.74L304.13,62.82L308.05,55.45L312.05,56.05L327.65,51.88L332.84,50.68L343.28,49.21L348.45,48.61L354.82,46.74L358.87,47.39L366.53,46.06L370.41,45.76L374.44,45.9L379.67,44.58L382.12,44.95L386.01,44.77L390.04,44.87L395.23,43.8L397.71,43.05L401.61,42.76L405.63,42.61L413.01,41.45L418.04,42.01L422.14,41.9L427,38.85L431.77,31.21L435.63,30.64L439.02,33.58L442.37,36.74L444.53,34.58L448.38,37.45L452.44,36.74L457.61,36.08L460.09,31.97L463.98,35.92L468.04,36.33L473.21,35.55L475.7,32.88L479.62,35.23L483.6,35.57L488.83,35.06L491.31,32.44L495.18,35.07L499.23,34.41L504.4,34.07L506.89,31.33L510.78,33.1L514.79,33.68L522.48,31.85L526.37,32.85L530.39,33.24L535.58,32.32L538.11,30.6L542,31.63" style="vector-effect: none; fill: none; stroke: rgb(56, 87, 139); stroke-opacity: 1; stroke-width: 1.5px; opacity: 1;"/></g><g class="points"/><g class="text"/></g><g class="trace scatter trace085435" style="stroke-miterlimit: 2; opacity: 1;"><g class="fills"/><g class="errorbars"/><g class="lines"><path class="js-line" d="M0,115L156.07,114.55L161.28,114.32L171.69,114.09L176.89,113.84L194.98,112.43L198.89,111.72L210.57,109.43L214.44,108.53L218.51,107.46L223.69,105.05L239.27,100.33L241.76,99.22L249.66,95.91L254.86,93.41L265.28,88.38L270.46,85.56L272.94,85.03L276.87,82.5L286.08,75.67L288.57,76.21L292.46,70.84L296.46,68.3L301.68,63.34L304.13,63.04L308.05,54.16L312.05,55.85L323.65,52.5L327.65,51.96L339.22,48.85L343.28,48.44L354.82,45.81L358.87,46.16L370.41,44.91L374.44,45.11L386.01,44.39L390.04,44.18L401.61,42.03L405.63,42.08L414.69,41.17L418.04,41.86L422.14,41.77L427,39.36L431.77,31.6L435.63,31.52L442.37,38.82L444.53,37.3L448.38,38.15L452.44,37.6L457.61,36.79L460.09,33.4L463.98,36.5L468.04,36.99L473.21,35.98L475.7,34.51L479.62,36.22L483.6,36.61L488.83,36.23L491.31,34.65L495.18,36.24L499.23,35.58L504.4,35.02L506.89,33.15L514.79,34.72L520,33.51L526.37,34.07L530.39,34.39L542,32.86" style="vector-effect: none; fill: none; stroke: rgb(56, 87, 139); stroke-opacity: 1; stroke-width: 1.5px; opacity: 1;"/></g><g class="points"/><g class="text"/></g><g class="trace scatter traceec7625" style="stroke-miterlimit: 2; opacity: 1;"><g class="fills"/><g class="errorbars"/><g class="lines"><path class="js-line" d="M0,115.22L156.07,114.58L161.28,114.4L187.28,113.73L192.49,113.55L198.89,113.16L202.88,112.76L214.44,111.03L218.51,110.13L234.06,105.69L239.27,103.85L241.76,103.42L245.64,101.85L254.86,97.95L257.35,96.92L270.46,90.35L272.94,88.68L280.86,86.22L286.08,86.27L304.13,85.22L308.05,84.8L317.29,84.8L319.73,84.55L350.94,83.39L354.82,82.22L358.87,83.05L364.04,82.72L382.12,81.81L386.01,81.86L395.23,81.56L397.71,80.85L405.63,80.23L413.01,79.52L422.14,78.83L427,77.33L431.77,69.98L435.63,67.7L442.37,71.39L444.53,69.92L448.38,74.81L452.44,74.93L457.61,74.9L460.09,72.01L463.98,74.59L468.04,74.5L473.21,74.16L475.7,72.2L479.62,73.57L483.6,73.83L488.83,73.1L491.31,70.76L495.18,72.47L499.23,71.54L504.4,71.43L506.89,69.56L514.79,70.48L520,69.59L522.48,68.91L526.37,69.45L530.39,69.46L535.58,68.62L538.11,67.42L542,67.94" style="vector-effect: none; fill: none; stroke: rgb(40, 125, 142); stroke-opacity: 1; stroke-width: 1.5px; opacity: 1;"/></g><g class="points"/><g class="text"/></g><g class="trace scatter trace6e3364" style="stroke-miterlimit: 2; opacity: 1;"><g class="fills"/><g class="errorbars"/><g class="lines"><path class="js-line" d="M0,114.95L85.8,114.98L89.71,115.18L140.49,114.46L145.68,114.49L171.69,113.96L176.89,113.9L208.08,112.24L210.57,111.93L218.51,110.54L223.69,108.97L230.05,107.64L234.06,106.14L245.64,101.31L249.66,99.96L270.46,89.93L272.94,88.44L276.87,86.1L280.86,85.57L301.68,82.97L304.13,82.72L350.94,79.12L354.82,77.57L358.87,78.68L364.04,78.46L370.41,78.3L374.44,78.38L395.23,77.44L397.71,76.89L422.14,76.12L427,74.51L431.77,66.58L435.63,64.44L442.37,67.14L444.53,65.87L448.38,69.63L452.44,72.02L457.61,72.11L460.09,68.13L463.98,71.25L468.04,71.52L473.21,70.82L475.7,68.42L479.62,70.36L483.6,71.02L488.83,70.33L491.31,67.55L495.18,69.68L499.23,69.09L504.4,68.91L506.89,66.15L510.78,67.77L514.79,68.15L520,67.46L522.48,66.3L526.37,67.29L530.39,67.36L535.58,66.56L538.11,64.55L542,65.6" style="vector-effect: none; fill: none; stroke: rgb(40, 125, 142); stroke-opacity: 1; stroke-width: 1.5px; opacity: 1;"/></g><g class="points"/><g class="text"/></g><g class="trace scatter traceacb68f" style="stroke-miterlimit: 2; opacity: 1;"><g class="fills"/><g class="errorbars"/><g class="lines"><path class="js-line" d="M0,113.28L5.32,115.15L8.23,115.14L54.6,115.13L61.48,115.12L183.26,113.78L187.28,111.97L192.49,110.94L194.98,112.37L198.89,110.49L202.88,111.5L210.57,110.27L214.44,108.16L218.51,107.43L223.69,108.15L226.18,107.59L230.05,104.28L234.06,102.4L239.27,103.19L254.86,97.2L257.35,95.62L261.27,94.59L265.28,92.59L270.46,90.41L272.94,91.07L276.87,85.81L280.86,85.01L286.08,82.88L288.57,84.08L296.46,83.58L301.68,82.97L317.29,81.87L319.73,81.74L335.33,80.53L339.22,80.19L370.41,78.42L374.44,78.48L379.67,75.94L382.12,77.05L390.04,77.8L395.23,77.26L401.61,76.86L405.63,76.83L418.04,75.88L422.14,75.61L427,73.95L431.77,66.11L435.63,63.54L439.02,65.54L442.37,66.76L444.53,65.33L448.38,69.25L452.44,71.16L457.61,71.03L460.09,67.17L463.98,70.35L468.04,70.75L473.21,69.92L475.7,67.68L479.62,69.83L483.6,70.04L488.83,69.48L491.31,67.14L495.18,69L499.23,68.32L504.4,68.14L506.89,65.47L510.78,67.2L514.79,67.46L522.48,65.95L526.37,66.63L530.39,66.67L535.58,65.68L538.11,63.92L542,64.67" style="vector-effect: none; fill: none; stroke: rgb(40, 125, 142); stroke-opacity: 1; stroke-width: 1.5px; opacity: 1;"/></g><g class="points"/><g class="text"/></g><g class="trace scatter tracee36d75" style="stroke-miterlimit: 2; opacity: 1;"><g class="fills"/><g class="errorbars"/><g class="lines"><path class="js-line" d="M0,110.04L5.32,114.63L8.23,114.61L52.13,114.68L54.6,114.65L156.07,114.05L161.28,113.88L202.88,112.65L208.08,112.3L214.44,111.84L218.51,111.21L230.05,109.17L234.06,107.97L249.66,104.2L254.86,103.92L270.46,103.23L272.94,103.46L280.86,103.09L286.08,103.16L304.13,102.66L308.05,102.31L312.05,101.91L317.29,102.29L332.84,101.96L335.33,101.96L348.45,101.65L350.94,101.61L358.87,101.42L364.04,101.17L370.41,100.96L374.44,100.97L390.04,100.77L395.23,100.89L401.61,100.42L405.63,100.69L427,98.98L431.77,92.32L435.63,89.98L439.02,90.98L442.37,91.6L444.53,90.91L452.44,97.31L457.61,98.29L460.09,96.19L463.98,97.81L473.21,97.73L475.7,95.62L479.62,97.53L483.6,97.45L488.83,97.17L491.31,95.41L495.18,97.16L499.23,96.63L504.4,96.8L506.89,94.67L510.78,95.99L514.79,95.57L520,95.59L522.48,94.45L526.37,95.65L530.39,95.27L535.58,94.97L538.11,93.44L542,94.25" style="vector-effect: none; fill: none; stroke: rgb(35, 163, 134); stroke-opacity: 1; stroke-width: 1.5px; opacity: 1;"/></g><g class="points"/><g class="text"/></g><g class="trace scatter trace2042a7" style="stroke-miterlimit: 2; opacity: 1;"><g class="fills"/><g class="errorbars"/><g class="lines"><path class="js-line" d="M0,109.87L5.32,114.77L8.23,114.71L68.97,114.67L70.63,114.67L152.07,113.92L156.07,113.84L208.08,112.75L210.57,112.61L226.18,110.69L230.05,109.76L249.66,104.53L254.86,104.03L261.27,104.09L265.28,103.56L288.57,102.49L292.46,102.64L308.05,101.77L312.05,101.41L343.28,100.42L348.45,100.42L386.01,99.15L390.04,99.14L413.01,98.22L414.69,97.79L422.14,97.98L427,96.97L431.77,89.98L435.63,87.73L442.37,89.7L444.53,88.51L448.38,91.05L452.44,92.83L457.61,95.42L460.09,93.07L463.98,95.09L468.04,95.07L473.21,94.65L475.7,92.69L479.62,94.32L483.6,94.46L488.83,93.88L491.31,92.05L495.18,93.68L499.23,93.14L504.4,93.42L506.89,91.18L510.78,92.36L514.79,92.21L520,92L522.48,90.79L526.37,91.92L530.39,92.01L535.58,91.53L538.11,89.89L542,90.57" style="vector-effect: none; fill: none; stroke: rgb(35, 163, 134); stroke-opacity: 1; stroke-width: 1.5px; opacity: 1;"/></g><g class="points"/><g class="text"/></g><g class="trace scatter tracec6f847" style="stroke-miterlimit: 2; opacity: 1;"><g class="fills"/><g class="errorbars"/><g class="lines"><path class="js-line" d="M0,110.26L5.32,114.55L8.23,114.55L120.9,114.19L124.9,114.09L210.57,112.46L214.44,111.98L226.18,110.45L230.05,109.64L249.66,104.28L254.86,103.83L261.27,103.9L265.28,103.54L292.46,103.41L296.46,103.34L312.05,102.55L317.29,102.5L327.65,102.39L332.84,102.26L343.28,102.16L348.45,102.37L382.12,101.55L386.01,101.54L413.01,100.99L414.69,100.6L422.14,100.58L427,99.46L431.77,92.07L435.63,89.69L442.37,91.46L444.53,90.78L452.44,96.31L457.61,98.84L460.09,96.56L463.98,98.4L473.21,98.24L475.7,96.06L479.62,97.98L483.6,98.1L488.83,97.55L491.31,95.53L495.18,97.27L499.23,96.84L504.4,96.87L506.89,94.64L510.78,95.97L514.79,95.8L520,95.62L522.48,94.26L526.37,95.4L530.39,95.13L535.58,94.95L538.11,93.26L542,94.02" style="vector-effect: none; fill: none; stroke: rgb(35, 163, 134); stroke-opacity: 1; stroke-width: 1.5px; opacity: 1;"/></g><g class="points"/><g class="text"/></g><g class="trace scatter trace1d3b33" style="stroke-miterlimit: 2; opacity: 1;"><g class="fills"/><g class="errorbars"/><g class="lines"><path class="js-line" d="M0,110.57L5.32,115.04L8.23,114.98L52.13,115L54.6,112.54L61.48,114.02L64.84,112.11L68.97,114.72L70.63,114.88L140.49,114.59L145.68,114.45L218.51,112.32L223.69,111.82L241.76,111.36L245.64,111.26L280.86,110.9L286.08,110.94L296.46,110.91L301.68,110.44L304.13,111.03L308.05,110.76L319.73,110.96L323.65,110.86L332.84,110.56L335.33,110.79L348.45,110.46L350.94,110.61L364.04,109.83L366.53,110.13L374.44,109.98L379.67,110.23L386.01,110.36L390.04,110.14L422.14,109.74L427,108.89L435.63,99.06L439.02,99.4L444.53,99.62L448.38,102.58L452.44,107.9L457.61,108.2L460.09,106.74L463.98,108.11L473.21,107.8L475.7,106.77L479.62,107.85L483.6,108.01L488.83,107.62L491.31,106.3L495.18,107.49L499.23,106.73L504.4,107.36L506.89,105.87L510.78,107.02L514.79,106.63L526.37,106.79L530.39,105.97L542,106.19" style="vector-effect: none; fill: none; stroke: rgb(84, 196, 103); stroke-opacity: 1; stroke-width: 1.5px; opacity: 1;"/></g><g class="points"/><g class="text"/></g><g class="trace scatter tracec717f2" style="stroke-miterlimit: 2; opacity: 1;"><g class="fills"/><g class="errorbars"/><g class="lines"><path class="js-line" d="M0,113.49L8.23,114.72L11.71,114.74L20.92,114.24L23.42,113.61L31.32,114.28L36.51,113.72L42.89,114.6L46.9,114.74L101.4,114.53L105.28,114.51L167.68,113.73L171.69,113.57L214.44,112.27L218.51,111.95L239.27,111.05L241.76,111.06L405.63,110.39L413.01,110.24L418.04,110.47L422.14,110.49L427,108.74L431.77,103.39L435.63,100.12L439.02,100.51L442.37,100.78L444.53,99.89L457.61,108.67L460.09,106.77L463.98,108.45L468.04,108.18L473.21,108.21L475.7,106.32L479.62,108.07L483.6,108.5L488.83,108.07L491.31,106.09L495.18,107.99L499.23,107.29L504.4,108.08L506.89,106.08L510.78,107.7L514.79,107.47L520,107.7L522.48,106.32L526.37,107.27L530.39,107.39L535.58,107.58L538.11,106.39L542,107.09" style="vector-effect: none; fill: none; stroke: rgb(84, 196, 103); stroke-opacity: 1; stroke-width: 1.5px; opacity: 1;"/></g><g class="points"/><g class="text"/></g><g class="trace scatter trace6f687a" style="stroke-miterlimit: 2; opacity: 1;"><g class="fills"/><g class="errorbars"/><g class="lines"><path class="js-line" d="M0,109.8L5.32,114.88L8.23,114.85L171.69,113.93L176.89,113.69L202.88,113.05L208.08,112.81L241.76,111L245.64,110.96L270.46,110.66L272.94,110.75L301.68,110.52L304.13,110.72L374.44,110.28L379.67,110.16L395.23,110.05L397.71,109.71L405.63,109.89L413.01,109.77L414.69,110.14L418.04,110.09L427,109.11L431.77,102.83L435.63,99.68L439.02,99.96L442.37,100.57L444.53,100.2L448.38,103.5L452.44,108.28L457.61,108.48L460.09,107.1L463.98,108.16L468.04,108.11L473.21,107.93L475.7,106.71L479.62,107.91L483.6,108.1L488.83,107.53L491.31,106.47L495.18,107.75L499.23,106.91L504.4,107.54L506.89,105.95L510.78,107.08L514.79,106.72L526.37,106.63L530.39,106.41L542,106.27" style="vector-effect: none; fill: none; stroke: rgb(84, 196, 103); stroke-opacity: 1; stroke-width: 1.5px; opacity: 1;"/></g><g class="points"/><g class="text"/></g><g class="trace scatter trace9ba84c" style="stroke-miterlimit: 2; opacity: 1;"><g class="fills"/><g class="errorbars"/><g class="lines"><path class="js-line" d="M0,114.05L31.32,114.44L36.51,114.27L98.91,114.56L101.4,114.51L317.29,113.41L319.73,113.47L427,113.01L431.77,107.48L435.63,109.34L439.02,113.53L491.31,113.6L495.18,113.74L499.23,113.22L504.4,113.73L510.78,113.4L514.79,113.46L538.11,113.65L542,113.36" style="vector-effect: none; fill: none; stroke: rgb(175, 221, 47); stroke-opacity: 1; stroke-width: 1.5px; opacity: 1;"/></g><g class="points"/><g class="text"/></g><g class="trace scatter tracecf2ecf" style="stroke-miterlimit: 2; opacity: 1;"><g class="fills"/><g class="errorbars"/><g class="lines"><path class="js-line" d="M0,114.88L98.91,114.71L101.4,114.7L265.28,113.49L270.46,113.5L358.87,113.51L364.04,113.44L422.14,113.54L427,112.71L431.77,106.53L435.63,106.07L439.02,113.03L442.37,112.92L444.53,112.74L448.38,113.34L463.98,113.16L468.04,113.15L542,113.04" style="vector-effect: none; fill: none; stroke: rgb(175, 221, 47); stroke-opacity: 1; stroke-width: 1.5px; opacity: 1;"/></g><g class="points"/><g class="text"/></g><g class="trace scatter trace3a5c3b" style="stroke-miterlimit: 2; opacity: 1;"><g class="fills"/><g class="errorbars"/><g class="lines"><path class="js-line" d="M0,114.94L5.32,114.43L8.23,114.98L61.48,114.84L64.84,114.25L194.98,113.1L198.89,113.1L257.35,113.56L261.27,113.56L422.14,113.66L427,112.79L431.77,107.26L435.63,109.39L439.02,113.06L442.37,113.13L444.53,112.92L448.38,113.45L463.98,113.16L468.04,113.22L542,113.14" style="vector-effect: none; fill: none; stroke: rgb(175, 221, 47); stroke-opacity: 1; stroke-width: 1.5px; opacity: 1;"/></g><g class="points"/><g class="text"/></g></g></g></g><path class="xlines-above crisp" d="M37.5,464.24999999999994H580.5M37.5,342.22999999999996H580.5" style="fill: none; stroke-width: 0.5px; stroke: rgb(0, 0, 0); stroke-opacity: 1;"/><path class="ylines-above crisp" d="M37.75,342.47999999999996V463.99999999999994M580.25,342.47999999999996V463.99999999999994" style="fill: none; stroke-width: 0.5px; stroke: rgb(0, 0, 0); stroke-opacity: 1;"/><g class="overlines-above"/><g class="xaxislayer-above"><path class="x3tick ticks crisp" d="M0,463.99999999999994v-5" transform="translate(115.98,0)" style="stroke: rgb(0, 0, 0); stroke-opacity: 1; stroke-width: 0.5px;"/><path class="x3tick ticks crisp" d="M0,463.99999999999994v-5" transform="translate(193.96,0)" style="stroke: rgb(0, 0, 0); stroke-opacity: 1; stroke-width: 0.5px;"/><path class="x3tick ticks crisp" d="M0,463.99999999999994v-5" transform="translate(271.94,0)" style="stroke: rgb(0, 0, 0); stroke-opacity: 1; stroke-width: 0.5px;"/><path class="x3tick ticks crisp" d="M0,463.99999999999994v-5" transform="translate(349.92,0)" style="stroke: rgb(0, 0, 0); stroke-opacity: 1; stroke-width: 0.5px;"/><path class="x3tick ticks crisp" d="M0,463.99999999999994v-5" transform="translate(427.9,0)" style="stroke: rgb(0, 0, 0); stroke-opacity: 1; stroke-width: 0.5px;"/><path class="x3tick ticks crisp" d="M0,463.99999999999994v-5" transform="translate(505.88,0)" style="stroke: rgb(0, 0, 0); stroke-opacity: 1; stroke-width: 0.5px;"/><g class="x3tick"><text text-anchor="middle" x="0" y="477.69999999999993" transform="translate(38,0)" style="font-family: 'Open Sans', verdana, arial, sans-serif; font-size: 11px; fill: rgb(0, 0, 0); fill-opacity: 1; white-space: pre; opacity: 1;">0</text></g><g class="x3tick"><text text-anchor="middle" x="0" y="477.69999999999993" style="font-family: 'Open Sans', verdana, arial, sans-serif; font-size: 11px; fill: rgb(0, 0, 0); fill-opacity: 1; white-space: pre; opacity: 1;" transform="translate(115.98,0)">5</text></g><g class="x3tick"><text text-anchor="middle" x="0" y="477.69999999999993" style="font-family: 'Open Sans', verdana, arial, sans-serif; font-size: 11px; fill: rgb(0, 0, 0); fill-opacity: 1; white-space: pre; opacity: 1;" transform="translate(193.96,0)">10</text></g><g class="x3tick"><text text-anchor="middle" x="0" y="477.69999999999993" style="font-family: 'Open Sans', verdana, arial, sans-serif; font-size: 11px; fill: rgb(0, 0, 0); fill-opacity: 1; white-space: pre; opacity: 1;" transform="translate(271.94,0)">15</text></g><g class="x3tick"><text text-anchor="middle" x="0" y="477.69999999999993" style="font-family: 'Open Sans', verdana, arial, sans-serif; font-size: 11px; fill: rgb(0, 0, 0); fill-opacity: 1; white-space: pre; opacity: 1;" transform="translate(349.92,0)">20</text></g><g class="x3tick"><text text-anchor="middle" x="0" y="477.69999999999993" style="font-family: 'Open Sans', verdana, arial, sans-serif; font-size: 11px; fill: rgb(0, 0, 0); fill-opacity: 1; white-space: pre; opacity: 1;" transform="translate(427.9,0)">25</text></g><g class="x3tick"><text text-anchor="middle" x="0" y="477.69999999999993" style="font-family: 'Open Sans', verdana, arial, sans-serif; font-size: 11px; fill: rgb(0, 0, 0); fill-opacity: 1; white-space: pre; opacity: 1;" transform="translate(505.88,0)">30</text></g></g><g class="yaxislayer-above"><path class="y3tick ticks crisp" d="M38,0h5" transform="translate(0,458.03999999999996)" style="stroke: rgb(0, 0, 0); stroke-opacity: 1; stroke-width: 0.5px;"/><path class="y3tick ticks crisp" d="M38,0h5" transform="translate(0,433.34999999999997)" style="stroke: rgb(0, 0, 0); stroke-opacity: 1; stroke-width: 0.5px;"/><path class="y3tick ticks crisp" d="M38,0h5" transform="translate(0,408.66999999999996)" style="stroke: rgb(0, 0, 0); stroke-opacity: 1; stroke-width: 0.5px;"/><path class="y3tick ticks crisp" d="M38,0h5" transform="translate(0,383.98999999999995)" style="stroke: rgb(0, 0, 0); stroke-opacity: 1; stroke-width: 0.5px;"/><path class="y3tick ticks crisp" d="M38,0h5" transform="translate(0,359.30999999999995)" style="stroke: rgb(0, 0, 0); stroke-opacity: 1; stroke-width: 0.5px;"/><g class="y3tick"><text text-anchor="end" x="35.3" y="3.8499999999999996" transform="translate(0,458.03999999999996)" style="font-family: 'Open Sans', verdana, arial, sans-serif; font-size: 11px; fill: rgb(0, 0, 0); fill-opacity: 1; white-space: pre; opacity: 1;">0</text></g><g class="y3tick"><text text-anchor="end" x="35.3" y="3.8499999999999996" style="font-family: 'Open Sans', verdana, arial, sans-serif; font-size: 11px; fill: rgb(0, 0, 0); fill-opacity: 1; white-space: pre; opacity: 1;" transform="translate(0,433.34999999999997)">0.2</text></g><g class="y3tick"><text text-anchor="end" x="35.3" y="3.8499999999999996" style="font-family: 'Open Sans', verdana, arial, sans-serif; font-size: 11px; fill: rgb(0, 0, 0); fill-opacity: 1; white-space: pre; opacity: 1;" transform="translate(0,408.66999999999996)">0.4</text></g><g class="y3tick"><text text-anchor="end" x="35.3" y="3.8499999999999996" style="font-family: 'Open Sans', verdana, arial, sans-serif; font-size: 11px; fill: rgb(0, 0, 0); fill-opacity: 1; white-space: pre; opacity: 1;" transform="translate(0,383.98999999999995)">0.6</text></g><g class="y3tick"><text text-anchor="end" x="35.3" y="3.8499999999999996" style="font-family: 'Open Sans', verdana, arial, sans-serif; font-size: 11px; fill: rgb(0, 0, 0); fill-opacity: 1; white-space: pre; opacity: 1;" transform="translate(0,359.30999999999995)">0.8</text></g></g><g class="overaxes-above"/></g></g><g class="polarlayer"/><g class="smithlayer"/><g class="ternarylayer"/><g class="geolayer"/><g class="funnelarealayer"/><g class="pielayer"/><g class="iciclelayer"/><g class="treemaplayer"/><g class="sunburstlayer"/><g class="glimages"/><defs id="topdefs-75ad99"><g class="clips"/><clipPath id="legend75ad99"><rect width="97" height="250" x="0" y="0"/></clipPath></defs><g class="layer-above"><g class="imagelayer"/><g class="shapelayer"/></g><g class="infolayer"><g class="legend" pointer-events="all" transform="translate(590.84,30)"><rect class="bg" shape-rendering="crispEdges" style="stroke: rgb(68, 68, 68); stroke-opacity: 1; fill: rgb(255, 255, 255); fill-opacity: 1; stroke-width: 0px;" width="97" height="250" x="0" y="0"/><g class="scrollbox" transform="" clip-path="url(#legend75ad99)"><g class="groups" transform=""><g class="traces" transform="translate(0,20.8)" style="opacity: 1;"><text class="legendtext" text-anchor="start" x="40" y="-2.8600000000000003" style="font-family: 'Open Sans', verdana, arial, sans-serif; font-size: 11px; fill: rgb(0, 0, 0); fill-opacity: 1; white-space: pre;"><tspan class="line" dy="0em" x="40" y="-2.8600000000000003">7.5 mM</tspan><tspan class="line" dy="1.3em" x="40" y="-2.8600000000000003">Glucose</tspan></text><g class="layers" style="opacity: 1;"><g class="legendfill"/><g class="legendlines"><path class="js-line" d="M5,0h30" style="fill: none; stroke: rgb(71, 43, 121); stroke-opacity: 1; stroke-width: 1.5px;"/></g><g class="legendsymbols"><g class="legendpoints"/></g></g><rect class="legendtoggle" x="0" y="-15.8" width="91.109375" height="31.6" style="fill: rgb(0, 0, 0); fill-opacity: 0;"/></g></g><g class="groups" transform="translate(0,10)"><g class="traces" transform="translate(0,52.400000000000006)" style="opacity: 1;"><text class="legendtext" text-anchor="start" x="40" y="-2.8600000000000003" style="font-family: 'Open Sans', verdana, arial, sans-serif; font-size: 11px; fill: rgb(0, 0, 0); fill-opacity: 1; white-space: pre;"><tspan class="line" dy="0em" x="40" y="-2.8600000000000003">5 mM</tspan><tspan class="line" dy="1.3em" x="40" y="-2.8600000000000003">Glucose</tspan></text><g class="layers" style="opacity: 1;"><g class="legendfill"/><g class="legendlines"><path class="js-line" d="M5,0h30" style="fill: none; stroke: rgb(56, 87, 139); stroke-opacity: 1; stroke-width: 1.5px;"/></g><g class="legendsymbols"><g class="legendpoints"/></g></g><rect class="legendtoggle" x="0" y="-15.8" width="91.109375" height="31.6" style="fill: rgb(0, 0, 0); fill-opacity: 0;"/></g></g><g class="groups" transform="translate(0,20)"><g class="traces" transform="translate(0,84)" style="opacity: 1;"><text class="legendtext" text-anchor="start" x="40" y="-2.8600000000000003" style="font-family: 'Open Sans', verdana, arial, sans-serif; font-size: 11px; fill: rgb(0, 0, 0); fill-opacity: 1; white-space: pre;"><tspan class="line" dy="0em" x="40" y="-2.8600000000000003">2.5 mM</tspan><tspan class="line" dy="1.3em" x="40" y="-2.8600000000000003">Glucose</tspan></text><g class="layers" style="opacity: 1;"><g class="legendfill"/><g class="legendlines"><path class="js-line" d="M5,0h30" style="fill: none; stroke: rgb(40, 125, 142); stroke-opacity: 1; stroke-width: 1.5px;"/></g><g class="legendsymbols"><g class="legendpoints"/></g></g><rect class="legendtoggle" x="0" y="-15.8" width="91.109375" height="31.6" style="fill: rgb(0, 0, 0); fill-opacity: 0;"/></g></g><g class="groups" transform="translate(0,30)"><g class="traces" transform="translate(0,115.60000000000001)" style="opacity: 1;"><text class="legendtext" text-anchor="start" x="40" y="-2.8600000000000003" style="font-family: 'Open Sans', verdana, arial, sans-serif; font-size: 11px; fill: rgb(0, 0, 0); fill-opacity: 1; white-space: pre;"><tspan class="line" dy="0em" x="40" y="-2.8600000000000003">1.25 mM</tspan><tspan class="line" dy="1.3em" x="40" y="-2.8600000000000003">Glucose</tspan></text><g class="layers" style="opacity: 1;"><g class="legendfill"/><g class="legendlines"><path class="js-line" d="M5,0h30" style="fill: none; stroke: rgb(35, 163, 134); stroke-opacity: 1; stroke-width: 1.5px;"/></g><g class="legendsymbols"><g class="legendpoints"/></g></g><rect class="legendtoggle" x="0" y="-15.8" width="91.109375" height="31.6" style="fill: rgb(0, 0, 0); fill-opacity: 0;"/></g></g><g class="groups" transform="translate(0,40)"><g class="traces" transform="translate(0,147.20000000000002)" style="opacity: 1;"><text class="legendtext" text-anchor="start" x="40" y="-2.8600000000000003" style="font-family: 'Open Sans', verdana, arial, sans-serif; font-size: 11px; fill: rgb(0, 0, 0); fill-opacity: 1; white-space: pre;"><tspan class="line" dy="0em" x="40" y="-2.8600000000000003">0.833 mM</tspan><tspan class="line" dy="1.3em" x="40" y="-2.8600000000000003">Glucose</tspan></text><g class="layers" style="opacity: 1;"><g class="legendfill"/><g class="legendlines"><path class="js-line" d="M5,0h30" style="fill: none; stroke: rgb(84, 196, 103); stroke-opacity: 1; stroke-width: 1.5px;"/></g><g class="legendsymbols"><g class="legendpoints"/></g></g><rect class="legendtoggle" x="0" y="-15.8" width="91.109375" height="31.6" style="fill: rgb(0, 0, 0); fill-opacity: 0;"/></g></g><g class="groups" transform="translate(0,50)"><g class="traces" transform="translate(0,178.8)" style="opacity: 1;"><text class="legendtext" text-anchor="start" x="40" y="-2.8600000000000003" style="font-family: 'Open Sans', verdana, arial, sans-serif; font-size: 11px; fill: rgb(0, 0, 0); fill-opacity: 1; white-space: pre;"><tspan class="line" dy="0em" x="40" y="-2.8600000000000003">0.417 mM</tspan><tspan class="line" dy="1.3em" x="40" y="-2.8600000000000003">Glucose</tspan></text><g class="layers" style="opacity: 1;"><g class="legendfill"/><g class="legendlines"><path class="js-line" d="M5,0h30" style="fill: none; stroke: rgb(175, 221, 47); stroke-opacity: 1; stroke-width: 1.5px;"/></g><g class="legendsymbols"><g class="legendpoints"/></g></g><rect class="legendtoggle" x="0" y="-15.8" width="91.109375" height="31.6" style="fill: rgb(0, 0, 0); fill-opacity: 0;"/></g></g></g><rect class="scrollbar" rx="20" ry="3" width="0" height="0" style="fill: rgb(128, 139, 164); fill-opacity: 1;" x="0" y="0"/></g><g class="g-gtitle"><text class="gtitle" x="35" y="15" text-anchor="start" dy="0em" style="opacity: 1; font-family: 'Open Sans', verdana, arial, sans-serif; font-size: 11px; fill: rgb(0, 0, 0); fill-opacity: 1; white-space: pre;">Growth on Glucose</text></g><g class="g-xtitle"/><g class="g-x2title"/><g class="g-x3title" transform="translate(0,4.550000000000011)"><text class="x3title" x="309" y="488.153125" text-anchor="middle" style="opacity: 1; font-family: 'Open Sans', verdana, arial, sans-serif; font-size: 11px; fill: rgb(0, 0, 0); fill-opacity: 1; white-space: pre;">Time (hours)</text></g><g class="g-ytitle"/><g class="g-y2title"><text class="y2title" transform="rotate(-90,16.18125,247.00000000000003)" x="16.18125" y="247.00000000000003" text-anchor="middle" style="opacity: 1; font-family: 'Open Sans', verdana, arial, sans-serif; font-size: 11px; fill: rgb(0, 0, 0); fill-opacity: 1; white-space: pre;">OD600</text></g><g class="g-y3title"/><g class="annotation" data-index="0" style="opacity: 1;"><g class="annotation-text-g" transform="rotate(0,309,20.5)"><g class="cursor-pointer" transform="translate(302,11)"><rect class="bg" x="0.5" y="0.5" width="14" height="18" style="stroke-width: 1px; stroke: rgb(0, 0, 0); stroke-opacity: 0; fill: rgb(0, 0, 0); fill-opacity: 0;"/><text class="annotation-text" text-anchor="middle" x="7.4375" y="14" style="font-family: 'Open Sans', verdana, arial, sans-serif; font-size: 11px; fill: rgb(0, 0, 0); fill-opacity: 1; white-space: pre;">At</text></g></g></g><g class="annotation" data-index="1" style="opacity: 1;"><g class="annotation-text-g" transform="rotate(0,309,176.74000000000004)"><g class="cursor-pointer" transform="translate(300,167)"><rect class="bg" x="0.5" y="0.5" width="18" height="18" style="stroke-width: 1px; stroke: rgb(0, 0, 0); stroke-opacity: 0; fill: rgb(0, 0, 0); fill-opacity: 0;"/><text class="annotation-text" text-anchor="middle" x="9.34375" y="14" style="font-family: 'Open Sans', verdana, arial, sans-serif; font-size: 11px; fill: rgb(0, 0, 0); fill-opacity: 1; white-space: pre;">Oa</text></g></g></g><g class="annotation" data-index="2" style="opacity: 1;"><g class="annotation-text-g" transform="rotate(0,309,332.97999999999996)"><g class="cursor-pointer" transform="translate(291,323)"><rect class="bg" x="0.5" y="0.5" width="35" height="18" style="stroke-width: 1px; stroke: rgb(0, 0, 0); stroke-opacity: 0; fill: rgb(0, 0, 0); fill-opacity: 0;"/><text class="annotation-text" text-anchor="middle" x="17.921875" y="14" style="font-family: 'Open Sans', verdana, arial, sans-serif; font-size: 11px; fill: rgb(0, 0, 0); fill-opacity: 1; white-space: pre;">At+Oa</text></g></g></g></g></svg>