<svg class="main-svg" xmlns="http://www.w3.org/2000/svg" xmlns:xlink="http://www.w3.org/1999/xlink" width="700" height="500" style="" viewBox="0 0 700 500"><rect x="0" y="0" width="700" height="500" style="fill: rgb(255, 255, 255); fill-opacity: 1;"/><defs id="defs-d03ea2"><g class="clips"><clipPath id="clipd03ea2xyplot" class="plotclip"><rect width="182.57777777777778" height="434"/></clipPath><clipPath id="clipd03ea2x2y2plot" class="plotclip"><rect width="182.57777777777778" height="434"/></clipPath><clipPath id="clipd03ea2x3y3plot" class="plotclip"><rect width="182.57777777777775" height="434"/></clipPath><clipPath class="axesclip" id="clipd03ea2x"><rect x="38" y="0" width="182.57777777777778" height="500"/></clipPath><clipPath class="axesclip" id="clipd03ea2y"><rect x="0" y="30" width="700" height="434"/></clipPath><clipPath class="axesclip" id="clipd03ea2xy"><rect x="38" y="30" width="182.57777777777778" height="434"/></clipPath><clipPath class="axesclip" id="clipd03ea2y2"><rect x="0" y="30" width="700" height="434"/></clipPath><clipPath class="axesclip" id="clipd03ea2xy2"><rect x="38" y="30" width="182.57777777777778" height="434"/></clipPath><clipPath class="axesclip" id="clipd03ea2y3"><rect x="0" y="30" width="700" height="434"/></clipPath><clipPath class="axesclip" id="clipd03ea2xy3"><rect x="38" y="30" width="182.57777777777778" height="434"/></clipPath><clipPath class="axesclip" id="clipd03ea2x2"><rect x="262.7111111111111" y="0" width="182.57777777777778" height="500"/></clipPath><clipPath class="axesclip" id="clipd03ea2x2y"><rect x="262.7111111111111" y="30" width="182.57777777777778" height="434"/></clipPath><clipPath class="axesclip" id="clipd03ea2x2y2"><rect x="262.7111111111111" y="30" width="182.57777777777778" height="434"/></clipPath><clipPath class="axesclip" id="clipd03ea2x2y3"><rect x="262.7111111111111" y="30" width="182.57777777777778" height="434"/></clipPath><clipPath class="axesclip" id="clipd03ea2x3"><rect x="487.4222222222222" y="0" width="182.57777777777775" height="500"/></clipPath><clipPath class="axesclip" id="clipd03ea2x3y"><rect x="487.4222222222222" y="30" width="182.57777777777775" height="434"/></clipPath><clipPath class="axesclip" id="clipd03ea2x3y2"><rect x="487.4222222222222" y="30" width="182.57777777777775" height="434"/></clipPath><clipPath class="axesclip" id="clipd03ea2x3y3"><rect x="487.4222222222222" y="30" width="182.57777777777775" height="434"/></clipPath></g><g class="gradients"/><g class="patterns"/></defs><g class="bglayer"/><g class="layer-below"><g class="imagelayer"/><g class="shapelayer"/></g><g class="cartesianlayer"><g class="subplot xy"><g class="layer-subplot"><g class="shapelayer"/><g class="imagelayer"/></g><g class="minor-gridlayer"><g class="x"/><g class="y"/></g><g class="gridlayer"><g class="x"><path class="xgrid crisp" transform="translate(78.86,0)" d="M0,30v434" style="stroke: rgb(128, 128, 128); stroke-opacity: 1; stroke-width: 0.2px;"/><path class="xgrid crisp" transform="translate(119.72,0)" d="M0,30v434" style="stroke: rgb(128, 128, 128); stroke-opacity: 1; stroke-width: 0.2px;"/><path class="xgrid crisp" transform="translate(160.57999999999998,0)" d="M0,30v434" style="stroke: rgb(128, 128, 128); stroke-opacity: 1; stroke-width: 0.2px;"/><path class="xgrid crisp" transform="translate(201.44,0)" d="M0,30v434" style="stroke: rgb(128, 128, 128); stroke-opacity: 1; stroke-width: 0.2px;"/></g><g class="y"><path class="ygrid crisp" transform="translate(0,443.87)" d="M38,0h182.57777777777778" style="stroke: rgb(128, 128, 128); stroke-opacity: 1; stroke-width: 0.2px;"/><path class="ygrid crisp" transform="translate(0,365.5)" d="M38,0h182.57777777777778" style="stroke: rgb(128, 128, 128); stroke-opacity: 1; stroke-width: 0.2px;"/><path class="ygrid crisp" transform="translate(0,287.14)" d="M38,0h182.57777777777778" style="stroke: rgb(128, 128, 128); stroke-opacity: 1; stroke-width: 0.2px;"/><path class="ygrid crisp" transform="translate(0,208.78)" d="M38,0h182.57777777777778" style="stroke: rgb(128, 128, 128); stroke-opacity: 1; stroke-width: 0.2px;"/><path class="ygrid crisp" transform="translate(0,130.42000000000002)" d="M38,0h182.57777777777778" style="stroke: rgb(128, 128, 128); stroke-opacity: 1; stroke-width: 0.2px;"/><path class="ygrid crisp" transform="translate(0,52.05)" d="M38,0h182.57777777777778" style="stroke: rgb(128, 128, 128); stroke-opacity: 1; stroke-width: 0.2px;"/></g></g><g class="zerolinelayer"/><g class="layer-between"><g class="shapelayer"/><g class="imagelayer"/></g><path class="xlines-below"/><path class="ylines-below"/><g class="overlines-below"/><g class="xaxislayer-below"/><g class="yaxislayer-below"/><g class="overaxes-below"/><g class="overplot"><g class="xy" transform="translate(38,30)" clip-path="url(#clipd03ea2xyplot)"><g class="scatterlayer mlayer"><g class="trace scatter tracee3807c" style="stroke-miterlimit: 2; opacity: 1;"><g class="fills"/><g class="errorbars"/><g class="lines"><path class="js-line" d="M0,411.75L4.1,410.93L6.14,410.89L19.13,409.35L20.44,408.92L24.57,408.66L27.32,407.49L32.22,406.44L33.97,405.89L43.65,402.15L44.96,401.15L49.1,397.14L51.82,394.12L53.13,393.73L55.16,390.65L63.35,378.25L65.45,372.62L69.47,363.48L71.51,363.65L73.61,353.83L76.33,348.87L79.68,336.04L81.78,328.99L84.51,321.07L85.83,319.82L87.86,307.95L89.96,304.76L93.99,296.82L96.03,288.85L98.13,284.79L100.86,273.08L104.21,255.47L106.3,253.86L110.33,233.45L112.36,233.2L117.21,226.65L118.51,222.71L125.37,212.27L126.67,211.87L128.71,209.61L130.81,208.88L134.84,207.89L136.9,207.41L139,207.62L141.71,202.65L143.01,213.41L145.07,217.06L149.9,179.91L151.2,201.22L155.34,144.19L158.07,118.37L159.35,116.48L161.41,102.91L163.51,90.2L166.25,81.22L169.58,68.01L171.68,58.39L174.4,48.68L175.7,66.67L179.87,43.42L182.58,38.9" style="vector-effect: none; fill: none; stroke: rgb(128, 0, 128); stroke-opacity: 1; stroke-width: 1.5px; opacity: 1;"/></g><g class="points"/><g class="text"/></g><g class="trace scatter traceab6495" style="stroke-miterlimit: 2; opacity: 1;"><g class="fills"/><g class="errorbars"/><g class="lines"><path class="js-line" d="M0,412.18L16.41,410.69L19.13,410.13L22.47,410.08L24.57,409.87L33.97,407.3L36.14,406.19L37.01,406.58L38.82,406.31L47.01,402.01L49.1,399.37L57.28,391.35L60,387L65.45,377.64L68.16,372.97L71.51,365.8L73.61,357L77.64,347.61L79.68,338.43L81.78,334L84.51,324.56L85.83,326.17L87.86,310.96L89.96,307.27L92.68,299.84L93.99,300.54L96.03,291.05L98.13,286.36L100.86,275.97L104.21,260.37L106.3,253.47L112.36,231.12L114.49,228.88L120.54,219.59L122.64,214.05L126.67,206.55L128.71,204.68L133.54,200.65L134.84,200.13L139,196.53L141.71,189.21L143.01,199L145.07,200.45L147.17,195.04L149.9,182.3L151.2,195.73L153.24,175.88L158.07,132.75L159.35,130.94L163.51,100.74L166.25,91.13L167.53,83.49L169.58,75.81L175.7,46.72L177.74,42.28L179.87,44.71L182.58,37.96" style="vector-effect: none; fill: none; stroke: rgb(128, 0, 128); stroke-opacity: 1; stroke-width: 1.5px; opacity: 1;"/></g><g class="points"/><g class="text"/></g><g class="trace scatter trace841f56" style="stroke-miterlimit: 2; opacity: 1;"><g class="fills"/><g class="errorbars"/><g class="lines"><path class="js-line" d="M0,411.87L24.57,409.24L27.32,408.36L33.97,406.32L36.14,405.48L40.93,403.77L43.65,402L51.82,392.75L53.13,392.24L57.28,386.14L60,381.09L61.31,379.37L63.35,374.33L69.47,358.5L71.51,356.64L76.33,334.33L77.64,331.12L84.51,307.44L85.83,305.44L89.96,292.54L92.68,286.71L96.03,275.49L98.13,272.72L106.3,245.71L109.03,234.72L110.33,232.71L112.36,231.56L117.21,226.61L118.51,224.24L120.54,220.92L122.64,215.07L133.54,196.5L134.84,196.29L136.9,191.46L139,184.58L141.71,178.01L143.01,185.79L145.07,182.66L147.17,174.19L149.9,170L151.2,171.56L159.35,113.5L161.41,100.91L166.25,78.71L167.53,72.6L175.7,35.83L177.74,41.54L179.87,22.22L182.58,21.7" style="vector-effect: none; fill: none; stroke: rgb(128, 0, 128); stroke-opacity: 1; stroke-width: 1.5px; opacity: 1;"/></g><g class="points"/><g class="text"/></g><g class="trace scatter trace711f9a" style="stroke-miterlimit: 2; opacity: 1;"><g class="fills"/><g class="errorbars"/><g class="lines"><path class="js-line" d="M0,411.67L20.44,409.35L22.47,409.37L28.61,408.02L32.22,407.3L40.93,405.34L43.65,403.68L53.13,393.92L55.16,391.16L61.31,380.67L63.35,376.57L69.47,361.99L71.51,359.77L73.61,352.22L76.33,347.57L79.68,337.65L81.78,328.71L84.51,318.49L85.83,318.49L87.86,305.24L89.96,301.27L93.99,286.71L96.03,283.68L98.13,280.72L100.86,279.97L104.21,277.25L106.3,273.92L109.03,274.02L110.33,273.22L112.36,272.38L114.49,270.57L117.21,270.45L118.51,268.67L122.64,265.42L125.37,262.38L128.71,256.55L130.81,255.04L133.54,250.3L134.84,249.7L139,243.43L141.71,235.84L143.01,246.21L145.07,252.67L147.17,222.58L149.9,204.52L151.2,203.88L153.24,180.07L155.34,161.71L158.07,152.97L159.35,139.36L161.41,139.27L163.51,141.73L166.25,142.73L169.58,145.2L171.68,147.09L177.74,152.23L179.87,152.38L182.58,152.57" style="vector-effect: none; fill: none; stroke: rgb(128, 0, 128); stroke-opacity: 1; stroke-width: 1.5px; opacity: 1;"/></g><g class="points"/><g class="text"/></g><g class="trace scatter trace9473d1" style="stroke-miterlimit: 2; opacity: 1;"><g class="fills"/><g class="errorbars"/><g class="lines"><path class="js-line" d="M0,409.95L8.24,409.26L10.97,408.96L28.61,407.31L32.22,406.67L38.82,405.72L40.93,405.1L47.01,401.58L49.1,399.06L57.28,389.94L60,385.47L63.35,379.19L65.45,375.95L73.61,357.67L76.33,351.37L77.64,349.88L79.68,343.29L81.78,339.53L84.51,327.69L85.83,325.74L87.86,310.92L89.96,305.62L92.68,293.21L93.99,300.54L96.03,284.58L98.13,282.2L100.86,281.97L102.16,282.24L104.21,281.37L106.3,277.1L109.03,276.8L110.33,274.16L112.36,274.15L114.49,272.13L117.21,272.53L118.51,269.34L120.54,269.39L122.64,267.26L125.37,265.59L128.71,260.12L130.81,258.37L136.9,247.84L139,245.03L141.71,234.86L143.01,245.31L145.07,251.38L147.17,233.75L149.9,218.63L151.2,221.67L158.07,160.3L159.35,160.56L161.41,147.11L163.51,141.84L169.58,142.5L171.68,145.29L175.7,148.01L177.74,150.93L182.58,153.19" style="vector-effect: none; fill: none; stroke: rgb(128, 0, 128); stroke-opacity: 1; stroke-width: 1.5px; opacity: 1;"/></g><g class="points"/><g class="text"/></g><g class="trace scatter traced563fd" style="stroke-miterlimit: 2; opacity: 1;"><g class="fills"/><g class="errorbars"/><g class="lines"><path class="js-line" d="M0,407.6L8.24,407.42L10.97,407.15L16.41,406.7L19.13,406.25L32.22,404.2L33.97,403.69L36.14,406.03L37.01,405.84L40.93,404.83L43.65,403.09L47.01,399.97L49.1,397.33L55.16,390.53L57.28,386.96L68.16,365.22L69.47,361.21L71.51,358.95L73.61,347.72L76.33,340.52L77.64,339.3L84.51,309.71L85.83,313.08L87.86,296.7L89.96,290.42L93.99,276.25L96.03,274.59L100.86,271.9L102.16,271.78L104.21,270.36L106.3,266.87L109.03,265.59L110.33,263.38L112.36,262.67L114.49,260.54L118.51,257.94L120.54,256.66L122.64,252.96L125.37,251.45L130.81,242.58L133.54,240.27L134.84,238.3L136.9,231.5L139,227.25L141.71,230.94L143.01,230.58L145.07,241L147.17,218.78L149.9,201.9L151.2,203.68L153.24,187.87L155.34,175.23L158.07,148.86L159.35,157.93L161.41,125.6L167.53,123.1L169.58,124.24L177.74,125.97L179.87,124.64L182.58,124.39" style="vector-effect: none; fill: none; stroke: rgb(128, 0, 128); stroke-opacity: 1; stroke-width: 1.5px; opacity: 1;"/></g><g class="points"/><g class="text"/></g><g class="trace scatter trace5f59bc" style="stroke-miterlimit: 2; opacity: 1;"><g class="fills"/><g class="errorbars"/><g class="lines"><path class="js-line" d="M0,411.87L16.41,411.12L19.13,410.84L28.61,409.62L32.22,409.06L37.01,407.72L38.82,408.42L43.65,407.4L44.96,406.71L47.01,406.36L49.1,404.5L55.16,399.46L57.28,395.94L63.35,383.27L65.45,377.6L69.47,368.42L71.51,367.33L73.61,356.3L76.33,348.24L77.64,345.38L79.68,344.07L81.78,342.54L84.51,341.96L87.86,340.58L89.96,340.77L92.68,341.21L93.99,342.47L98.13,342.43L100.86,341.49L109.03,337.29L110.33,335.4L112.36,334.05L114.49,330.48L118.51,325.76L120.54,323.27L134.84,293.31L136.9,290.75L139,272.19L141.71,269.73L143.01,273.95L145.07,277.79L147.17,277.67L149.9,278.77L151.2,280.64L153.24,280.57L155.34,281.37L158.07,281.09L159.35,282.14L161.41,282.28L166.25,283.12L167.53,284.69L169.58,284.84L171.68,283.33L175.7,285.46L177.74,285.33L179.87,283.41L182.58,284.84" style="vector-effect: none; fill: none; stroke: rgb(128, 0, 128); stroke-opacity: 1; stroke-width: 1.5px; opacity: 1;"/></g><g class="points"/><g class="text"/></g><g class="trace scatter trace26128a" style="stroke-miterlimit: 2; opacity: 1;"><g class="fills"/><g class="errorbars"/><g class="lines"><path class="js-line" d="M0,410.73L4.1,411.28L6.14,411.44L19.13,410.8L20.44,410.37L27.32,410L28.61,409.74L36.14,408.89L37.01,408.26L38.82,408.7L40.93,408.43L43.65,407.44L44.96,406L47.01,405.18L49.1,402.66L55.16,395.82L57.28,392.49L68.16,368.98L69.47,365.91L71.51,360.04L73.61,358.1L77.64,340.87L79.68,342.5L81.78,341.64L84.51,339.21L85.83,341.17L87.86,341.76L89.96,340.06L92.68,342.35L93.99,343.33L96.03,343.59L98.13,342.39L100.86,342.9L109.03,340.23L110.33,338.65L112.36,337.03L114.49,333.96L120.54,327.07L122.64,323.02L126.67,316.1L128.71,311.92L136.9,293.18L139,291.74L141.71,270.55L143.01,274.69L145.07,278.14L147.17,277.79L151.2,281.26L153.24,282.73L158.07,284.19L159.35,284.06L161.41,285.03L163.51,284.82L166.25,285.2L167.53,286.21L169.58,286.33L171.68,285.52L175.7,286.28L177.74,286.38L179.87,286.03L182.58,287.23" style="vector-effect: none; fill: none; stroke: rgb(128, 0, 128); stroke-opacity: 1; stroke-width: 1.5px; opacity: 1;"/></g><g class="points"/><g class="text"/></g><g class="trace scatter tracefee725" style="stroke-miterlimit: 2; opacity: 1;"><g class="fills"/><g class="errorbars"/><g class="lines"><path class="js-line" d="M0,412.3L10.97,411.66L12.27,411.74L24.57,410.77L27.32,410.08L33.97,408.55L36.14,408.15L37.01,407.87L38.82,408.11L44.96,406.2L47.01,404.28L55.16,396.48L57.28,392.68L69.47,366.61L71.51,368.55L73.61,355.28L76.33,343.22L77.64,342.99L79.68,341.41L81.78,340.11L84.51,340L85.83,338.7L87.86,338.31L93.99,336.31L96.03,335.71L98.13,334.55L100.86,334.04L102.16,334.59L104.21,334.46L110.33,331.95L112.36,330.33L117.21,324.68L118.51,323.65L120.54,321.03L122.64,316.91L128.71,305.61L130.81,299.63L139,279.83L141.71,263.38L143.01,264.35L145.07,267.52L147.17,265.13L149.9,266.51L151.2,268.3L153.24,268.15L159.35,269.33L161.41,269.47L163.51,271.3L166.25,270.78L167.53,271.99L169.58,272.15L171.68,271.38L174.4,272.61L182.58,272.03" style="vector-effect: none; fill: none; stroke: rgb(128, 0, 128); stroke-opacity: 1; stroke-width: 1.5px; opacity: 1;"/></g><g class="points"/><g class="text"/></g><g class="trace scatter trace548067" style="stroke-miterlimit: 2; opacity: 1;"><g class="fills"/><g class="errorbars"/><g class="lines"><path class="js-line" d="M0,410.59L2.79,408.9L4.1,409.7L6.14,407.65L8.24,407.83L14.3,406.87L16.41,409.03L20.44,409.48L22.47,409.48L27.32,409.32L28.61,408.46L47.01,404.5L49.1,403.65L55.16,399.45L57.28,396.13L61.31,388.43L63.35,386.48L65.45,384.99L68.16,384.6L69.47,384.79L71.51,383.03L73.61,382.48L76.33,380.73L77.64,381.05L79.68,379.11L84.51,377.01L85.83,376.81L87.86,374.89L89.96,375.26L98.13,371.15L100.86,367.92L106.3,362.79L109.03,358.44L112.36,353.85L114.49,350.01L117.21,346.5L118.51,346.1L120.54,340.22L122.64,339.98L126.67,343.3L128.71,343.46L130.81,344.23L133.54,343.38L136.9,343.6L139,343.46L143.01,343.47L145.07,344.07L151.2,344.22L153.24,344.32L169.58,344.57L171.68,344.35L175.7,344.63L177.74,344.48L182.58,345.47" style="vector-effect: none; fill: none; stroke: rgb(128, 0, 128); stroke-opacity: 1; stroke-width: 1.5px; opacity: 1;"/></g><g class="points"/><g class="text"/></g><g class="trace scatter trace45cda7" style="stroke-miterlimit: 2; opacity: 1;"><g class="fills"/><g class="errorbars"/><g class="lines"><path class="js-line" d="M0,411.96L6.14,411.49L8.24,411.99L14.3,410.75L16.41,410.37L27.32,409.32L28.61,408.81L38.82,406.61L40.93,405.85L49.1,403.54L51.82,401.93L53.13,401.66L55.16,400.35L60,394.34L61.31,391.56L65.45,384.44L68.16,383.93L69.47,384.13L71.51,382.44L73.61,382.48L76.33,381.4L77.64,381.48L79.68,380.17L81.78,379.06L84.51,378.73L87.86,377.13L89.96,377.06L98.13,374.48L100.86,372.43L106.3,367.61L109.03,363.88L114.49,356.32L117.21,352.69L120.54,347.55L122.64,340.81L126.67,340.68L128.71,341.58L130.81,343.33L133.54,342.99L139,343.3L141.71,343.34L143.01,342.88L145.07,343.48L166.25,344.86L167.53,343.89L174.4,344.8L175.7,344.09L182.58,345.16" style="vector-effect: none; fill: none; stroke: rgb(128, 0, 128); stroke-opacity: 1; stroke-width: 1.5px; opacity: 1;"/></g><g class="points"/><g class="text"/></g><g class="trace scatter traceb1a7c3" style="stroke-miterlimit: 2; opacity: 1;"><g class="fills"/><g class="errorbars"/><g class="lines"><path class="js-line" d="M0,411.22L8.24,411.67L10.97,410.86L19.13,410.33L20.44,410.26L32.22,408.45L33.97,407.26L43.65,404.86L44.96,404.56L49.1,402.48L51.82,400.79L55.16,398.27L57.28,395.62L63.35,386.05L65.45,384.4L69.47,384.09L71.51,382.29L73.61,382.21L76.33,381.12L77.64,381.12L79.68,380.17L81.78,378.87L84.51,378.54L87.86,376.62L89.96,377.26L98.13,373.38L100.86,371.02L106.3,366.78L109.03,362.36L110.33,361.51L112.36,357.85L118.51,349.94L120.54,346.64L122.64,338.85L125.37,341.24L130.81,343.52L133.54,343.42L151.2,343.24L153.24,344.05L159.35,343.92L161.41,343.5L166.25,344.46L167.53,343.58L179.87,344.28L182.58,345.04" style="vector-effect: none; fill: none; stroke: rgb(128, 0, 128); stroke-opacity: 1; stroke-width: 1.5px; opacity: 1;"/></g><g class="points"/><g class="text"/></g><g class="trace scatter tracee92793" style="stroke-miterlimit: 2; opacity: 1;"><g class="fills"/><g class="errorbars"/><g class="lines"><path class="js-line" d="M0,411.22L6.14,410.51L8.24,411.4L12.27,410.51L14.3,410.59L32.22,408.02L33.97,407.73L37.01,406.98L38.82,406.72L49.1,403.38L51.82,401.34L61.31,399.94L63.35,399.68L68.16,398.31L69.47,398.51L77.64,397.42L79.68,396.08L85.83,393.07L87.86,391.35L89.96,390.89L92.68,388.1L93.99,386.49L96.03,385.38L98.13,382.31L100.86,380.77L109.03,371.88L110.33,371.81L114.49,372.03L117.21,372.83L118.51,373.05L120.54,372.62L122.64,371.96L125.37,372.07L128.71,371.71L130.81,372.71L139,372.06L141.71,372.02L166.25,373.38L167.53,372.61L182.58,373.25" style="vector-effect: none; fill: none; stroke: rgb(128, 0, 128); stroke-opacity: 1; stroke-width: 1.5px; opacity: 1;"/></g><g class="points"/><g class="text"/></g><g class="trace scatter tracecaa0ba" style="stroke-miterlimit: 2; opacity: 1;"><g class="fills"/><g class="errorbars"/><g class="lines"><path class="js-line" d="M0,411.84L6.14,411.49L8.24,412.03L16.41,410.48L19.13,410.64L22.47,410.11L24.57,406.31L27.32,408.81L28.61,408.58L36.14,407.79L37.01,407.45L49.1,403.93L51.82,401.77L68.16,398.82L69.47,398.98L79.68,396.9L81.78,396.07L84.51,395.23L85.83,393.86L89.96,392.3L92.68,389.51L96.03,386.48L98.13,383.68L102.16,380.77L104.21,378.68L106.3,377.68L109.03,374.07L110.33,372.09L112.36,371.68L128.71,371.16L130.81,372.17L133.54,371.16L134.84,371.69L139,371.47L141.71,371.59L151.2,371.41L153.24,371.86L166.25,372.87L167.53,371.94L182.58,372.66" style="vector-effect: none; fill: none; stroke: rgb(128, 0, 128); stroke-opacity: 1; stroke-width: 1.5px; opacity: 1;"/></g><g class="points"/><g class="text"/></g><g class="trace scatter tracee2fc67" style="stroke-miterlimit: 2; opacity: 1;"><g class="fills"/><g class="errorbars"/><g class="lines"><path class="js-line" d="M0,410.9L10.97,410.39L12.27,410.16L22.47,409.48L24.57,409.09L27.32,409.05L28.61,408.26L38.82,406.49L40.93,405.73L47.01,403.84L49.1,402.79L55.16,398.94L57.28,398.83L63.35,398.59L65.45,397.65L73.61,396.82L76.33,396.21L77.64,396.68L79.68,395.45L84.51,394.25L85.83,392.76L89.96,390.93L92.68,388.57L98.13,382.9L100.86,379.99L104.21,377.04L106.3,376.31L110.33,371.34L112.36,368.7L118.51,368.7L120.54,368.43L128.71,367.55L130.81,368.09L136.9,367.82L139,368.26L147.17,368.13L149.9,368.35L153.24,368.5L155.34,368.68L161.41,368.69L163.51,368.85L166.25,369.81L167.53,368.57L182.58,369.76" style="vector-effect: none; fill: none; stroke: rgb(128, 0, 128); stroke-opacity: 1; stroke-width: 1.5px; opacity: 1;"/></g><g class="points"/><g class="text"/></g><g class="trace scatter trace5ec7da" style="stroke-miterlimit: 2; opacity: 1;"><g class="fills"/><g class="errorbars"/><g class="lines"><path class="js-line" d="M0,410.86L4.1,410.84L6.14,410.59L8.24,411.05L10.97,410.59L22.47,409.56L24.57,408.89L28.61,408.38L32.22,407.82L38.82,406.33L40.93,406.28L44.96,406L47.01,406.23L60,406.76L61.31,406.84L68.16,407.01L69.47,407.4L77.64,406.63L79.68,405.56L81.78,404.76L84.51,404.56L89.96,402.18L92.68,401.42L93.99,400.64L96.03,400.35L98.13,400.96L100.86,400.56L104.21,399.88L106.3,400.72L112.36,400.01L114.49,400.13L125.37,400.13L126.67,399.76L130.81,400.45L133.54,399.68L134.84,400.1L136.9,399.79L163.51,399.02L166.25,399.87L167.53,398.9L169.58,398.91L179.87,399.06L182.58,399.42" style="vector-effect: none; fill: none; stroke: rgb(128, 0, 128); stroke-opacity: 1; stroke-width: 1.5px; opacity: 1;"/></g><g class="points"/><g class="text"/></g><g class="trace scatter tracef0139c" style="stroke-miterlimit: 2; opacity: 1;"><g class="fills"/><g class="errorbars"/><g class="lines"><path class="js-line" d="M0,411.06L10.97,410.86L12.27,410.51L19.13,409.94L20.44,409.67L28.61,408.42L32.22,407.15L38.82,404.8L40.93,404.05L44.96,406.36L47.01,406.62L68.16,406.78L69.47,407.36L76.33,406.48L77.64,407.34L81.78,405.59L84.51,405.81L85.83,404.95L87.86,404.67L93.99,402.09L96.03,400.58L98.13,401.59L100.86,401.69L104.21,401.33L106.3,401.54L109.03,401.54L110.33,399.44L117.21,401.36L118.51,401.26L120.54,400.72L122.64,401.15L134.84,401.32L136.9,400.41L159.35,401.43L161.41,401.09L169.58,400.87L171.68,400.77L175.7,400.9L177.74,400.7L182.58,401.19" style="vector-effect: none; fill: none; stroke: rgb(128, 0, 128); stroke-opacity: 1; stroke-width: 1.5px; opacity: 1;"/></g><g class="points"/><g class="text"/></g><g class="trace scatter trace103cf3" style="stroke-miterlimit: 2; opacity: 1;"><g class="fills"/><g class="errorbars"/><g class="lines"><path class="js-line" d="M0,411.18L14.3,410.24L16.41,410.09L27.32,409.17L28.61,408.5L37.01,407.26L38.82,406.49L44.96,406.24L47.01,406.38L61.31,406.84L63.35,406.89L68.16,406.85L69.47,407.48L73.61,406.7L76.33,406.4L77.64,406.98L79.68,405.99L87.86,404.16L89.96,403.2L104.21,401.05L106.3,401.58L110.33,400.77L112.36,400.72L122.64,400.64L125.37,400.68L128.71,400.51L130.81,401.08L136.9,400.53L139,400.51L166.25,401.16L167.53,400.51L182.58,400.68" style="vector-effect: none; fill: none; stroke: rgb(128, 0, 128); stroke-opacity: 1; stroke-width: 1.5px; opacity: 1;"/></g><g class="points"/><g class="text"/></g></g></g></g><path class="xlines-above crisp" d="M37.5,464.25H221.07777777777778M37.5,29.75H221.07777777777778" style="fill: none; stroke-width: 0.5px; stroke: rgb(0, 0, 0); stroke-opacity: 1;"/><path class="ylines-above crisp" d="M37.75,30V464M220.82777777777778,30V464" style="fill: none; stroke-width: 0.5px; stroke: rgb(0, 0, 0); stroke-opacity: 1;"/><g class="overlines-above"/><g class="xaxislayer-above"><path class="xtick ticks crisp" d="M0,464v-5" transform="translate(78.86,0)" style="stroke: rgb(0, 0, 0); stroke-opacity: 1; stroke-width: 0.5px;"/><path class="xtick ticks crisp" d="M0,464v-5" transform="translate(119.72,0)" style="stroke: rgb(0, 0, 0); stroke-opacity: 1; stroke-width: 0.5px;"/><path class="xtick ticks crisp" d="M0,464v-5" transform="translate(160.57999999999998,0)" style="stroke: rgb(0, 0, 0); stroke-opacity: 1; stroke-width: 0.5px;"/><path class="xtick ticks crisp" d="M0,464v-5" transform="translate(201.44,0)" style="stroke: rgb(0, 0, 0); stroke-opacity: 1; stroke-width: 0.5px;"/><g class="xtick"><text text-anchor="middle" x="0" y="477.7" transform="translate(38,0)" style="font-family: 'Open Sans', verdana, arial, sans-serif; font-size: 11px; fill: rgb(0, 0, 0); fill-opacity: 1; white-space: pre; opacity: 1;">0</text></g><g class="xtick"><text text-anchor="middle" x="0" y="477.7" style="font-family: 'Open Sans', verdana, arial, sans-serif; font-size: 11px; fill: rgb(0, 0, 0); fill-opacity: 1; white-space: pre; opacity: 1;" transform="translate(78.86,0)">5</text></g><g class="xtick"><text text-anchor="middle" x="0" y="477.7" style="font-family: 'Open Sans', verdana, arial, sans-serif; font-size: 11px; fill: rgb(0, 0, 0); fill-opacity: 1; white-space: pre; opacity: 1;" transform="translate(119.72,0)">10</text></g><g class="xtick"><text text-anchor="middle" x="0" y="477.7" style="font-family: 'Open Sans', verdana, arial, sans-serif; font-size: 11px; fill: rgb(0, 0, 0); fill-opacity: 1; white-space: pre; opacity: 1;" transform="translate(160.57999999999998,0)">15</text></g><g class="xtick"><text text-anchor="middle" x="0" y="477.7" style="font-family: 'Open Sans', verdana, arial, sans-serif; font-size: 11px; fill: rgb(0, 0, 0); fill-opacity: 1; white-space: pre; opacity: 1;" transform="translate(201.44,0)">20</text></g></g><g class="yaxislayer-above"><path class="ytick ticks crisp" d="M38,0h5" transform="translate(0,443.87)" style="stroke: rgb(0, 0, 0); stroke-opacity: 1; stroke-width: 0.5px;"/><path class="ytick ticks crisp" d="M38,0h5" transform="translate(0,365.5)" style="stroke: rgb(0, 0, 0); stroke-opacity: 1; stroke-width: 0.5px;"/><path class="ytick ticks crisp" d="M38,0h5" transform="translate(0,287.14)" style="stroke: rgb(0, 0, 0); stroke-opacity: 1; stroke-width: 0.5px;"/><path class="ytick ticks crisp" d="M38,0h5" transform="translate(0,208.78)" style="stroke: rgb(0, 0, 0); stroke-opacity: 1; stroke-width: 0.5px;"/><path class="ytick ticks crisp" d="M38,0h5" transform="translate(0,130.42000000000002)" style="stroke: rgb(0, 0, 0); stroke-opacity: 1; stroke-width: 0.5px;"/><path class="ytick ticks crisp" d="M38,0h5" transform="translate(0,52.05)" style="stroke: rgb(0, 0, 0); stroke-opacity: 1; stroke-width: 0.5px;"/><g class="ytick"><text text-anchor="end" x="35.3" y="3.8499999999999996" transform="translate(0,443.87)" style="font-family: 'Open Sans', verdana, arial, sans-serif; font-size: 11px; fill: rgb(0, 0, 0); fill-opacity: 1; white-space: pre; opacity: 1;">0</text></g><g class="ytick"><text text-anchor="end" x="35.3" y="3.8499999999999996" style="font-family: 'Open Sans', verdana, arial, sans-serif; font-size: 11px; fill: rgb(0, 0, 0); fill-opacity: 1; white-space: pre; opacity: 1;" transform="translate(0,365.5)">0.2</text></g><g class="ytick"><text text-anchor="end" x="35.3" y="3.8499999999999996" style="font-family: 'Open Sans', verdana, arial, sans-serif; font-size: 11px; fill: rgb(0, 0, 0); fill-opacity: 1; white-space: pre; opacity: 1;" transform="translate(0,287.14)">0.4</text></g><g class="ytick"><text text-anchor="end" x="35.3" y="3.8499999999999996" style="font-family: 'Open Sans', verdana, arial, sans-serif; font-size: 11px; fill: rgb(0, 0, 0); fill-opacity: 1; white-space: pre; opacity: 1;" transform="translate(0,208.78)">0.6</text></g><g class="ytick"><text text-anchor="end" x="35.3" y="3.8499999999999996" style="font-family: 'Open Sans', verdana, arial, sans-serif; font-size: 11px; fill: rgb(0, 0, 0); fill-opacity: 1; white-space: pre; opacity: 1;" transform="translate(0,130.42000000000002)">0.8</text></g><g class="ytick"><text text-anchor="end" x="35.3" y="3.8499999999999996" style="font-family: 'Open Sans', verdana, arial, sans-serif; font-size: 11px; fill: rgb(0, 0, 0); fill-opacity: 1; white-space: pre; opacity: 1;" transform="translate(0,52.05)">1</text></g></g><g class="overaxes-above"/></g><g class="subplot x2y2"><g class="layer-subplot"><g class="shapelayer"/><g class="imagelayer"/></g><g class="minor-gridlayer"><g class="x2"/><g class="y2"/></g><g class="gridlayer"><g class="x2"><path class="x2grid crisp" transform="translate(303.5711111111111,0)" d="M0,30v434" style="stroke: rgb(128, 128, 128); stroke-opacity: 1; stroke-width: 0.2px;"/><path class="x2grid crisp" transform="translate(344.43111111111114,0)" d="M0,30v434" style="stroke: rgb(128, 128, 128); stroke-opacity: 1; stroke-width: 0.2px;"/><path class="x2grid crisp" transform="translate(385.2911111111111,0)" d="M0,30v434" style="stroke: rgb(128, 128, 128); stroke-opacity: 1; stroke-width: 0.2px;"/><path class="x2grid crisp" transform="translate(426.1511111111111,0)" d="M0,30v434" style="stroke: rgb(128, 128, 128); stroke-opacity: 1; stroke-width: 0.2px;"/></g><g class="y2"><path class="y2grid crisp" transform="translate(0,442.52)" d="M262.7111111111111,0h182.57777777777778" style="stroke: rgb(128, 128, 128); stroke-opacity: 1; stroke-width: 0.2px;"/><path class="y2grid crisp" transform="translate(0,398.69)" d="M262.7111111111111,0h182.57777777777778" style="stroke: rgb(128, 128, 128); stroke-opacity: 1; stroke-width: 0.2px;"/><path class="y2grid crisp" transform="translate(0,354.85)" d="M262.7111111111111,0h182.57777777777778" style="stroke: rgb(128, 128, 128); stroke-opacity: 1; stroke-width: 0.2px;"/><path class="y2grid crisp" transform="translate(0,311.02)" d="M262.7111111111111,0h182.57777777777778" style="stroke: rgb(128, 128, 128); stroke-opacity: 1; stroke-width: 0.2px;"/><path class="y2grid crisp" transform="translate(0,267.19)" d="M262.7111111111111,0h182.57777777777778" style="stroke: rgb(128, 128, 128); stroke-opacity: 1; stroke-width: 0.2px;"/><path class="y2grid crisp" transform="translate(0,223.35)" d="M262.7111111111111,0h182.57777777777778" style="stroke: rgb(128, 128, 128); stroke-opacity: 1; stroke-width: 0.2px;"/><path class="y2grid crisp" transform="translate(0,179.52)" d="M262.7111111111111,0h182.57777777777778" style="stroke: rgb(128, 128, 128); stroke-opacity: 1; stroke-width: 0.2px;"/><path class="y2grid crisp" transform="translate(0,135.68)" d="M262.7111111111111,0h182.57777777777778" style="stroke: rgb(128, 128, 128); stroke-opacity: 1; stroke-width: 0.2px;"/><path class="y2grid crisp" transform="translate(0,91.85)" d="M262.7111111111111,0h182.57777777777778" style="stroke: rgb(128, 128, 128); stroke-opacity: 1; stroke-width: 0.2px;"/><path class="y2grid crisp" transform="translate(0,48.019999999999996)" d="M262.7111111111111,0h182.57777777777778" style="stroke: rgb(128, 128, 128); stroke-opacity: 1; stroke-width: 0.2px;"/></g></g><g class="zerolinelayer"/><g class="layer-between"><g class="shapelayer"/><g class="imagelayer"/></g><path class="xlines-below"/><path class="ylines-below"/><g class="overlines-below"/><g class="xaxislayer-below"/><g class="yaxislayer-below"/><g class="overaxes-below"/><g class="overplot"><g class="x2y2" transform="translate(262.7111111111111,30)" clip-path="url(#clipd03ea2x2y2plot)"><g class="scatterlayer mlayer"><g class="trace scatter tracea3c1c8" style="stroke-miterlimit: 2; opacity: 1;"><g class="fills"/><g class="errorbars"/><g class="lines"><path class="js-line" d="M0,410.81L37.01,409.36L38.82,409.85L43.65,410.11L44.96,409.55L47.01,409.64L49.1,408.71L53.13,408.18L55.16,407.76L65.45,404.73L68.16,403.64L77.64,398.4L79.68,396.68L87.86,386.47L89.96,384.35L92.68,379.19L93.99,378.45L100.86,363.72L102.16,358.76L109.03,339.35L110.33,332.93L120.54,288.41L122.64,282.13L125.37,272.81L126.67,264.87L128.71,257.17L130.81,245.44L136.9,218.85L139,202.91L141.71,182.67L143.01,160.26L145.07,137.99L147.17,124.93L151.2,79.15L153.24,94.11L155.34,44.33L158.07,32.23L159.35,21.7L161.41,22.12L163.51,35.13L166.25,36.6L167.53,46.99L169.58,72.42L171.68,97.28L174.4,110.75L177.74,135.64L179.87,133.14L182.58,124.36" style="vector-effect: none; fill: none; stroke: rgb(128, 0, 128); stroke-opacity: 1; stroke-width: 1.5px; opacity: 1;"/></g><g class="points"/><g class="text"/></g><g class="trace scatter trace21eb35" style="stroke-miterlimit: 2; opacity: 1;"><g class="fills"/><g class="errorbars"/><g class="lines"><path class="js-line" d="M0,410.81L37.01,409.28L38.82,409.8L47.01,409.47L49.1,408.35L65.45,404.91L68.16,403.85L71.51,401.97L73.61,401.46L81.78,394.31L84.51,390.98L89.96,384.57L92.68,379.41L93.99,378.8L96.03,374.49L100.86,361.7L102.16,355.83L109.03,339.04L110.33,332.54L114.49,314.58L117.21,305.24L120.54,289.33L122.64,281.73L125.37,271.97L126.67,264.44L128.71,259.8L130.81,250L139,212.07L141.71,191.66L147.17,138.3L149.9,100.25L151.2,92.56L153.24,67.37L155.34,65.46L158.07,64.93L159.35,74.08L161.41,83.01L163.51,95.79L166.25,129.62L167.53,144.08L169.58,147.55L171.68,147.91L174.4,142.01L175.7,136.4L177.74,135.33L182.58,119.76" style="vector-effect: none; fill: none; stroke: rgb(128, 0, 128); stroke-opacity: 1; stroke-width: 1.5px; opacity: 1;"/></g><g class="points"/><g class="text"/></g><g class="trace scatter trace0bc916" style="stroke-miterlimit: 2; opacity: 1;"><g class="fills"/><g class="errorbars"/><g class="lines"><path class="js-line" d="M0,410.5L12.27,410.09L14.3,409.93L24.57,409.41L27.32,409.16L32.22,409.07L33.97,409.11L38.82,409.63L40.93,409.73L47.01,409.42L49.1,408.35L63.35,405.64L65.45,404.95L71.51,402.54L73.61,401.68L79.68,397.43L81.78,395.19L89.96,385.84L92.68,380.77L93.99,380.2L96.03,376.85L100.86,364.02L102.16,358.81L109.03,341.41L110.33,335.78L117.21,310.59L118.51,302.51L122.64,285.42L125.37,277.54L126.67,268.6L128.71,263.35L133.54,240.22L134.84,236.79L139,218.86L141.71,198.14L143.01,190.98L145.07,157.63L147.17,151.18L149.9,102.97L151.2,105.93L153.24,51.16L155.34,48.45L158.07,70.76L159.35,84.82L161.41,93.22L166.25,151.27L167.53,149.69L171.68,147.56L174.4,141.66L175.7,136.62L177.74,134.94L179.87,127.75L182.58,123.04" style="vector-effect: none; fill: none; stroke: rgb(128, 0, 128); stroke-opacity: 1; stroke-width: 1.5px; opacity: 1;"/></g><g class="points"/><g class="text"/></g><g class="trace scatter trace6643d8" style="stroke-miterlimit: 2; opacity: 1;"><g class="fills"/><g class="errorbars"/><g class="lines"><path class="js-line" d="M0,409.36L6.14,409.8L8.24,409.77L19.13,409.79L20.44,409.44L24.57,409.36L27.32,406.97L28.61,409.17L32.22,409.51L33.97,408.06L36.14,409.36L38.82,409.93L40.93,410.17L47.01,409.95L49.1,409.1L53.13,408.62L55.16,408.81L63.35,407.61L65.45,406.7L68.16,405.26L69.47,405.81L71.51,404.29L73.61,404.04L79.68,400.89L81.78,398.48L87.86,392.25L89.96,388.64L98.13,374.06L100.86,366.39L102.16,364.59L104.21,357.92L106.3,349.81L109.03,342.68L114.49,313.35L117.21,304.28L120.54,286.53L122.64,279.67L128.71,251.96L130.81,241.71L133.54,230.23L134.84,214.04L136.9,221.17L139,235.52L141.71,233.47L143.01,231.44L145.07,232.71L147.17,229.95L149.9,228.02L151.2,225.38L155.34,223.13L158.07,219.45L159.35,213.73L161.41,212.54L163.51,210.33L166.25,202.51L167.53,198.61L169.58,195.37L171.68,191.53L174.4,180.1L177.74,164.22L179.87,162.64L182.58,164.07" style="vector-effect: none; fill: none; stroke: rgb(128, 0, 128); stroke-opacity: 1; stroke-width: 1.5px; opacity: 1;"/></g><g class="points"/><g class="text"/></g><g class="trace scatter traced7ffcc" style="stroke-miterlimit: 2; opacity: 1;"><g class="fills"/><g class="errorbars"/><g class="lines"><path class="js-line" d="M0,410.85L2.79,407.74L4.1,407.7L36.14,407.74L37.01,407.92L40.93,408.59L43.65,408.44L47.01,408.37L49.1,407.39L55.16,407.1L57.28,409.11L68.16,406.62L69.47,406.16L71.51,404.73L73.61,404.26L79.68,401.02L81.78,398.83L87.86,392.69L89.96,388.6L98.13,374.33L100.86,368.32L104.21,358.14L106.3,350.2L109.03,342.59L110.33,335.78L120.54,287.84L122.64,281.3L125.37,272.19L126.67,264.39L128.71,257.7L130.81,246.71L133.54,235.14L134.84,221.98L136.9,227.66L139,237.71L141.71,232.82L143.01,232.32L145.07,233.33L147.17,230.43L149.9,228.37L151.2,225.99L155.34,223.3L158.07,220.24L159.35,214.57L161.41,213.02L163.51,210.72L166.25,204.27L169.58,192.91L171.68,190.82L177.74,162.95L179.87,162.03L182.58,165.47" style="vector-effect: none; fill: none; stroke: rgb(128, 0, 128); stroke-opacity: 1; stroke-width: 1.5px; opacity: 1;"/></g><g class="points"/><g class="text"/></g><g class="trace scatter trace699021" style="stroke-miterlimit: 2; opacity: 1;"><g class="fills"/><g class="errorbars"/><g class="lines"><path class="js-line" d="M0,394.99L2.79,410.81L4.1,410.59L19.13,410.53L20.44,410.53L47.01,411.22L49.1,410.42L55.16,410.17L57.28,409.99L69.47,407L71.51,405.43L73.61,405.1L76.33,403.4L79.68,401.85L81.78,399.53L87.86,393.57L89.96,390.49L100.86,370.03L102.16,366.87L109.03,344.3L110.33,337.1L114.49,316.2L117.21,308.4L120.54,290.91L122.64,283.75L125.37,276.14L126.67,267.55L130.81,252.1L133.54,243.12L134.84,227.59L136.9,231.91L139,238.59L141.71,233.91L143.01,232.89L145.07,233.5L149.9,229.08L151.2,226.65L155.34,224.18L158.07,220.89L159.35,216.85L161.41,213.85L163.51,210.72L166.25,205.27L167.53,200.15L169.58,195.46L171.68,190.34L174.4,178.78L177.74,164.35L179.87,165.27L182.58,166.57" style="vector-effect: none; fill: none; stroke: rgb(128, 0, 128); stroke-opacity: 1; stroke-width: 1.5px; opacity: 1;"/></g><g class="points"/><g class="text"/></g><g class="trace scatter trace5f8f79" style="stroke-miterlimit: 2; opacity: 1;"><g class="fills"/><g class="errorbars"/><g class="lines"><path class="js-line" d="M0,411.29L8.24,411.35L10.97,411.23L37.01,411.38L38.82,411.86L47.01,412.23L49.1,411.38L65.45,410.61L68.16,410.17L76.33,407.26L77.64,407.35L84.51,402.34L85.83,401.28L89.96,396.1L92.68,392.21L93.99,390.76L96.03,387.15L98.13,382.83L100.86,375.33L104.21,366.99L106.3,360.72L110.33,347.27L112.36,335.46L114.49,330.97L117.21,329.35L120.54,325.01L122.64,325.79L125.37,323.22L126.67,319.58L130.81,320.26L133.54,317.81L134.84,314.07L136.9,313.13L139,313.85L141.71,311.37L143.01,309.99L145.07,308.94L151.2,299.68L153.24,295.13L155.34,289.27L158.07,288.7L159.35,285.05L161.41,287.45L166.25,289.43L167.53,288.82L171.68,288.92L174.4,288.5L175.7,288.98L177.74,292.65L179.87,288.97L182.58,290.18" style="vector-effect: none; fill: none; stroke: rgb(128, 0, 128); stroke-opacity: 1; stroke-width: 1.5px; opacity: 1;"/></g><g class="points"/><g class="text"/></g><g class="trace scatter tracecf224d" style="stroke-miterlimit: 2; opacity: 1;"><g class="fills"/><g class="errorbars"/><g class="lines"><path class="js-line" d="M0,396.7L2.79,410.9L4.1,410.77L8.24,410.96L10.97,410.8L16.41,410.77L19.13,410.71L37.01,410.94L38.82,411.51L47.01,411.83L49.1,410.85L69.47,409.45L71.51,408.76L73.61,408.82L76.33,407.57L79.68,406.85L81.78,405.4L87.86,400.45L89.96,397.37L92.68,393.39L93.99,392.95L98.13,385.68L100.86,378.93L106.3,364.84L109.03,357.76L110.33,354.06L112.36,345.63L114.49,334.39L117.21,333.3L118.51,330.57L120.54,329.31L122.64,328.9L125.37,322.56L126.67,319.88L128.71,318.93L130.81,319.39L133.54,317.37L134.84,313.59L136.9,313.05L139,313.81L141.71,311.5L145.07,309.6L147.17,310.96L151.2,306.43L153.24,301.53L155.34,297.3L158.07,295.15L159.35,292.77L161.41,293.98L163.51,295.54L166.25,295.79L171.68,296.24L174.4,295.6L175.7,295.82L177.74,299.14L179.87,296.11L182.58,296.75" style="vector-effect: none; fill: none; stroke: rgb(128, 0, 128); stroke-opacity: 1; stroke-width: 1.5px; opacity: 1;"/></g><g class="points"/><g class="text"/></g><g class="trace scatter traceedca67" style="stroke-miterlimit: 2; opacity: 1;"><g class="fills"/><g class="errorbars"/><g class="lines"><path class="js-line" d="M0,389.77L2.79,410.9L4.1,410.68L37.01,410.98L38.82,411.47L47.01,411.96L49.1,411.07L69.47,409.71L71.51,408.63L73.61,408.21L76.33,406.86L77.64,406.86L79.68,405.54L84.51,401.94L85.83,400.93L89.96,395.88L92.68,391.82L93.99,391.2L96.03,387.24L98.13,383.49L100.86,376.21L102.16,373.71L104.21,367.91L110.33,350.11L112.36,339.45L114.49,330.76L117.21,329.92L118.51,327.54L120.54,325.58L125.37,322.43L126.67,319.88L128.71,318.63L130.81,319.3L133.54,317.2L134.84,314.07L136.9,312.74L139,313.24L143.01,309.55L145.07,308.9L151.2,300.47L153.24,296.14L155.34,291.07L158.07,288.35L159.35,285.8L161.41,287.75L163.51,288.84L166.25,289.08L169.58,289.96L171.68,288.27L174.4,287.14L175.7,287.97L177.74,291.77L179.87,288.49L182.58,289.17" style="vector-effect: none; fill: none; stroke: rgb(128, 0, 128); stroke-opacity: 1; stroke-width: 1.5px; opacity: 1;"/></g><g class="points"/><g class="text"/></g><g class="trace scatter trace255c91" style="stroke-miterlimit: 2; opacity: 1;"><g class="fills"/><g class="errorbars"/><g class="lines"><path class="js-line" d="M0,410.3L8.24,410.9L10.97,410.3L14.3,410.04L16.41,409.96L53.13,409.95L55.16,409.36L61.31,409.09L63.35,408.75L71.51,407.7L73.61,406.82L77.64,406.22L79.68,404.54L84.51,402.06L85.83,400.74L89.96,395.45L92.68,391.84L96.03,386.22L98.13,384.36L106.3,379.22L109.03,376.33L120.54,365.68L122.64,365.02L125.37,363.05L126.67,361.06L128.71,359.83L130.81,359.55L139,348.96L141.71,347.34L143.01,348.89L145.07,349.08L147.17,346.89L149.9,348.41L151.2,349.15L153.24,347.47L155.34,348.07L158.07,347.37L161.41,347.6L163.51,349.09L166.25,349.12L167.53,347.69L182.58,349.68" style="vector-effect: none; fill: none; stroke: rgb(128, 0, 128); stroke-opacity: 1; stroke-width: 1.5px; opacity: 1;"/></g><g class="points"/><g class="text"/></g><g class="trace scatter tracec96088" style="stroke-miterlimit: 2; opacity: 1;"><g class="fills"/><g class="errorbars"/><g class="lines"><path class="js-line" d="M0,401.22L2.79,410.39L4.1,410.4L6.14,410.17L8.24,410.77L14.3,410.08L16.41,409.96L38.82,409.96L40.93,409.99L51.82,409.42L53.13,409.86L57.28,409.16L60,408.91L68.16,407.74L69.47,408.14L76.33,406.05L77.64,406.22L81.78,403.52L84.51,402.36L87.86,398.46L89.96,395.5L98.13,384.32L100.86,382.68L104.21,380.83L106.3,379.35L114.49,371.86L117.21,368.76L118.51,368.09L120.54,365.19L122.64,364.49L125.37,362.39L128.71,359.39L130.81,358.98L139,348.39L141.71,346.86L143.01,349.02L145.07,348.64L147.17,346.54L149.9,348.01L151.2,349.11L153.24,347.03L155.34,347.76L158.07,346.93L161.41,347.21L163.51,348.74L166.25,348.73L167.53,347.25L171.68,347.72L174.4,347.66L182.58,349.19" style="vector-effect: none; fill: none; stroke: rgb(128, 0, 128); stroke-opacity: 1; stroke-width: 1.5px; opacity: 1;"/></g><g class="points"/><g class="text"/></g><g class="trace scatter trace68977e" style="stroke-miterlimit: 2; opacity: 1;"><g class="fills"/><g class="errorbars"/><g class="lines"><path class="js-line" d="M0,388.16L2.79,410.04L4.1,409.96L8.24,410.55L10.97,409.47L16.41,409.17L19.13,409.39L28.61,409.54L32.22,409.44L33.97,408.98L36.14,409.23L65.45,408.14L68.16,407.61L69.47,408.05L71.51,407.48L79.68,404.76L81.78,403.52L85.83,401.05L87.86,398.68L92.68,392.24L93.99,389.83L96.03,386.39L98.13,384.32L102.16,382.81L104.21,380.92L106.3,379.92L109.03,377.29L120.54,365.54L122.64,364.8L128.71,359.79L130.81,359.25L139,348.65L141.71,346.86L143.01,348.8L145.07,348.33L147.17,346.4L149.9,347.66L151.2,348.71L153.24,346.68L155.34,347.32L158.07,346.67L161.41,347.03L163.51,348.35L166.25,348.6L167.53,346.99L171.68,347.59L174.4,347.4L182.58,349.06" style="vector-effect: none; fill: none; stroke: rgb(128, 0, 128); stroke-opacity: 1; stroke-width: 1.5px; opacity: 1;"/></g><g class="points"/><g class="text"/></g><g class="trace scatter traceea813d" style="stroke-miterlimit: 2; opacity: 1;"><g class="fills"/><g class="errorbars"/><g class="lines"><path class="js-line" d="M0,410.87L6.14,410.87L8.24,411.6L14.3,410.17L16.41,410.36L19.13,406.89L20.44,410.55L22.47,406.51L24.57,410.06L27.32,410.68L28.61,408.4L32.22,410.53L33.97,409.68L37.01,409.64L38.82,409.66L40.93,410.43L43.65,410.33L53.13,410.34L55.16,409.19L60,409.66L61.31,409.39L77.64,407.23L79.68,405.72L89.96,400.84L92.68,400.13L102.16,395.92L104.21,394.2L106.3,394.61L109.03,392.81L114.49,388.51L117.21,384.93L118.51,386.32L120.54,383.87L122.64,382.9L125.37,380.67L126.67,377.19L128.71,374.12L130.81,378.01L133.54,376.88L134.84,376.04L136.9,375.82L139,377.41L141.71,376.44L145.07,377.35L147.17,376.12L151.2,377.42L153.24,377.15L159.35,376.78L161.41,377.1L166.25,377.83L167.53,376.44L169.58,376.2L171.68,377.09L182.58,377.69" style="vector-effect: none; fill: none; stroke: rgb(128, 0, 128); stroke-opacity: 1; stroke-width: 1.5px; opacity: 1;"/></g><g class="points"/><g class="text"/></g><g class="trace scatter traced75acd" style="stroke-miterlimit: 2; opacity: 1;"><g class="fills"/><g class="errorbars"/><g class="lines"><path class="js-line" d="M0,410.04L14.3,409.77L16.41,409.61L28.61,409.63L32.22,409.52L51.82,408.85L53.13,409.47L57.28,408.41L60,408.3L68.16,407.3L69.47,407.52L71.51,407.35L73.61,406.29L77.64,405.91L79.68,404.15L89.96,399.18L92.68,398.64L102.16,393.6L104.21,392.57L106.3,392.2L109.03,390.75L118.51,383.6L120.54,381.19L122.64,380.97L125.37,378.65L126.67,376.09L128.71,374.69L130.81,376.69L133.54,375.44L134.84,374.81L136.9,375.55L145.07,376.34L147.17,375.77L153.24,375.22L155.34,374.63L159.35,374.24L161.41,375.44L166.25,374.98L167.53,373.64L174.4,375.71L175.7,375.48L177.74,374.47L179.87,375.79L182.58,374.97" style="vector-effect: none; fill: none; stroke: rgb(128, 0, 128); stroke-opacity: 1; stroke-width: 1.5px; opacity: 1;"/></g><g class="points"/><g class="text"/></g><g class="trace scatter trace58d83d" style="stroke-miterlimit: 2; opacity: 1;"><g class="fills"/><g class="errorbars"/><g class="lines"><path class="js-line" d="M0,408.15L2.79,410.21L4.1,410.09L8.24,410.94L10.97,410.34L16.41,409.87L19.13,409.92L28.61,409.8L32.22,409.7L43.65,409.58L44.96,409.82L60,408.87L61.31,408.73L68.16,407.79L69.47,408L76.33,406.27L77.64,406.53L81.78,404.18L84.51,403.11L96.03,398.14L98.13,397.12L104.21,394.2L106.3,394.17L117.21,386.86L118.51,385.88L120.54,383.43L122.64,382.51L128.71,376.44L130.81,377.35L134.84,375.38L136.9,375.64L139,376.53L141.71,376.05L145.07,376.78L147.17,376.04L151.2,376.68L153.24,376.18L155.34,376.69L158.07,376.17L161.41,376.27L163.51,377.1L166.25,377.13L167.53,375.79L169.58,375.76L171.68,376.56L182.58,376.98" style="vector-effect: none; fill: none; stroke: rgb(128, 0, 128); stroke-opacity: 1; stroke-width: 1.5px; opacity: 1;"/></g><g class="points"/><g class="text"/></g><g class="trace scatter trace543e8c" style="stroke-miterlimit: 2; opacity: 1;"><g class="fills"/><g class="errorbars"/><g class="lines"><path class="js-line" d="M0,409.42L6.14,409.07L8.24,409.58L14.3,409.29L16.41,409L22.47,409.06L24.57,408.88L32.22,409L33.97,408.85L38.82,409L40.93,408.94L76.33,407.27L77.64,407.89L81.78,406.76L84.51,407.45L85.83,406.84L87.86,407.01L89.96,406.5L92.68,406.92L96.03,406.12L98.13,406.1L104.21,405.11L106.3,405.52L109.03,404.34L110.33,404.66L114.49,404.25L117.21,404.44L120.54,404.16L122.64,404.03L130.81,404.66L133.54,403.84L134.84,404.31L136.9,403.96L143.01,403.85L145.07,403.91L153.24,403.8L155.34,403.78L167.53,403.62L169.58,403.46L179.87,403.23L182.58,403.72" style="vector-effect: none; fill: none; stroke: rgb(128, 0, 128); stroke-opacity: 1; stroke-width: 1.5px; opacity: 1;"/></g><g class="points"/><g class="text"/></g><g class="trace scatter tracec8dfc9" style="stroke-miterlimit: 2; opacity: 1;"><g class="fills"/><g class="errorbars"/><g class="lines"><path class="js-line" d="M0,410.96L6.14,410.91L8.24,411.47L16.41,410.53L19.13,410.66L40.93,410.47L43.65,410.06L47.01,410.2L49.1,410.25L68.16,408.84L69.47,409.14L73.61,408.62L76.33,408.46L77.64,409.42L79.68,408.57L93.99,408.15L96.03,408L102.16,407.58L104.21,407.13L106.3,407.45L109.03,406.53L117.21,406.37L118.51,406.84L122.64,406.13L125.37,406.13L128.71,405.94L130.81,406.76L133.54,405.86L134.84,406.37L139,405.77L141.71,405.86L166.25,406.54L167.53,405.64L179.87,405.81L182.58,406.57" style="vector-effect: none; fill: none; stroke: rgb(128, 0, 128); stroke-opacity: 1; stroke-width: 1.5px; opacity: 1;"/></g><g class="points"/><g class="text"/></g><g class="trace scatter trace3c4e1b" style="stroke-miterlimit: 2; opacity: 1;"><g class="fills"/><g class="errorbars"/><g class="lines"><path class="js-line" d="M0,410.12L14.3,409.99L16.41,409.79L40.93,409.55L43.65,409.28L68.16,408.05L69.47,408.57L73.61,408L76.33,408.33L77.64,408.85L79.68,408.05L92.68,408.19L93.99,407.49L106.3,406.75L109.03,405.83L118.51,406L120.54,405.48L128.71,405.24L130.81,406.1L133.54,405.16L134.84,405.54L141.71,405.16L143.01,405.08L163.51,405.16L166.25,405.67L167.53,404.98L169.58,405.08L179.87,405.2L182.58,405.48" style="vector-effect: none; fill: none; stroke: rgb(128, 0, 128); stroke-opacity: 1; stroke-width: 1.5px; opacity: 1;"/></g><g class="points"/><g class="text"/></g></g></g></g><path class="xlines-above crisp" d="M262.2111111111111,464.25H445.7888888888889M262.2111111111111,29.75H445.7888888888889" style="fill: none; stroke-width: 0.5px; stroke: rgb(0, 0, 0); stroke-opacity: 1;"/><path class="ylines-above crisp" d="M262.4611111111111,30V464M445.5388888888889,30V464" style="fill: none; stroke-width: 0.5px; stroke: rgb(0, 0, 0); stroke-opacity: 1;"/><g class="overlines-above"/><g class="xaxislayer-above"><path class="x2tick ticks crisp" d="M0,464v-5" transform="translate(303.5711111111111,0)" style="stroke: rgb(0, 0, 0); stroke-opacity: 1; stroke-width: 0.5px;"/><path class="x2tick ticks crisp" d="M0,464v-5" transform="translate(344.43111111111114,0)" style="stroke: rgb(0, 0, 0); stroke-opacity: 1; stroke-width: 0.5px;"/><path class="x2tick ticks crisp" d="M0,464v-5" transform="translate(385.2911111111111,0)" style="stroke: rgb(0, 0, 0); stroke-opacity: 1; stroke-width: 0.5px;"/><path class="x2tick ticks crisp" d="M0,464v-5" transform="translate(426.1511111111111,0)" style="stroke: rgb(0, 0, 0); stroke-opacity: 1; stroke-width: 0.5px;"/><g class="x2tick"><text text-anchor="middle" x="0" y="477.7" transform="translate(262.7111111111111,0)" style="font-family: 'Open Sans', verdana, arial, sans-serif; font-size: 11px; fill: rgb(0, 0, 0); fill-opacity: 1; white-space: pre; opacity: 1;">0</text></g><g class="x2tick"><text text-anchor="middle" x="0" y="477.7" style="font-family: 'Open Sans', verdana, arial, sans-serif; font-size: 11px; fill: rgb(0, 0, 0); fill-opacity: 1; white-space: pre; opacity: 1;" transform="translate(303.5711111111111,0)">5</text></g><g class="x2tick"><text text-anchor="middle" x="0" y="477.7" style="font-family: 'Open Sans', verdana, arial, sans-serif; font-size: 11px; fill: rgb(0, 0, 0); fill-opacity: 1; white-space: pre; opacity: 1;" transform="translate(344.43111111111114,0)">10</text></g><g class="x2tick"><text text-anchor="middle" x="0" y="477.7" style="font-family: 'Open Sans', verdana, arial, sans-serif; font-size: 11px; fill: rgb(0, 0, 0); fill-opacity: 1; white-space: pre; opacity: 1;" transform="translate(385.2911111111111,0)">15</text></g><g class="x2tick"><text text-anchor="middle" x="0" y="477.7" style="font-family: 'Open Sans', verdana, arial, sans-serif; font-size: 11px; fill: rgb(0, 0, 0); fill-opacity: 1; white-space: pre; opacity: 1;" transform="translate(426.1511111111111,0)">20</text></g></g><g class="yaxislayer-above"><path class="y2tick ticks crisp" d="M262.7111111111111,0h5" transform="translate(0,442.52)" style="stroke: rgb(0, 0, 0); stroke-opacity: 1; stroke-width: 0.5px;"/><path class="y2tick ticks crisp" d="M262.7111111111111,0h5" transform="translate(0,398.69)" style="stroke: rgb(0, 0, 0); stroke-opacity: 1; stroke-width: 0.5px;"/><path class="y2tick ticks crisp" d="M262.7111111111111,0h5" transform="translate(0,354.85)" style="stroke: rgb(0, 0, 0); stroke-opacity: 1; stroke-width: 0.5px;"/><path class="y2tick ticks crisp" d="M262.7111111111111,0h5" transform="translate(0,311.02)" style="stroke: rgb(0, 0, 0); stroke-opacity: 1; stroke-width: 0.5px;"/><path class="y2tick ticks crisp" d="M262.7111111111111,0h5" transform="translate(0,267.19)" style="stroke: rgb(0, 0, 0); stroke-opacity: 1; stroke-width: 0.5px;"/><path class="y2tick ticks crisp" d="M262.7111111111111,0h5" transform="translate(0,223.35)" style="stroke: rgb(0, 0, 0); stroke-opacity: 1; stroke-width: 0.5px;"/><path class="y2tick ticks crisp" d="M262.7111111111111,0h5" transform="translate(0,179.52)" style="stroke: rgb(0, 0, 0); stroke-opacity: 1; stroke-width: 0.5px;"/><path class="y2tick ticks crisp" d="M262.7111111111111,0h5" transform="translate(0,135.68)" style="stroke: rgb(0, 0, 0); stroke-opacity: 1; stroke-width: 0.5px;"/><path class="y2tick ticks crisp" d="M262.7111111111111,0h5" transform="translate(0,91.85)" style="stroke: rgb(0, 0, 0); stroke-opacity: 1; stroke-width: 0.5px;"/><path class="y2tick ticks crisp" d="M262.7111111111111,0h5" transform="translate(0,48.019999999999996)" style="stroke: rgb(0, 0, 0); stroke-opacity: 1; stroke-width: 0.5px;"/><g class="y2tick"><text text-anchor="end" x="260.0111111111111" y="3.8499999999999996" transform="translate(0,442.52)" style="font-family: 'Open Sans', verdana, arial, sans-serif; font-size: 11px; fill: rgb(0, 0, 0); fill-opacity: 1; white-space: pre; opacity: 1;">0</text></g><g class="y2tick"><text text-anchor="end" x="260.0111111111111" y="3.8499999999999996" style="font-family: 'Open Sans', verdana, arial, sans-serif; font-size: 11px; fill: rgb(0, 0, 0); fill-opacity: 1; white-space: pre; opacity: 1;" transform="translate(0,398.69)">0.1</text></g><g class="y2tick"><text text-anchor="end" x="260.0111111111111" y="3.8499999999999996" style="font-family: 'Open Sans', verdana, arial, sans-serif; font-size: 11px; fill: rgb(0, 0, 0); fill-opacity: 1; white-space: pre; opacity: 1;" transform="translate(0,354.85)">0.2</text></g><g class="y2tick"><text text-anchor="end" x="260.0111111111111" y="3.8499999999999996" style="font-family: 'Open Sans', verdana, arial, sans-serif; font-size: 11px; fill: rgb(0, 0, 0); fill-opacity: 1; white-space: pre; opacity: 1;" transform="translate(0,311.02)">0.3</text></g><g class="y2tick"><text text-anchor="end" x="260.0111111111111" y="3.8499999999999996" style="font-family: 'Open Sans', verdana, arial, sans-serif; font-size: 11px; fill: rgb(0, 0, 0); fill-opacity: 1; white-space: pre; opacity: 1;" transform="translate(0,267.19)">0.4</text></g><g class="y2tick"><text text-anchor="end" x="260.0111111111111" y="3.8499999999999996" style="font-family: 'Open Sans', verdana, arial, sans-serif; font-size: 11px; fill: rgb(0, 0, 0); fill-opacity: 1; white-space: pre; opacity: 1;" transform="translate(0,223.35)">0.5</text></g><g class="y2tick"><text text-anchor="end" x="260.0111111111111" y="3.8499999999999996" style="font-family: 'Open Sans', verdana, arial, sans-serif; font-size: 11px; fill: rgb(0, 0, 0); fill-opacity: 1; white-space: pre; opacity: 1;" transform="translate(0,179.52)">0.6</text></g><g class="y2tick"><text text-anchor="end" x="260.0111111111111" y="3.8499999999999996" style="font-family: 'Open Sans', verdana, arial, sans-serif; font-size: 11px; fill: rgb(0, 0, 0); fill-opacity: 1; white-space: pre; opacity: 1;" transform="translate(0,135.68)">0.7</text></g><g class="y2tick"><text text-anchor="end" x="260.0111111111111" y="3.8499999999999996" style="font-family: 'Open Sans', verdana, arial, sans-serif; font-size: 11px; fill: rgb(0, 0, 0); fill-opacity: 1; white-space: pre; opacity: 1;" transform="translate(0,91.85)">0.8</text></g><g class="y2tick"><text text-anchor="end" x="260.0111111111111" y="3.8499999999999996" style="font-family: 'Open Sans', verdana, arial, sans-serif; font-size: 11px; fill: rgb(0, 0, 0); fill-opacity: 1; white-space: pre; opacity: 1;" transform="translate(0,48.019999999999996)">0.9</text></g></g><g class="overaxes-above"/></g><g class="subplot x3y3"><g class="layer-subplot"><g class="shapelayer"/><g class="imagelayer"/></g><g class="minor-gridlayer"><g class="x3"/><g class="y3"/></g><g class="gridlayer"><g class="x3"><path class="x3grid crisp" transform="translate(528.2822222222222,0)" d="M0,30v434" style="stroke: rgb(128, 128, 128); stroke-opacity: 1; stroke-width: 0.2px;"/><path class="x3grid crisp" transform="translate(569.1422222222222,0)" d="M0,30v434" style="stroke: rgb(128, 128, 128); stroke-opacity: 1; stroke-width: 0.2px;"/><path class="x3grid crisp" transform="translate(610.0022222222223,0)" d="M0,30v434" style="stroke: rgb(128, 128, 128); stroke-opacity: 1; stroke-width: 0.2px;"/><path class="x3grid crisp" transform="translate(650.8622222222223,0)" d="M0,30v434" style="stroke: rgb(128, 128, 128); stroke-opacity: 1; stroke-width: 0.2px;"/></g><g class="y3"><path class="y3grid crisp" transform="translate(0,443.72)" d="M487.4222222222222,0h182.57777777777775" style="stroke: rgb(128, 128, 128); stroke-opacity: 1; stroke-width: 0.2px;"/><path class="y3grid crisp" transform="translate(0,370.89)" d="M487.4222222222222,0h182.57777777777775" style="stroke: rgb(128, 128, 128); stroke-opacity: 1; stroke-width: 0.2px;"/><path class="y3grid crisp" transform="translate(0,298.07)" d="M487.4222222222222,0h182.57777777777775" style="stroke: rgb(128, 128, 128); stroke-opacity: 1; stroke-width: 0.2px;"/><path class="y3grid crisp" transform="translate(0,225.24)" d="M487.4222222222222,0h182.57777777777775" style="stroke: rgb(128, 128, 128); stroke-opacity: 1; stroke-width: 0.2px;"/><path class="y3grid crisp" transform="translate(0,152.42000000000002)" d="M487.4222222222222,0h182.57777777777775" style="stroke: rgb(128, 128, 128); stroke-opacity: 1; stroke-width: 0.2px;"/><path class="y3grid crisp" transform="translate(0,79.59)" d="M487.4222222222222,0h182.57777777777775" style="stroke: rgb(128, 128, 128); stroke-opacity: 1; stroke-width: 0.2px;"/></g></g><g class="zerolinelayer"/><g class="layer-between"><g class="shapelayer"/><g class="imagelayer"/></g><path class="xlines-below"/><path class="ylines-below"/><g class="overlines-below"/><g class="xaxislayer-below"/><g class="yaxislayer-below"/><g class="overaxes-below"/><g class="overplot"><g class="x3y3" transform="translate(487.4222222222222,30)" clip-path="url(#clipd03ea2x3y3plot)"><g class="scatterlayer mlayer"><g class="trace scatter trace59c4cc" style="stroke-miterlimit: 2; opacity: 1;"><g class="fills"/><g class="errorbars"/><g class="lines"><path class="js-line" d="M0,412.05L12.27,411.6L14.3,411.39L27.32,410.24L28.61,408.57L33.97,409.18L36.14,409.13L43.65,408.04L44.96,407.43L49.1,405.16L51.82,403.34L53.13,403.05L55.16,401.64L57.28,400.33L60,397.38L63.35,394.09L65.45,391.85L71.51,382.31L73.61,378.13L79.68,365.93L81.78,359.31L85.83,349.51L87.86,341.14L93.99,324.72L96.03,313.71L98.13,306.62L100.86,294.27L102.16,291.43L104.21,282.35L106.3,278.5L109.03,271.84L112.36,255.54L114.49,246.61L117.21,225.6L118.51,223.77L120.54,217.15L122.64,214.92L128.71,203.84L130.81,201.01L136.9,195.09L139,194.55L141.71,191.58L143.01,192.26L147.17,187.34L149.9,178.35L151.2,178.92L153.24,168.26L158.07,138.6L159.35,138.73L166.25,95.29L167.53,94.13L171.68,72.54L174.4,61.56L177.74,48.91L179.87,39.34L182.58,25.74" style="vector-effect: none; fill: none; stroke: rgb(128, 0, 128); stroke-opacity: 1; stroke-width: 1.5px; opacity: 1;"/></g><g class="points"/><g class="text"/></g><g class="trace scatter trace137cde" style="stroke-miterlimit: 2; opacity: 1;"><g class="fills"/><g class="errorbars"/><g class="lines"><path class="js-line" d="M0,410.22L6.14,410.77L8.24,410.42L16.41,410.12L19.13,409.7L27.32,409.22L28.61,408.5L40.93,407.76L43.65,406.98L49.1,403.67L51.82,401.59L55.16,399.93L57.28,398.33L61.31,394.15L63.35,391.14L68.16,385.59L69.47,382.73L71.51,379.76L73.61,374.27L77.64,367.18L79.68,361.56L92.68,320.56L93.99,318.2L96.03,308.17L98.13,302.98L104.21,276.67L106.3,274.34L109.03,265.98L110.33,257.38L114.49,239.76L117.21,219.05L120.54,210.89L122.64,208.66L126.67,199.6L128.71,196.44L134.84,189.16L136.9,186.89L139,186.25L141.71,182.98L143.01,184.79L145.07,180.68L149.9,159.81L151.2,161.08L153.24,143.61L155.34,137.18L158.07,126.29L159.35,126.1L166.25,91.25L167.53,90.52L171.68,69.52L174.4,58.65L177.74,44.29L179.87,54.77L182.58,21.7" style="vector-effect: none; fill: none; stroke: rgb(128, 0, 128); stroke-opacity: 1; stroke-width: 1.5px; opacity: 1;"/></g><g class="points"/><g class="text"/></g><g class="trace scatter traced169b3" style="stroke-miterlimit: 2; opacity: 1;"><g class="fills"/><g class="errorbars"/><g class="lines"><path class="js-line" d="M0,411.9L28.61,410.21L32.22,409.4L40.93,408.71L43.65,408.15L49.1,405.13L51.82,403.42L53.13,403.2L55.16,401.75L60,397.6L61.31,396.12L69.47,386.12L71.51,382.64L79.68,366.74L81.78,360.47L87.86,341.43L89.96,335.04L93.99,324.68L96.03,317.02L98.13,310.99L100.86,299.52L104.21,285.01L106.3,281.48L109.03,273.45L110.33,265.57L117.21,235.39L118.51,218.71L120.54,214.68L122.64,213.06L126.67,205.57L128.71,202.56L133.54,195.66L134.84,194.66L139,191.02L141.71,187.83L143.01,188.43L145.07,185.63L149.9,171.14L151.2,174.08L153.24,155.26L155.34,143.08L158.07,134.48L159.35,135.82L161.41,121.39L163.51,114.31L166.25,98.93L167.53,99.19L171.68,73.64L174.4,63.38L179.87,41.59L182.58,40.56" style="vector-effect: none; fill: none; stroke: rgb(128, 0, 128); stroke-opacity: 1; stroke-width: 1.5px; opacity: 1;"/></g><g class="points"/><g class="text"/></g><g class="trace scatter trace09a28e" style="stroke-miterlimit: 2; opacity: 1;"><g class="fills"/><g class="errorbars"/><g class="lines"><path class="js-line" d="M0,394.93L2.79,411.97L4.1,411.5L8.24,411.62L10.97,411.38L24.57,410.81L27.32,410.46L43.65,409.2L44.96,408.45L47.01,407.83L49.1,406.29L57.28,401.42L60,399.24L63.35,395.95L65.45,393.23L73.61,380.57L76.33,374.79L79.68,365.21L81.78,360.8L87.86,342.16L89.96,335.08L93.99,322.02L96.03,311.05L98.13,305.23L100.86,290.74L102.16,288.05L104.21,278.42L106.3,274.85L109.03,273.66L110.33,271.25L112.36,269.23L114.49,267.04L117.21,265.8L122.64,262.91L125.37,262.3L128.71,260.97L130.81,261.42L133.54,260.33L134.84,258.82L141.71,251.84L143.01,252.08L147.17,244.69L149.9,237.96L151.2,242.39L153.24,237.26L155.34,222.06L158.07,211.28L159.35,209.19L161.41,198.33L166.25,167.5L167.53,165.75L169.58,167.82L171.68,166.34L174.4,165.26L175.7,166.25L177.74,167.69L179.87,168.2L182.58,168.88" style="vector-effect: none; fill: none; stroke: rgb(128, 0, 128); stroke-opacity: 1; stroke-width: 1.5px; opacity: 1;"/></g><g class="points"/><g class="text"/></g><g class="trace scatter trace743503" style="stroke-miterlimit: 2; opacity: 1;"><g class="fills"/><g class="errorbars"/><g class="lines"><path class="js-line" d="M0,393.58L2.79,411.83L4.1,411.57L32.22,410.6L33.97,410.38L43.65,409.86L44.96,409.18L47.01,408.63L49.1,407.24L55.16,404.05L57.28,402.23L65.45,393.49L68.16,389.59L73.61,380.17L76.33,373.41L84.51,351.51L85.83,350.5L89.96,334.86L92.68,327.34L93.99,323.04L96.03,313.45L98.13,309.49L100.86,294.71L102.16,291.8L104.21,278.28L106.3,276.31L109.03,275.34L112.36,270L114.49,266.49L117.21,264.12L118.51,261.96L134.84,251.68L136.9,249.45L139,248.04L141.71,244.19L143.01,244.55L145.07,242.94L149.9,231.33L151.2,239.29L155.34,216.37L158.07,204.94L159.35,203.65L161.41,195.81L166.25,164.88L167.53,162.03L169.58,163.38L171.68,161.57L174.4,158.56L175.7,160.46L177.74,161.1L179.87,160.15L182.58,160.11" style="vector-effect: none; fill: none; stroke: rgb(128, 0, 128); stroke-opacity: 1; stroke-width: 1.5px; opacity: 1;"/></g><g class="points"/><g class="text"/></g><g class="trace scatter tracedd8d57" style="stroke-miterlimit: 2; opacity: 1;"><g class="fills"/><g class="errorbars"/><g class="lines"><path class="js-line" d="M0,391.07L2.79,411.46L4.1,411.46L32.22,410.38L33.97,410.16L43.65,409.79L44.96,409.22L47.01,408.78L49.1,407.28L55.16,403.97L57.28,402.23L65.45,393.2L68.16,389.04L71.51,383.91L73.61,379.95L81.78,360.04L84.51,351.22L85.83,350.02L87.86,341.43L89.96,333.84L92.68,327.23L96.03,312.76L98.13,309.17L100.86,294.71L102.16,294.35L104.21,278.97L106.3,276.46L109.03,275.27L110.33,271.65L114.49,265.87L117.21,263.72L120.54,261.28L122.64,259.6L134.84,251.83L136.9,249.38L139,248.73L141.71,244.89L143.01,245.09L145.07,242.94L149.9,232.6L151.2,239.73L155.34,216.63L158.07,205.45L159.35,203.73L161.41,194.5L166.25,163.75L167.53,160.8L169.58,162.54L171.68,161.06L174.4,158.71L175.7,159.95L177.74,160.77L179.87,160.55L182.58,161.56" style="vector-effect: none; fill: none; stroke: rgb(128, 0, 128); stroke-opacity: 1; stroke-width: 1.5px; opacity: 1;"/></g><g class="points"/><g class="text"/></g><g class="trace scatter traceb4343f" style="stroke-miterlimit: 2; opacity: 1;"><g class="fills"/><g class="errorbars"/><g class="lines"><path class="js-line" d="M0,384.59L2.79,412.3L4.1,412.05L8.24,412.09L10.97,411.85L33.97,410.6L36.14,410.26L43.65,410.41L44.96,409.76L47.01,409.62L49.1,408.55L55.16,406.34L57.28,404.52L63.35,399.12L65.45,395.31L68.16,391.01L69.47,390.89L71.51,384.46L73.61,383.34L81.78,367.32L84.51,354.46L87.86,342.89L89.96,342.87L93.99,342.45L96.03,340.29L98.13,338.99L100.86,340.01L102.16,341.61L104.21,342.69L106.3,342.36L109.03,342.81L112.36,341.19L114.49,339.9L120.54,336.84L122.64,334.06L126.67,330.25L128.71,327.49L133.54,320.48L134.84,318.25L143.01,301.53L145.07,295.92L147.17,285.58L149.9,288.9L151.2,290.71L153.24,290.03L158.07,293.1L159.35,293.38L163.51,294.26L166.25,294.69L169.58,295.41L171.68,295.1L174.4,295.15L175.7,295.95L179.87,294.92L182.58,294.87" style="vector-effect: none; fill: none; stroke: rgb(128, 0, 128); stroke-opacity: 1; stroke-width: 1.5px; opacity: 1;"/></g><g class="points"/><g class="text"/></g><g class="trace scatter trace94c5eb" style="stroke-miterlimit: 2; opacity: 1;"><g class="fills"/><g class="errorbars"/><g class="lines"><path class="js-line" d="M0,388.38L2.79,411.17L4.1,411.28L14.3,411.54L16.41,410.88L20.44,409.74L22.47,410.67L24.57,411.17L27.32,410.93L28.61,410.58L32.22,410.42L40.93,409.91L43.65,409.79L55.16,405.32L57.28,404.08L63.35,398.39L65.45,395.13L69.47,390.34L71.51,385.88L73.61,382.72L76.33,376.21L79.68,370.89L81.78,363.9L85.83,350.09L87.86,346.89L92.68,344.27L93.99,344.38L98.13,341.72L100.86,343.43L104.21,342.95L106.3,341.6L109.03,342.08L110.33,341.13L117.21,337.71L118.51,336.54L122.64,333.26L125.37,330.43L128.71,325.86L130.81,322.99L139,307.76L141.71,301.4L143.01,298.8L145.07,291.34L147.17,284.6L149.9,288.02L151.2,290.01L153.24,289.48L155.34,289.78L158.07,291.02L159.35,292.17L161.41,292.38L169.58,293.85L171.68,293.28L177.74,294.33L179.87,293.64L182.58,293.92" style="vector-effect: none; fill: none; stroke: rgb(128, 0, 128); stroke-opacity: 1; stroke-width: 1.5px; opacity: 1;"/></g><g class="points"/><g class="text"/></g><g class="trace scatter trace9beb6c" style="stroke-miterlimit: 2; opacity: 1;"><g class="fills"/><g class="errorbars"/><g class="lines"><path class="js-line" d="M0,385.94L2.79,412.3L4.1,412.08L8.24,412.02L10.97,412L14.3,411.72L16.41,411.72L19.13,411.01L20.44,411.56L44.96,409.8L47.01,409.62L51.82,407.49L53.13,407.2L57.28,405.47L60,402.88L63.35,399.74L65.45,395.74L69.47,391.44L71.51,382.31L73.61,383.81L76.33,377.56L79.68,372.6L81.78,365.93L87.86,344.49L89.96,343.53L93.99,341.36L96.03,339.23L98.13,336.91L100.86,336.73L106.3,334.24L109.03,335.6L112.36,335.98L114.49,335.24L117.21,335.78L118.51,334.43L126.67,327.85L128.71,324.55L130.81,322.45L133.54,318.19L134.84,316.28L136.9,311.9L145.07,295.31L147.17,283.22L149.9,285.47L151.2,288.27L153.24,286.82L155.34,288.11L161.41,290.49L163.51,290.73L169.58,291.52L171.68,290.95L174.4,290.89L175.7,291.62L177.74,291.64L179.87,290.69L182.58,290.9" style="vector-effect: none; fill: none; stroke: rgb(128, 0, 128); stroke-opacity: 1; stroke-width: 1.5px; opacity: 1;"/></g><g class="points"/><g class="text"/></g><g class="trace scatter tracedc5439" style="stroke-miterlimit: 2; opacity: 1;"><g class="fills"/><g class="errorbars"/><g class="lines"><path class="js-line" d="M0,382.42L2.79,410.02L4.1,410.07L6.14,409.87L8.24,410.44L14.3,409.58L16.41,409.45L22.47,409.35L24.57,408.84L27.32,409.2L28.61,408.55L37.01,408.12L38.82,407.92L53.13,404.81L55.16,403.93L63.35,399.08L65.45,396.02L69.47,391.51L71.51,383.86L73.61,384.3L76.33,383.87L77.64,385.51L79.68,384.15L84.51,379.25L85.83,379.58L89.96,379.95L92.68,379.61L93.99,378.56L96.03,375.78L98.13,372.42L100.86,371.68L102.16,372.95L104.21,373.3L106.3,372.8L109.03,370.33L110.33,369.9L112.36,367.89L120.54,360.24L122.64,357.91L126.67,352.11L128.71,347.56L133.54,347.89L134.84,348.78L136.9,348.35L139,348.69L141.71,348.94L143.01,350.05L145.07,348.89L147.17,348.75L158.07,349.18L159.35,349L163.51,349.31L166.25,350.39L167.53,349.23L169.58,349.21L174.4,349.35L175.7,349.34L179.87,348.91L182.58,349.65" style="vector-effect: none; fill: none; stroke: rgb(128, 0, 128); stroke-opacity: 1; stroke-width: 1.5px; opacity: 1;"/></g><g class="points"/><g class="text"/></g><g class="trace scatter traceb6f94f" style="stroke-miterlimit: 2; opacity: 1;"><g class="fills"/><g class="errorbars"/><g class="lines"><path class="js-line" d="M0,386.13L2.79,411.33L4.1,411.27L16.41,410.76L19.13,410.54L22.47,410.52L24.57,410.37L28.61,410.22L32.22,409.96L40.93,408.82L43.65,408.26L49.1,407.07L51.82,406.09L53.13,406.01L55.16,404.8L61.31,401.18L63.35,399.48L65.45,396.53L68.16,394.09L71.51,386.26L73.61,387.25L77.64,387.15L79.68,385.9L85.83,381.83L87.86,382.56L92.68,380.63L93.99,379.61L98.13,376.35L100.86,375.72L102.16,375.46L104.21,373.74L106.3,373.17L109.03,370.33L110.33,370.23L112.36,368.03L120.54,359.88L122.64,357.04L126.67,350.8L128.71,347.3L130.81,348.57L133.54,348.98L134.84,350.31L136.9,349.4L141.71,349.52L143.01,351.18L147.17,349.33L149.9,349.46L151.2,350.12L153.24,349.74L166.25,350.64L167.53,349.96L171.68,349.73L174.4,350.23L179.87,350.03L182.58,350.52" style="vector-effect: none; fill: none; stroke: rgb(128, 0, 128); stroke-opacity: 1; stroke-width: 1.5px; opacity: 1;"/></g><g class="points"/><g class="text"/></g><g class="trace scatter trace1d0bc2" style="stroke-miterlimit: 2; opacity: 1;"><g class="fills"/><g class="errorbars"/><g class="lines"><path class="js-line" d="M0,385.88L2.79,411.8L4.1,411.56L38.82,409.48L40.93,409.18L55.16,405.53L57.28,400L65.45,393.58L68.16,392.82L69.47,391.47L71.51,385.03L73.61,386.77L76.33,386.39L77.64,387.44L79.68,386.05L85.83,381.65L87.86,382.02L89.96,381.99L92.68,380.78L100.86,373.1L102.16,373.61L104.21,372.03L106.3,372.26L114.49,366.32L117.21,364.04L118.51,363.26L120.54,360.5L126.67,352.62L128.71,346.98L130.81,348.06L133.54,348.54L134.84,349.95L136.9,349L141.71,349.01L143.01,350.63L147.17,348.86L149.9,348.95L151.2,349.39L153.24,348.91L155.34,348.6L158.07,349.04L161.41,348.91L163.51,349.05L166.25,350.17L167.53,349.09L179.87,348.69L182.58,349.57" style="vector-effect: none; fill: none; stroke: rgb(128, 0, 128); stroke-opacity: 1; stroke-width: 1.5px; opacity: 1;"/></g><g class="points"/><g class="text"/></g><g class="trace scatter tracef571d2" style="stroke-miterlimit: 2; opacity: 1;"><g class="fills"/><g class="errorbars"/><g class="lines"><path class="js-line" d="M0,388.1L2.79,411.55L4.1,411.71L40.93,408.78L43.65,407.93L47.01,407.31L49.1,406.45L53.13,406.16L55.16,404.84L68.16,399.26L69.47,400.61L71.51,398.28L73.61,398.94L76.33,398.73L77.64,399.97L79.68,399.08L81.78,399.03L85.83,399.02L87.86,398.77L92.68,397.86L93.99,396.76L102.16,392.58L104.21,389.29L106.3,388.53L109.03,385.8L112.36,382.71L114.49,380.2L118.51,376.23L120.54,375.54L125.37,375.46L126.67,375.45L128.71,375.2L130.81,376.46L136.9,375.22L139,375.67L153.24,375.52L155.34,375.8L161.41,375.49L163.51,375.74L166.25,376.46L167.53,375.23L175.7,375.49L177.74,375.2L182.58,376.23" style="vector-effect: none; fill: none; stroke: rgb(128, 0, 128); stroke-opacity: 1; stroke-width: 1.5px; opacity: 1;"/></g><g class="points"/><g class="text"/></g><g class="trace scatter traceff6d4f" style="stroke-miterlimit: 2; opacity: 1;"><g class="fills"/><g class="errorbars"/><g class="lines"><path class="js-line" d="M0,398.07L2.79,411.88L4.1,411.81L14.3,411.33L16.41,411.05L27.32,411.17L28.61,410.63L38.82,409.85L40.93,409.47L55.16,406.15L57.28,404.88L65.45,401.45L68.16,401.05L69.47,401.74L71.51,399.88L73.61,400.28L76.33,399.9L77.64,400.7L79.68,399.59L87.86,399.17L89.96,398.85L92.68,398.26L93.99,397.16L102.16,392.94L104.21,390.16L106.3,389.19L109.03,386.75L112.36,384.2L114.49,382.42L117.21,379.12L118.51,378.78L122.64,377.9L125.37,378.05L128.71,377.67L130.81,378.64L133.54,377.34L134.84,377.84L141.71,377.49L143.01,377.94L149.9,377.43L151.2,377.54L163.51,377.56L166.25,378.17L167.53,377.38L169.58,377.25L182.58,378.12" style="vector-effect: none; fill: none; stroke: rgb(128, 0, 128); stroke-opacity: 1; stroke-width: 1.5px; opacity: 1;"/></g><g class="points"/><g class="text"/></g><g class="trace scatter trace053126" style="stroke-miterlimit: 2; opacity: 1;"><g class="fills"/><g class="errorbars"/><g class="lines"><path class="js-line" d="M0,389.63L2.79,411.55L4.1,411.41L10.97,411.4L12.27,411.33L27.32,409.68L28.61,410.04L33.97,408.53L36.14,408.99L40.93,408.49L43.65,407.64L44.96,407.91L47.01,407.46L53.13,406.27L55.16,404.84L65.45,400.54L68.16,400.21L69.47,401.01L71.51,398.79L73.61,399.59L76.33,399.2L77.64,400.19L79.68,399.26L81.78,398.71L84.51,399.09L89.96,397.98L92.68,397.64L96.03,395.11L98.13,393.97L102.16,392.32L104.21,388.96L106.3,388.24L109.03,385.59L114.49,380.45L117.21,376.86L122.64,375.28L125.37,375.54L126.67,375.67L128.71,375.12L130.81,375.84L133.54,375.23L136.9,375.11L139,375.16L161.41,375.16L163.51,375.49L166.25,376.02L167.53,374.94L182.58,376.01" style="vector-effect: none; fill: none; stroke: rgb(128, 0, 128); stroke-opacity: 1; stroke-width: 1.5px; opacity: 1;"/></g><g class="points"/><g class="text"/></g><g class="trace scatter trace3ce1d8" style="stroke-miterlimit: 2; opacity: 1;"><g class="fills"/><g class="errorbars"/><g class="lines"><path class="js-line" d="M0,411.55L12.27,411.26L14.3,411.04L32.22,409.88L33.97,409.51L38.82,409.05L40.93,408.82L51.82,407L53.13,407.25L61.31,407.37L63.35,407.42L71.51,408.11L73.61,407.93L77.64,408.6L79.68,407.78L92.68,406.52L93.99,405.94L100.86,404.12L102.16,404.19L110.33,403.55L112.36,403.39L128.71,403.6L130.81,404.31L134.84,403.99L136.9,403.8L163.51,403.63L166.25,404.24L167.53,403.49L169.58,403.39L177.74,403.38L179.87,403.52L182.58,403.61" style="vector-effect: none; fill: none; stroke: rgb(128, 0, 128); stroke-opacity: 1; stroke-width: 1.5px; opacity: 1;"/></g><g class="points"/><g class="text"/></g><g class="trace scatter tracedde2dd" style="stroke-miterlimit: 2; opacity: 1;"><g class="fills"/><g class="errorbars"/><g class="lines"><path class="js-line" d="M0,411.98L19.13,411.52L20.44,411.32L40.93,409.51L43.65,408.88L51.82,408.02L53.13,408.45L57.28,408.16L60,408.36L76.33,408.56L77.64,409.18L81.78,408.03L84.51,408.34L87.86,407.58L89.96,406.97L93.99,406.3L96.03,405.6L102.16,404.7L104.21,404.22L106.3,404.52L109.03,404.08L130.81,404.6L133.54,403.85L134.84,404.13L136.9,403.8L149.9,403.97L151.2,403.9L166.25,404.68L167.53,404.14L179.87,404L182.58,404.45" style="vector-effect: none; fill: none; stroke: rgb(128, 0, 128); stroke-opacity: 1; stroke-width: 1.5px; opacity: 1;"/></g><g class="points"/><g class="text"/></g><g class="trace scatter trace2a7e06" style="stroke-miterlimit: 2; opacity: 1;"><g class="fills"/><g class="errorbars"/><g class="lines"><path class="js-line" d="M0,411.88L28.61,410.3L32.22,409.78L51.82,407.29L53.13,407.83L57.28,407.72L60,407.77L77.64,409.22L79.68,408.4L81.78,408.1L84.51,408.49L87.86,407.58L89.96,407.12L92.68,407.11L93.99,406.34L102.16,404.45L104.21,404.11L106.3,404.37L109.03,403.9L112.36,403.9L114.49,403.76L118.51,404.26L120.54,403.72L126.67,404.11L128.71,404L130.81,404.68L133.54,404.18L155.34,403.8L158.07,403.59L159.35,404.13L161.41,403.67L166.25,404.42L167.53,404L174.4,403.65L175.7,403.67L182.58,404.26" style="vector-effect: none; fill: none; stroke: rgb(128, 0, 128); stroke-opacity: 1; stroke-width: 1.5px; opacity: 1;"/></g><g class="points"/><g class="text"/></g></g></g></g><path class="xlines-above crisp" d="M486.9222222222222,464.25H670.5M486.9222222222222,29.75H670.5" style="fill: none; stroke-width: 0.5px; stroke: rgb(0, 0, 0); stroke-opacity: 1;"/><path class="ylines-above crisp" d="M487.1722222222222,30V464M670.25,30V464" style="fill: none; stroke-width: 0.5px; stroke: rgb(0, 0, 0); stroke-opacity: 1;"/><g class="overlines-above"/><g class="xaxislayer-above"><path class="x3tick ticks crisp" d="M0,464v-5" transform="translate(528.2822222222222,0)" style="stroke: rgb(0, 0, 0); stroke-opacity: 1; stroke-width: 0.5px;"/><path class="x3tick ticks crisp" d="M0,464v-5" transform="translate(569.1422222222222,0)" style="stroke: rgb(0, 0, 0); stroke-opacity: 1; stroke-width: 0.5px;"/><path class="x3tick ticks crisp" d="M0,464v-5" transform="translate(610.0022222222223,0)" style="stroke: rgb(0, 0, 0); stroke-opacity: 1; stroke-width: 0.5px;"/><path class="x3tick ticks crisp" d="M0,464v-5" transform="translate(650.8622222222223,0)" style="stroke: rgb(0, 0, 0); stroke-opacity: 1; stroke-width: 0.5px;"/><g class="x3tick"><text text-anchor="middle" x="0" y="477.7" transform="translate(487.4222222222222,0)" style="font-family: 'Open Sans', verdana, arial, sans-serif; font-size: 11px; fill: rgb(0, 0, 0); fill-opacity: 1; white-space: pre; opacity: 1;">0</text></g><g class="x3tick"><text text-anchor="middle" x="0" y="477.7" style="font-family: 'Open Sans', verdana, arial, sans-serif; font-size: 11px; fill: rgb(0, 0, 0); fill-opacity: 1; white-space: pre; opacity: 1;" transform="translate(528.2822222222222,0)">5</text></g><g class="x3tick"><text text-anchor="middle" x="0" y="477.7" style="font-family: 'Open Sans', verdana, arial, sans-serif; font-size: 11px; fill: rgb(0, 0, 0); fill-opacity: 1; white-space: pre; opacity: 1;" transform="translate(569.1422222222222,0)">10</text></g><g class="x3tick"><text text-anchor="middle" x="0" y="477.7" style="font-family: 'Open Sans', verdana, arial, sans-serif; font-size: 11px; fill: rgb(0, 0, 0); fill-opacity: 1; white-space: pre; opacity: 1;" transform="translate(610.0022222222223,0)">15</text></g><g class="x3tick"><text text-anchor="middle" x="0" y="477.7" style="font-family: 'Open Sans', verdana, arial, sans-serif; font-size: 11px; fill: rgb(0, 0, 0); fill-opacity: 1; white-space: pre; opacity: 1;" transform="translate(650.8622222222223,0)">20</text></g></g><g class="yaxislayer-above"><path class="y3tick ticks crisp" d="M487.4222222222222,0h5" transform="translate(0,443.72)" style="stroke: rgb(0, 0, 0); stroke-opacity: 1; stroke-width: 0.5px;"/><path class="y3tick ticks crisp" d="M487.4222222222222,0h5" transform="translate(0,370.89)" style="stroke: rgb(0, 0, 0); stroke-opacity: 1; stroke-width: 0.5px;"/><path class="y3tick ticks crisp" d="M487.4222222222222,0h5" transform="translate(0,298.07)" style="stroke: rgb(0, 0, 0); stroke-opacity: 1; stroke-width: 0.5px;"/><path class="y3tick ticks crisp" d="M487.4222222222222,0h5" transform="translate(0,225.24)" style="stroke: rgb(0, 0, 0); stroke-opacity: 1; stroke-width: 0.5px;"/><path class="y3tick ticks crisp" d="M487.4222222222222,0h5" transform="translate(0,152.42000000000002)" style="stroke: rgb(0, 0, 0); stroke-opacity: 1; stroke-width: 0.5px;"/><path class="y3tick ticks crisp" d="M487.4222222222222,0h5" transform="translate(0,79.59)" style="stroke: rgb(0, 0, 0); stroke-opacity: 1; stroke-width: 0.5px;"/><g class="y3tick"><text text-anchor="end" x="484.72222222222223" y="3.8499999999999996" transform="translate(0,443.72)" style="font-family: 'Open Sans', verdana, arial, sans-serif; font-size: 11px; fill: rgb(0, 0, 0); fill-opacity: 1; white-space: pre; opacity: 1;">0</text></g><g class="y3tick"><text text-anchor="end" x="484.72222222222223" y="3.8499999999999996" style="font-family: 'Open Sans', verdana, arial, sans-serif; font-size: 11px; fill: rgb(0, 0, 0); fill-opacity: 1; white-space: pre; opacity: 1;" transform="translate(0,370.89)">0.2</text></g><g class="y3tick"><text text-anchor="end" x="484.72222222222223" y="3.8499999999999996" style="font-family: 'Open Sans', verdana, arial, sans-serif; font-size: 11px; fill: rgb(0, 0, 0); fill-opacity: 1; white-space: pre; opacity: 1;" transform="translate(0,298.07)">0.4</text></g><g class="y3tick"><text text-anchor="end" x="484.72222222222223" y="3.8499999999999996" style="font-family: 'Open Sans', verdana, arial, sans-serif; font-size: 11px; fill: rgb(0, 0, 0); fill-opacity: 1; white-space: pre; opacity: 1;" transform="translate(0,225.24)">0.6</text></g><g class="y3tick"><text text-anchor="end" x="484.72222222222223" y="3.8499999999999996" style="font-family: 'Open Sans', verdana, arial, sans-serif; font-size: 11px; fill: rgb(0, 0, 0); fill-opacity: 1; white-space: pre; opacity: 1;" transform="translate(0,152.42000000000002)">0.8</text></g><g class="y3tick"><text text-anchor="end" x="484.72222222222223" y="3.8499999999999996" style="font-family: 'Open Sans', verdana, arial, sans-serif; font-size: 11px; fill: rgb(0, 0, 0); fill-opacity: 1; white-space: pre; opacity: 1;" transform="translate(0,79.59)">1</text></g></g><g class="overaxes-above"/></g></g><g class="polarlayer"/><g class="smithlayer"/><g class="ternarylayer"/><g class="geolayer"/><g class="funnelarealayer"/><g class="pielayer"/><g class="iciclelayer"/><g class="treemaplayer"/><g class="sunburstlayer"/><g class="glimages"/><defs id="topdefs-d03ea2"><g class="clips"/></defs><g class="layer-above"><g class="imagelayer"/><g class="shapelayer"/></g><g class="infolayer"><g class="g-gtitle"><text class="gtitle" x="35" y="15" text-anchor="start" dy="0em" style="opacity: 1; font-family: 'Open Sans', verdana, arial, sans-serif; font-size: 11px; fill: rgb(0, 0, 0); fill-opacity: 1; white-space: pre;">Growth on Succinate+Glucose</text></g><g class="g-xtitle"/><g class="g-x2title" transform="translate(0,4.550000000000011)"><text class="x2title" x="354" y="488.153125" text-anchor="middle" style="opacity: 1; font-family: 'Open Sans', verdana, arial, sans-serif; font-size: 11px; fill: rgb(0, 0, 0); fill-opacity: 1; white-space: pre;">Time (hours)</text></g><g class="g-x3title"/><g class="g-ytitle"><text class="ytitle" transform="rotate(-90,16.18125,247)" x="16.18125" y="247" text-anchor="middle" style="opacity: 1; font-family: 'Open Sans', verdana, arial, sans-serif; font-size: 11px; fill: rgb(0, 0, 0); fill-opacity: 1; white-space: pre;">OD600</text></g><g class="g-y2title"/><g class="g-y3title"/><g class="annotation" data-index="0" style="opacity: 1;"><g class="annotation-text-g" transform="rotate(0,129.2888888888889,20.5)"><g class="cursor-pointer" transform="translate(122,11)"><rect class="bg" x="0.5" y="0.5" width="14" height="18" style="stroke-width: 1px; stroke: rgb(0, 0, 0); stroke-opacity: 0; fill: rgb(0, 0, 0); fill-opacity: 0;"/><text class="annotation-text" text-anchor="middle" x="7.4375" y="14" style="font-family: 'Open Sans', verdana, arial, sans-serif; font-size: 11px; fill: rgb(0, 0, 0); fill-opacity: 1; white-space: pre;">At</text></g></g></g><g class="annotation" data-index="1" style="opacity: 1;"><g class="annotation-text-g" transform="rotate(0,354,20.5)"><g class="cursor-pointer" transform="translate(345,11)"><rect class="bg" x="0.5" y="0.5" width="18" height="18" style="stroke-width: 1px; stroke: rgb(0, 0, 0); stroke-opacity: 0; fill: rgb(0, 0, 0); fill-opacity: 0;"/><text class="annotation-text" text-anchor="middle" x="9.34375" y="14" style="font-family: 'Open Sans', verdana, arial, sans-serif; font-size: 11px; fill: rgb(0, 0, 0); fill-opacity: 1; white-space: pre;">Oa</text></g></g></g><g class="annotation" data-index="2" style="opacity: 1;"><g class="annotation-text-g" transform="rotate(0,578.7111111111111,20.5)"><g class="cursor-pointer" transform="translate(561,11)"><rect class="bg" x="0.5" y="0.5" width="35" height="18" style="stroke-width: 1px; stroke: rgb(0, 0, 0); stroke-opacity: 0; fill: rgb(0, 0, 0); fill-opacity: 0;"/><text class="annotation-text" text-anchor="middle" x="17.921875" y="14" style="font-family: 'Open Sans', verdana, arial, sans-serif; font-size: 11px; fill: rgb(0, 0, 0); fill-opacity: 1; white-space: pre;">At+Oa</text></g></g></g></g></svg>