<svg class="main-svg" xmlns="http://www.w3.org/2000/svg" xmlns:xlink="http://www.w3.org/1999/xlink" width="700" height="500" style="" viewBox="0 0 700 500"><rect x="0" y="0" width="700" height="500" style="fill: rgb(255, 255, 255); fill-opacity: 1;"/><defs id="defs-1af320"><g class="clips"><clipPath id="clip1af320xyplot" class="plotclip"><rect width="143.86666666666667" height="434"/></clipPath><clipPath id="clip1af320x2y2plot" class="plotclip"><rect width="143.86666666666667" height="434"/></clipPath><clipPath id="clip1af320x3y3plot" class="plotclip"><rect width="143.86666666666665" height="434"/></clipPath><clipPath class="axesclip" id="clip1af320x"><rect x="38" y="0" width="143.86666666666667" height="500"/></clipPath><clipPath class="axesclip" id="clip1af320y"><rect x="0" y="30" width="700" height="434"/></clipPath><clipPath class="axesclip" id="clip1af320xy"><rect x="38" y="30" width="143.86666666666667" height="434"/></clipPath><clipPath class="axesclip" id="clip1af320y2"><rect x="0" y="30" width="700" height="434"/></clipPath><clipPath class="axesclip" id="clip1af320xy2"><rect x="38" y="30" width="143.86666666666667" height="434"/></clipPath><clipPath class="axesclip" id="clip1af320y3"><rect x="0" y="30" width="700" height="434"/></clipPath><clipPath class="axesclip" id="clip1af320xy3"><rect x="38" y="30" width="143.86666666666667" height="434"/></clipPath><clipPath class="axesclip" id="clip1af320x2"><rect x="215.06666666666666" y="0" width="143.86666666666667" height="500"/></clipPath><clipPath class="axesclip" id="clip1af320x2y"><rect x="215.06666666666666" y="30" width="143.86666666666667" height="434"/></clipPath><clipPath class="axesclip" id="clip1af320x2y2"><rect x="215.06666666666666" y="30" width="143.86666666666667" height="434"/></clipPath><clipPath class="axesclip" id="clip1af320x2y3"><rect x="215.06666666666666" y="30" width="143.86666666666667" height="434"/></clipPath><clipPath class="axesclip" id="clip1af320x3"><rect x="392.1333333333333" y="0" width="143.86666666666665" height="500"/></clipPath><clipPath class="axesclip" id="clip1af320x3y"><rect x="392.1333333333333" y="30" width="143.86666666666665" height="434"/></clipPath><clipPath class="axesclip" id="clip1af320x3y2"><rect x="392.1333333333333" y="30" width="143.86666666666665" height="434"/></clipPath><clipPath class="axesclip" id="clip1af320x3y3"><rect x="392.1333333333333" y="30" width="143.86666666666665" height="434"/></clipPath></g><g class="gradients"/><g class="patterns"/></defs><g class="bglayer"/><g class="layer-below"><g class="imagelayer"/><g class="shapelayer"/></g><g class="cartesianlayer"><g class="subplot xy"><g class="layer-subplot"><g class="shapelayer"/><g class="imagelayer"/></g><g class="minor-gridlayer"><g class="x"/><g class="y"/></g><g class="gridlayer"><g class="x"><path class="xgrid crisp" transform="translate(70.2,0)" d="M0,30v434" style="stroke: rgb(128, 128, 128); stroke-opacity: 1; stroke-width: 0.2px;"/><path class="xgrid crisp" transform="translate(102.39,0)" d="M0,30v434" style="stroke: rgb(128, 128, 128); stroke-opacity: 1; stroke-width: 0.2px;"/><path class="xgrid crisp" transform="translate(134.59,0)" d="M0,30v434" style="stroke: rgb(128, 128, 128); stroke-opacity: 1; stroke-width: 0.2px;"/><path class="xgrid crisp" transform="translate(166.78,0)" d="M0,30v434" style="stroke: rgb(128, 128, 128); stroke-opacity: 1; stroke-width: 0.2px;"/></g><g class="y"><path class="ygrid crisp" transform="translate(0,444.47)" d="M38,0h143.86666666666667" style="stroke: rgb(128, 128, 128); stroke-opacity: 1; stroke-width: 0.2px;"/><path class="ygrid crisp" transform="translate(0,391.54)" d="M38,0h143.86666666666667" style="stroke: rgb(128, 128, 128); stroke-opacity: 1; stroke-width: 0.2px;"/><path class="ygrid crisp" transform="translate(0,338.62)" d="M38,0h143.86666666666667" style="stroke: rgb(128, 128, 128); stroke-opacity: 1; stroke-width: 0.2px;"/><path class="ygrid crisp" transform="translate(0,285.69)" d="M38,0h143.86666666666667" style="stroke: rgb(128, 128, 128); stroke-opacity: 1; stroke-width: 0.2px;"/><path class="ygrid crisp" transform="translate(0,232.76)" d="M38,0h143.86666666666667" style="stroke: rgb(128, 128, 128); stroke-opacity: 1; stroke-width: 0.2px;"/><path class="ygrid crisp" transform="translate(0,179.84)" d="M38,0h143.86666666666667" style="stroke: rgb(128, 128, 128); stroke-opacity: 1; stroke-width: 0.2px;"/><path class="ygrid crisp" transform="translate(0,126.91)" d="M38,0h143.86666666666667" style="stroke: rgb(128, 128, 128); stroke-opacity: 1; stroke-width: 0.2px;"/><path class="ygrid crisp" transform="translate(0,73.97999999999999)" d="M38,0h143.86666666666667" style="stroke: rgb(128, 128, 128); stroke-opacity: 1; stroke-width: 0.2px;"/></g></g><g class="zerolinelayer"/><g class="layer-between"><g class="shapelayer"/><g class="imagelayer"/></g><path class="xlines-below"/><path class="ylines-below"/><g class="overlines-below"/><g class="xaxislayer-below"/><g class="yaxislayer-below"/><g class="overaxes-below"/><g class="overplot"><g class="xy" transform="translate(38,30)" clip-path="url(#clip1af320xyplot)"><g class="scatterlayer mlayer"><g class="trace scatter trace9bef90" style="stroke-miterlimit: 2; opacity: 1;"><g class="fills"/><g class="errorbars"/><g class="lines"><path class="js-line" d="M0,410.69L3.4,410.17L4.84,410.32L6.49,410.59L8.64,406.97L9.67,410.78L11.27,410.71L17.71,410.47L19.36,410.62L22.54,410.15L25.38,408.75L30.59,409.39L32.25,409.46L35.43,409.23L37.04,410.34L38.69,409.67L40.84,410.2L48.31,408.1L49.92,408.14L58,405.1L60.15,403.13L61.17,405.91L62.78,405.42L69.23,398.63L70.89,394.57L75.66,385.17L77.32,380.03L80.5,367.4L82.11,359.71L83.77,353.78L85.91,343.02L90.22,322.5L92.35,311.25L96.64,283.33L98.79,270.81L99.82,267.58L101.42,255.25L105.23,232.74L106.25,231.01L111.67,195.65L112.69,183.32L114.31,163.26L115.96,124.45L118.12,102.2L119.14,100.93L120.75,101.44L122.4,98.23L127.19,84.95L128.84,82.21L133.63,76.64L135.28,77.45L138.45,72.05L140.05,69.33L141.73,64.59L143.87,64.27" style="vector-effect: none; fill: none; stroke: rgb(53, 183, 121); stroke-opacity: 1; stroke-width: 1.5px; opacity: 1;"/></g><g class="points"/><g class="text"/></g><g class="trace scatter trace53cd4b" style="stroke-miterlimit: 2; opacity: 1;"><g class="fills"/><g class="errorbars"/><g class="lines"><path class="js-line" d="M0,411.49L4.84,411.33L6.49,411.65L12.93,411.26L15.07,411.36L16.1,410.96L17.71,411.36L19.36,410.73L21.52,410.96L35.43,410.77L37.04,411.98L38.69,410.94L40.84,411.74L43.47,410.32L45.14,409.9L51.57,409.6L53.71,409.42L61.17,407.82L62.78,407.06L66.59,404.03L67.63,402.91L69.23,401.38L70.89,398.43L75.66,388.55L77.32,384L80.5,374.65L82.11,366.22L88.54,337.78L90.22,330.33L96.64,293.44L98.79,277.27L99.82,278.22L101.42,257.26L105.23,234.01L106.25,232.6L107.87,215.01L109.53,205.69L111.67,198.72L112.69,182.1L115.96,145.51L118.12,107.76L119.14,103.21L120.75,102.5L124.56,93.77L125.57,90.7L128.84,84.22L131,83.06L133.63,78.38L135.28,79.3L138.45,74.06L140.05,72.35L141.73,66.33L143.87,66.97" style="vector-effect: none; fill: none; stroke: rgb(53, 183, 121); stroke-opacity: 1; stroke-width: 1.5px; opacity: 1;"/></g><g class="points"/><g class="text"/></g><g class="trace scatter trace288267" style="stroke-miterlimit: 2; opacity: 1;"><g class="fills"/><g class="errorbars"/><g class="lines"><path class="js-line" d="M0,412.02L21.52,411.81L22.54,411.36L29.16,411.63L30.59,411.29L35.43,411.24L37.04,412.3L38.69,411.74L40.84,412.21L43.47,410.8L45.14,410.69L54.74,409.88L56.35,409.34L61.17,408.3L62.78,407.7L66.59,404.77L67.63,403.92L70.89,399.49L73.03,395.84L77.32,385.54L79.47,378.57L80.5,375.97L82.11,368.18L90.22,333.51L92.35,321.72L98.79,283.72L99.82,286.95L103.08,248.65L105.23,235.97L106.25,233.6L107.87,211.99L112.69,182.79L114.31,152.04L119.14,101.25L120.75,100.33L122.4,98.18L124.56,93.35L128.84,84.44L131,82.74L133.63,78.38L135.28,79.62L140.05,71.61L141.73,66.92L143.87,68.61" style="vector-effect: none; fill: none; stroke: rgb(53, 183, 121); stroke-opacity: 1; stroke-width: 1.5px; opacity: 1;"/></g><g class="points"/><g class="text"/></g><g class="trace scatter trace198e85" style="stroke-miterlimit: 2; opacity: 1;"><g class="fills"/><g class="errorbars"/><g class="lines"><path class="js-line" d="M0,412.11L3.23,411.35L4.83,411.47L12.93,410.64L15.07,410.54L16.1,410.77L17.71,410.24L19.36,409.78L21.52,410.55L25.38,410.55L26.77,408.51L28.15,409.35L29.16,407.89L30.58,407.22L32.25,407.85L38.69,402.26L40.84,400.11L43.47,397.22L45.14,391.82L51.57,367.07L53.71,351.75L58,345.86L60.15,327.56L62.78,316.66L64.44,296.71L66.59,278.78L67.62,276.95L73.03,222.28L74.06,212.64L77.32,198.41L79.47,193.02L82.11,188.83L83.76,182.05L88.54,169.84L90.21,168.43L93.38,158.39L94.98,156.7L96.64,155.38L98.79,149.5L99.81,143.57L101.42,146.01L103.08,144.03L105.22,142.9L106.25,141.63L107.87,142.64L109.52,144.67L111.66,145.02L112.69,139.59L114.31,141.12L115.96,144.88L118.11,144.38L119.14,142.66L120.75,144.37L122.4,149.41L124.56,148.78L125.56,145.55L127.19,144.51L128.84,150.21L131,149.57L132.01,146.7L133.62,147.31L135.28,145.51L137.42,149.94L138.45,145.34L140.05,146.71L141.73,147.63L143.86,145.92" style="vector-effect: none; fill: none; stroke: rgb(49, 104, 142); stroke-opacity: 1; stroke-width: 1.5px; opacity: 1;"/></g><g class="points"/><g class="text"/></g><g class="trace scatter tracead107f" style="stroke-miterlimit: 2; opacity: 1;"><g class="fills"/><g class="errorbars"/><g class="lines"><path class="js-line" d="M0,412.16L3.23,411.56L4.83,411.42L11.27,409.85L12.93,405.14L15.07,400.22L16.1,400.23L17.71,381.23L19.36,406.87L21.52,403.09L22.54,365.71L25.38,405.31L26.77,400.25L28.15,395.43L29.16,407.36L30.58,406.74L32.25,407.64L35.42,404.93L37.04,402.84L43.47,396.21L45.14,390.44L51.57,365.79L53.71,351.01L54.74,347.5L56.34,347.5L58,344.06L60.15,326.98L61.17,323.52L62.78,314.6L64.44,293.85L66.59,277.25L67.62,278.54L69.23,262.13L70.89,242.51L73.03,227.04L74.06,215.02L75.66,206.41L86.93,176.09L88.54,174.18L90.21,173.83L92.35,168.31L93.38,164.48L94.98,163.63L96.64,163.16L98.79,157.02L99.81,151.83L101.42,153.73L103.08,150.44L105.22,149.09L106.25,146.82L107.87,147.19L109.52,149.01L111.66,148.78L112.69,144.35L114.31,146.31L115.96,150.44L118.11,148.83L119.14,144.98L120.75,145.27L122.4,149.57L124.56,149.62L125.56,146.71L127.19,145.67L128.84,148.88L131,146.45L132.01,144.31L133.62,145.2L135.28,144.4L137.42,148.14L138.45,141.47L140.05,145.87L141.73,145.88L143.86,142.48" style="vector-effect: none; fill: none; stroke: rgb(49, 104, 142); stroke-opacity: 1; stroke-width: 1.5px; opacity: 1;"/></g><g class="points"/><g class="text"/></g><g class="trace scatter trace0cf328" style="stroke-miterlimit: 2; opacity: 1;"><g class="fills"/><g class="errorbars"/><g class="lines"><path class="js-line" d="M0,412.05L4.83,411.26L6.49,411.19L12.93,411.01L15.07,410.69L16.1,410.87L17.71,410.34L25.38,410.24L26.77,408.08L28.15,409.78L29.16,407.89L30.58,407.11L32.25,408.17L34.39,406.8L35.42,405.24L40.84,399.1L41.86,398.73L43.47,396L45.14,390.28L51.57,366.27L53.71,351.96L54.74,347.71L56.34,346.39L58,344.96L60.15,325.55L61.17,323.05L62.78,313.91L64.44,290.62L66.59,273.81L67.62,277.42L69.23,259.8L70.89,238.06L73.03,222.43L74.06,211.64L75.66,202.87L80.5,191.98L82.11,190.94L85.91,178.38L86.93,175.66L88.54,173.34L90.21,172.77L92.35,167.3L93.38,162.2L94.98,162.36L96.64,160.77L98.79,155.32L99.81,149.77L101.42,152.2L103.08,148.9L105.22,146.61L106.25,143.43L109.52,145.94L111.66,144.12L112.69,136.94L114.31,139.74L115.96,142.28L118.11,139.89L119.14,137.31L120.75,138.02L122.4,141.74L124.56,138.77L125.56,135.86L127.19,135.62L128.84,136.07L131,133.16L132.01,130.76L133.62,132.86L135.28,130.96L137.42,135.12L138.45,129.51L140.05,131.42L141.73,130.48L143.86,127.66" style="vector-effect: none; fill: none; stroke: rgb(49, 104, 142); stroke-opacity: 1; stroke-width: 1.5px; opacity: 1;"/></g><g class="points"/><g class="text"/></g><g class="trace scatter tracee2ebc5" style="stroke-miterlimit: 2; opacity: 1;"><g class="fills"/><g class="errorbars"/><g class="lines"><path class="js-line" d="M0,411.51L6.49,410.36L8.64,410.17L22.54,406.57L25.38,405.6L32.25,402.95L34.4,400.71L43.47,383.79L45.14,379.45L53.71,350.98L54.74,344.39L56.35,341.4L58,331.2L61.17,320.26L62.79,311.51L66.59,285.63L67.63,285.63L69.23,267.74L70.89,262.38L74.06,242.7L75.67,238.61L77.32,234.61L79.47,233.6L82.11,229.93L83.77,225.43L85.91,225.56L86.94,224.48L88.54,223.35L90.22,220.9L92.36,220.74L93.38,218.34L96.64,213.95L98.79,209.84L101.42,201.97L103.08,199.92L106.25,192.71L107.87,188.51L109.53,184.24L111.67,173.99L112.69,188L114.31,196.73L115.96,156.08L118.12,131.68L119.14,130.82L120.75,98.66L122.4,73.85L124.56,62.05L125.57,43.66L127.19,43.54L128.84,46.86L131,48.22L133.63,51.55L135.28,54.11L140.05,61.04L141.73,61.25L143.87,61.5" style="vector-effect: none; fill: none; stroke: rgb(253, 231, 37); stroke-opacity: 1; stroke-width: 1.5px; opacity: 1;"/></g><g class="points"/><g class="text"/></g><g class="trace scatter trace7222e5" style="stroke-miterlimit: 2; opacity: 1;"><g class="fills"/><g class="errorbars"/><g class="lines"><path class="js-line" d="M0,409.18L4.84,408.38L6.49,408.24L17.71,406.55L19.36,406.74L32.25,402.63L34.4,400.87L37.04,397.87L38.69,394.46L45.14,382.15L47.28,376.12L61.17,328.04L62.79,319.13L64.44,314.05L66.59,298.07L67.63,295.42L69.23,275.41L70.89,268.25L73.03,251.49L74.06,261.39L75.67,239.83L77.32,236.62L79.47,236.3L80.5,236.67L82.11,235.49L83.77,229.72L85.91,229.31L86.94,225.75L88.54,225.73L90.22,223.02L92.36,223.55L93.38,219.24L94.98,219.31L98.79,214.18L99.82,210.68L106.25,195.99L107.87,190.2L109.53,186.41L111.67,172.66L112.69,186.78L114.31,194.98L118.12,150.74L119.14,154.85L124.56,71.95L125.57,72.3L127.19,54.13L128.84,47.02L132.01,46.95L133.63,47.9L135.28,51.67L137.42,53.86L138.45,55.34L140.05,59.3L143.87,62.35" style="vector-effect: none; fill: none; stroke: rgb(253, 231, 37); stroke-opacity: 1; stroke-width: 1.5px; opacity: 1;"/></g><g class="points"/><g class="text"/></g><g class="trace scatter trace2353e0" style="stroke-miterlimit: 2; opacity: 1;"><g class="fills"/><g class="errorbars"/><g class="lines"><path class="js-line" d="M0,406L6.49,405.75L8.64,405.4L11.27,405.15L12.93,404.78L26.77,400.73L28.47,403.88L32.25,402.26L34.4,399.92L37.04,395.7L38.69,392.13L43.47,382.94L45.14,378.13L53.71,348.75L54.74,343.34L56.35,340.28L58,325.11L61.17,313.75L62.79,301.4L64.44,291.45L66.59,273.77L67.63,278.32L69.23,256.2L74.06,228.57L75.67,226.33L79.47,222.7L80.5,222.54L82.11,220.62L83.77,215.91L85.91,214.18L86.94,211.2L88.54,210.23L90.22,207.35L92.36,205.66L93.38,203.84L94.98,202.11L96.64,197.12L98.79,195.07L99.82,191.79L103.08,183.09L105.23,179.97L106.25,177.3L107.87,168.13L109.53,162.38L111.67,167.37L112.69,166.88L114.31,180.96L115.96,150.95L118.12,128.14L119.14,130.55L120.75,109.19L122.4,92.11L124.56,56.49L125.57,68.75L127.19,25.07L132.01,21.7L133.63,23.23L140.05,25.58L141.73,23.78L143.87,23.45" style="vector-effect: none; fill: none; stroke: rgb(253, 231, 37); stroke-opacity: 1; stroke-width: 1.5px; opacity: 1;"/></g><g class="points"/><g class="text"/></g></g></g></g><path class="xlines-above crisp" d="M37.5,464.25H182.36666666666667M37.5,29.75H182.36666666666667" style="fill: none; stroke-width: 0.5px; stroke: rgb(0, 0, 0); stroke-opacity: 1;"/><path class="ylines-above crisp" d="M37.75,30V464M182.11666666666667,30V464" style="fill: none; stroke-width: 0.5px; stroke: rgb(0, 0, 0); stroke-opacity: 1;"/><g class="overlines-above"/><g class="xaxislayer-above"><path class="xtick ticks crisp" d="M0,464v-5" transform="translate(70.2,0)" style="stroke: rgb(0, 0, 0); stroke-opacity: 1; stroke-width: 0.5px;"/><path class="xtick ticks crisp" d="M0,464v-5" transform="translate(102.39,0)" style="stroke: rgb(0, 0, 0); stroke-opacity: 1; stroke-width: 0.5px;"/><path class="xtick ticks crisp" d="M0,464v-5" transform="translate(134.59,0)" style="stroke: rgb(0, 0, 0); stroke-opacity: 1; stroke-width: 0.5px;"/><path class="xtick ticks crisp" d="M0,464v-5" transform="translate(166.78,0)" style="stroke: rgb(0, 0, 0); stroke-opacity: 1; stroke-width: 0.5px;"/><g class="xtick"><text text-anchor="middle" x="0" y="477.7" transform="translate(38,0)" style="font-family: 'Open Sans', verdana, arial, sans-serif; font-size: 11px; fill: rgb(0, 0, 0); fill-opacity: 1; white-space: pre; opacity: 1;">0</text></g><g class="xtick"><text text-anchor="middle" x="0" y="477.7" style="font-family: 'Open Sans', verdana, arial, sans-serif; font-size: 11px; fill: rgb(0, 0, 0); fill-opacity: 1; white-space: pre; opacity: 1;" transform="translate(70.2,0)">5</text></g><g class="xtick"><text text-anchor="middle" x="0" y="477.7" style="font-family: 'Open Sans', verdana, arial, sans-serif; font-size: 11px; fill: rgb(0, 0, 0); fill-opacity: 1; white-space: pre; opacity: 1;" transform="translate(102.39,0)">10</text></g><g class="xtick"><text text-anchor="middle" x="0" y="477.7" style="font-family: 'Open Sans', verdana, arial, sans-serif; font-size: 11px; fill: rgb(0, 0, 0); fill-opacity: 1; white-space: pre; opacity: 1;" transform="translate(134.59,0)">15</text></g><g class="xtick"><text text-anchor="middle" x="0" y="477.7" style="font-family: 'Open Sans', verdana, arial, sans-serif; font-size: 11px; fill: rgb(0, 0, 0); fill-opacity: 1; white-space: pre; opacity: 1;" transform="translate(166.78,0)">20</text></g></g><g class="yaxislayer-above"><path class="ytick ticks crisp" d="M38,0h5" transform="translate(0,444.47)" style="stroke: rgb(0, 0, 0); stroke-opacity: 1; stroke-width: 0.5px;"/><path class="ytick ticks crisp" d="M38,0h5" transform="translate(0,391.54)" style="stroke: rgb(0, 0, 0); stroke-opacity: 1; stroke-width: 0.5px;"/><path class="ytick ticks crisp" d="M38,0h5" transform="translate(0,338.62)" style="stroke: rgb(0, 0, 0); stroke-opacity: 1; stroke-width: 0.5px;"/><path class="ytick ticks crisp" d="M38,0h5" transform="translate(0,285.69)" style="stroke: rgb(0, 0, 0); stroke-opacity: 1; stroke-width: 0.5px;"/><path class="ytick ticks crisp" d="M38,0h5" transform="translate(0,232.76)" style="stroke: rgb(0, 0, 0); stroke-opacity: 1; stroke-width: 0.5px;"/><path class="ytick ticks crisp" d="M38,0h5" transform="translate(0,179.84)" style="stroke: rgb(0, 0, 0); stroke-opacity: 1; stroke-width: 0.5px;"/><path class="ytick ticks crisp" d="M38,0h5" transform="translate(0,126.91)" style="stroke: rgb(0, 0, 0); stroke-opacity: 1; stroke-width: 0.5px;"/><path class="ytick ticks crisp" d="M38,0h5" transform="translate(0,73.97999999999999)" style="stroke: rgb(0, 0, 0); stroke-opacity: 1; stroke-width: 0.5px;"/><g class="ytick"><text text-anchor="end" x="35.3" y="3.8499999999999996" transform="translate(0,444.47)" style="font-family: 'Open Sans', verdana, arial, sans-serif; font-size: 11px; fill: rgb(0, 0, 0); fill-opacity: 1; white-space: pre; opacity: 1;">0</text></g><g class="ytick"><text text-anchor="end" x="35.3" y="3.8499999999999996" style="font-family: 'Open Sans', verdana, arial, sans-serif; font-size: 11px; fill: rgb(0, 0, 0); fill-opacity: 1; white-space: pre; opacity: 1;" transform="translate(0,391.54)">0.1</text></g><g class="ytick"><text text-anchor="end" x="35.3" y="3.8499999999999996" style="font-family: 'Open Sans', verdana, arial, sans-serif; font-size: 11px; fill: rgb(0, 0, 0); fill-opacity: 1; white-space: pre; opacity: 1;" transform="translate(0,338.62)">0.2</text></g><g class="ytick"><text text-anchor="end" x="35.3" y="3.8499999999999996" style="font-family: 'Open Sans', verdana, arial, sans-serif; font-size: 11px; fill: rgb(0, 0, 0); fill-opacity: 1; white-space: pre; opacity: 1;" transform="translate(0,285.69)">0.3</text></g><g class="ytick"><text text-anchor="end" x="35.3" y="3.8499999999999996" style="font-family: 'Open Sans', verdana, arial, sans-serif; font-size: 11px; fill: rgb(0, 0, 0); fill-opacity: 1; white-space: pre; opacity: 1;" transform="translate(0,232.76)">0.4</text></g><g class="ytick"><text text-anchor="end" x="35.3" y="3.8499999999999996" style="font-family: 'Open Sans', verdana, arial, sans-serif; font-size: 11px; fill: rgb(0, 0, 0); fill-opacity: 1; white-space: pre; opacity: 1;" transform="translate(0,179.84)">0.5</text></g><g class="ytick"><text text-anchor="end" x="35.3" y="3.8499999999999996" style="font-family: 'Open Sans', verdana, arial, sans-serif; font-size: 11px; fill: rgb(0, 0, 0); fill-opacity: 1; white-space: pre; opacity: 1;" transform="translate(0,126.91)">0.6</text></g><g class="ytick"><text text-anchor="end" x="35.3" y="3.8499999999999996" style="font-family: 'Open Sans', verdana, arial, sans-serif; font-size: 11px; fill: rgb(0, 0, 0); fill-opacity: 1; white-space: pre; opacity: 1;" transform="translate(0,73.97999999999999)">0.7</text></g></g><g class="overaxes-above"/></g><g class="subplot x2y2"><g class="layer-subplot"><g class="shapelayer"/><g class="imagelayer"/></g><g class="minor-gridlayer"><g class="x2"/><g class="y2"/></g><g class="gridlayer"><g class="x2"><path class="x2grid crisp" transform="translate(247.26666666666665,0)" d="M0,30v434" style="stroke: rgb(128, 128, 128); stroke-opacity: 1; stroke-width: 0.2px;"/><path class="x2grid crisp" transform="translate(279.45666666666665,0)" d="M0,30v434" style="stroke: rgb(128, 128, 128); stroke-opacity: 1; stroke-width: 0.2px;"/><path class="x2grid crisp" transform="translate(311.65666666666664,0)" d="M0,30v434" style="stroke: rgb(128, 128, 128); stroke-opacity: 1; stroke-width: 0.2px;"/><path class="x2grid crisp" transform="translate(343.8466666666667,0)" d="M0,30v434" style="stroke: rgb(128, 128, 128); stroke-opacity: 1; stroke-width: 0.2px;"/></g><g class="y2"><path class="y2grid crisp" transform="translate(0,441.28)" d="M215.06666666666666,0h143.86666666666667" style="stroke: rgb(128, 128, 128); stroke-opacity: 1; stroke-width: 0.2px;"/><path class="y2grid crisp" transform="translate(0,373.11)" d="M215.06666666666666,0h143.86666666666667" style="stroke: rgb(128, 128, 128); stroke-opacity: 1; stroke-width: 0.2px;"/><path class="y2grid crisp" transform="translate(0,304.93)" d="M215.06666666666666,0h143.86666666666667" style="stroke: rgb(128, 128, 128); stroke-opacity: 1; stroke-width: 0.2px;"/><path class="y2grid crisp" transform="translate(0,236.76)" d="M215.06666666666666,0h143.86666666666667" style="stroke: rgb(128, 128, 128); stroke-opacity: 1; stroke-width: 0.2px;"/><path class="y2grid crisp" transform="translate(0,168.59)" d="M215.06666666666666,0h143.86666666666667" style="stroke: rgb(128, 128, 128); stroke-opacity: 1; stroke-width: 0.2px;"/><path class="y2grid crisp" transform="translate(0,100.42)" d="M215.06666666666666,0h143.86666666666667" style="stroke: rgb(128, 128, 128); stroke-opacity: 1; stroke-width: 0.2px;"/><path class="y2grid crisp" transform="translate(0,32.25)" d="M215.06666666666666,0h143.86666666666667" style="stroke: rgb(128, 128, 128); stroke-opacity: 1; stroke-width: 0.2px;"/></g></g><g class="zerolinelayer"/><g class="layer-between"><g class="shapelayer"/><g class="imagelayer"/></g><path class="xlines-below"/><path class="ylines-below"/><g class="overlines-below"/><g class="xaxislayer-below"/><g class="yaxislayer-below"/><g class="overaxes-below"/><g class="overplot"><g class="x2y2" transform="translate(215.06666666666666,30)" clip-path="url(#clip1af320x2y2plot)"><g class="scatterlayer mlayer"><g class="trace scatter tracef64384" style="stroke-miterlimit: 2; opacity: 1;"><g class="fills"/><g class="errorbars"/><g class="lines"><path class="js-line" d="M0,409.01L35.43,409.78L37.04,411.14L38.69,410.69L40.84,411.23L43.47,409.69L45.14,409.75L58,409.98L60.15,410.1L70.89,409.78L73.03,409.64L77.32,409.39L79.47,409.21L82.11,409.46L83.77,409.32L96.64,408.44L98.79,409.96L107.87,409.94L109.53,409.19L114.31,408.8L115.96,407.96L120.75,406.48L122.4,405.48L127.19,402.21L128.84,400.67L132.01,397.76L133.63,395.6L137.42,391.39L138.45,389.83L143.87,379.46" style="vector-effect: none; fill: none; stroke: rgb(53, 183, 121); stroke-opacity: 1; stroke-width: 1.5px; opacity: 1;"/></g><g class="points"/><g class="text"/></g><g class="trace scatter tracec27ca3" style="stroke-miterlimit: 2; opacity: 1;"><g class="fills"/><g class="errorbars"/><g class="lines"><path class="js-line" d="M0,408.94L26.77,409.19L28.47,409.03L29.16,409.39L30.59,409.16L35.43,409.44L37.04,411L38.69,410.62L40.84,411.03L43.47,409.62L45.14,409.55L77.32,409.66L79.47,409.41L85.91,409.23L86.94,409.07L96.64,408.78L98.79,410.23L112.69,409.01L114.31,408.73L122.4,405.69L124.56,404.03L127.19,402.21L128.84,400.39L132.01,398.51L133.63,395.94L135.28,394.46L137.42,391.46L143.87,378.78" style="vector-effect: none; fill: none; stroke: rgb(53, 183, 121); stroke-opacity: 1; stroke-width: 1.5px; opacity: 1;"/></g><g class="points"/><g class="text"/></g><g class="trace scatter trace8e5655" style="stroke-miterlimit: 2; opacity: 1;"><g class="fills"/><g class="errorbars"/><g class="lines"><path class="js-line" d="M0,407.91L9.67,408.23L11.27,408.14L16.1,408.26L17.71,408.1L22.54,408.37L25.38,408.21L35.43,408.48L37.04,410.05L38.69,409.32L40.84,409.87L43.47,408.19L45.14,408.26L56.35,408.07L58,408.62L70.89,408.41L73.03,408.48L77.32,407.89L79.47,407.98L80.5,408.32L82.11,408.03L92.35,407.85L93.38,407.64L96.64,407.55L98.79,409.28L101.42,409.14L103.08,409.23L112.69,408.19L114.31,407.71L122.4,404.46L124.56,402.53L125.57,402.39L127.19,401.19L135.28,392.48L137.42,389.69L143.87,377.15" style="vector-effect: none; fill: none; stroke: rgb(53, 183, 121); stroke-opacity: 1; stroke-width: 1.5px; opacity: 1;"/></g><g class="points"/><g class="text"/></g><g class="trace scatter trace4d45a0" style="stroke-miterlimit: 2; opacity: 1;"><g class="fills"/><g class="errorbars"/><g class="lines"><path class="js-line" d="M0,407.55L9.67,407.01L11.27,407.16L15.07,407.1L16.1,407.6L19.36,406.66L21.52,408.55L22.54,408.19L25.38,408.76L26.77,406.66L28.15,408.91L29.16,407.16L30.58,406.64L32.25,408.62L34.39,408.82L35.42,407.3L37.04,407.14L40.84,407.85L41.86,408.87L43.47,410.87L45.14,410.8L48.31,409.14L49.92,409.14L51.57,407.21L53.71,401.67L54.74,402.8L56.34,402.26L58,399.32L60.15,393.08L61.17,393.12L62.78,391.1L67.62,373.42L69.23,362.99L70.89,356.19L73.03,340.97L74.06,336.47L75.66,315.84L83.76,149.89L85.91,100.57L88.54,60.13L90.21,47.95L93.38,101.14L94.98,112.12L96.64,117.57L98.79,118.53L99.81,112.46L101.42,118.05L105.22,142.75L106.25,143.91L107.87,153.93L109.52,159.13L115.96,180.61L118.11,189.45L119.14,187.7L120.75,187.99L122.4,194.42L124.56,193.54L125.56,190.47L127.19,189.2L128.84,198.17L131,197.22L132.01,191.47L133.62,193.36L135.28,192.67L137.42,198.31L138.45,192.38L140.05,197.76L141.73,202.01L143.86,199.54" style="vector-effect: none; fill: none; stroke: rgb(49, 104, 142); stroke-opacity: 1; stroke-width: 1.5px; opacity: 1;"/></g><g class="points"/><g class="text"/></g><g class="trace scatter trace8daac8" style="stroke-miterlimit: 2; opacity: 1;"><g class="fills"/><g class="errorbars"/><g class="lines"><path class="js-line" d="M0,409.87L3.23,409.1L4.83,408.98L15.07,408.87L16.1,409.23L19.36,408.3L21.52,410.05L25.38,410.12L26.77,408.64L28.15,410.75L29.16,408.94L30.58,408.28L32.25,410.12L34.39,410.73L35.42,408.53L37.04,408.37L38.69,409.32L40.84,409.62L41.86,410.57L43.47,412.1L45.14,412.3L48.31,410.98L49.92,411.12L51.57,409.46L53.71,403.44L54.74,405.05L56.34,404.85L58,402.87L60.15,397.44L61.17,398.44L62.78,396.01L67.62,379.9L69.23,370.49L70.89,366.28L73.03,349.9L74.06,342.33L75.66,322.11L77.32,313.5L79.47,261.5L82.11,201.35L83.76,163.04L86.93,84.12L88.54,61.9L90.21,54.22L92.35,95.03L96.64,130.8L98.79,134.75L99.81,138.57L101.42,152.13L105.22,164.43L106.25,164.5L109.52,177.81L111.66,183.04L112.69,185.38L114.31,184.63L118.11,194.56L119.14,189.13L120.75,186.77L122.4,194.49L124.56,195.04L125.56,190.06L127.19,188.79L128.84,198.79L131,198.04L132.01,190.86L133.62,193.42L135.28,193.42L137.42,198.86L138.45,193.47L141.73,204.13L143.86,200.9" style="vector-effect: none; fill: none; stroke: rgb(49, 104, 142); stroke-opacity: 1; stroke-width: 1.5px; opacity: 1;"/></g><g class="points"/><g class="text"/></g><g class="trace scatter trace077394" style="stroke-miterlimit: 2; opacity: 1;"><g class="fills"/><g class="errorbars"/><g class="lines"><path class="js-line" d="M0,407.14L6.49,406.91L8.64,406.55L15.07,405.8L16.1,406.57L19.36,405.64L21.52,407.32L22.54,407.16L25.38,407.8L26.77,405.64L28.15,408.23L29.16,405.94L30.58,405.28L32.25,407.26L34.39,407.19L35.42,405.46L37.04,405.16L41.86,406.62L43.47,408.96L45.14,409.64L47.28,408.46L51.57,407.41L53.71,401.6L54.74,403.14L56.34,403.28L58,400.96L60.15,395.87L61.17,396.87L62.78,394.98L64.44,390.42L66.59,382.05L67.62,379.42L69.23,370.15L70.89,366.76L73.03,350.72L74.06,344.04L75.66,326.2L77.32,316.09L79.47,270.09L85.91,116.19L86.93,94.76L90.21,58.92L92.35,81.87L93.38,104.21L94.98,120.64L96.64,131.14L98.79,137.27L99.81,136.8L101.42,151.04L105.22,175.4L106.25,176.09L107.87,179.77L109.52,185.86L111.66,186.18L112.69,185.31L114.31,183.06L115.96,188.86L118.11,192.79L119.14,187.22L120.75,184.86L122.4,193.13L124.56,193.61L125.56,188.56L127.19,187.22L128.84,197.7L131,197.29L132.01,189.56L133.62,193.08L135.28,192.47L137.42,198.38L138.45,192.99L141.73,203.58L143.86,200.83" style="vector-effect: none; fill: none; stroke: rgb(49, 104, 142); stroke-opacity: 1; stroke-width: 1.5px; opacity: 1;"/></g><g class="points"/><g class="text"/></g><g class="trace scatter tracefdd96f" style="stroke-miterlimit: 2; opacity: 1;"><g class="fills"/><g class="errorbars"/><g class="lines"><path class="js-line" d="M0,406.37L3.23,407.12L4.84,407.05L19.36,406.37L21.53,402.64L22.54,406.07L25.38,406.6L26.77,404.35L28.47,406.37L30.59,407.26L32.25,407.62L37.04,407.28L38.69,405.96L41.87,405.21L43.47,405.51L48.31,404.1L49.92,403.64L53.71,399.98L54.74,400.85L56.35,398.48L58,398.1L62.79,393.19L64.44,389.44L69.23,379.76L70.89,374.15L77.32,351.47L79.47,339.54L80.5,336.74L82.11,326.36L86.94,291.25L88.54,274.73L90.22,257.05L92.36,242.94L96.64,204.67L98.79,186.97L103.08,145.64L105.23,127.77L106.25,102.6L107.87,113.69L109.53,136L111.67,132.82L112.69,129.66L114.31,131.64L115.96,127.34L118.12,124.34L119.14,120.23L120.75,119.03L122.4,116.73L124.56,111L125.57,102.12L127.19,100.26L128.84,96.82L131,84.67L132.01,78.6L133.63,73.56L135.28,67.58L137.42,49.81L140.05,25.11L141.73,22.65L143.87,24.88" style="vector-effect: none; fill: none; stroke: rgb(253, 231, 37); stroke-opacity: 1; stroke-width: 1.5px; opacity: 1;"/></g><g class="points"/><g class="text"/></g><g class="trace scatter trace786efc" style="stroke-miterlimit: 2; opacity: 1;"><g class="fills"/><g class="errorbars"/><g class="lines"><path class="js-line" d="M0,408.69L2.2,403.85L3.23,403.78L6.49,403.46L8.64,402.94L11.27,403.23L12.93,403.23L16.11,403.89L17.71,404.01L28.47,403.85L29.16,404.12L32.25,405.16L34.4,404.94L37.04,404.82L38.69,403.3L43.47,402.85L45.14,405.98L51.57,403.6L53.71,402.1L54.74,401.39L56.35,399.17L58,398.44L60.15,396.08L62.79,393.39L64.44,389.99L69.23,380.44L70.89,374.08L77.32,351.88L79.47,342.54L82.11,326.7L83.77,314.36L85.91,302.52L86.94,291.93L94.98,217.37L96.64,207.19L98.79,193.04L99.82,180.9L101.42,170.5L103.08,153.41L105.23,135.41L106.25,114.94L107.87,123.78L109.53,139.41L111.67,131.8L112.69,131.02L114.31,132.59L115.96,128.09L118.12,124.89L119.14,121.18L122.4,117L124.56,112.23L125.57,103.41L127.19,101.01L128.84,97.44L131,87.39L133.63,69.74L135.28,66.49L140.05,23.13L141.73,21.7L143.87,27.06" style="vector-effect: none; fill: none; stroke: rgb(253, 231, 37); stroke-opacity: 1; stroke-width: 1.5px; opacity: 1;"/></g><g class="points"/><g class="text"/></g><g class="trace scatter trace115003" style="stroke-miterlimit: 2; opacity: 1;"><g class="fills"/><g class="errorbars"/><g class="lines"><path class="js-line" d="M0,384.01L2.2,408.62L3.23,408.28L11.27,408.28L12.93,408.21L29.16,408.41L30.59,408.76L34.4,409.5L35.43,408.98L37.04,409.26L38.69,408.01L40.84,407.32L41.87,408.01L49.92,405.48L51.57,404.62L54.74,402.69L56.35,400.26L58,399.73L60.15,397.1L62.79,394.69L64.44,391.08L69.23,381.8L70.89,377.01L79.47,345.2L80.5,340.29L86.94,293.98L88.54,277.46L90.22,261.48L92.36,249.35L94.98,222.15L96.64,211.01L98.79,199.17L99.82,185.81L105.23,147.82L106.25,123.66L107.87,130.39L109.53,140.77L112.69,131.91L114.31,132.87L118.12,125.98L119.14,122.21L122.4,118.37L124.56,113.25L125.57,106.96L127.19,102.3L131,88.96L132.01,80.99L135.28,65.74L137.42,47.76L140.05,25.31L141.73,26.74L143.87,28.77" style="vector-effect: none; fill: none; stroke: rgb(253, 231, 37); stroke-opacity: 1; stroke-width: 1.5px; opacity: 1;"/></g><g class="points"/><g class="text"/></g></g></g></g><path class="xlines-above crisp" d="M214.56666666666666,464.25H359.43333333333334M214.56666666666666,29.75H359.43333333333334" style="fill: none; stroke-width: 0.5px; stroke: rgb(0, 0, 0); stroke-opacity: 1;"/><path class="ylines-above crisp" d="M214.81666666666666,30V464M359.18333333333334,30V464" style="fill: none; stroke-width: 0.5px; stroke: rgb(0, 0, 0); stroke-opacity: 1;"/><g class="overlines-above"/><g class="xaxislayer-above"><path class="x2tick ticks crisp" d="M0,464v-5" transform="translate(247.26666666666665,0)" style="stroke: rgb(0, 0, 0); stroke-opacity: 1; stroke-width: 0.5px;"/><path class="x2tick ticks crisp" d="M0,464v-5" transform="translate(279.45666666666665,0)" style="stroke: rgb(0, 0, 0); stroke-opacity: 1; stroke-width: 0.5px;"/><path class="x2tick ticks crisp" d="M0,464v-5" transform="translate(311.65666666666664,0)" style="stroke: rgb(0, 0, 0); stroke-opacity: 1; stroke-width: 0.5px;"/><path class="x2tick ticks crisp" d="M0,464v-5" transform="translate(343.8466666666667,0)" style="stroke: rgb(0, 0, 0); stroke-opacity: 1; stroke-width: 0.5px;"/><g class="x2tick"><text text-anchor="middle" x="0" y="477.7" transform="translate(215.06666666666666,0)" style="font-family: 'Open Sans', verdana, arial, sans-serif; font-size: 11px; fill: rgb(0, 0, 0); fill-opacity: 1; white-space: pre; opacity: 1;">0</text></g><g class="x2tick"><text text-anchor="middle" x="0" y="477.7" style="font-family: 'Open Sans', verdana, arial, sans-serif; font-size: 11px; fill: rgb(0, 0, 0); fill-opacity: 1; white-space: pre; opacity: 1;" transform="translate(247.26666666666665,0)">5</text></g><g class="x2tick"><text text-anchor="middle" x="0" y="477.7" style="font-family: 'Open Sans', verdana, arial, sans-serif; font-size: 11px; fill: rgb(0, 0, 0); fill-opacity: 1; white-space: pre; opacity: 1;" transform="translate(279.45666666666665,0)">10</text></g><g class="x2tick"><text text-anchor="middle" x="0" y="477.7" style="font-family: 'Open Sans', verdana, arial, sans-serif; font-size: 11px; fill: rgb(0, 0, 0); fill-opacity: 1; white-space: pre; opacity: 1;" transform="translate(311.65666666666664,0)">15</text></g><g class="x2tick"><text text-anchor="middle" x="0" y="477.7" style="font-family: 'Open Sans', verdana, arial, sans-serif; font-size: 11px; fill: rgb(0, 0, 0); fill-opacity: 1; white-space: pre; opacity: 1;" transform="translate(343.8466666666667,0)">20</text></g></g><g class="yaxislayer-above"><path class="y2tick ticks crisp" d="M215.06666666666666,0h5" transform="translate(0,441.28)" style="stroke: rgb(0, 0, 0); stroke-opacity: 1; stroke-width: 0.5px;"/><path class="y2tick ticks crisp" d="M215.06666666666666,0h5" transform="translate(0,373.11)" style="stroke: rgb(0, 0, 0); stroke-opacity: 1; stroke-width: 0.5px;"/><path class="y2tick ticks crisp" d="M215.06666666666666,0h5" transform="translate(0,304.93)" style="stroke: rgb(0, 0, 0); stroke-opacity: 1; stroke-width: 0.5px;"/><path class="y2tick ticks crisp" d="M215.06666666666666,0h5" transform="translate(0,236.76)" style="stroke: rgb(0, 0, 0); stroke-opacity: 1; stroke-width: 0.5px;"/><path class="y2tick ticks crisp" d="M215.06666666666666,0h5" transform="translate(0,168.59)" style="stroke: rgb(0, 0, 0); stroke-opacity: 1; stroke-width: 0.5px;"/><path class="y2tick ticks crisp" d="M215.06666666666666,0h5" transform="translate(0,100.42)" style="stroke: rgb(0, 0, 0); stroke-opacity: 1; stroke-width: 0.5px;"/><path class="y2tick ticks crisp" d="M215.06666666666666,0h5" transform="translate(0,32.25)" style="stroke: rgb(0, 0, 0); stroke-opacity: 1; stroke-width: 0.5px;"/><g class="y2tick"><text text-anchor="end" x="212.36666666666667" y="3.8499999999999996" transform="translate(0,441.28)" style="font-family: 'Open Sans', verdana, arial, sans-serif; font-size: 11px; fill: rgb(0, 0, 0); fill-opacity: 1; white-space: pre; opacity: 1;">0</text></g><g class="y2tick"><text text-anchor="end" x="212.36666666666667" y="3.8499999999999996" style="font-family: 'Open Sans', verdana, arial, sans-serif; font-size: 11px; fill: rgb(0, 0, 0); fill-opacity: 1; white-space: pre; opacity: 1;" transform="translate(0,373.11)">0.1</text></g><g class="y2tick"><text text-anchor="end" x="212.36666666666667" y="3.8499999999999996" style="font-family: 'Open Sans', verdana, arial, sans-serif; font-size: 11px; fill: rgb(0, 0, 0); fill-opacity: 1; white-space: pre; opacity: 1;" transform="translate(0,304.93)">0.2</text></g><g class="y2tick"><text text-anchor="end" x="212.36666666666667" y="3.8499999999999996" style="font-family: 'Open Sans', verdana, arial, sans-serif; font-size: 11px; fill: rgb(0, 0, 0); fill-opacity: 1; white-space: pre; opacity: 1;" transform="translate(0,236.76)">0.3</text></g><g class="y2tick"><text text-anchor="end" x="212.36666666666667" y="3.8499999999999996" style="font-family: 'Open Sans', verdana, arial, sans-serif; font-size: 11px; fill: rgb(0, 0, 0); fill-opacity: 1; white-space: pre; opacity: 1;" transform="translate(0,168.59)">0.4</text></g><g class="y2tick"><text text-anchor="end" x="212.36666666666667" y="3.8499999999999996" style="font-family: 'Open Sans', verdana, arial, sans-serif; font-size: 11px; fill: rgb(0, 0, 0); fill-opacity: 1; white-space: pre; opacity: 1;" transform="translate(0,100.42)">0.5</text></g><g class="y2tick"><text text-anchor="end" x="212.36666666666667" y="3.8499999999999996" style="font-family: 'Open Sans', verdana, arial, sans-serif; font-size: 11px; fill: rgb(0, 0, 0); fill-opacity: 1; white-space: pre; opacity: 1;" transform="translate(0,32.25)">0.6</text></g></g><g class="overaxes-above"/></g><g class="subplot x3y3"><g class="layer-subplot"><g class="shapelayer"/><g class="imagelayer"/></g><g class="minor-gridlayer"><g class="x3"/><g class="y3"/></g><g class="gridlayer"><g class="x3"><path class="x3grid crisp" transform="translate(424.3333333333333,0)" d="M0,30v434" style="stroke: rgb(128, 128, 128); stroke-opacity: 1; stroke-width: 0.2px;"/><path class="x3grid crisp" transform="translate(456.5233333333333,0)" d="M0,30v434" style="stroke: rgb(128, 128, 128); stroke-opacity: 1; stroke-width: 0.2px;"/><path class="x3grid crisp" transform="translate(488.72333333333336,0)" d="M0,30v434" style="stroke: rgb(128, 128, 128); stroke-opacity: 1; stroke-width: 0.2px;"/><path class="x3grid crisp" transform="translate(520.9133333333333,0)" d="M0,30v434" style="stroke: rgb(128, 128, 128); stroke-opacity: 1; stroke-width: 0.2px;"/></g><g class="y3"><path class="y3grid crisp" transform="translate(0,444.09)" d="M392.1333333333333,0h143.86666666666665" style="stroke: rgb(128, 128, 128); stroke-opacity: 1; stroke-width: 0.2px;"/><path class="y3grid crisp" transform="translate(0,388.09)" d="M392.1333333333333,0h143.86666666666665" style="stroke: rgb(128, 128, 128); stroke-opacity: 1; stroke-width: 0.2px;"/><path class="y3grid crisp" transform="translate(0,332.1)" d="M392.1333333333333,0h143.86666666666665" style="stroke: rgb(128, 128, 128); stroke-opacity: 1; stroke-width: 0.2px;"/><path class="y3grid crisp" transform="translate(0,276.1)" d="M392.1333333333333,0h143.86666666666665" style="stroke: rgb(128, 128, 128); stroke-opacity: 1; stroke-width: 0.2px;"/><path class="y3grid crisp" transform="translate(0,220.1)" d="M392.1333333333333,0h143.86666666666665" style="stroke: rgb(128, 128, 128); stroke-opacity: 1; stroke-width: 0.2px;"/><path class="y3grid crisp" transform="translate(0,164.11)" d="M392.1333333333333,0h143.86666666666665" style="stroke: rgb(128, 128, 128); stroke-opacity: 1; stroke-width: 0.2px;"/><path class="y3grid crisp" transform="translate(0,108.11)" d="M392.1333333333333,0h143.86666666666665" style="stroke: rgb(128, 128, 128); stroke-opacity: 1; stroke-width: 0.2px;"/><path class="y3grid crisp" transform="translate(0,52.11)" d="M392.1333333333333,0h143.86666666666665" style="stroke: rgb(128, 128, 128); stroke-opacity: 1; stroke-width: 0.2px;"/></g></g><g class="zerolinelayer"/><g class="layer-between"><g class="shapelayer"/><g class="imagelayer"/></g><path class="xlines-below"/><path class="ylines-below"/><g class="overlines-below"/><g class="xaxislayer-below"/><g class="yaxislayer-below"/><g class="overaxes-below"/><g class="overplot"><g class="x3y3" transform="translate(392.1333333333333,30)" clip-path="url(#clip1af320x3y3plot)"><g class="scatterlayer mlayer"><g class="trace scatter traceb04142" style="stroke-miterlimit: 2; opacity: 1;"><g class="fills"/><g class="errorbars"/><g class="lines"><path class="js-line" d="M0,411.5L19.36,411.31L21.52,411.16L26.77,411.25L28.47,411.29L32.25,410.75L34.4,410.96L37.04,411.35L38.69,411.59L40.84,411.87L41.87,411.01L43.47,409.48L45.14,409.99L54.74,409.91L56.35,408.88L58,409.78L60.15,409.93L70.89,407.2L73.03,406.08L75.66,404.54L77.32,402.74L80.5,399.57L82.11,396.42L88.54,379.93L90.22,375.08L96.64,351.45L98.79,343.29L107.87,299.82L109.53,290.36L115.96,252.67L118.12,235.29L119.14,236.8L120.75,210.97L124.56,171.72L125.57,175.02L127.19,140.88L128.84,145.04L133.63,128.56L135.28,124.55L138.45,116.93L140.05,114.67L141.73,114.13L143.87,112.4" style="vector-effect: none; fill: none; stroke: rgb(53, 183, 121); stroke-opacity: 1; stroke-width: 1.5px; opacity: 1;"/></g><g class="points"/><g class="text"/></g><g class="trace scatter trace2a0c28" style="stroke-miterlimit: 2; opacity: 1;"><g class="fills"/><g class="errorbars"/><g class="lines"><path class="js-line" d="M0,410.71L16.1,410.6L17.71,410.53L28.47,410.62L29.16,410.47L34.4,410.45L35.43,410.34L37.04,411.63L38.69,410.81L40.84,411.37L41.87,410.51L45.14,409.65L47.28,409.56L54.74,409.57L56.35,409.11L64.44,409.01L66.59,407.86L67.63,408.08L69.23,407.52L75.66,403.53L77.32,401.79L80.5,398.56L82.11,395.35L83.77,392.38L85.91,386.99L90.22,375.08L92.35,365.08L98.79,342.79L99.82,337.41L103.08,323.38L105.23,311.97L107.87,299.26L109.53,289.18L114.31,263.05L115.96,249.59L118.12,233.89L119.14,237.03L120.75,213.77L122.4,201.53L125.57,174.8L127.19,141.38L128.84,144.09L131,136.81L135.28,125.16L137.42,119.73L140.05,113.78L141.73,113.07L143.87,110.33" style="vector-effect: none; fill: none; stroke: rgb(53, 183, 121); stroke-opacity: 1; stroke-width: 1.5px; opacity: 1;"/></g><g class="points"/><g class="text"/></g><g class="trace scatter trace47df7a" style="stroke-miterlimit: 2; opacity: 1;"><g class="fills"/><g class="errorbars"/><g class="lines"><path class="js-line" d="M0,411.55L21.52,411.33L22.54,411.2L35.43,411.24L37.04,412.3L38.69,411.76L40.84,412.21L43.47,410.55L45.14,410.66L58,409.95L60.15,409.93L64.44,409.52L66.59,408.47L67.63,408.81L69.23,408.19L75.66,404.7L77.32,403.02L80.5,399.91L82.11,396.7L83.77,393.9L85.91,388.45L88.54,382.23L90.22,377.38L93.38,363.28L94.98,357.95L101.42,333.72L103.08,324.94L114.31,264.11L115.96,250.88L118.12,233.11L119.14,235.57L120.75,211.19L122.4,199.68L124.56,177.15L125.57,175.8L127.19,135.51L128.84,143.2L133.63,128L135.28,125.56L140.05,111.43L141.73,109.54L143.87,104.95" style="vector-effect: none; fill: none; stroke: rgb(53, 183, 121); stroke-opacity: 1; stroke-width: 1.5px; opacity: 1;"/></g><g class="points"/><g class="text"/></g><g class="trace scatter tracecd777c" style="stroke-miterlimit: 2; opacity: 1;"><g class="fills"/><g class="errorbars"/><g class="lines"><path class="js-line" d="M0,412.04L15.07,410.94L16.1,411.35L19.36,410.53L21.52,411.57L22.54,411.27L25.38,411.24L26.77,409.57L28.15,411.37L29.16,409.71L30.58,409.05L32.25,410.51L34.39,409.95L37.04,407.28L38.69,407.11L40.84,405.9L41.86,406.35L45.14,403.96L47.28,400.02L49.92,395.82L51.57,390.7L53.71,379.21L54.74,379.13L56.34,376.16L58,370.51L64.44,342.64L66.59,323.62L69.23,299.39L70.89,295.55L75.66,256.4L77.32,234.27L79.47,204.44L80.5,208.94L82.11,207.05L83.76,201.4L85.91,202.05L86.93,203.71L90.21,205.13L92.35,203.88L93.38,201.73L94.98,204.03L96.64,201.68L98.79,202.07L99.81,197.53L101.42,201.17L103.08,200.98L105.22,204.27L106.25,201.58L107.87,201.75L109.52,203.73L111.66,203.77L112.69,200.54L114.31,201.32L115.96,204.74L118.11,202.81L119.14,200.7L120.75,199.21L122.4,202.7L124.56,200.69L125.56,196.26L127.19,195.78L128.84,201.75L131,201.53L132.01,196.47L133.62,197.46L135.28,196.56L137.42,200.01L138.45,193.41L140.05,196.04L141.73,199.53L143.86,197.66" style="vector-effect: none; fill: none; stroke: rgb(49, 104, 142); stroke-opacity: 1; stroke-width: 1.5px; opacity: 1;"/></g><g class="points"/><g class="text"/></g><g class="trace scatter tracea7d041" style="stroke-miterlimit: 2; opacity: 1;"><g class="fills"/><g class="errorbars"/><g class="lines"><path class="js-line" d="M0,412.04L15.07,410.88L16.1,411.18L19.36,410.13L21.52,411.57L25.38,411.4L26.77,409.24L28.15,411.2L29.16,409.37L30.58,408.83L32.25,410.23L34.39,409.61L35.42,408.08L40.84,405.62L41.86,406.18L43.47,405.92L45.14,403.56L49.92,394.87L51.57,389.98L54.74,377.45L56.34,372.92L58,367.93L60.15,357.98L64.44,340.29L66.59,319.53L69.23,296.31L70.89,289.39L75.66,252.2L77.32,230.46L79.47,205.56L80.5,207.65L82.11,205.65L83.76,200.84L86.93,201.81L88.54,202.37L90.21,203.39L92.35,202.76L93.38,200.22L94.98,202.57L96.64,201.17L98.79,201.68L99.81,197.36L101.42,200.78L103.08,200.03L105.22,203.26L106.25,199.45L107.87,200.8L109.52,204.29L111.66,204.33L112.69,200.09L114.31,200.26L115.96,204.12L118.11,202.59L119.14,199.14L120.75,198.54L122.4,202.03L124.56,200.52L125.56,196.21L127.19,194.27L128.84,199.96L131,199.57L132.01,196.08L133.62,196.11L135.28,193.2L137.42,197.16L138.45,190.55L140.05,193.57L141.73,195.39L143.86,193.24" style="vector-effect: none; fill: none; stroke: rgb(49, 104, 142); stroke-opacity: 1; stroke-width: 1.5px; opacity: 1;"/></g><g class="points"/><g class="text"/></g><g class="trace scatter traced2f558" style="stroke-miterlimit: 2; opacity: 1;"><g class="fills"/><g class="errorbars"/><g class="lines"><path class="js-line" d="M0,411.76L6.49,411.29L8.64,410.94L12.93,410.38L15.07,410.6L16.1,410.79L17.71,410.28L19.36,410.13L21.52,411.4L22.54,410.83L25.38,411.12L26.77,409.01L28.15,411.03L29.16,409.31L30.58,408.66L32.25,410.17L34.39,409.56L35.42,407.91L37.04,407.11L40.84,405.45L41.86,406.07L43.47,405.47L45.14,403.62L49.92,395.76L51.57,390.65L53.71,379.21L54.74,378.01L56.34,375.04L58,370.23L64.44,340.34L66.59,321.27L69.23,295.64L70.89,291.63L75.66,254.11L77.32,232.42L79.47,206.73L80.5,209.66L82.11,208.06L83.76,202.63L85.91,203.28L86.93,204.49L88.54,204.44L90.21,205.69L92.35,206.4L93.38,203.52L94.98,204.87L96.64,203.92L98.79,203.24L99.81,199.16L101.42,202.24L103.08,202.16L105.22,204.27L106.25,201.58L107.87,202.14L109.52,206.3L111.66,204.61L112.69,201.94L114.31,202.27L115.96,206.64L118.11,206.12L119.14,203.73L120.75,202.74L122.4,206.06L124.56,204.94L125.56,201.64L127.19,199.75L128.84,205.78L131,205.17L132.01,200.67L133.62,202.16L135.28,199.47L137.42,203.77L138.45,196.82L141.73,204.62L143.86,200.97" style="vector-effect: none; fill: none; stroke: rgb(49, 104, 142); stroke-opacity: 1; stroke-width: 1.5px; opacity: 1;"/></g><g class="points"/><g class="text"/></g><g class="trace scatter tracec75619" style="stroke-miterlimit: 2; opacity: 1;"><g class="fills"/><g class="errorbars"/><g class="lines"><path class="js-line" d="M0,385.2L2.2,411.4L3.23,410.68L6.49,410.86L8.64,410.49L15.08,409.82L16.11,409.71L22.54,408.92L25.38,408.23L32.25,407.78L34.4,407.15L45.14,395.18L47.28,391.82L48.31,390.39L49.92,386.77L56.35,369.09L58,363.12L61.17,347.96L62.79,339.48L64.44,332.71L66.59,320.61L69.23,304.04L70.89,293.16L74.06,273.07L75.67,256.2L77.32,247.26L79.47,224.97L80.5,220.83L82.11,206.02L83.77,200.54L85.91,198.71L88.54,191.89L90.22,188.52L98.79,181.24L99.82,180.62L101.42,179.18L103.08,179.87L105.23,178.19L106.25,175.88L111.67,165.15L112.69,165.52L115.96,154.15L118.12,143.79L119.14,150.61L120.75,142.73L122.4,119.34L124.56,102.77L125.57,99.55L127.19,82.85L131,35.44L132.01,32.75L133.63,35.94L135.28,33.66L137.42,32L138.45,33.52L140.05,35.74L141.73,36.52L143.87,37.57" style="vector-effect: none; fill: none; stroke: rgb(253, 231, 37); stroke-opacity: 1; stroke-width: 1.5px; opacity: 1;"/></g><g class="points"/><g class="text"/></g><g class="trace scatter trace6db98c" style="stroke-miterlimit: 2; opacity: 1;"><g class="fills"/><g class="errorbars"/><g class="lines"><path class="js-line" d="M0,383.13L2.2,411.18L3.23,410.79L21.53,409.8L22.54,409.54L34.4,408.16L35.43,407.11L37.04,406.27L38.69,404.12L43.47,399.22L45.14,396.42L51.57,382.98L53.71,376.98L58,362.5L60.15,352.1L66.59,318.43L67.63,316.86L70.89,292.82L73.03,281.25L77.32,253.81L79.47,231.07L80.5,226.59L82.11,205.8L83.77,202.78L85.91,201.28L88.54,193.07L90.22,187.68L92.36,184.04L93.38,180.71L106.25,164.9L107.87,161.47L109.53,159.3L111.67,153.39L112.69,153.93L114.31,151.46L118.12,133.6L119.14,145.85L122.4,110.61L124.56,93.02L125.57,91.04L127.19,78.99L132.01,27.04L133.63,29.11L137.42,21.7L138.45,24.61L140.05,25.6L141.73,24.15L143.87,24.07" style="vector-effect: none; fill: none; stroke: rgb(253, 231, 37); stroke-opacity: 1; stroke-width: 1.5px; opacity: 1;"/></g><g class="points"/><g class="text"/></g><g class="trace scatter trace8f1a32" style="stroke-miterlimit: 2; opacity: 1;"><g class="fills"/><g class="errorbars"/><g class="lines"><path class="js-line" d="M0,379.26L2.2,410.62L3.23,410.62L19.36,409.56L21.53,409.35L25.38,408.96L26.77,408.62L34.4,408.04L35.43,407.17L37.04,406.49L38.69,404.18L43.47,399.1L45.14,396.42L51.57,382.53L53.71,376.14L56.35,368.25L58,362.16L64.44,331.53L66.59,317.98L67.63,316.13L69.23,302.92L75.67,258.83L77.32,253.3L79.47,231.07L80.5,230.51L82.11,206.86L83.77,203L85.91,201.17L86.94,195.61L90.22,186.72L92.36,183.42L94.98,179.67L96.64,177.07L106.25,165.13L107.87,161.36L109.53,160.37L111.67,154.45L112.69,154.77L114.31,151.46L118.12,135.56L119.14,146.52L122.4,111L124.56,93.81L125.57,91.16L127.19,76.97L132.01,25.13L133.63,27.82L137.42,21.92L138.45,23.83L140.05,25.1L141.73,24.76L143.87,26.31" style="vector-effect: none; fill: none; stroke: rgb(253, 231, 37); stroke-opacity: 1; stroke-width: 1.5px; opacity: 1;"/></g><g class="points"/><g class="text"/></g></g></g></g><path class="xlines-above crisp" d="M391.6333333333333,464.25H536.5M391.6333333333333,29.75H536.5" style="fill: none; stroke-width: 0.5px; stroke: rgb(0, 0, 0); stroke-opacity: 1;"/><path class="ylines-above crisp" d="M391.8833333333333,30V464M536.25,30V464" style="fill: none; stroke-width: 0.5px; stroke: rgb(0, 0, 0); stroke-opacity: 1;"/><g class="overlines-above"/><g class="xaxislayer-above"><path class="x3tick ticks crisp" d="M0,464v-5" transform="translate(424.3333333333333,0)" style="stroke: rgb(0, 0, 0); stroke-opacity: 1; stroke-width: 0.5px;"/><path class="x3tick ticks crisp" d="M0,464v-5" transform="translate(456.5233333333333,0)" style="stroke: rgb(0, 0, 0); stroke-opacity: 1; stroke-width: 0.5px;"/><path class="x3tick ticks crisp" d="M0,464v-5" transform="translate(488.72333333333336,0)" style="stroke: rgb(0, 0, 0); stroke-opacity: 1; stroke-width: 0.5px;"/><path class="x3tick ticks crisp" d="M0,464v-5" transform="translate(520.9133333333333,0)" style="stroke: rgb(0, 0, 0); stroke-opacity: 1; stroke-width: 0.5px;"/><g class="x3tick"><text text-anchor="middle" x="0" y="477.7" transform="translate(392.1333333333333,0)" style="font-family: 'Open Sans', verdana, arial, sans-serif; font-size: 11px; fill: rgb(0, 0, 0); fill-opacity: 1; white-space: pre; opacity: 1;">0</text></g><g class="x3tick"><text text-anchor="middle" x="0" y="477.7" style="font-family: 'Open Sans', verdana, arial, sans-serif; font-size: 11px; fill: rgb(0, 0, 0); fill-opacity: 1; white-space: pre; opacity: 1;" transform="translate(424.3333333333333,0)">5</text></g><g class="x3tick"><text text-anchor="middle" x="0" y="477.7" style="font-family: 'Open Sans', verdana, arial, sans-serif; font-size: 11px; fill: rgb(0, 0, 0); fill-opacity: 1; white-space: pre; opacity: 1;" transform="translate(456.5233333333333,0)">10</text></g><g class="x3tick"><text text-anchor="middle" x="0" y="477.7" style="font-family: 'Open Sans', verdana, arial, sans-serif; font-size: 11px; fill: rgb(0, 0, 0); fill-opacity: 1; white-space: pre; opacity: 1;" transform="translate(488.72333333333336,0)">15</text></g><g class="x3tick"><text text-anchor="middle" x="0" y="477.7" style="font-family: 'Open Sans', verdana, arial, sans-serif; font-size: 11px; fill: rgb(0, 0, 0); fill-opacity: 1; white-space: pre; opacity: 1;" transform="translate(520.9133333333333,0)">20</text></g></g><g class="yaxislayer-above"><path class="y3tick ticks crisp" d="M392.1333333333333,0h5" transform="translate(0,444.09)" style="stroke: rgb(0, 0, 0); stroke-opacity: 1; stroke-width: 0.5px;"/><path class="y3tick ticks crisp" d="M392.1333333333333,0h5" transform="translate(0,388.09)" style="stroke: rgb(0, 0, 0); stroke-opacity: 1; stroke-width: 0.5px;"/><path class="y3tick ticks crisp" d="M392.1333333333333,0h5" transform="translate(0,332.1)" style="stroke: rgb(0, 0, 0); stroke-opacity: 1; stroke-width: 0.5px;"/><path class="y3tick ticks crisp" d="M392.1333333333333,0h5" transform="translate(0,276.1)" style="stroke: rgb(0, 0, 0); stroke-opacity: 1; stroke-width: 0.5px;"/><path class="y3tick ticks crisp" d="M392.1333333333333,0h5" transform="translate(0,220.1)" style="stroke: rgb(0, 0, 0); stroke-opacity: 1; stroke-width: 0.5px;"/><path class="y3tick ticks crisp" d="M392.1333333333333,0h5" transform="translate(0,164.11)" style="stroke: rgb(0, 0, 0); stroke-opacity: 1; stroke-width: 0.5px;"/><path class="y3tick ticks crisp" d="M392.1333333333333,0h5" transform="translate(0,108.11)" style="stroke: rgb(0, 0, 0); stroke-opacity: 1; stroke-width: 0.5px;"/><path class="y3tick ticks crisp" d="M392.1333333333333,0h5" transform="translate(0,52.11)" style="stroke: rgb(0, 0, 0); stroke-opacity: 1; stroke-width: 0.5px;"/><g class="y3tick"><text text-anchor="end" x="389.43333333333334" y="3.8499999999999996" transform="translate(0,444.09)" style="font-family: 'Open Sans', verdana, arial, sans-serif; font-size: 11px; fill: rgb(0, 0, 0); fill-opacity: 1; white-space: pre; opacity: 1;">0</text></g><g class="y3tick"><text text-anchor="end" x="389.43333333333334" y="3.8499999999999996" style="font-family: 'Open Sans', verdana, arial, sans-serif; font-size: 11px; fill: rgb(0, 0, 0); fill-opacity: 1; white-space: pre; opacity: 1;" transform="translate(0,388.09)">0.1</text></g><g class="y3tick"><text text-anchor="end" x="389.43333333333334" y="3.8499999999999996" style="font-family: 'Open Sans', verdana, arial, sans-serif; font-size: 11px; fill: rgb(0, 0, 0); fill-opacity: 1; white-space: pre; opacity: 1;" transform="translate(0,332.1)">0.2</text></g><g class="y3tick"><text text-anchor="end" x="389.43333333333334" y="3.8499999999999996" style="font-family: 'Open Sans', verdana, arial, sans-serif; font-size: 11px; fill: rgb(0, 0, 0); fill-opacity: 1; white-space: pre; opacity: 1;" transform="translate(0,276.1)">0.3</text></g><g class="y3tick"><text text-anchor="end" x="389.43333333333334" y="3.8499999999999996" style="font-family: 'Open Sans', verdana, arial, sans-serif; font-size: 11px; fill: rgb(0, 0, 0); fill-opacity: 1; white-space: pre; opacity: 1;" transform="translate(0,220.1)">0.4</text></g><g class="y3tick"><text text-anchor="end" x="389.43333333333334" y="3.8499999999999996" style="font-family: 'Open Sans', verdana, arial, sans-serif; font-size: 11px; fill: rgb(0, 0, 0); fill-opacity: 1; white-space: pre; opacity: 1;" transform="translate(0,164.11)">0.5</text></g><g class="y3tick"><text text-anchor="end" x="389.43333333333334" y="3.8499999999999996" style="font-family: 'Open Sans', verdana, arial, sans-serif; font-size: 11px; fill: rgb(0, 0, 0); fill-opacity: 1; white-space: pre; opacity: 1;" transform="translate(0,108.11)">0.6</text></g><g class="y3tick"><text text-anchor="end" x="389.43333333333334" y="3.8499999999999996" style="font-family: 'Open Sans', verdana, arial, sans-serif; font-size: 11px; fill: rgb(0, 0, 0); fill-opacity: 1; white-space: pre; opacity: 1;" transform="translate(0,52.11)">0.7</text></g></g><g class="overaxes-above"/></g></g><g class="polarlayer"/><g class="smithlayer"/><g class="ternarylayer"/><g class="geolayer"/><g class="funnelarealayer"/><g class="pielayer"/><g class="iciclelayer"/><g class="treemaplayer"/><g class="sunburstlayer"/><g class="glimages"/><defs id="topdefs-1af320"><g class="clips"/><clipPath id="legend1af320"><rect width="142" height="87" x="0" y="0"/></clipPath></defs><g class="layer-above"><g class="imagelayer"/><g class="shapelayer"/></g><g class="infolayer"><g class="legend" pointer-events="all" transform="translate(545.96,30)"><rect class="bg" shape-rendering="crispEdges" width="142" height="87" x="0" y="0" style="stroke: rgb(68, 68, 68); stroke-opacity: 1; fill: rgb(255, 255, 255); fill-opacity: 1; stroke-width: 0px;"/><g class="scrollbox" transform="" clip-path="url(#legend1af320)"><g class="groups" transform=""><g class="traces" transform="translate(0,14.5)" style="opacity: 1;"><text class="legendtext" text-anchor="start" x="40" y="4.29" style="font-family: 'Open Sans', verdana, arial, sans-serif; font-size: 11px; fill: rgb(0, 0, 0); fill-opacity: 1; white-space: pre;">Glucose</text><g class="layers" style="opacity: 1;"><g class="legendfill"/><g class="legendlines"><path class="js-line" d="M5,0h30" style="fill: none; stroke: rgb(53, 183, 121); stroke-opacity: 1; stroke-width: 1.5px;"/></g><g class="legendsymbols"><g class="legendpoints"/></g></g><rect class="legendtoggle" x="0" y="-9.5" width="136.109375" height="19" style="fill: rgb(0, 0, 0); fill-opacity: 0;"/></g></g><g class="groups" transform="translate(0,10)"><g class="traces" transform="translate(0,33.5)" style="opacity: 1;"><text class="legendtext" text-anchor="start" x="40" y="4.29" style="font-family: 'Open Sans', verdana, arial, sans-serif; font-size: 11px; fill: rgb(0, 0, 0); fill-opacity: 1; white-space: pre;">Succinate</text><g class="layers" style="opacity: 1;"><g class="legendfill"/><g class="legendlines"><path class="js-line" d="M5,0h30" style="fill: none; stroke: rgb(49, 104, 142); stroke-opacity: 1; stroke-width: 1.5px;"/></g><g class="legendsymbols"><g class="legendpoints"/></g></g><rect class="legendtoggle" x="0" y="-9.5" width="136.109375" height="19" style="fill: rgb(0, 0, 0); fill-opacity: 0;"/></g></g><g class="groups" transform="translate(0,20)"><g class="traces" transform="translate(0,52.5)" style="opacity: 1;"><text class="legendtext" text-anchor="start" x="40" y="4.29" style="font-family: 'Open Sans', verdana, arial, sans-serif; font-size: 11px; fill: rgb(0, 0, 0); fill-opacity: 1; white-space: pre;">Succinate+Glucose</text><g class="layers" style="opacity: 1;"><g class="legendfill"/><g class="legendlines"><path class="js-line" d="M5,0h30" style="fill: none; stroke: rgb(253, 231, 37); stroke-opacity: 1; stroke-width: 1.5px;"/></g><g class="legendsymbols"><g class="legendpoints"/></g></g><rect class="legendtoggle" x="0" y="-9.5" width="136.109375" height="19" style="fill: rgb(0, 0, 0); fill-opacity: 0;"/></g></g></g><rect class="scrollbar" rx="20" ry="3" width="0" height="0" x="0" y="0" style="fill: rgb(128, 139, 164); fill-opacity: 1;"/></g><g class="g-gtitle"><text class="gtitle" x="35" y="15" text-anchor="start" dy="0em" style="opacity: 1; font-family: 'Open Sans', verdana, arial, sans-serif; font-size: 11px; fill: rgb(0, 0, 0); fill-opacity: 1; white-space: pre;">Growth on Succinate+Glucose</text></g><g class="g-xtitle"/><g class="g-x2title" transform="translate(0,4.550000000000011)"><text class="x2title" x="287" y="488.153125" text-anchor="middle" style="opacity: 1; font-family: 'Open Sans', verdana, arial, sans-serif; font-size: 11px; fill: rgb(0, 0, 0); fill-opacity: 1; white-space: pre;">Time (hours)</text></g><g class="g-x3title"/><g class="g-ytitle"><text class="ytitle" transform="rotate(-90,16.18125,247)" x="16.18125" y="247" text-anchor="middle" style="opacity: 1; font-family: 'Open Sans', verdana, arial, sans-serif; font-size: 11px; fill: rgb(0, 0, 0); fill-opacity: 1; white-space: pre;">OD600</text></g><g class="g-y2title"/><g class="g-y3title"/><g class="annotation" data-index="0" style="opacity: 1;"><g class="annotation-text-g" transform="rotate(0,109.93333333333334,20.5)"><g class="cursor-pointer" transform="translate(102,11)"><rect class="bg" x="0.5" y="0.5" width="14" height="18" style="stroke-width: 1px; stroke: rgb(0, 0, 0); stroke-opacity: 0; fill: rgb(0, 0, 0); fill-opacity: 0;"/><text class="annotation-text" text-anchor="middle" x="7.4375" y="14" style="font-family: 'Open Sans', verdana, arial, sans-serif; font-size: 11px; fill: rgb(0, 0, 0); fill-opacity: 1; white-space: pre;">At</text></g></g></g><g class="annotation" data-index="1" style="opacity: 1;"><g class="annotation-text-g" transform="rotate(0,287,20.5)"><g class="cursor-pointer" transform="translate(278,11)"><rect class="bg" x="0.5" y="0.5" width="18" height="18" style="stroke-width: 1px; stroke: rgb(0, 0, 0); stroke-opacity: 0; fill: rgb(0, 0, 0); fill-opacity: 0;"/><text class="annotation-text" text-anchor="middle" x="9.34375" y="14" style="font-family: 'Open Sans', verdana, arial, sans-serif; font-size: 11px; fill: rgb(0, 0, 0); fill-opacity: 1; white-space: pre;">Oa</text></g></g></g><g class="annotation" data-index="2" style="opacity: 1;"><g class="annotation-text-g" transform="rotate(0,464.0666666666667,20.5)"><g class="cursor-pointer" transform="translate(446,11)"><rect class="bg" x="0.5" y="0.5" width="35" height="18" style="stroke-width: 1px; stroke: rgb(0, 0, 0); stroke-opacity: 0; fill: rgb(0, 0, 0); fill-opacity: 0;"/><text class="annotation-text" text-anchor="middle" x="17.921875" y="14" style="font-family: 'Open Sans', verdana, arial, sans-serif; font-size: 11px; fill: rgb(0, 0, 0); fill-opacity: 1; white-space: pre;">At+Oa</text></g></g></g></g></svg>