<svg class="main-svg" xmlns="http://www.w3.org/2000/svg" xmlns:xlink="http://www.w3.org/1999/xlink" width="700" height="500" style="" viewBox="0 0 700 500"><rect x="0" y="0" width="700" height="500" style="fill: rgb(255, 255, 255); fill-opacity: 1;"/><defs id="defs-e3e1b9"><g class="clips"><clipPath id="clipe3e1b9xyplot" class="plotclip"><rect width="498" height="121.52000000000001"/></clipPath><clipPath id="clipe3e1b9x2y2plot" class="plotclip"><rect width="498" height="121.51999999999997"/></clipPath><clipPath id="clipe3e1b9x3y3plot" class="plotclip"><rect width="498" height="121.51999999999998"/></clipPath><clipPath class="axesclip" id="clipe3e1b9x"><rect x="38" y="0" width="498" height="500"/></clipPath><clipPath class="axesclip" id="clipe3e1b9y"><rect x="0" y="30" width="700" height="121.52000000000001"/></clipPath><clipPath class="axesclip" id="clipe3e1b9xy"><rect x="38" y="30" width="498" height="121.52000000000001"/></clipPath><clipPath class="axesclip" id="clipe3e1b9y2"><rect x="0" y="186.24000000000004" width="700" height="121.51999999999997"/></clipPath><clipPath class="axesclip" id="clipe3e1b9xy2"><rect x="38" y="186.24000000000004" width="498" height="121.51999999999997"/></clipPath><clipPath class="axesclip" id="clipe3e1b9y3"><rect x="0" y="342.47999999999996" width="700" height="121.51999999999998"/></clipPath><clipPath class="axesclip" id="clipe3e1b9xy3"><rect x="38" y="342.47999999999996" width="498" height="121.51999999999998"/></clipPath><clipPath class="axesclip" id="clipe3e1b9x2"><rect x="38" y="0" width="498" height="500"/></clipPath><clipPath class="axesclip" id="clipe3e1b9x2y"><rect x="38" y="30" width="498" height="121.52000000000001"/></clipPath><clipPath class="axesclip" id="clipe3e1b9x2y2"><rect x="38" y="186.24000000000004" width="498" height="121.51999999999997"/></clipPath><clipPath class="axesclip" id="clipe3e1b9x2y3"><rect x="38" y="342.47999999999996" width="498" height="121.51999999999998"/></clipPath><clipPath class="axesclip" id="clipe3e1b9x3"><rect x="38" y="0" width="498" height="500"/></clipPath><clipPath class="axesclip" id="clipe3e1b9x3y"><rect x="38" y="30" width="498" height="121.52000000000001"/></clipPath><clipPath class="axesclip" id="clipe3e1b9x3y2"><rect x="38" y="186.24000000000004" width="498" height="121.51999999999997"/></clipPath><clipPath class="axesclip" id="clipe3e1b9x3y3"><rect x="38" y="342.47999999999996" width="498" height="121.51999999999998"/></clipPath></g><g class="gradients"/><g class="patterns"/></defs><g class="bglayer"/><g class="layer-below"><g class="imagelayer"/><g class="shapelayer"/></g><g class="cartesianlayer"><g class="subplot xy"><g class="layer-subplot"><g class="shapelayer"/><g class="imagelayer"/></g><g class="minor-gridlayer"><g class="x"/><g class="y"/></g><g class="gridlayer"><g class="x"><path class="xgrid crisp" transform="translate(109.65,0)" d="M0,30v121.52000000000001" style="stroke: rgb(128, 128, 128); stroke-opacity: 1; stroke-width: 0.2px;"/><path class="xgrid crisp" transform="translate(181.3,0)" d="M0,30v121.52000000000001" style="stroke: rgb(128, 128, 128); stroke-opacity: 1; stroke-width: 0.2px;"/><path class="xgrid crisp" transform="translate(252.95,0)" d="M0,30v121.52000000000001" style="stroke: rgb(128, 128, 128); stroke-opacity: 1; stroke-width: 0.2px;"/><path class="xgrid crisp" transform="translate(324.6,0)" d="M0,30v121.52000000000001" style="stroke: rgb(128, 128, 128); stroke-opacity: 1; stroke-width: 0.2px;"/><path class="xgrid crisp" transform="translate(396.25,0)" d="M0,30v121.52000000000001" style="stroke: rgb(128, 128, 128); stroke-opacity: 1; stroke-width: 0.2px;"/><path class="xgrid crisp" transform="translate(467.9,0)" d="M0,30v121.52000000000001" style="stroke: rgb(128, 128, 128); stroke-opacity: 1; stroke-width: 0.2px;"/></g><g class="y"><path class="ygrid crisp" transform="translate(0,145.95999999999998)" d="M38,0h498" style="stroke: rgb(128, 128, 128); stroke-opacity: 1; stroke-width: 0.2px;"/><path class="ygrid crisp" transform="translate(0,120.57)" d="M38,0h498" style="stroke: rgb(128, 128, 128); stroke-opacity: 1; stroke-width: 0.2px;"/><path class="ygrid crisp" transform="translate(0,95.18)" d="M38,0h498" style="stroke: rgb(128, 128, 128); stroke-opacity: 1; stroke-width: 0.2px;"/><path class="ygrid crisp" transform="translate(0,69.78)" d="M38,0h498" style="stroke: rgb(128, 128, 128); stroke-opacity: 1; stroke-width: 0.2px;"/><path class="ygrid crisp" transform="translate(0,44.39)" d="M38,0h498" style="stroke: rgb(128, 128, 128); stroke-opacity: 1; stroke-width: 0.2px;"/></g></g><g class="zerolinelayer"/><g class="layer-between"><g class="shapelayer"/><g class="imagelayer"/></g><path class="xlines-below"/><path class="ylines-below"/><g class="overlines-below"/><g class="xaxislayer-below"/><g class="yaxislayer-below"/><g class="overaxes-below"/><g class="overplot"><g class="xy" transform="translate(38,30)" clip-path="url(#clipe3e1b9xyplot)"><g class="scatterlayer mlayer"><g class="trace scatter trace43654d" style="stroke-miterlimit: 2; opacity: 1;"><g class="fills"/><g class="errorbars"/><g class="lines"><path class="js-line" d="M0,115.06L19.23,114.17L21.52,115.08L121.83,114.12L125.39,113.91L133.85,113.24L136.14,113.91L148.19,112.81L150.5,112.63L162.53,110.3L164.82,109.82L172.08,107.7L176.86,105.85L205.53,91.2L207.82,89.33L211.37,87.41L215.06,84.51L225.7,77.77L229.39,75.19L234.17,72.37L236.46,71.95L248.5,63.47L250.78,60.51L254.39,55.7L258.06,46.39L262.86,41.05L265.14,40.75L268.72,40.87L272.39,40.1L283.05,36.91L286.72,36.26L297.38,34.92L301.05,35.11L315.41,32.03L320.16,31.95L322.45,31.37L326.02,28.62L329.73,31.06L334.49,30.3L340.34,28.85L344.04,29.58L348.84,28.15L351.1,28.3L358.37,29.55L363.15,28.93L365.43,28.17L369.01,28.3L372.7,28.49L379.48,28.06L381.02,28.56L384.1,28.6L387.87,28.43L392.33,27.17L396.72,28.66L400.27,27.69L406.46,27.8L408.44,26.95L411.98,27.09L415.71,26.29L420.46,25.63L422.74,24.02L430.05,26.23L434.8,25.63L437.08,26L440.68,25.52L449.15,26.23L451.43,25.65L454.98,26.54L458.7,26.04L465.74,25.66L469.31,24.86L473,25.25L477.78,24.72L480.06,26.04L483.64,25.59L487.34,25.84L492.1,24.94L494.43,25.39L498,24.51" style="vector-effect: none; fill: none; stroke: rgb(53, 183, 121); stroke-opacity: 1; stroke-width: 1.5px; opacity: 1;"/></g><g class="points"/><g class="text"/></g><g class="trace scatter trace8bdb3b" style="stroke-miterlimit: 2; opacity: 1;"><g class="fills"/><g class="errorbars"/><g class="lines"><path class="js-line" d="M0,115.25L50.17,115.13L56.49,115.14L136.14,114.37L139.72,114.19L154.07,112.82L157.75,112.12L172.08,108.66L176.86,107.09L179.15,106.41L182.74,104.39L197.03,97.57L200.77,95.78L215.06,86.93L219.84,83.05L222.13,83.28L225.7,78.25L234.17,72.67L236.46,72.33L240.06,68.11L243.75,65.88L248.5,64.21L250.78,60.22L258.06,51.44L262.86,42.39L265.14,41.29L268.72,41.12L293.77,35.87L297.38,35.34L301.05,35.56L305.82,34.47L311.68,33.89L315.41,32.45L322.45,32.07L326.02,29.78L329.73,31.86L334.49,31.36L344.04,30.52L348.84,28.99L354.68,29.84L358.37,30.42L369.01,29.44L372.7,29.5L381.02,29.45L384.1,29.79L387.87,29.76L392.33,27.94L396.72,25.06L400.27,28.09L406.46,28.88L408.44,27.29L411.98,28.09L415.71,27.43L420.46,26.78L422.74,24.75L426.32,26.63L430.05,27.42L437.08,26.43L440.68,26.97L449.15,27.79L451.43,26.5L454.98,28.01L458.7,27.36L463.45,27.6L465.74,26.57L477.78,26.56L480.06,27.61L498,26.31" style="vector-effect: none; fill: none; stroke: rgb(53, 183, 121); stroke-opacity: 1; stroke-width: 1.5px; opacity: 1;"/></g><g class="points"/><g class="text"/></g><g class="trace scatter trace31e4ba" style="stroke-miterlimit: 2; opacity: 1;"><g class="fills"/><g class="errorbars"/><g class="lines"><path class="js-line" d="M0,115.38L125.39,114.73L129.09,114.68L154.07,113L157.75,112.37L172.08,109.02L176.86,107.35L179.15,106.73L182.74,104.86L205.53,93.72L207.82,92.25L211.37,90.83L215.06,88.29L219.84,84.6L222.13,85.37L225.7,79.66L229.39,76.18L236.46,72.57L240.06,67.39L243.75,65L248.5,62.9L250.78,60.39L254.39,53.01L265.14,40.82L268.72,40.6L277.19,38.93L279.44,38.34L286.72,36.79L291.54,36.38L297.38,35.34L301.05,35.63L315.41,32.59L320.16,32.99L322.45,32.32L326.02,29.6L329.73,32.09L334.49,31.49L340.34,30.26L344.04,30.8L348.84,29.24L351.1,29.54L358.37,30.72L363.15,30.29L365.43,29.62L369.01,29.76L372.7,29.93L379.48,29.46L384.1,30.21L387.87,30.21L392.33,28.81L396.72,24.02L400.27,24.31L403.38,27.17L406.46,29.29L408.44,27.28L411.98,28.85L415.71,28.17L420.46,27.52L422.74,24.21L426.32,27.5L430.05,28.31L434.8,27.94L437.08,25.96L440.68,27.88L444.34,28.23L449.15,28.47L451.43,26.55L454.98,28.88L458.7,28.16L463.45,28.38L465.74,26.51L473,28.06L477.78,27.47L487.34,28.57L492.1,27.87L494.43,26.81L498,27.38" style="vector-effect: none; fill: none; stroke: rgb(53, 183, 121); stroke-opacity: 1; stroke-width: 1.5px; opacity: 1;"/></g><g class="points"/><g class="text"/></g><g class="trace scatter trace8065d3" style="stroke-miterlimit: 2; opacity: 1;"><g class="fills"/><g class="errorbars"/><g class="lines"><path class="js-line" d="M0,115.4L19.22,115.14L21.51,115.14L76.54,113.98L78.83,113.62L96.73,111.83L100.45,110.53L114.76,104.59L119.53,100.92L129.08,99.5L133.85,95.12L139.72,92.5L143.4,87.71L148.18,83.41L150.49,82.97L157.75,73.54L162.52,69.86L164.82,67.55L168.38,65.49L176.85,62.84L179.14,62.44L182.74,61.83L186.41,60.21L197.03,57.28L200.76,56.94L211.36,54.13L215.06,53.81L222.12,50.98L225.7,51.56L236.45,50.51L240.06,50.75L248.5,51.32L250.78,50.02L262.85,51.17L265.13,50.76L268.72,51.17L272.39,52.38L279.43,51.45L283.04,51.2L286.72,52.57L291.52,52.42L293.77,51.73L297.37,51.87L301.05,51.44L305.82,52.5L308.1,51.4L311.67,51.73L320.16,51.54L322.45,51.26L326.01,50.19L329.73,50.57L334.48,52.06L336.77,51.76L340.33,51.92L344.04,52.89L354.67,53.41L358.37,54.27L363.14,54.32L365.42,52.39L372.7,53.6L379.47,54.37L387.85,54.4L392.29,55.34L394.19,58.71L400.27,59.62L403.37,60.79L406.46,60.8L408.43,59.78L411.98,60.17L415.71,58.16L420.45,56.6L422.74,57.46L426.31,61.77L430.04,57.93L434.79,59.06L437.08,55.74L440.68,58.67L444.34,56.85L449.15,59.27L451.42,60.52L454.98,57.85L458.7,61.74L463.45,61.44L465.73,62.56L469.31,60.87L480.06,59.33L483.64,63.06L487.33,63.53L492.1,63.18L494.42,61.27L498,62.72" style="vector-effect: none; fill: none; stroke: rgb(49, 104, 142); stroke-opacity: 1; stroke-width: 1.5px; opacity: 1;"/></g><g class="points"/><g class="text"/></g><g class="trace scatter tracee2e6f2" style="stroke-miterlimit: 2; opacity: 1;"><g class="fills"/><g class="errorbars"/><g class="lines"><path class="js-line" d="M0,115.41L25.08,114.86L28.77,113.73L35.83,112.55L39.4,107.99L43.09,114.14L47.9,113.23L50.16,104.27L56.48,113.77L62.65,111.4L64.9,114.26L82.42,113.18L86.1,112.81L96.73,111.58L100.45,110.2L114.76,104.29L119.53,100.74L121.82,99.9L125.39,99.9L129.08,99.07L133.85,94.98L136.13,94.15L139.72,92.01L143.4,87.03L148.18,83.05L150.49,83.35L154.07,79.42L157.75,74.71L162.52,71L164.82,68.12L168.38,66.05L193.47,58.78L197.03,58.32L200.76,58.24L205.52,56.91L207.81,55.99L211.36,55.79L215.06,55.67L219.84,54.2L222.12,52.96L225.7,53.41L236.45,51.76L240.06,51.84L248.5,52.23L250.78,51.16L258.06,52.62L262.85,52.24L265.13,51.32L268.72,51.38L272.39,52.42L277.19,52.43L279.43,51.73L283.04,51.48L286.72,52.25L291.52,51.67L293.77,51.15L297.37,51.37L301.05,51.18L305.82,52.07L308.1,50.47L311.67,51.53L315.4,51.53L320.16,50.71L322.45,50.46L326.01,49.26L336.77,50.13L340.33,50L344.04,50.68L348.84,50.19L351.09,50.02L354.67,50.59L358.37,51.58L363.14,51.51L365.42,49.55L369,50.82L392.29,52.42L394.19,54.04L400.27,56.56L403.37,56.78L406.46,57.11L408.43,53.4L411.98,56.76L415.71,54.96L420.45,53L422.74,48.72L426.31,54.75L430.04,53.61L434.79,55.26L437.08,45.91L440.68,50.85L444.34,52.19L449.15,55.56L451.42,51.51L454.98,51.23L458.7,56.69L463.45,56.83L465.73,53.28L469.31,53.1L473,55.1L477.77,55.35L480.06,48.88L483.64,55.25L487.33,57.9L492.1,57.79L494.42,51.21L498,53.87" style="vector-effect: none; fill: none; stroke: rgb(49, 104, 142); stroke-opacity: 1; stroke-width: 1.5px; opacity: 1;"/></g><g class="points"/><g class="text"/></g><g class="trace scatter trace1b5d85" style="stroke-miterlimit: 2; opacity: 1;"><g class="fills"/><g class="errorbars"/><g class="lines"><path class="js-line" d="M0,115.38L33.54,115.06L35.83,115.1L78.83,113.75L82.42,113.26L96.73,111.53L100.45,110.16L114.76,104.4L119.53,100.97L121.82,99.95L125.39,99.63L129.08,99.29L133.85,94.63L136.13,94.03L139.72,91.84L143.4,86.25L148.18,82.22L150.49,83.09L154.07,78.86L157.75,73.65L162.52,69.9L164.82,67.31L168.38,65.2L179.14,62.59L182.74,62.34L191.18,59.33L193.47,58.68L205.52,56.67L207.81,55.45L215.06,55.1L219.84,53.8L222.12,52.46L225.7,53.05L236.45,50.94L240.06,51.22L243.74,51.54L248.5,51.11L250.78,49.39L254.38,50.06L258.06,50.67L262.85,50.09L265.13,49.47L268.72,49.64L272.39,50.54L277.19,49.83L279.43,49.13L283.04,49.07L286.72,49.18L291.52,48.48L293.77,47.9L297.37,48.41L301.05,47.95L305.82,48.95L308.1,47.6L311.67,48.06L320.16,47.16L322.45,46.6L326.01,45.51L329.73,45.94L336.77,46.66L340.33,46.87L344.04,47.75L348.84,47L351.09,46.83L354.67,47.49L358.37,48.45L363.14,48.28L365.42,46.26L369,47.53L392.29,49.64L394.19,48.21L400.27,53.29L403.37,48.72L408.43,42.21L411.98,41.06L415.71,37.7L420.45,35L422.74,33.85L426.31,36.79L430.04,31.99L434.79,32.73L437.08,27.93L440.68,29.91L444.34,27.13L449.15,29.33L451.42,29.68L454.98,26.18L458.7,29.91L463.45,27.82L465.73,28.71L469.31,25.65L473,25.41L477.77,24.25L480.06,22.88L483.64,26.76L492.1,27.03L494.42,24.57L498,25.9" style="vector-effect: none; fill: none; stroke: rgb(49, 104, 142); stroke-opacity: 1; stroke-width: 1.5px; opacity: 1;"/></g><g class="points"/><g class="text"/></g><g class="trace scatter trace88f312" style="stroke-miterlimit: 2; opacity: 1;"><g class="fills"/><g class="errorbars"/><g class="lines"><path class="js-line" d="M0,115.25L71.77,113.2L76.55,112.66L100.45,107.56L105.22,105.89L111.09,103.88L114.76,102.26L119.53,100.73L121.83,99.15L125.4,98.43L129.09,95.99L136.14,93.36L139.73,91.26L148.19,85.06L150.5,85.06L154.08,80.76L157.76,79.48L164.82,74.76L168.39,73.78L172.08,72.82L176.86,72.57L193.48,70.39L197.03,70.12L222.13,66.19L225.7,64.99L229.39,64.5L234.18,62.96L240.06,61.76L243.75,60.73L248.5,58.27L250.78,61.63L254.39,63.73L258.07,53.98L262.86,48.12L265.14,47.92L268.72,40.2L272.39,34.25L277.19,31.42L279.44,27.01L283.05,26.98L286.72,27.78L297.38,28.9L301.05,29.51L315.41,31.23L320.16,31.29L334.49,31.48L336.78,32.12L348.84,32.03L351.1,32.89L358.38,32.32L363.14,32.31L365.43,32.7L369.01,32.08L387.87,31.83L392.3,30.67L394.2,31.03L400.27,30.26L403.38,31.08L406.46,30.5L411.99,29.84L415.71,29.42L420.46,28.25L422.74,28.49L434.8,27.78L437.09,27.03L444.34,27.16L449.15,26.43L469.32,24.63L473.01,24.47L487.34,23.12L492.1,23.09L498,22.53" style="vector-effect: none; fill: none; stroke: rgb(253, 231, 37); stroke-opacity: 1; stroke-width: 1.5px; opacity: 1;"/></g><g class="points"/><g class="text"/></g><g class="trace scatter trace3bd42b" style="stroke-miterlimit: 2; opacity: 1;"><g class="fills"/><g class="errorbars"/><g class="lines"><path class="js-line" d="M0,114.69L78.84,112.39L82.43,111.98L105.22,106.76L107.51,105.88L121.83,100.86L125.4,99.07L136.14,95.23L139.73,93.09L143.4,91.87L148.19,88.04L150.5,87.4L154.08,82.61L157.76,80.89L162.53,76.87L164.82,79.24L168.39,74.07L172.08,73.3L176.86,73.22L182.74,73.03L186.41,71.64L191.19,71.55L193.48,70.69L205.53,70.16L207.82,69.13L215.06,68.46L219.84,67.91L225.7,66.14L229.39,65.57L243.75,61.25L248.5,57.96L250.78,61.34L254.39,63.31L258.07,57.6L262.86,52.7L265.14,53.68L268.72,47.82L272.39,43.06L277.19,33.79L279.44,33.88L283.05,29.52L286.72,27.81L291.53,27.83L297.38,28.02L301.05,28.93L326.02,31.84L329.73,31.82L344.04,31.94L348.84,31.88L351.1,32.77L354.68,32.35L363.14,32.23L365.43,32.62L381.02,31.75L384.1,31.88L387.87,31.89L392.3,30.56L394.2,31.01L400.27,29.87L403.38,30.92L406.46,30.18L420.46,28.34L422.74,28.6L434.8,27.78L437.09,27.04L440.68,27.68L444.34,26.98L451.43,25.44L454.99,26.34L465.74,25.12L469.32,24.99L480.06,23.62L483.64,23.57L494.43,22.14L498,22.2" style="vector-effect: none; fill: none; stroke: rgb(253, 231, 37); stroke-opacity: 1; stroke-width: 1.5px; opacity: 1;"/></g><g class="points"/><g class="text"/></g><g class="trace scatter traceaff3b7" style="stroke-miterlimit: 2; opacity: 1;"><g class="fills"/><g class="errorbars"/><g class="lines"><path class="js-line" d="M0,113.93L33.55,113.5L35.84,113.43L56.49,112.83L59.58,112.67L64.9,113.36L68.07,113.27L78.84,112.11L82.43,111.46L100.45,107.25L105.22,105.51L111.09,103.79L114.76,102.31L121.83,98.9L125.4,98.17L129.09,94.53L133.86,92.2L136.14,91.8L139.73,88.84L143.4,86.45L148.19,82.21L150.5,83.3L154.08,78L157.76,75.96L162.53,72.42L164.82,71.37L168.39,70.83L191.19,67.91L193.48,67.2L205.53,65.87L207.82,65.43L211.37,65.02L215.06,63.82L222.13,62.54L225.7,61.53L236.46,59.07L240.06,56.87L243.75,55.49L248.5,56.69L250.78,56.57L254.39,59.95L258.07,52.75L262.86,47.27L265.14,47.85L268.72,42.73L272.39,38.63L277.19,30.09L279.44,33.03L283.05,22.55L297.38,22.11L301.05,22.28L315.41,22.24L320.16,22.16L326.02,21.66L329.73,21.38L344.04,20.13L348.84,16.52L351.1,19.53L354.68,19.45L372.7,18.35L379.48,17.44L387.87,17.2L392.3,15.56L394.2,15.9L400.27,14.82L403.38,15.39L406.46,14.92L408.44,12.08L411.99,14.29L420.46,12.43L422.74,9.5L426.32,12.48L430.05,12.49L434.8,12.11L437.09,7.66L440.68,11.67L444.34,11.73L449.15,11.25L451.43,7.33L454.99,11.11L458.7,10.55L463.45,10.54L465.74,7.32L469.32,10.09L473.01,10.24L477.78,9.81L480.06,6.59L483.64,9.81L487.34,9.48L492.1,9.31L494.43,6.08L498,8.79" style="vector-effect: none; fill: none; stroke: rgb(253, 231, 37); stroke-opacity: 1; stroke-width: 1.5px; opacity: 1;"/></g><g class="points"/><g class="text"/></g></g></g></g><path class="xlines-above crisp" d="M37.5,151.77H536.5M37.5,29.75H536.5" style="fill: none; stroke-width: 0.5px; stroke: rgb(0, 0, 0); stroke-opacity: 1;"/><path class="ylines-above crisp" d="M37.75,30V151.52M536.25,30V151.52" style="fill: none; stroke-width: 0.5px; stroke: rgb(0, 0, 0); stroke-opacity: 1;"/><g class="overlines-above"/><g class="xaxislayer-above"><path class="xtick ticks crisp" d="M0,151.52v-5" transform="translate(109.65,0)" style="stroke: rgb(0, 0, 0); stroke-opacity: 1; stroke-width: 0.5px;"/><path class="xtick ticks crisp" d="M0,151.52v-5" transform="translate(181.3,0)" style="stroke: rgb(0, 0, 0); stroke-opacity: 1; stroke-width: 0.5px;"/><path class="xtick ticks crisp" d="M0,151.52v-5" transform="translate(252.95,0)" style="stroke: rgb(0, 0, 0); stroke-opacity: 1; stroke-width: 0.5px;"/><path class="xtick ticks crisp" d="M0,151.52v-5" transform="translate(324.6,0)" style="stroke: rgb(0, 0, 0); stroke-opacity: 1; stroke-width: 0.5px;"/><path class="xtick ticks crisp" d="M0,151.52v-5" transform="translate(396.25,0)" style="stroke: rgb(0, 0, 0); stroke-opacity: 1; stroke-width: 0.5px;"/><path class="xtick ticks crisp" d="M0,151.52v-5" transform="translate(467.9,0)" style="stroke: rgb(0, 0, 0); stroke-opacity: 1; stroke-width: 0.5px;"/></g><g class="yaxislayer-above"><path class="ytick ticks crisp" d="M38,0h5" transform="translate(0,145.95999999999998)" style="stroke: rgb(0, 0, 0); stroke-opacity: 1; stroke-width: 0.5px;"/><path class="ytick ticks crisp" d="M38,0h5" transform="translate(0,120.57)" style="stroke: rgb(0, 0, 0); stroke-opacity: 1; stroke-width: 0.5px;"/><path class="ytick ticks crisp" d="M38,0h5" transform="translate(0,95.18)" style="stroke: rgb(0, 0, 0); stroke-opacity: 1; stroke-width: 0.5px;"/><path class="ytick ticks crisp" d="M38,0h5" transform="translate(0,69.78)" style="stroke: rgb(0, 0, 0); stroke-opacity: 1; stroke-width: 0.5px;"/><path class="ytick ticks crisp" d="M38,0h5" transform="translate(0,44.39)" style="stroke: rgb(0, 0, 0); stroke-opacity: 1; stroke-width: 0.5px;"/><g class="ytick"><text text-anchor="end" x="35.3" y="3.8499999999999996" transform="translate(0,145.95999999999998)" style="font-family: 'Open Sans', verdana, arial, sans-serif; font-size: 11px; fill: rgb(0, 0, 0); fill-opacity: 1; white-space: pre; opacity: 1;">0</text></g><g class="ytick"><text text-anchor="end" x="35.3" y="3.8499999999999996" style="font-family: 'Open Sans', verdana, arial, sans-serif; font-size: 11px; fill: rgb(0, 0, 0); fill-opacity: 1; white-space: pre; opacity: 1;" transform="translate(0,120.57)">0.2</text></g><g class="ytick"><text text-anchor="end" x="35.3" y="3.8499999999999996" style="font-family: 'Open Sans', verdana, arial, sans-serif; font-size: 11px; fill: rgb(0, 0, 0); fill-opacity: 1; white-space: pre; opacity: 1;" transform="translate(0,95.18)">0.4</text></g><g class="ytick"><text text-anchor="end" x="35.3" y="3.8499999999999996" style="font-family: 'Open Sans', verdana, arial, sans-serif; font-size: 11px; fill: rgb(0, 0, 0); fill-opacity: 1; white-space: pre; opacity: 1;" transform="translate(0,69.78)">0.6</text></g><g class="ytick"><text text-anchor="end" x="35.3" y="3.8499999999999996" style="font-family: 'Open Sans', verdana, arial, sans-serif; font-size: 11px; fill: rgb(0, 0, 0); fill-opacity: 1; white-space: pre; opacity: 1;" transform="translate(0,44.39)">0.8</text></g></g><g class="overaxes-above"/></g><g class="subplot x2y2"><g class="layer-subplot"><g class="shapelayer"/><g class="imagelayer"/></g><g class="minor-gridlayer"><g class="x2"/><g class="y2"/></g><g class="gridlayer"><g class="x2"><path class="x2grid crisp" transform="translate(109.65,0)" d="M0,186.24000000000004v121.51999999999997" style="stroke: rgb(128, 128, 128); stroke-opacity: 1; stroke-width: 0.2px;"/><path class="x2grid crisp" transform="translate(181.3,0)" d="M0,186.24000000000004v121.51999999999997" style="stroke: rgb(128, 128, 128); stroke-opacity: 1; stroke-width: 0.2px;"/><path class="x2grid crisp" transform="translate(252.95,0)" d="M0,186.24000000000004v121.51999999999997" style="stroke: rgb(128, 128, 128); stroke-opacity: 1; stroke-width: 0.2px;"/><path class="x2grid crisp" transform="translate(324.6,0)" d="M0,186.24000000000004v121.51999999999997" style="stroke: rgb(128, 128, 128); stroke-opacity: 1; stroke-width: 0.2px;"/><path class="x2grid crisp" transform="translate(396.25,0)" d="M0,186.24000000000004v121.51999999999997" style="stroke: rgb(128, 128, 128); stroke-opacity: 1; stroke-width: 0.2px;"/><path class="x2grid crisp" transform="translate(467.9,0)" d="M0,186.24000000000004v121.51999999999997" style="stroke: rgb(128, 128, 128); stroke-opacity: 1; stroke-width: 0.2px;"/></g><g class="y2"><path class="y2grid crisp" transform="translate(0,301.4200000000001)" d="M38,0h498" style="stroke: rgb(128, 128, 128); stroke-opacity: 1; stroke-width: 0.2px;"/><path class="y2grid crisp" transform="translate(0,266.82000000000005)" d="M38,0h498" style="stroke: rgb(128, 128, 128); stroke-opacity: 1; stroke-width: 0.2px;"/><path class="y2grid crisp" transform="translate(0,232.22000000000003)" d="M38,0h498" style="stroke: rgb(128, 128, 128); stroke-opacity: 1; stroke-width: 0.2px;"/><path class="y2grid crisp" transform="translate(0,197.62000000000003)" d="M38,0h498" style="stroke: rgb(128, 128, 128); stroke-opacity: 1; stroke-width: 0.2px;"/></g></g><g class="zerolinelayer"/><g class="layer-between"><g class="shapelayer"/><g class="imagelayer"/></g><path class="xlines-below"/><path class="ylines-below"/><g class="overlines-below"/><g class="xaxislayer-below"/><g class="yaxislayer-below"/><g class="overaxes-below"/><g class="overplot"><g class="x2y2" transform="translate(38,186.24000000000004)" clip-path="url(#clipe3e1b9x2y2plot)"><g class="scatterlayer mlayer"><g class="trace scatter trace388cc2" style="stroke-miterlimit: 2; opacity: 1;"><g class="fills"/><g class="errorbars"/><g class="lines"><path class="js-line" d="M0,114.61L193.48,114.63L197.03,114.58L243.75,114.65L248.5,114.64L272.39,113.71L277.19,113.38L293.77,111.75L297.38,111.21L308.1,109.74L311.68,108.97L336.78,102.77L340.34,101.77L344.04,100.3L348.84,99.29L351.1,98.05L354.68,96.96L369.01,91.54L372.7,89.96L387.87,83.25L392.33,78.91L396.72,67.54L400.27,66.96L403.38,67.45L406.46,69.21L408.44,65.65L411.98,67.56L420.46,60.9L422.74,57.46L430.05,54.07L434.8,54.74L437.08,51.32L440.68,54.44L444.34,55.71L449.15,55.65L451.43,52.64L454.98,55.22L458.7,54.54L463.45,55.19L465.74,52.93L469.31,54.87L477.78,54.7L480.06,52.95L483.64,54.74L487.34,54.55L492.1,54L494.43,51.7L498,53.85" style="vector-effect: none; fill: none; stroke: rgb(53, 183, 121); stroke-opacity: 1; stroke-width: 1.5px; opacity: 1;"/></g><g class="points"/><g class="text"/></g><g class="trace scatter tracedf8369" style="stroke-miterlimit: 2; opacity: 1;"><g class="fills"/><g class="errorbars"/><g class="lines"><path class="js-line" d="M0,114.59L193.48,114.63L197.03,114.6L250.78,114.61L254.39,114.54L283.05,112.88L286.72,112.42L301.05,110.92L305.82,110.16L334.49,103.33L336.78,102.51L348.84,99.2L351.1,97.67L363.15,93.62L365.43,92.5L384.1,85.02L387.87,83.02L392.33,77.68L396.72,65.9L400.27,64.41L403.38,64.48L406.46,65.4L408.44,61.41L411.98,66.13L415.71,63.46L420.46,59.79L422.74,55.87L426.32,53.27L430.05,54.37L434.8,54.96L437.08,49.14L440.68,54.44L444.34,55.46L449.15,55.02L451.43,50.46L454.98,54.93L458.7,54.19L463.45,54.74L465.74,51.39L469.31,54.4L473,54.06L477.78,54.32L480.06,51.58L483.64,54.45L487.34,54.55L492.1,53.68L494.43,50.54L498,53.68" style="vector-effect: none; fill: none; stroke: rgb(53, 183, 121); stroke-opacity: 1; stroke-width: 1.5px; opacity: 1;"/></g><g class="points"/><g class="text"/></g><g class="trace scatter trace5783a7" style="stroke-miterlimit: 2; opacity: 1;"><g class="fills"/><g class="errorbars"/><g class="lines"><path class="js-line" d="M0,114.33L114.76,114.39L119.53,114.3L129.09,114.51L133.85,114.47L265.14,113.77L268.72,113.67L293.77,111.46L297.38,110.86L311.68,108.44L315.41,107.63L340.34,101.57L344.04,100.08L348.84,99.13L351.1,97.51L363.15,93.35L365.43,92.2L372.7,89.44L379.48,86.34L384.1,84.79L387.87,82.83L392.33,78.37L396.72,65.16L400.27,64.45L403.38,65.57L406.46,68.79L408.44,65.01L411.98,66.75L415.71,64.05L420.46,60.19L422.74,56.71L426.32,54.1L430.05,54.44L434.8,54.65L437.08,52.07L440.68,55.16L444.34,55.72L449.15,55.94L451.43,52.52L454.98,55.69L458.7,54.73L463.45,55.42L465.74,52.97L469.31,55.16L473,54.63L477.78,54.85L480.06,53.35L483.64,54.95L487.34,55.32L492.1,54.21L494.43,52.04L498,54.13" style="vector-effect: none; fill: none; stroke: rgb(53, 183, 121); stroke-opacity: 1; stroke-width: 1.5px; opacity: 1;"/></g><g class="points"/><g class="text"/></g><g class="trace scatter traceac268b" style="stroke-miterlimit: 2; opacity: 1;"><g class="fills"/><g class="errorbars"/><g class="lines"><path class="js-line" d="M0,114.24L43.09,114.01L47.9,114.49L68.06,114.01L71.76,114.51L93.16,114.57L96.73,115.08L111.09,114.64L114.76,114.15L119.53,112.75L121.82,113.03L129.08,112.15L133.85,110.57L139.72,110.06L143.4,108.73L150.49,105.58L154.07,102.93L157.75,101.21L162.52,97.34L164.82,96.2L168.38,90.96L182.74,59.51L186.41,48.85L193.47,31.76L197.03,26.07L200.76,22.98L205.52,32.45L207.81,36.48L211.36,39.26L215.06,40.65L219.84,40.89L222.12,39.35L225.7,40.77L234.17,47.04L236.45,47.33L240.06,49.88L243.74,51.2L258.06,56.65L262.85,58.89L265.13,58.44L268.72,58.52L272.39,60.15L277.19,59.93L279.43,59.15L283.04,58.83L286.72,61.1L291.52,60.86L293.77,59.4L297.37,59.88L301.05,59.71L305.82,61.14L308.1,59.63L311.67,61L315.4,62.08L320.16,61.45L326.01,59.83L329.73,60.46L334.48,61.78L336.77,61L348.84,61.68L351.09,62L363.14,61.94L365.42,59.69L369,61.13L372.7,61.13L384.1,61.36L387.85,61.39L392.29,62.86L394.19,60.58L400.27,64.56L403.37,61.24L406.46,57.28L408.43,53.17L411.98,51.35L415.71,46.11L422.74,41.38L426.31,45.73L430.04,38.57L434.79,40.03L437.08,33.43L440.68,36.37L444.34,32.2L449.15,34.64L451.42,34.59L454.98,30.48L458.7,34.38L463.45,31.73L465.73,33.01L469.31,30.03L473,29.61L477.77,27.19L480.06,25.06L483.64,30.5L487.33,29.26L492.1,31L494.42,27.26L498,28.05" style="vector-effect: none; fill: none; stroke: rgb(49, 104, 142); stroke-opacity: 1; stroke-width: 1.5px; opacity: 1;"/></g><g class="points"/><g class="text"/></g><g class="trace scatter tracef94c46" style="stroke-miterlimit: 2; opacity: 1;"><g class="fills"/><g class="errorbars"/><g class="lines"><path class="js-line" d="M0,114.83L21.51,114.55L25.08,114.54L43.09,114.43L47.9,114.87L71.76,114.89L76.54,115.05L78.83,114.49L82.42,114.45L100.45,115.44L105.21,115.18L114.76,114.72L119.53,113.19L125.39,113.55L129.08,113.05L133.85,111.67L136.13,111.93L143.4,110.05L148.18,107.84L150.49,107.22L154.07,104.83L157.75,103.77L162.52,99.61L164.82,97.69L168.38,92.56L172.08,90.37L176.85,77.18L179.14,69.83L182.74,61.91L193.47,32.16L197.03,26.52L200.76,24.57L205.52,34.93L211.36,41.27L215.06,44L222.12,45.98L225.7,49.42L240.06,54.43L243.74,55.94L250.78,57.86L254.38,57.67L262.85,60.19L265.13,58.81L268.72,58.21L272.39,60.17L277.19,60.31L279.43,59.04L283.04,58.72L286.72,61.26L291.52,61.07L293.77,59.25L305.82,61.28L308.1,59.91L315.4,62.61L320.16,61.8L326.01,60.38L329.73,60.76L334.48,62.11L336.77,61.5L344.04,61.63L348.84,62.18L354.67,62.08L358.37,62.33L363.14,62.22L365.42,60.02L369,61.25L372.7,61.32L384.1,61.78L387.85,61.51L392.29,62.56L394.19,58.28L400.27,64.04L403.37,60.3L406.46,55.9L408.43,51.23L411.98,49.44L415.71,44.66L422.74,40.12L426.31,44.99L430.04,37.41L434.79,39.49L437.08,32.98L440.68,35.26L444.34,31.33L449.15,34.07L451.42,34.6L454.98,29.18L458.7,33.48L463.45,31.54L465.73,32.75L469.31,28.61L473,29.16L477.77,27.3L480.06,23.88L483.64,29.43L487.33,29.97L492.1,29.6L494.42,27.35L498,29.33" style="vector-effect: none; fill: none; stroke: rgb(49, 104, 142); stroke-opacity: 1; stroke-width: 1.5px; opacity: 1;"/></g><g class="points"/><g class="text"/></g><g class="trace scatter trace3046b7" style="stroke-miterlimit: 2; opacity: 1;"><g class="fills"/><g class="errorbars"/><g class="lines"><path class="js-line" d="M0,114.13L64.9,113.83L68.06,113.66L76.54,114.15L78.83,113.71L93.16,114L96.73,114.6L107.5,114.4L111.09,114.47L114.76,114.2L119.53,112.73L125.39,113.15L129.08,112.57L133.85,111.27L136.13,111.53L143.4,109.89L148.18,107.77L150.49,107.1L154.07,104.75L157.75,103.89L162.52,99.82L164.82,98.12L168.38,93.59L172.08,91.03L176.85,79.36L179.14,72.48L182.74,64.26L193.47,34.86L197.03,29.25L200.76,25.76L205.52,31.59L207.81,37.26L211.36,41.43L215.06,44.09L219.84,45.65L222.12,45.53L225.7,49.14L234.17,55.32L236.45,55.5L243.74,57.98L248.5,58.06L254.38,57.27L258.06,58.74L262.85,59.74L265.13,58.32L268.72,57.72L272.39,59.82L277.19,59.94L279.43,58.66L283.04,58.32L286.72,60.98L291.52,60.88L293.77,58.92L297.37,59.81L301.05,59.66L305.82,61.16L308.1,59.79L315.4,62.48L320.16,61.78L322.45,60.72L326.01,60.12L329.73,60.6L334.48,61.99L336.77,61.07L340.33,61.26L351.09,62.2L354.67,62.22L363.14,62.58L365.42,60.4L369,61.68L372.7,61.82L379.47,62.78L381.02,62.22L387.85,62.34L392.29,64.43L394.19,61.38L400.27,68.16L406.46,59.39L408.43,55.07L411.98,53.28L415.71,49.03L422.74,45.88L426.31,50.54L430.04,42.64L434.79,44.49L437.08,37.74L440.68,40.33L444.34,35.69L449.15,39.42L451.42,39.38L454.98,34.26L458.7,38.43L463.45,37.68L465.73,39.08L469.31,35.6L473,33.88L477.77,34.22L480.06,31.96L483.64,37.11L487.33,35.44L492.1,35.76L494.42,33.56L498,33.68" style="vector-effect: none; fill: none; stroke: rgb(49, 104, 142); stroke-opacity: 1; stroke-width: 1.5px; opacity: 1;"/></g><g class="points"/><g class="text"/></g><g class="trace scatter trace192253" style="stroke-miterlimit: 2; opacity: 1;"><g class="fills"/><g class="errorbars"/><g class="lines"><path class="js-line" d="M0,113.94L21.52,114.09L25.08,114.11L43.09,113.94L47.91,112.99L50.17,113.86L56.49,114L59.58,113.43L63.37,113.94L76.55,114.23L78.84,114.08L90.88,113.64L93.17,113.64L107.51,113.36L111.09,113.25L139.73,110.59L143.4,109.64L157.76,105.76L162.53,103.93L172.08,100.01L176.86,96.98L179.15,96.27L182.74,93.63L186.41,90.43L191.19,87.62L200.77,76.04L205.53,72.46L211.37,65.46L215.06,62.75L225.7,51.81L229.39,47.77L234.18,43.24L236.46,36.85L240.06,39.66L243.75,45.33L250.78,43.72L254.39,44.22L265.14,41.32L268.72,41.02L277.19,38.98L279.44,36.73L286.72,35.38L291.53,32.3L293.78,30.76L297.38,29.48L301.05,27.96L305.83,23.45L308.1,20.35L311.68,17.18L315.41,16.56L320.16,17.13L322.45,15.83L326.02,15.94L329.73,16.88L334.49,15.59L344.04,16.28L348.84,16.2L351.1,15.14L354.68,15.7L358.38,15.2L363.14,17.08L365.43,15.95L369.01,16.08L372.7,15.33L379.48,14.81L384.1,16.93L387.87,16.75L392.3,14.82L394.2,15.31L406.46,15.55L408.44,11.88L411.99,15.64L415.71,15.36L420.46,15.19L422.74,10.07L430.05,15.39L434.8,15.3L437.09,8.72L440.68,13.23L444.34,14.71L449.15,14.11L451.43,8.6L454.99,11.28L458.7,13.54L463.45,13.27L465.74,8.65L469.32,11.53L473.01,12.75L477.78,12.51L480.06,6.81L483.64,10.95L487.34,11.66L492.1,10.84L494.43,6.09L498,7.44" style="vector-effect: none; fill: none; stroke: rgb(253, 231, 37); stroke-opacity: 1; stroke-width: 1.5px; opacity: 1;"/></g><g class="points"/><g class="text"/></g><g class="trace scatter traceb62ae3" style="stroke-miterlimit: 2; opacity: 1;"><g class="fills"/><g class="errorbars"/><g class="lines"><path class="js-line" d="M0,114.53L7.19,113.28L10.77,113.28L39.41,113.34L43.09,113.32L96.74,113.04L100.45,113.84L121.83,112.68L125.4,112.11L136.14,111.12L139.73,110.65L157.76,105.74L162.53,103.92L168.39,101.64L172.08,100.11L179.15,96.41L182.74,93.72L186.41,90.59L191.19,87.58L200.77,76.84L205.53,72.33L211.37,65.98L215.06,63.39L219.84,59.8L222.13,56.72L225.7,54.08L229.39,49.74L234.18,45.18L236.46,39.98L240.06,42.22L243.75,46.19L250.78,44.06L254.39,44.46L265.14,41.57L268.72,41.03L277.19,39.29L279.44,37.06L286.72,35.54L291.53,32.99L293.78,30.83L297.38,28.51L301.05,27.68L305.83,23.14L308.1,19.78L311.68,16.68L315.41,16.32L320.16,17.68L322.45,14.95L326.02,17.44L340.34,16.34L344.04,17.61L348.84,17.57L351.1,15.59L354.68,16.58L358.38,16.43L363.14,16.85L365.43,16.14L369.01,16.22L372.7,15.55L381.02,15.05L384.1,17.9L387.87,17.43L392.3,14.78L400.27,15.31L403.38,14.18L406.46,15.06L408.44,11.19L411.99,15.4L415.71,15.59L420.46,15.64L422.74,9.26L426.32,10.76L430.05,15.61L434.8,15.25L437.09,7.91L440.68,10.5L444.34,14.59L449.15,14.48L451.43,7.56L458.7,13.02L463.45,13.37L465.74,7.55L469.32,9.82L473.01,12.75L477.78,12.44L480.06,6.4L483.64,9.48L487.34,11.91L492.1,11.64L494.43,6.08L498,6.99" style="vector-effect: none; fill: none; stroke: rgb(253, 231, 37); stroke-opacity: 1; stroke-width: 1.5px; opacity: 1;"/></g><g class="points"/><g class="text"/></g><g class="trace scatter trace46b013" style="stroke-miterlimit: 2; opacity: 1;"><g class="fills"/><g class="errorbars"/><g class="lines"><path class="js-line" d="M0,108.26L4.9,114.51L7.19,114.42L82.43,114.67L86.1,114.35L121.83,113L125.4,112.39L136.14,111.4L139.73,110.97L157.76,106.49L162.53,104.52L172.08,100.82L176.86,98.41L182.74,94.4L186.41,91.16L191.19,88.26L193.48,85.42L200.77,77.17L205.53,74.09L211.37,67.19L215.06,64.36L219.84,61.36L222.13,57.97L225.7,55.43L229.39,51.87L234.18,48.32L236.46,42.19L240.06,43.9L243.75,46.54L250.78,44.29L254.39,44.53L277.19,39.55L279.44,37.96L291.53,33.39L293.78,31.36L301.05,27.49L305.83,22.93L311.68,17.23L315.41,17.6L320.16,18.11L322.45,15.65L329.73,18.05L334.49,16.35L336.78,16.19L340.34,16.86L344.04,16.71L348.84,17.36L351.1,15.92L354.68,17.65L358.38,16.17L363.14,16.99L372.7,17.28L379.48,15.05L381.02,15.5L384.1,17.64L387.87,17.65L392.3,15.04L394.2,15.82L400.27,16L403.38,15.48L406.46,16.1L408.44,12.25L411.99,16.4L420.46,15.79L422.74,10.52L426.32,14.1L430.05,16.05L434.8,16.09L437.09,8.93L440.68,14.01L444.34,15.32L449.15,15.05L451.43,8.64L454.99,13.75L458.7,14.16L463.45,13.77L465.74,8.76L469.32,12.86L473.01,13.17L477.78,12.72L480.06,7.32L483.64,12.22L487.34,12.72L492.1,12.03L494.43,6.79L498,10.33" style="vector-effect: none; fill: none; stroke: rgb(253, 231, 37); stroke-opacity: 1; stroke-width: 1.5px; opacity: 1;"/></g><g class="points"/><g class="text"/></g></g></g></g><path class="xlines-above crisp" d="M37.5,308.01H536.5M37.5,185.99000000000004H536.5" style="fill: none; stroke-width: 0.5px; stroke: rgb(0, 0, 0); stroke-opacity: 1;"/><path class="ylines-above crisp" d="M37.75,186.24000000000004V307.76M536.25,186.24000000000004V307.76" style="fill: none; stroke-width: 0.5px; stroke: rgb(0, 0, 0); stroke-opacity: 1;"/><g class="overlines-above"/><g class="xaxislayer-above"><path class="x2tick ticks crisp" d="M0,307.76v-5" transform="translate(109.65,0)" style="stroke: rgb(0, 0, 0); stroke-opacity: 1; stroke-width: 0.5px;"/><path class="x2tick ticks crisp" d="M0,307.76v-5" transform="translate(181.3,0)" style="stroke: rgb(0, 0, 0); stroke-opacity: 1; stroke-width: 0.5px;"/><path class="x2tick ticks crisp" d="M0,307.76v-5" transform="translate(252.95,0)" style="stroke: rgb(0, 0, 0); stroke-opacity: 1; stroke-width: 0.5px;"/><path class="x2tick ticks crisp" d="M0,307.76v-5" transform="translate(324.6,0)" style="stroke: rgb(0, 0, 0); stroke-opacity: 1; stroke-width: 0.5px;"/><path class="x2tick ticks crisp" d="M0,307.76v-5" transform="translate(396.25,0)" style="stroke: rgb(0, 0, 0); stroke-opacity: 1; stroke-width: 0.5px;"/><path class="x2tick ticks crisp" d="M0,307.76v-5" transform="translate(467.9,0)" style="stroke: rgb(0, 0, 0); stroke-opacity: 1; stroke-width: 0.5px;"/></g><g class="yaxislayer-above"><path class="y2tick ticks crisp" d="M38,0h5" transform="translate(0,301.4200000000001)" style="stroke: rgb(0, 0, 0); stroke-opacity: 1; stroke-width: 0.5px;"/><path class="y2tick ticks crisp" d="M38,0h5" transform="translate(0,266.82000000000005)" style="stroke: rgb(0, 0, 0); stroke-opacity: 1; stroke-width: 0.5px;"/><path class="y2tick ticks crisp" d="M38,0h5" transform="translate(0,232.22000000000003)" style="stroke: rgb(0, 0, 0); stroke-opacity: 1; stroke-width: 0.5px;"/><path class="y2tick ticks crisp" d="M38,0h5" transform="translate(0,197.62000000000003)" style="stroke: rgb(0, 0, 0); stroke-opacity: 1; stroke-width: 0.5px;"/><g class="y2tick"><text text-anchor="end" x="35.3" y="3.8499999999999996" transform="translate(0,301.4200000000001)" style="font-family: 'Open Sans', verdana, arial, sans-serif; font-size: 11px; fill: rgb(0, 0, 0); fill-opacity: 1; white-space: pre; opacity: 1;">0</text></g><g class="y2tick"><text text-anchor="end" x="35.3" y="3.8499999999999996" style="font-family: 'Open Sans', verdana, arial, sans-serif; font-size: 11px; fill: rgb(0, 0, 0); fill-opacity: 1; white-space: pre; opacity: 1;" transform="translate(0,266.82000000000005)">0.2</text></g><g class="y2tick"><text text-anchor="end" x="35.3" y="3.8499999999999996" style="font-family: 'Open Sans', verdana, arial, sans-serif; font-size: 11px; fill: rgb(0, 0, 0); fill-opacity: 1; white-space: pre; opacity: 1;" transform="translate(0,232.22000000000003)">0.4</text></g><g class="y2tick"><text text-anchor="end" x="35.3" y="3.8499999999999996" style="font-family: 'Open Sans', verdana, arial, sans-serif; font-size: 11px; fill: rgb(0, 0, 0); fill-opacity: 1; white-space: pre; opacity: 1;" transform="translate(0,197.62000000000003)">0.6</text></g></g><g class="overaxes-above"/></g><g class="subplot x3y3"><g class="layer-subplot"><g class="shapelayer"/><g class="imagelayer"/></g><g class="minor-gridlayer"><g class="x3"/><g class="y3"/></g><g class="gridlayer"><g class="x3"><path class="x3grid crisp" transform="translate(109.65,0)" d="M0,342.47999999999996v121.51999999999998" style="stroke: rgb(128, 128, 128); stroke-opacity: 1; stroke-width: 0.2px;"/><path class="x3grid crisp" transform="translate(181.3,0)" d="M0,342.47999999999996v121.51999999999998" style="stroke: rgb(128, 128, 128); stroke-opacity: 1; stroke-width: 0.2px;"/><path class="x3grid crisp" transform="translate(252.95,0)" d="M0,342.47999999999996v121.51999999999998" style="stroke: rgb(128, 128, 128); stroke-opacity: 1; stroke-width: 0.2px;"/><path class="x3grid crisp" transform="translate(324.6,0)" d="M0,342.47999999999996v121.51999999999998" style="stroke: rgb(128, 128, 128); stroke-opacity: 1; stroke-width: 0.2px;"/><path class="x3grid crisp" transform="translate(396.25,0)" d="M0,342.47999999999996v121.51999999999998" style="stroke: rgb(128, 128, 128); stroke-opacity: 1; stroke-width: 0.2px;"/><path class="x3grid crisp" transform="translate(467.9,0)" d="M0,342.47999999999996v121.51999999999998" style="stroke: rgb(128, 128, 128); stroke-opacity: 1; stroke-width: 0.2px;"/></g><g class="y3"><path class="y3grid crisp" transform="translate(0,458.34)" d="M38,0h498" style="stroke: rgb(128, 128, 128); stroke-opacity: 1; stroke-width: 0.2px;"/><path class="y3grid crisp" transform="translate(0,432.63)" d="M38,0h498" style="stroke: rgb(128, 128, 128); stroke-opacity: 1; stroke-width: 0.2px;"/><path class="y3grid crisp" transform="translate(0,406.91999999999996)" d="M38,0h498" style="stroke: rgb(128, 128, 128); stroke-opacity: 1; stroke-width: 0.2px;"/><path class="y3grid crisp" transform="translate(0,381.21)" d="M38,0h498" style="stroke: rgb(128, 128, 128); stroke-opacity: 1; stroke-width: 0.2px;"/><path class="y3grid crisp" transform="translate(0,355.50999999999993)" d="M38,0h498" style="stroke: rgb(128, 128, 128); stroke-opacity: 1; stroke-width: 0.2px;"/></g></g><g class="zerolinelayer"/><g class="layer-between"><g class="shapelayer"/><g class="imagelayer"/></g><path class="xlines-below"/><path class="ylines-below"/><g class="overlines-below"/><g class="xaxislayer-below"/><g class="yaxislayer-below"/><g class="overaxes-below"/><g class="overplot"><g class="x3y3" transform="translate(38,342.47999999999996)" clip-path="url(#clipe3e1b9x3y3plot)"><g class="scatterlayer mlayer"><g class="trace scatter traceca740d" style="stroke-miterlimit: 2; opacity: 1;"><g class="fills"/><g class="errorbars"/><g class="lines"><path class="js-line" d="M0,115.26L121.83,114.9L125.39,114.66L139.72,114.84L143.4,114.78L172.08,113.25L176.86,112.66L182.74,111.8L186.41,110.91L200.77,106.9L205.53,104.93L211.37,102.86L215.06,101.48L229.39,95.25L234.17,92.56L236.46,91.85L240.06,89.63L258.06,78.8L262.86,74.81L265.14,75.16L268.72,69.23L272.39,65.96L277.19,60.22L279.44,60.98L283.05,53.14L286.72,54.1L291.54,52.3L308.1,47.64L311.68,47.13L322.45,46.43L326.02,45.06L329.73,45.58L334.49,44.99L340.34,44.2L344.04,44.36L348.84,43.05L351.1,43.32L358.37,43.56L363.15,42.35L365.43,41.51L369.01,41.32L372.7,41.37L379.48,40.02L381.02,39.65L384.1,40.18L387.87,40.26L392.33,37.64L396.72,29.96L400.27,30L403.38,35.4L406.46,37.3L408.44,36.3L411.98,36.6L420.46,34.9L422.74,32.1L426.32,34.61L430.05,35.23L437.08,33.2L440.68,34.01L444.34,34.21L449.15,33.66L451.43,32.43L454.98,33.49L465.74,30.9L469.31,31.11L473,31.7L477.78,30.37L480.06,31.21L483.64,30.59L487.34,31.11L492.1,29.83L498,29.26" style="vector-effect: none; fill: none; stroke: rgb(53, 183, 121); stroke-opacity: 1; stroke-width: 1.5px; opacity: 1;"/></g><g class="points"/><g class="text"/></g><g class="trace scatter trace72011a" style="stroke-miterlimit: 2; opacity: 1;"><g class="fills"/><g class="errorbars"/><g class="lines"><path class="js-line" d="M0,115.08L143.4,114.69L148.19,114.42L157.75,114.12L162.53,113.89L179.15,112.29L182.74,111.55L193.48,109.03L197.03,108.04L200.77,106.9L205.53,104.6L222.13,98.25L225.7,96.8L240.06,89.5L243.75,87.18L254.39,81.18L258.06,78.1L262.86,74.49L265.14,75.21L268.72,69.87L272.39,67.06L277.19,61.89L279.44,60.93L283.05,53.26L286.72,53.88L301.05,49.53L305.82,48.29L315.41,46.76L320.16,46.13L326.02,44.18L329.73,44.86L336.78,43.47L340.34,43.16L344.04,43.3L348.84,41.93L351.1,42.31L354.68,42.13L358.37,42.23L363.15,41.12L365.43,40.34L369.01,40.04L372.7,39.88L379.48,38.67L384.1,39.25L387.87,39.14L392.33,35.97L396.72,28L400.27,27.41L403.38,30.48L406.46,33.76L408.44,31.52L411.98,34.51L415.71,33.76L420.46,33.08L422.74,28.8L426.32,32.91L430.05,33.34L434.8,32.52L437.08,29.74L440.68,32.2L444.34,32.55L449.15,32.02L451.43,29.29L454.98,32.02L458.7,31.34L463.45,30.99L465.74,28.14L469.31,29.98L473,30.58L480.06,28.68L483.64,29.71L487.34,30.12L492.1,29.17L494.43,27.37L498,28.45" style="vector-effect: none; fill: none; stroke: rgb(53, 183, 121); stroke-opacity: 1; stroke-width: 1.5px; opacity: 1;"/></g><g class="points"/><g class="text"/></g><g class="trace scatter trace6a5a1b" style="stroke-miterlimit: 2; opacity: 1;"><g class="fills"/><g class="errorbars"/><g class="lines"><path class="js-line" d="M0,115.27L139.72,114.85L143.4,114.81L179.15,112.6L182.74,111.86L193.48,109.48L197.03,108.54L200.77,107.43L205.53,104.91L219.84,100L222.13,98.85L229.39,95.39L234.17,92.79L240.06,89.66L243.75,87.56L254.39,81.43L258.06,78.39L262.86,74.31L265.14,74.88L268.72,69.28L272.39,66.64L277.19,61.47L279.44,61.16L283.05,51.91L286.72,53.67L297.38,50.19L301.05,49.62L311.68,46.38L315.41,45.95L326.02,43.22L329.73,43.58L340.34,42.27L344.04,42.48L354.68,41.73L358.37,41.51L369.01,39.28L372.7,39.32L381.02,38.38L384.1,39.1L387.87,39L392.33,36.5L396.72,28.42L400.27,28.33L406.46,35.94L408.44,34.35L411.98,35.24L415.71,34.66L420.46,33.82L422.74,30.29L426.32,33.51L430.05,34.02L434.8,32.97L437.08,31.44L440.68,33.23L444.34,33.63L449.15,33.24L451.43,31.59L454.98,33.24L458.7,32.56L463.45,31.98L465.74,30.03L473,31.66L477.78,30.4L480.06,30.93L483.64,30.99L487.34,31.32L492.1,30.31L498,29.72" style="vector-effect: none; fill: none; stroke: rgb(53, 183, 121); stroke-opacity: 1; stroke-width: 1.5px; opacity: 1;"/></g><g class="points"/><g class="text"/></g><g class="trace scatter traceebfacc" style="stroke-miterlimit: 2; opacity: 1;"><g class="fills"/><g class="errorbars"/><g class="lines"><path class="js-line" d="M0,115.38L86.1,114.25L90.88,113.97L96.73,113.89L100.45,113.53L114.76,110.49L119.53,107.85L125.39,107.15L129.08,105.85L143.4,99.45L148.18,95.09L154.07,89.53L157.75,88.64L168.38,79.66L172.08,74.58L176.85,67.73L179.14,68.76L182.74,68.33L186.41,67.03L205.52,67.6L207.81,67.11L211.36,67.64L215.06,67.1L219.84,67.19L222.12,66.15L225.7,66.98L229.39,66.94L234.17,67.69L236.45,67.08L248.5,67.58L250.78,66.84L262.85,67.36L265.13,66.87L268.72,66.53L272.39,67.33L277.19,66.87L279.43,65.85L283.04,65.74L286.72,67.11L291.52,67.06L293.77,65.9L305.82,66.72L308.1,65.2L315.4,66.6L320.16,66.18L326.01,64.59L329.73,65.02L334.48,65.83L336.77,64.79L344.04,65.88L348.84,65.46L351.09,64.24L354.67,65L358.37,65.79L363.14,65.52L365.42,63.08L369,64.59L381.02,64.44L384.1,65.35L392.29,65.15L394.19,63.48L400.27,68.14L403.37,63.68L406.46,60.35L408.43,56.66L411.98,55.79L415.71,53L422.74,49.83L426.31,53.01L430.04,48.19L434.79,48.96L437.08,43.95L440.68,45.6L444.34,43.09L449.15,44.49L451.42,44.98L454.98,41.18L458.7,43.66L463.45,42.24L465.73,42.67L469.31,39.49L477.77,37.79L480.06,36.92L483.64,39.94L487.33,39.47L492.1,38.99L494.42,36.83L498,36.83" style="vector-effect: none; fill: none; stroke: rgb(49, 104, 142); stroke-opacity: 1; stroke-width: 1.5px; opacity: 1;"/></g><g class="points"/><g class="text"/></g><g class="trace scatter tracecaabb7" style="stroke-miterlimit: 2; opacity: 1;"><g class="fills"/><g class="errorbars"/><g class="lines"><path class="js-line" d="M0,115.38L82.42,114.28L86.1,114.18L100.45,113.44L105.21,112.61L114.76,110.32L119.53,108.09L129.08,105.26L133.85,102.98L139.72,100.75L143.4,98.91L154.07,88.82L157.75,87.23L168.38,78.7L172.08,73.7L176.85,67.99L179.14,68.47L191.18,66.95L193.47,67.13L205.52,67.35L207.81,66.76L211.36,67.3L215.06,66.98L219.84,67.1L222.12,66.11L225.7,66.89L229.39,66.72L234.17,67.46L236.45,66.59L248.5,67.71L250.78,66.73L254.38,66.77L258.06,67.66L268.72,66.38L272.39,67.18L277.19,66.83L279.43,65.84L283.04,65.4L286.72,66.7L291.52,66.61L293.77,65.81L301.05,65.15L305.82,66.06L308.1,64.54L311.67,65.24L315.4,65.65L320.16,65.16L322.45,64.24L326.01,63.62L334.48,64.99L336.77,64.27L348.84,64.62L351.09,63.83L358.37,65.13L363.14,64.78L365.42,62.29L369,63.61L379.47,63.95L381.02,63.49L384.1,64.22L387.85,63.97L392.29,62.89L394.19,61.1L400.27,64.41L403.37,61.99L406.46,59.18L408.43,55.91L411.98,53.95L415.71,50.41L422.74,46.43L426.31,49.11L430.04,44.56L434.79,45.32L437.08,40.71L440.68,42.67L444.34,39.74L449.15,41.21L451.42,41.04L454.98,38.75L458.7,41.04L463.45,39.09L465.73,40.15L469.31,37.46L480.06,34.77L483.64,38.35L492.1,36.87L494.42,34.84L498,34.14" style="vector-effect: none; fill: none; stroke: rgb(49, 104, 142); stroke-opacity: 1; stroke-width: 1.5px; opacity: 1;"/></g><g class="points"/><g class="text"/></g><g class="trace scatter traceedb2b0" style="stroke-miterlimit: 2; opacity: 1;"><g class="fills"/><g class="errorbars"/><g class="lines"><path class="js-line" d="M0,115.32L43.09,114.95L47.9,115.24L59.57,114.69L62.65,115.15L68.06,114.61L71.76,114.96L100.45,113.45L105.21,112.64L114.76,110.47L119.53,107.85L125.39,106.89L129.08,105.79L143.4,98.93L148.18,94.55L154.07,88.67L157.75,87.74L168.38,79.13L172.08,74.15L176.85,68.26L179.14,68.93L182.74,68.56L186.41,67.32L211.36,67.83L215.06,67.61L219.84,67.46L222.12,66.52L229.39,67.21L234.17,67.69L236.45,67.08L240.06,67.2L243.74,68.16L248.5,67.77L250.78,67.16L254.38,67.23L258.06,68.24L262.85,68.12L268.72,67.34L272.39,68.1L279.43,67.09L283.04,66.66L286.72,68.04L291.52,67.9L293.77,66.87L297.37,67.21L301.05,66.59L305.82,67.58L308.1,65.98L311.67,67.08L315.4,67.77L320.16,66.93L322.45,66.09L326.01,65.64L334.48,66.6L336.77,65.84L348.84,66.28L351.09,65.18L358.37,66.59L363.14,66.6L365.42,64.06L369,65.52L381.02,65.14L384.1,65.98L392.29,65.6L394.19,63.68L400.27,68.83L403.37,65.13L408.43,58.11L411.98,56.64L415.71,53.02L420.45,51.13L422.74,49.45L426.31,52.41L430.04,47.38L434.79,48.23L437.08,42.66L440.68,44.78L444.34,41.93L449.15,43.75L451.42,43.83L454.98,40.08L458.7,43.84L463.45,42.04L465.73,42.34L469.31,39.28L477.77,37.34L480.06,35.66L483.64,38.96L487.33,38.28L492.1,37.56L494.42,35.22L498,36.61" style="vector-effect: none; fill: none; stroke: rgb(49, 104, 142); stroke-opacity: 1; stroke-width: 1.5px; opacity: 1;"/></g><g class="points"/><g class="text"/></g><g class="trace scatter trace70cf03" style="stroke-miterlimit: 2; opacity: 1;"><g class="fills"/><g class="errorbars"/><g class="lines"><path class="js-line" d="M0,109.22L4.9,115.24L7.19,115.07L28.78,114.93L33.55,114.87L82.43,113.78L86.1,113.23L107.51,110.41L111.09,109.58L129.09,104.15L133.86,102.11L139.73,98.73L143.4,97.17L154.08,90.59L157.76,88.1L164.82,83.49L168.39,79.61L172.08,77.56L176.86,72.44L179.15,71.49L182.74,68.1L186.41,66.84L191.19,66.42L197.03,64.85L200.77,64.08L225.7,61.93L229.39,62.09L236.46,61.18L240.06,60.35L254.39,57.65L258.07,56.19L262.86,53.81L265.14,55.37L268.72,53.57L272.39,48.2L277.19,44.39L279.44,43.66L286.72,35.28L291.53,28.94L293.78,28.32L297.38,29.05L305.83,28.15L308.1,28.5L315.41,29.19L320.16,29.43L326.02,29.07L329.73,29.09L340.34,29.17L344.04,28.95L348.84,28.18L351.1,28.87L363.14,28.49L365.43,28.06L372.7,27.91L379.48,27.01L381.02,26.53L384.1,26.71L387.87,26.08L392.3,23.95L394.2,23.74L400.27,22L403.38,22.35L406.46,21.48L408.44,17.97L411.99,20.64L420.46,18.46L422.74,15.29L426.32,18.19L430.05,17.49L434.8,17.31L437.09,12.67L440.68,16.46L444.34,16.05L449.15,14.84L451.43,10.6L454.99,15.03L458.7,14.04L463.45,13.31L465.74,10.01L469.32,12.67L473.01,12.64L477.78,11.72L480.06,8.18L483.64,12.08L487.34,11.53L492.1,11.05L494.43,7.32L498,10.32" style="vector-effect: none; fill: none; stroke: rgb(253, 231, 37); stroke-opacity: 1; stroke-width: 1.5px; opacity: 1;"/></g><g class="points"/><g class="text"/></g><g class="trace scatter traced97dbb" style="stroke-miterlimit: 2; opacity: 1;"><g class="fills"/><g class="errorbars"/><g class="lines"><path class="js-line" d="M0,108.75L4.9,115.19L7.19,115.1L82.43,114.06L86.1,113.57L100.45,111.8L105.22,110.81L114.76,108.71L119.53,107.34L129.09,104.01L133.86,101.63L148.19,93.9L150.5,93.54L157.76,88.02L162.53,85.36L164.82,83.85L168.39,80.46L172.08,79.06L176.86,73.85L179.15,72.82L182.74,68.04L193.48,66.08L197.03,65.12L207.82,62.29L211.37,61.84L229.39,59.5L234.18,58.98L243.75,57.37L248.5,56.01L250.78,56.14L254.39,55.57L262.86,51.47L265.14,54.28L272.39,46.19L277.19,42.16L279.44,41.7L283.05,38.93L291.53,28.01L293.78,27.01L297.38,27.49L301.05,26.85L305.83,25.79L308.1,26.45L315.41,26.35L320.16,26.33L326.02,26.17L329.73,25.96L344.04,25.3L348.84,23.72L351.1,24.89L354.68,24.87L387.87,21.49L392.3,18.77L394.2,18.88L400.27,17.63L406.46,17.49L408.44,13.54L411.99,16.89L415.71,16.53L420.46,14.92L422.74,11.06L426.32,13.33L430.05,14.44L434.8,14.11L437.09,8.76L440.68,12.67L444.34,13.37L449.15,12.76L451.43,8.08L454.99,11.75L458.7,12.42L463.45,11.98L465.74,7.86L469.32,11.25L473.01,11.45L477.78,10.74L480.06,6.42L483.64,10.24L487.34,10.61L492.1,10.19L494.43,6.08L498,8.43" style="vector-effect: none; fill: none; stroke: rgb(253, 231, 37); stroke-opacity: 1; stroke-width: 1.5px; opacity: 1;"/></g><g class="points"/><g class="text"/></g><g class="trace scatter trace894925" style="stroke-miterlimit: 2; opacity: 1;"><g class="fills"/><g class="errorbars"/><g class="lines"><path class="js-line" d="M0,107.86L4.9,115.06L7.19,115.06L78.84,114.27L82.43,114.11L107.51,110.41L111.09,109.56L125.4,105.33L129.09,103.94L143.4,96.9L148.19,93.79L150.5,93.37L154.08,90.34L157.76,87.66L162.53,85.32L168.39,80.22L172.08,78.95L176.86,73.85L179.15,73.72L182.74,68.29L186.41,67.4L191.19,66.98L193.48,65.7L207.82,62.45L211.37,62.05L240.06,57.84L243.75,57.62L250.78,56.33L254.39,55.57L262.86,51.92L265.14,54.44L272.39,46.28L277.19,42.34L279.44,41.73L283.05,38.47L291.53,27.61L293.78,26.57L297.38,27.19L301.05,26.67L305.83,25.84L308.1,26.27L320.16,26.84L322.45,26.6L329.73,26.58L334.49,26.61L340.34,26.21L344.04,26.25L348.84,24.83L351.1,25.77L354.68,26.04L358.38,25.53L372.7,24.3L379.48,23.33L381.02,23.03L384.1,23.36L387.87,22.76L392.3,20.46L394.2,20.49L400.27,19.36L406.46,19.08L408.44,15.61L411.99,18.42L415.71,17.86L420.46,16.57L422.74,12.91L426.32,16.28L430.05,15.93L434.8,15.79L437.09,11.2L440.68,15.15L444.34,15.03L449.15,14.49L451.43,10.55L454.99,14.72L458.7,13.96L463.45,13.51L465.74,10.03L469.32,13.38L473.01,12.94L477.78,12.3L480.06,8.63L483.64,12.89L487.34,12.07L492.1,11.53L494.43,8.21L498,11.28" style="vector-effect: none; fill: none; stroke: rgb(253, 231, 37); stroke-opacity: 1; stroke-width: 1.5px; opacity: 1;"/></g><g class="points"/><g class="text"/></g></g></g></g><path class="xlines-above crisp" d="M37.5,464.24999999999994H536.5M37.5,342.22999999999996H536.5" style="fill: none; stroke-width: 0.5px; stroke: rgb(0, 0, 0); stroke-opacity: 1;"/><path class="ylines-above crisp" d="M37.75,342.47999999999996V463.99999999999994M536.25,342.47999999999996V463.99999999999994" style="fill: none; stroke-width: 0.5px; stroke: rgb(0, 0, 0); stroke-opacity: 1;"/><g class="overlines-above"/><g class="xaxislayer-above"><path class="x3tick ticks crisp" d="M0,463.99999999999994v-5" transform="translate(109.65,0)" style="stroke: rgb(0, 0, 0); stroke-opacity: 1; stroke-width: 0.5px;"/><path class="x3tick ticks crisp" d="M0,463.99999999999994v-5" transform="translate(181.3,0)" style="stroke: rgb(0, 0, 0); stroke-opacity: 1; stroke-width: 0.5px;"/><path class="x3tick ticks crisp" d="M0,463.99999999999994v-5" transform="translate(252.95,0)" style="stroke: rgb(0, 0, 0); stroke-opacity: 1; stroke-width: 0.5px;"/><path class="x3tick ticks crisp" d="M0,463.99999999999994v-5" transform="translate(324.6,0)" style="stroke: rgb(0, 0, 0); stroke-opacity: 1; stroke-width: 0.5px;"/><path class="x3tick ticks crisp" d="M0,463.99999999999994v-5" transform="translate(396.25,0)" style="stroke: rgb(0, 0, 0); stroke-opacity: 1; stroke-width: 0.5px;"/><path class="x3tick ticks crisp" d="M0,463.99999999999994v-5" transform="translate(467.9,0)" style="stroke: rgb(0, 0, 0); stroke-opacity: 1; stroke-width: 0.5px;"/><g class="x3tick"><text text-anchor="middle" x="0" y="477.69999999999993" transform="translate(38,0)" style="font-family: 'Open Sans', verdana, arial, sans-serif; font-size: 11px; fill: rgb(0, 0, 0); fill-opacity: 1; white-space: pre; opacity: 1;">0</text></g><g class="x3tick"><text text-anchor="middle" x="0" y="477.69999999999993" style="font-family: 'Open Sans', verdana, arial, sans-serif; font-size: 11px; fill: rgb(0, 0, 0); fill-opacity: 1; white-space: pre; opacity: 1;" transform="translate(109.65,0)">5</text></g><g class="x3tick"><text text-anchor="middle" x="0" y="477.69999999999993" style="font-family: 'Open Sans', verdana, arial, sans-serif; font-size: 11px; fill: rgb(0, 0, 0); fill-opacity: 1; white-space: pre; opacity: 1;" transform="translate(181.3,0)">10</text></g><g class="x3tick"><text text-anchor="middle" x="0" y="477.69999999999993" style="font-family: 'Open Sans', verdana, arial, sans-serif; font-size: 11px; fill: rgb(0, 0, 0); fill-opacity: 1; white-space: pre; opacity: 1;" transform="translate(252.95,0)">15</text></g><g class="x3tick"><text text-anchor="middle" x="0" y="477.69999999999993" style="font-family: 'Open Sans', verdana, arial, sans-serif; font-size: 11px; fill: rgb(0, 0, 0); fill-opacity: 1; white-space: pre; opacity: 1;" transform="translate(324.6,0)">20</text></g><g class="x3tick"><text text-anchor="middle" x="0" y="477.69999999999993" style="font-family: 'Open Sans', verdana, arial, sans-serif; font-size: 11px; fill: rgb(0, 0, 0); fill-opacity: 1; white-space: pre; opacity: 1;" transform="translate(396.25,0)">25</text></g><g class="x3tick"><text text-anchor="middle" x="0" y="477.69999999999993" style="font-family: 'Open Sans', verdana, arial, sans-serif; font-size: 11px; fill: rgb(0, 0, 0); fill-opacity: 1; white-space: pre; opacity: 1;" transform="translate(467.9,0)">30</text></g></g><g class="yaxislayer-above"><path class="y3tick ticks crisp" d="M38,0h5" transform="translate(0,458.34)" style="stroke: rgb(0, 0, 0); stroke-opacity: 1; stroke-width: 0.5px;"/><path class="y3tick ticks crisp" d="M38,0h5" transform="translate(0,432.63)" style="stroke: rgb(0, 0, 0); stroke-opacity: 1; stroke-width: 0.5px;"/><path class="y3tick ticks crisp" d="M38,0h5" transform="translate(0,406.91999999999996)" style="stroke: rgb(0, 0, 0); stroke-opacity: 1; stroke-width: 0.5px;"/><path class="y3tick ticks crisp" d="M38,0h5" transform="translate(0,381.21)" style="stroke: rgb(0, 0, 0); stroke-opacity: 1; stroke-width: 0.5px;"/><path class="y3tick ticks crisp" d="M38,0h5" transform="translate(0,355.50999999999993)" style="stroke: rgb(0, 0, 0); stroke-opacity: 1; stroke-width: 0.5px;"/><g class="y3tick"><text text-anchor="end" x="35.3" y="3.8499999999999996" transform="translate(0,458.34)" style="font-family: 'Open Sans', verdana, arial, sans-serif; font-size: 11px; fill: rgb(0, 0, 0); fill-opacity: 1; white-space: pre; opacity: 1;">0</text></g><g class="y3tick"><text text-anchor="end" x="35.3" y="3.8499999999999996" style="font-family: 'Open Sans', verdana, arial, sans-serif; font-size: 11px; fill: rgb(0, 0, 0); fill-opacity: 1; white-space: pre; opacity: 1;" transform="translate(0,432.63)">0.2</text></g><g class="y3tick"><text text-anchor="end" x="35.3" y="3.8499999999999996" style="font-family: 'Open Sans', verdana, arial, sans-serif; font-size: 11px; fill: rgb(0, 0, 0); fill-opacity: 1; white-space: pre; opacity: 1;" transform="translate(0,406.91999999999996)">0.4</text></g><g class="y3tick"><text text-anchor="end" x="35.3" y="3.8499999999999996" style="font-family: 'Open Sans', verdana, arial, sans-serif; font-size: 11px; fill: rgb(0, 0, 0); fill-opacity: 1; white-space: pre; opacity: 1;" transform="translate(0,381.21)">0.6</text></g><g class="y3tick"><text text-anchor="end" x="35.3" y="3.8499999999999996" style="font-family: 'Open Sans', verdana, arial, sans-serif; font-size: 11px; fill: rgb(0, 0, 0); fill-opacity: 1; white-space: pre; opacity: 1;" transform="translate(0,355.50999999999993)">0.8</text></g></g><g class="overaxes-above"/></g></g><g class="polarlayer"/><g class="smithlayer"/><g class="ternarylayer"/><g class="geolayer"/><g class="funnelarealayer"/><g class="pielayer"/><g class="iciclelayer"/><g class="treemaplayer"/><g class="sunburstlayer"/><g class="glimages"/><defs id="topdefs-e3e1b9"><g class="clips"/><clipPath id="legende3e1b9"><rect width="142" height="87" x="0" y="0"/></clipPath></defs><g class="layer-above"><g class="imagelayer"/><g class="shapelayer"/></g><g class="infolayer"><g class="legend" pointer-events="all" transform="translate(545.96,30)"><rect class="bg" shape-rendering="crispEdges" style="stroke: rgb(68, 68, 68); stroke-opacity: 1; fill: rgb(255, 255, 255); fill-opacity: 1; stroke-width: 0px;" width="142" height="87" x="0" y="0"/><g class="scrollbox" transform="" clip-path="url(#legende3e1b9)"><g class="groups" transform=""><g class="traces" transform="translate(0,14.5)" style="opacity: 1;"><text class="legendtext" text-anchor="start" x="40" y="4.29" style="font-family: 'Open Sans', verdana, arial, sans-serif; font-size: 11px; fill: rgb(0, 0, 0); fill-opacity: 1; white-space: pre;">Glucose</text><g class="layers" style="opacity: 1;"><g class="legendfill"/><g class="legendlines"><path class="js-line" d="M5,0h30" style="fill: none; stroke: rgb(53, 183, 121); stroke-opacity: 1; stroke-width: 1.5px;"/></g><g class="legendsymbols"><g class="legendpoints"/></g></g><rect class="legendtoggle" x="0" y="-9.5" width="136.109375" height="19" style="fill: rgb(0, 0, 0); fill-opacity: 0;"/></g></g><g class="groups" transform="translate(0,10)"><g class="traces" transform="translate(0,33.5)" style="opacity: 1;"><text class="legendtext" text-anchor="start" x="40" y="4.29" style="font-family: 'Open Sans', verdana, arial, sans-serif; font-size: 11px; fill: rgb(0, 0, 0); fill-opacity: 1; white-space: pre;">Succinate</text><g class="layers" style="opacity: 1;"><g class="legendfill"/><g class="legendlines"><path class="js-line" d="M5,0h30" style="fill: none; stroke: rgb(49, 104, 142); stroke-opacity: 1; stroke-width: 1.5px;"/></g><g class="legendsymbols"><g class="legendpoints"/></g></g><rect class="legendtoggle" x="0" y="-9.5" width="136.109375" height="19" style="fill: rgb(0, 0, 0); fill-opacity: 0;"/></g></g><g class="groups" transform="translate(0,20)"><g class="traces" transform="translate(0,52.5)" style="opacity: 1;"><text class="legendtext" text-anchor="start" x="40" y="4.29" style="font-family: 'Open Sans', verdana, arial, sans-serif; font-size: 11px; fill: rgb(0, 0, 0); fill-opacity: 1; white-space: pre;">Succinate+Glucose</text><g class="layers" style="opacity: 1;"><g class="legendfill"/><g class="legendlines"><path class="js-line" d="M5,0h30" style="fill: none; stroke: rgb(253, 231, 37); stroke-opacity: 1; stroke-width: 1.5px;"/></g><g class="legendsymbols"><g class="legendpoints"/></g></g><rect class="legendtoggle" x="0" y="-9.5" width="136.109375" height="19" style="fill: rgb(0, 0, 0); fill-opacity: 0;"/></g></g></g><rect class="scrollbar" rx="20" ry="3" width="0" height="0" style="fill: rgb(128, 139, 164); fill-opacity: 1;" x="0" y="0"/></g><g class="g-gtitle"><text class="gtitle" x="35" y="15" text-anchor="start" dy="0em" style="opacity: 1; font-family: 'Open Sans', verdana, arial, sans-serif; font-size: 11px; fill: rgb(0, 0, 0); fill-opacity: 1; white-space: pre;">Growth on 5 mM Glucose and 7.5 mM Succinate</text></g><g class="g-xtitle"/><g class="g-x2title"/><g class="g-x3title" transform="translate(0,4.550000000000011)"><text class="x3title" x="287" y="488.153125" text-anchor="middle" style="opacity: 1; font-family: 'Open Sans', verdana, arial, sans-serif; font-size: 11px; fill: rgb(0, 0, 0); fill-opacity: 1; white-space: pre;">Time (hours)</text></g><g class="g-ytitle"/><g class="g-y2title"><text class="y2title" transform="rotate(-90,16.18125,247.00000000000003)" x="16.18125" y="247.00000000000003" text-anchor="middle" style="opacity: 1; font-family: 'Open Sans', verdana, arial, sans-serif; font-size: 11px; fill: rgb(0, 0, 0); fill-opacity: 1; white-space: pre;">OD600</text></g><g class="g-y3title"/><g class="annotation" data-index="0" style="opacity: 1;"><g class="annotation-text-g" transform="rotate(0,287,20.5)"><g class="cursor-pointer" transform="translate(280,11)"><rect class="bg" x="0.5" y="0.5" width="14" height="18" style="stroke-width: 1px; stroke: rgb(0, 0, 0); stroke-opacity: 0; fill: rgb(0, 0, 0); fill-opacity: 0;"/><text class="annotation-text" text-anchor="middle" x="7.4375" y="14" style="font-family: 'Open Sans', verdana, arial, sans-serif; font-size: 11px; fill: rgb(0, 0, 0); fill-opacity: 1; white-space: pre;">At</text></g></g></g><g class="annotation" data-index="1" style="opacity: 1;"><g class="annotation-text-g" transform="rotate(0,287,176.74000000000004)"><g class="cursor-pointer" transform="translate(278,167)"><rect class="bg" x="0.5" y="0.5" width="18" height="18" style="stroke-width: 1px; stroke: rgb(0, 0, 0); stroke-opacity: 0; fill: rgb(0, 0, 0); fill-opacity: 0;"/><text class="annotation-text" text-anchor="middle" x="9.34375" y="14" style="font-family: 'Open Sans', verdana, arial, sans-serif; font-size: 11px; fill: rgb(0, 0, 0); fill-opacity: 1; white-space: pre;">Oa</text></g></g></g><g class="annotation" data-index="2" style="opacity: 1;"><g class="annotation-text-g" transform="rotate(0,287,332.97999999999996)"><g class="cursor-pointer" transform="translate(269,323)"><rect class="bg" x="0.5" y="0.5" width="35" height="18" style="stroke-width: 1px; stroke: rgb(0, 0, 0); stroke-opacity: 0; fill: rgb(0, 0, 0); fill-opacity: 0;"/><text class="annotation-text" text-anchor="middle" x="17.921875" y="14" style="font-family: 'Open Sans', verdana, arial, sans-serif; font-size: 11px; fill: rgb(0, 0, 0); fill-opacity: 1; white-space: pre;">At+Oa</text></g></g></g></g></svg>