<svg class="main-svg" xmlns="http://www.w3.org/2000/svg" xmlns:xlink="http://www.w3.org/1999/xlink" width="700" height="500" style="" viewBox="0 0 700 500"><rect x="0" y="0" width="700" height="500" style="fill: rgb(255, 255, 255); fill-opacity: 1;"/><defs id="defs-03c3af"><g class="clips"><clipPath id="clip03c3afxyplot" class="plotclip"><rect width="542" height="121.52000000000001"/></clipPath><clipPath id="clip03c3afx2y2plot" class="plotclip"><rect width="542" height="121.51999999999997"/></clipPath><clipPath id="clip03c3afx3y3plot" class="plotclip"><rect width="542" height="121.51999999999998"/></clipPath><clipPath class="axesclip" id="clip03c3afx"><rect x="38" y="0" width="542" height="500"/></clipPath><clipPath class="axesclip" id="clip03c3afy"><rect x="0" y="30" width="700" height="121.52000000000001"/></clipPath><clipPath class="axesclip" id="clip03c3afxy"><rect x="38" y="30" width="542" height="121.52000000000001"/></clipPath><clipPath class="axesclip" id="clip03c3afy2"><rect x="0" y="186.24000000000004" width="700" height="121.51999999999997"/></clipPath><clipPath class="axesclip" id="clip03c3afxy2"><rect x="38" y="186.24000000000004" width="542" height="121.51999999999997"/></clipPath><clipPath class="axesclip" id="clip03c3afy3"><rect x="0" y="342.47999999999996" width="700" height="121.51999999999998"/></clipPath><clipPath class="axesclip" id="clip03c3afxy3"><rect x="38" y="342.47999999999996" width="542" height="121.51999999999998"/></clipPath><clipPath class="axesclip" id="clip03c3afx2"><rect x="38" y="0" width="542" height="500"/></clipPath><clipPath class="axesclip" id="clip03c3afx2y"><rect x="38" y="30" width="542" height="121.52000000000001"/></clipPath><clipPath class="axesclip" id="clip03c3afx2y2"><rect x="38" y="186.24000000000004" width="542" height="121.51999999999997"/></clipPath><clipPath class="axesclip" id="clip03c3afx2y3"><rect x="38" y="342.47999999999996" width="542" height="121.51999999999998"/></clipPath><clipPath class="axesclip" id="clip03c3afx3"><rect x="38" y="0" width="542" height="500"/></clipPath><clipPath class="axesclip" id="clip03c3afx3y"><rect x="38" y="30" width="542" height="121.52000000000001"/></clipPath><clipPath class="axesclip" id="clip03c3afx3y2"><rect x="38" y="186.24000000000004" width="542" height="121.51999999999997"/></clipPath><clipPath class="axesclip" id="clip03c3afx3y3"><rect x="38" y="342.47999999999996" width="542" height="121.51999999999998"/></clipPath></g><g class="gradients"/><g class="patterns"/></defs><g class="bglayer"/><g class="layer-below"><g class="imagelayer"/><g class="shapelayer"/></g><g class="cartesianlayer"><g class="subplot xy"><g class="layer-subplot"><g class="shapelayer"/><g class="imagelayer"/></g><g class="minor-gridlayer"><g class="x"/><g class="y"/></g><g class="gridlayer"><g class="x"><path class="xgrid crisp" transform="translate(115.98,0)" d="M0,30v121.52000000000001" style="stroke: rgb(128, 128, 128); stroke-opacity: 1; stroke-width: 0.2px;"/><path class="xgrid crisp" transform="translate(193.96,0)" d="M0,30v121.52000000000001" style="stroke: rgb(128, 128, 128); stroke-opacity: 1; stroke-width: 0.2px;"/><path class="xgrid crisp" transform="translate(271.94,0)" d="M0,30v121.52000000000001" style="stroke: rgb(128, 128, 128); stroke-opacity: 1; stroke-width: 0.2px;"/><path class="xgrid crisp" transform="translate(349.92,0)" d="M0,30v121.52000000000001" style="stroke: rgb(128, 128, 128); stroke-opacity: 1; stroke-width: 0.2px;"/><path class="xgrid crisp" transform="translate(427.91,0)" d="M0,30v121.52000000000001" style="stroke: rgb(128, 128, 128); stroke-opacity: 1; stroke-width: 0.2px;"/><path class="xgrid crisp" transform="translate(505.89,0)" d="M0,30v121.52000000000001" style="stroke: rgb(128, 128, 128); stroke-opacity: 1; stroke-width: 0.2px;"/></g><g class="y"><path class="ygrid crisp" transform="translate(0,145.66)" d="M38,0h542" style="stroke: rgb(128, 128, 128); stroke-opacity: 1; stroke-width: 0.2px;"/><path class="ygrid crisp" transform="translate(0,115.77)" d="M38,0h542" style="stroke: rgb(128, 128, 128); stroke-opacity: 1; stroke-width: 0.2px;"/><path class="ygrid crisp" transform="translate(0,85.87)" d="M38,0h542" style="stroke: rgb(128, 128, 128); stroke-opacity: 1; stroke-width: 0.2px;"/><path class="ygrid crisp" transform="translate(0,55.980000000000004)" d="M38,0h542" style="stroke: rgb(128, 128, 128); stroke-opacity: 1; stroke-width: 0.2px;"/></g></g><g class="zerolinelayer"/><g class="layer-between"><g class="shapelayer"/><g class="imagelayer"/></g><path class="xlines-below"/><path class="ylines-below"/><g class="overlines-below"/><g class="xaxislayer-below"/><g class="yaxislayer-below"/><g class="overaxes-below"/><g class="overplot"><g class="xy" transform="translate(38,30)" clip-path="url(#clip03c3afxyplot)"><g class="scatterlayer mlayer"><g class="trace scatter trace16e23e" style="stroke-miterlimit: 2; opacity: 1;"><g class="fills"/><g class="errorbars"/><g class="lines"><path class="js-line" d="M0,115.32L20.92,114.99L23.42,114.94L61.48,114.75L64.83,114.16L68.19,114.52L70.63,113.98L85.8,112.49L89.7,112.01L93.7,111.53L98.91,109.8L101.39,109.84L105.28,109.03L114.51,105.82L117,104.75L120.9,103.22L124.9,102.48L132.58,97.41L136.47,95.33L152.06,87.4L156.08,79.95L161.28,74.71L163.79,75.94L167.69,70.95L171.69,64.29L176.88,60.93L179.38,61.56L187.28,53.43L192.48,47.52L194.97,45.95L198.89,40.81L202.88,36.29L208.07,32.87L210.56,31.27L214.44,31.03L218.5,30.44L223.68,28.74L241.75,25.34L245.65,26.2L257.35,24.63L261.27,24.68L265.27,25.31L270.46,24.74L272.94,23.72L276.86,23.8L280.86,25.14L286.08,24.69L288.56,23.44L292.46,23.59L296.45,24.3L301.68,24.3L304.12,23.23L308.05,22.44L312.05,23.97L317.28,23.35L319.73,22.37L323.65,22.77L327.65,22.62L332.84,23.58L335.32,21.67L339.21,22.69L350.94,22.23L354.81,20.73L358.86,21.15L364.04,22.69L370.41,22.65L374.44,24.28L382.11,23.13L386.01,24.25L390.04,25.42L395.23,25.62L397.71,23.08L401.6,24.99L413.01,26.92L414.68,26.1L418.04,27.62L422.13,27.04L426.95,28.85L429.03,31.85L435.63,33.86L439.02,34L442.37,34.71L444.52,33.04L448.39,33.64L452.44,31.69L457.61,30.61L460.09,31.03L463.98,36.17L468.04,32.56L473.21,34.31L475.7,30.25L479.62,33.89L483.6,32.32L491.31,36.59L495.18,33.39L499.23,38.45L504.4,38.32L506.89,38.85L510.78,37.3L514.79,37.94L519.99,37.99L522.48,36.24L526.38,40.85L530.39,42.17L535.58,41.97L538.11,39.01L542,41.29" style="vector-effect: none; fill: none; stroke: rgb(71, 43, 121); stroke-opacity: 1; stroke-width: 1.5px; opacity: 1;"/></g><g class="points"/><g class="text"/></g><g class="trace scatter trace47634c" style="stroke-miterlimit: 2; opacity: 1;"><g class="fills"/><g class="errorbars"/><g class="lines"><path class="js-line" d="M0,115.29L46.9,114.74L52.13,115.04L85.8,112.67L89.7,112.05L105.28,108.88L109.33,107.4L120.9,102.55L124.9,102.45L130.09,98.56L132.58,97.81L145.68,88.98L148.16,89.62L152.06,87.58L156.08,80.3L161.28,75.16L163.79,77.02L167.69,72.76L171.69,66.47L176.88,61.94L179.38,62.37L183.26,58.56L187.28,53.04L192.48,48.58L194.97,48.19L202.88,39.51L208.07,36.94L210.56,32.25L214.44,31.34L223.68,28.74L226.18,27.91L234.06,26.82L239.27,25.3L241.75,24.03L245.65,24.39L249.66,23.65L254.86,23.57L257.35,22.94L261.27,23.09L265.27,23.49L270.46,22.94L272.94,21.62L276.86,22.05L280.86,23.43L286.08,22.27L288.56,21.5L292.46,21.55L296.45,22.64L301.68,22.05L304.12,21.12L308.05,20.63L312.05,21.78L317.28,21.19L319.73,20.44L323.65,20.7L327.65,20.66L332.84,21.64L335.32,19.28L339.21,21.09L350.94,19.62L354.81,18.69L364.04,20.46L366.52,19.79L370.41,20.12L374.44,21.34L382.11,20.44L386.01,21.53L390.04,22.69L395.23,23.25L397.71,20.17L401.6,22.17L413.01,23.75L414.68,22.92L418.04,24.15L422.13,24.07L426.95,24.76L429.03,27.99L439.02,29.8L442.37,29.98L444.52,28.3L448.39,28.67L457.61,25.06L460.09,24.68L463.98,29.77L468.04,26.2L473.21,27.35L475.7,23.06L479.62,26.1L483.6,24.61L488.83,27.24L491.31,26.8L495.18,25.42L499.23,29.76L506.89,28.98L510.78,27.47L514.79,27.9L519.99,27.04L522.48,25.03L526.38,29.4L530.39,30.81L535.58,30L538.11,26.47L542,28.33" style="vector-effect: none; fill: none; stroke: rgb(71, 43, 121); stroke-opacity: 1; stroke-width: 1.5px; opacity: 1;"/></g><g class="points"/><g class="text"/></g><g class="trace scatter trace1cb7f3" style="stroke-miterlimit: 2; opacity: 1;"><g class="fills"/><g class="errorbars"/><g class="lines"><path class="js-line" d="M0,115.17L46.9,114.64L52.13,114.87L83.3,113.17L85.8,112.44L105.28,108.59L109.33,107.08L120.9,101.97L124.9,101.83L132.58,96.6L136.47,94.9L140.49,91.37L145.68,87.89L148.16,88.81L152.06,86.08L156.08,78.85L161.28,74.13L163.79,76.26L167.69,72.79L171.69,65.99L176.88,61.1L179.38,62.18L183.26,58.68L187.28,53.13L192.48,48.38L194.97,47.82L198.89,44L202.88,39.53L208.07,35.23L210.56,31.45L214.44,30.82L218.5,30.09L223.68,28.32L241.75,23.3L245.65,24L257.35,21.58L261.27,21.52L265.27,22.48L270.46,21.39L272.94,20.44L276.86,20.75L280.86,21.72L286.08,21.01L288.56,20.05L292.46,19.87L296.45,20.92L301.68,20.51L308.05,18.7L312.05,20.31L319.73,18.48L323.65,18.76L327.65,18.52L332.84,19.79L335.32,17.19L339.21,18.49L348.45,18.25L350.94,16.99L354.81,15.8L358.86,16.08L364.04,16.78L366.52,15.84L370.41,15.8L374.44,16.79L379.66,16.06L382.11,14.85L390.04,17.07L395.23,17.24L397.71,13.9L401.6,15.94L413.01,17.44L414.68,16.95L418.04,18.1L422.13,18.39L426.95,19.31L429.03,22.43L442.37,24.71L444.52,22.9L448.39,23.17L452.44,21.38L457.61,19.51L460.09,19.47L463.98,24.88L468.04,20.99L473.21,22.71L475.7,17.87L479.62,21.66L483.6,19.69L488.83,22.92L491.31,23.41L495.18,20.75L499.23,25.29L506.89,24.26L510.78,22.86L514.79,23L519.99,22.34L522.48,20.01L526.38,24.84L530.39,26.14L535.58,25.26L538.11,21.72L542,23.73" style="vector-effect: none; fill: none; stroke: rgb(71, 43, 121); stroke-opacity: 1; stroke-width: 1.5px; opacity: 1;"/></g><g class="points"/><g class="text"/></g><g class="trace scatter trace6343ec" style="stroke-miterlimit: 2; opacity: 1;"><g class="fills"/><g class="errorbars"/><g class="lines"><path class="js-line" d="M0,115L15.72,114.74L20.92,114.69L61.48,114.56L64.83,113.98L70.63,113.8L74.08,113.62L83.3,113.33L85.8,112.91L105.28,110.79L109.33,109.27L124.9,102.27L130.09,97.95L140.49,96.29L145.68,91.12L152.06,88.04L156.08,82.4L161.28,77.34L163.79,76.82L167.69,71.94L171.69,65.72L183.26,56.25L187.28,54.64L202.88,50.02L208.07,48.28L223.68,44.41L226.18,43.34L234.06,42.49L239.27,40.83L241.75,39.16L245.65,39.84L257.35,38.61L261.27,38.89L270.46,39.56L272.94,38.03L286.08,39.38L288.56,38.9L292.46,39.38L296.45,40.8L301.68,40.63L304.12,39.71L308.05,39.42L312.05,41.03L323.65,40.21L327.65,39.7L332.84,40.95L335.32,39.65L343.27,40.3L348.45,39.82L354.81,38.22L358.86,38.68L364.04,40.43L366.52,40.07L370.41,40.27L374.44,41.41L386.01,42.02L390.04,43.03L395.23,43.1L397.71,40.82L405.63,42.24L413.01,43.15L414.68,43.01L418.04,43.57L422.13,43.19L426.95,44.29L429.03,48.26L435.63,49.33L439.02,50.71L442.37,50.72L444.52,49.52L448.39,49.98L452.44,47.61L457.61,45.78L460.09,46.78L463.98,51.86L468.04,47.35L473.21,48.68L475.7,44.76L479.62,48.21L483.6,46.07L488.83,48.92L491.31,50.39L495.18,47.24L499.23,51.83L504.4,51.48L506.89,52.79L510.78,50.8L519.99,50.03L522.48,48.99L526.38,53.38L530.39,53.94L535.58,53.53L538.11,51.27L542,52.98" style="vector-effect: none; fill: none; stroke: rgb(56, 87, 139); stroke-opacity: 1; stroke-width: 1.5px; opacity: 1;"/></g><g class="points"/><g class="text"/></g><g class="trace scatter trace2d3f2e" style="stroke-miterlimit: 2; opacity: 1;"><g class="fills"/><g class="errorbars"/><g class="lines"><path class="js-line" d="M0,115.01L27.29,114.36L31.31,113.03L39,111.64L42.89,106.28L46.9,113.52L52.13,112.45L54.59,101.89L61.48,113.08L68.19,110.29L70.63,113.66L89.7,112.38L93.7,111.95L105.28,110.51L109.33,108.88L124.9,101.92L130.09,97.74L132.58,96.75L136.47,96.75L140.49,95.78L145.68,90.95L148.16,89.98L152.06,87.46L156.08,81.6L161.28,76.91L163.79,77.27L167.69,72.64L171.69,67.1L176.88,62.73L179.38,59.33L183.26,56.9L210.56,48.34L214.44,47.8L218.5,47.7L223.68,46.14L226.18,45.06L230.04,44.82L234.06,44.69L239.27,42.95L241.75,41.49L245.65,42.03L249.66,41.09L254.86,40.72L257.35,40.07L261.27,40.18L270.46,40.63L272.94,39.37L280.86,41.09L286.08,40.64L288.56,39.55L292.46,39.63L296.45,40.85L301.68,40.86L304.12,40.04L308.05,39.75L312.05,40.66L317.28,39.97L319.73,39.36L323.65,39.61L327.65,39.39L332.84,40.45L335.32,38.56L339.21,39.8L343.27,39.81L348.45,38.85L350.94,38.54L354.81,37.13L366.52,38.16L370.41,38L374.44,38.81L379.66,38.22L382.11,38.03L386.01,38.7L390.04,39.86L395.23,39.78L397.71,37.48L401.6,38.97L426.95,40.85L429.03,42.76L435.63,45.73L439.02,45.99L442.37,46.38L444.52,42.01L448.39,45.96L452.44,43.84L457.61,41.53L460.09,36.5L463.98,43.59L468.04,42.25L473.21,44.19L475.7,33.19L479.62,39L483.6,40.59L488.83,44.55L491.31,39.78L495.18,39.45L499.23,45.88L504.4,46.05L506.89,41.87L510.78,41.65L514.79,44.01L519.99,44.3L522.48,36.69L526.38,44.18L530.39,47.3L535.58,47.17L538.11,39.43L542,42.56" style="vector-effect: none; fill: none; stroke: rgb(56, 87, 139); stroke-opacity: 1; stroke-width: 1.5px; opacity: 1;"/></g><g class="points"/><g class="text"/></g><g class="trace scatter tracea053ff" style="stroke-miterlimit: 2; opacity: 1;"><g class="fills"/><g class="errorbars"/><g class="lines"><path class="js-line" d="M0,114.98L27.29,114.69L31.31,114.69L83.3,113.5L85.8,113.06L105.28,110.45L109.33,108.83L124.9,102.05L130.09,98.01L132.58,96.81L136.47,96.44L140.49,96.03L145.68,90.55L148.16,89.84L152.06,87.26L156.08,80.69L161.28,75.94L163.79,76.96L167.69,71.98L171.69,65.84L176.88,61.43L179.38,58.38L183.26,55.9L194.97,52.83L198.89,52.53L208.07,48.99L210.56,48.22L223.68,45.86L226.18,44.42L234.06,44.01L239.27,42.47L241.75,40.9L245.65,41.59L257.35,39.12L261.27,39.44L265.27,39.82L270.46,39.31L272.94,37.28L276.86,38.07L280.86,38.79L286.08,38.11L288.56,37.39L292.46,37.59L296.45,38.64L301.68,37.8L304.12,36.98L308.05,36.91L312.05,37.04L317.28,36.22L319.73,35.54L323.65,36.13L327.65,35.59L332.84,36.77L335.32,35.18L339.21,35.72L348.45,34.66L350.94,34L354.81,32.72L358.86,33.23L366.52,34.08L370.41,34.32L374.44,35.36L379.66,34.47L382.11,34.27L386.01,35.05L390.04,36.19L395.23,35.98L397.71,33.6L401.6,35.1L426.95,37.58L429.03,35.9L435.63,41.88L439.02,36.49L442.37,32.54L444.52,28.84L448.39,27.49L452.44,23.53L460.09,19L463.98,22.46L468.04,16.81L473.21,17.68L475.7,12.03L479.62,14.35L483.6,11.08L488.83,13.67L491.31,14.08L495.18,9.96L499.23,14.35L504.4,11.9L506.89,12.94L510.78,9.33L514.79,9.05L519.99,7.7L522.48,6.08L526.38,10.64L535.58,10.97L538.11,8.07L542,9.63" style="vector-effect: none; fill: none; stroke: rgb(56, 87, 139); stroke-opacity: 1; stroke-width: 1.5px; opacity: 1;"/></g><g class="points"/><g class="text"/></g><g class="trace scatter trace395097" style="stroke-miterlimit: 2; opacity: 1;"><g class="fills"/><g class="errorbars"/><g class="lines"><path class="js-line" d="M0,115.03L46.9,114.47L52.13,114.69L83.3,113.17L85.8,112.61L105.28,111.42L109.33,110.54L120.9,105.66L124.9,103.58L132.58,97.96L136.47,96.45L140.49,95.21L145.68,90.42L156.08,88.89L161.28,86.83L163.79,84.97L167.69,83.1L171.69,82.6L176.88,79.66L179.38,78.5L183.26,77.91L194.97,75.29L198.89,75.75L210.56,74L214.44,74.15L218.5,75.03L223.68,74.68L226.18,73.79L230.04,74.01L234.06,74.46L239.27,73.24L241.75,71.46L245.65,72.65L249.66,72.11L254.86,72.17L257.35,71.69L261.27,72.55L265.27,73.38L270.46,73.08L272.94,71.44L276.86,72.62L280.86,73.98L286.08,73.38L288.56,72.84L292.46,73.37L296.45,75.07L301.68,74.84L304.12,73.99L308.05,73.59L312.05,74.45L317.28,74.41L319.73,73.91L323.65,74.65L327.65,74.08L332.84,75.68L335.32,73.9L339.21,74.72L350.94,73.98L354.81,73.14L364.04,75.62L366.52,75.15L379.66,76.34L382.11,75.84L390.04,77.77L395.23,78.06L397.71,75.37L401.6,77.09L414.68,77.37L418.04,78.56L422.13,78.16L426.95,78.79L429.03,82.27L435.63,84L439.02,84.81L442.37,84.63L444.52,83.31L448.39,83.6L457.61,80.05L460.09,80.31L463.98,85.63L468.04,81.59L473.21,83.8L475.7,79.26L479.62,83.17L483.6,81.51L488.83,85.06L491.31,85.74L495.18,82.31L499.23,86.88L504.4,86.34L506.89,87.05L510.78,85.42L514.79,85.24L519.99,85.29L522.48,83.86L526.38,88.01L530.39,88.66L535.58,88.29L538.11,85.56L542,87.27" style="vector-effect: none; fill: none; stroke: rgb(40, 125, 142); stroke-opacity: 1; stroke-width: 1.5px; opacity: 1;"/></g><g class="points"/><g class="text"/></g><g class="trace scatter trace7f83bb" style="stroke-miterlimit: 2; opacity: 1;"><g class="fills"/><g class="errorbars"/><g class="lines"><path class="js-line" d="M0,115.26L70.63,113.69L74.08,113.47L89.7,112.41L93.7,112.32L109.33,110.22L114.51,108.48L124.9,104.05L130.09,101.76L132.58,98.95L136.47,95.78L140.49,93.42L145.68,88.86L148.16,88.24L152.06,88.17L156.08,87.47L161.28,85.67L163.79,84L167.69,83.07L171.69,82.15L176.88,79.53L183.26,76.84L187.28,76.47L194.97,74.8L198.89,74.9L202.88,74.3L208.07,74.4L214.44,74.8L218.5,75.76L223.68,75.27L226.18,74.27L234.06,75.02L239.27,73.52L241.75,71.61L245.65,72.97L249.66,72.59L254.86,72.93L257.35,72.15L261.27,72.58L265.27,73.49L270.46,73.47L272.94,71.59L276.86,71.98L280.86,73.49L286.08,72.75L288.56,71.98L292.46,72.5L296.45,73.96L301.68,73.15L304.12,71.55L308.05,71.36L312.05,72.14L317.28,72.06L319.73,71.2L323.65,72.05L327.65,72.24L332.84,73.75L335.32,71.55L339.21,71.79L348.45,72.08L350.94,71.22L354.81,70.23L358.86,71.24L364.04,72.66L366.52,71.99L370.41,72.41L374.44,73.77L382.11,72.19L386.01,73.92L390.04,75.32L395.23,75.52L397.71,72.53L401.6,74.22L413.01,75.17L414.68,74.49L418.04,75.69L422.13,75.55L429.03,75.15L435.63,81.16L439.02,76.58L442.37,73.79L444.52,69.14L448.39,69.34L452.44,66.77L457.61,67.32L460.09,66.6L463.98,70.32L468.04,64.25L473.21,66.35L475.7,60.13L479.62,62.19L483.6,59.12L488.83,62.76L491.31,61.89L495.18,58.69L499.23,62.47L504.4,60.42L506.89,61.43L510.78,57.77L514.79,56.63L519.99,56.75L522.48,54.55L526.38,58.38L535.58,57.93L538.11,55.57L542,56.49" style="vector-effect: none; fill: none; stroke: rgb(40, 125, 142); stroke-opacity: 1; stroke-width: 1.5px; opacity: 1;"/></g><g class="points"/><g class="text"/></g><g class="trace scatter tracedbab2d" style="stroke-miterlimit: 2; opacity: 1;"><g class="fills"/><g class="errorbars"/><g class="lines"><path class="js-line" d="M0,115.44L70.63,114.07L74.08,113.69L78.1,114.06L83.3,113.72L89.7,112.87L93.7,112.53L105.28,112.05L109.33,110.92L117,108.33L120.9,106.45L132.58,100.2L136.47,97.41L148.16,90.05L152.06,89.55L161.28,86.82L163.79,85.08L167.69,83.49L171.69,83.17L179.38,78.3L183.26,77.34L194.97,74.55L198.89,74.33L210.56,72.4L214.44,72.91L218.5,73.89L223.68,73.18L226.18,72.52L230.04,73.13L234.06,73.71L239.27,73.21L241.75,71.55L245.65,72.56L249.66,72.08L254.86,72.25L257.35,71.46L261.27,72L265.27,73.4L270.46,73.2L272.94,71.27L276.86,71.44L280.86,72.51L286.08,71.33L288.56,69.91L292.46,70.64L296.45,72.48L301.68,72.28L304.12,71.01L308.05,70.62L312.05,71.57L317.28,71.7L319.73,71.01L323.65,71.81L327.65,71.72L332.84,73.42L335.32,71.6L339.21,71.81L348.45,71.09L350.94,69.86L354.81,68.87L358.86,70.36L364.04,71.33L366.52,70.48L379.66,72.44L382.11,71.26L390.04,73.36L395.23,73.17L397.71,70.45L401.6,72.26L422.13,73.75L426.95,67.94L429.03,67.05L435.63,67.24L442.37,61.48L444.52,58.18L448.39,56.5L452.44,52.32L460.09,48.28L463.98,51.85L468.04,46.09L473.21,47.83L475.7,42.77L479.62,45.11L483.6,41.96L488.83,45.85L491.31,47.49L495.18,44.25L499.23,47.48L504.4,46.1L506.89,48.46L510.78,44.85L514.79,44.21L519.99,44.99L522.48,43.1L526.38,47.26L530.39,48.06L535.58,47.17L538.11,44.14L542,45.76" style="vector-effect: none; fill: none; stroke: rgb(40, 125, 142); stroke-opacity: 1; stroke-width: 1.5px; opacity: 1;"/></g><g class="points"/><g class="text"/></g><g class="trace scatter traced5022d" style="stroke-miterlimit: 2; opacity: 1;"><g class="fills"/><g class="errorbars"/><g class="lines"><path class="js-line" d="M0,114.87L31.31,114.54L36.51,114.47L83.3,112.53L85.8,112.4L101.39,111.15L105.28,110.42L120.9,106.65L124.9,106.25L163.79,105.14L167.69,105.22L176.88,104.76L179.38,104.23L192.48,102.05L194.97,101.73L210.56,98.8L214.44,98.81L218.5,99.51L223.68,98.65L234.06,99.31L239.27,98.41L261.27,100.85L265.27,101.95L280.86,103.46L286.08,103.23L296.45,103.48L301.68,103.46L422.13,103.58L426.95,103.29L429.03,102.99L435.63,103.76L439.02,103.96L442.37,103.3L444.52,103.29L448.39,104.31L473.21,103.71L475.7,103.88L483.6,103.5L488.83,103.77L495.18,103.5L499.23,103.49L510.78,103.77L514.79,103.57L535.58,103.48L538.11,103.28L542,103.43" style="vector-effect: none; fill: none; stroke: rgb(35, 163, 134); stroke-opacity: 1; stroke-width: 1.5px; opacity: 1;"/></g><g class="points"/><g class="text"/></g><g class="trace scatter trace983491" style="stroke-miterlimit: 2; opacity: 1;"><g class="fills"/><g class="errorbars"/><g class="lines"><path class="js-line" d="M0,114.68L83.3,112.31L85.8,112.11L105.28,110.47L109.33,109.43L117,107.33L120.9,106.51L156.08,105.5L161.28,105.5L171.69,105.6L176.88,105.61L187.28,105.07L192.48,104.29L214.44,99.31L218.5,99.22L226.18,97.52L230.04,97.66L234.06,97.86L239.27,97.3L241.75,96.86L245.65,97.09L292.46,101.14L296.45,101.66L308.05,102.88L312.05,103.13L323.65,103.29L327.65,103.19L350.94,103.38L354.81,103.27L374.44,103.48L379.66,103.62L426.95,103.02L429.03,97.68L435.63,103.2L439.02,97.4L444.52,90.49L448.39,90.71L452.44,89.46L457.61,90.37L468.04,84.88L473.21,85.52L479.62,81.92L483.6,80.82L491.31,80L495.18,78.43L506.89,76.88L510.78,76.37L514.79,75.41L519.99,75.41L542,74.06" style="vector-effect: none; fill: none; stroke: rgb(35, 163, 134); stroke-opacity: 1; stroke-width: 1.5px; opacity: 1;"/></g><g class="points"/><g class="text"/></g><g class="trace scatter trace4cf178" style="stroke-miterlimit: 2; opacity: 1;"><g class="fills"/><g class="errorbars"/><g class="lines"><path class="js-line" d="M0,114.78L27.29,114.54L31.31,114.54L64.83,113.75L68.19,113.63L89.7,112.49L93.7,112.07L105.28,110.44L109.33,109.44L117,107.3L120.9,106.52L167.69,103.61L171.69,103.7L183.26,102.06L187.28,100.95L214.44,94.55L218.5,94.52L230.04,92.57L234.06,92.98L239.27,93.18L241.75,92.3L249.66,92.95L254.86,92.43L257.35,91.89L261.27,92.01L276.86,93.35L280.86,94.43L308.05,95.43L312.05,96.47L335.32,99L339.21,100.78L343.27,102.39L348.45,102.69L358.86,103.13L364.04,103.11L395.23,103.31L397.71,103.38L422.13,103.31L426.95,96.88L429.03,92.08L435.63,91.33L444.52,82.85L448.39,81.71L452.44,80.17L457.61,79.77L460.09,77.7L463.98,76.13L468.04,75.06L473.21,74.95L475.7,74.63L479.62,72.38L499.23,70.59L504.4,71.31L510.78,70.71L514.79,71.64L522.48,71.39L526.38,72.16L530.39,70.81L535.58,70.95L542,69.84" style="vector-effect: none; fill: none; stroke: rgb(35, 163, 134); stroke-opacity: 1; stroke-width: 1.5px; opacity: 1;"/></g><g class="points"/><g class="text"/></g><g class="trace scatter trace1e70bd" style="stroke-miterlimit: 2; opacity: 1;"><g class="fills"/><g class="errorbars"/><g class="lines"><path class="js-line" d="M0,114.77L23.42,114.53L27.29,114.51L78.1,112.85L83.3,112.46L124.9,110.24L130.09,110.14L161.28,109.8L163.79,109.76L249.66,109.32L254.86,109.15L265.27,109.03L270.46,108.46L272.94,109.01L276.86,108.99L296.45,108.85L301.68,108.6L339.21,108.35L343.27,108.54L418.04,108.08L422.13,107.8L426.95,107.6L429.03,106.66L439.02,107.45L442.37,106.57L444.52,106.25L448.39,106.82L457.61,107.02L460.09,106.58L468.04,106.98L473.21,107.15L479.62,106.3L483.6,106.8L488.83,107.12L491.31,106.49L504.4,106.9L506.89,106.18L519.99,106.72L522.48,106.44L530.39,107.6L535.58,106.71L542,106.69" style="vector-effect: none; fill: none; stroke: rgb(84, 196, 103); stroke-opacity: 1; stroke-width: 1.5px; opacity: 1;"/></g><g class="points"/><g class="text"/></g><g class="trace scatter trace9d3ada" style="stroke-miterlimit: 2; opacity: 1;"><g class="fills"/><g class="errorbars"/><g class="lines"><path class="js-line" d="M0,114.92L93.7,112.01L98.91,111.34L114.51,110.2L117,110.37L167.69,109.51L171.69,109.68L187.28,108.98L192.48,109.34L202.88,109.26L208.07,109.09L210.56,109.62L214.44,109.1L230.04,109.33L234.06,109.01L254.86,108.38L257.35,108.35L272.94,107.93L276.86,108.04L301.68,107.97L304.12,107.75L418.04,107.31L422.13,107.51L426.95,104.89L429.03,98.34L435.63,104.45L439.02,97.63L444.52,90.42L448.39,89.87L452.44,87.81L457.61,87.35L468.04,81.69L473.21,80.84L475.7,80.12L479.62,78.09L483.6,77.37L488.83,77.98L491.31,76.41L495.18,76.11L499.23,73.88L504.4,74.13L506.89,74.15L510.78,73.34L514.79,72.58L519.99,73.06L522.48,73.66L526.38,72.45L530.39,73.26L535.58,72.08L538.11,73.13L542,72.31" style="vector-effect: none; fill: none; stroke: rgb(84, 196, 103); stroke-opacity: 1; stroke-width: 1.5px; opacity: 1;"/></g><g class="points"/><g class="text"/></g><g class="trace scatter trace99711a" style="stroke-miterlimit: 2; opacity: 1;"><g class="fills"/><g class="errorbars"/><g class="lines"><path class="js-line" d="M0,114.78L85.8,112.49L89.7,112.14L117,109.86L120.9,109.43L132.58,109.14L136.47,109.15L171.69,109.31L176.88,109.26L234.06,109.04L239.27,109.1L245.65,108.75L249.66,108.85L286.08,108.77L288.56,108.08L304.12,107.94L308.05,107.95L319.73,108L323.65,108.12L335.32,108.08L339.21,108.1L343.27,108.58L348.45,108.1L358.86,108.42L364.04,108.55L370.41,108.44L374.44,108.59L401.6,108.48L405.63,108.48L422.13,107.8L426.95,103.04L429.03,98.08L435.63,98.05L439.02,95.04L442.37,91.02L444.52,89.58L448.39,88.1L452.44,85.91L457.61,84.23L460.09,82.42L463.98,80.59L468.04,78.72L473.21,78.84L479.62,75.82L483.6,75.61L491.31,75.54L495.18,74.38L499.23,73.27L504.4,73.27L510.78,73.52L514.79,71.99L519.99,73.09L522.48,71.67L530.39,70.93L535.58,71.93L538.11,71.39L542,71.64" style="vector-effect: none; fill: none; stroke: rgb(84, 196, 103); stroke-opacity: 1; stroke-width: 1.5px; opacity: 1;"/></g><g class="points"/><g class="text"/></g><g class="trace scatter trace4160ec" style="stroke-miterlimit: 2; opacity: 1;"><g class="fills"/><g class="errorbars"/><g class="lines"><path class="js-line" d="M0,114.54L93.7,112.81L98.91,112.82L120.9,113.02L124.9,113.06L202.88,112.86L208.07,113.17L210.56,112.61L214.44,113.22L226.18,112.36L230.04,112.71L239.27,112.03L241.75,111.9L366.52,111.95L370.41,111.49L395.23,111.44L397.71,112.14L405.63,111.8L413.01,112.31L414.68,111.49L418.04,111.63L426.95,112.47L429.03,109.47L435.63,109.86L439.02,111.44L444.52,109.65L448.39,110.56L457.61,112.09L460.09,112.11L473.21,112.25L475.7,111.06L483.6,112.17L488.83,112.2L506.89,111.79L510.78,112.51L514.79,111.76L519.99,111.93L535.58,112.12L538.11,111.77L542,112.12" style="vector-effect: none; fill: none; stroke: rgb(175, 221, 47); stroke-opacity: 1; stroke-width: 1.5px; opacity: 1;"/></g><g class="points"/><g class="text"/></g><g class="trace scatter tracec81eb6" style="stroke-miterlimit: 2; opacity: 1;"><g class="fills"/><g class="errorbars"/><g class="lines"><path class="js-line" d="M0,114.65L15.72,114.31L20.92,113L23.42,114.18L27.29,114.21L39,114.07L42.89,112.45L46.9,113.87L52.13,112.48L54.59,111.77L61.48,111.91L70.63,113.03L74.08,112.23L83.3,111.14L85.8,111.88L93.7,111.89L98.91,110.95L101.39,111.66L105.28,111.9L109.33,112.88L114.51,112.74L117,112.27L120.9,112.92L152.06,112.84L156.08,112.27L171.69,112.58L176.88,112.54L179.38,111.82L183.26,111.85L192.48,112.75L194.97,111.83L214.44,112.09L218.5,112.07L234.06,112.28L239.27,110.92L241.75,110.81L245.65,111.78L249.66,110.57L254.86,110.54L265.27,110.54L270.46,111.9L276.86,110.39L280.86,110.71L288.56,110.16L292.46,110.83L323.65,110.47L327.65,111.24L343.27,110.39L348.45,110.44L358.86,110.56L364.04,110.65L374.44,110.22L379.66,111.19L386.01,110.49L390.04,111.33L405.63,110.21L413.01,111.15L414.68,109.91L418.04,109.95L422.13,110.11L426.95,108.48L429.03,105.24L435.63,107.65L439.02,101.89L442.37,97.77L444.52,93.97L448.39,94.22L452.44,91.87L457.61,91.72L463.98,89.97L468.04,87.43L475.7,87.26L479.62,83.49L483.6,82.19L488.83,83.23L491.31,82.81L495.18,80.4L499.23,80.68L504.4,79.25L506.89,79.68L510.78,78.12L514.79,78.62L519.99,78.23L522.48,80.01L526.38,79.11L530.39,77.95L535.58,79.7L542,75.81" style="vector-effect: none; fill: none; stroke: rgb(175, 221, 47); stroke-opacity: 1; stroke-width: 1.5px; opacity: 1;"/></g><g class="points"/><g class="text"/></g><g class="trace scatter tracef795b3" style="stroke-miterlimit: 2; opacity: 1;"><g class="fills"/><g class="errorbars"/><g class="lines"><path class="js-line" d="M0,114.83L105.28,113.02L109.33,113.08L422.13,112.83L426.95,110.23L429.03,106.77L435.63,108.19L444.52,99.13L448.39,97.31L452.44,95.12L457.61,93.23L460.09,91.39L463.98,90.03L468.04,87.76L473.21,86.62L483.6,82.77L488.83,82.54L491.31,81.58L495.18,81.49L504.4,81.2L506.89,80.22L510.78,81.24L514.79,79.37L522.48,80.54L526.38,79.72L530.39,79.37L535.58,80.95L538.11,80.15L542,81.38" style="vector-effect: none; fill: none; stroke: rgb(175, 221, 47); stroke-opacity: 1; stroke-width: 1.5px; opacity: 1;"/></g><g class="points"/><g class="text"/></g></g></g></g><path class="xlines-above crisp" d="M37.5,151.77H580.5M37.5,29.75H580.5" style="fill: none; stroke-width: 0.5px; stroke: rgb(0, 0, 0); stroke-opacity: 1;"/><path class="ylines-above crisp" d="M37.75,30V151.52M580.25,30V151.52" style="fill: none; stroke-width: 0.5px; stroke: rgb(0, 0, 0); stroke-opacity: 1;"/><g class="overlines-above"/><g class="xaxislayer-above"><path class="xtick ticks crisp" d="M0,151.52v-5" transform="translate(115.98,0)" style="stroke: rgb(0, 0, 0); stroke-opacity: 1; stroke-width: 0.5px;"/><path class="xtick ticks crisp" d="M0,151.52v-5" transform="translate(193.96,0)" style="stroke: rgb(0, 0, 0); stroke-opacity: 1; stroke-width: 0.5px;"/><path class="xtick ticks crisp" d="M0,151.52v-5" transform="translate(271.94,0)" style="stroke: rgb(0, 0, 0); stroke-opacity: 1; stroke-width: 0.5px;"/><path class="xtick ticks crisp" d="M0,151.52v-5" transform="translate(349.92,0)" style="stroke: rgb(0, 0, 0); stroke-opacity: 1; stroke-width: 0.5px;"/><path class="xtick ticks crisp" d="M0,151.52v-5" transform="translate(427.91,0)" style="stroke: rgb(0, 0, 0); stroke-opacity: 1; stroke-width: 0.5px;"/><path class="xtick ticks crisp" d="M0,151.52v-5" transform="translate(505.89,0)" style="stroke: rgb(0, 0, 0); stroke-opacity: 1; stroke-width: 0.5px;"/></g><g class="yaxislayer-above"><path class="ytick ticks crisp" d="M38,0h5" transform="translate(0,145.66)" style="stroke: rgb(0, 0, 0); stroke-opacity: 1; stroke-width: 0.5px;"/><path class="ytick ticks crisp" d="M38,0h5" transform="translate(0,115.77)" style="stroke: rgb(0, 0, 0); stroke-opacity: 1; stroke-width: 0.5px;"/><path class="ytick ticks crisp" d="M38,0h5" transform="translate(0,85.87)" style="stroke: rgb(0, 0, 0); stroke-opacity: 1; stroke-width: 0.5px;"/><path class="ytick ticks crisp" d="M38,0h5" transform="translate(0,55.980000000000004)" style="stroke: rgb(0, 0, 0); stroke-opacity: 1; stroke-width: 0.5px;"/><g class="ytick"><text text-anchor="end" x="35.3" y="3.8499999999999996" transform="translate(0,145.66)" style="font-family: 'Open Sans', verdana, arial, sans-serif; font-size: 11px; fill: rgb(0, 0, 0); fill-opacity: 1; white-space: pre; opacity: 1;">0</text></g><g class="ytick"><text text-anchor="end" x="35.3" y="3.8499999999999996" style="font-family: 'Open Sans', verdana, arial, sans-serif; font-size: 11px; fill: rgb(0, 0, 0); fill-opacity: 1; white-space: pre; opacity: 1;" transform="translate(0,115.77)">0.2</text></g><g class="ytick"><text text-anchor="end" x="35.3" y="3.8499999999999996" style="font-family: 'Open Sans', verdana, arial, sans-serif; font-size: 11px; fill: rgb(0, 0, 0); fill-opacity: 1; white-space: pre; opacity: 1;" transform="translate(0,85.87)">0.4</text></g><g class="ytick"><text text-anchor="end" x="35.3" y="3.8499999999999996" style="font-family: 'Open Sans', verdana, arial, sans-serif; font-size: 11px; fill: rgb(0, 0, 0); fill-opacity: 1; white-space: pre; opacity: 1;" transform="translate(0,55.980000000000004)">0.6</text></g></g><g class="overaxes-above"/></g><g class="subplot x2y2"><g class="layer-subplot"><g class="shapelayer"/><g class="imagelayer"/></g><g class="minor-gridlayer"><g class="x2"/><g class="y2"/></g><g class="gridlayer"><g class="x2"><path class="x2grid crisp" transform="translate(115.98,0)" d="M0,186.24000000000004v121.51999999999997" style="stroke: rgb(128, 128, 128); stroke-opacity: 1; stroke-width: 0.2px;"/><path class="x2grid crisp" transform="translate(193.96,0)" d="M0,186.24000000000004v121.51999999999997" style="stroke: rgb(128, 128, 128); stroke-opacity: 1; stroke-width: 0.2px;"/><path class="x2grid crisp" transform="translate(271.94,0)" d="M0,186.24000000000004v121.51999999999997" style="stroke: rgb(128, 128, 128); stroke-opacity: 1; stroke-width: 0.2px;"/><path class="x2grid crisp" transform="translate(349.92,0)" d="M0,186.24000000000004v121.51999999999997" style="stroke: rgb(128, 128, 128); stroke-opacity: 1; stroke-width: 0.2px;"/><path class="x2grid crisp" transform="translate(427.91,0)" d="M0,186.24000000000004v121.51999999999997" style="stroke: rgb(128, 128, 128); stroke-opacity: 1; stroke-width: 0.2px;"/><path class="x2grid crisp" transform="translate(505.89,0)" d="M0,186.24000000000004v121.51999999999997" style="stroke: rgb(128, 128, 128); stroke-opacity: 1; stroke-width: 0.2px;"/></g><g class="y2"><path class="y2grid crisp" transform="translate(0,301.09000000000003)" d="M38,0h542" style="stroke: rgb(128, 128, 128); stroke-opacity: 1; stroke-width: 0.2px;"/><path class="y2grid crisp" transform="translate(0,276.52000000000004)" d="M38,0h542" style="stroke: rgb(128, 128, 128); stroke-opacity: 1; stroke-width: 0.2px;"/><path class="y2grid crisp" transform="translate(0,251.95000000000005)" d="M38,0h542" style="stroke: rgb(128, 128, 128); stroke-opacity: 1; stroke-width: 0.2px;"/><path class="y2grid crisp" transform="translate(0,227.38000000000005)" d="M38,0h542" style="stroke: rgb(128, 128, 128); stroke-opacity: 1; stroke-width: 0.2px;"/><path class="y2grid crisp" transform="translate(0,202.81000000000003)" d="M38,0h542" style="stroke: rgb(128, 128, 128); stroke-opacity: 1; stroke-width: 0.2px;"/></g></g><g class="zerolinelayer"/><g class="layer-between"><g class="shapelayer"/><g class="imagelayer"/></g><path class="xlines-below"/><path class="ylines-below"/><g class="overlines-below"/><g class="xaxislayer-below"/><g class="yaxislayer-below"/><g class="overaxes-below"/><g class="overplot"><g class="x2y2" transform="translate(38,186.24000000000004)" clip-path="url(#clip03c3afx2y2plot)"><g class="scatterlayer mlayer"><g class="trace scatter trace3fe868" style="stroke-miterlimit: 2; opacity: 1;"><g class="fills"/><g class="errorbars"/><g class="lines"><path class="js-line" d="M0,114.53L64.83,113.96L68.19,112.33L83.3,112.59L85.8,114.06L101.39,113.94L105.28,114.18L124.9,112.87L130.09,111.73L136.47,111.73L140.49,111L145.68,109.53L148.16,109.67L152.06,109.01L156.08,107.54L163.79,104.63L167.69,100.48L171.69,100.91L176.88,96.73L183.26,89.9L187.28,87.39L192.48,79.73L194.97,77.97L202.88,68.08L208.07,59.99L214.44,50.85L218.5,45.38L226.18,28.41L230.04,23.58L234.06,20.52L239.27,10.63L241.75,6.08L245.65,6.08L249.66,10.24L254.86,11.58L257.35,15.38L261.27,24.26L265.27,32.19L270.46,33.89L272.94,31.23L276.86,31.72L280.86,35.83L286.08,36.15L288.56,33.57L292.46,35.22L296.45,39.23L301.68,39.71L304.12,37.76L308.05,38.53L312.05,41.5L317.28,44.25L319.73,44.21L323.65,46.85L327.65,47.71L332.84,50.53L335.32,50.42L339.21,52.15L343.27,54.05L348.45,55.32L366.52,57L370.41,56.69L386.01,57.08L390.04,57.22L395.23,57.4L397.71,55.88L401.6,56.92L405.63,56.6L414.68,57.02L418.04,56.97L422.13,57.22L426.95,58.94L429.03,61.09L435.63,62.43L442.37,63.01L444.52,61.92L448.39,62.1L452.44,60.27L457.61,59.49L460.09,59.98L463.98,64.2L468.04,60.09L473.21,61.81L475.7,57.33L479.62,60.88L483.6,58.7L491.31,61.65L495.18,58.94L499.23,62.39L504.4,61.41L506.89,61.7L510.78,60.33L519.99,59.51L522.48,57.02L526.38,61.54L530.39,61.73L535.58,61.04L538.11,58.37L542,60.07" style="vector-effect: none; fill: none; stroke: rgb(71, 43, 121); stroke-opacity: 1; stroke-width: 1.5px; opacity: 1;"/></g><g class="points"/><g class="text"/></g><g class="trace scatter tracea16b81" style="stroke-miterlimit: 2; opacity: 1;"><g class="fills"/><g class="errorbars"/><g class="lines"><path class="js-line" d="M0,114.47L46.9,113.91L52.13,112.35L54.59,112.04L61.48,112.14L64.83,112.82L68.19,111.84L70.63,112.14L74.08,111.19L83.3,112.43L85.8,111.84L89.7,111.55L93.7,112.08L109.33,113.88L114.51,113.3L117,112.75L120.9,113.17L124.9,113.24L130.09,112.47L136.47,112.6L140.49,111.12L145.68,109.5L148.16,110.07L156.08,108.13L161.28,105.87L163.79,105.59L167.69,102.54L171.69,101.13L176.88,97.36L179.38,96.57L183.26,93.15L187.28,90.14L192.48,83.71L194.97,80.83L198.89,74.23L202.88,68.36L208.07,59.07L214.44,49.69L218.5,44.94L223.68,36.02L226.18,29.92L230.04,25.4L234.06,22.53L241.75,9.79L245.65,6.42L254.86,11.41L257.35,7.25L265.27,31.04L270.46,33.61L272.94,30.9L276.86,31.5L280.86,35.4L286.08,34.45L288.56,30.69L292.46,30.86L296.45,35.22L301.68,35.53L304.12,32.16L308.05,32.24L312.05,35.54L317.28,36.85L319.73,34.41L323.65,34.64L332.84,38.23L335.32,35.26L339.21,35.56L343.27,38.57L348.45,39.08L350.94,37.53L354.81,36.54L358.86,39.09L364.04,39.85L366.52,38.33L374.44,41.59L379.66,42.73L382.11,41.25L386.01,42.95L390.04,44.39L395.23,44.64L397.71,42.77L401.6,45.03L414.68,47.35L418.04,48.88L422.13,49.98L426.95,49.13L429.03,51.77L435.63,53.98L442.37,55.76L444.52,53.92L448.39,54.93L452.44,53.33L460.09,51.88L463.98,57.65L468.04,54.36L473.21,55.79L475.7,50.17L479.62,55.67L483.6,54.07L488.83,55.93L495.18,54.63L499.23,58.35L506.89,56.22L510.78,56.11L514.79,56.22L519.99,55.34L522.48,51.29L526.38,57.42L530.39,57.91L535.58,57.26L538.11,54.03L542,56.2" style="vector-effect: none; fill: none; stroke: rgb(71, 43, 121); stroke-opacity: 1; stroke-width: 1.5px; opacity: 1;"/></g><g class="points"/><g class="text"/></g><g class="trace scatter trace4ff847" style="stroke-miterlimit: 2; opacity: 1;"><g class="fills"/><g class="errorbars"/><g class="lines"><path class="js-line" d="M0,114.48L54.59,114.6L61.48,114.72L64.83,114.37L68.19,114.8L74.08,114.34L78.1,114.71L120.9,114.44L124.9,114.11L130.09,112.83L132.58,113.09L140.49,112.57L145.68,111.51L152.06,110.96L156.08,110.01L167.69,106.25L171.69,104.62L179.38,101.02L183.26,97.32L187.28,94.74L192.48,85.43L194.97,81.77L198.89,77.87L202.88,72.27L208.07,63.68L218.5,50.54L223.68,40.76L226.18,35.59L230.04,30.82L234.06,28.3L239.27,21.29L241.75,15.38L245.65,12.88L249.66,14.27L254.86,21.93L257.35,16.76L261.27,27.85L265.27,34.77L270.46,36.55L272.94,33.66L276.86,34.24L280.86,37.84L286.08,37.01L288.56,34.51L292.46,34.63L296.45,38.34L301.68,38.71L304.12,36.12L308.05,35.94L312.05,38.83L317.28,41.14L319.73,38.84L323.65,39.57L332.84,42.68L335.32,40.87L339.21,40.98L343.27,43.47L348.45,44.03L350.94,43.37L354.81,43.2L358.86,45.16L379.66,53.54L382.11,54L390.04,55.69L395.23,56.74L397.71,55.08L401.6,56.36L413.01,57.67L414.68,56.9L422.13,57.36L426.95,58.68L429.03,60.54L435.63,61.67L442.37,63.43L444.52,60.91L448.39,61.88L452.44,59.96L460.09,58.54L463.98,63.72L468.04,59.7L473.21,61.37L475.7,54.89L479.62,60.3L483.6,58.32L488.83,60.62L495.18,58.8L499.23,62.13L506.89,59.59L510.78,59.65L514.79,59.75L519.99,58.94L522.48,54.25L526.38,60.8L530.39,61.43L535.58,60.47L538.11,57.32L542,59.69" style="vector-effect: none; fill: none; stroke: rgb(71, 43, 121); stroke-opacity: 1; stroke-width: 1.5px; opacity: 1;"/></g><g class="points"/><g class="text"/></g><g class="trace scatter trace3015aa" style="stroke-miterlimit: 2; opacity: 1;"><g class="fills"/><g class="errorbars"/><g class="lines"><path class="js-line" d="M0,114.18L54.59,114.3L61.48,114.4L64.83,114.02L68.19,114.43L74.08,114.02L78.1,114.38L120.9,114.47L124.9,114.12L132.58,113.33L136.47,113.23L156.08,110.27L161.28,108.61L163.79,108.03L167.69,106.15L171.69,104.93L176.88,102.18L179.38,101.37L183.26,97.65L198.89,75.32L202.88,67.75L210.56,55.61L214.44,51.57L218.5,49.38L223.68,56.11L226.18,58.96L230.04,60.94L234.06,61.93L239.27,62.1L241.75,61L245.65,62.01L254.86,66.46L257.35,66.67L261.27,68.48L265.27,69.42L286.08,74.88L288.56,74.56L292.46,74.62L296.45,75.77L308.05,74.83L312.05,76.45L317.28,76.28L319.73,75.24L332.84,76.47L335.32,75.41L343.27,77.14L348.45,76.7L354.81,75.55L358.86,76L364.04,76.93L366.52,76.38L395.23,77.04L397.71,75.45L401.6,76.47L405.63,76.47L422.13,76.65L426.95,77.7L429.03,76.08L435.63,78.9L442.37,73.74L444.52,70.82L448.39,69.52L452.44,65.8L460.09,62.45L463.98,65.54L468.04,60.45L473.21,61.48L475.7,56.8L479.62,58.89L483.6,55.93L488.83,57.66L491.31,57.62L495.18,54.7L499.23,57.47L504.4,55.59L506.89,56.5L510.78,54.38L514.79,54.09L519.99,52.37L522.48,50.86L526.38,54.72L530.39,53.84L535.58,55.07L538.11,52.42L542,52.98" style="vector-effect: none; fill: none; stroke: rgb(56, 87, 139); stroke-opacity: 1; stroke-width: 1.5px; opacity: 1;"/></g><g class="points"/><g class="text"/></g><g class="trace scatter tracef8c683" style="stroke-miterlimit: 2; opacity: 1;"><g class="fills"/><g class="errorbars"/><g class="lines"><path class="js-line" d="M0,114.6L31.31,114.33L36.51,114.42L61.48,114.65L64.83,114.38L70.63,114.43L74.08,114.31L83.3,114.76L85.8,114.36L101.39,114.73L105.28,115L124.9,114.53L130.09,113.44L136.47,113.7L140.49,113.34L148.16,112.54L152.06,112.1L163.79,109.2L167.69,107.5L171.69,106.75L176.88,103.79L179.38,102.43L183.26,98.79L187.28,97.23L192.48,87.86L194.97,82.65L198.89,77.02L210.56,55.9L214.44,51.89L218.5,50.51L223.68,57.86L234.06,64.31L239.27,65.02L241.75,65.71L245.65,68.15L272.94,74.14L276.86,74.01L286.08,75.8L288.56,74.82L292.46,74.39L296.45,75.79L301.68,75.89L304.12,74.99L308.05,74.76L312.05,76.56L317.28,76.43L319.73,75.13L332.84,76.57L335.32,75.6L343.27,77.52L348.45,76.94L354.81,75.94L358.86,76.2L364.04,77.16L366.52,76.73L374.44,76.83L379.66,77.22L390.04,77.32L395.23,77.24L397.71,75.68L401.6,76.55L426.95,77.49L429.03,74.45L435.63,78.53L439.02,75.88L442.37,72.75L444.52,69.44L448.39,68.17L452.44,64.77L460.09,61.55L463.98,65.01L468.04,59.63L473.21,61.1L475.7,56.48L479.62,58.1L483.6,55.31L488.83,57.26L491.31,57.63L495.18,53.78L499.23,56.83L504.4,55.45L506.89,56.31L510.78,53.37L514.79,53.77L519.99,52.44L522.48,50.02L526.38,53.96L530.39,54.35L535.58,54.08L538.11,52.48L542,53.89" style="vector-effect: none; fill: none; stroke: rgb(56, 87, 139); stroke-opacity: 1; stroke-width: 1.5px; opacity: 1;"/></g><g class="points"/><g class="text"/></g><g class="trace scatter trace0a40b0" style="stroke-miterlimit: 2; opacity: 1;"><g class="fills"/><g class="errorbars"/><g class="lines"><path class="js-line" d="M0,114.11L124.9,114.16L130.09,113.11L136.47,113.41L140.49,113L148.16,112.26L152.06,111.92L163.79,109.11L167.69,107.44L171.69,106.83L176.88,103.94L179.38,102.74L183.26,99.52L187.28,97.7L192.48,89.41L194.97,84.53L198.89,78.69L210.56,57.81L214.44,53.83L218.5,51.36L223.68,55.49L226.18,59.52L230.04,62.48L234.06,64.37L239.27,65.48L241.75,65.39L245.65,67.96L254.86,72.35L257.35,72.47L265.27,74.23L270.46,74.29L276.86,73.73L280.86,74.77L286.08,75.48L288.56,74.48L292.46,74.05L296.45,75.54L301.68,75.63L304.12,74.72L308.05,74.48L312.05,76.36L317.28,76.29L319.73,74.9L332.84,76.49L335.32,75.52L343.27,77.43L348.45,76.93L354.81,75.75L358.86,76.09L364.04,77.08L366.52,76.43L395.23,77.5L397.71,75.95L401.6,76.86L405.63,76.96L418.04,77.37L422.13,77.33L426.95,78.81L429.03,76.65L435.63,81.46L439.02,78.4L444.52,72.17L448.39,70.9L452.44,67.88L457.61,66.48L460.09,65.64L463.98,68.95L468.04,63.34L473.21,64.65L475.7,59.86L479.62,61.7L483.6,58.41L488.83,61.05L491.31,61.02L495.18,57.39L499.23,60.35L504.4,59.82L506.89,60.81L510.78,58.34L514.79,57.12L519.99,57.36L522.48,55.76L526.38,59.41L530.39,58.23L535.58,58.45L538.11,56.89L542,56.97" style="vector-effect: none; fill: none; stroke: rgb(56, 87, 139); stroke-opacity: 1; stroke-width: 1.5px; opacity: 1;"/></g><g class="points"/><g class="text"/></g><g class="trace scatter trace780db1" style="stroke-miterlimit: 2; opacity: 1;"><g class="fills"/><g class="errorbars"/><g class="lines"><path class="js-line" d="M0,114.85L124.9,115.14L130.09,114.22L136.47,114.51L140.49,114.08L148.16,113.14L152.06,112.99L163.79,110.67L167.69,109.03L171.69,108.31L176.88,106.07L183.26,102.68L187.28,99.41L192.48,97.37L194.97,98.91L198.89,98.72L202.88,96.55L214.44,97.15L218.5,96.9L226.18,97.65L230.04,97.49L245.65,97.58L249.66,97.63L257.35,97.86L261.27,97.57L265.27,98.37L270.46,97.79L272.94,98.32L276.86,97.99L304.12,98.23L308.05,97.77L312.05,98.92L317.28,98.49L327.65,97.67L332.84,98.48L335.32,98.17L339.21,98.99L350.94,98.6L354.81,98.03L395.23,99.12L397.71,97.79L401.6,98.53L405.63,98.31L418.04,98.72L422.13,98.63L429.03,94.5L435.63,94.38L442.37,90.16L444.52,88.11L448.39,87.1L452.44,83.16L460.09,81L463.98,84.03L468.04,79.26L473.21,80.37L475.7,75.91L479.62,78.09L483.6,75.16L488.83,76.7L491.31,77.66L495.18,75.02L499.23,78.04L504.4,77.48L506.89,78.51L510.78,76.34L514.79,77.43L519.99,76.35L522.48,74.97L526.38,77.7L530.39,76.61L535.58,78.65L538.11,77.14L542,78.23" style="vector-effect: none; fill: none; stroke: rgb(40, 125, 142); stroke-opacity: 1; stroke-width: 1.5px; opacity: 1;"/></g><g class="points"/><g class="text"/></g><g class="trace scatter trace435848" style="stroke-miterlimit: 2; opacity: 1;"><g class="fills"/><g class="errorbars"/><g class="lines"><path class="js-line" d="M0,114.66L74.08,114.51L78.1,114.9L101.39,114.84L105.28,115.21L124.9,114.91L130.09,113.93L136.47,114.16L140.49,113.71L148.16,112.79L152.06,112.64L163.79,110.24L167.69,108.44L171.69,107.89L176.88,105.3L179.38,104.22L183.26,101.34L187.28,98.97L192.48,97.26L194.97,98.7L198.89,98.28L202.88,96.32L208.07,96.76L214.44,96.97L218.5,96.68L223.68,97.54L226.18,96.94L245.65,97.06L249.66,97.33L257.35,97.48L261.27,97.37L265.27,98.13L270.46,97.61L272.94,98.05L276.86,97.73L308.05,97.47L312.05,98.56L327.65,97.45L332.84,98.24L335.32,97.88L339.21,98.79L350.94,98.44L354.81,97.89L358.86,97.86L364.04,98.63L374.44,98.52L379.66,98.31L382.11,98.94L386.01,98.99L395.23,98.88L397.71,97.62L401.6,98.49L405.63,98.2L418.04,98.64L422.13,98.46L429.03,93.56L435.63,93.68L444.52,87.79L448.39,86.46L452.44,83.15L457.61,80.78L460.09,80.53L463.98,83.74L468.04,78.1L473.21,79.16L475.7,75.49L479.62,77.31L483.6,74.27L488.83,76.54L491.31,77.57L495.18,73.88L499.23,78.08L504.4,76.57L506.89,78.74L510.78,75.87L519.99,75.31L522.48,73.3L526.38,76.83L530.39,76.09L535.58,75.84L538.11,74.3L542,75.83" style="vector-effect: none; fill: none; stroke: rgb(40, 125, 142); stroke-opacity: 1; stroke-width: 1.5px; opacity: 1;"/></g><g class="points"/><g class="text"/></g><g class="trace scatter trace0b7f5e" style="stroke-miterlimit: 2; opacity: 1;"><g class="fills"/><g class="errorbars"/><g class="lines"><path class="js-line" d="M0,114.58L101.39,114.46L105.28,114.79L124.9,114.45L130.09,113.52L136.47,113.99L140.49,113.76L148.16,113.04L152.06,112.94L163.79,110.62L167.69,108.89L171.69,108.31L176.88,106.03L183.26,102.51L187.28,99.37L192.48,97.4L194.97,98.84L198.89,98.63L202.88,96.73L214.44,97.08L218.5,96.95L223.68,97.54L226.18,96.9L239.27,97.02L241.75,96.48L249.66,97.63L254.86,98.01L261.27,97.64L265.27,98.2L270.46,97.73L272.94,98.32L280.86,97.88L286.08,98.37L292.46,97.65L296.45,98.33L308.05,97.68L312.05,98.75L327.65,97.54L332.84,98.39L335.32,98.05L339.21,98.86L350.94,98.47L354.81,97.94L358.86,97.95L364.04,98.74L374.44,98.55L379.66,98.54L386.01,99.02L390.04,99.09L395.23,99.06L397.71,97.74L401.6,98.49L405.63,98.29L418.04,98.75L422.13,98.53L426.95,95.13L429.03,94.82L435.63,94.78L439.02,92.82L444.52,88.13L448.39,87.41L452.44,83.94L457.61,81.63L460.09,81.56L463.98,84.68L468.04,79.27L473.21,79.97L475.7,76.66L479.62,78.03L483.6,75.04L488.83,76.81L491.31,79.28L495.18,74.92L499.23,77.38L504.4,76.59L506.89,78.98L510.78,75.37L514.79,74.64L519.99,74.84L522.48,73.42L526.38,76L530.39,76.59L535.58,78.13L538.11,75.53L542,76.68" style="vector-effect: none; fill: none; stroke: rgb(40, 125, 142); stroke-opacity: 1; stroke-width: 1.5px; opacity: 1;"/></g><g class="points"/><g class="text"/></g><g class="trace scatter trace6bcc1c" style="stroke-miterlimit: 2; opacity: 1;"><g class="fills"/><g class="errorbars"/><g class="lines"><path class="js-line" d="M0,114.3L124.9,113.88L130.09,113.7L145.68,112.25L148.16,111.88L167.69,109.78L171.69,109.57L194.97,109.33L198.89,109.38L214.44,109.27L218.5,109.31L234.06,109.11L239.27,109.17L249.66,109.04L254.86,108.97L332.84,108.9L335.32,108.81L422.13,108.3L426.95,104.76L429.03,101.44L435.63,100.94L439.02,98.62L442.37,94.97L452.44,91.18L457.61,90.28L460.09,88.67L463.98,87.29L468.04,86.23L473.21,85.91L475.7,85.81L479.62,84.08L483.6,83.04L488.83,83.15L491.31,83.38L495.18,82.08L499.23,82.59L504.4,81.89L510.78,81.49L514.79,81.16L519.99,79.99L522.48,81.5L535.58,80.95L538.11,79.96L542,80.84" style="vector-effect: none; fill: none; stroke: rgb(35, 163, 134); stroke-opacity: 1; stroke-width: 1.5px; opacity: 1;"/></g><g class="points"/><g class="text"/></g><g class="trace scatter traced6ff15" style="stroke-miterlimit: 2; opacity: 1;"><g class="fills"/><g class="errorbars"/><g class="lines"><path class="js-line" d="M0,114.35L136.47,113.38L140.49,112.95L163.79,109.98L167.69,109.75L192.48,109.33L194.97,109.35L230.04,109.15L234.06,109.15L422.13,108.22L426.95,102.28L429.03,98.34L435.63,98.31L444.52,91.97L448.39,90.96L452.44,89.21L457.61,88.13L468.04,84.6L473.21,84.01L475.7,84.1L479.62,82.66L483.6,82.66L488.83,81.64L495.18,82.27L499.23,80.46L506.89,80.91L510.78,80.23L514.79,79.69L519.99,80.9L522.48,79.34L526.38,79.8L530.39,81.54L535.58,79.48L542,81.03" style="vector-effect: none; fill: none; stroke: rgb(35, 163, 134); stroke-opacity: 1; stroke-width: 1.5px; opacity: 1;"/></g><g class="points"/><g class="text"/></g><g class="trace scatter trace8e3f6c" style="stroke-miterlimit: 2; opacity: 1;"><g class="fills"/><g class="errorbars"/><g class="lines"><path class="js-line" d="M0,114.29L68.19,113.99L70.63,114.01L98.91,113.81L101.39,113.66L130.09,113.13L132.58,113.01L148.16,111.82L152.06,111.34L163.79,110.22L167.69,110.05L192.48,109.52L194.97,109.67L218.5,109.57L223.68,109.42L265.27,109.22L270.46,109.1L317.28,109.12L319.73,109.09L422.13,108.5L426.95,102.73L429.03,98.86L435.63,99.07L444.52,92.22L448.39,91.25L468.04,85.08L473.21,84.03L475.7,83.69L479.62,82.29L483.6,82.36L488.83,81.14L491.31,82.4L495.18,81.51L499.23,80.73L504.4,80.99L506.89,80.25L510.78,80.86L519.99,79.68L522.48,80.89L530.39,80.74L535.58,80.58L538.11,80.58L542,79.53" style="vector-effect: none; fill: none; stroke: rgb(35, 163, 134); stroke-opacity: 1; stroke-width: 1.5px; opacity: 1;"/></g><g class="points"/><g class="text"/></g><g class="trace scatter trace1f1a98" style="stroke-miterlimit: 2; opacity: 1;"><g class="fills"/><g class="errorbars"/><g class="lines"><path class="js-line" d="M0,114.41L120.9,113.99L124.9,113.86L163.79,112.54L167.69,112.63L301.68,112.32L304.12,112.32L395.23,112.09L397.71,112.16L422.13,112.1L426.95,107.35L429.03,103.45L435.63,103.66L444.52,97.42L448.39,96.82L452.44,94.67L457.61,94.06L460.09,92.34L463.98,90.88L468.04,89.21L473.21,89.08L483.6,85.9L488.83,85.69L491.31,86.24L495.18,85.46L499.23,84.48L504.4,84.47L510.78,85.04L514.79,83.93L530.39,83.65L535.58,84.02L538.11,83.51L542,84.35" style="vector-effect: none; fill: none; stroke: rgb(84, 196, 103); stroke-opacity: 1; stroke-width: 1.5px; opacity: 1;"/></g><g class="points"/><g class="text"/></g><g class="trace scatter tracec616d0" style="stroke-miterlimit: 2; opacity: 1;"><g class="fills"/><g class="errorbars"/><g class="lines"><path class="js-line" d="M0,113.07L15.72,113.38L20.92,113.42L42.89,113.14L46.9,113.21L93.7,112.94L98.91,112.95L192.48,111.23L194.97,111.31L218.5,111.41L223.68,111.19L241.75,111.09L245.65,111.1L422.13,110.75L426.95,105.21L429.03,101.18L435.63,101.91L444.52,94.94L448.39,94.62L452.44,92.55L457.61,91.3L463.98,88.36L468.04,87.03L483.6,84.1L488.83,84.65L495.18,83.31L499.23,84.19L506.89,83.23L510.78,84.24L514.79,82.54L519.99,81.76L522.48,82.05L526.38,83.27L538.11,84.75L542,81.78" style="vector-effect: none; fill: none; stroke: rgb(84, 196, 103); stroke-opacity: 1; stroke-width: 1.5px; opacity: 1;"/></g><g class="points"/><g class="text"/></g><g class="trace scatter trace2ab941" style="stroke-miterlimit: 2; opacity: 1;"><g class="fills"/><g class="errorbars"/><g class="lines"><path class="js-line" d="M0,114.24L130.09,113.2L132.58,113.11L156.08,112.67L161.28,112.66L280.86,112.47L286.08,112.42L308.05,112.41L312.05,112.37L422.13,112.21L426.95,105.41L429.03,100.87L435.63,101.81L444.52,95.41L448.39,94.42L452.44,92.98L457.61,92.05L468.04,88L473.21,87.93L479.62,87.17L483.6,85.66L491.31,86.48L495.18,84.5L499.23,86.08L504.4,84.84L506.89,87.17L510.78,85.75L514.79,85.79L519.99,83.6L522.48,85.84L526.38,85.14L530.39,84.28L535.58,84.34L538.11,85.04L542,84.2" style="vector-effect: none; fill: none; stroke: rgb(84, 196, 103); stroke-opacity: 1; stroke-width: 1.5px; opacity: 1;"/></g><g class="points"/><g class="text"/></g><g class="trace scatter trace4a7f04" style="stroke-miterlimit: 2; opacity: 1;"><g class="fills"/><g class="errorbars"/><g class="lines"><path class="js-line" d="M0,114.35L422.13,113.83L426.95,110.69L429.03,107.77L435.63,107.85L444.52,100.73L448.39,99.15L452.44,97.11L457.61,96.11L460.09,94.06L463.98,92.65L468.04,91.45L473.21,90.89L479.62,87.9L483.6,87.82L488.83,86.95L491.31,87.36L495.18,87.72L499.23,86.46L510.78,85.71L514.79,86.34L519.99,86.48L522.48,85.47L526.38,85.69L530.39,84.82L542,83.98" style="vector-effect: none; fill: none; stroke: rgb(175, 221, 47); stroke-opacity: 1; stroke-width: 1.5px; opacity: 1;"/></g><g class="points"/><g class="text"/></g><g class="trace scatter trace342cb3" style="stroke-miterlimit: 2; opacity: 1;"><g class="fills"/><g class="errorbars"/><g class="lines"><path class="js-line" d="M0,114.52L39,114.36L42.89,114.42L192.48,114.03L194.97,114.09L218.5,114.29L223.68,114.16L422.13,113.81L426.95,110.56L429.03,107.14L435.63,106.98L444.52,100L448.39,98.14L463.98,92.72L468.04,90.98L473.21,90.94L475.7,89.66L483.6,87.36L488.83,87.82L491.31,87.02L495.18,86.75L499.23,87.05L504.4,86.62L510.78,87.52L514.79,87.86L522.48,87.59L526.38,88.63L530.39,87.97L535.58,88.22L538.11,89.3L542,88.74" style="vector-effect: none; fill: none; stroke: rgb(175, 221, 47); stroke-opacity: 1; stroke-width: 1.5px; opacity: 1;"/></g><g class="points"/><g class="text"/></g><g class="trace scatter traced0f52b" style="stroke-miterlimit: 2; opacity: 1;"><g class="fills"/><g class="errorbars"/><g class="lines"><path class="js-line" d="M0,114.23L148.16,113.56L152.06,113.59L414.68,113.58L418.04,113.56L422.13,113.58L426.95,109.69L429.03,106.82L435.63,107.26L444.52,100.2L448.39,98.79L452.44,96.77L457.61,95.71L460.09,94.91L463.98,92.4L473.21,90.79L475.7,90.26L483.6,88.85L488.83,88.21L491.31,88.04L495.18,88.67L499.23,86.8L504.4,86.31L510.78,86.77L514.79,85.57L522.48,87.27L526.38,86.3L530.39,85.35L535.58,87.1L538.11,87.93L542,87.39" style="vector-effect: none; fill: none; stroke: rgb(175, 221, 47); stroke-opacity: 1; stroke-width: 1.5px; opacity: 1;"/></g><g class="points"/><g class="text"/></g></g></g></g><path class="xlines-above crisp" d="M37.5,308.01H580.5M37.5,185.99000000000004H580.5" style="fill: none; stroke-width: 0.5px; stroke: rgb(0, 0, 0); stroke-opacity: 1;"/><path class="ylines-above crisp" d="M37.75,186.24000000000004V307.76M580.25,186.24000000000004V307.76" style="fill: none; stroke-width: 0.5px; stroke: rgb(0, 0, 0); stroke-opacity: 1;"/><g class="overlines-above"/><g class="xaxislayer-above"><path class="x2tick ticks crisp" d="M0,307.76v-5" transform="translate(115.98,0)" style="stroke: rgb(0, 0, 0); stroke-opacity: 1; stroke-width: 0.5px;"/><path class="x2tick ticks crisp" d="M0,307.76v-5" transform="translate(193.96,0)" style="stroke: rgb(0, 0, 0); stroke-opacity: 1; stroke-width: 0.5px;"/><path class="x2tick ticks crisp" d="M0,307.76v-5" transform="translate(271.94,0)" style="stroke: rgb(0, 0, 0); stroke-opacity: 1; stroke-width: 0.5px;"/><path class="x2tick ticks crisp" d="M0,307.76v-5" transform="translate(349.92,0)" style="stroke: rgb(0, 0, 0); stroke-opacity: 1; stroke-width: 0.5px;"/><path class="x2tick ticks crisp" d="M0,307.76v-5" transform="translate(427.91,0)" style="stroke: rgb(0, 0, 0); stroke-opacity: 1; stroke-width: 0.5px;"/><path class="x2tick ticks crisp" d="M0,307.76v-5" transform="translate(505.89,0)" style="stroke: rgb(0, 0, 0); stroke-opacity: 1; stroke-width: 0.5px;"/></g><g class="yaxislayer-above"><path class="y2tick ticks crisp" d="M38,0h5" transform="translate(0,301.09000000000003)" style="stroke: rgb(0, 0, 0); stroke-opacity: 1; stroke-width: 0.5px;"/><path class="y2tick ticks crisp" d="M38,0h5" transform="translate(0,276.52000000000004)" style="stroke: rgb(0, 0, 0); stroke-opacity: 1; stroke-width: 0.5px;"/><path class="y2tick ticks crisp" d="M38,0h5" transform="translate(0,251.95000000000005)" style="stroke: rgb(0, 0, 0); stroke-opacity: 1; stroke-width: 0.5px;"/><path class="y2tick ticks crisp" d="M38,0h5" transform="translate(0,227.38000000000005)" style="stroke: rgb(0, 0, 0); stroke-opacity: 1; stroke-width: 0.5px;"/><path class="y2tick ticks crisp" d="M38,0h5" transform="translate(0,202.81000000000003)" style="stroke: rgb(0, 0, 0); stroke-opacity: 1; stroke-width: 0.5px;"/><g class="y2tick"><text text-anchor="end" x="35.3" y="3.8499999999999996" transform="translate(0,301.09000000000003)" style="font-family: 'Open Sans', verdana, arial, sans-serif; font-size: 11px; fill: rgb(0, 0, 0); fill-opacity: 1; white-space: pre; opacity: 1;">0</text></g><g class="y2tick"><text text-anchor="end" x="35.3" y="3.8499999999999996" style="font-family: 'Open Sans', verdana, arial, sans-serif; font-size: 11px; fill: rgb(0, 0, 0); fill-opacity: 1; white-space: pre; opacity: 1;" transform="translate(0,276.52000000000004)">0.2</text></g><g class="y2tick"><text text-anchor="end" x="35.3" y="3.8499999999999996" style="font-family: 'Open Sans', verdana, arial, sans-serif; font-size: 11px; fill: rgb(0, 0, 0); fill-opacity: 1; white-space: pre; opacity: 1;" transform="translate(0,251.95000000000005)">0.4</text></g><g class="y2tick"><text text-anchor="end" x="35.3" y="3.8499999999999996" style="font-family: 'Open Sans', verdana, arial, sans-serif; font-size: 11px; fill: rgb(0, 0, 0); fill-opacity: 1; white-space: pre; opacity: 1;" transform="translate(0,227.38000000000005)">0.6</text></g><g class="y2tick"><text text-anchor="end" x="35.3" y="3.8499999999999996" style="font-family: 'Open Sans', verdana, arial, sans-serif; font-size: 11px; fill: rgb(0, 0, 0); fill-opacity: 1; white-space: pre; opacity: 1;" transform="translate(0,202.81000000000003)">0.8</text></g></g><g class="overaxes-above"/></g><g class="subplot x3y3"><g class="layer-subplot"><g class="shapelayer"/><g class="imagelayer"/></g><g class="minor-gridlayer"><g class="x3"/><g class="y3"/></g><g class="gridlayer"><g class="x3"><path class="x3grid crisp" transform="translate(115.98,0)" d="M0,342.47999999999996v121.51999999999998" style="stroke: rgb(128, 128, 128); stroke-opacity: 1; stroke-width: 0.2px;"/><path class="x3grid crisp" transform="translate(193.96,0)" d="M0,342.47999999999996v121.51999999999998" style="stroke: rgb(128, 128, 128); stroke-opacity: 1; stroke-width: 0.2px;"/><path class="x3grid crisp" transform="translate(271.94,0)" d="M0,342.47999999999996v121.51999999999998" style="stroke: rgb(128, 128, 128); stroke-opacity: 1; stroke-width: 0.2px;"/><path class="x3grid crisp" transform="translate(349.92,0)" d="M0,342.47999999999996v121.51999999999998" style="stroke: rgb(128, 128, 128); stroke-opacity: 1; stroke-width: 0.2px;"/><path class="x3grid crisp" transform="translate(427.91,0)" d="M0,342.47999999999996v121.51999999999998" style="stroke: rgb(128, 128, 128); stroke-opacity: 1; stroke-width: 0.2px;"/><path class="x3grid crisp" transform="translate(505.89,0)" d="M0,342.47999999999996v121.51999999999998" style="stroke: rgb(128, 128, 128); stroke-opacity: 1; stroke-width: 0.2px;"/></g><g class="y3"><path class="y3grid crisp" transform="translate(0,458.18999999999994)" d="M38,0h542" style="stroke: rgb(128, 128, 128); stroke-opacity: 1; stroke-width: 0.2px;"/><path class="y3grid crisp" transform="translate(0,423.69999999999993)" d="M38,0h542" style="stroke: rgb(128, 128, 128); stroke-opacity: 1; stroke-width: 0.2px;"/><path class="y3grid crisp" transform="translate(0,389.21)" d="M38,0h542" style="stroke: rgb(128, 128, 128); stroke-opacity: 1; stroke-width: 0.2px;"/><path class="y3grid crisp" transform="translate(0,354.71999999999997)" d="M38,0h542" style="stroke: rgb(128, 128, 128); stroke-opacity: 1; stroke-width: 0.2px;"/></g></g><g class="zerolinelayer"/><g class="layer-between"><g class="shapelayer"/><g class="imagelayer"/></g><path class="xlines-below"/><path class="ylines-below"/><g class="overlines-below"/><g class="xaxislayer-below"/><g class="yaxislayer-below"/><g class="overaxes-below"/><g class="overplot"><g class="x3y3" transform="translate(38,342.47999999999996)" clip-path="url(#clip03c3afx3y3plot)"><g class="scatterlayer mlayer"><g class="trace scatter trace55d5cb" style="stroke-miterlimit: 2; opacity: 1;"><g class="fills"/><g class="errorbars"/><g class="lines"><path class="js-line" d="M0,114.62L70.63,114.1L74.08,113.89L83.3,114.08L85.8,113.52L93.7,112.03L98.91,111.38L101.39,112.28L105.28,112.35L114.51,110.29L117,109.45L124.9,106.91L130.09,103.64L136.47,101.95L140.49,100.27L156.08,90.98L161.28,86.83L163.79,85.23L167.69,81.15L171.69,78.81L176.88,73.54L179.38,72.44L183.26,68.74L187.28,61.42L192.48,57.97L194.97,58.67L198.89,55.3L202.88,48.05L208.07,44.24L210.56,42.3L214.44,40.5L218.5,32.42L223.68,30.81L241.75,24.55L245.65,25.06L249.66,24.23L254.86,24.97L261.27,24.17L265.27,24.85L276.86,24.23L280.86,25.11L292.46,23.36L296.45,24.38L301.68,24.19L304.12,23.14L308.05,22.32L312.05,24.38L317.28,23.69L319.73,22.29L323.65,22.56L327.65,21.97L332.84,23.02L335.32,21.97L343.27,23.09L348.45,22.98L350.94,22.65L354.81,21.07L358.86,21.21L364.04,22.72L370.41,22.01L374.44,22.15L395.23,22.76L397.71,20.37L401.6,21.49L405.63,21.47L413.01,23.03L414.68,21.92L418.04,21.88L422.13,20.88L426.95,22.64L429.03,26.33L439.02,28.82L442.37,28.17L444.52,26.02L448.39,26.38L457.61,22.17L460.09,22.07L463.98,28.1L468.04,22.94L473.21,24.82L475.7,18.86L479.62,23.49L483.6,20.92L488.83,24.39L491.31,24.44L495.18,21.32L499.23,26.33L504.4,24.78L506.89,25.24L510.78,23.01L514.79,23.37L519.99,22.66L522.48,20.17L526.38,25.09L530.39,25.87L535.58,25.35L538.11,21.6L542,23.99" style="vector-effect: none; fill: none; stroke: rgb(71, 43, 121); stroke-opacity: 1; stroke-width: 1.5px; opacity: 1;"/></g><g class="points"/><g class="text"/></g><g class="trace scatter trace6a0ae5" style="stroke-miterlimit: 2; opacity: 1;"><g class="fills"/><g class="errorbars"/><g class="lines"><path class="js-line" d="M0,115.1L46.9,114.72L52.13,115.09L64.83,114.39L68.19,114.96L74.08,114.13L78.1,114.47L93.7,113.2L98.91,112.6L109.33,111.7L114.51,110.22L124.9,106.68L130.09,103.42L140.49,99.79L145.68,96.83L152.06,93.6L156.08,90.17L163.79,84.79L167.69,80.58L171.69,76.86L176.88,69.95L179.38,69.49L183.26,65.15L187.28,58.85L192.48,54.65L194.97,54.13L198.89,51.45L202.88,44.79L208.07,41.46L210.56,40.13L214.44,39.63L218.5,31.59L223.68,30.88L230.04,29.98L234.06,28.48L239.27,27.77L241.75,26.58L245.65,27.27L249.66,26.66L254.86,27.92L257.35,27.59L261.27,27.33L265.27,28.27L276.86,27.54L280.86,28.46L286.08,28.62L288.56,27.59L292.46,26.93L296.45,28.26L301.68,28.52L304.12,27.1L308.05,26.51L312.05,28.93L317.28,28.54L319.73,27.6L327.65,27.28L332.84,28.48L335.32,26.41L339.21,27.57L343.27,28.71L348.45,28.85L354.81,26.8L358.86,27.43L364.04,28.73L366.52,27.98L370.41,27.85L374.44,28.67L382.11,27.87L386.01,28.56L395.23,29.2L397.71,26.11L401.6,27.66L405.63,27.97L413.01,28.57L414.68,27.92L418.04,28.55L422.13,28.01L426.95,25.78L429.03,29.61L435.63,32.57L439.02,33.01L442.37,32.81L444.52,29.09L448.39,30.54L452.44,28.25L457.61,26.2L460.09,24.38L463.98,32.24L468.04,27.17L473.21,28.67L475.7,18.87L479.62,26.99L483.6,24.52L488.83,27.63L491.31,25.54L495.18,25.1L499.23,29.34L504.4,27.78L506.89,23.81L510.78,25.29L514.79,25.08L519.99,23.9L522.48,16.37L526.38,26.31L530.39,27.08L535.58,26.02L538.11,20.98L542,24.6" style="vector-effect: none; fill: none; stroke: rgb(71, 43, 121); stroke-opacity: 1; stroke-width: 1.5px; opacity: 1;"/></g><g class="points"/><g class="text"/></g><g class="trace scatter trace712266" style="stroke-miterlimit: 2; opacity: 1;"><g class="fills"/><g class="errorbars"/><g class="lines"><path class="js-line" d="M0,114.75L70.63,114.17L74.08,113.87L78.1,114.32L83.3,113.96L89.7,113.15L93.7,112.98L109.33,111.52L114.51,110.14L124.9,106.58L130.09,103.35L136.47,101.67L140.49,99.88L156.08,90.67L161.28,86.38L163.79,84.79L167.69,79.91L171.69,75.7L176.88,68.71L179.38,67.99L183.26,63.7L187.28,57.45L192.48,52.34L194.97,51.39L198.89,48.5L202.88,42.24L208.07,38.72L210.56,36.85L214.44,37.95L218.5,30.08L223.68,29.28L230.04,29.15L234.06,27.84L241.75,26.32L245.65,26.75L254.86,26.98L257.35,26.1L270.46,26.67L272.94,26.56L276.86,26.33L280.86,27.18L292.46,25.53L296.45,26.91L304.12,25.4L308.05,24.71L312.05,26.79L317.28,26.55L319.73,25.51L323.65,25.45L327.65,24.97L332.84,26.23L335.32,24.02L339.21,25.78L343.27,26.45L348.45,26.09L350.94,24.87L354.81,24.06L358.86,24.24L364.04,25.64L366.52,24.69L370.41,24.89L374.44,25.53L379.66,25.26L382.11,24.51L386.01,25.08L395.23,25.77L397.71,22.35L401.6,24.2L405.63,24.64L413.01,25.43L414.68,24.83L418.04,25.38L422.13,24.7L426.95,25.68L429.03,28.95L439.02,32.07L442.37,32.33L444.52,29.75L448.39,30.14L457.61,25.18L460.09,25.17L463.98,31.34L468.04,26.7L473.21,28.12L475.7,20.89L479.62,26.58L483.6,24.28L488.83,27.69L491.31,27.25L495.18,24.48L499.23,29.09L510.78,25.41L514.79,25.25L519.99,24.36L522.48,19.91L526.38,26.83L530.39,27.72L535.58,26.45L538.11,22.69L542,24.94" style="vector-effect: none; fill: none; stroke: rgb(71, 43, 121); stroke-opacity: 1; stroke-width: 1.5px; opacity: 1;"/></g><g class="points"/><g class="text"/></g><g class="trace scatter traceaeb9f1" style="stroke-miterlimit: 2; opacity: 1;"><g class="fills"/><g class="errorbars"/><g class="lines"><path class="js-line" d="M0,115.08L85.8,113.97L89.7,113.62L109.33,112.59L114.51,111.38L120.9,110.09L124.9,108.51L130.09,104.97L132.58,104.95L136.47,104.03L140.49,102.29L156.08,93.71L161.28,87.85L167.69,80.39L171.69,79.2L179.38,70.27L183.26,67.15L192.48,51.15L194.97,52.53L198.89,51.95L202.88,50.21L223.68,50.97L226.18,50.31L230.04,51.02L234.06,50.29L239.27,50.42L241.75,49.02L245.65,50.14L249.66,50.08L254.86,51.09L257.35,50.27L270.46,50.94L272.94,49.94L276.86,50.19L280.86,51.24L292.46,49.54L296.45,50.61L301.68,49.99L304.12,48.63L308.05,48.48L312.05,50.32L317.28,50.25L319.73,48.69L332.84,49.78L335.32,47.75L343.27,49.63L348.45,49.06L350.94,47.83L354.81,46.93L364.04,48.59L366.52,47.2L374.44,48.66L379.66,48.1L382.11,46.47L386.01,47.48L390.04,48.54L395.23,48.18L397.71,44.91L401.6,46.93L413.01,47.58L414.68,46.74L418.04,47.95L422.13,47.62L426.95,47.68L429.03,45.44L435.63,51.69L439.02,45.71L442.37,41.25L444.52,36.29L448.39,35.12L452.44,31.39L457.61,29.17L460.09,27.12L463.98,31.39L468.04,24.93L473.21,25.96L475.7,19.23L479.62,21.45L483.6,18.09L491.31,20.63L495.18,15.53L499.23,18.85L504.4,16.95L506.89,17.52L510.78,13.25L514.79,12.65L519.99,10.98L522.48,9.8L526.38,13.86L535.58,12.58L538.11,9.69L542,9.68" style="vector-effect: none; fill: none; stroke: rgb(56, 87, 139); stroke-opacity: 1; stroke-width: 1.5px; opacity: 1;"/></g><g class="points"/><g class="text"/></g><g class="trace scatter trace4b2a25" style="stroke-miterlimit: 2; opacity: 1;"><g class="fills"/><g class="errorbars"/><g class="lines"><path class="js-line" d="M0,115.08L83.3,114.33L85.8,113.86L109.33,112.47L114.51,111.36L124.9,108.29L130.09,105.3L140.49,101.5L145.68,98.43L148.16,96.86L152.06,95.45L156.08,92.98L161.28,86.59L167.69,79.44L171.69,77.31L183.26,65.86L187.28,59.16L192.48,51.49L194.97,52.13L198.89,51.52L202.88,50.04L223.68,50.63L226.18,49.85L230.04,50.57L234.06,50.14L239.27,50.29L241.75,48.97L245.65,50.02L249.66,49.79L254.86,50.78L257.35,49.61L270.46,51.11L272.94,49.81L276.86,49.86L280.86,51.05L286.08,50.58L288.56,49.51L292.46,49.33L296.45,50.4L301.68,49.94L304.12,48.61L308.05,48.01L312.05,49.77L317.28,49.64L319.73,48.57L323.65,48.58L327.65,47.68L332.84,48.9L335.32,46.87L343.27,48.36L348.45,47.7L350.94,46.47L354.81,45.63L364.04,47.47L366.52,46.51L379.66,46.98L382.11,45.91L390.04,47.66L395.23,47.18L397.71,43.84L401.6,45.62L413.01,46.08L414.68,45.46L418.04,46.44L422.13,46.1L426.95,44.65L429.03,42.25L435.63,46.69L439.02,43.45L442.37,39.68L444.52,35.28L448.39,32.66L452.44,27.9L460.09,22.57L463.98,26.17L468.04,20.06L473.21,21.08L475.7,14.89L479.62,17.52L483.6,13.59L488.83,15.56L491.31,15.33L495.18,12.27L499.23,15.33L504.4,12.72L506.89,14.14L510.78,10.53L522.48,6.92L526.38,11.72L535.58,9.74L538.11,7.01L542,6.08" style="vector-effect: none; fill: none; stroke: rgb(56, 87, 139); stroke-opacity: 1; stroke-width: 1.5px; opacity: 1;"/></g><g class="points"/><g class="text"/></g><g class="trace scatter trace7ebd5b" style="stroke-miterlimit: 2; opacity: 1;"><g class="fills"/><g class="errorbars"/><g class="lines"><path class="js-line" d="M0,115L46.9,114.5L52.13,114.89L64.83,114.15L68.19,114.77L74.08,114.04L78.1,114.51L105.28,113.06L109.33,112.49L124.9,108.49L130.09,104.97L136.47,103.69L140.49,102.2L152.06,95.23L156.08,93L167.69,79.23L171.69,78L183.26,66.44L187.28,59.76L192.48,51.85L194.97,52.76L198.89,52.26L202.88,50.59L223.68,51.75L226.18,50.86L234.06,50.98L239.27,50.78L241.75,49.52L245.65,50.47L254.86,51.09L257.35,50.27L261.27,50.44L265.27,51.72L276.86,50.48L280.86,51.82L288.56,50.93L292.46,50.62L296.45,51.65L301.68,51.3L304.12,50.28L308.05,49.7L312.05,51.56L317.28,51.37L319.73,49.98L323.65,50.44L327.65,49.62L332.84,50.94L335.32,48.8L339.21,50.27L343.27,51.2L348.45,50.08L350.94,48.95L354.81,48.34L364.04,49.63L366.52,48.61L379.66,49.2L382.11,47.72L390.04,49.61L395.23,49.63L397.71,46.22L401.6,48.18L413.01,48.61L414.68,47.67L418.04,48.8L422.13,48.41L426.95,48.29L429.03,45.71L435.63,52.62L439.02,47.66L442.37,42.8L444.52,38.23L448.39,36.26L452.44,31.4L457.61,28.88L460.09,26.62L463.98,30.58L468.04,23.84L473.21,24.98L475.7,17.51L479.62,20.35L483.6,16.52L488.83,18.98L491.31,19.07L495.18,14.04L499.23,19.09L504.4,16.67L506.89,17.08L510.78,12.97L514.79,11.97L519.99,10.38L522.48,8.11L526.38,12.55L530.39,11.63L535.58,10.67L538.11,7.53L542,9.39" style="vector-effect: none; fill: none; stroke: rgb(56, 87, 139); stroke-opacity: 1; stroke-width: 1.5px; opacity: 1;"/></g><g class="points"/><g class="text"/></g><g class="trace scatter traced6e066" style="stroke-miterlimit: 2; opacity: 1;"><g class="fills"/><g class="errorbars"/><g class="lines"><path class="js-line" d="M0,115.44L83.3,114.4L85.8,113.86L109.33,112.33L114.51,111.29L117,111.78L120.9,111.24L124.9,109.93L130.09,107L136.47,105.6L140.49,103.84L148.16,98.79L152.06,97.61L156.08,95.5L161.28,89.02L167.69,85.77L171.69,85.02L179.38,82.51L183.26,82.14L194.97,81.73L198.89,81.77L202.88,80.8L208.07,81.52L218.5,82.62L223.68,82.17L226.18,81.61L230.04,82.13L239.27,81.23L241.75,80.1L249.66,81.45L254.86,82.29L257.35,81.67L261.27,81.69L265.27,82.26L270.46,82.15L272.94,81.45L276.86,81.66L280.86,82.21L286.08,81.76L292.46,81.16L296.45,82.14L308.05,79.59L312.05,81.58L317.28,81.34L319.73,80.39L323.65,80.62L327.65,79.69L332.84,80.77L335.32,79.26L343.27,81.76L348.45,80.91L354.81,79.62L358.86,79.74L364.04,80.7L366.52,80L374.44,80.63L379.66,81.06L382.11,80.34L386.01,80.78L390.04,81.58L395.23,81.18L397.71,78.3L401.6,80.11L405.63,79.83L413.01,80.52L414.68,79.66L418.04,80.33L422.13,80.31L426.95,75.57L429.03,74.76L435.63,76.87L442.37,70.13L444.52,66.36L448.39,63.73L452.44,58.77L460.09,54.39L463.98,59.31L468.04,52.54L473.21,54.28L475.7,48L479.62,51.32L483.6,47.93L488.83,50.54L491.31,52.76L495.18,47.47L499.23,51.74L504.4,50.08L506.89,51.04L510.78,46.36L519.99,48.01L522.48,44.83L526.38,49.83L530.39,49.85L535.58,48.71L538.11,46.97L542,49.62" style="vector-effect: none; fill: none; stroke: rgb(40, 125, 142); stroke-opacity: 1; stroke-width: 1.5px; opacity: 1;"/></g><g class="points"/><g class="text"/></g><g class="trace scatter tracec16e50" style="stroke-miterlimit: 2; opacity: 1;"><g class="fills"/><g class="errorbars"/><g class="lines"><path class="js-line" d="M0,114.98L31.31,114.85L36.51,114.71L42.89,114.7L46.9,114.58L54.59,114.79L61.48,114.71L64.83,114.25L68.19,114.77L74.08,113.87L78.1,114.3L101.39,112.9L105.28,112.77L120.9,110.91L124.9,109.49L130.09,106.61L132.58,106.21L140.49,102.91L145.68,99.21L156.08,94.55L161.28,89.95L167.69,86.24L171.69,85.15L179.38,81.75L183.26,81.02L194.97,79.69L198.89,79.68L202.88,78.78L208.07,78.93L218.5,80.3L223.68,80L226.18,79.46L230.04,79.94L239.27,79.8L241.75,78.46L249.66,80.16L254.86,80.86L257.35,80.29L261.27,80.31L265.27,81.23L270.46,80.69L276.86,80.16L280.86,81.18L286.08,81.05L288.56,80.23L301.68,80.81L304.12,79.83L308.05,79.04L312.05,80.67L317.28,80.84L319.73,79.82L323.65,79.97L327.65,79.33L332.84,80.62L335.32,78.96L339.21,80.43L343.27,81L358.86,79.6L364.04,80.77L370.41,80.11L374.44,81.06L379.66,81.71L382.11,80.94L386.01,80.95L390.04,81.91L395.23,81.78L397.71,78.87L401.6,80.45L405.63,80.52L413.01,81.03L414.68,80.23L418.04,80.96L422.13,80.87L426.95,73.81L429.03,72.82L435.63,73.65L439.02,70.02L442.37,67.32L444.52,63.4L448.39,61.54L452.44,56.93L457.61,52.52L460.09,51.59L463.98,55.78L468.04,49.05L473.21,51.04L475.7,45.31L479.62,48.84L483.6,45.82L488.83,48.88L491.31,48.77L495.18,44.34L499.23,49.53L504.4,47.83L506.89,49.64L510.78,45.66L514.79,44.81L519.99,44.18L522.48,42.72L526.38,47.33L530.39,46.86L535.58,47.28L538.11,44.42L542,45.38" style="vector-effect: none; fill: none; stroke: rgb(40, 125, 142); stroke-opacity: 1; stroke-width: 1.5px; opacity: 1;"/></g><g class="points"/><g class="text"/></g><g class="trace scatter traced5487c" style="stroke-miterlimit: 2; opacity: 1;"><g class="fills"/><g class="errorbars"/><g class="lines"><path class="js-line" d="M0,115.15L61.48,114.89L64.83,114.12L68.19,114.65L70.63,114.19L78.1,114.14L83.3,113.99L93.7,113.12L98.91,112.83L105.28,112.77L109.33,112.13L117,111.62L120.9,111.03L124.9,109.67L130.09,106.88L136.47,104.83L140.49,103.12L148.16,98.22L152.06,96.71L156.08,94.95L161.28,89.4L167.69,85.41L171.69,84.52L179.38,80.91L183.26,80.43L194.97,78.95L198.89,79.06L202.88,78.25L208.07,78.49L214.44,79L218.5,79.93L226.18,78.27L230.04,78.73L239.27,78.25L241.75,76.89L245.65,77.91L249.66,77.85L254.86,79.03L257.35,78.5L261.27,78.41L265.27,79.26L276.86,78.18L280.86,79.09L292.46,78.28L296.45,79.6L301.68,78.7L304.12,77.32L308.05,76.92L312.05,77.91L317.28,78.26L319.73,77.46L323.65,77.78L327.65,76.95L332.84,78.51L335.32,76.1L343.27,78.07L348.45,77.65L358.86,76.5L364.04,77.12L366.52,76.22L370.41,76.85L374.44,77.56L379.66,77.71L382.11,76.77L386.01,77.07L390.04,78.29L395.23,78.33L397.71,75.12L401.6,77.31L422.13,77.62L426.95,71.88L429.03,70.15L435.63,71.73L442.37,64.99L444.52,61.15L448.39,59.2L452.44,53.84L460.09,48.25L463.98,52.83L468.04,45.86L473.21,47.93L475.7,42.4L479.62,45.29L483.6,41.46L488.83,45.1L491.31,46.87L495.18,41.43L499.23,46.44L504.4,44.76L506.89,46.02L510.78,41.91L514.79,41.24L519.99,42.21L522.48,38.38L526.38,44.2L535.58,44.49L538.11,40.09L542,42.84" style="vector-effect: none; fill: none; stroke: rgb(40, 125, 142); stroke-opacity: 1; stroke-width: 1.5px; opacity: 1;"/></g><g class="points"/><g class="text"/></g><g class="trace scatter trace5651e5" style="stroke-miterlimit: 2; opacity: 1;"><g class="fills"/><g class="errorbars"/><g class="lines"><path class="js-line" d="M0,113.59L31.31,113.52L36.51,113.2L61.48,111.82L64.83,111.7L98.91,110.88L101.39,110.47L105.28,110.37L109.33,109.35L114.51,108.39L117,109.1L124.9,107.16L130.09,105.27L145.68,102.4L148.16,103.18L161.28,101.64L163.79,101.66L171.69,100.84L176.88,100.41L179.38,100.61L183.26,100.05L192.48,99.31L194.97,100L198.89,99.97L202.88,98.89L214.44,98.34L218.5,98.13L230.04,95.77L234.06,95.34L241.75,93.13L245.65,92.83L254.86,92.41L257.35,93.77L276.86,97.39L280.86,98.6L286.08,97.92L288.56,98.36L296.45,100.59L301.68,98.63L304.12,98.87L308.05,98.22L312.05,98.34L317.28,99.72L327.65,98.27L332.84,97.99L335.32,98.68L339.21,98.54L343.27,98.96L348.45,97.25L350.94,98.09L354.81,97.99L358.86,96.77L364.04,98.73L366.52,97.4L370.41,97.5L382.11,96.35L386.01,95.57L395.23,95.67L397.71,97.34L405.63,98.84L413.01,96.28L422.13,96.57L426.95,90.2L429.03,85.07L435.63,84.86L442.37,77.56L444.52,74.84L448.39,74L452.44,71.86L457.61,69.25L460.09,66.88L468.04,64.43L473.21,64.03L475.7,62.13L479.62,61.93L483.6,63.12L488.83,62.57L495.18,62.87L499.23,63.94L510.78,67.03L514.79,66.32L519.99,65.15L522.48,67.3L526.38,65.88L530.39,65.71L538.11,67.28L542,65.28" style="vector-effect: none; fill: none; stroke: rgb(35, 163, 134); stroke-opacity: 1; stroke-width: 1.5px; opacity: 1;"/></g><g class="points"/><g class="text"/></g><g class="trace scatter traceaf824b" style="stroke-miterlimit: 2; opacity: 1;"><g class="fills"/><g class="errorbars"/><g class="lines"><path class="js-line" d="M0,114.83L85.8,113.35L89.7,112.7L101.39,112.21L105.28,111.43L120.9,109.77L124.9,108.35L140.49,105L145.68,104.45L152.06,104.78L156.08,104.26L176.88,102.32L179.38,103.02L183.26,103.14L187.28,102.37L192.48,102.49L194.97,103.36L202.88,103.26L208.07,102.96L210.56,103.64L214.44,103.57L218.5,103.33L223.68,101.91L226.18,102.99L230.04,102.65L234.06,102.96L239.27,101.83L241.75,101.75L245.65,100.63L249.66,100.46L254.86,98.73L261.27,99.18L265.27,98.97L270.46,98.8L272.94,99.58L280.86,100.91L286.08,100.38L288.56,101.52L292.46,102.1L296.45,102.66L301.68,101.1L304.12,101.39L308.05,100.95L319.73,101.38L323.65,100.68L335.32,100.61L339.21,101.04L343.27,101.04L348.45,99.7L350.94,100.7L354.81,100.73L358.86,100.18L364.04,101.73L366.52,100.75L370.41,100.81L374.44,100.7L379.66,99.61L390.04,100.54L395.23,99.93L405.63,101.3L413.01,98.55L422.13,98.95L426.95,89.89L429.03,85L435.63,85.57L444.52,74.81L448.39,74.61L457.61,71.29L460.09,69.79L473.21,67.86L475.7,68.18L479.62,66.78L483.6,66.84L491.31,65.8L495.18,64.49L504.4,66.71L506.89,68.25L510.78,69.19L514.79,68.55L519.99,67.12L522.48,68.44L526.38,68.02L530.39,66.36L535.58,65.37L538.11,66.02L542,65.68" style="vector-effect: none; fill: none; stroke: rgb(35, 163, 134); stroke-opacity: 1; stroke-width: 1.5px; opacity: 1;"/></g><g class="points"/><g class="text"/></g><g class="trace scatter tracef155b4" style="stroke-miterlimit: 2; opacity: 1;"><g class="fills"/><g class="errorbars"/><g class="lines"><path class="js-line" d="M0,114.77L74.08,113.87L78.1,113.6L101.39,112.06L105.28,111.63L124.9,108.97L130.09,107.48L136.47,105.42L140.49,104.81L145.68,103.94L148.16,104.63L167.69,102.61L171.69,101.89L176.88,100.89L179.38,101.49L187.28,99.8L192.48,99.43L198.89,100.37L202.88,99.38L214.44,96.63L218.5,96.76L226.18,96.28L230.04,95.99L234.06,96.62L239.27,95.15L245.65,94.01L249.66,92.94L257.35,89.87L261.27,89.7L265.27,90.61L270.46,90.62L272.94,90.06L276.86,90.35L280.86,91.62L286.08,90.95L288.56,90.49L292.46,90.53L296.45,91.79L301.68,90.85L304.12,89.9L308.05,89.56L312.05,89.06L317.28,89.56L319.73,88.69L323.65,88.8L327.65,89.63L332.84,89.9L335.32,89.12L339.21,89.03L343.27,89.85L348.45,89.3L358.86,88.76L364.04,90.08L366.52,88.8L370.41,89.37L374.44,90.18L379.66,90.38L382.11,88.76L386.01,89.44L390.04,90.63L395.23,91L401.6,91.45L405.63,92.89L413.01,91.52L414.68,92L422.13,92.1L426.95,83.63L429.03,78.22L435.63,78.84L439.02,76.12L442.37,72.08L444.52,69.67L448.39,68.85L457.61,64.79L460.09,63.09L468.04,59.52L473.21,59.52L475.7,58.44L479.62,57.64L483.6,56.41L488.83,57.55L491.31,57.34L495.18,56.2L499.23,56.71L504.4,58.4L506.89,56.66L510.78,57.88L514.79,57.49L519.99,58.87L542,57.74" style="vector-effect: none; fill: none; stroke: rgb(35, 163, 134); stroke-opacity: 1; stroke-width: 1.5px; opacity: 1;"/></g><g class="points"/><g class="text"/></g><g class="trace scatter trace7d0049" style="stroke-miterlimit: 2; opacity: 1;"><g class="fills"/><g class="errorbars"/><g class="lines"><path class="js-line" d="M0,115.01L89.7,113.28L93.7,113.03L109.33,111.2L114.51,110.27L124.9,110.23L130.09,110.1L140.49,109.86L145.68,109.78L194.97,108.71L198.89,108.97L226.18,106.65L230.04,106.84L239.27,106.36L241.75,105.67L245.65,105.49L249.66,106.15L280.86,105.46L286.08,105.87L292.46,104.77L296.45,105.8L308.05,104.38L312.05,105.15L339.21,103.02L343.27,103.35L350.94,102.41L354.81,103.04L364.04,104.08L366.52,103.01L379.66,103.11L382.11,102.72L390.04,102.11L395.23,102.89L401.6,102.16L405.63,102.39L418.04,102.47L422.13,103.12L426.95,96.9L429.03,91.48L435.63,92.9L439.02,89.9L444.52,83.98L448.39,83.02L452.44,80.07L457.61,78.62L463.98,74.54L468.04,72.5L475.7,72.13L479.62,68.86L483.6,67.81L488.83,67.36L491.31,68.24L495.18,68.2L506.89,66.78L510.78,66.79L519.99,65.75L522.48,67.12L526.38,68.9L530.39,66.41L535.58,67.86L538.11,70.4L542,66.57" style="vector-effect: none; fill: none; stroke: rgb(84, 196, 103); stroke-opacity: 1; stroke-width: 1.5px; opacity: 1;"/></g><g class="points"/><g class="text"/></g><g class="trace scatter trace1f302f" style="stroke-miterlimit: 2; opacity: 1;"><g class="fills"/><g class="errorbars"/><g class="lines"><path class="js-line" d="M0,114.92L11.71,114.53L15.72,114.57L89.7,113.01L93.7,112.67L117,110.55L120.9,110.62L161.28,110.32L163.79,110.26L183.26,110.11L187.28,109.83L202.88,110.07L208.07,109.53L214.44,109.72L218.5,109.52L230.04,108.74L234.06,109.02L245.65,107.99L249.66,108.37L276.86,107.08L280.86,107.03L286.08,107.42L288.56,106.79L301.68,106.73L304.12,106.25L312.05,106.34L317.28,106.3L319.73,105.54L323.65,105.3L339.21,105.47L343.27,106.37L350.94,104.42L354.81,104.83L364.04,105.29L366.52,104.18L374.44,104.64L379.66,104.3L390.04,104.42L395.23,104.86L401.6,104.32L405.63,104.6L418.04,104.3L422.13,105.07L426.95,95.09L429.03,88.48L435.63,90.21L439.02,86.76L444.52,80.95L448.39,80.61L452.44,77.9L457.61,76.63L460.09,75.61L463.98,72.79L468.04,72.42L473.21,71.14L475.7,72.32L479.62,69.69L488.83,68.97L491.31,71.53L495.18,72.89L499.23,71.14L506.89,73.52L510.78,71.71L514.79,70.22L519.99,73.32L522.48,71.75L526.38,72.14L530.39,73.74L535.58,71.37L542,72.65" style="vector-effect: none; fill: none; stroke: rgb(84, 196, 103); stroke-opacity: 1; stroke-width: 1.5px; opacity: 1;"/></g><g class="points"/><g class="text"/></g><g class="trace scatter tracef0d84c" style="stroke-miterlimit: 2; opacity: 1;"><g class="fills"/><g class="errorbars"/><g class="lines"><path class="js-line" d="M0,114.21L15.72,112.95L20.92,113.61L61.48,113.13L64.83,114.13L109.33,111.8L114.51,111.15L120.9,110.8L124.9,109.8L132.58,110.36L136.47,110.39L156.08,109.89L161.28,109.8L192.48,109.25L194.97,109.29L202.88,109.45L208.07,109.11L239.27,107.9L241.75,107.27L245.65,106.86L249.66,107.32L261.27,106.41L265.27,106.48L270.46,105.4L272.94,106.05L280.86,105.71L286.08,105.83L288.56,105.03L292.46,105.26L296.45,105.56L301.68,104.99L308.05,104.14L312.05,104.64L317.28,104.75L319.73,103.81L332.84,104.04L335.32,103.71L343.27,104.75L348.45,104.42L350.94,103.72L354.81,103.92L366.52,103.75L370.41,103.89L401.6,103.84L405.63,104.44L422.13,104.05L426.95,95.8L429.03,89.95L435.63,91.98L439.02,88.66L442.37,83.96L448.39,80.26L452.44,78.42L473.21,69.55L475.7,70.84L479.62,67.91L483.6,66.09L488.83,67.05L491.31,65.25L504.4,63.44L506.89,62.04L510.78,62.93L514.79,62.06L519.99,60.23L522.48,61.3L526.38,60.98L530.39,61.62L535.58,61.29L538.11,62.02L542,60.38" style="vector-effect: none; fill: none; stroke: rgb(84, 196, 103); stroke-opacity: 1; stroke-width: 1.5px; opacity: 1;"/></g><g class="points"/><g class="text"/></g><g class="trace scatter tracec49f81" style="stroke-miterlimit: 2; opacity: 1;"><g class="fills"/><g class="errorbars"/><g class="lines"><path class="js-line" d="M0,113.2L156.08,111.35L161.28,111.35L210.56,111.68L214.44,111.69L249.66,111.39L254.86,111.35L339.21,111.37L343.27,111.41L422.13,111.33L426.95,109.79L429.03,106.64L435.63,109.51L444.52,95.61L448.39,93.97L452.44,91.49L457.61,89.33L460.09,87.09L463.98,85L468.04,82.52L473.21,82.76L479.62,78.04L483.6,76.5L488.83,76.88L491.31,75.81L504.4,73.7L506.89,74.13L514.79,71.48L519.99,72.58L522.48,71.55L526.38,74.4L530.39,74.11L535.58,71.89L538.11,73.21L542,72.61" style="vector-effect: none; fill: none; stroke: rgb(175, 221, 47); stroke-opacity: 1; stroke-width: 1.5px; opacity: 1;"/></g><g class="points"/><g class="text"/></g><g class="trace scatter tracea9d841" style="stroke-miterlimit: 2; opacity: 1;"><g class="fills"/><g class="errorbars"/><g class="lines"><path class="js-line" d="M0,115.04L163.79,112.06L167.69,111.68L179.38,111.23L183.26,111.97L194.97,111.78L198.89,111.92L202.88,111.81L208.07,112.51L218.5,113.52L223.68,113.38L379.66,113.28L382.11,113.25L422.13,113.28L426.95,108.08L429.03,103.92L435.63,104.35L444.52,94.64L448.39,92.85L452.44,89.7L457.61,88.09L468.04,81.23L473.21,80.9L475.7,80.33L479.62,78.26L483.6,78.35L488.83,77.33L491.31,76.15L495.18,77.69L499.23,75.96L504.4,76.66L510.78,75.14L514.79,75.51L519.99,72.48L522.48,75.22L526.38,73.21L530.39,74.11L535.58,73.24L538.11,74.05L542,72.58" style="vector-effect: none; fill: none; stroke: rgb(175, 221, 47); stroke-opacity: 1; stroke-width: 1.5px; opacity: 1;"/></g><g class="points"/><g class="text"/></g><g class="trace scatter trace175da6" style="stroke-miterlimit: 2; opacity: 1;"><g class="fills"/><g class="errorbars"/><g class="lines"><path class="js-line" d="M0,115.13L136.47,113.27L140.49,113.28L218.5,113.66L223.68,113.47L270.46,113.33L272.94,113.31L296.45,113.39L301.68,113.34L358.86,113.36L364.04,113.34L422.13,113.4L426.95,110.84L429.03,106.8L435.63,108.3L444.52,97.17L448.39,94.06L452.44,91.45L457.61,89.45L460.09,87.4L463.98,86.09L468.04,82.52L473.21,83.07L475.7,81.05L479.62,80.38L483.6,78.42L488.83,78.87L491.31,78.88L495.18,76.82L499.23,76.92L504.4,76.23L510.78,75.88L514.79,74.86L526.38,75.43L530.39,74.14L535.58,72.51L538.11,74.71L542,75.21" style="vector-effect: none; fill: none; stroke: rgb(175, 221, 47); stroke-opacity: 1; stroke-width: 1.5px; opacity: 1;"/></g><g class="points"/><g class="text"/></g></g></g></g><path class="xlines-above crisp" d="M37.5,464.24999999999994H580.5M37.5,342.22999999999996H580.5" style="fill: none; stroke-width: 0.5px; stroke: rgb(0, 0, 0); stroke-opacity: 1;"/><path class="ylines-above crisp" d="M37.75,342.47999999999996V463.99999999999994M580.25,342.47999999999996V463.99999999999994" style="fill: none; stroke-width: 0.5px; stroke: rgb(0, 0, 0); stroke-opacity: 1;"/><g class="overlines-above"/><g class="xaxislayer-above"><path class="x3tick ticks crisp" d="M0,463.99999999999994v-5" transform="translate(115.98,0)" style="stroke: rgb(0, 0, 0); stroke-opacity: 1; stroke-width: 0.5px;"/><path class="x3tick ticks crisp" d="M0,463.99999999999994v-5" transform="translate(193.96,0)" style="stroke: rgb(0, 0, 0); stroke-opacity: 1; stroke-width: 0.5px;"/><path class="x3tick ticks crisp" d="M0,463.99999999999994v-5" transform="translate(271.94,0)" style="stroke: rgb(0, 0, 0); stroke-opacity: 1; stroke-width: 0.5px;"/><path class="x3tick ticks crisp" d="M0,463.99999999999994v-5" transform="translate(349.92,0)" style="stroke: rgb(0, 0, 0); stroke-opacity: 1; stroke-width: 0.5px;"/><path class="x3tick ticks crisp" d="M0,463.99999999999994v-5" transform="translate(427.91,0)" style="stroke: rgb(0, 0, 0); stroke-opacity: 1; stroke-width: 0.5px;"/><path class="x3tick ticks crisp" d="M0,463.99999999999994v-5" transform="translate(505.89,0)" style="stroke: rgb(0, 0, 0); stroke-opacity: 1; stroke-width: 0.5px;"/><g class="x3tick"><text text-anchor="middle" x="0" y="477.69999999999993" transform="translate(38,0)" style="font-family: 'Open Sans', verdana, arial, sans-serif; font-size: 11px; fill: rgb(0, 0, 0); fill-opacity: 1; white-space: pre; opacity: 1;">0</text></g><g class="x3tick"><text text-anchor="middle" x="0" y="477.69999999999993" style="font-family: 'Open Sans', verdana, arial, sans-serif; font-size: 11px; fill: rgb(0, 0, 0); fill-opacity: 1; white-space: pre; opacity: 1;" transform="translate(115.98,0)">5</text></g><g class="x3tick"><text text-anchor="middle" x="0" y="477.69999999999993" style="font-family: 'Open Sans', verdana, arial, sans-serif; font-size: 11px; fill: rgb(0, 0, 0); fill-opacity: 1; white-space: pre; opacity: 1;" transform="translate(193.96,0)">10</text></g><g class="x3tick"><text text-anchor="middle" x="0" y="477.69999999999993" style="font-family: 'Open Sans', verdana, arial, sans-serif; font-size: 11px; fill: rgb(0, 0, 0); fill-opacity: 1; white-space: pre; opacity: 1;" transform="translate(271.94,0)">15</text></g><g class="x3tick"><text text-anchor="middle" x="0" y="477.69999999999993" style="font-family: 'Open Sans', verdana, arial, sans-serif; font-size: 11px; fill: rgb(0, 0, 0); fill-opacity: 1; white-space: pre; opacity: 1;" transform="translate(349.92,0)">20</text></g><g class="x3tick"><text text-anchor="middle" x="0" y="477.69999999999993" style="font-family: 'Open Sans', verdana, arial, sans-serif; font-size: 11px; fill: rgb(0, 0, 0); fill-opacity: 1; white-space: pre; opacity: 1;" transform="translate(427.91,0)">25</text></g><g class="x3tick"><text text-anchor="middle" x="0" y="477.69999999999993" style="font-family: 'Open Sans', verdana, arial, sans-serif; font-size: 11px; fill: rgb(0, 0, 0); fill-opacity: 1; white-space: pre; opacity: 1;" transform="translate(505.89,0)">30</text></g></g><g class="yaxislayer-above"><path class="y3tick ticks crisp" d="M38,0h5" transform="translate(0,458.18999999999994)" style="stroke: rgb(0, 0, 0); stroke-opacity: 1; stroke-width: 0.5px;"/><path class="y3tick ticks crisp" d="M38,0h5" transform="translate(0,423.69999999999993)" style="stroke: rgb(0, 0, 0); stroke-opacity: 1; stroke-width: 0.5px;"/><path class="y3tick ticks crisp" d="M38,0h5" transform="translate(0,389.21)" style="stroke: rgb(0, 0, 0); stroke-opacity: 1; stroke-width: 0.5px;"/><path class="y3tick ticks crisp" d="M38,0h5" transform="translate(0,354.71999999999997)" style="stroke: rgb(0, 0, 0); stroke-opacity: 1; stroke-width: 0.5px;"/><g class="y3tick"><text text-anchor="end" x="35.3" y="3.8499999999999996" transform="translate(0,458.18999999999994)" style="font-family: 'Open Sans', verdana, arial, sans-serif; font-size: 11px; fill: rgb(0, 0, 0); fill-opacity: 1; white-space: pre; opacity: 1;">0</text></g><g class="y3tick"><text text-anchor="end" x="35.3" y="3.8499999999999996" style="font-family: 'Open Sans', verdana, arial, sans-serif; font-size: 11px; fill: rgb(0, 0, 0); fill-opacity: 1; white-space: pre; opacity: 1;" transform="translate(0,423.69999999999993)">0.2</text></g><g class="y3tick"><text text-anchor="end" x="35.3" y="3.8499999999999996" style="font-family: 'Open Sans', verdana, arial, sans-serif; font-size: 11px; fill: rgb(0, 0, 0); fill-opacity: 1; white-space: pre; opacity: 1;" transform="translate(0,389.21)">0.4</text></g><g class="y3tick"><text text-anchor="end" x="35.3" y="3.8499999999999996" style="font-family: 'Open Sans', verdana, arial, sans-serif; font-size: 11px; fill: rgb(0, 0, 0); fill-opacity: 1; white-space: pre; opacity: 1;" transform="translate(0,354.71999999999997)">0.6</text></g></g><g class="overaxes-above"/></g></g><g class="polarlayer"/><g class="smithlayer"/><g class="ternarylayer"/><g class="geolayer"/><g class="funnelarealayer"/><g class="pielayer"/><g class="iciclelayer"/><g class="treemaplayer"/><g class="sunburstlayer"/><g class="glimages"/><defs id="topdefs-03c3af"><g class="clips"/><clipPath id="legend03c3af"><rect width="97" height="250" x="0" y="0"/></clipPath></defs><g class="layer-above"><g class="imagelayer"/><g class="shapelayer"/></g><g class="infolayer"><g class="legend" pointer-events="all" transform="translate(590.84,30)"><rect class="bg" shape-rendering="crispEdges" style="stroke: rgb(68, 68, 68); stroke-opacity: 1; fill: rgb(255, 255, 255); fill-opacity: 1; stroke-width: 0px;" width="97" height="250" x="0" y="0"/><g class="scrollbox" transform="" clip-path="url(#legend03c3af)"><g class="groups" transform=""><g class="traces" transform="translate(0,20.8)" style="opacity: 1;"><text class="legendtext" text-anchor="start" x="40" y="-2.8600000000000003" style="font-family: 'Open Sans', verdana, arial, sans-serif; font-size: 11px; fill: rgb(0, 0, 0); fill-opacity: 1; white-space: pre;"><tspan class="line" dy="0em" x="40" y="-2.8600000000000003">11.25 mM</tspan><tspan class="line" dy="1.3em" x="40" y="-2.8600000000000003">Succinate</tspan></text><g class="layers" style="opacity: 1;"><g class="legendfill"/><g class="legendlines"><path class="js-line" d="M5,0h30" style="fill: none; stroke: rgb(71, 43, 121); stroke-opacity: 1; stroke-width: 1.5px;"/></g><g class="legendsymbols"><g class="legendpoints"/></g></g><rect class="legendtoggle" x="0" y="-15.8" width="91.109375" height="31.6" style="fill: rgb(0, 0, 0); fill-opacity: 0;"/></g></g><g class="groups" transform="translate(0,10)"><g class="traces" transform="translate(0,52.400000000000006)" style="opacity: 1;"><text class="legendtext" text-anchor="start" x="40" y="-2.8600000000000003" style="font-family: 'Open Sans', verdana, arial, sans-serif; font-size: 11px; fill: rgb(0, 0, 0); fill-opacity: 1; white-space: pre;"><tspan class="line" dy="0em" x="40" y="-2.8600000000000003">7.5 mM</tspan><tspan class="line" dy="1.3em" x="40" y="-2.8600000000000003">Succinate</tspan></text><g class="layers" style="opacity: 1;"><g class="legendfill"/><g class="legendlines"><path class="js-line" d="M5,0h30" style="fill: none; stroke: rgb(56, 87, 139); stroke-opacity: 1; stroke-width: 1.5px;"/></g><g class="legendsymbols"><g class="legendpoints"/></g></g><rect class="legendtoggle" x="0" y="-15.8" width="91.109375" height="31.6" style="fill: rgb(0, 0, 0); fill-opacity: 0;"/></g></g><g class="groups" transform="translate(0,20)"><g class="traces" transform="translate(0,84)" style="opacity: 1;"><text class="legendtext" text-anchor="start" x="40" y="-2.8600000000000003" style="font-family: 'Open Sans', verdana, arial, sans-serif; font-size: 11px; fill: rgb(0, 0, 0); fill-opacity: 1; white-space: pre;"><tspan class="line" dy="0em" x="40" y="-2.8600000000000003">3.75 mM</tspan><tspan class="line" dy="1.3em" x="40" y="-2.8600000000000003">Succinate</tspan></text><g class="layers" style="opacity: 1;"><g class="legendfill"/><g class="legendlines"><path class="js-line" d="M5,0h30" style="fill: none; stroke: rgb(40, 125, 142); stroke-opacity: 1; stroke-width: 1.5px;"/></g><g class="legendsymbols"><g class="legendpoints"/></g></g><rect class="legendtoggle" x="0" y="-15.8" width="91.109375" height="31.6" style="fill: rgb(0, 0, 0); fill-opacity: 0;"/></g></g><g class="groups" transform="translate(0,30)"><g class="traces" transform="translate(0,115.60000000000001)" style="opacity: 1;"><text class="legendtext" text-anchor="start" x="40" y="-2.8600000000000003" style="font-family: 'Open Sans', verdana, arial, sans-serif; font-size: 11px; fill: rgb(0, 0, 0); fill-opacity: 1; white-space: pre;"><tspan class="line" dy="0em" x="40" y="-2.8600000000000003">1.875 mM</tspan><tspan class="line" dy="1.3em" x="40" y="-2.8600000000000003">Succinate</tspan></text><g class="layers" style="opacity: 1;"><g class="legendfill"/><g class="legendlines"><path class="js-line" d="M5,0h30" style="fill: none; stroke: rgb(35, 163, 134); stroke-opacity: 1; stroke-width: 1.5px;"/></g><g class="legendsymbols"><g class="legendpoints"/></g></g><rect class="legendtoggle" x="0" y="-15.8" width="91.109375" height="31.6" style="fill: rgb(0, 0, 0); fill-opacity: 0;"/></g></g><g class="groups" transform="translate(0,40)"><g class="traces" transform="translate(0,147.20000000000002)" style="opacity: 1;"><text class="legendtext" text-anchor="start" x="40" y="-2.8600000000000003" style="font-family: 'Open Sans', verdana, arial, sans-serif; font-size: 11px; fill: rgb(0, 0, 0); fill-opacity: 1; white-space: pre;"><tspan class="line" dy="0em" x="40" y="-2.8600000000000003">1.25 mM</tspan><tspan class="line" dy="1.3em" x="40" y="-2.8600000000000003">Succinate</tspan></text><g class="layers" style="opacity: 1;"><g class="legendfill"/><g class="legendlines"><path class="js-line" d="M5,0h30" style="fill: none; stroke: rgb(84, 196, 103); stroke-opacity: 1; stroke-width: 1.5px;"/></g><g class="legendsymbols"><g class="legendpoints"/></g></g><rect class="legendtoggle" x="0" y="-15.8" width="91.109375" height="31.6" style="fill: rgb(0, 0, 0); fill-opacity: 0;"/></g></g><g class="groups" transform="translate(0,50)"><g class="traces" transform="translate(0,178.8)" style="opacity: 1;"><text class="legendtext" text-anchor="start" x="40" y="-2.8600000000000003" style="font-family: 'Open Sans', verdana, arial, sans-serif; font-size: 11px; fill: rgb(0, 0, 0); fill-opacity: 1; white-space: pre;"><tspan class="line" dy="0em" x="40" y="-2.8600000000000003">0.625 mM</tspan><tspan class="line" dy="1.3em" x="40" y="-2.8600000000000003">Succinate</tspan></text><g class="layers" style="opacity: 1;"><g class="legendfill"/><g class="legendlines"><path class="js-line" d="M5,0h30" style="fill: none; stroke: rgb(175, 221, 47); stroke-opacity: 1; stroke-width: 1.5px;"/></g><g class="legendsymbols"><g class="legendpoints"/></g></g><rect class="legendtoggle" x="0" y="-15.8" width="91.109375" height="31.6" style="fill: rgb(0, 0, 0); fill-opacity: 0;"/></g></g></g><rect class="scrollbar" rx="20" ry="3" width="0" height="0" style="fill: rgb(128, 139, 164); fill-opacity: 1;" x="0" y="0"/></g><g class="g-gtitle"><text class="gtitle" x="35" y="15" text-anchor="start" dy="0em" style="opacity: 1; font-family: 'Open Sans', verdana, arial, sans-serif; font-size: 11px; fill: rgb(0, 0, 0); fill-opacity: 1; white-space: pre;">Growth on Succinate</text></g><g class="g-xtitle"/><g class="g-x2title"/><g class="g-x3title" transform="translate(0,4.550000000000011)"><text class="x3title" x="309" y="488.153125" text-anchor="middle" style="opacity: 1; font-family: 'Open Sans', verdana, arial, sans-serif; font-size: 11px; fill: rgb(0, 0, 0); fill-opacity: 1; white-space: pre;">Time (hours)</text></g><g class="g-ytitle"/><g class="g-y2title"><text class="y2title" transform="rotate(-90,16.18125,247.00000000000003)" x="16.18125" y="247.00000000000003" text-anchor="middle" style="opacity: 1; font-family: 'Open Sans', verdana, arial, sans-serif; font-size: 11px; fill: rgb(0, 0, 0); fill-opacity: 1; white-space: pre;">OD600</text></g><g class="g-y3title"/><g class="annotation" data-index="0" style="opacity: 1;"><g class="annotation-text-g" transform="rotate(0,309,20.5)"><g class="cursor-pointer" transform="translate(302,11)"><rect class="bg" x="0.5" y="0.5" width="14" height="18" style="stroke-width: 1px; stroke: rgb(0, 0, 0); stroke-opacity: 0; fill: rgb(0, 0, 0); fill-opacity: 0;"/><text class="annotation-text" text-anchor="middle" x="7.4375" y="14" style="font-family: 'Open Sans', verdana, arial, sans-serif; font-size: 11px; fill: rgb(0, 0, 0); fill-opacity: 1; white-space: pre;">At</text></g></g></g><g class="annotation" data-index="1" style="opacity: 1;"><g class="annotation-text-g" transform="rotate(0,309,176.74000000000004)"><g class="cursor-pointer" transform="translate(300,167)"><rect class="bg" x="0.5" y="0.5" width="18" height="18" style="stroke-width: 1px; stroke: rgb(0, 0, 0); stroke-opacity: 0; fill: rgb(0, 0, 0); fill-opacity: 0;"/><text class="annotation-text" text-anchor="middle" x="9.34375" y="14" style="font-family: 'Open Sans', verdana, arial, sans-serif; font-size: 11px; fill: rgb(0, 0, 0); fill-opacity: 1; white-space: pre;">Oa</text></g></g></g><g class="annotation" data-index="2" style="opacity: 1;"><g class="annotation-text-g" transform="rotate(0,309,332.97999999999996)"><g class="cursor-pointer" transform="translate(291,323)"><rect class="bg" x="0.5" y="0.5" width="35" height="18" style="stroke-width: 1px; stroke: rgb(0, 0, 0); stroke-opacity: 0; fill: rgb(0, 0, 0); fill-opacity: 0;"/><text class="annotation-text" text-anchor="middle" x="17.921875" y="14" style="font-family: 'Open Sans', verdana, arial, sans-serif; font-size: 11px; fill: rgb(0, 0, 0); fill-opacity: 1; white-space: pre;">At+Oa</text></g></g></g></g></svg>