<svg class="main-svg" xmlns="http://www.w3.org/2000/svg" xmlns:xlink="http://www.w3.org/1999/xlink" width="700" height="500" style="" viewBox="0 0 700 500"><rect x="0" y="0" width="700" height="500" style="fill: rgb(255, 255, 255); fill-opacity: 1;"/><defs id="defs-d66902"><g class="clips"><clipPath id="clipd66902xyplot" class="plotclip"><rect width="182.57777777777778" height="434"/></clipPath><clipPath id="clipd66902x2y2plot" class="plotclip"><rect width="182.57777777777778" height="434"/></clipPath><clipPath id="clipd66902x3y3plot" class="plotclip"><rect width="182.57777777777775" height="434"/></clipPath><clipPath class="axesclip" id="clipd66902x"><rect x="38" y="0" width="182.57777777777778" height="500"/></clipPath><clipPath class="axesclip" id="clipd66902y"><rect x="0" y="30" width="700" height="434"/></clipPath><clipPath class="axesclip" id="clipd66902xy"><rect x="38" y="30" width="182.57777777777778" height="434"/></clipPath><clipPath class="axesclip" id="clipd66902y2"><rect x="0" y="30" width="700" height="434"/></clipPath><clipPath class="axesclip" id="clipd66902xy2"><rect x="38" y="30" width="182.57777777777778" height="434"/></clipPath><clipPath class="axesclip" id="clipd66902y3"><rect x="0" y="30" width="700" height="434"/></clipPath><clipPath class="axesclip" id="clipd66902xy3"><rect x="38" y="30" width="182.57777777777778" height="434"/></clipPath><clipPath class="axesclip" id="clipd66902x2"><rect x="262.7111111111111" y="0" width="182.57777777777778" height="500"/></clipPath><clipPath class="axesclip" id="clipd66902x2y"><rect x="262.7111111111111" y="30" width="182.57777777777778" height="434"/></clipPath><clipPath class="axesclip" id="clipd66902x2y2"><rect x="262.7111111111111" y="30" width="182.57777777777778" height="434"/></clipPath><clipPath class="axesclip" id="clipd66902x2y3"><rect x="262.7111111111111" y="30" width="182.57777777777778" height="434"/></clipPath><clipPath class="axesclip" id="clipd66902x3"><rect x="487.4222222222222" y="0" width="182.57777777777775" height="500"/></clipPath><clipPath class="axesclip" id="clipd66902x3y"><rect x="487.4222222222222" y="30" width="182.57777777777775" height="434"/></clipPath><clipPath class="axesclip" id="clipd66902x3y2"><rect x="487.4222222222222" y="30" width="182.57777777777775" height="434"/></clipPath><clipPath class="axesclip" id="clipd66902x3y3"><rect x="487.4222222222222" y="30" width="182.57777777777775" height="434"/></clipPath></g><g class="gradients"/><g class="patterns"/></defs><g class="bglayer"/><g class="layer-below"><g class="imagelayer"/><g class="shapelayer"/></g><g class="cartesianlayer"><g class="subplot xy"><g class="layer-subplot"><g class="shapelayer"/><g class="imagelayer"/></g><g class="minor-gridlayer"><g class="x"/><g class="y"/></g><g class="gridlayer"><g class="x"><path class="xgrid crisp" transform="translate(78.86,0)" d="M0,30v434" style="stroke: rgb(128, 128, 128); stroke-opacity: 1; stroke-width: 0.2px;"/><path class="xgrid crisp" transform="translate(119.72,0)" d="M0,30v434" style="stroke: rgb(128, 128, 128); stroke-opacity: 1; stroke-width: 0.2px;"/><path class="xgrid crisp" transform="translate(160.57999999999998,0)" d="M0,30v434" style="stroke: rgb(128, 128, 128); stroke-opacity: 1; stroke-width: 0.2px;"/><path class="xgrid crisp" transform="translate(201.44,0)" d="M0,30v434" style="stroke: rgb(128, 128, 128); stroke-opacity: 1; stroke-width: 0.2px;"/></g><g class="y"><path class="ygrid crisp" transform="translate(0,443.17)" d="M38,0h182.57777777777778" style="stroke: rgb(128, 128, 128); stroke-opacity: 1; stroke-width: 0.2px;"/><path class="ygrid crisp" transform="translate(0,383.75)" d="M38,0h182.57777777777778" style="stroke: rgb(128, 128, 128); stroke-opacity: 1; stroke-width: 0.2px;"/><path class="ygrid crisp" transform="translate(0,324.33)" d="M38,0h182.57777777777778" style="stroke: rgb(128, 128, 128); stroke-opacity: 1; stroke-width: 0.2px;"/><path class="ygrid crisp" transform="translate(0,264.90999999999997)" d="M38,0h182.57777777777778" style="stroke: rgb(128, 128, 128); stroke-opacity: 1; stroke-width: 0.2px;"/><path class="ygrid crisp" transform="translate(0,205.48)" d="M38,0h182.57777777777778" style="stroke: rgb(128, 128, 128); stroke-opacity: 1; stroke-width: 0.2px;"/><path class="ygrid crisp" transform="translate(0,146.06)" d="M38,0h182.57777777777778" style="stroke: rgb(128, 128, 128); stroke-opacity: 1; stroke-width: 0.2px;"/><path class="ygrid crisp" transform="translate(0,86.64)" d="M38,0h182.57777777777778" style="stroke: rgb(128, 128, 128); stroke-opacity: 1; stroke-width: 0.2px;"/></g></g><g class="zerolinelayer"/><g class="layer-between"><g class="shapelayer"/><g class="imagelayer"/></g><path class="xlines-below"/><path class="ylines-below"/><g class="overlines-below"/><g class="xaxislayer-below"/><g class="yaxislayer-below"/><g class="overaxes-below"/><g class="overplot"><g class="xy" transform="translate(38,30)" clip-path="url(#clipd66902xyplot)"><g class="scatterlayer mlayer"><g class="trace scatter trace85e7a4" style="stroke-miterlimit: 2; opacity: 1;"><g class="fills"/><g class="errorbars"/><g class="lines"><path class="js-line" d="M0,411.82L2.79,411.03L4.1,409.43L6.14,410.93L8.24,410.91L19.13,409.82L20.43,410.08L24.57,409.21L27.31,410.68L32.21,409.55L33.97,407.19L35.73,408.62L37.01,406.5L38.81,405.21L40.92,406.22L43.65,403.55L44.95,400.55L49.1,396.73L51.82,389.86L53.13,390.04L55.16,386.79L57.28,382.21L60,374.05L63.35,363.71L65.44,360.78L69.47,340.6L71.5,332.34L79.68,300.8L81.78,271.21L84.51,250.38L85.82,255.27L89.96,208.94L92.68,195.61L93.99,198.1L96.02,183.15L106.3,97.62L109.02,84.05L110.33,77.68L112.36,76.72L114.49,74.37L117.2,67.63L118.51,65.71L120.53,64.23L125.37,57.81L126.67,54.12L128.71,57.51L130.81,54.94L133.54,53.85L134.84,51.29L136.9,51.47L139,53.99L141.71,51.71L143.01,47.69L145.07,47.98L147.16,53.33L149.9,51.53L151.2,46.56L153.24,47.17L155.33,49.98L158.07,49.98L159.35,45.71L161.41,42.58L163.51,48.68L166.25,46.18L167.53,42.3L169.58,43.88L171.68,43.29L174.4,47.13L175.7,39.53L177.74,43.57L179.87,42.87L182.58,43.15" style="vector-effect: none; fill: none; stroke: rgb(128, 0, 128); stroke-opacity: 1; stroke-width: 1.5px; opacity: 1;"/></g><g class="points"/><g class="text"/></g><g class="trace scatter trace8714f3" style="stroke-miterlimit: 2; opacity: 1;"><g class="fills"/><g class="errorbars"/><g class="lines"><path class="js-line" d="M0,411.71L8.24,410.74L10.96,410.6L16.41,409.88L19.13,409.94L20.43,410.2L22.47,409.78L24.57,409.51L27.31,410.68L28.6,410L32.21,409.67L33.97,407.25L35.73,408.97L37.01,406.73L38.81,405.57L40.92,405.92L43.65,403.84L47,398.81L49.1,396.26L53.13,389.92L55.16,386.19L61.31,368.05L63.35,361.04L65.44,360.66L68.16,345.19L69.47,342.2L71.5,331.92L73.61,322.95L76.33,307.1L77.63,309.64L79.68,301.52L81.78,272.58L84.51,252.16L85.82,259.55L87.86,242.61L89.96,217.61L92.68,199.59L93.99,201.31L96.02,186.18L98.13,164.23L100.85,146.49L102.16,144.96L104.21,128.94L106.3,110.46L109.02,100.22L110.33,81.6L112.36,77.97L114.49,74.66L117.2,67.63L118.51,64.35L120.53,63.57L125.37,53.95L126.67,48.9L128.71,50.32L130.81,47.39L133.54,47.07L134.84,44.58L136.9,45.17L139,46.74L141.71,44.58L143.01,39.31L145.07,41.03L147.16,46.5L151.2,38.83L153.24,39.03L155.33,43.39L158.07,41.01L159.35,37.33L161.41,35.39L163.51,39.94L166.25,37.63L167.53,34.63L169.58,35.68L171.68,35.51L174.4,39.41L175.7,30.02L177.74,37.21L182.58,34.95" style="vector-effect: none; fill: none; stroke: rgb(128, 0, 128); stroke-opacity: 1; stroke-width: 1.5px; opacity: 1;"/></g><g class="points"/><g class="text"/></g><g class="trace scatter trace8beaef" style="stroke-miterlimit: 2; opacity: 1;"><g class="fills"/><g class="errorbars"/><g class="lines"><path class="js-line" d="M0,411.23L6.14,410.64L8.24,410.5L24.57,409.09L27.31,410.02L28.6,409.47L32.21,409.01L33.97,406.48L35.73,408.26L37.01,405.66L38.81,404.67L40.92,405.39L43.65,403.25L47,397.62L49.1,395.19L55.16,385.06L57.28,379.06L61.31,365.85L63.35,358.72L65.44,358.17L68.16,344.12L76.33,302.77L77.63,306.43L79.68,295.58L81.78,266.82L84.51,248.06L85.82,256.52L87.86,242.73L89.96,215.71L92.68,196.26L93.99,200.54L96.02,186.66L98.13,164.59L100.85,145.71L102.16,143.48L110.33,78.39L112.36,75.89L114.49,73L117.2,65.97L120.53,60.6L122.64,56.92L125.37,50.8L126.67,45.98L128.71,48.78L130.81,45.13L133.54,43.15L134.84,39.17L136.9,38.93L139,42.76L141.71,38.4L143.01,34.61L145.07,35.86L147.16,39.72L149.9,36.91L151.2,33.07L153.24,32.38L155.33,36.56L158.07,34.89L159.35,31.15L161.41,27.72L163.51,34.12L166.25,30.85L167.53,26.85L169.58,27.96L171.68,27.01L174.4,32.04L175.7,21.7L177.74,26.87L179.87,26.53L182.58,25.92" style="vector-effect: none; fill: none; stroke: rgb(128, 0, 128); stroke-opacity: 1; stroke-width: 1.5px; opacity: 1;"/></g><g class="points"/><g class="text"/></g><g class="trace scatter trace191d9f" style="stroke-miterlimit: 2; opacity: 1;"><g class="fills"/><g class="errorbars"/><g class="lines"><path class="js-line" d="M0,410.52L4.1,409.67L6.14,409.8L16.41,408.87L19.13,408.75L20.43,409.01L22.47,408.42L24.57,407.9L27.31,408.77L32.21,408.77L33.97,406.48L35.73,407.43L37.01,405.78L38.81,405.03L40.92,405.74L49.1,399.46L51.82,397.05L55.16,393.8L57.28,387.74L65.44,359.95L68.16,342.76L73.61,336.14L76.33,315.6L79.68,303.36L81.78,280.96L84.51,260.83L85.82,258.77L89.96,214.64L92.68,197.39L93.99,186.58L96.02,176.97L100.85,164.55L102.16,162.67L104.21,159.84L106.3,152.23L112.36,138.52L114.49,136.94L118.51,125.67L120.53,123.77L122.64,122.28L125.37,115.69L126.67,109.03L128.71,111.76L130.81,109.55L133.54,108.28L134.84,106.85L136.9,107.98L139,110.26L141.71,110.65L143.01,104.55L145.07,106.28L147.16,110.5L149.9,109.94L151.2,108L153.24,109.92L155.33,115.59L158.07,114.87L159.35,111.25L161.41,110.08L163.51,116.48L166.25,115.76L167.53,112.54L169.58,113.23L171.68,111.21L174.4,116.18L175.7,111.01L177.74,112.56L179.87,113.59L182.58,111.66" style="vector-effect: none; fill: none; stroke: rgb(128, 0, 128); stroke-opacity: 1; stroke-width: 1.5px; opacity: 1;"/></g><g class="points"/><g class="text"/></g><g class="trace scatter trace2af769" style="stroke-miterlimit: 2; opacity: 1;"><g class="fills"/><g class="errorbars"/><g class="lines"><path class="js-line" d="M0,410.58L4.1,409.9L6.14,409.74L14.3,407.98L16.41,402.69L19.13,397.17L20.43,397.19L22.47,375.85L24.57,404.63L27.31,400.4L28.6,358.42L32.21,402.89L33.97,397.21L35.73,391.8L37.01,405.19L38.81,404.5L40.92,405.51L44.95,402.46L47,400.12L53.13,395.44L55.16,392.67L63.35,365.26L65.44,358.52L69.47,337.98L71.5,337.98L73.61,334.12L76.33,314.95L77.63,311.06L79.68,301.04L81.78,277.75L84.51,259.11L85.82,260.56L87.86,242.14L89.96,220.11L92.68,202.74L93.99,189.25L96.02,179.58L104.21,161.38L106.3,154.07L110.33,145.54L112.36,143.4L114.49,143L117.2,136.8L118.51,132.5L120.53,131.55L122.64,131.02L125.37,124.12L126.67,118.3L128.71,120.44L130.81,116.74L133.54,115.23L134.84,112.67L136.9,113.09L139,115.13L141.71,114.87L143.01,109.9L145.07,112.1L147.16,116.74L149.9,114.93L151.2,110.61L153.24,110.93L155.33,115.76L158.07,115.82L159.35,112.56L161.41,111.39L163.51,114.99L166.25,112.26L167.53,109.86L169.58,110.85L171.68,109.96L174.4,114.16L175.7,106.67L177.74,111.61L179.87,111.63L182.58,107.8" style="vector-effect: none; fill: none; stroke: rgb(128, 0, 128); stroke-opacity: 1; stroke-width: 1.5px; opacity: 1;"/></g><g class="points"/><g class="text"/></g><g class="trace scatter trace44ed4f" style="stroke-miterlimit: 2; opacity: 1;"><g class="fills"/><g class="errorbars"/><g class="lines"><path class="js-line" d="M0,410.46L6.14,409.57L8.24,409.49L14.3,409.29L16.41,409.29L24.57,408.44L27.31,408.83L32.21,408.42L33.97,406L35.73,407.9L37.01,405.78L38.81,404.91L40.92,406.1L43.65,404.56L44.95,402.81L51.82,395.92L53.13,395.5L55.16,392.43L57.28,386.02L65.44,359.06L68.16,342.99L69.47,338.22L71.5,336.74L73.61,335.13L76.33,313.34L77.63,310.53L79.68,300.27L81.78,274.12L84.51,255.25L85.82,259.31L87.86,239.52L89.96,215.12L92.68,197.57L93.99,185.45L96.02,175.6L100.85,165.44L102.16,163.38L104.21,162.21L106.3,155.02L110.33,145.06L112.36,142.45L114.49,141.81L117.2,135.67L118.51,129.95L120.53,130.13L122.64,128.34L125.37,122.22L126.67,115.98L128.71,118.72L130.81,115.01L133.54,112.44L134.84,108.87L136.9,110.18L139,111.68L141.71,109.64L143.01,101.58L145.07,104.73L147.16,107.58L149.9,104.89L151.2,102L153.24,102.79L155.33,106.97L158.07,103.64L159.35,100.37L161.41,100.1L163.51,100.61L166.25,97.34L167.53,94.65L169.58,97.01L171.68,94.87L174.4,99.54L175.7,93.24L177.74,95.38L179.87,94.33L182.58,91.16" style="vector-effect: none; fill: none; stroke: rgb(128, 0, 128); stroke-opacity: 1; stroke-width: 1.5px; opacity: 1;"/></g><g class="points"/><g class="text"/></g><g class="trace scatter trace891d58" style="stroke-miterlimit: 2; opacity: 1;"><g class="fills"/><g class="errorbars"/><g class="lines"><path class="js-line" d="M0,410.64L4.1,410.02L6.14,410.34L8.24,409.84L10.96,410L24.57,408.44L27.31,409.31L32.21,408.36L33.97,405.82L35.73,407.31L37.01,405.43L38.81,404.38L40.92,404.91L43.65,403.25L44.95,401.03L47,400.53L49.1,398.99L55.16,396.3L57.28,392.79L63.35,373.4L65.44,365.12L69.47,342.8L71.5,336.79L73.61,331.86L76.33,312.81L81.78,306.75L84.51,298.57L87.86,283.73L89.96,281.73L93.99,265.43L96.02,263.07L98.13,258.65L100.85,255.88L102.16,252.69L104.21,254.5L106.3,251.52L109.02,249.42L110.33,247.56L112.36,248.16L114.49,251.62L117.2,250.24L118.51,246.71L120.53,247.6L122.64,249.38L125.37,244.51L126.67,237.44L128.71,242.19L130.81,240.04L133.54,240.25L134.84,238.35L136.9,241.8L139,245.09L141.71,243.88L143.01,237.36L145.07,242.06L147.16,247.46L149.9,245.07L151.2,242.95L153.24,245.05L155.33,251.78L158.07,250.89L159.35,247.5L161.41,245.92L163.51,249.35L166.25,249.17L167.53,247.19L169.58,250.14L171.68,247.88L174.4,254.22L175.7,247.15L177.74,250.41L179.87,249.13L182.58,249.7" style="vector-effect: none; fill: none; stroke: rgb(128, 0, 128); stroke-opacity: 1; stroke-width: 1.5px; opacity: 1;"/></g><g class="points"/><g class="text"/></g><g class="trace scatter trace4bd68f" style="stroke-miterlimit: 2; opacity: 1;"><g class="fills"/><g class="errorbars"/><g class="lines"><path class="js-line" d="M0,411.59L8.24,410.79L10.96,410.72L20.43,409.96L22.47,409.25L24.57,408.73L27.31,409.49L28.6,408.7L32.21,407.88L33.97,405.82L35.73,407.78L37.01,405.31L38.81,404.44L43.65,403.19L44.95,401.68L47,400.24L49.1,399.88L53.13,396.16L55.16,394.81L57.28,391.54L60,384.63L63.35,375.78L65.44,367.02L68.16,357.91L69.47,346.72L76.33,306.63L77.63,304.17L79.68,303.89L81.78,301.1L84.51,293.93L85.82,287.3L89.96,279.95L92.68,269.53L96.02,258.85L98.13,257.35L100.85,251.66L102.16,250.73L104.21,251.11L106.3,248.73L110.33,248.75L112.36,250.71L114.49,254.53L117.2,252.61L118.51,248.61L120.53,250.16L122.64,251.58L125.37,245.64L126.67,238.04L128.71,243.44L130.81,241.94L133.54,243.28L134.84,240.19L136.9,241.92L139,245.5L141.71,245.42L143.01,237.96L145.07,239.5L147.16,245.5L149.9,242.57L151.2,239.5L153.24,241.6L155.33,247.38L158.07,244.18L159.35,237.82L161.41,237.06L163.51,240.13L166.25,239.84L167.53,236.43L169.58,239.8L171.68,240.57L174.4,246.55L175.7,237.82L177.74,238.77L182.58,239.9" style="vector-effect: none; fill: none; stroke: rgb(128, 0, 128); stroke-opacity: 1; stroke-width: 1.5px; opacity: 1;"/></g><g class="points"/><g class="text"/></g><g class="trace scatter trace697940" style="stroke-miterlimit: 2; opacity: 1;"><g class="fills"/><g class="errorbars"/><g class="lines"><path class="js-line" d="M0,412.3L24.57,409.39L27.31,410.62L32.21,409.55L33.97,407.25L35.73,408.68L37.01,406.85L38.81,405.33L40.92,406.81L43.65,405.45L44.95,403.47L49.1,400.71L51.82,399.96L55.16,398.79L57.28,394.33L61.31,384.03L63.35,376.55L65.44,369.1L68.16,356.54L69.47,351.71L71.5,340.6L77.63,311.36L79.68,309.36L81.78,305.8L84.51,298.51L85.82,291.57L87.86,285.28L89.96,283.99L92.68,269.47L93.99,264.66L96.02,260.81L102.16,249.72L104.21,248.85L106.3,245.64L109.02,243.6L110.33,241.2L112.36,243.22L114.49,247.11L117.2,244.29L118.51,241.66L120.53,244.1L122.64,246.41L125.37,244.39L126.67,237.8L128.71,241.84L130.81,239.92L133.54,240.61L134.84,237.46L136.9,239.6L139,245.15L141.71,244.35L143.01,236.71L145.07,237.36L147.16,241.64L149.9,236.93L151.2,231.3L153.24,234.17L155.33,241.5L158.07,240.73L159.35,235.68L161.41,234.09L163.51,237.88L166.25,238.41L167.53,235.66L169.58,238.85L171.68,238.49L174.4,245.25L175.7,238L177.74,238.83L179.87,238.73L182.58,235.98" style="vector-effect: none; fill: none; stroke: rgb(128, 0, 128); stroke-opacity: 1; stroke-width: 1.5px; opacity: 1;"/></g><g class="points"/><g class="text"/></g><g class="trace scatter trace928856" style="stroke-miterlimit: 2; opacity: 1;"><g class="fills"/><g class="errorbars"/><g class="lines"><path class="js-line" d="M0,410.02L4.1,409.49L6.14,409.33L24.57,407.65L27.31,407.01L35.73,404.42L37.01,403.94L40.92,402.34L43.65,400.73L49.1,398.28L51.82,396.04L53.13,395.23L55.16,392.33L61.31,379.82L63.35,377.36L65.44,375.74L68.16,374.8L73.61,373.34L76.33,372.88L79.68,372.35L81.78,372.05L85.82,371.34L87.86,371.66L89.96,371.32L92.68,369.81L96.02,364.45L98.13,362.84L104.21,355L106.3,353.67L109.02,347.05L110.33,346.14L112.36,346.18L114.49,348.98L117.2,345.53L118.51,346.46L120.53,345.33L122.64,348.14L125.37,344.58L126.67,345.75L130.81,348.66L133.54,350.12L134.84,352.9L136.9,354.3L139,358.64L141.71,361.06L143.01,363.71L145.07,364.41L147.16,364.66L149.9,363.73L153.24,364.96L155.33,364.74L163.51,365.02L166.25,365.77L171.68,365.18L174.4,365.46L175.7,364.45L177.74,365.52L182.58,365.24" style="vector-effect: none; fill: none; stroke: rgb(128, 0, 128); stroke-opacity: 1; stroke-width: 1.5px; opacity: 1;"/></g><g class="points"/><g class="text"/></g><g class="trace scatter trace651fc1" style="stroke-miterlimit: 2; opacity: 1;"><g class="fills"/><g class="errorbars"/><g class="lines"><path class="js-line" d="M0,409.25L6.14,408.79L8.24,408.81L19.13,407.37L20.43,406.97L27.31,405.7L28.6,405.13L38.81,401.76L40.92,400.91L49.1,397.39L51.82,395.15L53.13,394.57L55.16,392.51L57.28,388.39L60,380.87L61.31,380.05L63.35,376.77L71.5,373.62L73.61,373.75L77.63,372.88L79.68,373.3L85.82,372.35L87.86,373.2L96.02,372.82L98.13,371.04L102.16,365.73L104.21,361.42L109.02,351.93L110.33,349.23L114.49,347.79L117.2,343.57L118.51,341.05L120.53,341.59L122.64,342.38L125.37,340.18L126.67,338.44L128.71,339.33L134.84,342.26L136.9,344.5L139,347.59L141.71,346.92L149.9,353.57L151.2,354.38L153.24,355.45L155.33,357.49L159.35,361.32L161.41,362.35L166.25,364.64L167.53,363.49L169.58,363.99L171.68,363.57L174.4,364.21L175.7,363.61L177.74,364.74L179.87,365L182.58,364.29" style="vector-effect: none; fill: none; stroke: rgb(128, 0, 128); stroke-opacity: 1; stroke-width: 1.5px; opacity: 1;"/></g><g class="points"/><g class="text"/></g><g class="trace scatter trace345cb6" style="stroke-miterlimit: 2; opacity: 1;"><g class="fills"/><g class="errorbars"/><g class="lines"><path class="js-line" d="M0,409.67L4.1,409.31L6.14,409.03L12.27,408.89L14.3,408.7L22.47,407.96L24.57,407.88L33.97,405.59L35.73,405.07L38.81,404.02L40.92,403.11L49.1,398.87L51.82,396.75L53.13,395.46L55.16,392.39L57.28,388.45L60,381.52L63.35,376.83L65.44,375.74L69.47,372.8L71.5,372.49L73.61,371.32L76.33,370.86L79.68,370.09L81.78,368.25L85.82,364.8L87.86,365.24L89.96,365.61L92.68,363.99L93.99,362.66L96.02,359.1L100.85,350.01L102.16,345.41L106.3,339.41L109.02,335.35L110.33,331.53L112.36,329.25L114.49,329.13L117.2,326.63L118.51,322.57L120.53,321.38L122.64,323.01L125.37,323.78L126.67,320.31L128.71,322.69L130.81,322.87L133.54,320.83L134.84,318.67L136.9,319.13L141.71,323.09L143.01,322.06L145.07,324.47L147.16,328.77L149.9,329.8L151.2,327.35L153.24,329.01L155.33,331.82L158.07,332.79L159.35,331.66L161.41,332.75L163.51,336.85L166.25,339.51L167.53,338.06L169.58,340.1L171.68,344.14L174.4,346.92L175.7,346.92L179.87,360.42L182.58,361.61" style="vector-effect: none; fill: none; stroke: rgb(128, 0, 128); stroke-opacity: 1; stroke-width: 1.5px; opacity: 1;"/></g><g class="points"/><g class="text"/></g><g class="trace scatter trace6649fd" style="stroke-miterlimit: 2; opacity: 1;"><g class="fills"/><g class="errorbars"/><g class="lines"><path class="js-line" d="M0,409.61L4.1,409.13L6.14,408.91L12.27,408.66L14.3,408.58L28.6,406.32L32.21,405.33L37.01,403.58L38.81,403.19L44.95,399.86L47,399.56L53.13,394.57L55.16,393.4L61.31,391.82L63.35,391.8L92.68,389.42L93.99,389.52L100.85,389.22L102.16,389.5L104.21,390.35L106.3,389.5L109.02,389.54L110.33,390.35L120.53,389.24L122.64,389.15L133.54,387.26L134.84,387.42L139,386.81L141.71,384.53L143.01,386.71L145.07,386.63L149.9,386.79L151.2,385.64L155.33,386.08L158.07,385.08L161.41,384.93L163.51,385.16L166.25,386.04L167.53,384.59L182.58,384.85" style="vector-effect: none; fill: none; stroke: rgb(128, 0, 128); stroke-opacity: 1; stroke-width: 1.5px; opacity: 1;"/></g><g class="points"/><g class="text"/></g><g class="trace scatter trace15f443" style="stroke-miterlimit: 2; opacity: 1;"><g class="fills"/><g class="errorbars"/><g class="lines"><path class="js-line" d="M0,410.2L6.14,409.15L8.24,409.11L14.3,407.8L16.41,406.85L20.43,406.73L22.47,406L27.31,405.35L28.6,404.65L38.81,402.3L40.92,401.51L49.1,398.63L51.82,395.98L55.16,394.12L57.28,391.19L63.35,391.74L65.44,390.53L69.47,389.56L71.5,389.42L76.33,388.33L77.63,387.74L79.68,387.68L81.78,388.81L85.82,387.68L87.86,388.71L89.96,389.38L92.68,388L96.02,388.04L98.13,386.61L102.16,388.55L104.21,387.68L109.02,387.05L110.33,389.17L112.36,387.07L114.49,387.9L118.51,388.47L120.53,388L125.37,385.52L126.67,385.68L128.71,383.48L130.81,384.49L134.84,384.09L136.9,383.01L139,382.77L141.71,381.56L143.01,382.43L145.07,382.89L149.9,382.75L151.2,382.13L158.07,382.59L159.35,381.7L175.7,380.91L177.74,381.92L182.58,382.29" style="vector-effect: none; fill: none; stroke: rgb(128, 0, 128); stroke-opacity: 1; stroke-width: 1.5px; opacity: 1;"/></g><g class="points"/><g class="text"/></g><g class="trace scatter trace52bf69" style="stroke-miterlimit: 2; opacity: 1;"><g class="fills"/><g class="errorbars"/><g class="lines"><path class="js-line" d="M0,409.67L2.79,409.09L4.1,409.61L32.21,405.68L33.97,404.81L49.1,398.22L51.82,396.16L57.28,392.73L60,391.26L65.44,387.03L68.16,387.34L73.61,387.66L76.33,388.27L79.68,388.33L81.78,387.86L84.51,388.57L85.82,387.98L96.02,387.2L98.13,386.91L110.33,388.39L112.36,388.08L118.51,386.45L120.53,385.92L122.64,386.83L125.37,387.07L126.67,385.56L128.71,385.68L133.54,386.08L134.84,386L139,385.74L141.71,384.23L143.01,384.63L145.07,384.19L149.9,385.78L151.2,383.02L155.33,384L158.07,383.3L159.35,382.47L161.41,382.49L166.25,384.85L167.53,382.69L174.4,384.17L175.7,383.04L177.74,383.1L179.87,385.03L182.58,383.12" style="vector-effect: none; fill: none; stroke: rgb(128, 0, 128); stroke-opacity: 1; stroke-width: 1.5px; opacity: 1;"/></g><g class="points"/><g class="text"/></g><g class="trace scatter trace292535" style="stroke-miterlimit: 2; opacity: 1;"><g class="fills"/><g class="errorbars"/><g class="lines"><path class="js-line" d="M0,408.71L6.14,407.61L8.24,407.8L14.3,406.85L16.41,406.56L20.43,406.26L22.47,406L27.31,405.05L28.6,404.59L35.73,402.93L37.01,401.92L47,400.93L49.1,401.84L60,402.08L61.31,402.46L69.47,402.63L71.5,402.61L89.96,402.22L92.68,402.44L96.02,402.3L98.13,402.3L102.16,402.52L104.21,403.25L106.3,402.04L109.02,403.27L110.33,401.05L112.36,403.47L114.49,401.68L117.2,401.03L118.51,400.06L120.53,401.43L122.64,401.39L125.37,398.71L128.71,398.22L130.81,399.94L136.9,399.7L139,398.4L141.71,398.61L143.01,399.9L145.07,398.57L147.16,398.12L149.9,398.55L151.2,397.76L158.07,399.94L159.35,398.28L161.41,398.59L163.51,398.06L169.58,398.04L171.68,399.41L177.74,398.97L179.87,399.23L182.58,397.68" style="vector-effect: none; fill: none; stroke: rgb(128, 0, 128); stroke-opacity: 1; stroke-width: 1.5px; opacity: 1;"/></g><g class="points"/><g class="text"/></g><g class="trace scatter trace936550" style="stroke-miterlimit: 2; opacity: 1;"><g class="fills"/><g class="errorbars"/><g class="lines"><path class="js-line" d="M0,409.13L8.24,407.8L10.96,402.59L12.27,407.29L14.3,407.39L16.41,407.51L19.13,406.83L20.43,406.85L22.47,400.42L24.57,406.04L27.31,400.53L28.6,397.7L32.21,398.26L35.73,402.69L37.01,402.69L38.81,399.5L40.92,398.36L43.65,395.21L44.95,398.14L49.1,398.16L51.82,394.43L53.13,397.25L55.16,398.22L57.28,402.12L60,401.54L61.31,399.66L63.35,402.26L69.47,402.28L71.5,401.78L79.68,401.94L81.78,399.68L85.82,401.52L87.86,401.84L89.96,400.91L92.68,400.77L93.99,397.9L96.02,398.02L100.85,401.58L102.16,397.94L104.21,398.61L106.3,397.82L109.02,399.29L110.33,401.11L112.36,398.95L114.49,398.89L117.2,399.54L118.51,398.1L122.64,399.72L125.37,394.31L126.67,393.88L128.71,397.74L130.81,392.93L133.54,392.79L139,392.81L141.71,398.2L145.07,392.22L147.16,393.48L151.2,391.28L153.24,393.96L161.41,393.01L163.51,391.82L166.25,393.7L167.53,392.02L169.58,392.51L171.68,395.6L174.4,393.56L175.7,395.23L177.74,392.61L179.87,392.22L182.58,392.39" style="vector-effect: none; fill: none; stroke: rgb(128, 0, 128); stroke-opacity: 1; stroke-width: 1.5px; opacity: 1;"/></g><g class="points"/><g class="text"/></g><g class="trace scatter tracedbbc55" style="stroke-miterlimit: 2; opacity: 1;"><g class="fills"/><g class="errorbars"/><g class="lines"><path class="js-line" d="M0,409.84L14.3,408.1L16.41,408.04L22.47,406.83L24.57,407.05L28.6,405.96L32.21,405.27L33.97,404.28L35.73,404.18L38.81,403.49L40.92,402.87L44.95,401.52L47,402.42L51.82,402.52L53.13,402.3L61.31,403.11L63.35,403.15L69.47,403.05L71.5,402.85L85.82,402.59L87.86,402.91L98.13,402.54L100.85,402.77L104.21,403.6L106.3,402.81L112.36,403.7L114.49,403.76L122.64,403.05L125.37,402.99L126.67,402.14L128.71,402.38L153.24,402.1L155.33,401.58L159.35,402.02L161.41,402.04L166.25,402.2L167.53,402L174.4,402.42L175.7,402.42L182.58,402.14" style="vector-effect: none; fill: none; stroke: rgb(128, 0, 128); stroke-opacity: 1; stroke-width: 1.5px; opacity: 1;"/></g><g class="points"/><g class="text"/></g></g></g></g><path class="xlines-above crisp" d="M37.5,464.25H221.07777777777778M37.5,29.75H221.07777777777778" style="fill: none; stroke-width: 0.5px; stroke: rgb(0, 0, 0); stroke-opacity: 1;"/><path class="ylines-above crisp" d="M37.75,30V464M220.82777777777778,30V464" style="fill: none; stroke-width: 0.5px; stroke: rgb(0, 0, 0); stroke-opacity: 1;"/><g class="overlines-above"/><g class="xaxislayer-above"><path class="xtick ticks crisp" d="M0,464v-5" transform="translate(78.86,0)" style="stroke: rgb(0, 0, 0); stroke-opacity: 1; stroke-width: 0.5px;"/><path class="xtick ticks crisp" d="M0,464v-5" transform="translate(119.72,0)" style="stroke: rgb(0, 0, 0); stroke-opacity: 1; stroke-width: 0.5px;"/><path class="xtick ticks crisp" d="M0,464v-5" transform="translate(160.57999999999998,0)" style="stroke: rgb(0, 0, 0); stroke-opacity: 1; stroke-width: 0.5px;"/><path class="xtick ticks crisp" d="M0,464v-5" transform="translate(201.44,0)" style="stroke: rgb(0, 0, 0); stroke-opacity: 1; stroke-width: 0.5px;"/><g class="xtick"><text text-anchor="middle" x="0" y="477.7" transform="translate(38,0)" style="font-family: 'Open Sans', verdana, arial, sans-serif; font-size: 11px; fill: rgb(0, 0, 0); fill-opacity: 1; white-space: pre; opacity: 1;">0</text></g><g class="xtick"><text text-anchor="middle" x="0" y="477.7" style="font-family: 'Open Sans', verdana, arial, sans-serif; font-size: 11px; fill: rgb(0, 0, 0); fill-opacity: 1; white-space: pre; opacity: 1;" transform="translate(78.86,0)">5</text></g><g class="xtick"><text text-anchor="middle" x="0" y="477.7" style="font-family: 'Open Sans', verdana, arial, sans-serif; font-size: 11px; fill: rgb(0, 0, 0); fill-opacity: 1; white-space: pre; opacity: 1;" transform="translate(119.72,0)">10</text></g><g class="xtick"><text text-anchor="middle" x="0" y="477.7" style="font-family: 'Open Sans', verdana, arial, sans-serif; font-size: 11px; fill: rgb(0, 0, 0); fill-opacity: 1; white-space: pre; opacity: 1;" transform="translate(160.57999999999998,0)">15</text></g><g class="xtick"><text text-anchor="middle" x="0" y="477.7" style="font-family: 'Open Sans', verdana, arial, sans-serif; font-size: 11px; fill: rgb(0, 0, 0); fill-opacity: 1; white-space: pre; opacity: 1;" transform="translate(201.44,0)">20</text></g></g><g class="yaxislayer-above"><path class="ytick ticks crisp" d="M38,0h5" transform="translate(0,443.17)" style="stroke: rgb(0, 0, 0); stroke-opacity: 1; stroke-width: 0.5px;"/><path class="ytick ticks crisp" d="M38,0h5" transform="translate(0,383.75)" style="stroke: rgb(0, 0, 0); stroke-opacity: 1; stroke-width: 0.5px;"/><path class="ytick ticks crisp" d="M38,0h5" transform="translate(0,324.33)" style="stroke: rgb(0, 0, 0); stroke-opacity: 1; stroke-width: 0.5px;"/><path class="ytick ticks crisp" d="M38,0h5" transform="translate(0,264.90999999999997)" style="stroke: rgb(0, 0, 0); stroke-opacity: 1; stroke-width: 0.5px;"/><path class="ytick ticks crisp" d="M38,0h5" transform="translate(0,205.48)" style="stroke: rgb(0, 0, 0); stroke-opacity: 1; stroke-width: 0.5px;"/><path class="ytick ticks crisp" d="M38,0h5" transform="translate(0,146.06)" style="stroke: rgb(0, 0, 0); stroke-opacity: 1; stroke-width: 0.5px;"/><path class="ytick ticks crisp" d="M38,0h5" transform="translate(0,86.64)" style="stroke: rgb(0, 0, 0); stroke-opacity: 1; stroke-width: 0.5px;"/><g class="ytick"><text text-anchor="end" x="35.3" y="3.8499999999999996" transform="translate(0,443.17)" style="font-family: 'Open Sans', verdana, arial, sans-serif; font-size: 11px; fill: rgb(0, 0, 0); fill-opacity: 1; white-space: pre; opacity: 1;">0</text></g><g class="ytick"><text text-anchor="end" x="35.3" y="3.8499999999999996" style="font-family: 'Open Sans', verdana, arial, sans-serif; font-size: 11px; fill: rgb(0, 0, 0); fill-opacity: 1; white-space: pre; opacity: 1;" transform="translate(0,383.75)">0.1</text></g><g class="ytick"><text text-anchor="end" x="35.3" y="3.8499999999999996" style="font-family: 'Open Sans', verdana, arial, sans-serif; font-size: 11px; fill: rgb(0, 0, 0); fill-opacity: 1; white-space: pre; opacity: 1;" transform="translate(0,324.33)">0.2</text></g><g class="ytick"><text text-anchor="end" x="35.3" y="3.8499999999999996" style="font-family: 'Open Sans', verdana, arial, sans-serif; font-size: 11px; fill: rgb(0, 0, 0); fill-opacity: 1; white-space: pre; opacity: 1;" transform="translate(0,264.90999999999997)">0.3</text></g><g class="ytick"><text text-anchor="end" x="35.3" y="3.8499999999999996" style="font-family: 'Open Sans', verdana, arial, sans-serif; font-size: 11px; fill: rgb(0, 0, 0); fill-opacity: 1; white-space: pre; opacity: 1;" transform="translate(0,205.48)">0.4</text></g><g class="ytick"><text text-anchor="end" x="35.3" y="3.8499999999999996" style="font-family: 'Open Sans', verdana, arial, sans-serif; font-size: 11px; fill: rgb(0, 0, 0); fill-opacity: 1; white-space: pre; opacity: 1;" transform="translate(0,146.06)">0.5</text></g><g class="ytick"><text text-anchor="end" x="35.3" y="3.8499999999999996" style="font-family: 'Open Sans', verdana, arial, sans-serif; font-size: 11px; fill: rgb(0, 0, 0); fill-opacity: 1; white-space: pre; opacity: 1;" transform="translate(0,86.64)">0.6</text></g></g><g class="overaxes-above"/></g><g class="subplot x2y2"><g class="layer-subplot"><g class="shapelayer"/><g class="imagelayer"/></g><g class="minor-gridlayer"><g class="x2"/><g class="y2"/></g><g class="gridlayer"><g class="x2"><path class="x2grid crisp" transform="translate(303.5711111111111,0)" d="M0,30v434" style="stroke: rgb(128, 128, 128); stroke-opacity: 1; stroke-width: 0.2px;"/><path class="x2grid crisp" transform="translate(344.43111111111114,0)" d="M0,30v434" style="stroke: rgb(128, 128, 128); stroke-opacity: 1; stroke-width: 0.2px;"/><path class="x2grid crisp" transform="translate(385.2911111111111,0)" d="M0,30v434" style="stroke: rgb(128, 128, 128); stroke-opacity: 1; stroke-width: 0.2px;"/><path class="x2grid crisp" transform="translate(426.1511111111111,0)" d="M0,30v434" style="stroke: rgb(128, 128, 128); stroke-opacity: 1; stroke-width: 0.2px;"/></g><g class="y2"><path class="y2grid crisp" transform="translate(0,440.19)" d="M262.7111111111111,0h182.57777777777778" style="stroke: rgb(128, 128, 128); stroke-opacity: 1; stroke-width: 0.2px;"/><path class="y2grid crisp" transform="translate(0,396.32)" d="M262.7111111111111,0h182.57777777777778" style="stroke: rgb(128, 128, 128); stroke-opacity: 1; stroke-width: 0.2px;"/><path class="y2grid crisp" transform="translate(0,352.44)" d="M262.7111111111111,0h182.57777777777778" style="stroke: rgb(128, 128, 128); stroke-opacity: 1; stroke-width: 0.2px;"/><path class="y2grid crisp" transform="translate(0,308.57)" d="M262.7111111111111,0h182.57777777777778" style="stroke: rgb(128, 128, 128); stroke-opacity: 1; stroke-width: 0.2px;"/><path class="y2grid crisp" transform="translate(0,264.69)" d="M262.7111111111111,0h182.57777777777778" style="stroke: rgb(128, 128, 128); stroke-opacity: 1; stroke-width: 0.2px;"/><path class="y2grid crisp" transform="translate(0,220.81)" d="M262.7111111111111,0h182.57777777777778" style="stroke: rgb(128, 128, 128); stroke-opacity: 1; stroke-width: 0.2px;"/><path class="y2grid crisp" transform="translate(0,176.94)" d="M262.7111111111111,0h182.57777777777778" style="stroke: rgb(128, 128, 128); stroke-opacity: 1; stroke-width: 0.2px;"/><path class="y2grid crisp" transform="translate(0,133.06)" d="M262.7111111111111,0h182.57777777777778" style="stroke: rgb(128, 128, 128); stroke-opacity: 1; stroke-width: 0.2px;"/><path class="y2grid crisp" transform="translate(0,89.18)" d="M262.7111111111111,0h182.57777777777778" style="stroke: rgb(128, 128, 128); stroke-opacity: 1; stroke-width: 0.2px;"/><path class="y2grid crisp" transform="translate(0,45.31)" d="M262.7111111111111,0h182.57777777777778" style="stroke: rgb(128, 128, 128); stroke-opacity: 1; stroke-width: 0.2px;"/></g></g><g class="zerolinelayer"/><g class="layer-between"><g class="shapelayer"/><g class="imagelayer"/></g><path class="xlines-below"/><path class="ylines-below"/><g class="overlines-below"/><g class="xaxislayer-below"/><g class="yaxislayer-below"/><g class="overaxes-below"/><g class="overplot"><g class="x2y2" transform="translate(262.7111111111111,30)" clip-path="url(#clipd66902x2y2plot)"><g class="scatterlayer mlayer"><g class="trace scatter trace780fef" style="stroke-miterlimit: 2; opacity: 1;"><g class="fills"/><g class="errorbars"/><g class="lines"><path class="js-line" d="M0,409.02L24.57,408.19L27.31,409.32L32.21,408.53L33.97,407.01L35.73,401.17L37.01,401.49L38.81,400.28L40.92,402.56L43.65,402.12L44.95,407.37L47,406.83L49.1,407.18L53.13,406.93L55.16,407.78L57.28,407.3L60,405.66L65.44,403.1L68.16,399.05L69.47,399.61L71.5,399.03L73.61,396.45L76.33,391.2L77.63,391.66L79.68,389.31L85.82,373.67L87.86,358.84L89.96,360.39L92.68,345.46L96.02,321.08L98.13,312.12L102.16,278.45L104.21,262.67L114.49,162.09L117.2,122.32L118.51,101.47L120.53,84.22L122.64,73.3L125.37,37.98L126.67,21.7L128.71,21.7L130.81,36.56L133.54,41.37L134.84,54.93L136.9,86.65L139,114.97L141.71,121.05L143.01,111.54L145.07,113.3L147.16,127.95L149.9,129.12L151.2,119.88L153.24,125.77L155.33,140.09L158.07,141.8L159.35,134.87L161.41,137.61L163.51,148.21L166.25,158.04L167.53,157.89L169.58,167.31L171.68,170.38L174.4,180.46L175.7,180.06L177.74,186.25L179.87,193.02L182.58,197.57" style="vector-effect: none; fill: none; stroke: rgb(128, 0, 128); stroke-opacity: 1; stroke-width: 1.5px; opacity: 1;"/></g><g class="points"/><g class="text"/></g><g class="trace scatter traceb32049" style="stroke-miterlimit: 2; opacity: 1;"><g class="fills"/><g class="errorbars"/><g class="lines"><path class="js-line" d="M0,408.8L19.13,408.38L20.43,408.7L22.47,408.31L24.57,406.83L28.6,400.13L32.21,400.5L33.97,402.93L35.73,399.42L37.01,400.48L38.81,397.12L40.92,399.71L43.65,401.55L44.95,399.43L47,398.41L51.82,402.46L53.13,402.02L55.16,405.02L57.28,406.73L60,404.65L61.31,402.68L63.35,404.17L65.44,404.42L68.16,401.68L69.47,402.59L71.5,402.15L73.61,396.84L76.33,391.06L77.63,393.11L79.68,390.67L81.78,386.19L84.51,378.09L85.82,377.1L87.86,366.22L89.96,361.18L98.13,321.94L100.85,298.97L102.16,288.67L104.21,265.12L117.2,128.64L118.51,106.86L120.53,90.72L122.64,80.45L126.67,34.95L128.71,22.93L133.54,40.76L134.84,25.88L139,110.84L141.71,120.04L143.01,110.36L145.07,112.51L147.16,126.42L149.9,123.02L151.2,109.61L153.24,110.2L155.33,125.79L158.07,126.89L159.35,114.86L161.41,115.14L163.51,126.93L166.25,131.62L167.53,122.88L169.58,123.7L171.68,130.54L174.4,136.54L175.7,125.92L177.74,127.02L179.87,137.74L182.58,139.57" style="vector-effect: none; fill: none; stroke: rgb(128, 0, 128); stroke-opacity: 1; stroke-width: 1.5px; opacity: 1;"/></g><g class="points"/><g class="text"/></g><g class="trace scatter trace1a5c2d" style="stroke-miterlimit: 2; opacity: 1;"><g class="fills"/><g class="errorbars"/><g class="lines"><path class="js-line" d="M0,408.85L16.41,408.38L19.13,408.47L20.43,408.88L22.47,408.35L24.57,408.15L27.31,409.27L32.21,409.71L33.97,408.45L35.73,409.99L37.01,408.73L38.81,408.35L40.92,409.67L43.65,409.8L44.95,408.56L47,408.23L49.1,408.67L53.13,409.35L55.16,410.46L60,409.52L61.31,408.95L63.35,408.73L65.44,407.53L68.16,402.95L69.47,403.91L71.5,403.82L73.61,402.02L76.33,398.26L77.63,398.2L79.68,396.29L81.78,392.91L85.82,385.7L87.86,379.47L89.96,373.65L92.68,363.32L93.99,360.77L96.02,347.58L98.13,338.35L100.85,305.11L110.33,216.57L112.36,198.8L114.49,180.52L117.2,145.58L118.51,127.09L120.53,110.07L122.64,101.07L125.37,76.02L126.67,54.91L128.71,46.01L130.81,50.95L133.54,78.31L134.84,59.84L136.9,99.46L139,124.18L141.71,130.53L143.01,120.23L145.07,122.29L147.16,135.15L149.9,132.19L151.2,123.26L153.24,123.67L155.33,136.93L158.07,138.25L159.35,128.99L161.41,128.35L163.51,138.69L166.25,146.94L167.53,138.72L169.58,141.34L174.4,152.42L175.7,145.97L177.74,146.37L179.87,155.24L182.58,157.25" style="vector-effect: none; fill: none; stroke: rgb(128, 0, 128); stroke-opacity: 1; stroke-width: 1.5px; opacity: 1;"/></g><g class="points"/><g class="text"/></g><g class="trace scatter trace275470" style="stroke-miterlimit: 2; opacity: 1;"><g class="fills"/><g class="errorbars"/><g class="lines"><path class="js-line" d="M0,407.8L16.41,407.42L19.13,407.5L22.47,407.56L24.57,407.22L28.6,408.2L32.21,408.57L33.97,407.22L35.73,408.67L37.01,407.55L38.81,407.21L40.92,408.48L43.65,408.61L44.95,407.63L47,407.53L53.13,408.64L55.16,409.93L57.28,409.89L60,408.99L63.35,408.82L65.44,407.58L68.16,404.01L69.47,404.74L71.5,404.39L73.61,402.5L76.33,398.48L77.63,398.51L79.68,397.21L81.78,393.83L85.82,385.83L87.86,379.12L89.96,374.74L92.68,364.94L93.99,362.05L96.02,348.77L104.21,268.99L106.3,241.96L110.33,198.62L112.36,184.19L114.49,176.35L117.2,200.38L118.51,210.59L120.53,217.65L122.64,221.16L125.37,221.78L126.67,217.87L128.71,221.47L133.54,237.37L134.84,238.11L136.9,244.56L139,247.91L147.16,261.73L149.9,267.42L151.2,266.29L153.24,266.48L155.33,270.62L158.07,270.05L159.35,268.08L161.41,267.26L163.51,273.04L166.25,272.42L167.53,268.72L169.58,269.94L171.68,269.5L174.4,273.12L175.7,269.31L177.74,272.77L179.87,275.51L182.58,273.91" style="vector-effect: none; fill: none; stroke: rgb(128, 0, 128); stroke-opacity: 1; stroke-width: 1.5px; opacity: 1;"/></g><g class="points"/><g class="text"/></g><g class="trace scatter trace498609" style="stroke-miterlimit: 2; opacity: 1;"><g class="fills"/><g class="errorbars"/><g class="lines"><path class="js-line" d="M0,409.29L6.14,408.72L8.24,408.7L19.13,408.64L20.43,408.88L24.57,408.28L27.31,409.4L32.21,409.45L33.97,408.5L35.73,409.86L37.01,408.69L38.81,408.26L40.92,409.45L43.65,409.84L44.95,408.42L49.1,408.94L51.82,409.13L55.16,410.72L57.28,410.85L65.44,409.02L68.16,405.15L69.47,406.19L71.5,406.05L73.61,404.78L76.33,401.29L77.63,401.93L79.68,400.37L81.78,397.16L84.51,391.56L85.82,390L87.86,383.94L89.96,381.24L92.68,370.69L93.99,365.82L96.02,352.8L98.13,347.26L100.85,313.8L104.21,275.08L106.3,250.43L110.33,199.63L112.36,185.33L114.49,180.39L117.2,206.65L122.64,229.67L125.37,232.22L126.67,234.67L128.71,243.41L133.54,251.32L134.84,251.36L139,259.93L141.71,263.3L143.01,264.8L145.07,264.32L147.16,267.74L149.9,270.71L151.2,267.22L153.24,265.7L155.33,270.67L158.07,271.02L159.35,267.82L161.41,267L163.51,273.43L166.25,272.95L167.53,268.33L169.58,269.98L171.68,269.98L174.4,273.48L175.7,270.01L177.74,272.99L179.87,276.87L182.58,274.79" style="vector-effect: none; fill: none; stroke: rgb(128, 0, 128); stroke-opacity: 1; stroke-width: 1.5px; opacity: 1;"/></g><g class="points"/><g class="text"/></g><g class="trace scatter trace612d1c" style="stroke-miterlimit: 2; opacity: 1;"><g class="fills"/><g class="errorbars"/><g class="lines"><path class="js-line" d="M0,407.53L10.96,407.15L12.27,407.09L24.57,406.57L27.31,407.65L32.21,407.96L33.97,406.57L35.73,408.23L37.01,406.76L38.81,406.33L40.92,407.61L43.65,407.56L44.95,406.45L49.1,406.7L51.82,406.98L53.13,407.2L55.16,408.7L57.28,409.14L60,408.38L65.44,407.71L68.16,403.96L69.47,404.96L71.5,405.05L73.61,403.55L76.33,400.28L77.63,400.92L79.68,399.71L81.78,396.77L84.51,391.39L85.82,389.69L87.86,383.72L89.96,381.54L92.68,371.22L93.99,366.92L96.02,355.44L98.13,348.93L100.85,319.33L109.02,220.27L110.33,206.48L112.36,192.26L114.49,183.41L117.2,198.18L118.51,212.56L120.53,223.14L122.64,229.89L125.37,233.84L126.67,233.53L130.81,249.31L133.54,258.38L134.84,258.82L136.9,261.19L139,265.11L141.71,265.31L145.07,263.31L147.16,267.04L149.9,269.57L151.2,265.99L153.24,264.47L155.33,269.79L158.07,270.1L159.35,266.85L161.41,265.99L163.51,272.73L166.25,272.47L167.53,267.49L169.58,269.76L171.68,269.37L174.4,273.17L175.7,269.7L179.87,276.52L182.58,274.75" style="vector-effect: none; fill: none; stroke: rgb(128, 0, 128); stroke-opacity: 1; stroke-width: 1.5px; opacity: 1;"/></g><g class="points"/><g class="text"/></g><g class="trace scatter trace9934b5" style="stroke-miterlimit: 2; opacity: 1;"><g class="fills"/><g class="errorbars"/><g class="lines"><path class="js-line" d="M0,410.16L10.96,409.92L12.27,409.86L24.57,409.59L27.31,410.76L32.21,410.98L33.97,409.46L35.73,411.17L37.01,409.96L38.81,409.62L40.92,410.98L43.65,411.07L44.95,409.83L51.82,410.22L53.13,411.01L55.16,412.21L57.28,412.3L61.31,411.58L63.35,411.71L65.44,411.22L68.16,407.91L69.47,409.08L71.5,408.95L73.61,407.42L76.33,403.61L77.63,404.08L79.68,403.52L81.78,401.37L84.51,396.65L85.82,395.26L87.86,389.38L89.96,386.81L92.68,378.81L96.02,366.71L98.13,355.03L100.85,347.76L102.16,353.26L104.21,352.57L106.3,344.8L110.33,347.36L112.36,346.97L114.49,346.06L117.2,349.03L122.64,347.57L125.37,348.97L126.67,347.09L128.71,348.49L130.81,348.69L133.54,350.26L136.9,348.46L139,351.33L141.71,349.25L143.01,351.15L145.07,349.97L147.16,350.23L151.2,351.55L153.24,349.19L155.33,350.92L158.07,350.13L159.35,350.83L161.41,349.18L163.51,353.29L166.25,351.75L167.53,350.99L169.58,350.8L171.68,348.83L174.4,351.71L175.7,350.61L177.74,353.55L179.87,353.87L182.58,352.32" style="vector-effect: none; fill: none; stroke: rgb(128, 0, 128); stroke-opacity: 1; stroke-width: 1.5px; opacity: 1;"/></g><g class="points"/><g class="text"/></g><g class="trace scatter trace972eed" style="stroke-miterlimit: 2; opacity: 1;"><g class="fills"/><g class="errorbars"/><g class="lines"><path class="js-line" d="M0,409.51L19.13,408.78L20.43,409.32L24.57,408.54L27.31,409.84L28.6,409.61L32.21,410.19L33.97,408.89L35.73,410.43L37.01,409.39L38.81,408.97L40.92,410.37L43.65,410.28L44.95,409.17L47,408.94L53.13,410.14L55.16,411.47L57.28,411.64L60,410.88L65.44,410.38L68.16,406.9L69.47,407.77L71.5,407.72L73.61,406.1L76.33,402.47L77.63,402.81L79.68,402.3L81.78,400.1L84.51,395.16L85.82,393.73L87.86,387.28L89.96,385.32L92.68,376.09L93.99,372.23L96.02,361.93L98.13,353.45L100.85,347.36L102.16,352.51L104.21,350.99L106.3,344.01L109.02,345.58L110.33,346.75L112.36,346.31L114.49,345.27L117.2,348.37L118.51,346.21L120.53,346.12L122.64,345.24L125.37,346.47L126.67,344.5L128.71,346.65L133.54,348.94L134.84,348.15L136.9,347.76L139,350.45L141.71,348.59L143.01,350.19L145.07,349.05L147.16,349L149.9,350.35L151.2,349.79L153.24,348.27L155.33,350.43L161.41,348.12L163.51,352.01L167.53,350.2L169.58,350.54L171.68,348.04L174.4,350.87L175.7,349.56L177.74,352.8L179.87,353.3L182.58,351.93" style="vector-effect: none; fill: none; stroke: rgb(128, 0, 128); stroke-opacity: 1; stroke-width: 1.5px; opacity: 1;"/></g><g class="points"/><g class="text"/></g><g class="trace scatter trace87db58" style="stroke-miterlimit: 2; opacity: 1;"><g class="fills"/><g class="errorbars"/><g class="lines"><path class="js-line" d="M0,409.2L24.57,408.19L27.31,409.27L32.21,409.32L33.97,407.93L35.73,409.46L37.01,408.38L38.81,407.87L40.92,409.14L43.65,409.36L44.95,408.03L49.1,408.06L51.82,408.2L55.16,409.97L57.28,410.02L61.31,408.95L63.35,409.13L65.44,408.76L68.16,405.41L69.47,406.63L71.5,407.11L73.61,406.27L76.33,403.22L77.63,403.73L79.68,403.35L81.78,401.24L84.51,396.83L85.82,395.09L87.86,388.9L89.96,386.81L92.68,378.68L96.02,366.1L98.13,354.9L100.85,347.85L102.16,352.99L104.21,352.26L106.3,345.46L110.33,346.88L112.36,346.71L114.49,346.24L117.2,348.37L118.51,346.08L120.53,346.43L122.64,345.29L125.37,346.52L126.67,344.58L128.71,347.44L133.54,350.04L134.84,349.29L136.9,348.72L139,350.71L141.71,349.03L143.01,351.15L145.07,349.62L147.16,349.57L149.9,351.31L151.2,350.93L153.24,348.75L155.33,351.18L161.41,348.87L163.51,352.67L167.53,350.38L169.58,350.71L171.68,348.34L174.4,351.4L175.7,350.17L177.74,353.07L179.87,353.26L182.58,352.28" style="vector-effect: none; fill: none; stroke: rgb(128, 0, 128); stroke-opacity: 1; stroke-width: 1.5px; opacity: 1;"/></g><g class="points"/><g class="text"/></g><g class="trace scatter trace76bd2f" style="stroke-miterlimit: 2; opacity: 1;"><g class="fills"/><g class="errorbars"/><g class="lines"><path class="js-line" d="M0,408.22L4.1,408.26L6.14,407.36L8.24,407.99L10.96,408L28.6,407.85L32.21,407.69L55.16,407.53L57.28,407.34L68.16,406.08L69.47,405.66L73.61,403.55L76.33,400.89L81.78,395.23L84.51,393.74L87.86,392.09L89.96,391.31L98.13,389.97L100.85,390.23L104.21,390.63L106.3,389.91L109.02,389.98L110.33,390.8L117.2,389.56L118.51,389.98L122.64,389.69L125.37,389.91L126.67,389.19L128.71,389.41L158.07,388.84L159.35,388.67L166.25,389.02L167.53,388.78L174.4,388.91L175.7,388.61L182.58,388.01" style="vector-effect: none; fill: none; stroke: rgb(128, 0, 128); stroke-opacity: 1; stroke-width: 1.5px; opacity: 1;"/></g><g class="points"/><g class="text"/></g><g class="trace scatter trace241531" style="stroke-miterlimit: 2; opacity: 1;"><g class="fills"/><g class="errorbars"/><g class="lines"><path class="js-line" d="M0,408.4L12.27,408.4L14.3,408.29L24.57,408.09L27.31,408.28L38.81,408.31L40.92,408.12L65.44,406.95L68.16,406.3L73.61,403.38L76.33,400.76L81.78,395.06L84.51,393.3L89.96,391.36L92.68,390.95L102.16,390.52L104.21,390.76L106.3,390.13L109.02,390.33L110.33,390.8L112.36,390.39L114.49,390.52L117.2,389.73L122.64,389.82L125.37,389.73L128.71,389.32L130.81,389.46L141.71,388.87L143.01,389.21L153.24,388.99L155.33,389.09L163.51,388.77L166.25,388.88L182.58,387.66" style="vector-effect: none; fill: none; stroke: rgb(128, 0, 128); stroke-opacity: 1; stroke-width: 1.5px; opacity: 1;"/></g><g class="points"/><g class="text"/></g><g class="trace scatter tracef2e7a3" style="stroke-miterlimit: 2; opacity: 1;"><g class="fills"/><g class="errorbars"/><g class="lines"><path class="js-line" d="M0,408.18L10.96,407.52L12.27,407.65L27.31,407.44L28.6,407.24L40.92,407.11L43.65,407.02L55.16,406L57.28,406.25L61.31,405.05L63.35,405.12L71.5,403.06L73.61,401.71L79.68,397.65L81.78,395.76L89.96,392.41L92.68,391.87L100.85,391.15L102.16,391.66L104.21,391.94L106.3,390.96L110.33,391.77L112.36,391.05L114.49,391.31L117.2,390.79L122.64,390.57L125.37,390.61L128.71,390.2L130.81,390.03L163.51,389.6L166.25,389.72L182.58,388.53" style="vector-effect: none; fill: none; stroke: rgb(128, 0, 128); stroke-opacity: 1; stroke-width: 1.5px; opacity: 1;"/></g><g class="points"/><g class="text"/></g><g class="trace scatter trace5472c1" style="stroke-miterlimit: 2; opacity: 1;"><g class="fills"/><g class="errorbars"/><g class="lines"><path class="js-line" d="M0,408.61L20.43,408.25L22.47,408.15L57.28,407.65L60,407.36L65.44,406.64L68.16,405.86L76.33,402.95L77.63,402.82L85.82,401.95L87.86,402.27L100.85,401.99L102.16,402.19L104.21,402.69L106.3,402.11L112.36,402.63L114.49,402.59L122.64,402.02L125.37,402.02L126.67,401.21L128.71,401.48L182.58,400.64" style="vector-effect: none; fill: none; stroke: rgb(128, 0, 128); stroke-opacity: 1; stroke-width: 1.5px; opacity: 1;"/></g><g class="points"/><g class="text"/></g><g class="trace scatter trace03e682" style="stroke-miterlimit: 2; opacity: 1;"><g class="fills"/><g class="errorbars"/><g class="lines"><path class="js-line" d="M0,403.83L2.79,403.32L4.1,404.05L6.14,405.16L8.24,404.91L16.41,404.65L19.13,404.5L33.97,403.76L35.73,403.77L53.13,403.22L55.16,401.3L57.28,402.69L60,401.92L61.31,402.02L63.35,401.35L68.16,400.95L69.47,400.18L76.33,398.3L77.63,398.13L92.68,397L93.99,397.38L100.85,397.25L102.16,397.54L104.21,397.95L106.3,397.46L114.49,397.89L117.2,397.1L118.51,397.4L120.53,396.78L125.37,397.28L126.67,396.74L139,396.3L141.71,395.76L143.01,396.4L145.07,396.48L171.68,395.99L174.4,396.33L175.7,395.45L177.74,396.02L182.58,395.64" style="vector-effect: none; fill: none; stroke: rgb(128, 0, 128); stroke-opacity: 1; stroke-width: 1.5px; opacity: 1;"/></g><g class="points"/><g class="text"/></g><g class="trace scatter trace2ab2ad" style="stroke-miterlimit: 2; opacity: 1;"><g class="fills"/><g class="errorbars"/><g class="lines"><path class="js-line" d="M0,408L49.1,407.31L51.82,406.49L53.13,406.95L55.16,406.74L68.16,404.29L69.47,403.95L73.61,402.81L76.33,402.78L79.68,402.52L81.78,402.38L102.16,402.54L104.21,403.04L106.3,402.41L109.02,402.84L110.33,403.26L112.36,402.94L114.49,403.12L117.2,402.54L130.81,401.61L133.54,401.55L147.16,401.67L149.9,401.51L153.24,401.49L155.33,401.51L171.68,401.04L174.4,401.37L182.58,401.13" style="vector-effect: none; fill: none; stroke: rgb(128, 0, 128); stroke-opacity: 1; stroke-width: 1.5px; opacity: 1;"/></g><g class="points"/><g class="text"/></g><g class="trace scatter traceb5f68e" style="stroke-miterlimit: 2; opacity: 1;"><g class="fills"/><g class="errorbars"/><g class="lines"><path class="js-line" d="M0,408.4L20.43,408.29L22.47,407.53L27.31,408.32L28.6,408.34L73.61,407.37L76.33,407.39L87.86,407.09L89.96,406.93L102.16,406.98L104.21,407.56L106.3,407.02L109.02,407.36L114.49,407.59L117.2,407.28L139,406.92L141.71,406.95L182.58,406.65" style="vector-effect: none; fill: none; stroke: rgb(128, 0, 128); stroke-opacity: 1; stroke-width: 1.5px; opacity: 1;"/></g><g class="points"/><g class="text"/></g><g class="trace scatter tracee8517e" style="stroke-miterlimit: 2; opacity: 1;"><g class="fills"/><g class="errorbars"/><g class="lines"><path class="js-line" d="M0,409.01L6.14,408.67L8.24,408.78L16.41,408.47L19.13,408.67L22.47,408.63L24.57,408.53L40.92,408.29L43.65,407.81L49.1,408.1L51.82,408.07L55.16,407.8L57.28,407.82L65.44,407.43L68.16,407.71L81.78,407.52L84.51,407.56L89.96,407.46L92.68,407.31L102.16,407.46L104.21,408L106.3,407.5L109.02,407.75L110.33,408.22L112.36,407.99L117.2,407.72L118.51,407.71L141.71,406.55L143.01,407.15L153.24,406.84L155.33,407.12L182.58,407.14" style="vector-effect: none; fill: none; stroke: rgb(128, 0, 128); stroke-opacity: 1; stroke-width: 1.5px; opacity: 1;"/></g><g class="points"/><g class="text"/></g><g class="trace scatter trace135a9a" style="stroke-miterlimit: 2; opacity: 1;"><g class="fills"/><g class="errorbars"/><g class="lines"><path class="js-line" d="M0,407.96L20.43,407.5L22.47,407.44L32.21,407.21L33.97,407.05L47,406.64L49.1,406.35L57.28,405.46L60,405.47L77.63,405.59L79.68,405.67L102.16,405.84L104.21,406.38L106.3,405.79L109.02,406.3L114.49,406.45L117.2,406.23L182.58,405.69" style="vector-effect: none; fill: none; stroke: rgb(128, 0, 128); stroke-opacity: 1; stroke-width: 1.5px; opacity: 1;"/></g><g class="points"/><g class="text"/></g></g></g></g><path class="xlines-above crisp" d="M262.2111111111111,464.25H445.7888888888889M262.2111111111111,29.75H445.7888888888889" style="fill: none; stroke-width: 0.5px; stroke: rgb(0, 0, 0); stroke-opacity: 1;"/><path class="ylines-above crisp" d="M262.4611111111111,30V464M445.5388888888889,30V464" style="fill: none; stroke-width: 0.5px; stroke: rgb(0, 0, 0); stroke-opacity: 1;"/><g class="overlines-above"/><g class="xaxislayer-above"><path class="x2tick ticks crisp" d="M0,464v-5" transform="translate(303.5711111111111,0)" style="stroke: rgb(0, 0, 0); stroke-opacity: 1; stroke-width: 0.5px;"/><path class="x2tick ticks crisp" d="M0,464v-5" transform="translate(344.43111111111114,0)" style="stroke: rgb(0, 0, 0); stroke-opacity: 1; stroke-width: 0.5px;"/><path class="x2tick ticks crisp" d="M0,464v-5" transform="translate(385.2911111111111,0)" style="stroke: rgb(0, 0, 0); stroke-opacity: 1; stroke-width: 0.5px;"/><path class="x2tick ticks crisp" d="M0,464v-5" transform="translate(426.1511111111111,0)" style="stroke: rgb(0, 0, 0); stroke-opacity: 1; stroke-width: 0.5px;"/><g class="x2tick"><text text-anchor="middle" x="0" y="477.7" transform="translate(262.7111111111111,0)" style="font-family: 'Open Sans', verdana, arial, sans-serif; font-size: 11px; fill: rgb(0, 0, 0); fill-opacity: 1; white-space: pre; opacity: 1;">0</text></g><g class="x2tick"><text text-anchor="middle" x="0" y="477.7" style="font-family: 'Open Sans', verdana, arial, sans-serif; font-size: 11px; fill: rgb(0, 0, 0); fill-opacity: 1; white-space: pre; opacity: 1;" transform="translate(303.5711111111111,0)">5</text></g><g class="x2tick"><text text-anchor="middle" x="0" y="477.7" style="font-family: 'Open Sans', verdana, arial, sans-serif; font-size: 11px; fill: rgb(0, 0, 0); fill-opacity: 1; white-space: pre; opacity: 1;" transform="translate(344.43111111111114,0)">10</text></g><g class="x2tick"><text text-anchor="middle" x="0" y="477.7" style="font-family: 'Open Sans', verdana, arial, sans-serif; font-size: 11px; fill: rgb(0, 0, 0); fill-opacity: 1; white-space: pre; opacity: 1;" transform="translate(385.2911111111111,0)">15</text></g><g class="x2tick"><text text-anchor="middle" x="0" y="477.7" style="font-family: 'Open Sans', verdana, arial, sans-serif; font-size: 11px; fill: rgb(0, 0, 0); fill-opacity: 1; white-space: pre; opacity: 1;" transform="translate(426.1511111111111,0)">20</text></g></g><g class="yaxislayer-above"><path class="y2tick ticks crisp" d="M262.7111111111111,0h5" transform="translate(0,440.19)" style="stroke: rgb(0, 0, 0); stroke-opacity: 1; stroke-width: 0.5px;"/><path class="y2tick ticks crisp" d="M262.7111111111111,0h5" transform="translate(0,396.32)" style="stroke: rgb(0, 0, 0); stroke-opacity: 1; stroke-width: 0.5px;"/><path class="y2tick ticks crisp" d="M262.7111111111111,0h5" transform="translate(0,352.44)" style="stroke: rgb(0, 0, 0); stroke-opacity: 1; stroke-width: 0.5px;"/><path class="y2tick ticks crisp" d="M262.7111111111111,0h5" transform="translate(0,308.57)" style="stroke: rgb(0, 0, 0); stroke-opacity: 1; stroke-width: 0.5px;"/><path class="y2tick ticks crisp" d="M262.7111111111111,0h5" transform="translate(0,264.69)" style="stroke: rgb(0, 0, 0); stroke-opacity: 1; stroke-width: 0.5px;"/><path class="y2tick ticks crisp" d="M262.7111111111111,0h5" transform="translate(0,220.81)" style="stroke: rgb(0, 0, 0); stroke-opacity: 1; stroke-width: 0.5px;"/><path class="y2tick ticks crisp" d="M262.7111111111111,0h5" transform="translate(0,176.94)" style="stroke: rgb(0, 0, 0); stroke-opacity: 1; stroke-width: 0.5px;"/><path class="y2tick ticks crisp" d="M262.7111111111111,0h5" transform="translate(0,133.06)" style="stroke: rgb(0, 0, 0); stroke-opacity: 1; stroke-width: 0.5px;"/><path class="y2tick ticks crisp" d="M262.7111111111111,0h5" transform="translate(0,89.18)" style="stroke: rgb(0, 0, 0); stroke-opacity: 1; stroke-width: 0.5px;"/><path class="y2tick ticks crisp" d="M262.7111111111111,0h5" transform="translate(0,45.31)" style="stroke: rgb(0, 0, 0); stroke-opacity: 1; stroke-width: 0.5px;"/><g class="y2tick"><text text-anchor="end" x="260.0111111111111" y="3.8499999999999996" transform="translate(0,440.19)" style="font-family: 'Open Sans', verdana, arial, sans-serif; font-size: 11px; fill: rgb(0, 0, 0); fill-opacity: 1; white-space: pre; opacity: 1;">0</text></g><g class="y2tick"><text text-anchor="end" x="260.0111111111111" y="3.8499999999999996" style="font-family: 'Open Sans', verdana, arial, sans-serif; font-size: 11px; fill: rgb(0, 0, 0); fill-opacity: 1; white-space: pre; opacity: 1;" transform="translate(0,396.32)">0.1</text></g><g class="y2tick"><text text-anchor="end" x="260.0111111111111" y="3.8499999999999996" style="font-family: 'Open Sans', verdana, arial, sans-serif; font-size: 11px; fill: rgb(0, 0, 0); fill-opacity: 1; white-space: pre; opacity: 1;" transform="translate(0,352.44)">0.2</text></g><g class="y2tick"><text text-anchor="end" x="260.0111111111111" y="3.8499999999999996" style="font-family: 'Open Sans', verdana, arial, sans-serif; font-size: 11px; fill: rgb(0, 0, 0); fill-opacity: 1; white-space: pre; opacity: 1;" transform="translate(0,308.57)">0.3</text></g><g class="y2tick"><text text-anchor="end" x="260.0111111111111" y="3.8499999999999996" style="font-family: 'Open Sans', verdana, arial, sans-serif; font-size: 11px; fill: rgb(0, 0, 0); fill-opacity: 1; white-space: pre; opacity: 1;" transform="translate(0,264.69)">0.4</text></g><g class="y2tick"><text text-anchor="end" x="260.0111111111111" y="3.8499999999999996" style="font-family: 'Open Sans', verdana, arial, sans-serif; font-size: 11px; fill: rgb(0, 0, 0); fill-opacity: 1; white-space: pre; opacity: 1;" transform="translate(0,220.81)">0.5</text></g><g class="y2tick"><text text-anchor="end" x="260.0111111111111" y="3.8499999999999996" style="font-family: 'Open Sans', verdana, arial, sans-serif; font-size: 11px; fill: rgb(0, 0, 0); fill-opacity: 1; white-space: pre; opacity: 1;" transform="translate(0,176.94)">0.6</text></g><g class="y2tick"><text text-anchor="end" x="260.0111111111111" y="3.8499999999999996" style="font-family: 'Open Sans', verdana, arial, sans-serif; font-size: 11px; fill: rgb(0, 0, 0); fill-opacity: 1; white-space: pre; opacity: 1;" transform="translate(0,133.06)">0.7</text></g><g class="y2tick"><text text-anchor="end" x="260.0111111111111" y="3.8499999999999996" style="font-family: 'Open Sans', verdana, arial, sans-serif; font-size: 11px; fill: rgb(0, 0, 0); fill-opacity: 1; white-space: pre; opacity: 1;" transform="translate(0,89.18)">0.8</text></g><g class="y2tick"><text text-anchor="end" x="260.0111111111111" y="3.8499999999999996" style="font-family: 'Open Sans', verdana, arial, sans-serif; font-size: 11px; fill: rgb(0, 0, 0); fill-opacity: 1; white-space: pre; opacity: 1;" transform="translate(0,45.31)">0.9</text></g></g><g class="overaxes-above"/></g><g class="subplot x3y3"><g class="layer-subplot"><g class="shapelayer"/><g class="imagelayer"/></g><g class="minor-gridlayer"><g class="x3"/><g class="y3"/></g><g class="gridlayer"><g class="x3"><path class="x3grid crisp" transform="translate(528.2822222222222,0)" d="M0,30v434" style="stroke: rgb(128, 128, 128); stroke-opacity: 1; stroke-width: 0.2px;"/><path class="x3grid crisp" transform="translate(569.1422222222222,0)" d="M0,30v434" style="stroke: rgb(128, 128, 128); stroke-opacity: 1; stroke-width: 0.2px;"/><path class="x3grid crisp" transform="translate(610.0022222222223,0)" d="M0,30v434" style="stroke: rgb(128, 128, 128); stroke-opacity: 1; stroke-width: 0.2px;"/><path class="x3grid crisp" transform="translate(650.8622222222223,0)" d="M0,30v434" style="stroke: rgb(128, 128, 128); stroke-opacity: 1; stroke-width: 0.2px;"/></g><g class="y3"><path class="y3grid crisp" transform="translate(0,443.43)" d="M487.4222222222222,0h182.57777777777775" style="stroke: rgb(128, 128, 128); stroke-opacity: 1; stroke-width: 0.2px;"/><path class="y3grid crisp" transform="translate(0,371.37)" d="M487.4222222222222,0h182.57777777777775" style="stroke: rgb(128, 128, 128); stroke-opacity: 1; stroke-width: 0.2px;"/><path class="y3grid crisp" transform="translate(0,299.3)" d="M487.4222222222222,0h182.57777777777775" style="stroke: rgb(128, 128, 128); stroke-opacity: 1; stroke-width: 0.2px;"/><path class="y3grid crisp" transform="translate(0,227.24)" d="M487.4222222222222,0h182.57777777777775" style="stroke: rgb(128, 128, 128); stroke-opacity: 1; stroke-width: 0.2px;"/><path class="y3grid crisp" transform="translate(0,155.18)" d="M487.4222222222222,0h182.57777777777775" style="stroke: rgb(128, 128, 128); stroke-opacity: 1; stroke-width: 0.2px;"/><path class="y3grid crisp" transform="translate(0,83.12)" d="M487.4222222222222,0h182.57777777777775" style="stroke: rgb(128, 128, 128); stroke-opacity: 1; stroke-width: 0.2px;"/></g></g><g class="zerolinelayer"/><g class="layer-between"><g class="shapelayer"/><g class="imagelayer"/></g><path class="xlines-below"/><path class="ylines-below"/><g class="overlines-below"/><g class="xaxislayer-below"/><g class="yaxislayer-below"/><g class="overaxes-below"/><g class="overplot"><g class="x3y3" transform="translate(487.4222222222222,30)" clip-path="url(#clipd66902x3y3plot)"><g class="scatterlayer mlayer"><g class="trace scatter tracefae5c1" style="stroke-miterlimit: 2; opacity: 1;"><g class="fills"/><g class="errorbars"/><g class="lines"><path class="js-line" d="M0,408.84L24.57,408.05L27.31,409.61L28.6,408.87L32.21,409.03L33.97,406.82L35.73,408.99L37.01,406.7L38.81,405.79L40.92,407.38L43.65,406.58L44.95,404.25L47,402.64L49.1,398.03L51.82,395.32L53.13,399.06L55.16,399.38L57.28,396.49L60,390.78L65.44,376.63L68.16,362.99L71.5,355.9L73.61,348.91L81.78,310.09L84.51,292.75L85.82,286.07L87.86,268.99L89.96,259.22L92.68,237.21L93.99,232.6L96.02,217.13L98.13,186.55L100.85,172.17L102.16,175.07L104.21,160.97L106.3,130.71L109.02,114.76L110.33,106.66L112.36,99.17L114.49,65.39L117.2,58.67L120.53,51.65L122.64,43.87L125.37,37.75L126.67,32.49L128.71,34.65L130.81,31.16L133.54,34.24L134.84,32.51L136.9,30.92L139,33.76L141.71,33.23L143.01,30.95L145.07,31.16L147.16,34.84L151.2,31.24L153.24,27.51L155.33,31.79L158.07,31L159.35,26.6L161.41,23.17L163.51,31.79L166.25,28.91L167.53,23.05L169.58,24.17L171.68,21.72L174.4,26.1L175.7,21.7L177.74,25.09L179.87,26.41L182.58,25.95" style="vector-effect: none; fill: none; stroke: rgb(128, 0, 128); stroke-opacity: 1; stroke-width: 1.5px; opacity: 1;"/></g><g class="points"/><g class="text"/></g><g class="trace scatter trace1b602e" style="stroke-miterlimit: 2; opacity: 1;"><g class="fills"/><g class="errorbars"/><g class="lines"><path class="js-line" d="M0,410.86L6.14,409.92L8.24,410.19L19.13,409.51L20.43,410.04L24.57,409.27L27.31,410.83L28.6,410.23L32.21,410.47L33.97,407.9L35.73,410.28L37.01,408.07L38.81,406.8L40.92,408.24L43.65,407.38L44.95,405.19L47,403.72L49.1,402.93L51.82,400.43L55.16,399.52L57.28,396.64L63.35,382.63L65.44,375.69L69.47,359.14L71.5,354.1L73.61,346.89L76.33,334.52L79.68,321.05L81.78,306.71L85.82,284.2L87.86,266.61L89.96,251.07L92.68,222.22L93.99,220.28L96.02,202.14L98.13,175.82L100.85,158.26L102.16,156.12L104.21,144.9L106.3,117.09L109.02,103.15L110.33,97.58L112.36,95.49L114.49,61.93L117.2,58.96L118.51,58.21L120.53,55.18L122.64,48.92L125.37,45.96L126.67,40.99L128.71,43.87L130.81,41.32L133.54,46.56L134.84,45.19L136.9,44.11L139,48.03L141.71,46.13L145.07,45L147.16,48.82L149.9,49.52L151.2,45.22L153.24,42.43L155.33,48L158.07,49.08L159.35,43.17L161.41,40.68L163.51,50.81L166.25,49.16L167.53,45.24L171.68,43.92L174.4,48.94L175.7,40.29L177.74,45.12L179.87,49.9L182.58,50.45" style="vector-effect: none; fill: none; stroke: rgb(128, 0, 128); stroke-opacity: 1; stroke-width: 1.5px; opacity: 1;"/></g><g class="points"/><g class="text"/></g><g class="trace scatter tracef0abdf" style="stroke-miterlimit: 2; opacity: 1;"><g class="fills"/><g class="errorbars"/><g class="lines"><path class="js-line" d="M0,409.42L16.41,408.5L19.13,407.86L20.43,408.89L22.47,408.24L24.57,407.98L27.31,409.75L28.6,409.01L32.21,409.32L33.97,407.04L35.73,408.91L37.01,406.99L38.81,405.72L40.92,407.59L43.65,406.08L44.95,404.04L47,402.72L49.1,402L51.82,399.71L53.13,398.99L55.16,399.09L57.28,395.92L60,390.13L65.44,375.26L68.16,361.76L71.5,354.75L73.61,347.25L81.78,308.79L84.51,290.88L85.82,284.2L87.86,263.8L89.96,246.25L92.68,217.04L93.99,214.01L96.02,196.09L98.13,169.98L100.85,148.6L102.16,144.66L104.21,132.58L106.3,106.42L109.02,91.7L110.33,83.89L112.36,88.5L114.49,55.59L117.2,52.25L120.53,51.73L122.64,46.25L125.37,43.15L126.67,39.91L128.71,41.71L130.81,41.4L133.54,42.67L134.84,38.99L136.9,39.5L139,43.13L145.07,39.96L147.16,43.49L149.9,41.08L151.2,38.66L153.24,36.59L155.33,42.38L158.07,39.86L159.35,36.04L161.41,33.18L163.51,41.88L166.25,40.87L167.53,36.52L169.58,36.28L171.68,34.26L174.4,39.5L175.7,30.28L177.74,37.63L179.87,40.46L182.58,38.92" style="vector-effect: none; fill: none; stroke: rgb(128, 0, 128); stroke-opacity: 1; stroke-width: 1.5px; opacity: 1;"/></g><g class="points"/><g class="text"/></g><g class="trace scatter tracef3d572" style="stroke-miterlimit: 2; opacity: 1;"><g class="fills"/><g class="errorbars"/><g class="lines"><path class="js-line" d="M0,410.79L12.27,409.92L14.3,409.95L24.57,408.84L27.31,410.19L28.6,409.8L32.21,409.75L33.97,407.62L35.73,409.92L37.01,407.78L38.81,406.94L40.92,408.82L43.65,408.1L44.95,406.13L47,404.66L49.1,404.45L51.82,402.88L53.13,403.46L55.16,402.4L57.28,400.39L60,395.32L63.35,389.91L65.44,383.33L68.16,368.53L69.47,368.44L71.5,364.62L73.61,357.34L81.78,321.48L84.51,297L87.86,265.82L89.96,260.87L96.02,210.5L98.13,182.01L100.85,143.63L102.16,149.42L104.21,146.99L106.3,139.71L109.02,140.55L110.33,142.69L114.49,144.52L117.2,142.91L118.51,140.15L120.53,143.1L122.64,140.07L125.37,140.58L126.67,134.74L128.71,139.43L130.81,139.19L133.54,143.41L134.84,139.95L136.9,140.17L139,142.72L141.71,142.76L143.01,138.61L145.07,139.62L147.16,144.01L149.9,141.54L151.2,138.82L153.24,136.9L155.33,141.39L158.07,138.8L159.35,133.11L161.41,132.48L163.51,140.17L166.25,139.88L167.53,133.37L169.58,134.65L171.68,133.49L174.4,137.94L175.7,129.43L177.74,132.82L179.87,137.31L182.58,134.91" style="vector-effect: none; fill: none; stroke: rgb(128, 0, 128); stroke-opacity: 1; stroke-width: 1.5px; opacity: 1;"/></g><g class="points"/><g class="text"/></g><g class="trace scatter trace1fcead" style="stroke-miterlimit: 2; opacity: 1;"><g class="fills"/><g class="errorbars"/><g class="lines"><path class="js-line" d="M0,410.79L19.13,409.3L20.43,409.68L24.57,408.34L27.31,410.19L32.21,409.97L33.97,407.18L35.73,409.71L37.01,407.35L38.81,406.66L40.92,408.46L43.65,407.66L44.95,405.69L51.82,402.52L53.13,403.24L55.16,402.91L57.28,399.88L63.35,388.69L65.44,382.39L69.47,366.28L71.5,360.44L73.61,354.03L76.33,341.22L77.63,334.64L79.68,328.76L81.78,318.45L84.51,291.74L87.86,261.86L89.96,252.95L96.02,205.1L98.13,177.11L100.85,145.07L102.16,147.76L104.21,145.19L106.3,138.99L109.02,139.26L110.33,140.24L114.49,142.28L117.2,141.47L118.51,138.2L120.53,141.23L122.64,139.43L125.37,140.07L126.67,134.53L128.71,138.92L130.81,137.96L133.54,142.12L134.84,137.22L136.9,138.94L139,143.44L141.71,143.48L143.01,138.03L145.07,138.25L147.16,143.22L149.9,141.25L151.2,136.81L153.24,136.04L155.33,140.53L158.07,138.58L159.35,133.04L161.41,130.54L163.51,137.86L166.25,137.36L167.53,132.87L169.58,132.92L171.68,129.17L174.4,134.26L175.7,125.76L177.74,129.65L179.87,131.98L182.58,129.22" style="vector-effect: none; fill: none; stroke: rgb(128, 0, 128); stroke-opacity: 1; stroke-width: 1.5px; opacity: 1;"/></g><g class="points"/><g class="text"/></g><g class="trace scatter tracef3d048" style="stroke-miterlimit: 2; opacity: 1;"><g class="fills"/><g class="errorbars"/><g class="lines"><path class="js-line" d="M0,410.43L6.14,409.78L8.24,409.83L16.41,408.65L19.13,408.94L20.43,409.18L22.47,408.53L24.57,408.34L27.31,409.97L28.6,409.23L32.21,409.61L33.97,406.9L35.73,409.49L37.01,407.28L38.81,406.44L40.92,408.38L43.65,407.59L44.95,405.48L47,404.45L49.1,403.94L51.82,402.31L53.13,403.1L55.16,402.33L57.28,399.95L60,395.39L63.35,389.84L65.44,383.26L68.16,368.53L69.47,367L71.5,363.18L73.61,356.98L79.68,327.82L81.78,318.52L87.86,260.99L89.96,255.83L96.02,207.55L98.13,179.64L100.85,146.58L102.16,150.35L104.21,148.29L106.3,141.3L109.02,142.14L110.33,143.7L112.36,143.63L114.49,145.24L117.2,146.15L118.51,142.45L120.53,144.18L122.64,142.96L125.37,142.09L126.67,136.83L128.71,140.79L130.81,140.7L133.54,143.41L134.84,139.95L136.9,140.67L139,146.03L141.71,143.85L143.01,140.41L145.07,140.84L147.16,146.46L149.9,145.79L151.2,142.72L153.24,141.44L155.33,145.72L158.07,144.28L159.35,140.03L161.41,137.6L163.51,145.36L166.25,144.57L167.53,138.78L169.58,140.7L171.68,137.24L174.4,142.76L175.7,133.83L177.74,139.95L179.87,143.87L182.58,139.16" style="vector-effect: none; fill: none; stroke: rgb(128, 0, 128); stroke-opacity: 1; stroke-width: 1.5px; opacity: 1;"/></g><g class="points"/><g class="text"/></g><g class="trace scatter trace31933d" style="stroke-miterlimit: 2; opacity: 1;"><g class="fills"/><g class="errorbars"/><g class="lines"><path class="js-line" d="M0,412.3L24.57,409.85L27.31,411.48L28.6,411.03L32.21,410.91L33.97,408.34L35.73,410.43L37.01,408.5L38.81,407.3L40.92,408.82L43.65,407.95L44.95,405.69L47,404.66L49.1,403.94L51.82,401.95L53.13,402.81L55.16,403.05L60,394.96L61.31,396.97L63.35,394.74L65.44,389.24L68.16,377.04L69.47,375.86L71.5,371.18L73.61,363.83L77.63,342.71L79.68,337.76L81.78,328.97L84.51,301.9L87.86,288.31L89.96,285.16L93.99,274.69L96.02,273.12L100.85,270.31L102.16,271.42L104.21,271.59L106.3,267.55L112.36,273.7L114.49,275.17L117.2,273.27L118.51,270.94L120.53,273.1L122.64,272.38L125.37,269.35L126.67,264.6L128.71,268.92L130.81,270.27L133.54,273.77L134.84,271.18L136.9,271.25L139,273.65L141.71,273.2L143.01,270.27L145.07,271.13L147.16,273.44L153.24,269.06L155.33,273.12L158.07,268.8L159.35,264.98L161.41,262.48L163.51,270.82L166.25,269.81L167.53,265.82L169.58,266.81L171.68,262.92L174.4,267.43L175.7,261.09L179.87,271.56L182.58,268.01" style="vector-effect: none; fill: none; stroke: rgb(128, 0, 128); stroke-opacity: 1; stroke-width: 1.5px; opacity: 1;"/></g><g class="points"/><g class="text"/></g><g class="trace scatter trace8f90bc" style="stroke-miterlimit: 2; opacity: 1;"><g class="fills"/><g class="errorbars"/><g class="lines"><path class="js-line" d="M0,410.35L4.1,410.4L6.14,410.21L10.96,410.45L12.27,409.92L22.47,409.18L24.57,408.7L27.31,410.19L28.6,409.59L32.21,409.25L33.97,407.33L35.73,409.49L37.01,406.92L38.81,405.72L40.92,407.52L43.65,406.15L44.95,402.74L47,402.79L49.1,401.56L51.82,400.36L53.13,401.66L55.16,401.11L57.28,399.59L63.35,393.37L65.44,387.44L68.16,375.38L69.47,373.7L73.61,359.93L76.33,344.47L81.78,325.01L84.51,305.79L87.86,290.25L89.96,285.74L93.99,271.51L96.02,268.44L98.13,265.75L100.85,264.12L102.16,262.92L104.21,262.87L106.3,259.12L109.02,259.74L112.36,262.96L114.49,265.44L117.2,264.19L118.51,261.93L122.64,265.03L125.37,263.37L126.67,257.75L128.71,262.8L133.54,267.79L134.84,265.41L136.9,265.49L139,269.33L145.07,264.86L147.16,269.11L149.9,268.58L151.2,265.15L153.24,265.61L155.33,269.16L158.07,267.58L159.35,263.47L161.41,260.18L163.51,267L166.25,267.72L167.53,263.44L169.58,264.07L171.68,261.4L174.4,266.78L175.7,259.86L177.74,265.99L179.87,268.39L182.58,266.42" style="vector-effect: none; fill: none; stroke: rgb(128, 0, 128); stroke-opacity: 1; stroke-width: 1.5px; opacity: 1;"/></g><g class="points"/><g class="text"/></g><g class="trace scatter trace6574e0" style="stroke-miterlimit: 2; opacity: 1;"><g class="fills"/><g class="errorbars"/><g class="lines"><path class="js-line" d="M0,411.07L19.13,409.44L20.43,410.11L24.57,408.91L27.31,410.55L32.21,409.97L33.97,406.75L35.73,408.99L37.01,407.06L38.81,405.72L40.92,406.87L43.65,406.22L44.95,404.61L47,402.86L49.1,402.57L51.82,401.37L53.13,402.16L55.16,401.11L57.28,398.44L60,394.96L61.31,396.33L63.35,393.88L65.44,388.16L69.47,374.06L71.5,367.93L73.61,360.8L76.33,344.61L81.78,326.67L84.51,303.49L87.86,286.79L89.96,283.07L93.99,267.98L96.02,265.99L100.85,260.15L102.16,259.82L104.21,260.27L106.3,256.89L110.33,258.5L112.36,260.01L114.49,263.92L117.2,261.23L118.51,256.96L120.53,258.9L122.64,258.98L125.37,256.89L126.67,251.19L128.71,255.45L130.81,255.2L133.54,260.15L134.84,257.92L136.9,257.56L139,261.11L141.71,259.36L143.01,255.85L145.07,256.57L147.16,260.39L149.9,259.43L151.2,256.86L153.24,257.03L155.33,262.53L158.07,258.78L159.35,253.02L161.41,251.31L163.51,255.47L166.25,256.91L167.53,253.57L169.58,254.92L171.68,251.46L174.4,257.99L175.7,247.9L177.74,253.09L179.87,256.14L182.58,254.39" style="vector-effect: none; fill: none; stroke: rgb(128, 0, 128); stroke-opacity: 1; stroke-width: 1.5px; opacity: 1;"/></g><g class="points"/><g class="text"/></g><g class="trace scatter trace1f9f3b" style="stroke-miterlimit: 2; opacity: 1;"><g class="fills"/><g class="errorbars"/><g class="lines"><path class="js-line" d="M0,404.57L8.24,405.19L10.96,404.71L14.3,404.11L16.41,404.25L20.43,402.16L22.47,400.27L24.57,398.44L27.31,397.82L33.97,396.66L35.73,396.25L37.01,398.7L38.81,396.21L40.92,394.74L43.65,395.61L47,396.35L49.1,395.87L53.13,391.52L55.16,391.11L60,382.83L61.31,385.81L63.35,383.11L65.44,377.69L69.47,368.15L71.5,363.08L76.33,357.8L77.63,361.04L81.78,356.64L84.51,354.63L87.86,354.43L89.96,351.29L92.68,349.46L93.99,350.3L98.13,345.91L100.85,344.9L102.16,347.76L104.21,347.64L106.3,343.14L109.02,340.81L110.33,341.8L112.36,340.84L114.49,339.97L117.2,334.5L120.53,330.08L122.64,328.3L126.67,319.05L128.71,317.83L130.81,317.61L133.54,316.07L134.84,321.74L136.9,324.46L139,328.49L141.71,330.77L145.07,336.85L147.16,341.92L149.9,339.06L151.2,340.91L155.33,350.23L158.07,342.04L159.35,343.05L161.41,340.33L163.51,340.84L166.25,346.58L169.58,341.25L171.68,340.53L174.4,339.35L175.7,342.23L177.74,341.66L179.87,343.41L182.58,336.27" style="vector-effect: none; fill: none; stroke: rgb(128, 0, 128); stroke-opacity: 1; stroke-width: 1.5px; opacity: 1;"/></g><g class="points"/><g class="text"/></g><g class="trace scatter trace85ce57" style="stroke-miterlimit: 2; opacity: 1;"><g class="fills"/><g class="errorbars"/><g class="lines"><path class="js-line" d="M0,409.75L6.14,408.84L8.24,409.37L12.27,408.89L14.3,408.79L24.57,408.1L27.31,407.98L33.97,406.68L35.73,406.41L38.81,406.01L40.92,405.33L44.95,403.56L47,400.82L49.1,400.55L51.82,397.91L53.13,398.8L55.16,395.51L57.28,394.33L60,391.62L61.31,391.28L63.35,388.59L65.44,382.66L68.16,378.14L71.5,370.94L73.61,368.65L76.33,366.37L77.63,367.89L79.68,367.74L81.78,365.58L85.82,361.83L87.86,362.72L89.96,359.57L92.68,357.46L93.99,360.39L96.02,360.9L98.13,357.65L100.85,358.16L102.16,361.81L104.21,362.84L109.02,360.13L110.33,362.99L114.49,361.66L117.2,355.76L118.51,360.27L120.53,358.83L122.64,360.15L125.37,355.4L126.67,355.08L128.71,350.4L130.81,349.68L133.54,342.45L134.84,343.65L136.9,344.35L141.71,342.74L143.01,346.03L147.16,351.58L149.9,349.37L151.2,354.1L153.24,356.55L155.33,358.88L158.07,352.34L159.35,353.57L161.41,351.72L163.51,352.3L166.25,355.95L169.58,350.61L171.68,350.69L174.4,348.57L175.7,350.3L177.74,352.1L179.87,352.13L182.58,346.51" style="vector-effect: none; fill: none; stroke: rgb(128, 0, 128); stroke-opacity: 1; stroke-width: 1.5px; opacity: 1;"/></g><g class="points"/><g class="text"/></g><g class="trace scatter traced41dff" style="stroke-miterlimit: 2; opacity: 1;"><g class="fills"/><g class="errorbars"/><g class="lines"><path class="js-line" d="M0,409.47L22.47,408.41L24.57,407.81L28.6,407.35L32.21,407.02L40.92,404.61L43.65,403.75L49.1,401.27L51.82,399.06L55.16,396.37L57.28,394.04L60,390.61L61.31,391.21L63.35,389.74L65.44,385.25L71.5,370.43L73.61,367.86L76.33,364.21L77.63,367.09L81.78,363.92L84.51,361.04L85.82,359.24L87.86,358.69L92.68,351.48L93.99,353.98L98.13,346.92L100.85,345.4L102.16,348.04L104.21,349.29L112.36,333.7L114.49,334.21L117.2,331.04L118.51,332.24L120.53,331.01L122.64,333.63L126.67,326.33L128.71,322.73L130.81,318.26L133.54,307.5L134.84,305.46L136.9,304.71L139,308.53L141.71,308.58L143.01,306.25L145.07,307.45L147.16,312.73L149.9,309.95L151.2,308.05L153.24,308.19L155.33,313.48L158.07,309.54L159.35,305.58L161.41,304.16L163.51,302.07L166.25,304.13L167.53,300.51L169.58,300.96L171.68,304.42L174.4,305.55L175.7,302.31L177.74,301.95L179.87,305.36L182.58,303.05" style="vector-effect: none; fill: none; stroke: rgb(128, 0, 128); stroke-opacity: 1; stroke-width: 1.5px; opacity: 1;"/></g><g class="points"/><g class="text"/></g><g class="trace scatter tracefd5adb" style="stroke-miterlimit: 2; opacity: 1;"><g class="fills"/><g class="errorbars"/><g class="lines"><path class="js-line" d="M0,410.47L12.27,409.61L14.3,409.59L40.92,405.69L43.65,404.25L47,403.27L49.1,402.21L53.13,398.66L55.16,396.37L57.28,394.55L60,390.68L61.31,391.35L63.35,390.9L68.16,389.96L69.47,390.49L71.5,390.25L73.61,388.98L84.51,386.98L85.82,386.26L87.86,387.44L89.96,386.53L98.13,384.46L100.85,385.47L102.16,384.15L104.21,385.25L106.3,383.93L109.02,381.17L110.33,379.2L112.36,378.38L117.2,377.88L118.51,375.55L122.64,376.58L125.37,374.35L126.67,371.44L128.71,370.72L130.81,373.46L133.54,373L139,370.43L141.71,370.84L145.07,372.31L147.16,370.6L149.9,372.28L151.2,369.66L153.24,367.72L155.33,371.99L161.41,366.06L163.51,369.3L166.25,367.55L167.53,364.64L169.58,364.23L171.68,362L174.4,362.41L175.7,361.47L177.74,360.39L179.87,361.78L182.58,359.55" style="vector-effect: none; fill: none; stroke: rgb(128, 0, 128); stroke-opacity: 1; stroke-width: 1.5px; opacity: 1;"/></g><g class="points"/><g class="text"/></g><g class="trace scatter trace063f5e" style="stroke-miterlimit: 2; opacity: 1;"><g class="fills"/><g class="errorbars"/><g class="lines"><path class="js-line" d="M0,410.11L4.1,408.46L6.14,408.48L16.41,408.87L19.13,408.7L22.47,408.26L24.57,408.1L38.81,405.72L40.92,404.61L47,402.12L49.1,400.7L60,391.83L61.31,391.86L71.5,392.41L73.61,392.07L85.82,390.66L87.86,391.11L92.68,390.1L93.99,390.15L96.02,390.01L98.13,388.86L104.21,390.8L106.3,389.84L109.02,387.58L110.33,388.35L112.36,388.4L114.49,387.53L117.2,385.3L118.51,385.57L120.53,384.27L122.64,385.44L128.71,381.17L130.81,382.75L134.84,380.98L136.9,380.88L139,380.23L141.71,376.68L143.01,378.6L145.07,377.35L147.16,377.16L149.9,378.77L151.2,376.15L153.24,376.44L155.33,377.04L158.07,375.91L159.35,373.89L161.41,372.83L163.51,374.28L166.25,374.11L167.53,370.91L169.58,369.93L174.4,369.76L175.7,368.1L179.87,374.4L182.58,369.13" style="vector-effect: none; fill: none; stroke: rgb(128, 0, 128); stroke-opacity: 1; stroke-width: 1.5px; opacity: 1;"/></g><g class="points"/><g class="text"/></g><g class="trace scatter tracecb939f" style="stroke-miterlimit: 2; opacity: 1;"><g class="fills"/><g class="errorbars"/><g class="lines"><path class="js-line" d="M0,407.16L2.79,404.88L4.1,405.43L6.14,401.63L8.24,401.88L10.96,404.64L12.27,404.49L22.47,404.16L24.57,403.05L32.21,402.62L33.97,406.82L43.65,403.39L44.95,402.12L47,401.61L49.1,402.57L55.16,397.96L57.28,397.07L60,394.36L61.31,394.96L63.35,392.92L65.44,388.71L68.16,391.26L69.47,391.07L71.5,391.19L73.61,390.27L76.33,389.86L77.63,388.86L79.68,389.86L81.78,389.07L85.82,388.28L87.86,388.95L92.68,386.65L93.99,386.98L96.02,385.54L98.13,385.4L104.21,388.14L106.3,387.25L110.33,385.47L112.36,385.81L114.49,385.01L117.2,382.78L118.51,382.47L120.53,381.1L122.64,382.06L125.37,380.76L126.67,378.14L128.71,376.41L130.81,378.36L133.54,376.32L134.84,373.99L136.9,374.54L139,374.83L141.71,370.34L143.01,373.05L145.07,371.58L149.9,372.14L151.2,368.8L155.33,370.98L158.07,368.63L159.35,366.25L161.41,365.05L163.51,367.14L166.25,367.62L167.53,363.71L169.58,364.52L174.4,364.64L175.7,363.27L177.74,364.86L179.87,367.62L182.58,366.25" style="vector-effect: none; fill: none; stroke: rgb(128, 0, 128); stroke-opacity: 1; stroke-width: 1.5px; opacity: 1;"/></g><g class="points"/><g class="text"/></g><g class="trace scatter trace1553d3" style="stroke-miterlimit: 2; opacity: 1;"><g class="fills"/><g class="errorbars"/><g class="lines"><path class="js-line" d="M0,402.91L10.96,402.26L12.27,402.26L27.31,400.99L28.6,400.58L33.97,399.76L35.73,399.35L38.81,399.02L40.92,397.84L44.95,396.78L47,397L49.1,396.09L51.82,395.97L63.35,395.37L65.44,395.49L81.78,395.2L84.51,395.2L93.99,395.27L96.02,395.41L100.85,395.13L102.16,395.46L104.21,396.42L106.3,395.75L114.49,396.83L117.2,395.75L125.37,395.89L126.67,395.01L139,395.29L141.71,394.84L145.07,395.22L147.16,395.32L155.33,395.41L158.07,395.29L161.41,395.39L163.51,395.46L177.74,395.27L179.87,395.44L182.58,395.29" style="vector-effect: none; fill: none; stroke: rgb(128, 0, 128); stroke-opacity: 1; stroke-width: 1.5px; opacity: 1;"/></g><g class="points"/><g class="text"/></g><g class="trace scatter trace61c874" style="stroke-miterlimit: 2; opacity: 1;"><g class="fills"/><g class="errorbars"/><g class="lines"><path class="js-line" d="M0,410.62L10.96,409.25L12.27,409.68L16.41,409.08L19.13,409.49L20.43,409.01L22.47,409.06L28.6,408.14L32.21,407.45L43.65,404.33L44.95,404.49L47,404.35L49.1,403.29L53.13,403.48L55.16,403.58L61.31,403.17L63.35,403.29L65.44,403.56L68.16,401.35L69.47,400.79L71.5,401.2L77.63,401.18L79.68,400.67L81.78,399.59L84.51,399.81L87.86,396.59L89.96,395.53L93.99,394.69L96.02,397.79L98.13,396.49L100.85,397.14L102.16,396.97L104.21,397.58L106.3,397.12L109.02,400.05L110.33,401.03L112.36,403.82L114.49,404.25L117.2,403.68L125.37,403.89L126.67,403.08L159.35,403.08L161.41,403.46L167.53,402.98L169.58,403.15L182.58,403.22" style="vector-effect: none; fill: none; stroke: rgb(128, 0, 128); stroke-opacity: 1; stroke-width: 1.5px; opacity: 1;"/></g><g class="points"/><g class="text"/></g><g class="trace scatter trace2b8080" style="stroke-miterlimit: 2; opacity: 1;"><g class="fills"/><g class="errorbars"/><g class="lines"><path class="js-line" d="M0,410.98L8.24,410.45L10.96,410.4L16.41,409.73L19.13,409.92L22.47,409.49L24.57,409.32L32.21,407.88L33.97,407.26L37.01,407.06L38.81,406.44L44.95,404.64L47,404.78L49.1,403.58L51.82,403.75L77.63,403.2L79.68,403.56L85.82,403.41L87.86,403.58L100.85,403.12L102.16,403.89L104.21,404.49L106.3,403.96L112.36,404.9L114.49,404.83L118.51,404.16L120.53,404.16L125.37,404.47L126.67,403.36L133.54,403.63L134.84,403.46L163.51,403.6L166.25,403.51L167.53,403.2L169.58,403.58L182.58,403.72" style="vector-effect: none; fill: none; stroke: rgb(128, 0, 128); stroke-opacity: 1; stroke-width: 1.5px; opacity: 1;"/></g><g class="points"/><g class="text"/></g></g></g></g><path class="xlines-above crisp" d="M486.9222222222222,464.25H670.5M486.9222222222222,29.75H670.5" style="fill: none; stroke-width: 0.5px; stroke: rgb(0, 0, 0); stroke-opacity: 1;"/><path class="ylines-above crisp" d="M487.1722222222222,30V464M670.25,30V464" style="fill: none; stroke-width: 0.5px; stroke: rgb(0, 0, 0); stroke-opacity: 1;"/><g class="overlines-above"/><g class="xaxislayer-above"><path class="x3tick ticks crisp" d="M0,464v-5" transform="translate(528.2822222222222,0)" style="stroke: rgb(0, 0, 0); stroke-opacity: 1; stroke-width: 0.5px;"/><path class="x3tick ticks crisp" d="M0,464v-5" transform="translate(569.1422222222222,0)" style="stroke: rgb(0, 0, 0); stroke-opacity: 1; stroke-width: 0.5px;"/><path class="x3tick ticks crisp" d="M0,464v-5" transform="translate(610.0022222222223,0)" style="stroke: rgb(0, 0, 0); stroke-opacity: 1; stroke-width: 0.5px;"/><path class="x3tick ticks crisp" d="M0,464v-5" transform="translate(650.8622222222223,0)" style="stroke: rgb(0, 0, 0); stroke-opacity: 1; stroke-width: 0.5px;"/><g class="x3tick"><text text-anchor="middle" x="0" y="477.7" transform="translate(487.4222222222222,0)" style="font-family: 'Open Sans', verdana, arial, sans-serif; font-size: 11px; fill: rgb(0, 0, 0); fill-opacity: 1; white-space: pre; opacity: 1;">0</text></g><g class="x3tick"><text text-anchor="middle" x="0" y="477.7" style="font-family: 'Open Sans', verdana, arial, sans-serif; font-size: 11px; fill: rgb(0, 0, 0); fill-opacity: 1; white-space: pre; opacity: 1;" transform="translate(528.2822222222222,0)">5</text></g><g class="x3tick"><text text-anchor="middle" x="0" y="477.7" style="font-family: 'Open Sans', verdana, arial, sans-serif; font-size: 11px; fill: rgb(0, 0, 0); fill-opacity: 1; white-space: pre; opacity: 1;" transform="translate(569.1422222222222,0)">10</text></g><g class="x3tick"><text text-anchor="middle" x="0" y="477.7" style="font-family: 'Open Sans', verdana, arial, sans-serif; font-size: 11px; fill: rgb(0, 0, 0); fill-opacity: 1; white-space: pre; opacity: 1;" transform="translate(610.0022222222223,0)">15</text></g><g class="x3tick"><text text-anchor="middle" x="0" y="477.7" style="font-family: 'Open Sans', verdana, arial, sans-serif; font-size: 11px; fill: rgb(0, 0, 0); fill-opacity: 1; white-space: pre; opacity: 1;" transform="translate(650.8622222222223,0)">20</text></g></g><g class="yaxislayer-above"><path class="y3tick ticks crisp" d="M487.4222222222222,0h5" transform="translate(0,443.43)" style="stroke: rgb(0, 0, 0); stroke-opacity: 1; stroke-width: 0.5px;"/><path class="y3tick ticks crisp" d="M487.4222222222222,0h5" transform="translate(0,371.37)" style="stroke: rgb(0, 0, 0); stroke-opacity: 1; stroke-width: 0.5px;"/><path class="y3tick ticks crisp" d="M487.4222222222222,0h5" transform="translate(0,299.3)" style="stroke: rgb(0, 0, 0); stroke-opacity: 1; stroke-width: 0.5px;"/><path class="y3tick ticks crisp" d="M487.4222222222222,0h5" transform="translate(0,227.24)" style="stroke: rgb(0, 0, 0); stroke-opacity: 1; stroke-width: 0.5px;"/><path class="y3tick ticks crisp" d="M487.4222222222222,0h5" transform="translate(0,155.18)" style="stroke: rgb(0, 0, 0); stroke-opacity: 1; stroke-width: 0.5px;"/><path class="y3tick ticks crisp" d="M487.4222222222222,0h5" transform="translate(0,83.12)" style="stroke: rgb(0, 0, 0); stroke-opacity: 1; stroke-width: 0.5px;"/><g class="y3tick"><text text-anchor="end" x="484.72222222222223" y="3.8499999999999996" transform="translate(0,443.43)" style="font-family: 'Open Sans', verdana, arial, sans-serif; font-size: 11px; fill: rgb(0, 0, 0); fill-opacity: 1; white-space: pre; opacity: 1;">0</text></g><g class="y3tick"><text text-anchor="end" x="484.72222222222223" y="3.8499999999999996" style="font-family: 'Open Sans', verdana, arial, sans-serif; font-size: 11px; fill: rgb(0, 0, 0); fill-opacity: 1; white-space: pre; opacity: 1;" transform="translate(0,371.37)">0.1</text></g><g class="y3tick"><text text-anchor="end" x="484.72222222222223" y="3.8499999999999996" style="font-family: 'Open Sans', verdana, arial, sans-serif; font-size: 11px; fill: rgb(0, 0, 0); fill-opacity: 1; white-space: pre; opacity: 1;" transform="translate(0,299.3)">0.2</text></g><g class="y3tick"><text text-anchor="end" x="484.72222222222223" y="3.8499999999999996" style="font-family: 'Open Sans', verdana, arial, sans-serif; font-size: 11px; fill: rgb(0, 0, 0); fill-opacity: 1; white-space: pre; opacity: 1;" transform="translate(0,227.24)">0.3</text></g><g class="y3tick"><text text-anchor="end" x="484.72222222222223" y="3.8499999999999996" style="font-family: 'Open Sans', verdana, arial, sans-serif; font-size: 11px; fill: rgb(0, 0, 0); fill-opacity: 1; white-space: pre; opacity: 1;" transform="translate(0,155.18)">0.4</text></g><g class="y3tick"><text text-anchor="end" x="484.72222222222223" y="3.8499999999999996" style="font-family: 'Open Sans', verdana, arial, sans-serif; font-size: 11px; fill: rgb(0, 0, 0); fill-opacity: 1; white-space: pre; opacity: 1;" transform="translate(0,83.12)">0.5</text></g></g><g class="overaxes-above"/></g></g><g class="polarlayer"/><g class="smithlayer"/><g class="ternarylayer"/><g class="geolayer"/><g class="funnelarealayer"/><g class="pielayer"/><g class="iciclelayer"/><g class="treemaplayer"/><g class="sunburstlayer"/><g class="glimages"/><defs id="topdefs-d66902"><g class="clips"/></defs><g class="layer-above"><g class="imagelayer"/><g class="shapelayer"/></g><g class="infolayer"><g class="g-gtitle"><text class="gtitle" x="35" y="15" text-anchor="start" dy="0em" style="opacity: 1; font-family: 'Open Sans', verdana, arial, sans-serif; font-size: 11px; fill: rgb(0, 0, 0); fill-opacity: 1; white-space: pre;">Growth on Succinate</text></g><g class="g-xtitle"/><g class="g-x2title" transform="translate(0,4.550000000000011)"><text class="x2title" x="354" y="488.153125" text-anchor="middle" style="opacity: 1; font-family: 'Open Sans', verdana, arial, sans-serif; font-size: 11px; fill: rgb(0, 0, 0); fill-opacity: 1; white-space: pre;">Time (hours)</text></g><g class="g-x3title"/><g class="g-ytitle"><text class="ytitle" transform="rotate(-90,16.18125,247)" x="16.18125" y="247" text-anchor="middle" style="opacity: 1; font-family: 'Open Sans', verdana, arial, sans-serif; font-size: 11px; fill: rgb(0, 0, 0); fill-opacity: 1; white-space: pre;">OD600</text></g><g class="g-y2title"/><g class="g-y3title"/><g class="annotation" data-index="0" style="opacity: 1;"><g class="annotation-text-g" transform="rotate(0,129.2888888888889,20.5)"><g class="cursor-pointer" transform="translate(122,11)"><rect class="bg" x="0.5" y="0.5" width="14" height="18" style="stroke-width: 1px; stroke: rgb(0, 0, 0); stroke-opacity: 0; fill: rgb(0, 0, 0); fill-opacity: 0;"/><text class="annotation-text" text-anchor="middle" x="7.4375" y="14" style="font-family: 'Open Sans', verdana, arial, sans-serif; font-size: 11px; fill: rgb(0, 0, 0); fill-opacity: 1; white-space: pre;">At</text></g></g></g><g class="annotation" data-index="1" style="opacity: 1;"><g class="annotation-text-g" transform="rotate(0,354,20.5)"><g class="cursor-pointer" transform="translate(345,11)"><rect class="bg" x="0.5" y="0.5" width="18" height="18" style="stroke-width: 1px; stroke: rgb(0, 0, 0); stroke-opacity: 0; fill: rgb(0, 0, 0); fill-opacity: 0;"/><text class="annotation-text" text-anchor="middle" x="9.34375" y="14" style="font-family: 'Open Sans', verdana, arial, sans-serif; font-size: 11px; fill: rgb(0, 0, 0); fill-opacity: 1; white-space: pre;">Oa</text></g></g></g><g class="annotation" data-index="2" style="opacity: 1;"><g class="annotation-text-g" transform="rotate(0,578.7111111111111,20.5)"><g class="cursor-pointer" transform="translate(561,11)"><rect class="bg" x="0.5" y="0.5" width="35" height="18" style="stroke-width: 1px; stroke: rgb(0, 0, 0); stroke-opacity: 0; fill: rgb(0, 0, 0); fill-opacity: 0;"/><text class="annotation-text" text-anchor="middle" x="17.921875" y="14" style="font-family: 'Open Sans', verdana, arial, sans-serif; font-size: 11px; fill: rgb(0, 0, 0); fill-opacity: 1; white-space: pre;">At+Oa</text></g></g></g></g></svg>