<svg class="main-svg" xmlns="http://www.w3.org/2000/svg" xmlns:xlink="http://www.w3.org/1999/xlink" width="600" height="400" style="" viewBox="0 0 600 400"><rect x="0" y="0" width="600" height="400" style="fill: rgb(255, 255, 255); fill-opacity: 1;"/><defs id="defs-5dcd49"><g class="clips"><clipPath id="clip5dcd49xyplot" class="plotclip"><rect width="447" height="327"/></clipPath><clipPath class="axesclip" id="clip5dcd49x"><rect x="45" y="0" width="447" height="400"/></clipPath><clipPath class="axesclip" id="clip5dcd49y"><rect x="0" y="30" width="600" height="327"/></clipPath><clipPath class="axesclip" id="clip5dcd49xy"><rect x="45" y="30" width="447" height="327"/></clipPath></g><g class="gradients"/><g class="patterns"/></defs><g class="bglayer"/><g class="layer-below"><g class="imagelayer"/><g class="shapelayer"/></g><g class="cartesianlayer"><g class="subplot xy"><g class="layer-subplot"><g class="shapelayer"/><g class="imagelayer"/></g><g class="minor-gridlayer"><g class="x"/><g class="y"/></g><g class="gridlayer"><g class="x"><path class="xgrid crisp" transform="translate(120.13,0)" d="M0,30v327" style="stroke: rgb(128, 128, 128); stroke-opacity: 1; stroke-width: 0.2px;"/><path class="xgrid crisp" transform="translate(195.25,0)" d="M0,30v327" style="stroke: rgb(128, 128, 128); stroke-opacity: 1; stroke-width: 0.2px;"/><path class="xgrid crisp" transform="translate(270.38,0)" d="M0,30v327" style="stroke: rgb(128, 128, 128); stroke-opacity: 1; stroke-width: 0.2px;"/><path class="xgrid crisp" transform="translate(345.5,0)" d="M0,30v327" style="stroke: rgb(128, 128, 128); stroke-opacity: 1; stroke-width: 0.2px;"/><path class="xgrid crisp" transform="translate(420.63,0)" d="M0,30v327" style="stroke: rgb(128, 128, 128); stroke-opacity: 1; stroke-width: 0.2px;"/></g><g class="y"><path class="ygrid crisp" transform="translate(0,342.7)" d="M45,0h447" style="stroke: rgb(128, 128, 128); stroke-opacity: 1; stroke-width: 0.2px;"/><path class="ygrid crisp" transform="translate(0,281.14)" d="M45,0h447" style="stroke: rgb(128, 128, 128); stroke-opacity: 1; stroke-width: 0.2px;"/><path class="ygrid crisp" transform="translate(0,219.57)" d="M45,0h447" style="stroke: rgb(128, 128, 128); stroke-opacity: 1; stroke-width: 0.2px;"/><path class="ygrid crisp" transform="translate(0,158.01)" d="M45,0h447" style="stroke: rgb(128, 128, 128); stroke-opacity: 1; stroke-width: 0.2px;"/><path class="ygrid crisp" transform="translate(0,96.44)" d="M45,0h447" style="stroke: rgb(128, 128, 128); stroke-opacity: 1; stroke-width: 0.2px;"/><path class="ygrid crisp" transform="translate(0,34.88)" d="M45,0h447" style="stroke: rgb(128, 128, 128); stroke-opacity: 1; stroke-width: 0.2px;"/></g></g><g class="zerolinelayer"/><g class="layer-between"><g class="shapelayer"/><g class="imagelayer"/></g><path class="xlines-below"/><path class="ylines-below"/><g class="overlines-below"/><g class="xaxislayer-below"/><g class="yaxislayer-below"/><g class="overaxes-below"/><g class="overplot"><g class="xy" transform="translate(45,30)" clip-path="url(#clip5dcd49xyplot)"><g class="scatterlayer mlayer"><g class="trace scatter trace1dc350" style="stroke-miterlimit: 2; opacity: 1;"><g class="fills"/><g class="errorbars"/><g class="lines"><path class="js-line" d="M0,309.36L26.29,309.44L30.17,309.46L45.18,309.03L50.23,308.99L59.23,308.7L62.46,308.72L82.66,307.96L86.42,309.01L95.28,307.55L97.69,306.61L105.32,304.06L110.32,304.02L112.72,302.83L116.48,302.5L131.47,301.44L135.35,301.31L140.35,300.98L142.74,299.79L146.5,299.84L150.36,299.12L155.38,296.92L157.8,297.35L165.41,295.34L170.41,294.48L172.81,289.74L176.55,290.87L180.43,286.68L185.44,279.19L187.84,276.24L191.6,269.38L195.46,263.47L200.46,250.46L202.86,244.65L206.59,232.54L215.5,209.07L217.9,199.77L221.63,192.49L225.5,181.53L232.91,154.15L236.65,138.39L240.52,134.04L245.53,127.23L247.93,122.08L251.71,121.32L255.57,117.19L260.56,113.03L262.95,108.41L266.74,106.32L270.58,104.26L275.61,100L278,97.9L281.76,99.24L285.6,96.24L290.64,90.49L293,86.8L296.78,85.65L300.63,81.55L305.68,81.05L308.03,78.18L311.81,78.2L315.65,80.44L320.66,76.44L323.05,74.22L326.8,72.85L330.71,69.48L335.7,68.5L338.09,64.51L341.83,54.75L345.73,65.29L350.71,63.8L353.11,61.5L356.85,60.74L360.73,63.16L365.77,57.21L368.13,59.77L371.88,62.4L375.76,65.48L380.76,62.67L383.16,59.47L386.91,61.29L390.78,63.12L397.89,59.55L399.51,62.09L402.73,62.28L406.68,61.64L411.37,52.59L415.97,58.46L419.68,54.64L426.18,52.43L428.26,47.23L431.97,48.3L435.88,43.75L440.86,41.63L443.24,30.2L447,39.17" style="vector-effect: none; fill: none; stroke: rgb(128, 128, 128); stroke-opacity: 1; stroke-width: 2px; opacity: 1;"/></g><g class="points"/><g class="text"/></g><g class="trace scatter trace0d722e" style="stroke-miterlimit: 2; opacity: 1;"><g class="fills"/><g class="errorbars"/><g class="lines"><path class="js-line" d="M0,310.59L41.32,310.44L45.18,310.14L62.46,310.01L66.44,309.69L71.37,309.44L75.25,309.64L82.66,309.19L86.42,310.42L90.28,308.91L95.28,309.34L101.43,307.69L105.32,307.51L112.72,307.45L116.48,307.12L120.33,306.24L125.33,306.59L135.35,305.75L140.35,305.79L161.55,302.28L165.41,300.2L176.55,294.93L180.43,291.24L187.84,284.18L191.6,278L195.46,272.34L200.46,261.91L206.59,242.4L210.51,233.43L221.63,203.51L225.5,190.76L240.52,141.18L245.53,135.05L260.56,120.78L262.95,115.86L266.74,110.93L270.58,110.98L275.61,108.49L278,106.21L281.76,106.26L285.6,103.87L290.64,101.02L293,98.19L300.63,93L305.68,92.51L308.03,90L311.81,89.1L315.65,90.9L320.66,88.5L326.8,83.5L330.71,80.5L335.7,79.15L338.09,75.35L341.83,65.7L345.73,75.58L350.71,72.91L353.11,70.3L356.85,69.17L360.73,71.59L365.77,71.61L368.13,69.25L371.88,70.65L375.76,73.24L380.76,71.35L383.16,66.24L386.91,68.86L390.78,69.83L397.89,67.18L399.51,68.19L402.73,70.71L406.68,71L411.37,58.81L415.97,43.25L419.68,44.79L422.95,60.04L426.18,59.94L428.26,48.53L431.97,56.24L435.88,52.55L440.86,50.56L443.24,34.94L447,47.91" style="vector-effect: none; fill: none; stroke: rgb(128, 128, 128); stroke-opacity: 1; stroke-width: 2px; opacity: 1;"/></g><g class="points"/><g class="text"/></g><g class="trace scatter trace9dd260" style="stroke-miterlimit: 2; opacity: 1;"><g class="fills"/><g class="errorbars"/><g class="lines"><path class="js-line" d="M0,310.65L45.18,310.01L50.23,308.62L52.6,309.71L59.23,309.56L71.37,309.62L75.25,309.64L80.26,302.3L82.66,303.04L86.42,310.36L90.28,309.71L95.28,309.71L97.69,301.5L101.43,304.99L105.32,300.61L110.32,307.9L112.72,307.2L120.33,306.98L125.33,301.97L127.74,306.38L131.47,301.07L135.35,305.01L140.35,305.97L142.74,300.29L146.5,305.25L150.36,300.84L155.38,303.39L157.8,301.97L161.55,298.71L165.41,301.31L170.41,296.76L172.81,293.86L176.55,296.53L185.44,289.1L187.84,286.58L195.46,275.97L200.46,267.02L202.86,261.46L206.59,249.91L221.63,209.91L225.5,195.26L232.91,172.07L236.65,162.22L240.52,143.4L245.53,136.71L251.71,129.57L255.57,126.43L260.56,120.6L262.95,115.61L266.74,110.44L270.58,109.07L278,103.07L281.76,103.36L290.64,97.88L293,94L296.78,91.99L300.63,88.13L305.68,89.24L308.03,86L311.81,83.93L315.65,85.73L330.71,76.75L335.7,74.77L338.09,71.22L341.83,57.7L345.73,71.82L350.71,71.12L353.11,68.33L356.85,68.5L360.73,69.44L365.77,66.01L368.13,66.98L371.88,66.96L375.76,69.42L380.76,67.53L383.16,62.42L386.91,64.31L390.78,65.4L397.89,63.06L402.73,64L406.68,65.46L411.37,53.51L415.97,32.17L419.68,29.77L422.95,35.85L426.18,37.16L428.26,25.87L431.97,37.53L435.88,43.87L440.86,43.42L443.24,16.35L447,42.25" style="vector-effect: none; fill: none; stroke: rgb(128, 128, 128); stroke-opacity: 1; stroke-width: 2px; opacity: 1;"/></g><g class="points"/><g class="text"/></g><g class="trace scatter trace7b09c4" style="stroke-miterlimit: 2; opacity: 1;"><g class="fills"/><g class="errorbars"/><g class="lines"><path class="js-line" d="M0,310.24L95.28,309.33L97.69,309.25L127.74,307.51L131.47,307.13L146.5,304.9L150.36,304.07L161.55,300.79L165.41,299.25L176.55,293.05L180.43,290.09L187.84,282.83L191.6,278.16L195.46,272.54L200.46,263.77L206.59,250.39L210.51,240.15L217.9,217.18L221.63,204.04L232.91,163.35L236.65,152.05L240.52,142.76L245.53,134.57L247.93,131.98L251.71,129.24L255.57,127.58L260.56,126.47L270.58,125.73L275.61,125.63L338.09,125.55L341.83,125.55L447,125.55" style="vector-effect: none; fill: none; stroke: rgb(128, 0, 128); stroke-opacity: 1; stroke-width: 2px; opacity: 1;"/></g><g class="points"/><g class="text"/></g></g></g></g><g class="zerolinelayer-above"/><path class="xlines-above crisp" d="M44.5,357.25H492.5M44.5,29.75H492.5" style="fill: none; stroke-width: 0.5px; stroke: rgb(0, 0, 0); stroke-opacity: 1;"/><path class="ylines-above crisp" d="M44.75,30V357M492.25,30V357" style="fill: none; stroke-width: 0.5px; stroke: rgb(0, 0, 0); stroke-opacity: 1;"/><g class="overlines-above"/><g class="xaxislayer-above"><path class="xtick ticks crisp" d="M0,357v-5" transform="translate(120.13,0)" style="stroke: rgb(0, 0, 0); stroke-opacity: 1; stroke-width: 0.5px;"/><path class="xtick ticks crisp" d="M0,357v-5" transform="translate(195.25,0)" style="stroke: rgb(0, 0, 0); stroke-opacity: 1; stroke-width: 0.5px;"/><path class="xtick ticks crisp" d="M0,357v-5" transform="translate(270.38,0)" style="stroke: rgb(0, 0, 0); stroke-opacity: 1; stroke-width: 0.5px;"/><path class="xtick ticks crisp" d="M0,357v-5" transform="translate(345.5,0)" style="stroke: rgb(0, 0, 0); stroke-opacity: 1; stroke-width: 0.5px;"/><path class="xtick ticks crisp" d="M0,357v-5" transform="translate(420.63,0)" style="stroke: rgb(0, 0, 0); stroke-opacity: 1; stroke-width: 0.5px;"/><g class="xtick"><text text-anchor="middle" x="0" y="374.3" transform="translate(45,0)" style="font-family: 'Open Sans', verdana, arial, sans-serif; font-size: 14px; fill: rgb(0, 0, 0); fill-opacity: 1; white-space: pre;">0</text></g><g class="xtick"><text text-anchor="middle" x="0" y="374.3" style="font-family: 'Open Sans', verdana, arial, sans-serif; font-size: 14px; fill: rgb(0, 0, 0); fill-opacity: 1; white-space: pre;" transform="translate(120.13,0)">5</text></g><g class="xtick"><text text-anchor="middle" x="0" y="374.3" style="font-family: 'Open Sans', verdana, arial, sans-serif; font-size: 14px; fill: rgb(0, 0, 0); fill-opacity: 1; white-space: pre;" transform="translate(195.25,0)">10</text></g><g class="xtick"><text text-anchor="middle" x="0" y="374.3" style="font-family: 'Open Sans', verdana, arial, sans-serif; font-size: 14px; fill: rgb(0, 0, 0); fill-opacity: 1; white-space: pre;" transform="translate(270.38,0)">15</text></g><g class="xtick"><text text-anchor="middle" x="0" y="374.3" style="font-family: 'Open Sans', verdana, arial, sans-serif; font-size: 14px; fill: rgb(0, 0, 0); fill-opacity: 1; white-space: pre;" transform="translate(345.5,0)">20</text></g><g class="xtick"><text text-anchor="middle" x="0" y="374.3" style="font-family: 'Open Sans', verdana, arial, sans-serif; font-size: 14px; fill: rgb(0, 0, 0); fill-opacity: 1; white-space: pre;" transform="translate(420.63,0)">25</text></g></g><g class="yaxislayer-above"><path class="ytick ticks crisp" d="M45,0h5" transform="translate(0,342.7)" style="stroke: rgb(0, 0, 0); stroke-opacity: 1; stroke-width: 0.5px;"/><path class="ytick ticks crisp" d="M45,0h5" transform="translate(0,281.14)" style="stroke: rgb(0, 0, 0); stroke-opacity: 1; stroke-width: 0.5px;"/><path class="ytick ticks crisp" d="M45,0h5" transform="translate(0,219.57)" style="stroke: rgb(0, 0, 0); stroke-opacity: 1; stroke-width: 0.5px;"/><path class="ytick ticks crisp" d="M45,0h5" transform="translate(0,158.01)" style="stroke: rgb(0, 0, 0); stroke-opacity: 1; stroke-width: 0.5px;"/><path class="ytick ticks crisp" d="M45,0h5" transform="translate(0,96.44)" style="stroke: rgb(0, 0, 0); stroke-opacity: 1; stroke-width: 0.5px;"/><path class="ytick ticks crisp" d="M45,0h5" transform="translate(0,34.88)" style="stroke: rgb(0, 0, 0); stroke-opacity: 1; stroke-width: 0.5px;"/><g class="ytick"><text text-anchor="end" x="41.7" y="4.8999999999999995" transform="translate(0,342.7)" style="font-family: 'Open Sans', verdana, arial, sans-serif; font-size: 14px; fill: rgb(0, 0, 0); fill-opacity: 1; white-space: pre;">0</text></g><g class="ytick"><text text-anchor="end" x="41.7" y="4.8999999999999995" style="font-family: 'Open Sans', verdana, arial, sans-serif; font-size: 14px; fill: rgb(0, 0, 0); fill-opacity: 1; white-space: pre;" transform="translate(0,281.14)">0.1</text></g><g class="ytick"><text text-anchor="end" x="41.7" y="4.8999999999999995" style="font-family: 'Open Sans', verdana, arial, sans-serif; font-size: 14px; fill: rgb(0, 0, 0); fill-opacity: 1; white-space: pre;" transform="translate(0,219.57)">0.2</text></g><g class="ytick"><text text-anchor="end" x="41.7" y="4.8999999999999995" style="font-family: 'Open Sans', verdana, arial, sans-serif; font-size: 14px; fill: rgb(0, 0, 0); fill-opacity: 1; white-space: pre;" transform="translate(0,158.01)">0.3</text></g><g class="ytick"><text text-anchor="end" x="41.7" y="4.8999999999999995" style="font-family: 'Open Sans', verdana, arial, sans-serif; font-size: 14px; fill: rgb(0, 0, 0); fill-opacity: 1; white-space: pre;" transform="translate(0,96.44)">0.4</text></g><g class="ytick"><text text-anchor="end" x="41.7" y="4.8999999999999995" style="font-family: 'Open Sans', verdana, arial, sans-serif; font-size: 14px; fill: rgb(0, 0, 0); fill-opacity: 1; white-space: pre;" transform="translate(0,34.88)">0.5</text></g></g><g class="overaxes-above"/></g></g><g class="polarlayer"/><g class="smithlayer"/><g class="ternarylayer"/><g class="geolayer"/><g class="funnelarealayer"/><g class="pielayer"/><g class="iciclelayer"/><g class="treemaplayer"/><g class="sunburstlayer"/><g class="glimages"/><defs id="topdefs-5dcd49"><g class="clips"/><clipPath id="legend5dcd49"><rect width="87" height="53" x="0" y="0"/></clipPath></defs><g class="layer-above"><g class="imagelayer"/><g class="shapelayer"/></g><g class="infolayer"><g class="legend" pointer-events="all" transform="translate(500.94,30)"><rect class="bg" shape-rendering="crispEdges" style="stroke: rgb(68, 68, 68); stroke-opacity: 1; fill: rgb(255, 255, 255); fill-opacity: 1; stroke-width: 0px;" width="87" height="53" x="0" y="0"/><g class="scrollbox" transform="" clip-path="url(#legend5dcd49)"><g class="groups"><g class="traces" transform="translate(0,15.6)" style="opacity: 1;"><text class="legendtext" text-anchor="start" x="40" y="5.46" style="font-family: 'Open Sans', verdana, arial, sans-serif; font-size: 14px; fill: rgb(0, 0, 0); fill-opacity: 1; white-space: pre;">Data</text><g class="layers" style="opacity: 1;"><g class="legendfill"/><g class="legendlines"><path class="js-line" d="M5,0h30" style="fill: none; stroke: rgb(128, 128, 128); stroke-opacity: 1; stroke-width: 2px;"/></g><g class="legendsymbols"><g class="legendpoints"/></g></g><rect class="legendtoggle" x="0" y="-10.6" width="81.078125" height="21.2" style="fill: rgb(0, 0, 0); fill-opacity: 0;"/></g><g class="traces" transform="translate(0,36.8)" style="opacity: 1;"><text class="legendtext" text-anchor="start" x="40" y="5.46" style="font-family: 'Open Sans', verdana, arial, sans-serif; font-size: 14px; fill: rgb(0, 0, 0); fill-opacity: 1; white-space: pre;">Model</text><g class="layers" style="opacity: 1;"><g class="legendfill"/><g class="legendlines"><path class="js-line" d="M5,0h30" style="fill: none; stroke: rgb(128, 0, 128); stroke-opacity: 1; stroke-width: 2px;"/></g><g class="legendsymbols"><g class="legendpoints"/></g></g><rect class="legendtoggle" x="0" y="-10.6" width="81.078125" height="21.2" style="fill: rgb(0, 0, 0); fill-opacity: 0;"/></g></g></g><rect class="scrollbar" rx="20" ry="3" width="0" height="0" style="fill: rgb(128, 139, 164); fill-opacity: 1;" x="0" y="0"/></g><g class="g-gtitle"><text class="gtitle" x="30" y="15" text-anchor="start" dy="0em" style="opacity: 1; font-family: 'Open Sans', verdana, arial, sans-serif; font-size: 14px; fill: rgb(0, 0, 0); fill-opacity: 1; white-space: pre;">At on Glucose 15 mM — μ: 1.2 1/h   K: 1.2 mM</text></g><g class="g-xtitle" transform="translate(0,5.449999999999989)"><text class="xtitle" x="268.5" y="387.8498046875" text-anchor="middle" style="opacity: 1; font-family: 'Open Sans', verdana, arial, sans-serif; font-size: 14px; fill: rgb(0, 0, 0); fill-opacity: 1; white-space: pre;">Time (hours)</text></g><g class="g-ytitle"><text class="ytitle" transform="rotate(-90,17.3001953125,193.5)" x="17.3001953125" y="193.5" text-anchor="middle" style="opacity: 1; font-family: 'Open Sans', verdana, arial, sans-serif; font-size: 14px; fill: rgb(0, 0, 0); fill-opacity: 1; white-space: pre;">OD600</text></g></g></svg>