<svg class="main-svg" xmlns="http://www.w3.org/2000/svg" xmlns:xlink="http://www.w3.org/1999/xlink" width="600" height="400" style="" viewBox="0 0 600 400"><rect x="0" y="0" width="600" height="400" style="fill: rgb(255, 255, 255); fill-opacity: 1;"/><defs id="defs-cbd578"><g class="clips"><clipPath id="clipcbd578xyplot" class="plotclip"><rect width="447" height="327"/></clipPath><clipPath class="axesclip" id="clipcbd578x"><rect x="45" y="0" width="447" height="400"/></clipPath><clipPath class="axesclip" id="clipcbd578y"><rect x="0" y="30" width="600" height="327"/></clipPath><clipPath class="axesclip" id="clipcbd578xy"><rect x="45" y="30" width="447" height="327"/></clipPath></g><g class="gradients"/><g class="patterns"/></defs><g class="bglayer"/><g class="layer-below"><g class="imagelayer"/><g class="shapelayer"/></g><g class="cartesianlayer"><g class="subplot xy"><g class="layer-subplot"><g class="shapelayer"/><g class="imagelayer"/></g><g class="minor-gridlayer"><g class="x"/><g class="y"/></g><g class="gridlayer"><g class="x"><path class="xgrid crisp" transform="translate(120.13,0)" d="M0,30v327" style="stroke: rgb(128, 128, 128); stroke-opacity: 1; stroke-width: 0.2px;"/><path class="xgrid crisp" transform="translate(195.25,0)" d="M0,30v327" style="stroke: rgb(128, 128, 128); stroke-opacity: 1; stroke-width: 0.2px;"/><path class="xgrid crisp" transform="translate(270.38,0)" d="M0,30v327" style="stroke: rgb(128, 128, 128); stroke-opacity: 1; stroke-width: 0.2px;"/><path class="xgrid crisp" transform="translate(345.51,0)" d="M0,30v327" style="stroke: rgb(128, 128, 128); stroke-opacity: 1; stroke-width: 0.2px;"/><path class="xgrid crisp" transform="translate(420.63,0)" d="M0,30v327" style="stroke: rgb(128, 128, 128); stroke-opacity: 1; stroke-width: 0.2px;"/></g><g class="y"><path class="ygrid crisp" transform="translate(0,341.61)" d="M45,0h447" style="stroke: rgb(128, 128, 128); stroke-opacity: 1; stroke-width: 0.2px;"/><path class="ygrid crisp" transform="translate(0,276.11)" d="M45,0h447" style="stroke: rgb(128, 128, 128); stroke-opacity: 1; stroke-width: 0.2px;"/><path class="ygrid crisp" transform="translate(0,210.62)" d="M45,0h447" style="stroke: rgb(128, 128, 128); stroke-opacity: 1; stroke-width: 0.2px;"/><path class="ygrid crisp" transform="translate(0,145.12)" d="M45,0h447" style="stroke: rgb(128, 128, 128); stroke-opacity: 1; stroke-width: 0.2px;"/><path class="ygrid crisp" transform="translate(0,79.62)" d="M45,0h447" style="stroke: rgb(128, 128, 128); stroke-opacity: 1; stroke-width: 0.2px;"/></g></g><g class="zerolinelayer"/><g class="layer-between"><g class="shapelayer"/><g class="imagelayer"/></g><path class="xlines-below"/><path class="ylines-below"/><g class="overlines-below"/><g class="xaxislayer-below"/><g class="yaxislayer-below"/><g class="overaxes-below"/><g class="overplot"><g class="xy" transform="translate(45,30)" clip-path="url(#clipcbd578xyplot)"><g class="scatterlayer mlayer"><g class="trace scatter tracef7ef26" style="stroke-miterlimit: 2; opacity: 1;"><g class="fills"/><g class="errorbars"/><g class="lines"><path class="js-line" d="M0,308.82L7.53,308.14L11.28,308.49L15.15,307.94L20.15,308.12L41.32,306.7L45.18,306.39L50.22,307.35L52.59,306.87L59.22,306.31L62.46,303.51L65.69,305.15L68.05,303.07L71.37,301.92L75.24,302.51L80.25,300.67L82.66,298.23L86.42,297.68L90.27,295.98L101.43,293.01L105.32,289.15L112.72,276.02L116.48,267.77L120.33,258.65L125.33,239.96L127.73,234.04L131.47,227.43L135.35,221.99L140.35,200.99L146.5,197.84L150.36,194.31L155.37,185.29L157.8,177.12L161.55,168.94L165.4,166.73L172.81,148.76L176.55,146.17L180.43,141.3L185.43,138.24L187.83,134.72L191.61,136.71L195.45,133.44L200.45,131.12L202.85,129.07L206.59,129.73L210.51,133.55L215.5,132.02L217.9,128.13L221.62,129.11L225.49,131.08L230.51,125.71L232.9,117.91L236.65,123.15L240.52,120.77L245.53,121.01L247.93,118.92L251.7,122.72L255.56,126.34L260.56,125.01L262.95,117.83L266.73,123L270.58,128.96L275.61,126.32L278,123.98L281.75,126.3L285.6,133.72L290.64,132.74L292.99,129L296.78,127.26L300.63,131.04L305.67,130.84L308.02,128.66L311.8,131.91L315.65,129.42L320.66,136.41L323.05,128.61L326.8,132.21L330.71,130.8L335.7,131.43L341.83,125.29L345.72,128.94L350.71,136.14L353.11,134.11L356.85,135.97L360.73,139.59L365.76,139.31L368.13,137.1L375.76,145.58L380.76,146.84L383.15,135.05L386.9,142.58L390.78,143.11L397.89,146.03L399.5,143.83L402.73,149.05L406.67,147.3L411.32,150.05L413.32,165.29L419.69,172.87L422.95,176.4L426.18,175.64L428.25,169.83L431.97,171.12L435.88,163.15L440.86,155.57L443.25,156.71L447,180.01" style="vector-effect: none; fill: none; stroke: rgb(128, 128, 128); stroke-opacity: 1; stroke-width: 2px; opacity: 1;"/></g><g class="points"/><g class="text"/></g><g class="trace scatter trace2ec686" style="stroke-miterlimit: 2; opacity: 1;"><g class="fills"/><g class="errorbars"/><g class="lines"><path class="js-line" d="M0,309.86L15.15,308.99L20.15,308.9L30.16,307.92L35.17,307.53L37.57,308.07L41.32,307.29L45.18,306.72L50.22,307.55L52.59,306.68L59.22,305.78L62.46,303.51L65.69,305.67L68.05,302.94L71.37,301.98L80.25,300.61L82.66,298.95L86.42,297.35L90.27,296.96L97.68,292.86L101.43,291.37L105.32,287.77L110.32,280.15L116.48,270.39L120.33,260.74L125.33,250.7L127.73,238.36L131.47,224.48L135.35,214.13L140.35,194.17L142.74,191.47L146.5,191.16L150.36,188.08L155.37,180.18L157.8,172.87L165.4,164.77L170.41,153.28L172.81,147.91L176.55,141.51L180.43,139.86L185.43,133.59L187.83,132.56L191.61,132.98L195.45,130.36L200.45,130.8L202.85,130.38L206.59,132.54L210.51,136.76L215.5,134.64L217.9,130.23L221.62,131.93L225.49,133.5L230.51,126.95L232.9,118.57L236.65,124.53L240.52,122.87L245.53,124.35L247.93,120.95L251.7,122.85L255.56,126.8L260.56,126.71L262.95,118.48L266.73,120.18L270.58,126.8L275.61,123.57L278,120.18L281.75,122.5L285.6,128.87L290.64,125.34L292.99,118.33L296.78,117.5L300.63,120.88L305.67,120.56L308.02,116.8L311.8,120.51L315.65,121.36L320.66,127.96L323.05,118.33L326.8,119.38L335.7,120.62L338.1,116.87L341.83,112.52L345.72,116.95L350.71,123.18L353.11,120.23L356.85,122.08L360.73,128.07L365.76,124.97L368.13,121.12L371.88,128.7L375.76,134.83L380.76,135.71L383.15,122.61L386.9,130.01L390.78,130.99L397.89,134.18L399.5,131.19L402.73,136.47L406.67,135.84L411.32,132.5L413.32,134.11L419.69,160.42L422.95,140.38L426.18,128.15L428.25,107.74L431.97,108.64L435.88,97.39L440.86,99.77L443.25,96.65L447,112.94" style="vector-effect: none; fill: none; stroke: rgb(128, 128, 128); stroke-opacity: 1; stroke-width: 2px; opacity: 1;"/></g><g class="points"/><g class="text"/></g><g class="trace scatter trace3262dc" style="stroke-miterlimit: 2; opacity: 1;"><g class="fills"/><g class="errorbars"/><g class="lines"><path class="js-line" d="M0,310.65L45.18,307.44L50.22,308.79L59.22,307.62L62.46,305.08L65.69,306.65L68.05,304.65L71.37,302.97L75.24,304.6L80.25,303.1L82.66,300.91L90.27,297.88L95.29,297.05L97.68,296.2L101.43,295.76L110.32,283.62L112.72,279.5L120.33,263.03L125.33,249.19L127.73,243.86L131.47,231.62L142.74,199.39L146.5,197.19L150.36,193.26L155.37,185.22L157.8,177.58L161.55,170.64L165.4,169.22L170.41,153.22L172.81,147.91L176.55,143.68L187.83,131.45L191.61,130.49L195.45,126.95L200.45,124.7L202.85,122.06L206.59,124.29L210.51,128.57L215.5,125.47L217.9,122.56L221.62,125.25L225.49,127.8L230.51,125.58L232.9,118.31L236.65,122.76L240.52,120.64L245.53,121.41L247.93,117.94L251.7,120.29L255.56,126.41L260.56,125.53L262.95,117.11L266.73,117.83L270.58,122.54L275.61,117.35L278,111.15L281.75,114.31L285.6,122.39L290.64,121.54L292.99,115.97L296.78,114.22L300.63,118.39L305.67,118.98L308.02,115.95L311.8,119.46L315.65,119.07L320.66,126.52L323.05,118.53L326.8,119.44L330.71,119.33L335.7,116.3L338.1,110.91L341.83,106.56L345.72,113.09L350.71,117.35L353.11,113.61L356.85,116.25L360.73,121.12L365.76,122.22L368.13,117.06L371.88,120.45L375.76,126.25L380.76,125.42L383.15,113.5L386.9,121.43L397.89,125.53L399.5,123.39L402.73,127.83L406.67,127.98L411.32,102.5L413.32,98.61L419.69,99.44L422.95,86.74L426.18,74.18L428.25,59.73L431.97,52.37L435.88,34.06L443.25,16.35L447,31.98" style="vector-effect: none; fill: none; stroke: rgb(128, 128, 128); stroke-opacity: 1; stroke-width: 2px; opacity: 1;"/></g><g class="points"/><g class="text"/></g><g class="trace scatter trace513183" style="stroke-miterlimit: 2; opacity: 1;"><g class="fills"/><g class="errorbars"/><g class="lines"><path class="js-line" d="M0,308.99L45.18,308.16L50.22,307.76L65.69,305.49L68.05,304.97L80.25,301.26L82.66,300.29L90.27,296.53L95.29,293.4L101.43,288.7L105.32,285.13L112.72,276.86L116.48,271.82L125.33,257.28L127.73,252.64L135.35,235.86L140.35,223.18L150.36,194.99L155.37,180.5L165.4,154.72L170.41,144.95L176.55,136.37L180.43,132.7L187.83,128.43L191.61,127.2L202.85,125.47L206.59,125.23L232.9,124.8L236.65,124.8L447,124.78" style="vector-effect: none; fill: none; stroke: rgb(128, 0, 128); stroke-opacity: 1; stroke-width: 2px; opacity: 1;"/></g><g class="points"/><g class="text"/></g></g></g></g><g class="zerolinelayer-above"/><path class="xlines-above crisp" d="M44.5,357.25H492.5M44.5,29.75H492.5" style="fill: none; stroke-width: 0.5px; stroke: rgb(0, 0, 0); stroke-opacity: 1;"/><path class="ylines-above crisp" d="M44.75,30V357M492.25,30V357" style="fill: none; stroke-width: 0.5px; stroke: rgb(0, 0, 0); stroke-opacity: 1;"/><g class="overlines-above"/><g class="xaxislayer-above"><path class="xtick ticks crisp" d="M0,357v-5" transform="translate(120.13,0)" style="stroke: rgb(0, 0, 0); stroke-opacity: 1; stroke-width: 0.5px;"/><path class="xtick ticks crisp" d="M0,357v-5" transform="translate(195.25,0)" style="stroke: rgb(0, 0, 0); stroke-opacity: 1; stroke-width: 0.5px;"/><path class="xtick ticks crisp" d="M0,357v-5" transform="translate(270.38,0)" style="stroke: rgb(0, 0, 0); stroke-opacity: 1; stroke-width: 0.5px;"/><path class="xtick ticks crisp" d="M0,357v-5" transform="translate(345.51,0)" style="stroke: rgb(0, 0, 0); stroke-opacity: 1; stroke-width: 0.5px;"/><path class="xtick ticks crisp" d="M0,357v-5" transform="translate(420.63,0)" style="stroke: rgb(0, 0, 0); stroke-opacity: 1; stroke-width: 0.5px;"/><g class="xtick"><text text-anchor="middle" x="0" y="374.3" transform="translate(45,0)" style="font-family: 'Open Sans', verdana, arial, sans-serif; font-size: 14px; fill: rgb(0, 0, 0); fill-opacity: 1; white-space: pre;">0</text></g><g class="xtick"><text text-anchor="middle" x="0" y="374.3" style="font-family: 'Open Sans', verdana, arial, sans-serif; font-size: 14px; fill: rgb(0, 0, 0); fill-opacity: 1; white-space: pre;" transform="translate(120.13,0)">5</text></g><g class="xtick"><text text-anchor="middle" x="0" y="374.3" style="font-family: 'Open Sans', verdana, arial, sans-serif; font-size: 14px; fill: rgb(0, 0, 0); fill-opacity: 1; white-space: pre;" transform="translate(195.25,0)">10</text></g><g class="xtick"><text text-anchor="middle" x="0" y="374.3" style="font-family: 'Open Sans', verdana, arial, sans-serif; font-size: 14px; fill: rgb(0, 0, 0); fill-opacity: 1; white-space: pre;" transform="translate(270.38,0)">15</text></g><g class="xtick"><text text-anchor="middle" x="0" y="374.3" style="font-family: 'Open Sans', verdana, arial, sans-serif; font-size: 14px; fill: rgb(0, 0, 0); fill-opacity: 1; white-space: pre;" transform="translate(345.51,0)">20</text></g><g class="xtick"><text text-anchor="middle" x="0" y="374.3" style="font-family: 'Open Sans', verdana, arial, sans-serif; font-size: 14px; fill: rgb(0, 0, 0); fill-opacity: 1; white-space: pre;" transform="translate(420.63,0)">25</text></g></g><g class="yaxislayer-above"><path class="ytick ticks crisp" d="M45,0h5" transform="translate(0,341.61)" style="stroke: rgb(0, 0, 0); stroke-opacity: 1; stroke-width: 0.5px;"/><path class="ytick ticks crisp" d="M45,0h5" transform="translate(0,276.11)" style="stroke: rgb(0, 0, 0); stroke-opacity: 1; stroke-width: 0.5px;"/><path class="ytick ticks crisp" d="M45,0h5" transform="translate(0,210.62)" style="stroke: rgb(0, 0, 0); stroke-opacity: 1; stroke-width: 0.5px;"/><path class="ytick ticks crisp" d="M45,0h5" transform="translate(0,145.12)" style="stroke: rgb(0, 0, 0); stroke-opacity: 1; stroke-width: 0.5px;"/><path class="ytick ticks crisp" d="M45,0h5" transform="translate(0,79.62)" style="stroke: rgb(0, 0, 0); stroke-opacity: 1; stroke-width: 0.5px;"/><g class="ytick"><text text-anchor="end" x="41.7" y="4.8999999999999995" transform="translate(0,341.61)" style="font-family: 'Open Sans', verdana, arial, sans-serif; font-size: 14px; fill: rgb(0, 0, 0); fill-opacity: 1; white-space: pre;">0</text></g><g class="ytick"><text text-anchor="end" x="41.7" y="4.8999999999999995" style="font-family: 'Open Sans', verdana, arial, sans-serif; font-size: 14px; fill: rgb(0, 0, 0); fill-opacity: 1; white-space: pre;" transform="translate(0,276.11)">0.1</text></g><g class="ytick"><text text-anchor="end" x="41.7" y="4.8999999999999995" style="font-family: 'Open Sans', verdana, arial, sans-serif; font-size: 14px; fill: rgb(0, 0, 0); fill-opacity: 1; white-space: pre;" transform="translate(0,210.62)">0.2</text></g><g class="ytick"><text text-anchor="end" x="41.7" y="4.8999999999999995" style="font-family: 'Open Sans', verdana, arial, sans-serif; font-size: 14px; fill: rgb(0, 0, 0); fill-opacity: 1; white-space: pre;" transform="translate(0,145.12)">0.3</text></g><g class="ytick"><text text-anchor="end" x="41.7" y="4.8999999999999995" style="font-family: 'Open Sans', verdana, arial, sans-serif; font-size: 14px; fill: rgb(0, 0, 0); fill-opacity: 1; white-space: pre;" transform="translate(0,79.62)">0.4</text></g></g><g class="overaxes-above"/></g></g><g class="polarlayer"/><g class="smithlayer"/><g class="ternarylayer"/><g class="geolayer"/><g class="funnelarealayer"/><g class="pielayer"/><g class="iciclelayer"/><g class="treemaplayer"/><g class="sunburstlayer"/><g class="glimages"/><defs id="topdefs-cbd578"><g class="clips"/><clipPath id="legendcbd578"><rect width="87" height="53" x="0" y="0"/></clipPath></defs><g class="layer-above"><g class="imagelayer"/><g class="shapelayer"/></g><g class="infolayer"><g class="legend" pointer-events="all" transform="translate(500.94,30)"><rect class="bg" shape-rendering="crispEdges" style="stroke: rgb(68, 68, 68); stroke-opacity: 1; fill: rgb(255, 255, 255); fill-opacity: 1; stroke-width: 0px;" width="87" height="53" x="0" y="0"/><g class="scrollbox" transform="" clip-path="url(#legendcbd578)"><g class="groups"><g class="traces" transform="translate(0,15.6)" style="opacity: 1;"><text class="legendtext" text-anchor="start" x="40" y="5.46" style="font-family: 'Open Sans', verdana, arial, sans-serif; font-size: 14px; fill: rgb(0, 0, 0); fill-opacity: 1; white-space: pre;">Data</text><g class="layers" style="opacity: 1;"><g class="legendfill"/><g class="legendlines"><path class="js-line" d="M5,0h30" style="fill: none; stroke: rgb(128, 128, 128); stroke-opacity: 1; stroke-width: 2px;"/></g><g class="legendsymbols"><g class="legendpoints"/></g></g><rect class="legendtoggle" x="0" y="-10.6" width="81.078125" height="21.2" style="fill: rgb(0, 0, 0); fill-opacity: 0;"/></g><g class="traces" transform="translate(0,36.8)" style="opacity: 1;"><text class="legendtext" text-anchor="start" x="40" y="5.46" style="font-family: 'Open Sans', verdana, arial, sans-serif; font-size: 14px; fill: rgb(0, 0, 0); fill-opacity: 1; white-space: pre;">Model</text><g class="layers" style="opacity: 1;"><g class="legendfill"/><g class="legendlines"><path class="js-line" d="M5,0h30" style="fill: none; stroke: rgb(128, 0, 128); stroke-opacity: 1; stroke-width: 2px;"/></g><g class="legendsymbols"><g class="legendpoints"/></g></g><rect class="legendtoggle" x="0" y="-10.6" width="81.078125" height="21.2" style="fill: rgb(0, 0, 0); fill-opacity: 0;"/></g></g></g><rect class="scrollbar" rx="20" ry="3" width="0" height="0" style="fill: rgb(128, 139, 164); fill-opacity: 1;" x="0" y="0"/></g><g class="g-gtitle"><text class="gtitle" x="30" y="15" text-anchor="start" dy="0em" style="opacity: 1; font-family: 'Open Sans', verdana, arial, sans-serif; font-size: 14px; fill: rgb(0, 0, 0); fill-opacity: 1; white-space: pre;">At on Succinate 15 mM — μ: 0.9 1/h   K: 2 mM</text></g><g class="g-xtitle" transform="translate(0,5.449999999999989)"><text class="xtitle" x="268.5" y="387.8498046875" text-anchor="middle" style="opacity: 1; font-family: 'Open Sans', verdana, arial, sans-serif; font-size: 14px; fill: rgb(0, 0, 0); fill-opacity: 1; white-space: pre;">Time (hours)</text></g><g class="g-ytitle"><text class="ytitle" transform="rotate(-90,17.3001953125,193.5)" x="17.3001953125" y="193.5" text-anchor="middle" style="opacity: 1; font-family: 'Open Sans', verdana, arial, sans-serif; font-size: 14px; fill: rgb(0, 0, 0); fill-opacity: 1; white-space: pre;">OD600</text></g></g></svg>