<svg class="main-svg" xmlns="http://www.w3.org/2000/svg" xmlns:xlink="http://www.w3.org/1999/xlink" width="600" height="400" style="" viewBox="0 0 600 400"><rect x="0" y="0" width="600" height="400" style="fill: rgb(255, 255, 255); fill-opacity: 1;"/><defs id="defs-88b6ac"><g class="clips"><clipPath id="clip88b6acxyplot" class="plotclip"><rect width="439" height="327"/></clipPath><clipPath class="axesclip" id="clip88b6acx"><rect x="53" y="0" width="439" height="400"/></clipPath><clipPath class="axesclip" id="clip88b6acy"><rect x="0" y="30" width="600" height="327"/></clipPath><clipPath class="axesclip" id="clip88b6acxy"><rect x="53" y="30" width="439" height="327"/></clipPath></g><g class="gradients"/><g class="patterns"/></defs><g class="bglayer"/><g class="layer-below"><g class="imagelayer"/><g class="shapelayer"/></g><g class="cartesianlayer"><g class="subplot xy"><g class="layer-subplot"><g class="shapelayer"/><g class="imagelayer"/></g><g class="minor-gridlayer"><g class="x"/><g class="y"/></g><g class="gridlayer"><g class="x"><path class="xgrid crisp" transform="translate(126.78,0)" d="M0,30v327" style="stroke: rgb(128, 128, 128); stroke-opacity: 1; stroke-width: 0.2px;"/><path class="xgrid crisp" transform="translate(200.56,0)" d="M0,30v327" style="stroke: rgb(128, 128, 128); stroke-opacity: 1; stroke-width: 0.2px;"/><path class="xgrid crisp" transform="translate(274.35,0)" d="M0,30v327" style="stroke: rgb(128, 128, 128); stroke-opacity: 1; stroke-width: 0.2px;"/><path class="xgrid crisp" transform="translate(348.13,0)" d="M0,30v327" style="stroke: rgb(128, 128, 128); stroke-opacity: 1; stroke-width: 0.2px;"/><path class="xgrid crisp" transform="translate(421.91,0)" d="M0,30v327" style="stroke: rgb(128, 128, 128); stroke-opacity: 1; stroke-width: 0.2px;"/></g><g class="y"><path class="ygrid crisp" transform="translate(0,349.47)" d="M53,0h439" style="stroke: rgb(128, 128, 128); stroke-opacity: 1; stroke-width: 0.2px;"/><path class="ygrid crisp" transform="translate(0,261.28)" d="M53,0h439" style="stroke: rgb(128, 128, 128); stroke-opacity: 1; stroke-width: 0.2px;"/><path class="ygrid crisp" transform="translate(0,173.1)" d="M53,0h439" style="stroke: rgb(128, 128, 128); stroke-opacity: 1; stroke-width: 0.2px;"/><path class="ygrid crisp" transform="translate(0,84.92)" d="M53,0h439" style="stroke: rgb(128, 128, 128); stroke-opacity: 1; stroke-width: 0.2px;"/></g></g><g class="zerolinelayer"/><g class="layer-between"><g class="shapelayer"/><g class="imagelayer"/></g><path class="xlines-below"/><path class="ylines-below"/><g class="overlines-below"/><g class="xaxislayer-below"/><g class="yaxislayer-below"/><g class="overaxes-below"/><g class="overplot"><g class="xy" transform="translate(53,30)" clip-path="url(#clip88b6acxyplot)"><g class="scatterlayer mlayer"><g class="trace scatter trace36f58d" style="stroke-miterlimit: 2; opacity: 1;"><g class="fills"/><g class="errorbars"/><g class="lines"><path class="js-line" d="M0,306.24L5.03,304.54L7.39,305.36L11.08,302.95L14.88,303.54L22.16,300.42L25.82,300.71L29.62,299.83L34.54,300.48L36.9,298.95L40.58,298.19L44.37,297.78L49.32,295.36L51.65,294.01L58.16,291.78L61.34,289.54L64.51,289.07L66.83,286.08L70.09,285.43L73.9,283.25L78.82,282.55L84.87,283.14L88.66,285.84L99.61,285.84L103.44,286.13L108.35,286.55L110.7,287.66L118.17,288.78L123.09,288.31L132.92,287.84L137.84,288.78L140.18,287.55L143.88,287.72L147.67,286.66L152.59,287.37L167.36,287.6L169.72,286.66L177.2,287.19L182.11,287.02L184.47,287.84L188.18,290.01L191.95,286.43L196.87,290.07L199.22,283.49L202.9,290.66L206.74,285.37L211.64,283.43L214,280.55L217.65,284.61L221.46,284.49L226.38,276.55L228.73,275.08L232.42,275.08L236.21,280.2L241.14,279.43L247.2,279.49L250.99,275.61L255.89,276.26L258.24,280.08L261.95,276.14L265.74,274.79L270.67,276.08L273.02,273.73L285.44,280.2L287.75,275.26L291.46,276.2L295.25,274.61L300.2,275.26L302.51,274.67L306.22,274.55L310,278.61L314.92,277.67L317.27,279.26L320.95,277.32L324.79,278.08L329.69,273.5L332.04,272.97L344.44,272.08L346.79,275.61L350.46,270.2L354.27,269.67L359.22,272.03L361.54,272.08L365.22,269.85L369.03,271.56L373.95,269.67L376.3,277.9L379.98,272.26L383.79,273.85L390.77,279.96L392.35,270.26L395.53,271.85L399.4,275.67L403.96,281.78L405.93,246.45L412.18,251.04L415.38,269.61L420.59,248.57L424.24,259.21L428.08,269.61L432.97,277.32L435.31,277.55L439,276.14" style="vector-effect: none; fill: none; stroke: rgb(128, 128, 128); stroke-opacity: 1; stroke-width: 2px; opacity: 1;"/></g><g class="points"/><g class="text"/></g><g class="trace scatter tracebf42c4" style="stroke-miterlimit: 2; opacity: 1;"><g class="fills"/><g class="errorbars"/><g class="lines"><path class="js-line" d="M0,307.48L5.03,305.59L7.39,306.06L14.88,303.54L19.79,288.07L22.16,302.01L25.82,302.3L29.62,302.65L34.54,300.66L36.9,300.71L40.58,281.61L44.37,298.3L49.32,281.96L51.65,273.55L58.16,275.2L61.34,282.84L64.51,288.37L66.83,288.37L70.09,278.9L73.9,275.49L78.82,266.15L81.18,274.85L84.87,274.32L88.66,274.91L93.58,263.85L95.93,272.2L99.61,275.08L103.44,286.66L108.35,284.96L110.7,279.37L114.39,287.08L123.09,287.43L125.44,287.13L129.12,285.66L132.92,285.9L143.88,286.13L147.67,279.43L154.97,284.9L158.66,285.84L162.44,283.08L167.36,282.67L169.72,274.14L173.39,274.49L182.11,285.08L184.47,274.26L188.18,276.26L191.95,273.91L196.87,278.26L199.22,283.67L202.9,277.26L206.74,277.08L211.64,279.02L214,274.73L217.65,276.67L221.46,279.55L226.38,263.5L228.73,262.21L232.42,273.67L236.21,259.39L243.49,259.27L247.2,259.74L250.99,259.03L255.89,275.02L258.24,269.14L261.95,257.27L265.74,261.03L270.67,257.03L273.02,254.51L276.71,262.44L280.49,261.8L285.44,262.38L291.46,259.62L295.25,256.09L300.2,261.68L302.51,256.68L306.22,258.15L310,267.32L314.92,261.27L317.27,266.21L320.95,258.44L324.79,257.27L329.69,257.8L332.04,259.56L335.71,264.27L339.54,259.21L346.79,260.62L350.46,256.98L354.27,255.21L359.22,266.73L361.54,260.62L365.22,258.39L369.03,268.38L373.95,262.44L376.3,264.15L379.98,261.5L383.79,255.15L390.77,266.21L392.35,251.57L395.53,252.1L399.4,253.98L403.96,234.69L405.93,196.54L412.18,224.93L415.38,156.92L418.55,108.3L420.59,63.56L424.24,66.44L428.08,38.75L432.97,36.93L439,16.35" style="vector-effect: none; fill: none; stroke: rgb(128, 128, 128); stroke-opacity: 1; stroke-width: 2px; opacity: 1;"/></g><g class="points"/><g class="text"/></g><g class="trace scatter trace9e2148" style="stroke-miterlimit: 2; opacity: 1;"><g class="fills"/><g class="errorbars"/><g class="lines"><path class="js-line" d="M0,309.59L7.39,308.36L11.08,307.89L19.79,305.89L22.16,305.89L25.82,304.42L29.62,304.24L36.9,301.95L40.58,300.66L44.37,301.3L49.32,298.54L58.16,296.01L61.34,293.07L66.83,292.6L70.09,290.72L73.9,288.9L78.82,287.49L81.18,284.9L84.87,287.55L88.66,288.31L93.58,287.84L95.93,287.19L99.61,288.31L103.44,288.96L108.35,288.84L110.7,289.6L114.39,289.72L123.09,290.07L125.44,289.43L132.92,288.55L137.84,289.13L140.18,288.43L143.88,288.78L154.97,288.07L158.66,289.02L162.44,288.37L167.36,288.49L169.72,287.72L173.39,288.43L177.2,287.9L182.11,288.6L188.18,291.07L191.95,288.72L199.22,291.78L202.9,291.37L206.74,291.54L211.64,290.13L214,289.37L217.65,289.19L226.38,289.25L228.73,286.72L236.21,287.43L241.14,287.19L247.2,287.08L250.99,287.25L255.89,286.31L258.24,287.31L276.71,286.61L280.49,285.08L285.44,286.9L287.75,286.37L291.46,286.43L295.25,287.31L302.51,286.31L306.22,287.25L324.79,287.43L329.69,286.72L339.54,287.08L344.44,286.9L346.79,286.37L350.46,287.31L354.27,286.43L359.22,287.02L373.95,286.43L376.3,286.9L395.53,284.72L399.4,286.08L403.96,255.33L405.93,214.53L412.18,231.28L415.38,189.01L420.59,124.41L424.24,102.95L428.08,77.02L432.97,54.74L435.31,33.1L439,17.06" style="vector-effect: none; fill: none; stroke: rgb(128, 128, 128); stroke-opacity: 1; stroke-width: 2px; opacity: 1;"/></g><g class="points"/><g class="text"/></g><g class="trace scatter trace0f4e1a" style="stroke-miterlimit: 2; opacity: 1;"><g class="fills"/><g class="errorbars"/><g class="lines"><path class="js-line" d="M0,310.65L29.62,309.61L34.54,309.28L58.16,306.74L61.34,306.28L84.87,301.97L88.66,301.13L114.39,294.4L118.17,293.26L143.88,284.59L147.67,283.18L184.47,268.52L188.18,267L221.46,254.01L226.38,252.27L247.2,245.65L250.99,244.59L273.02,239.31L276.71,238.57L302.51,234.46L306.22,234L335.71,231.28L339.54,231.03L379.98,229.27L383.79,229.17L439,228.34" style="vector-effect: none; fill: none; stroke: rgb(128, 0, 128); stroke-opacity: 1; stroke-width: 2px; opacity: 1;"/></g><g class="points"/><g class="text"/></g></g></g></g><g class="zerolinelayer-above"/><path class="xlines-above crisp" d="M52.5,357.25H492.5M52.5,29.75H492.5" style="fill: none; stroke-width: 0.5px; stroke: rgb(0, 0, 0); stroke-opacity: 1;"/><path class="ylines-above crisp" d="M52.75,30V357M492.25,30V357" style="fill: none; stroke-width: 0.5px; stroke: rgb(0, 0, 0); stroke-opacity: 1;"/><g class="overlines-above"/><g class="xaxislayer-above"><path class="xtick ticks crisp" d="M0,357v-5" transform="translate(126.78,0)" style="stroke: rgb(0, 0, 0); stroke-opacity: 1; stroke-width: 0.5px;"/><path class="xtick ticks crisp" d="M0,357v-5" transform="translate(200.56,0)" style="stroke: rgb(0, 0, 0); stroke-opacity: 1; stroke-width: 0.5px;"/><path class="xtick ticks crisp" d="M0,357v-5" transform="translate(274.35,0)" style="stroke: rgb(0, 0, 0); stroke-opacity: 1; stroke-width: 0.5px;"/><path class="xtick ticks crisp" d="M0,357v-5" transform="translate(348.13,0)" style="stroke: rgb(0, 0, 0); stroke-opacity: 1; stroke-width: 0.5px;"/><path class="xtick ticks crisp" d="M0,357v-5" transform="translate(421.91,0)" style="stroke: rgb(0, 0, 0); stroke-opacity: 1; stroke-width: 0.5px;"/><g class="xtick"><text text-anchor="middle" x="0" y="374.3" transform="translate(53,0)" style="font-family: 'Open Sans', verdana, arial, sans-serif; font-size: 14px; fill: rgb(0, 0, 0); fill-opacity: 1; white-space: pre;">0</text></g><g class="xtick"><text text-anchor="middle" x="0" y="374.3" style="font-family: 'Open Sans', verdana, arial, sans-serif; font-size: 14px; fill: rgb(0, 0, 0); fill-opacity: 1; white-space: pre;" transform="translate(126.78,0)">5</text></g><g class="xtick"><text text-anchor="middle" x="0" y="374.3" style="font-family: 'Open Sans', verdana, arial, sans-serif; font-size: 14px; fill: rgb(0, 0, 0); fill-opacity: 1; white-space: pre;" transform="translate(200.56,0)">10</text></g><g class="xtick"><text text-anchor="middle" x="0" y="374.3" style="font-family: 'Open Sans', verdana, arial, sans-serif; font-size: 14px; fill: rgb(0, 0, 0); fill-opacity: 1; white-space: pre;" transform="translate(274.35,0)">15</text></g><g class="xtick"><text text-anchor="middle" x="0" y="374.3" style="font-family: 'Open Sans', verdana, arial, sans-serif; font-size: 14px; fill: rgb(0, 0, 0); fill-opacity: 1; white-space: pre;" transform="translate(348.13,0)">20</text></g><g class="xtick"><text text-anchor="middle" x="0" y="374.3" style="font-family: 'Open Sans', verdana, arial, sans-serif; font-size: 14px; fill: rgb(0, 0, 0); fill-opacity: 1; white-space: pre;" transform="translate(421.91,0)">25</text></g></g><g class="yaxislayer-above"><path class="ytick ticks crisp" d="M53,0h5" transform="translate(0,349.47)" style="stroke: rgb(0, 0, 0); stroke-opacity: 1; stroke-width: 0.5px;"/><path class="ytick ticks crisp" d="M53,0h5" transform="translate(0,261.28)" style="stroke: rgb(0, 0, 0); stroke-opacity: 1; stroke-width: 0.5px;"/><path class="ytick ticks crisp" d="M53,0h5" transform="translate(0,173.1)" style="stroke: rgb(0, 0, 0); stroke-opacity: 1; stroke-width: 0.5px;"/><path class="ytick ticks crisp" d="M53,0h5" transform="translate(0,84.92)" style="stroke: rgb(0, 0, 0); stroke-opacity: 1; stroke-width: 0.5px;"/><g class="ytick"><text text-anchor="end" x="49.7" y="4.8999999999999995" transform="translate(0,349.47)" style="font-family: 'Open Sans', verdana, arial, sans-serif; font-size: 14px; fill: rgb(0, 0, 0); fill-opacity: 1; white-space: pre;">0</text></g><g class="ytick"><text text-anchor="end" x="49.7" y="4.8999999999999995" style="font-family: 'Open Sans', verdana, arial, sans-serif; font-size: 14px; fill: rgb(0, 0, 0); fill-opacity: 1; white-space: pre;" transform="translate(0,261.28)">0.05</text></g><g class="ytick"><text text-anchor="end" x="49.7" y="4.8999999999999995" style="font-family: 'Open Sans', verdana, arial, sans-serif; font-size: 14px; fill: rgb(0, 0, 0); fill-opacity: 1; white-space: pre;" transform="translate(0,173.1)">0.1</text></g><g class="ytick"><text text-anchor="end" x="49.7" y="4.8999999999999995" style="font-family: 'Open Sans', verdana, arial, sans-serif; font-size: 14px; fill: rgb(0, 0, 0); fill-opacity: 1; white-space: pre;" transform="translate(0,84.92)">0.15</text></g></g><g class="overaxes-above"/></g></g><g class="polarlayer"/><g class="smithlayer"/><g class="ternarylayer"/><g class="geolayer"/><g class="funnelarealayer"/><g class="pielayer"/><g class="iciclelayer"/><g class="treemaplayer"/><g class="sunburstlayer"/><g class="glimages"/><defs id="topdefs-88b6ac"><g class="clips"/><clipPath id="legend88b6ac"><rect width="87" height="53" x="0" y="0"/></clipPath></defs><g class="layer-above"><g class="imagelayer"/><g class="shapelayer"/></g><g class="infolayer"><g class="legend" pointer-events="all" transform="translate(500.78000000000003,30)"><rect class="bg" shape-rendering="crispEdges" style="stroke: rgb(68, 68, 68); stroke-opacity: 1; fill: rgb(255, 255, 255); fill-opacity: 1; stroke-width: 0px;" width="87" height="53" x="0" y="0"/><g class="scrollbox" transform="" clip-path="url(#legend88b6ac)"><g class="groups"><g class="traces" transform="translate(0,15.6)" style="opacity: 1;"><text class="legendtext" text-anchor="start" x="40" y="5.46" style="font-family: 'Open Sans', verdana, arial, sans-serif; font-size: 14px; fill: rgb(0, 0, 0); fill-opacity: 1; white-space: pre;">Data</text><g class="layers" style="opacity: 1;"><g class="legendfill"/><g class="legendlines"><path class="js-line" d="M5,0h30" style="fill: none; stroke: rgb(128, 128, 128); stroke-opacity: 1; stroke-width: 2px;"/></g><g class="legendsymbols"><g class="legendpoints"/></g></g><rect class="legendtoggle" x="0" y="-10.6" width="81.078125" height="21.2" style="fill: rgb(0, 0, 0); fill-opacity: 0;"/></g><g class="traces" transform="translate(0,36.8)" style="opacity: 1;"><text class="legendtext" text-anchor="start" x="40" y="5.46" style="font-family: 'Open Sans', verdana, arial, sans-serif; font-size: 14px; fill: rgb(0, 0, 0); fill-opacity: 1; white-space: pre;">Model</text><g class="layers" style="opacity: 1;"><g class="legendfill"/><g class="legendlines"><path class="js-line" d="M5,0h30" style="fill: none; stroke: rgb(128, 0, 128); stroke-opacity: 1; stroke-width: 2px;"/></g><g class="legendsymbols"><g class="legendpoints"/></g></g><rect class="legendtoggle" x="0" y="-10.6" width="81.078125" height="21.2" style="fill: rgb(0, 0, 0); fill-opacity: 0;"/></g></g></g><rect class="scrollbar" rx="20" ry="3" width="0" height="0" style="fill: rgb(128, 139, 164); fill-opacity: 1;" x="0" y="0"/></g><g class="g-gtitle"><text class="gtitle" x="30" y="15" text-anchor="start" dy="0em" style="opacity: 1; font-family: 'Open Sans', verdana, arial, sans-serif; font-size: 14px; fill: rgb(0, 0, 0); fill-opacity: 1; white-space: pre;">At on Succinate 2.5 mM — μ: 0.7 1/h   K: 1.5 mM</text></g><g class="g-xtitle" transform="translate(0,5.449999999999989)"><text class="xtitle" x="272.5" y="387.8498046875" text-anchor="middle" style="opacity: 1; font-family: 'Open Sans', verdana, arial, sans-serif; font-size: 14px; fill: rgb(0, 0, 0); fill-opacity: 1; white-space: pre;">Time (hours)</text></g><g class="g-ytitle"><text class="ytitle" transform="rotate(-90,17.3001953125,193.5)" x="17.3001953125" y="193.5" text-anchor="middle" style="opacity: 1; font-family: 'Open Sans', verdana, arial, sans-serif; font-size: 14px; fill: rgb(0, 0, 0); fill-opacity: 1; white-space: pre;">OD600</text></g></g></svg>