<svg class="main-svg" xmlns="http://www.w3.org/2000/svg" xmlns:xlink="http://www.w3.org/1999/xlink" width="600" height="400" style="" viewBox="0 0 600 400"><rect x="0" y="0" width="600" height="400" style="fill: rgb(255, 255, 255); fill-opacity: 1;"/><defs id="defs-dadc2f"><g class="clips"><clipPath id="clipdadc2fxyplot" class="plotclip"><rect width="439" height="327"/></clipPath><clipPath class="axesclip" id="clipdadc2fx"><rect x="53" y="0" width="439" height="400"/></clipPath><clipPath class="axesclip" id="clipdadc2fy"><rect x="0" y="30" width="600" height="327"/></clipPath><clipPath class="axesclip" id="clipdadc2fxy"><rect x="53" y="30" width="439" height="327"/></clipPath></g><g class="gradients"/><g class="patterns"/></defs><g class="bglayer"/><g class="layer-below"><g class="imagelayer"/><g class="shapelayer"/></g><g class="cartesianlayer"><g class="subplot xy"><g class="layer-subplot"><g class="shapelayer"/><g class="imagelayer"/></g><g class="minor-gridlayer"><g class="x"/><g class="y"/></g><g class="gridlayer"><g class="x"><path class="xgrid crisp" transform="translate(126.78,0)" d="M0,30v327" style="stroke: rgb(128, 128, 128); stroke-opacity: 1; stroke-width: 0.2px;"/><path class="xgrid crisp" transform="translate(200.56,0)" d="M0,30v327" style="stroke: rgb(128, 128, 128); stroke-opacity: 1; stroke-width: 0.2px;"/><path class="xgrid crisp" transform="translate(274.34000000000003,0)" d="M0,30v327" style="stroke: rgb(128, 128, 128); stroke-opacity: 1; stroke-width: 0.2px;"/><path class="xgrid crisp" transform="translate(348.13,0)" d="M0,30v327" style="stroke: rgb(128, 128, 128); stroke-opacity: 1; stroke-width: 0.2px;"/><path class="xgrid crisp" transform="translate(421.91,0)" d="M0,30v327" style="stroke: rgb(128, 128, 128); stroke-opacity: 1; stroke-width: 0.2px;"/></g><g class="y"><path class="ygrid crisp" transform="translate(0,319.49)" d="M53,0h439" style="stroke: rgb(128, 128, 128); stroke-opacity: 1; stroke-width: 0.2px;"/><path class="ygrid crisp" transform="translate(0,277.15999999999997)" d="M53,0h439" style="stroke: rgb(128, 128, 128); stroke-opacity: 1; stroke-width: 0.2px;"/><path class="ygrid crisp" transform="translate(0,234.84)" d="M53,0h439" style="stroke: rgb(128, 128, 128); stroke-opacity: 1; stroke-width: 0.2px;"/><path class="ygrid crisp" transform="translate(0,192.51)" d="M53,0h439" style="stroke: rgb(128, 128, 128); stroke-opacity: 1; stroke-width: 0.2px;"/><path class="ygrid crisp" transform="translate(0,150.19)" d="M53,0h439" style="stroke: rgb(128, 128, 128); stroke-opacity: 1; stroke-width: 0.2px;"/><path class="ygrid crisp" transform="translate(0,107.86)" d="M53,0h439" style="stroke: rgb(128, 128, 128); stroke-opacity: 1; stroke-width: 0.2px;"/><path class="ygrid crisp" transform="translate(0,65.53999999999999)" d="M53,0h439" style="stroke: rgb(128, 128, 128); stroke-opacity: 1; stroke-width: 0.2px;"/></g></g><g class="zerolinelayer"/><g class="layer-between"><g class="shapelayer"/><g class="imagelayer"/></g><path class="xlines-below"/><path class="ylines-below"/><g class="overlines-below"/><g class="xaxislayer-below"/><g class="yaxislayer-below"/><g class="overaxes-below"/><g class="overplot"><g class="xy" transform="translate(53,30)" clip-path="url(#clipdadc2fxyplot)"><g class="scatterlayer mlayer"><g class="trace scatter tracec7cb34" style="stroke-miterlimit: 2; opacity: 1;"><g class="fills"/><g class="errorbars"/><g class="lines"><path class="js-line" d="M0,305.29L5.04,305.43L7.79,304.16L11.08,306.7L14.88,306.84L19.8,309.52L22.16,306.98L25.82,305.01L29.63,304.44L36.9,298.09L40.58,300.07L44.38,300.49L49.33,302.18L51.66,301.62L58.17,301.62L65.25,301.34L66.83,302.04L70.1,301.34L73.9,296.68L78.82,299.79L81.18,299.22L84.88,295.98L88.66,294.57L93.58,291.04L95.94,291.74L99.61,286.24L103.44,285.4L108.35,285.68L110.71,283.56L114.39,280.03L118.18,279.47L125.45,273.97L129.12,275.1L132.93,272.84L137.84,267.76L140.19,267.76L143.88,265.5L152.6,257.32L154.98,256.9L158.65,254.36L162.45,250.55L169.72,250.83L173.39,248.43L177.2,247.87L182.12,246.03L184.48,247.59L188.18,246.03L191.96,246.32L196.87,244.76L199.23,245.61L202.9,244.2L206.74,246.17L211.64,244.76L214,245.89L217.66,240.25L221.46,240.53L226.38,239.54L228.74,239.54L232.42,242.93L236.22,246.32L241.14,245.47L247.2,247.3L251,246.46L255.89,246.6L258.24,245.89L265.74,246.6L270.68,244.48L273.03,243.64L276.71,247.87L280.49,246.88L285.44,241.52L287.75,247.73L291.47,247.02L295.25,245.47L300.21,247.16L302.51,248.43L306.23,248.71L310.01,247.59L314.92,247.3L320.95,247.16L324.79,245.19L329.69,244.34L332.04,246.46L335.71,243.64L339.54,245.33L344.44,242.93L346.79,244.06L350.46,243.07L354.28,243.92L359.22,243.21L361.54,245.05L365.23,242.93L369.03,243.78L376.3,246.03L379.98,243.92L383.79,244.34L390.77,244.2L392.36,243.92L395.53,244.34L399.4,246.6L404,202.16L408.52,169.57L412.17,209.63L415.38,210.34L418.55,206.39L420.59,203.85L424.24,216.83L428.08,207.52L432.97,217.25L435.31,226L439,218.38" style="vector-effect: none; fill: none; stroke: rgb(128, 128, 128); stroke-opacity: 1; stroke-width: 2px; opacity: 1;"/></g><g class="points"/><g class="text"/></g><g class="trace scatter trace8a61b2" style="stroke-miterlimit: 2; opacity: 1;"><g class="fills"/><g class="errorbars"/><g class="lines"><path class="js-line" d="M0,270.58L5.04,255.91L7.79,250.41L11.08,252.95L14.88,253.09L19.8,252.81L22.16,259.15L25.82,256.76L29.63,258.31L34.55,260.28L36.9,258.73L40.58,261.55L44.38,261.13L49.33,258.59L51.66,259.3L58.17,258.87L61.35,259.86L65.25,256.9L66.83,254.64L70.1,259.01L73.9,255.2L78.82,257.88L81.18,255.2L84.88,255.35L88.66,254.36L93.58,252.52L95.94,250.69L99.61,252.81L103.44,250.69L108.35,247.59L110.71,243.78L114.39,244.91L118.18,237.57L123.08,239.4L125.45,235.03L129.12,239.54L132.93,238.56L137.84,227.55L140.19,227.55L143.88,229.53L147.67,224.31L154.98,218.38L158.65,186.21L162.45,181.14L167.36,177.33L169.72,172.53L173.39,176.06L177.2,213.16L182.12,212.6L184.48,182.41L188.18,210.9L191.96,176.06L196.87,211.75L199.23,211.75L202.9,203.99L206.74,168.3L211.64,191.86L214,173.09L217.66,209.78L221.46,210.9L226.38,210.76L228.74,166.74L232.42,206.53L236.22,209.07L241.14,208.22L243.5,180.15L247.2,169L251,185.93L255.89,183.11L258.24,170.13L261.96,170.7L265.74,207.24L270.68,206.39L273.03,169.14L276.71,201.31L280.49,207.52L285.44,188.19L287.75,197.36L291.47,187.34L295.25,191.29L300.21,194.26L302.51,195.53L306.23,171.68L310.01,179.87L314.92,187.2L317.27,182.26L320.95,188.33L324.79,169.43L329.69,176.62L332.04,166.04L335.71,179.3L339.54,191.15L344.44,187.48L346.79,188.19L350.46,177.89L354.28,191.01L359.22,167.03L361.54,178.17L365.23,168.01L369.03,167.59L373.95,178.03L376.3,166.46L379.98,175.35L383.79,160.11L390.77,161.24L392.36,170.27L395.53,161.38L399.4,168.3L404,129.78L408.52,16.35L412.17,121.17L415.38,151.08L418.55,139.09L420.59,138.25L424.24,152.07L428.08,138.95L432.97,150.38L435.31,151.51L439,151.51" style="vector-effect: none; fill: none; stroke: rgb(128, 128, 128); stroke-opacity: 1; stroke-width: 2px; opacity: 1;"/></g><g class="points"/><g class="text"/></g><g class="trace scatter trace686b61" style="stroke-miterlimit: 2; opacity: 1;"><g class="fills"/><g class="errorbars"/><g class="lines"><path class="js-line" d="M0,306.14L7.79,305.01L11.08,304.58L19.8,306.56L22.16,305.71L25.82,302.04L29.63,302.33L36.9,301.9L40.58,298.38L44.38,299.22L49.33,298.38L58.17,299.08L61.35,298.38L65.25,294.99L66.83,295.27L70.1,294.14L73.9,293.72L78.82,291.32L81.18,293.3L84.88,289.21L88.66,290.33L93.58,287.23L95.94,287.09L99.61,287.51L103.44,284.13L108.35,281.87L110.71,282.29L114.39,280.88L118.18,272.7L123.08,267.76L125.45,268.89L129.12,270.02L132.93,268.61L137.84,262.26L140.19,261.41L152.6,252.66L154.98,248.43L158.65,245.47L162.45,246.32L167.36,245.89L169.72,244.48L173.39,246.32L177.2,244.48L182.12,245.19L184.48,246.74L188.18,246.46L191.96,244.62L196.87,243.49L199.23,243.92L211.64,245.61L214,243.35L226.38,246.74L228.74,245.47L232.42,249.7L236.22,245.05L243.5,244.48L247.2,244.76L251,243.07L255.89,244.06L258.24,242.93L261.96,243.49L265.74,244.06L270.68,243.21L273.03,241.94L276.71,245.75L285.44,245.33L287.75,246.03L291.47,244.48L295.25,243.78L300.21,246.32L302.51,245.47L306.23,246.17L310.01,245.05L320.95,245.05L324.79,243.92L332.04,244.76L335.71,242.79L339.54,244.48L344.44,243.35L346.79,243.21L350.46,242.22L354.28,241.8L359.22,242.37L361.54,243.35L365.23,241.66L373.95,245.75L376.3,246.88L379.98,243.49L383.79,242.65L390.77,242.51L392.36,243.49L395.53,243.49L399.4,247.44L404,212.74L408.52,63.33L412.17,67.85L415.38,224.31L418.55,222.05L420.59,211.47L424.24,230.37L428.08,223.18L432.97,231.64L435.31,232.35L439,228.96" style="vector-effect: none; fill: none; stroke: rgb(128, 128, 128); stroke-opacity: 1; stroke-width: 2px; opacity: 1;"/></g><g class="points"/><g class="text"/></g><g class="trace scatter trace1c3776" style="stroke-miterlimit: 2; opacity: 1;"><g class="fills"/><g class="errorbars"/><g class="lines"><path class="js-line" d="M0,310.65L36.9,308.83L40.58,308.51L61.35,305.89L65.25,305.19L81.18,301.34L84.88,300.16L95.94,295.85L99.61,294.12L110.71,287.9L114.39,285.49L129.12,274.43L132.93,271.32L152.6,256.07L154.98,254.51L162.45,250.24L167.36,247.97L177.2,244.63L182.12,243.46L191.96,241.89L196.87,241.39L217.66,240.38L221.46,240.3L291.47,240.05L295.25,240.05L439,240.05" style="vector-effect: none; fill: none; stroke: rgb(128, 0, 128); stroke-opacity: 1; stroke-width: 2px; opacity: 1;"/></g><g class="points"/><g class="text"/></g></g></g></g><g class="zerolinelayer-above"/><path class="xlines-above crisp" d="M52.5,357.25H492.5M52.5,29.75H492.5" style="fill: none; stroke-width: 0.5px; stroke: rgb(0, 0, 0); stroke-opacity: 1;"/><path class="ylines-above crisp" d="M52.75,30V357M492.25,30V357" style="fill: none; stroke-width: 0.5px; stroke: rgb(0, 0, 0); stroke-opacity: 1;"/><g class="overlines-above"/><g class="xaxislayer-above"><path class="xtick ticks crisp" d="M0,357v-5" transform="translate(126.78,0)" style="stroke: rgb(0, 0, 0); stroke-opacity: 1; stroke-width: 0.5px;"/><path class="xtick ticks crisp" d="M0,357v-5" transform="translate(200.56,0)" style="stroke: rgb(0, 0, 0); stroke-opacity: 1; stroke-width: 0.5px;"/><path class="xtick ticks crisp" d="M0,357v-5" transform="translate(274.34000000000003,0)" style="stroke: rgb(0, 0, 0); stroke-opacity: 1; stroke-width: 0.5px;"/><path class="xtick ticks crisp" d="M0,357v-5" transform="translate(348.13,0)" style="stroke: rgb(0, 0, 0); stroke-opacity: 1; stroke-width: 0.5px;"/><path class="xtick ticks crisp" d="M0,357v-5" transform="translate(421.91,0)" style="stroke: rgb(0, 0, 0); stroke-opacity: 1; stroke-width: 0.5px;"/><g class="xtick"><text text-anchor="middle" x="0" y="374.3" transform="translate(53,0)" style="font-family: 'Open Sans', verdana, arial, sans-serif; font-size: 14px; fill: rgb(0, 0, 0); fill-opacity: 1; white-space: pre;">0</text></g><g class="xtick"><text text-anchor="middle" x="0" y="374.3" style="font-family: 'Open Sans', verdana, arial, sans-serif; font-size: 14px; fill: rgb(0, 0, 0); fill-opacity: 1; white-space: pre;" transform="translate(126.78,0)">5</text></g><g class="xtick"><text text-anchor="middle" x="0" y="374.3" style="font-family: 'Open Sans', verdana, arial, sans-serif; font-size: 14px; fill: rgb(0, 0, 0); fill-opacity: 1; white-space: pre;" transform="translate(200.56,0)">10</text></g><g class="xtick"><text text-anchor="middle" x="0" y="374.3" style="font-family: 'Open Sans', verdana, arial, sans-serif; font-size: 14px; fill: rgb(0, 0, 0); fill-opacity: 1; white-space: pre;" transform="translate(274.34000000000003,0)">15</text></g><g class="xtick"><text text-anchor="middle" x="0" y="374.3" style="font-family: 'Open Sans', verdana, arial, sans-serif; font-size: 14px; fill: rgb(0, 0, 0); fill-opacity: 1; white-space: pre;" transform="translate(348.13,0)">20</text></g><g class="xtick"><text text-anchor="middle" x="0" y="374.3" style="font-family: 'Open Sans', verdana, arial, sans-serif; font-size: 14px; fill: rgb(0, 0, 0); fill-opacity: 1; white-space: pre;" transform="translate(421.91,0)">25</text></g></g><g class="yaxislayer-above"><path class="ytick ticks crisp" d="M53,0h5" transform="translate(0,319.49)" style="stroke: rgb(0, 0, 0); stroke-opacity: 1; stroke-width: 0.5px;"/><path class="ytick ticks crisp" d="M53,0h5" transform="translate(0,277.15999999999997)" style="stroke: rgb(0, 0, 0); stroke-opacity: 1; stroke-width: 0.5px;"/><path class="ytick ticks crisp" d="M53,0h5" transform="translate(0,234.84)" style="stroke: rgb(0, 0, 0); stroke-opacity: 1; stroke-width: 0.5px;"/><path class="ytick ticks crisp" d="M53,0h5" transform="translate(0,192.51)" style="stroke: rgb(0, 0, 0); stroke-opacity: 1; stroke-width: 0.5px;"/><path class="ytick ticks crisp" d="M53,0h5" transform="translate(0,150.19)" style="stroke: rgb(0, 0, 0); stroke-opacity: 1; stroke-width: 0.5px;"/><path class="ytick ticks crisp" d="M53,0h5" transform="translate(0,107.86)" style="stroke: rgb(0, 0, 0); stroke-opacity: 1; stroke-width: 0.5px;"/><path class="ytick ticks crisp" d="M53,0h5" transform="translate(0,65.53999999999999)" style="stroke: rgb(0, 0, 0); stroke-opacity: 1; stroke-width: 0.5px;"/><g class="ytick"><text text-anchor="end" x="49.7" y="4.8999999999999995" transform="translate(0,319.49)" style="font-family: 'Open Sans', verdana, arial, sans-serif; font-size: 14px; fill: rgb(0, 0, 0); fill-opacity: 1; white-space: pre;">0.01</text></g><g class="ytick"><text text-anchor="end" x="49.7" y="4.8999999999999995" style="font-family: 'Open Sans', verdana, arial, sans-serif; font-size: 14px; fill: rgb(0, 0, 0); fill-opacity: 1; white-space: pre;" transform="translate(0,277.15999999999997)">0.02</text></g><g class="ytick"><text text-anchor="end" x="49.7" y="4.8999999999999995" style="font-family: 'Open Sans', verdana, arial, sans-serif; font-size: 14px; fill: rgb(0, 0, 0); fill-opacity: 1; white-space: pre;" transform="translate(0,234.84)">0.03</text></g><g class="ytick"><text text-anchor="end" x="49.7" y="4.8999999999999995" style="font-family: 'Open Sans', verdana, arial, sans-serif; font-size: 14px; fill: rgb(0, 0, 0); fill-opacity: 1; white-space: pre;" transform="translate(0,192.51)">0.04</text></g><g class="ytick"><text text-anchor="end" x="49.7" y="4.8999999999999995" style="font-family: 'Open Sans', verdana, arial, sans-serif; font-size: 14px; fill: rgb(0, 0, 0); fill-opacity: 1; white-space: pre;" transform="translate(0,150.19)">0.05</text></g><g class="ytick"><text text-anchor="end" x="49.7" y="4.8999999999999995" style="font-family: 'Open Sans', verdana, arial, sans-serif; font-size: 14px; fill: rgb(0, 0, 0); fill-opacity: 1; white-space: pre;" transform="translate(0,107.86)">0.06</text></g><g class="ytick"><text text-anchor="end" x="49.7" y="4.8999999999999995" style="font-family: 'Open Sans', verdana, arial, sans-serif; font-size: 14px; fill: rgb(0, 0, 0); fill-opacity: 1; white-space: pre;" transform="translate(0,65.53999999999999)">0.07</text></g></g><g class="overaxes-above"/></g></g><g class="polarlayer"/><g class="smithlayer"/><g class="ternarylayer"/><g class="geolayer"/><g class="funnelarealayer"/><g class="pielayer"/><g class="iciclelayer"/><g class="treemaplayer"/><g class="sunburstlayer"/><g class="glimages"/><defs id="topdefs-dadc2f"><g class="clips"/><clipPath id="legenddadc2f"><rect width="87" height="53" x="0" y="0"/></clipPath></defs><g class="layer-above"><g class="imagelayer"/><g class="shapelayer"/></g><g class="infolayer"><g class="legend" pointer-events="all" transform="translate(500.78000000000003,30)"><rect class="bg" shape-rendering="crispEdges" style="stroke: rgb(68, 68, 68); stroke-opacity: 1; fill: rgb(255, 255, 255); fill-opacity: 1; stroke-width: 0px;" width="87" height="53" x="0" y="0"/><g class="scrollbox" transform="" clip-path="url(#legenddadc2f)"><g class="groups"><g class="traces" transform="translate(0,15.6)" style="opacity: 1;"><text class="legendtext" text-anchor="start" x="40" y="5.46" style="font-family: 'Open Sans', verdana, arial, sans-serif; font-size: 14px; fill: rgb(0, 0, 0); fill-opacity: 1; white-space: pre;">Data</text><g class="layers" style="opacity: 1;"><g class="legendfill"/><g class="legendlines"><path class="js-line" d="M5,0h30" style="fill: none; stroke: rgb(128, 128, 128); stroke-opacity: 1; stroke-width: 2px;"/></g><g class="legendsymbols"><g class="legendpoints"/></g></g><rect class="legendtoggle" x="0" y="-10.6" width="81.078125" height="21.2" style="fill: rgb(0, 0, 0); fill-opacity: 0;"/></g><g class="traces" transform="translate(0,36.8)" style="opacity: 1;"><text class="legendtext" text-anchor="start" x="40" y="5.46" style="font-family: 'Open Sans', verdana, arial, sans-serif; font-size: 14px; fill: rgb(0, 0, 0); fill-opacity: 1; white-space: pre;">Model</text><g class="layers" style="opacity: 1;"><g class="legendfill"/><g class="legendlines"><path class="js-line" d="M5,0h30" style="fill: none; stroke: rgb(128, 0, 128); stroke-opacity: 1; stroke-width: 2px;"/></g><g class="legendsymbols"><g class="legendpoints"/></g></g><rect class="legendtoggle" x="0" y="-10.6" width="81.078125" height="21.2" style="fill: rgb(0, 0, 0); fill-opacity: 0;"/></g></g></g><rect class="scrollbar" rx="20" ry="3" width="0" height="0" style="fill: rgb(128, 139, 164); fill-opacity: 1;" x="0" y="0"/></g><g class="g-gtitle"><text class="gtitle" x="30" y="15" text-anchor="start" dy="0em" style="opacity: 1; font-family: 'Open Sans', verdana, arial, sans-serif; font-size: 14px; fill: rgb(0, 0, 0); fill-opacity: 1; white-space: pre;">At on Glucose 2.5 mM — μ: 3 1/h   K: 1.5 mM</text></g><g class="g-xtitle" transform="translate(0,5.449999999999989)"><text class="xtitle" x="272.5" y="387.8498046875" text-anchor="middle" style="opacity: 1; font-family: 'Open Sans', verdana, arial, sans-serif; font-size: 14px; fill: rgb(0, 0, 0); fill-opacity: 1; white-space: pre;">Time (hours)</text></g><g class="g-ytitle"><text class="ytitle" transform="rotate(-90,17.3001953125,193.5)" x="17.3001953125" y="193.5" text-anchor="middle" style="opacity: 1; font-family: 'Open Sans', verdana, arial, sans-serif; font-size: 14px; fill: rgb(0, 0, 0); fill-opacity: 1; white-space: pre;">OD600</text></g></g></svg>