<svg class="main-svg" xmlns="http://www.w3.org/2000/svg" xmlns:xlink="http://www.w3.org/1999/xlink" width="600" height="400" style="" viewBox="0 0 600 400"><rect x="0" y="0" width="600" height="400" style="fill: rgb(255, 255, 255); fill-opacity: 1;"/><defs id="defs-3df175"><g class="clips"><clipPath id="clip3df175xyplot" class="plotclip"><rect width="439" height="327"/></clipPath><clipPath class="axesclip" id="clip3df175x"><rect x="53" y="0" width="439" height="400"/></clipPath><clipPath class="axesclip" id="clip3df175y"><rect x="0" y="30" width="600" height="327"/></clipPath><clipPath class="axesclip" id="clip3df175xy"><rect x="53" y="30" width="439" height="327"/></clipPath></g><g class="gradients"/><g class="patterns"/></defs><g class="bglayer"/><g class="layer-below"><g class="imagelayer"/><g class="shapelayer"/></g><g class="cartesianlayer"><g class="subplot xy"><g class="layer-subplot"><g class="shapelayer"/><g class="imagelayer"/></g><g class="minor-gridlayer"><g class="x"/><g class="y"/></g><g class="gridlayer"><g class="x"><path class="xgrid crisp" transform="translate(126.78,0)" d="M0,30v327" style="stroke: rgb(128, 128, 128); stroke-opacity: 1; stroke-width: 0.2px;"/><path class="xgrid crisp" transform="translate(200.56,0)" d="M0,30v327" style="stroke: rgb(128, 128, 128); stroke-opacity: 1; stroke-width: 0.2px;"/><path class="xgrid crisp" transform="translate(274.35,0)" d="M0,30v327" style="stroke: rgb(128, 128, 128); stroke-opacity: 1; stroke-width: 0.2px;"/><path class="xgrid crisp" transform="translate(348.13,0)" d="M0,30v327" style="stroke: rgb(128, 128, 128); stroke-opacity: 1; stroke-width: 0.2px;"/><path class="xgrid crisp" transform="translate(421.91,0)" d="M0,30v327" style="stroke: rgb(128, 128, 128); stroke-opacity: 1; stroke-width: 0.2px;"/></g><g class="y"><path class="ygrid crisp" transform="translate(0,347.06)" d="M53,0h439" style="stroke: rgb(128, 128, 128); stroke-opacity: 1; stroke-width: 0.2px;"/><path class="ygrid crisp" transform="translate(0,282.99)" d="M53,0h439" style="stroke: rgb(128, 128, 128); stroke-opacity: 1; stroke-width: 0.2px;"/><path class="ygrid crisp" transform="translate(0,218.91)" d="M53,0h439" style="stroke: rgb(128, 128, 128); stroke-opacity: 1; stroke-width: 0.2px;"/><path class="ygrid crisp" transform="translate(0,154.84)" d="M53,0h439" style="stroke: rgb(128, 128, 128); stroke-opacity: 1; stroke-width: 0.2px;"/><path class="ygrid crisp" transform="translate(0,90.77000000000001)" d="M53,0h439" style="stroke: rgb(128, 128, 128); stroke-opacity: 1; stroke-width: 0.2px;"/></g></g><g class="zerolinelayer"/><g class="layer-between"><g class="shapelayer"/><g class="imagelayer"/></g><path class="xlines-below"/><path class="ylines-below"/><g class="overlines-below"/><g class="xaxislayer-below"/><g class="yaxislayer-below"/><g class="overaxes-below"/><g class="overplot"><g class="xy" transform="translate(53,30)" clip-path="url(#clip3df175xyplot)"><g class="scatterlayer mlayer"><g class="trace scatter trace2b50ba" style="stroke-miterlimit: 2; opacity: 1;"><g class="fills"/><g class="errorbars"/><g class="lines"><path class="js-line" d="M0,309.37L5.03,307.62L7.39,308.34L11.08,307.87L14.88,308.17L19.79,307.06L22.16,307.32L29.62,306.51L34.54,305.82L44.37,304.11L49.32,302.88L58.16,300.14L61.34,298.13L66.83,296.38L70.09,295.53L81.18,288.35L84.87,287.71L88.66,283.27L93.58,279.47L95.93,276.95L99.61,274.43L103.44,272.98L108.35,271.99L110.7,271.01L114.39,270.97L154.97,266.44L158.66,266.48L177.2,265.29L182.11,265.42L184.47,266.01L188.18,267.85L191.95,266.01L196.87,266.1L199.22,267.85L202.9,267.04L206.74,267.42L211.64,265.12L214,265.84L217.65,265.46L221.46,265.24L226.38,264.09L228.73,262.77L232.42,262.64L236.21,262.64L241.14,261.19L243.49,261.53L247.2,260.85L250.99,260.2L255.89,255.29L258.24,259.99L261.95,259.82L265.74,260.38L270.67,260.16L273.02,257.68L276.71,258.58L280.49,258.62L285.44,256.49L291.46,256.15L295.25,256.66L300.2,258.54L302.51,255.42L314.92,255.29L317.27,254.65L320.95,254.4L324.79,255.98L332.04,256.49L335.71,254.65L346.79,256.62L350.46,255.51L361.54,256.49L365.22,255.12L369.03,255.85L373.95,253.58L376.3,255.72L379.98,254.31L383.79,254.95L390.77,253.24L392.35,253.24L395.53,252.09L399.4,249.61L403.96,247.9L405.93,239.92L412.18,242.22L415.38,246.62L418.55,239.1L420.59,236.33L424.24,241.24L428.08,243.67L432.97,242.99L435.31,239.19L439,237.78" style="vector-effect: none; fill: none; stroke: rgb(128, 128, 128); stroke-opacity: 1; stroke-width: 2px; opacity: 1;"/></g><g class="points"/><g class="text"/></g><g class="trace scatter trace5ad8bc" style="stroke-miterlimit: 2; opacity: 1;"><g class="fills"/><g class="errorbars"/><g class="lines"><path class="js-line" d="M0,310.65L7.39,308.22L11.08,308.39L14.88,308.3L19.79,307.32L22.16,306.17L25.82,305.48L29.62,303.43L34.54,303.9L40.58,301.59L44.37,301.68L49.32,300.19L51.65,298.69L61.34,296.08L64.51,295.1L66.83,295.49L70.09,293.61L81.18,288.48L84.87,287.58L88.66,285.7L93.58,279.98L95.93,277.85L99.61,275.97L103.44,269.64L108.35,270.2L110.7,271.65L114.39,270.84L118.17,268.23L123.09,267.89L125.44,266.14L129.12,265.84L132.92,265.37L137.84,263.49L140.18,262.21L143.88,262.08L147.67,264.52L152.59,263.49L154.97,262.08L158.66,264.31L162.44,265.76L167.36,262.77L169.72,263.37L173.39,262.85L177.2,259.78L182.11,262.85L184.47,263.96L188.18,262.08L191.95,262.17L196.87,260.72L199.22,265.29L202.9,260.76L206.74,262.55L211.64,263.45L214,263.79L217.65,262.77L221.46,259.99L226.38,257.43L228.73,257.77L232.42,253.03L236.21,255.21L241.14,254.65L243.49,254.35L247.2,252L250.99,251.49L255.89,248.89L258.24,250.76L261.95,251.75L265.74,252.3L270.67,251.45L273.02,250.12L276.71,250.89L285.44,251.11L287.75,249.18L291.46,248.97L295.25,249.74L300.2,249.83L302.51,248.63L306.22,249.44L310,249.44L317.27,247.48L320.95,249.65L324.79,250.59L329.69,250.47L332.04,248.03L335.71,247.86L339.54,244.06L344.44,244.96L346.79,243.8L350.46,243.33L354.27,243.08L359.22,243.76L361.54,244.06L365.22,242.69L369.03,243.42L373.95,241.79L376.3,244.57L379.98,241.62L383.79,245.34L390.77,240.56L392.35,245.94L395.53,245.43L399.4,247.18L403.96,224.71L405.93,168.54L412.18,220.95L415.38,162.43L418.55,123.39L420.59,100.62L424.24,95.93L428.08,78.24L432.97,74.36L435.31,62.48L439,38.39" style="vector-effect: none; fill: none; stroke: rgb(128, 128, 128); stroke-opacity: 1; stroke-width: 2px; opacity: 1;"/></g><g class="points"/><g class="text"/></g><g class="trace scatter trace5ed673" style="stroke-miterlimit: 2; opacity: 1;"><g class="fills"/><g class="errorbars"/><g class="lines"><path class="js-line" d="M0,309.5L5.03,308.26L7.39,309.37L25.82,306.76L29.62,306.76L34.54,306.21L36.9,305.1L40.58,305.31L44.37,304.24L58.16,300.91L61.34,299.03L66.83,296.64L70.09,295.66L81.18,289.89L84.87,286.82L88.66,284.81L93.58,280.37L95.93,279L99.61,275.58L108.35,269.82L110.7,267.3L118.17,260.67L123.09,261.36L129.12,261.23L132.92,262.04L140.18,263.88L143.88,263.49L147.67,262.47L152.59,264.01L154.97,262.72L158.66,262.64L169.72,261.83L173.39,261.06L177.2,260.42L182.11,261.19L184.47,262.17L188.18,262.72L191.95,262.43L196.87,263.54L199.22,263.62L202.9,262.94L211.64,261.4L214,259.44L217.65,258.28L221.46,260.25L226.38,260.76L228.73,257.51L243.49,258.45L247.2,257.9L250.99,257.9L255.89,254.65L258.24,255.51L261.95,254.57L265.74,256.53L270.67,257.98L273.02,252.05L276.71,253.2L280.49,254.14L285.44,252.64L287.75,250.85L291.46,250.89L300.2,255.98L302.51,251.32L306.22,252.39L310,254.31L314.92,254.52L317.27,252.09L320.95,252.22L324.79,256.36L329.69,252.26L332.04,254.18L335.71,253.11L339.54,254.95L344.44,256.1L346.79,254.57L354.27,256.4L359.22,255.04L361.54,256.1L365.22,255.51L369.03,256.23L373.95,255.12L376.3,256.23L379.98,255.46L383.79,255.46L390.77,252.73L399.4,249.61L403.96,208.82L405.93,166.36L412.18,166.11L415.38,140.26L418.55,105.84L420.59,93.45L424.24,80.81L428.08,61.97L432.97,47.57L435.31,32.11L439,16.35" style="vector-effect: none; fill: none; stroke: rgb(128, 128, 128); stroke-opacity: 1; stroke-width: 2px; opacity: 1;"/></g><g class="points"/><g class="text"/></g><g class="trace scatter traceac0f0f" style="stroke-miterlimit: 2; opacity: 1;"><g class="fills"/><g class="errorbars"/><g class="lines"><path class="js-line" d="M0,308.09L36.9,306.76L40.58,306.47L58.16,304.15L61.34,303.49L70.09,301.09L73.9,299.69L84.87,294L88.66,291.31L95.93,284.94L99.61,281.13L114.39,264.87L118.17,261.69L125.44,257.77L129.12,256.72L140.18,255.48L143.88,255.36L199.22,255.23L202.9,255.23L439,255.23" style="vector-effect: none; fill: none; stroke: rgb(128, 0, 128); stroke-opacity: 1; stroke-width: 2px; opacity: 1;"/></g><g class="points"/><g class="text"/></g></g></g></g><g class="zerolinelayer-above"/><path class="xlines-above crisp" d="M52.5,357.25H492.5M52.5,29.75H492.5" style="fill: none; stroke-width: 0.5px; stroke: rgb(0, 0, 0); stroke-opacity: 1;"/><path class="ylines-above crisp" d="M52.75,30V357M492.25,30V357" style="fill: none; stroke-width: 0.5px; stroke: rgb(0, 0, 0); stroke-opacity: 1;"/><g class="overlines-above"/><g class="xaxislayer-above"><path class="xtick ticks crisp" d="M0,357v-5" transform="translate(126.78,0)" style="stroke: rgb(0, 0, 0); stroke-opacity: 1; stroke-width: 0.5px;"/><path class="xtick ticks crisp" d="M0,357v-5" transform="translate(200.56,0)" style="stroke: rgb(0, 0, 0); stroke-opacity: 1; stroke-width: 0.5px;"/><path class="xtick ticks crisp" d="M0,357v-5" transform="translate(274.35,0)" style="stroke: rgb(0, 0, 0); stroke-opacity: 1; stroke-width: 0.5px;"/><path class="xtick ticks crisp" d="M0,357v-5" transform="translate(348.13,0)" style="stroke: rgb(0, 0, 0); stroke-opacity: 1; stroke-width: 0.5px;"/><path class="xtick ticks crisp" d="M0,357v-5" transform="translate(421.91,0)" style="stroke: rgb(0, 0, 0); stroke-opacity: 1; stroke-width: 0.5px;"/><g class="xtick"><text text-anchor="middle" x="0" y="374.3" transform="translate(53,0)" style="font-family: 'Open Sans', verdana, arial, sans-serif; font-size: 14px; fill: rgb(0, 0, 0); fill-opacity: 1; white-space: pre;">0</text></g><g class="xtick"><text text-anchor="middle" x="0" y="374.3" style="font-family: 'Open Sans', verdana, arial, sans-serif; font-size: 14px; fill: rgb(0, 0, 0); fill-opacity: 1; white-space: pre;" transform="translate(126.78,0)">5</text></g><g class="xtick"><text text-anchor="middle" x="0" y="374.3" style="font-family: 'Open Sans', verdana, arial, sans-serif; font-size: 14px; fill: rgb(0, 0, 0); fill-opacity: 1; white-space: pre;" transform="translate(200.56,0)">10</text></g><g class="xtick"><text text-anchor="middle" x="0" y="374.3" style="font-family: 'Open Sans', verdana, arial, sans-serif; font-size: 14px; fill: rgb(0, 0, 0); fill-opacity: 1; white-space: pre;" transform="translate(274.35,0)">15</text></g><g class="xtick"><text text-anchor="middle" x="0" y="374.3" style="font-family: 'Open Sans', verdana, arial, sans-serif; font-size: 14px; fill: rgb(0, 0, 0); fill-opacity: 1; white-space: pre;" transform="translate(348.13,0)">20</text></g><g class="xtick"><text text-anchor="middle" x="0" y="374.3" style="font-family: 'Open Sans', verdana, arial, sans-serif; font-size: 14px; fill: rgb(0, 0, 0); fill-opacity: 1; white-space: pre;" transform="translate(421.91,0)">25</text></g></g><g class="yaxislayer-above"><path class="ytick ticks crisp" d="M53,0h5" transform="translate(0,347.06)" style="stroke: rgb(0, 0, 0); stroke-opacity: 1; stroke-width: 0.5px;"/><path class="ytick ticks crisp" d="M53,0h5" transform="translate(0,282.99)" style="stroke: rgb(0, 0, 0); stroke-opacity: 1; stroke-width: 0.5px;"/><path class="ytick ticks crisp" d="M53,0h5" transform="translate(0,218.91)" style="stroke: rgb(0, 0, 0); stroke-opacity: 1; stroke-width: 0.5px;"/><path class="ytick ticks crisp" d="M53,0h5" transform="translate(0,154.84)" style="stroke: rgb(0, 0, 0); stroke-opacity: 1; stroke-width: 0.5px;"/><path class="ytick ticks crisp" d="M53,0h5" transform="translate(0,90.77000000000001)" style="stroke: rgb(0, 0, 0); stroke-opacity: 1; stroke-width: 0.5px;"/><g class="ytick"><text text-anchor="end" x="49.7" y="4.8999999999999995" transform="translate(0,347.06)" style="font-family: 'Open Sans', verdana, arial, sans-serif; font-size: 14px; fill: rgb(0, 0, 0); fill-opacity: 1; white-space: pre;">0</text></g><g class="ytick"><text text-anchor="end" x="49.7" y="4.8999999999999995" style="font-family: 'Open Sans', verdana, arial, sans-serif; font-size: 14px; fill: rgb(0, 0, 0); fill-opacity: 1; white-space: pre;" transform="translate(0,282.99)">0.05</text></g><g class="ytick"><text text-anchor="end" x="49.7" y="4.8999999999999995" style="font-family: 'Open Sans', verdana, arial, sans-serif; font-size: 14px; fill: rgb(0, 0, 0); fill-opacity: 1; white-space: pre;" transform="translate(0,218.91)">0.1</text></g><g class="ytick"><text text-anchor="end" x="49.7" y="4.8999999999999995" style="font-family: 'Open Sans', verdana, arial, sans-serif; font-size: 14px; fill: rgb(0, 0, 0); fill-opacity: 1; white-space: pre;" transform="translate(0,154.84)">0.15</text></g><g class="ytick"><text text-anchor="end" x="49.7" y="4.8999999999999995" style="font-family: 'Open Sans', verdana, arial, sans-serif; font-size: 14px; fill: rgb(0, 0, 0); fill-opacity: 1; white-space: pre;" transform="translate(0,90.77000000000001)">0.2</text></g></g><g class="overaxes-above"/></g></g><g class="polarlayer"/><g class="smithlayer"/><g class="ternarylayer"/><g class="geolayer"/><g class="funnelarealayer"/><g class="pielayer"/><g class="iciclelayer"/><g class="treemaplayer"/><g class="sunburstlayer"/><g class="glimages"/><defs id="topdefs-3df175"><g class="clips"/><clipPath id="legend3df175"><rect width="87" height="53" x="0" y="0"/></clipPath></defs><g class="layer-above"><g class="imagelayer"/><g class="shapelayer"/></g><g class="infolayer"><g class="legend" pointer-events="all" transform="translate(500.78000000000003,30)"><rect class="bg" shape-rendering="crispEdges" style="stroke: rgb(68, 68, 68); stroke-opacity: 1; fill: rgb(255, 255, 255); fill-opacity: 1; stroke-width: 0px;" width="87" height="53" x="0" y="0"/><g class="scrollbox" transform="" clip-path="url(#legend3df175)"><g class="groups"><g class="traces" transform="translate(0,15.6)" style="opacity: 1;"><text class="legendtext" text-anchor="start" x="40" y="5.46" style="font-family: 'Open Sans', verdana, arial, sans-serif; font-size: 14px; fill: rgb(0, 0, 0); fill-opacity: 1; white-space: pre;">Data</text><g class="layers" style="opacity: 1;"><g class="legendfill"/><g class="legendlines"><path class="js-line" d="M5,0h30" style="fill: none; stroke: rgb(128, 128, 128); stroke-opacity: 1; stroke-width: 2px;"/></g><g class="legendsymbols"><g class="legendpoints"/></g></g><rect class="legendtoggle" x="0" y="-10.6" width="81.078125" height="21.2" style="fill: rgb(0, 0, 0); fill-opacity: 0;"/></g><g class="traces" transform="translate(0,36.8)" style="opacity: 1;"><text class="legendtext" text-anchor="start" x="40" y="5.46" style="font-family: 'Open Sans', verdana, arial, sans-serif; font-size: 14px; fill: rgb(0, 0, 0); fill-opacity: 1; white-space: pre;">Model</text><g class="layers" style="opacity: 1;"><g class="legendfill"/><g class="legendlines"><path class="js-line" d="M5,0h30" style="fill: none; stroke: rgb(128, 0, 128); stroke-opacity: 1; stroke-width: 2px;"/></g><g class="legendsymbols"><g class="legendpoints"/></g></g><rect class="legendtoggle" x="0" y="-10.6" width="81.078125" height="21.2" style="fill: rgb(0, 0, 0); fill-opacity: 0;"/></g></g></g><rect class="scrollbar" rx="20" ry="3" width="0" height="0" style="fill: rgb(128, 139, 164); fill-opacity: 1;" x="0" y="0"/></g><g class="g-gtitle"><text class="gtitle" x="30" y="15" text-anchor="start" dy="0em" style="opacity: 1; font-family: 'Open Sans', verdana, arial, sans-serif; font-size: 14px; fill: rgb(0, 0, 0); fill-opacity: 1; white-space: pre;">At on Succinate 5 mM — μ: 1.9 1/h   K: 1 mM</text></g><g class="g-xtitle" transform="translate(0,5.449999999999989)"><text class="xtitle" x="272.5" y="387.8498046875" text-anchor="middle" style="opacity: 1; font-family: 'Open Sans', verdana, arial, sans-serif; font-size: 14px; fill: rgb(0, 0, 0); fill-opacity: 1; white-space: pre;">Time (hours)</text></g><g class="g-ytitle"><text class="ytitle" transform="rotate(-90,17.3001953125,193.5)" x="17.3001953125" y="193.5" text-anchor="middle" style="opacity: 1; font-family: 'Open Sans', verdana, arial, sans-serif; font-size: 14px; fill: rgb(0, 0, 0); fill-opacity: 1; white-space: pre;">OD600</text></g></g></svg>