<svg class="main-svg" xmlns="http://www.w3.org/2000/svg" xmlns:xlink="http://www.w3.org/1999/xlink" width="600" height="400" style="" viewBox="0 0 600 400"><rect x="0" y="0" width="600" height="400" style="fill: rgb(255, 255, 255); fill-opacity: 1;"/><defs id="defs-535aec"><g class="clips"><clipPath id="clip535aecxyplot" class="plotclip"><rect width="439" height="327"/></clipPath><clipPath class="axesclip" id="clip535aecx"><rect x="53" y="0" width="439" height="400"/></clipPath><clipPath class="axesclip" id="clip535aecy"><rect x="0" y="30" width="600" height="327"/></clipPath><clipPath class="axesclip" id="clip535aecxy"><rect x="53" y="30" width="439" height="327"/></clipPath></g><g class="gradients"/><g class="patterns"/></defs><g class="bglayer"/><g class="layer-below"><g class="imagelayer"/><g class="shapelayer"/></g><g class="cartesianlayer"><g class="subplot xy"><g class="layer-subplot"><g class="shapelayer"/><g class="imagelayer"/></g><g class="minor-gridlayer"><g class="x"/><g class="y"/></g><g class="gridlayer"><g class="x"><path class="xgrid crisp" transform="translate(126.78,0)" d="M0,30v327" style="stroke: rgb(128, 128, 128); stroke-opacity: 1; stroke-width: 0.2px;"/><path class="xgrid crisp" transform="translate(200.56,0)" d="M0,30v327" style="stroke: rgb(128, 128, 128); stroke-opacity: 1; stroke-width: 0.2px;"/><path class="xgrid crisp" transform="translate(274.34000000000003,0)" d="M0,30v327" style="stroke: rgb(128, 128, 128); stroke-opacity: 1; stroke-width: 0.2px;"/><path class="xgrid crisp" transform="translate(348.13,0)" d="M0,30v327" style="stroke: rgb(128, 128, 128); stroke-opacity: 1; stroke-width: 0.2px;"/><path class="xgrid crisp" transform="translate(421.91,0)" d="M0,30v327" style="stroke: rgb(128, 128, 128); stroke-opacity: 1; stroke-width: 0.2px;"/></g><g class="y"><path class="ygrid crisp" transform="translate(0,300.02)" d="M53,0h439" style="stroke: rgb(128, 128, 128); stroke-opacity: 1; stroke-width: 0.2px;"/><path class="ygrid crisp" transform="translate(0,241.14)" d="M53,0h439" style="stroke: rgb(128, 128, 128); stroke-opacity: 1; stroke-width: 0.2px;"/><path class="ygrid crisp" transform="translate(0,182.26)" d="M53,0h439" style="stroke: rgb(128, 128, 128); stroke-opacity: 1; stroke-width: 0.2px;"/><path class="ygrid crisp" transform="translate(0,123.38)" d="M53,0h439" style="stroke: rgb(128, 128, 128); stroke-opacity: 1; stroke-width: 0.2px;"/><path class="ygrid crisp" transform="translate(0,64.5)" d="M53,0h439" style="stroke: rgb(128, 128, 128); stroke-opacity: 1; stroke-width: 0.2px;"/></g></g><g class="zerolinelayer"/><g class="layer-between"><g class="shapelayer"/><g class="imagelayer"/></g><path class="xlines-below"/><path class="ylines-below"/><g class="overlines-below"/><g class="xaxislayer-below"/><g class="yaxislayer-below"/><g class="overaxes-below"/><g class="overplot"><g class="xy" transform="translate(53,30)" clip-path="url(#clip535aecxyplot)"><g class="scatterlayer mlayer"><g class="trace scatter trace9ff0a4" style="stroke-miterlimit: 2; opacity: 1;"><g class="fills"/><g class="errorbars"/><g class="lines"><path class="js-line" d="M0,308.69L7.79,308.49L11.08,308.49L22.16,308.98L25.82,307.9L29.63,309.28L34.55,308.29L36.9,307.8L40.58,308.29L44.38,308.88L49.33,307.71L61.35,308.29L65.25,306.82L66.83,307.9L70.1,308.88L73.9,306.53L78.82,307.22L84.88,305.45L88.66,305.06L95.94,301.92L99.61,302.5L108.35,299.46L110.71,299.17L114.39,298.48L118.18,295.44L123.08,294.65L125.45,293.38L132.93,290.83L137.84,286.12L143.88,284.25L147.67,280.03L152.6,271.5L154.98,273.85L158.65,267.08L162.45,262.96L169.72,246.08L173.39,239.7L177.2,224.88L182.12,209.18L184.48,201.43L188.18,193.87L191.96,184.94L196.87,179.45L199.23,176.5L202.9,173.75L211.64,167.67L214,156.39L217.66,168.36L221.46,160.9L226.38,160.51L228.74,152.85L232.42,164.33L236.22,157.56L241.14,149.03L243.5,152.75L247.2,158.84L251,144.41L255.89,146.57L258.24,146.67L261.96,145.89L265.74,142.45L270.68,134.21L273.03,137.74L276.71,138.03L280.49,129.69L285.44,121.25L287.75,127.04L291.47,124.79L295.25,119.88L300.21,115.46L302.51,123.12L306.23,121.25L310.01,109.58L314.92,97.31L317.27,107.12L320.95,105.75L324.79,81.12L329.69,83.47L332.04,86.12L335.71,70.62L339.54,77.39L344.44,76.01L346.79,78.27L350.46,75.23L354.28,83.18L359.22,77.68L361.54,83.37L365.23,92.21L369.03,98.39L373.95,101.53L376.3,107.61L379.98,106.14L383.79,108.5L390.77,136.96L392.36,139.41L395.53,157.07L399.4,158.64L404,130.97L408.52,111.54L412.17,127.63L415.38,117.82L418.55,110.66L420.59,90.93L424.24,104.38L428.08,88.18L432.97,79.65L435.31,71.89L439,73.37" style="vector-effect: none; fill: none; stroke: rgb(128, 128, 128); stroke-opacity: 1; stroke-width: 2px; opacity: 1;"/></g><g class="points"/><g class="text"/></g><g class="trace scatter trace6beada" style="stroke-miterlimit: 2; opacity: 1;"><g class="fills"/><g class="errorbars"/><g class="lines"><path class="js-line" d="M0,310.45L5.04,310.55L7.79,309.67L11.08,308.79L14.88,310.65L25.82,307.02L29.63,306.92L34.55,307.71L36.9,307.22L40.58,308.29L44.38,307.12L49.33,305.06L51.66,305.25L70.1,304.17L73.9,302.11L78.82,302.21L81.18,300.35L84.88,300.15L88.66,298.58L93.58,298.19L95.94,296.91L99.61,295.73L103.44,293.08L114.39,289.65L118.18,288.37L125.45,285.14L129.12,285.33L132.93,283.76L137.84,280.52L140.19,279.35L143.88,278.36L147.67,274.73L152.6,271.2L154.98,272.08L158.65,268.55L169.72,254.62L173.39,248.83L182.12,220.96L184.48,216.44L188.18,205.94L191.96,198.19L196.87,191.22L199.23,190.04L202.9,183.76L206.74,183.96L211.64,184.75L214,182L217.66,180.72L221.46,177.09L226.38,174.34L228.74,168.16L232.42,174.34L236.22,169.63L241.14,163.75L243.5,168.95L247.2,168.26L251,155.01L255.89,157.17L258.24,160.21L261.96,160.02L265.74,157.76L270.68,153.64L273.03,153.05L276.71,155.4L280.49,152.07L285.44,149.81L287.75,154.42L295.25,147.26L300.21,148.44L302.51,154.32L306.23,151.28L310.01,137.54L314.92,129.69L317.27,132.74L320.95,124.3L324.79,106.73L329.69,109.09L332.04,111.15L335.71,105.36L339.54,101.53L344.44,103.39L346.79,108.59L350.46,105.26L359.22,113.89L361.54,122.82L365.23,125.77L369.03,124.3L376.3,129.99L379.98,125.57L383.79,121.45L390.77,150.79L392.36,157.96L395.53,168.26L399.4,173.66L404,125.08L408.52,60.02L412.17,39.61L415.38,101.04L418.55,125.67L420.59,83.28L424.24,116.74L428.08,106.44L432.97,107.32L435.31,53.93L439,92.21" style="vector-effect: none; fill: none; stroke: rgb(128, 128, 128); stroke-opacity: 1; stroke-width: 2px; opacity: 1;"/></g><g class="points"/><g class="text"/></g><g class="trace scatter trace3666f5" style="stroke-miterlimit: 2; opacity: 1;"><g class="fills"/><g class="errorbars"/><g class="lines"><path class="js-line" d="M0,296.62L5.04,303.78L7.79,298.78L11.08,297.3L14.88,297.4L22.16,298.68L25.82,298.78L29.63,299.56L34.55,298.29L36.9,293.08L40.58,291.51L44.38,290.34L49.33,286.51L51.66,282.29L58.17,303.19L61.35,303.58L65.25,300.93L70.1,302.11L73.9,300.64L78.82,301.03L81.18,300.35L93.58,293.77L95.94,293.67L99.61,291.61L103.44,292.2L110.71,290.34L114.39,288.18L118.18,285.43L123.08,283.76L125.45,282.49L129.12,283.27L132.93,282.88L137.84,278.76L140.19,279.35L143.88,276.89L152.6,269.43L154.98,270.91L158.65,268.55L162.45,261.78L167.36,258.54L169.72,255.79L173.39,248.24L177.2,237.84L184.48,219.98L188.18,207.12L191.96,198.48L196.87,192.69L199.23,187.1L202.9,182L206.74,183.67L211.64,181.51L217.66,176.31L221.46,171.2L226.38,169.63L228.74,164.04L232.42,169.63L236.22,163.45L241.14,158.45L243.5,161L247.2,159.72L251,146.18L255.89,150.69L258.24,151.38L261.96,151.48L265.74,148.63L270.68,146.28L273.03,148.04L276.71,146.28L280.49,145.89L285.44,141.86L287.75,144.71L291.47,137.15L295.25,132.54L300.21,136.96L302.51,144.9L306.23,135.09L310.01,127.24L314.92,117.92L317.27,123.31L320.95,111.93L324.79,97.31L329.69,95.25L332.04,97.6L335.71,79.15L339.54,83.28L344.44,85.14L346.79,90.93L350.46,82.59L354.28,85.53L359.22,86.51L361.54,96.92L365.23,98.09L369.03,96.62L373.95,102.12L376.3,100.55L379.98,94.95L383.79,94.66L395.53,154.42L399.4,162.18L404,146.28L408.52,49.72L412.17,16.35L415.38,49.81L418.55,66.2L420.59,28.52L424.24,131.46L428.08,135.58L432.97,131.75L435.31,83.67L439,118.11" style="vector-effect: none; fill: none; stroke: rgb(128, 128, 128); stroke-opacity: 1; stroke-width: 2px; opacity: 1;"/></g><g class="points"/><g class="text"/></g><g class="trace scatter tracedcf033" style="stroke-miterlimit: 2; opacity: 1;"><g class="fills"/><g class="errorbars"/><g class="lines"><path class="js-line" d="M0,308.29L61.35,307.48L65.25,307.34L88.66,305.85L93.58,305.33L110.71,302.49L114.39,301.58L125.45,297.88L129.12,296.24L137.84,291.18L140.19,289.48L147.67,282.84L152.6,277.26L158.65,268.81L162.45,262.54L169.72,248.3L173.39,240.08L191.96,195.79L196.87,186.24L202.9,177.11L206.74,172.77L214,167.23L217.66,165.45L226.38,162.96L228.74,162.58L243.5,161.46L247.2,161.36L295.25,161.16L300.21,161.16L439,161.15" style="vector-effect: none; fill: none; stroke: rgb(128, 0, 128); stroke-opacity: 1; stroke-width: 2px; opacity: 1;"/></g><g class="points"/><g class="text"/></g></g></g></g><g class="zerolinelayer-above"/><path class="xlines-above crisp" d="M52.5,357.25H492.5M52.5,29.75H492.5" style="fill: none; stroke-width: 0.5px; stroke: rgb(0, 0, 0); stroke-opacity: 1;"/><path class="ylines-above crisp" d="M52.75,30V357M492.25,30V357" style="fill: none; stroke-width: 0.5px; stroke: rgb(0, 0, 0); stroke-opacity: 1;"/><g class="overlines-above"/><g class="xaxislayer-above"><path class="xtick ticks crisp" d="M0,357v-5" transform="translate(126.78,0)" style="stroke: rgb(0, 0, 0); stroke-opacity: 1; stroke-width: 0.5px;"/><path class="xtick ticks crisp" d="M0,357v-5" transform="translate(200.56,0)" style="stroke: rgb(0, 0, 0); stroke-opacity: 1; stroke-width: 0.5px;"/><path class="xtick ticks crisp" d="M0,357v-5" transform="translate(274.34000000000003,0)" style="stroke: rgb(0, 0, 0); stroke-opacity: 1; stroke-width: 0.5px;"/><path class="xtick ticks crisp" d="M0,357v-5" transform="translate(348.13,0)" style="stroke: rgb(0, 0, 0); stroke-opacity: 1; stroke-width: 0.5px;"/><path class="xtick ticks crisp" d="M0,357v-5" transform="translate(421.91,0)" style="stroke: rgb(0, 0, 0); stroke-opacity: 1; stroke-width: 0.5px;"/><g class="xtick"><text text-anchor="middle" x="0" y="374.3" transform="translate(53,0)" style="font-family: 'Open Sans', verdana, arial, sans-serif; font-size: 14px; fill: rgb(0, 0, 0); fill-opacity: 1; white-space: pre;">0</text></g><g class="xtick"><text text-anchor="middle" x="0" y="374.3" style="font-family: 'Open Sans', verdana, arial, sans-serif; font-size: 14px; fill: rgb(0, 0, 0); fill-opacity: 1; white-space: pre;" transform="translate(126.78,0)">5</text></g><g class="xtick"><text text-anchor="middle" x="0" y="374.3" style="font-family: 'Open Sans', verdana, arial, sans-serif; font-size: 14px; fill: rgb(0, 0, 0); fill-opacity: 1; white-space: pre;" transform="translate(200.56,0)">10</text></g><g class="xtick"><text text-anchor="middle" x="0" y="374.3" style="font-family: 'Open Sans', verdana, arial, sans-serif; font-size: 14px; fill: rgb(0, 0, 0); fill-opacity: 1; white-space: pre;" transform="translate(274.34000000000003,0)">15</text></g><g class="xtick"><text text-anchor="middle" x="0" y="374.3" style="font-family: 'Open Sans', verdana, arial, sans-serif; font-size: 14px; fill: rgb(0, 0, 0); fill-opacity: 1; white-space: pre;" transform="translate(348.13,0)">20</text></g><g class="xtick"><text text-anchor="middle" x="0" y="374.3" style="font-family: 'Open Sans', verdana, arial, sans-serif; font-size: 14px; fill: rgb(0, 0, 0); fill-opacity: 1; white-space: pre;" transform="translate(421.91,0)">25</text></g></g><g class="yaxislayer-above"><path class="ytick ticks crisp" d="M53,0h5" transform="translate(0,300.02)" style="stroke: rgb(0, 0, 0); stroke-opacity: 1; stroke-width: 0.5px;"/><path class="ytick ticks crisp" d="M53,0h5" transform="translate(0,241.14)" style="stroke: rgb(0, 0, 0); stroke-opacity: 1; stroke-width: 0.5px;"/><path class="ytick ticks crisp" d="M53,0h5" transform="translate(0,182.26)" style="stroke: rgb(0, 0, 0); stroke-opacity: 1; stroke-width: 0.5px;"/><path class="ytick ticks crisp" d="M53,0h5" transform="translate(0,123.38)" style="stroke: rgb(0, 0, 0); stroke-opacity: 1; stroke-width: 0.5px;"/><path class="ytick ticks crisp" d="M53,0h5" transform="translate(0,64.5)" style="stroke: rgb(0, 0, 0); stroke-opacity: 1; stroke-width: 0.5px;"/><g class="ytick"><text text-anchor="end" x="49.7" y="4.8999999999999995" transform="translate(0,300.02)" style="font-family: 'Open Sans', verdana, arial, sans-serif; font-size: 14px; fill: rgb(0, 0, 0); fill-opacity: 1; white-space: pre;">0.02</text></g><g class="ytick"><text text-anchor="end" x="49.7" y="4.8999999999999995" style="font-family: 'Open Sans', verdana, arial, sans-serif; font-size: 14px; fill: rgb(0, 0, 0); fill-opacity: 1; white-space: pre;" transform="translate(0,241.14)">0.04</text></g><g class="ytick"><text text-anchor="end" x="49.7" y="4.8999999999999995" style="font-family: 'Open Sans', verdana, arial, sans-serif; font-size: 14px; fill: rgb(0, 0, 0); fill-opacity: 1; white-space: pre;" transform="translate(0,182.26)">0.06</text></g><g class="ytick"><text text-anchor="end" x="49.7" y="4.8999999999999995" style="font-family: 'Open Sans', verdana, arial, sans-serif; font-size: 14px; fill: rgb(0, 0, 0); fill-opacity: 1; white-space: pre;" transform="translate(0,123.38)">0.08</text></g><g class="ytick"><text text-anchor="end" x="49.7" y="4.8999999999999995" style="font-family: 'Open Sans', verdana, arial, sans-serif; font-size: 14px; fill: rgb(0, 0, 0); fill-opacity: 1; white-space: pre;" transform="translate(0,64.5)">0.1</text></g></g><g class="overaxes-above"/></g></g><g class="polarlayer"/><g class="smithlayer"/><g class="ternarylayer"/><g class="geolayer"/><g class="funnelarealayer"/><g class="pielayer"/><g class="iciclelayer"/><g class="treemaplayer"/><g class="sunburstlayer"/><g class="glimages"/><defs id="topdefs-535aec"><g class="clips"/><clipPath id="legend535aec"><rect width="87" height="53" x="0" y="0"/></clipPath></defs><g class="layer-above"><g class="imagelayer"/><g class="shapelayer"/></g><g class="infolayer"><g class="legend" pointer-events="all" transform="translate(500.78000000000003,30)"><rect class="bg" shape-rendering="crispEdges" style="stroke: rgb(68, 68, 68); stroke-opacity: 1; fill: rgb(255, 255, 255); fill-opacity: 1; stroke-width: 0px;" width="87" height="53" x="0" y="0"/><g class="scrollbox" transform="" clip-path="url(#legend535aec)"><g class="groups"><g class="traces" transform="translate(0,15.6)" style="opacity: 1;"><text class="legendtext" text-anchor="start" x="40" y="5.46" style="font-family: 'Open Sans', verdana, arial, sans-serif; font-size: 14px; fill: rgb(0, 0, 0); fill-opacity: 1; white-space: pre;">Data</text><g class="layers" style="opacity: 1;"><g class="legendfill"/><g class="legendlines"><path class="js-line" d="M5,0h30" style="fill: none; stroke: rgb(128, 128, 128); stroke-opacity: 1; stroke-width: 2px;"/></g><g class="legendsymbols"><g class="legendpoints"/></g></g><rect class="legendtoggle" x="0" y="-10.6" width="81.078125" height="21.2" style="fill: rgb(0, 0, 0); fill-opacity: 0;"/></g><g class="traces" transform="translate(0,36.8)" style="opacity: 1;"><text class="legendtext" text-anchor="start" x="40" y="5.46" style="font-family: 'Open Sans', verdana, arial, sans-serif; font-size: 14px; fill: rgb(0, 0, 0); fill-opacity: 1; white-space: pre;">Model</text><g class="layers" style="opacity: 1;"><g class="legendfill"/><g class="legendlines"><path class="js-line" d="M5,0h30" style="fill: none; stroke: rgb(128, 0, 128); stroke-opacity: 1; stroke-width: 2px;"/></g><g class="legendsymbols"><g class="legendpoints"/></g></g><rect class="legendtoggle" x="0" y="-10.6" width="81.078125" height="21.2" style="fill: rgb(0, 0, 0); fill-opacity: 0;"/></g></g></g><rect class="scrollbar" rx="20" ry="3" width="0" height="0" style="fill: rgb(128, 139, 164); fill-opacity: 1;" x="0" y="0"/></g><g class="g-gtitle"><text class="gtitle" x="30" y="15" text-anchor="start" dy="0em" style="opacity: 1; font-family: 'Open Sans', verdana, arial, sans-serif; font-size: 14px; fill: rgb(0, 0, 0); fill-opacity: 1; white-space: pre;">At on Glucose 5 mM — μ: 3.5 1/h   K: 2 mM</text></g><g class="g-xtitle" transform="translate(0,5.449999999999989)"><text class="xtitle" x="272.5" y="387.8498046875" text-anchor="middle" style="opacity: 1; font-family: 'Open Sans', verdana, arial, sans-serif; font-size: 14px; fill: rgb(0, 0, 0); fill-opacity: 1; white-space: pre;">Time (hours)</text></g><g class="g-ytitle"><text class="ytitle" transform="rotate(-90,17.3001953125,193.5)" x="17.3001953125" y="193.5" text-anchor="middle" style="opacity: 1; font-family: 'Open Sans', verdana, arial, sans-serif; font-size: 14px; fill: rgb(0, 0, 0); fill-opacity: 1; white-space: pre;">OD600</text></g></g></svg>