<svg class="main-svg" xmlns="http://www.w3.org/2000/svg" xmlns:xlink="http://www.w3.org/1999/xlink" width="600" height="400" style="" viewBox="0 0 600 400"><rect x="0" y="0" width="600" height="400" style="fill: rgb(255, 255, 255); fill-opacity: 1;"/><defs id="defs-7f6200"><g class="clips"><clipPath id="clip7f6200xyplot" class="plotclip"><rect width="439" height="327"/></clipPath><clipPath class="axesclip" id="clip7f6200x"><rect x="53" y="0" width="439" height="400"/></clipPath><clipPath class="axesclip" id="clip7f6200y"><rect x="0" y="30" width="600" height="327"/></clipPath><clipPath class="axesclip" id="clip7f6200xy"><rect x="53" y="30" width="439" height="327"/></clipPath></g><g class="gradients"/><g class="patterns"/></defs><g class="bglayer"/><g class="layer-below"><g class="imagelayer"/><g class="shapelayer"/></g><g class="cartesianlayer"><g class="subplot xy"><g class="layer-subplot"><g class="shapelayer"/><g class="imagelayer"/></g><g class="minor-gridlayer"><g class="x"/><g class="y"/></g><g class="gridlayer"><g class="x"><path class="xgrid crisp" transform="translate(126.78,0)" d="M0,30v327" style="stroke: rgb(128, 128, 128); stroke-opacity: 1; stroke-width: 0.2px;"/><path class="xgrid crisp" transform="translate(200.56,0)" d="M0,30v327" style="stroke: rgb(128, 128, 128); stroke-opacity: 1; stroke-width: 0.2px;"/><path class="xgrid crisp" transform="translate(274.35,0)" d="M0,30v327" style="stroke: rgb(128, 128, 128); stroke-opacity: 1; stroke-width: 0.2px;"/><path class="xgrid crisp" transform="translate(348.13,0)" d="M0,30v327" style="stroke: rgb(128, 128, 128); stroke-opacity: 1; stroke-width: 0.2px;"/><path class="xgrid crisp" transform="translate(421.91,0)" d="M0,30v327" style="stroke: rgb(128, 128, 128); stroke-opacity: 1; stroke-width: 0.2px;"/></g><g class="y"><path class="ygrid crisp" transform="translate(0,346.67)" d="M53,0h439" style="stroke: rgb(128, 128, 128); stroke-opacity: 1; stroke-width: 0.2px;"/><path class="ygrid crisp" transform="translate(0,289.89)" d="M53,0h439" style="stroke: rgb(128, 128, 128); stroke-opacity: 1; stroke-width: 0.2px;"/><path class="ygrid crisp" transform="translate(0,233.11)" d="M53,0h439" style="stroke: rgb(128, 128, 128); stroke-opacity: 1; stroke-width: 0.2px;"/><path class="ygrid crisp" transform="translate(0,176.33)" d="M53,0h439" style="stroke: rgb(128, 128, 128); stroke-opacity: 1; stroke-width: 0.2px;"/><path class="ygrid crisp" transform="translate(0,119.56)" d="M53,0h439" style="stroke: rgb(128, 128, 128); stroke-opacity: 1; stroke-width: 0.2px;"/><path class="ygrid crisp" transform="translate(0,62.78)" d="M53,0h439" style="stroke: rgb(128, 128, 128); stroke-opacity: 1; stroke-width: 0.2px;"/></g></g><g class="zerolinelayer"/><g class="layer-between"><g class="shapelayer"/><g class="imagelayer"/></g><path class="xlines-below"/><path class="ylines-below"/><g class="overlines-below"/><g class="xaxislayer-below"/><g class="yaxislayer-below"/><g class="overaxes-below"/><g class="overplot"><g class="xy" transform="translate(53,30)" clip-path="url(#clip7f6200xyplot)"><g class="scatterlayer mlayer"><g class="trace scatter trace5d1e19" style="stroke-miterlimit: 2; opacity: 1;"><g class="fills"/><g class="errorbars"/><g class="lines"><path class="js-line" d="M0,310.65L5.03,309.33L7.39,309.63L36.9,307.09L40.58,306.37L44.37,306.11L49.32,304.9L58.16,302.81L61.34,301.04L73.9,295.96L78.82,292.9L84.87,290.78L88.66,288.2L95.93,282.37L99.61,276.85L103.44,268.63L108.35,255.27L118.17,245.13L123.09,243.35L129.12,241.65L132.92,240.55L154.97,236.72L158.66,237.33L162.44,236.69L167.36,233.81L173.39,223.55L177.2,220.49L188.18,205.5L191.95,202.96L196.87,190.32L199.22,188.58L202.9,188.65L206.74,193.99L211.64,187.4L214,189.18L217.65,187.03L221.46,192.4L226.38,185.59L228.73,187.82L232.42,191.45L236.21,193.38L241.14,196.19L243.49,201.48L247.2,204.17L250.99,212.46L255.89,217.08L258.24,222.15L261.95,223.48L265.74,223.97L270.67,222.19L273.02,223.4L276.71,224.54L280.49,224.12L287.75,224.04L291.46,224.76L295.25,224.65L300.2,226.09L310,224.95L314.92,225.48L317.27,223.55L320.95,225.6L324.79,225.97L329.69,225.07L339.54,225.97L344.44,224.39L346.79,225.86L350.46,226.47L354.27,225.44L359.22,225.6L361.54,226.2L365.22,225.67L373.95,226.01L376.3,226.77L379.98,225.97L383.79,226.09L390.77,224.92L392.35,226.05L395.53,226.85L399.4,224.88L403.96,222.68L405.93,220.37L412.18,226.28L415.38,227.79L418.55,222.72L420.59,222.64L424.24,230.4L428.08,229.15L432.97,229.46L435.31,226.66L439,224.84" style="vector-effect: none; fill: none; stroke: rgb(128, 128, 128); stroke-opacity: 1; stroke-width: 2px; opacity: 1;"/></g><g class="points"/><g class="text"/></g><g class="trace scatter tracec89a3d" style="stroke-miterlimit: 2; opacity: 1;"><g class="fills"/><g class="errorbars"/><g class="lines"><path class="js-line" d="M0,309.17L5.03,308.19L7.39,308.95L14.88,308.34L19.79,307.92L40.58,304.33L44.37,303.5L51.65,301.3L58.16,299.52L64.51,296.53L66.83,296.53L84.87,287.71L88.66,286.5L99.61,277.19L103.44,269.32L108.35,254.93L110.7,253.38L114.39,247.1L118.17,245.81L129.12,241.08L132.92,241.34L140.18,239.68L143.88,240.47L147.67,239.45L152.59,239.45L154.97,238.66L158.66,240.28L173.39,239.56L177.2,236.16L182.11,230.25L184.47,226.01L199.22,194.48L202.9,192.4L206.74,191.72L211.64,183.66L214,178.85L217.65,179.87L221.46,181.39L226.38,177.18L228.73,173.85L232.42,175.56L241.14,180.63L243.49,181.16L247.2,185.44L250.99,191.34L255.89,190.05L258.24,192.06L261.95,197.02L265.74,199.67L276.71,206.37L280.49,210.27L285.44,216.55L287.75,217.57L300.2,223.93L302.51,221.74L306.22,222.68L310,221.89L314.92,223.1L317.27,221.96L320.95,224.12L324.79,224.61L332.04,223.36L335.71,222.53L344.44,225.41L346.79,223.93L350.46,224.99L354.27,224.08L361.54,224.95L365.22,225.56L369.03,224.95L373.95,225.33L390.77,223.78L392.35,224.46L395.53,225.14L399.4,224.08L403.96,220.64L405.93,180.06L412.18,221.96L415.38,177.94L420.59,125.44L424.24,127.07L428.08,117.64L432.97,124.53L435.31,113.67L439,101.4" style="vector-effect: none; fill: none; stroke: rgb(128, 128, 128); stroke-opacity: 1; stroke-width: 2px; opacity: 1;"/></g><g class="points"/><g class="text"/></g><g class="trace scatter trace18f987" style="stroke-miterlimit: 2; opacity: 1;"><g class="fills"/><g class="errorbars"/><g class="lines"><path class="js-line" d="M0,309.97L5.03,308.64L7.39,309.29L11.08,308.76L14.88,309.02L36.9,307.21L40.58,306.71L49.32,305.69L51.65,305.05L66.83,300.73L70.09,299.18L78.82,294.83L81.18,293.16L84.87,292.59L88.66,289.34L95.93,282.83L99.61,276.96L103.44,269.43L108.35,256.18L114.39,247.21L118.17,245.13L123.09,240.51L125.44,239.53L129.12,238.92L132.92,236.69L143.88,234.34L147.67,230.82L154.97,224.23L158.66,225.07L162.44,225.79L167.36,222.68L169.72,220.15L173.39,213.33L177.2,204.93L182.11,195.96L184.47,187.18L188.18,180.29L191.95,175.71L196.87,167.95L199.22,160.64L202.9,156.29L206.74,156.06L211.64,151.29L214,143.53L217.65,141.26L221.46,144.37L226.38,145.84L228.73,139.22L232.42,143.76L236.21,144.1L241.14,140.2L243.49,136.08L247.2,136.95L255.89,144.52L258.24,142.55L261.95,147.17L265.74,155.38L270.67,157.35L273.02,152.66L276.71,155.83L280.49,161.21L285.44,163.06L287.75,160.91L291.46,162.99L295.25,170.82L300.2,175.9L302.51,173.13L306.22,177.03L310,184.75L314.92,190.05L317.27,190.05L324.79,215.87L329.69,218.14L332.04,219.96L335.71,219.69L339.54,221.43L344.44,221.32L346.79,220.98L350.46,221.81L354.27,221.36L359.22,221.96L376.3,223.36L379.98,222.57L383.79,222.91L390.77,221.85L399.4,222.83L403.96,173.97L405.93,137.48L412.18,131.8L420.59,67.41L424.24,58.71L428.08,47.01L432.97,44.02L435.31,28.27L439,16.35" style="vector-effect: none; fill: none; stroke: rgb(128, 128, 128); stroke-opacity: 1; stroke-width: 2px; opacity: 1;"/></g><g class="points"/><g class="text"/></g><g class="trace scatter trace418d58" style="stroke-miterlimit: 2; opacity: 1;"><g class="fills"/><g class="errorbars"/><g class="lines"><path class="js-line" d="M0,307.58L29.62,306.53L34.54,306.18L51.65,304.09L58.16,302.72L66.83,300.05L70.09,298.7L78.82,293.73L81.18,291.96L88.66,284.74L93.58,278.4L99.61,268.83L103.44,261.98L110.7,249.38L114.39,244.49L118.17,241.08L123.09,238.74L129.12,237.7L132.92,237.48L173.39,237.32L177.2,237.32L439,237.32" style="vector-effect: none; fill: none; stroke: rgb(128, 0, 128); stroke-opacity: 1; stroke-width: 2px; opacity: 1;"/></g><g class="points"/><g class="text"/></g></g></g></g><g class="zerolinelayer-above"/><path class="xlines-above crisp" d="M52.5,357.25H492.5M52.5,29.75H492.5" style="fill: none; stroke-width: 0.5px; stroke: rgb(0, 0, 0); stroke-opacity: 1;"/><path class="ylines-above crisp" d="M52.75,30V357M492.25,30V357" style="fill: none; stroke-width: 0.5px; stroke: rgb(0, 0, 0); stroke-opacity: 1;"/><g class="overlines-above"/><g class="xaxislayer-above"><path class="xtick ticks crisp" d="M0,357v-5" transform="translate(126.78,0)" style="stroke: rgb(0, 0, 0); stroke-opacity: 1; stroke-width: 0.5px;"/><path class="xtick ticks crisp" d="M0,357v-5" transform="translate(200.56,0)" style="stroke: rgb(0, 0, 0); stroke-opacity: 1; stroke-width: 0.5px;"/><path class="xtick ticks crisp" d="M0,357v-5" transform="translate(274.35,0)" style="stroke: rgb(0, 0, 0); stroke-opacity: 1; stroke-width: 0.5px;"/><path class="xtick ticks crisp" d="M0,357v-5" transform="translate(348.13,0)" style="stroke: rgb(0, 0, 0); stroke-opacity: 1; stroke-width: 0.5px;"/><path class="xtick ticks crisp" d="M0,357v-5" transform="translate(421.91,0)" style="stroke: rgb(0, 0, 0); stroke-opacity: 1; stroke-width: 0.5px;"/><g class="xtick"><text text-anchor="middle" x="0" y="374.3" transform="translate(53,0)" style="font-family: 'Open Sans', verdana, arial, sans-serif; font-size: 14px; fill: rgb(0, 0, 0); fill-opacity: 1; white-space: pre;">0</text></g><g class="xtick"><text text-anchor="middle" x="0" y="374.3" style="font-family: 'Open Sans', verdana, arial, sans-serif; font-size: 14px; fill: rgb(0, 0, 0); fill-opacity: 1; white-space: pre;" transform="translate(126.78,0)">5</text></g><g class="xtick"><text text-anchor="middle" x="0" y="374.3" style="font-family: 'Open Sans', verdana, arial, sans-serif; font-size: 14px; fill: rgb(0, 0, 0); fill-opacity: 1; white-space: pre;" transform="translate(200.56,0)">10</text></g><g class="xtick"><text text-anchor="middle" x="0" y="374.3" style="font-family: 'Open Sans', verdana, arial, sans-serif; font-size: 14px; fill: rgb(0, 0, 0); fill-opacity: 1; white-space: pre;" transform="translate(274.35,0)">15</text></g><g class="xtick"><text text-anchor="middle" x="0" y="374.3" style="font-family: 'Open Sans', verdana, arial, sans-serif; font-size: 14px; fill: rgb(0, 0, 0); fill-opacity: 1; white-space: pre;" transform="translate(348.13,0)">20</text></g><g class="xtick"><text text-anchor="middle" x="0" y="374.3" style="font-family: 'Open Sans', verdana, arial, sans-serif; font-size: 14px; fill: rgb(0, 0, 0); fill-opacity: 1; white-space: pre;" transform="translate(421.91,0)">25</text></g></g><g class="yaxislayer-above"><path class="ytick ticks crisp" d="M53,0h5" transform="translate(0,346.67)" style="stroke: rgb(0, 0, 0); stroke-opacity: 1; stroke-width: 0.5px;"/><path class="ytick ticks crisp" d="M53,0h5" transform="translate(0,289.89)" style="stroke: rgb(0, 0, 0); stroke-opacity: 1; stroke-width: 0.5px;"/><path class="ytick ticks crisp" d="M53,0h5" transform="translate(0,233.11)" style="stroke: rgb(0, 0, 0); stroke-opacity: 1; stroke-width: 0.5px;"/><path class="ytick ticks crisp" d="M53,0h5" transform="translate(0,176.33)" style="stroke: rgb(0, 0, 0); stroke-opacity: 1; stroke-width: 0.5px;"/><path class="ytick ticks crisp" d="M53,0h5" transform="translate(0,119.56)" style="stroke: rgb(0, 0, 0); stroke-opacity: 1; stroke-width: 0.5px;"/><path class="ytick ticks crisp" d="M53,0h5" transform="translate(0,62.78)" style="stroke: rgb(0, 0, 0); stroke-opacity: 1; stroke-width: 0.5px;"/><g class="ytick"><text text-anchor="end" x="49.7" y="4.8999999999999995" transform="translate(0,346.67)" style="font-family: 'Open Sans', verdana, arial, sans-serif; font-size: 14px; fill: rgb(0, 0, 0); fill-opacity: 1; white-space: pre;">0</text></g><g class="ytick"><text text-anchor="end" x="49.7" y="4.8999999999999995" style="font-family: 'Open Sans', verdana, arial, sans-serif; font-size: 14px; fill: rgb(0, 0, 0); fill-opacity: 1; white-space: pre;" transform="translate(0,289.89)">0.05</text></g><g class="ytick"><text text-anchor="end" x="49.7" y="4.8999999999999995" style="font-family: 'Open Sans', verdana, arial, sans-serif; font-size: 14px; fill: rgb(0, 0, 0); fill-opacity: 1; white-space: pre;" transform="translate(0,233.11)">0.1</text></g><g class="ytick"><text text-anchor="end" x="49.7" y="4.8999999999999995" style="font-family: 'Open Sans', verdana, arial, sans-serif; font-size: 14px; fill: rgb(0, 0, 0); fill-opacity: 1; white-space: pre;" transform="translate(0,176.33)">0.15</text></g><g class="ytick"><text text-anchor="end" x="49.7" y="4.8999999999999995" style="font-family: 'Open Sans', verdana, arial, sans-serif; font-size: 14px; fill: rgb(0, 0, 0); fill-opacity: 1; white-space: pre;" transform="translate(0,119.56)">0.2</text></g><g class="ytick"><text text-anchor="end" x="49.7" y="4.8999999999999995" style="font-family: 'Open Sans', verdana, arial, sans-serif; font-size: 14px; fill: rgb(0, 0, 0); fill-opacity: 1; white-space: pre;" transform="translate(0,62.78)">0.25</text></g></g><g class="overaxes-above"/></g></g><g class="polarlayer"/><g class="smithlayer"/><g class="ternarylayer"/><g class="geolayer"/><g class="funnelarealayer"/><g class="pielayer"/><g class="iciclelayer"/><g class="treemaplayer"/><g class="sunburstlayer"/><g class="glimages"/><defs id="topdefs-7f6200"><g class="clips"/><clipPath id="legend7f6200"><rect width="87" height="53" x="0" y="0"/></clipPath></defs><g class="layer-above"><g class="imagelayer"/><g class="shapelayer"/></g><g class="infolayer"><g class="legend" pointer-events="all" transform="translate(500.78000000000003,30)"><rect class="bg" shape-rendering="crispEdges" style="stroke: rgb(68, 68, 68); stroke-opacity: 1; fill: rgb(255, 255, 255); fill-opacity: 1; stroke-width: 0px;" width="87" height="53" x="0" y="0"/><g class="scrollbox" transform="" clip-path="url(#legend7f6200)"><g class="groups"><g class="traces" transform="translate(0,15.6)" style="opacity: 1;"><text class="legendtext" text-anchor="start" x="40" y="5.46" style="font-family: 'Open Sans', verdana, arial, sans-serif; font-size: 14px; fill: rgb(0, 0, 0); fill-opacity: 1; white-space: pre;">Data</text><g class="layers" style="opacity: 1;"><g class="legendfill"/><g class="legendlines"><path class="js-line" d="M5,0h30" style="fill: none; stroke: rgb(128, 128, 128); stroke-opacity: 1; stroke-width: 2px;"/></g><g class="legendsymbols"><g class="legendpoints"/></g></g><rect class="legendtoggle" x="0" y="-10.6" width="81.078125" height="21.2" style="fill: rgb(0, 0, 0); fill-opacity: 0;"/></g><g class="traces" transform="translate(0,36.8)" style="opacity: 1;"><text class="legendtext" text-anchor="start" x="40" y="5.46" style="font-family: 'Open Sans', verdana, arial, sans-serif; font-size: 14px; fill: rgb(0, 0, 0); fill-opacity: 1; white-space: pre;">Model</text><g class="layers" style="opacity: 1;"><g class="legendfill"/><g class="legendlines"><path class="js-line" d="M5,0h30" style="fill: none; stroke: rgb(128, 0, 128); stroke-opacity: 1; stroke-width: 2px;"/></g><g class="legendsymbols"><g class="legendpoints"/></g></g><rect class="legendtoggle" x="0" y="-10.6" width="81.078125" height="21.2" style="fill: rgb(0, 0, 0); fill-opacity: 0;"/></g></g></g><rect class="scrollbar" rx="20" ry="3" width="0" height="0" style="fill: rgb(128, 139, 164); fill-opacity: 1;" x="0" y="0"/></g><g class="g-gtitle"><text class="gtitle" x="30" y="15" text-anchor="start" dy="0em" style="opacity: 1; font-family: 'Open Sans', verdana, arial, sans-serif; font-size: 14px; fill: rgb(0, 0, 0); fill-opacity: 1; white-space: pre;">At on Succinate 7.5 mM — μ: 1.9 1/h   K: 1 mM</text></g><g class="g-xtitle" transform="translate(0,5.449999999999989)"><text class="xtitle" x="272.5" y="387.8498046875" text-anchor="middle" style="opacity: 1; font-family: 'Open Sans', verdana, arial, sans-serif; font-size: 14px; fill: rgb(0, 0, 0); fill-opacity: 1; white-space: pre;">Time (hours)</text></g><g class="g-ytitle"><text class="ytitle" transform="rotate(-90,17.3001953125,193.5)" x="17.3001953125" y="193.5" text-anchor="middle" style="opacity: 1; font-family: 'Open Sans', verdana, arial, sans-serif; font-size: 14px; fill: rgb(0, 0, 0); fill-opacity: 1; white-space: pre;">OD600</text></g></g></svg>