<svg class="main-svg" xmlns="http://www.w3.org/2000/svg" xmlns:xlink="http://www.w3.org/1999/xlink" width="600" height="400" style="" viewBox="0 0 600 400"><rect x="0" y="0" width="600" height="400" style="fill: rgb(255, 255, 255); fill-opacity: 1;"/><defs id="defs-884f6d"><g class="clips"><clipPath id="clip884f6dxyplot" class="plotclip"><rect width="439" height="327"/></clipPath><clipPath class="axesclip" id="clip884f6dx"><rect x="53" y="0" width="439" height="400"/></clipPath><clipPath class="axesclip" id="clip884f6dy"><rect x="0" y="30" width="600" height="327"/></clipPath><clipPath class="axesclip" id="clip884f6dxy"><rect x="53" y="30" width="439" height="327"/></clipPath></g><g class="gradients"/><g class="patterns"/></defs><g class="bglayer"/><g class="layer-below"><g class="imagelayer"/><g class="shapelayer"/></g><g class="cartesianlayer"><g class="subplot xy"><g class="layer-subplot"><g class="shapelayer"/><g class="imagelayer"/></g><g class="minor-gridlayer"><g class="x"/><g class="y"/></g><g class="gridlayer"><g class="x"><path class="xgrid crisp" transform="translate(126.78,0)" d="M0,30v327" style="stroke: rgb(128, 128, 128); stroke-opacity: 1; stroke-width: 0.2px;"/><path class="xgrid crisp" transform="translate(200.56,0)" d="M0,30v327" style="stroke: rgb(128, 128, 128); stroke-opacity: 1; stroke-width: 0.2px;"/><path class="xgrid crisp" transform="translate(274.34000000000003,0)" d="M0,30v327" style="stroke: rgb(128, 128, 128); stroke-opacity: 1; stroke-width: 0.2px;"/><path class="xgrid crisp" transform="translate(348.13,0)" d="M0,30v327" style="stroke: rgb(128, 128, 128); stroke-opacity: 1; stroke-width: 0.2px;"/><path class="xgrid crisp" transform="translate(421.91,0)" d="M0,30v327" style="stroke: rgb(128, 128, 128); stroke-opacity: 1; stroke-width: 0.2px;"/></g><g class="y"><path class="ygrid crisp" transform="translate(0,345.86)" d="M53,0h439" style="stroke: rgb(128, 128, 128); stroke-opacity: 1; stroke-width: 0.2px;"/><path class="ygrid crisp" transform="translate(0,290)" d="M53,0h439" style="stroke: rgb(128, 128, 128); stroke-opacity: 1; stroke-width: 0.2px;"/><path class="ygrid crisp" transform="translate(0,234.13)" d="M53,0h439" style="stroke: rgb(128, 128, 128); stroke-opacity: 1; stroke-width: 0.2px;"/><path class="ygrid crisp" transform="translate(0,178.27)" d="M53,0h439" style="stroke: rgb(128, 128, 128); stroke-opacity: 1; stroke-width: 0.2px;"/><path class="ygrid crisp" transform="translate(0,122.4)" d="M53,0h439" style="stroke: rgb(128, 128, 128); stroke-opacity: 1; stroke-width: 0.2px;"/><path class="ygrid crisp" transform="translate(0,66.53999999999999)" d="M53,0h439" style="stroke: rgb(128, 128, 128); stroke-opacity: 1; stroke-width: 0.2px;"/></g></g><g class="zerolinelayer"/><g class="layer-between"><g class="shapelayer"/><g class="imagelayer"/></g><path class="xlines-below"/><path class="ylines-below"/><g class="overlines-below"/><g class="xaxislayer-below"/><g class="yaxislayer-below"/><g class="overaxes-below"/><g class="overplot"><g class="xy" transform="translate(53,30)" clip-path="url(#clip884f6dxyplot)"><g class="scatterlayer mlayer"><g class="trace scatter trace4bd8a8" style="stroke-miterlimit: 2; opacity: 1;"><g class="fills"/><g class="errorbars"/><g class="lines"><path class="js-line" d="M0,308.19L22.16,308.42L25.82,307.89L29.63,307.19L34.55,307.6L36.9,307.19L40.58,307.71L51.66,307.78L58.17,301.64L61.35,302.12L65.25,301.9L66.83,301.08L70.1,300.45L73.9,304.02L78.82,304.95L88.66,306.37L93.58,305.66L99.61,304.84L103.44,304.62L132.93,301.64L137.84,299.4L140.19,299.63L143.88,298.92L147.67,296.76L152.6,294.97L154.98,294.64L158.65,292.96L169.72,284.77L173.39,281.12L184.48,260.33L188.18,249.98L191.96,236.98L196.87,214.11L202.9,192.74L206.74,189.91L211.64,183.5L214,183.13L226.38,164.36L228.74,159.22L232.42,156.98L236.22,150.73L241.14,143.24L243.5,142.42L247.2,142.16L251,133.56L258.24,132.74L261.96,131.1L270.68,125.1L273.03,120.07L280.49,118.36L285.44,109.46L287.75,114.56L291.47,113.71L295.25,107.71L300.21,106.03L302.51,106.37L306.23,105.33L310.01,101.34L314.92,98.36L317.27,97.95L320.95,93.3L329.69,89.31L332.04,85.96L335.71,67.56L339.54,86.67L344.44,82.9L346.79,83.98L350.46,80.04L354.28,80.26L359.22,69.46L361.54,71.4L365.23,70.5L369.03,72.4L373.95,72.14L376.3,69.42L379.98,69.87L383.79,71.99L392.36,68.42L395.53,61.38L399.4,66.78L404,56.5L408.52,60.52L412.17,55.57L415.38,57.43L418.55,57.06L420.59,51.14L424.24,52.33L428.08,48.19L432.97,47.41L435.31,37.65L439,42.9" style="vector-effect: none; fill: none; stroke: rgb(128, 128, 128); stroke-opacity: 1; stroke-width: 2px; opacity: 1;"/></g><g class="points"/><g class="text"/></g><g class="trace scatter trace4cae6f" style="stroke-miterlimit: 2; opacity: 1;"><g class="fills"/><g class="errorbars"/><g class="lines"><path class="js-line" d="M0,297.91L11.08,299.51L14.88,300L22.16,300.15L25.82,299.18L40.58,299.77L44.38,299.33L70.1,299.55L73.9,298.1L78.82,298.69L81.18,298.21L88.66,298.1L93.58,297.5L99.61,296.46L103.44,296.35L110.71,295.64L114.39,295.49L123.08,293.93L125.45,293.89L132.93,293.26L137.84,291.69L147.67,289.61L152.6,287.48L154.98,287.37L158.65,286.26L167.36,282.01L169.72,280.07L173.39,277.21L177.2,272.36L184.48,263.24L188.18,256.13L196.87,228.64L199.23,221.49L206.74,193.82L211.64,184.62L214,183.24L217.66,178.06L221.46,173.89L226.38,169.61L228.74,168.04L232.42,162.9L241.14,150.28L243.5,146.22L247.2,145.96L251,140.6L255.89,138.29L258.24,135.64L265.74,129.91L270.68,128.23L273.03,123.2L276.71,123.98L280.49,121.71L285.44,115.38L287.75,117.24L291.47,116.72L295.25,110.06L300.21,110.84L302.51,108.49L306.23,108.45L310.01,106.7L314.92,102.05L317.27,103.54L320.95,101.01L324.79,93.44L329.69,92.66L332.04,90.32L335.71,75.05L339.54,90.02L344.44,87.71L346.79,87.78L350.46,84.28L354.28,85.18L359.22,76.39L361.54,76.31L365.23,78.66L369.03,79.89L373.95,79.52L376.3,75.34L379.98,76.91L383.79,77.91L390.77,76.31L392.36,73.89L395.53,70.54L399.4,73.15L404,63.76L408.52,30.24L412.17,33.56L415.38,66.7L418.55,65.44L420.59,50.8L424.24,62.05L428.08,58.25L432.97,56.01L435.31,38.88L439,53.63" style="vector-effect: none; fill: none; stroke: rgb(128, 128, 128); stroke-opacity: 1; stroke-width: 2px; opacity: 1;"/></g><g class="points"/><g class="text"/></g><g class="trace scatter trace7dd8c8" style="stroke-miterlimit: 2; opacity: 1;"><g class="fills"/><g class="errorbars"/><g class="lines"><path class="js-line" d="M0,309.87L7.79,308.56L11.08,309.35L19.8,310.65L22.16,310.09L25.82,309.57L29.63,309.87L61.35,309.72L65.25,309.5L66.83,308.9L70.1,309.72L78.82,308.86L81.18,308.71L99.61,306.96L103.44,306.29L118.18,304.95L123.08,304.1L129.12,303.02L132.93,303.31L140.19,301.3L143.88,300.93L152.6,297.54L154.98,297.65L167.36,292.29L169.72,290.8L173.39,288.49L177.2,283.76L184.48,276.2L188.18,268.75L191.96,259.55L196.87,243.61L199.23,236.46L202.9,219.78L206.74,203.76L211.64,194L214,192.96L217.66,187.89L221.46,186.07L226.38,182.35L232.42,176.87L236.22,169.05L241.14,162.57L243.5,155.83L247.2,154.45L251,151.21L255.89,149.35L258.24,143.13L261.96,142.05L265.74,142.31L270.68,136.95L273.03,132.92L276.71,135.05L280.49,132.77L285.44,128.34L287.75,127.63L291.47,124.21L295.25,118.44L300.21,119.22L302.51,118.32L310.01,116.09L314.92,113.11L317.27,111.02L320.95,110.95L324.79,103.17L329.69,102.83L332.04,100.15L335.71,86.22L339.54,98.84L344.44,95.08L346.79,94.71L350.46,89.98L354.28,90.99L359.22,84.21L361.54,83.91L365.23,87.15L369.03,88.71L373.95,89.79L376.3,86.07L379.98,85.29L390.77,85.25L392.36,82.38L395.53,81.04L399.4,82.98L404,70.58L408.52,24.77L412.17,16.35L415.38,35.42L418.55,46.55L420.59,32.03L424.24,62.94L428.08,65.29L432.97,63.39L435.31,40.11L439,60" style="vector-effect: none; fill: none; stroke: rgb(128, 128, 128); stroke-opacity: 1; stroke-width: 2px; opacity: 1;"/></g><g class="points"/><g class="text"/></g><g class="trace scatter trace29df3b" style="stroke-miterlimit: 2; opacity: 1;"><g class="fills"/><g class="errorbars"/><g class="lines"><path class="js-line" d="M0,306.93L108.35,306.02L110.71,305.92L132.93,304.2L137.84,303.51L147.67,301.5L152.6,300.03L158.65,297.6L162.45,295.61L169.72,290.38L173.39,286.78L177.2,282.18L182.12,274.58L188.18,262.18L191.96,252.6L206.74,210.17L211.64,200.24L214,196.85L217.66,193.16L221.46,190.86L226.38,189.33L236.22,188.39L241.14,188.28L335.71,188.21L339.54,188.21L439,188.21" style="vector-effect: none; fill: none; stroke: rgb(128, 0, 128); stroke-opacity: 1; stroke-width: 2px; opacity: 1;"/></g><g class="points"/><g class="text"/></g></g></g></g><g class="zerolinelayer-above"/><path class="xlines-above crisp" d="M52.5,357.25H492.5M52.5,29.75H492.5" style="fill: none; stroke-width: 0.5px; stroke: rgb(0, 0, 0); stroke-opacity: 1;"/><path class="ylines-above crisp" d="M52.75,30V357M492.25,30V357" style="fill: none; stroke-width: 0.5px; stroke: rgb(0, 0, 0); stroke-opacity: 1;"/><g class="overlines-above"/><g class="xaxislayer-above"><path class="xtick ticks crisp" d="M0,357v-5" transform="translate(126.78,0)" style="stroke: rgb(0, 0, 0); stroke-opacity: 1; stroke-width: 0.5px;"/><path class="xtick ticks crisp" d="M0,357v-5" transform="translate(200.56,0)" style="stroke: rgb(0, 0, 0); stroke-opacity: 1; stroke-width: 0.5px;"/><path class="xtick ticks crisp" d="M0,357v-5" transform="translate(274.34000000000003,0)" style="stroke: rgb(0, 0, 0); stroke-opacity: 1; stroke-width: 0.5px;"/><path class="xtick ticks crisp" d="M0,357v-5" transform="translate(348.13,0)" style="stroke: rgb(0, 0, 0); stroke-opacity: 1; stroke-width: 0.5px;"/><path class="xtick ticks crisp" d="M0,357v-5" transform="translate(421.91,0)" style="stroke: rgb(0, 0, 0); stroke-opacity: 1; stroke-width: 0.5px;"/><g class="xtick"><text text-anchor="middle" x="0" y="374.3" transform="translate(53,0)" style="font-family: 'Open Sans', verdana, arial, sans-serif; font-size: 14px; fill: rgb(0, 0, 0); fill-opacity: 1; white-space: pre;">0</text></g><g class="xtick"><text text-anchor="middle" x="0" y="374.3" style="font-family: 'Open Sans', verdana, arial, sans-serif; font-size: 14px; fill: rgb(0, 0, 0); fill-opacity: 1; white-space: pre;" transform="translate(126.78,0)">5</text></g><g class="xtick"><text text-anchor="middle" x="0" y="374.3" style="font-family: 'Open Sans', verdana, arial, sans-serif; font-size: 14px; fill: rgb(0, 0, 0); fill-opacity: 1; white-space: pre;" transform="translate(200.56,0)">10</text></g><g class="xtick"><text text-anchor="middle" x="0" y="374.3" style="font-family: 'Open Sans', verdana, arial, sans-serif; font-size: 14px; fill: rgb(0, 0, 0); fill-opacity: 1; white-space: pre;" transform="translate(274.34000000000003,0)">15</text></g><g class="xtick"><text text-anchor="middle" x="0" y="374.3" style="font-family: 'Open Sans', verdana, arial, sans-serif; font-size: 14px; fill: rgb(0, 0, 0); fill-opacity: 1; white-space: pre;" transform="translate(348.13,0)">20</text></g><g class="xtick"><text text-anchor="middle" x="0" y="374.3" style="font-family: 'Open Sans', verdana, arial, sans-serif; font-size: 14px; fill: rgb(0, 0, 0); fill-opacity: 1; white-space: pre;" transform="translate(421.91,0)">25</text></g></g><g class="yaxislayer-above"><path class="ytick ticks crisp" d="M53,0h5" transform="translate(0,345.86)" style="stroke: rgb(0, 0, 0); stroke-opacity: 1; stroke-width: 0.5px;"/><path class="ytick ticks crisp" d="M53,0h5" transform="translate(0,290)" style="stroke: rgb(0, 0, 0); stroke-opacity: 1; stroke-width: 0.5px;"/><path class="ytick ticks crisp" d="M53,0h5" transform="translate(0,234.13)" style="stroke: rgb(0, 0, 0); stroke-opacity: 1; stroke-width: 0.5px;"/><path class="ytick ticks crisp" d="M53,0h5" transform="translate(0,178.27)" style="stroke: rgb(0, 0, 0); stroke-opacity: 1; stroke-width: 0.5px;"/><path class="ytick ticks crisp" d="M53,0h5" transform="translate(0,122.4)" style="stroke: rgb(0, 0, 0); stroke-opacity: 1; stroke-width: 0.5px;"/><path class="ytick ticks crisp" d="M53,0h5" transform="translate(0,66.53999999999999)" style="stroke: rgb(0, 0, 0); stroke-opacity: 1; stroke-width: 0.5px;"/><g class="ytick"><text text-anchor="end" x="49.7" y="4.8999999999999995" transform="translate(0,345.86)" style="font-family: 'Open Sans', verdana, arial, sans-serif; font-size: 14px; fill: rgb(0, 0, 0); fill-opacity: 1; white-space: pre;">0</text></g><g class="ytick"><text text-anchor="end" x="49.7" y="4.8999999999999995" style="font-family: 'Open Sans', verdana, arial, sans-serif; font-size: 14px; fill: rgb(0, 0, 0); fill-opacity: 1; white-space: pre;" transform="translate(0,290)">0.05</text></g><g class="ytick"><text text-anchor="end" x="49.7" y="4.8999999999999995" style="font-family: 'Open Sans', verdana, arial, sans-serif; font-size: 14px; fill: rgb(0, 0, 0); fill-opacity: 1; white-space: pre;" transform="translate(0,234.13)">0.1</text></g><g class="ytick"><text text-anchor="end" x="49.7" y="4.8999999999999995" style="font-family: 'Open Sans', verdana, arial, sans-serif; font-size: 14px; fill: rgb(0, 0, 0); fill-opacity: 1; white-space: pre;" transform="translate(0,178.27)">0.15</text></g><g class="ytick"><text text-anchor="end" x="49.7" y="4.8999999999999995" style="font-family: 'Open Sans', verdana, arial, sans-serif; font-size: 14px; fill: rgb(0, 0, 0); fill-opacity: 1; white-space: pre;" transform="translate(0,122.4)">0.2</text></g><g class="ytick"><text text-anchor="end" x="49.7" y="4.8999999999999995" style="font-family: 'Open Sans', verdana, arial, sans-serif; font-size: 14px; fill: rgb(0, 0, 0); fill-opacity: 1; white-space: pre;" transform="translate(0,66.53999999999999)">0.25</text></g></g><g class="overaxes-above"/></g></g><g class="polarlayer"/><g class="smithlayer"/><g class="ternarylayer"/><g class="geolayer"/><g class="funnelarealayer"/><g class="pielayer"/><g class="iciclelayer"/><g class="treemaplayer"/><g class="sunburstlayer"/><g class="glimages"/><defs id="topdefs-884f6d"><g class="clips"/><clipPath id="legend884f6d"><rect width="87" height="53" x="0" y="0"/></clipPath></defs><g class="layer-above"><g class="imagelayer"/><g class="shapelayer"/></g><g class="infolayer"><g class="legend" pointer-events="all" transform="translate(500.78000000000003,30)"><rect class="bg" shape-rendering="crispEdges" style="stroke: rgb(68, 68, 68); stroke-opacity: 1; fill: rgb(255, 255, 255); fill-opacity: 1; stroke-width: 0px;" width="87" height="53" x="0" y="0"/><g class="scrollbox" transform="" clip-path="url(#legend884f6d)"><g class="groups"><g class="traces" transform="translate(0,15.6)" style="opacity: 1;"><text class="legendtext" text-anchor="start" x="40" y="5.46" style="font-family: 'Open Sans', verdana, arial, sans-serif; font-size: 14px; fill: rgb(0, 0, 0); fill-opacity: 1; white-space: pre;">Data</text><g class="layers" style="opacity: 1;"><g class="legendfill"/><g class="legendlines"><path class="js-line" d="M5,0h30" style="fill: none; stroke: rgb(128, 128, 128); stroke-opacity: 1; stroke-width: 2px;"/></g><g class="legendsymbols"><g class="legendpoints"/></g></g><rect class="legendtoggle" x="0" y="-10.6" width="81.078125" height="21.2" style="fill: rgb(0, 0, 0); fill-opacity: 0;"/></g><g class="traces" transform="translate(0,36.8)" style="opacity: 1;"><text class="legendtext" text-anchor="start" x="40" y="5.46" style="font-family: 'Open Sans', verdana, arial, sans-serif; font-size: 14px; fill: rgb(0, 0, 0); fill-opacity: 1; white-space: pre;">Model</text><g class="layers" style="opacity: 1;"><g class="legendfill"/><g class="legendlines"><path class="js-line" d="M5,0h30" style="fill: none; stroke: rgb(128, 0, 128); stroke-opacity: 1; stroke-width: 2px;"/></g><g class="legendsymbols"><g class="legendpoints"/></g></g><rect class="legendtoggle" x="0" y="-10.6" width="81.078125" height="21.2" style="fill: rgb(0, 0, 0); fill-opacity: 0;"/></g></g></g><rect class="scrollbar" rx="20" ry="3" width="0" height="0" style="fill: rgb(128, 139, 164); fill-opacity: 1;" x="0" y="0"/></g><g class="g-gtitle"><text class="gtitle" x="30" y="15" text-anchor="start" dy="0em" style="opacity: 1; font-family: 'Open Sans', verdana, arial, sans-serif; font-size: 14px; fill: rgb(0, 0, 0); fill-opacity: 1; white-space: pre;">At on Glucose 7.5 mM — μ: 3.5 1/h   K: 1.5 mM</text></g><g class="g-xtitle" transform="translate(0,5.449999999999989)"><text class="xtitle" x="272.5" y="387.8498046875" text-anchor="middle" style="opacity: 1; font-family: 'Open Sans', verdana, arial, sans-serif; font-size: 14px; fill: rgb(0, 0, 0); fill-opacity: 1; white-space: pre;">Time (hours)</text></g><g class="g-ytitle"><text class="ytitle" transform="rotate(-90,17.3001953125,193.5)" x="17.3001953125" y="193.5" text-anchor="middle" style="opacity: 1; font-family: 'Open Sans', verdana, arial, sans-serif; font-size: 14px; fill: rgb(0, 0, 0); fill-opacity: 1; white-space: pre;">OD600</text></g></g></svg>