<svg class="main-svg" xmlns="http://www.w3.org/2000/svg" xmlns:xlink="http://www.w3.org/1999/xlink" width="600" height="400" style="" viewBox="0 0 600 400"><rect x="0" y="0" width="600" height="400" style="fill: rgb(255, 255, 255); fill-opacity: 1;"/><defs id="defs-b9af02"><g class="clips"><clipPath id="clipb9af02xyplot" class="plotclip"><rect width="370" height="327"/></clipPath><clipPath class="axesclip" id="clipb9af02x"><rect x="53" y="0" width="370" height="400"/></clipPath><clipPath class="axesclip" id="clipb9af02y"><rect x="0" y="30" width="600" height="327"/></clipPath><clipPath class="axesclip" id="clipb9af02xy"><rect x="53" y="30" width="370" height="327"/></clipPath></g><g class="gradients"/><g class="patterns"/></defs><g class="bglayer"/><g class="layer-below"><g class="imagelayer"/><g class="shapelayer"/></g><g class="cartesianlayer"><g class="subplot xy"><g class="layer-subplot"><g class="shapelayer"/><g class="imagelayer"/></g><g class="minor-gridlayer"><g class="x"/><g class="y"/></g><g class="gridlayer"><g class="x"><path class="xgrid crisp" transform="translate(122.02,0)" d="M0,30v327" style="stroke: rgb(128, 128, 128); stroke-opacity: 1; stroke-width: 0.2px;"/><path class="xgrid crisp" transform="translate(191.04,0)" d="M0,30v327" style="stroke: rgb(128, 128, 128); stroke-opacity: 1; stroke-width: 0.2px;"/><path class="xgrid crisp" transform="translate(260.06,0)" d="M0,30v327" style="stroke: rgb(128, 128, 128); stroke-opacity: 1; stroke-width: 0.2px;"/><path class="xgrid crisp" transform="translate(329.08,0)" d="M0,30v327" style="stroke: rgb(128, 128, 128); stroke-opacity: 1; stroke-width: 0.2px;"/><path class="xgrid crisp" transform="translate(398.1,0)" d="M0,30v327" style="stroke: rgb(128, 128, 128); stroke-opacity: 1; stroke-width: 0.2px;"/></g><g class="y"><path class="ygrid crisp" transform="translate(0,326.93)" d="M53,0h370" style="stroke: rgb(128, 128, 128); stroke-opacity: 1; stroke-width: 0.2px;"/><path class="ygrid crisp" transform="translate(0,290.84)" d="M53,0h370" style="stroke: rgb(128, 128, 128); stroke-opacity: 1; stroke-width: 0.2px;"/><path class="ygrid crisp" transform="translate(0,254.74)" d="M53,0h370" style="stroke: rgb(128, 128, 128); stroke-opacity: 1; stroke-width: 0.2px;"/><path class="ygrid crisp" transform="translate(0,218.65)" d="M53,0h370" style="stroke: rgb(128, 128, 128); stroke-opacity: 1; stroke-width: 0.2px;"/><path class="ygrid crisp" transform="translate(0,182.55)" d="M53,0h370" style="stroke: rgb(128, 128, 128); stroke-opacity: 1; stroke-width: 0.2px;"/><path class="ygrid crisp" transform="translate(0,146.45999999999998)" d="M53,0h370" style="stroke: rgb(128, 128, 128); stroke-opacity: 1; stroke-width: 0.2px;"/><path class="ygrid crisp" transform="translate(0,110.36)" d="M53,0h370" style="stroke: rgb(128, 128, 128); stroke-opacity: 1; stroke-width: 0.2px;"/><path class="ygrid crisp" transform="translate(0,74.25999999999999)" d="M53,0h370" style="stroke: rgb(128, 128, 128); stroke-opacity: 1; stroke-width: 0.2px;"/><path class="ygrid crisp" transform="translate(0,38.17)" d="M53,0h370" style="stroke: rgb(128, 128, 128); stroke-opacity: 1; stroke-width: 0.2px;"/></g></g><g class="zerolinelayer"/><g class="layer-between"><g class="shapelayer"/><g class="imagelayer"/></g><path class="xlines-below"/><path class="ylines-below"/><g class="overlines-below"/><g class="xaxislayer-below"/><g class="yaxislayer-below"/><g class="overaxes-below"/><g class="overplot"><g class="xy" transform="translate(53,30)" clip-path="url(#clipb9af02xyplot)"><g class="scatterlayer mlayer"><g class="trace scatter trace4de71a" style="stroke-miterlimit: 2; opacity: 1;"><g class="fills"/><g class="errorbars"/><g class="lines"><path class="js-line" d="M0,308.24L7.29,308L10.37,308L18.52,308.97L20.73,308.6L24.16,307.28L27.72,308.97L34.52,307.16L37.96,307.76L41.51,308.48L46.14,307.04L57.39,307.76L61.04,305.96L62.52,307.28L65.57,308.48L69.13,305.6L73.74,306.44L75.94,305.24L79.4,304.27L82.94,303.79L87.54,300.78L89.75,299.94L93.18,300.66L101.36,296.93L103.56,296.57L107.01,295.73L110.55,292L115.14,291.04L117.35,289.47L124.35,286.35L128.94,280.57L134.59,278.28L138.14,273.11L142.75,262.64L144.98,265.53L148.42,257.23L151.96,252.18L158.76,231.48L162.2,223.66L165.76,205.49L170.37,186.24L172.57,176.74L176.03,167.47L179.57,156.52L184.17,149.78L186.37,146.17L189.8,142.81L197.98,135.35L200.19,121.51L203.61,136.19L207.17,127.04L211.77,126.56L213.98,117.18L217.42,131.25L220.97,122.95L225.58,112.48L227.78,117.06L231.25,124.52L234.8,106.83L239.38,109.48L241.58,109.6L245.05,108.63L248.59,104.42L253.21,94.32L255.41,98.65L258.86,99.01L262.39,88.78L267.01,78.43L269.18,85.53L272.66,82.77L276.19,76.75L280.83,71.34L282.99,80.72L286.46,78.43L290,64.12L294.6,49.08L296.79,61.11L300.24,59.42L303.83,29.22L308.41,32.11L310.61,35.36L314.05,16.35L317.63,24.65L322.21,22.97L324.41,25.73L327.84,22L331.41,31.75L336.04,25.01L338.21,31.99L341.66,42.82L345.22,50.4L349.82,54.25L352.01,61.71L355.46,59.91L359.02,62.79L365.55,97.69L367.04,100.69L370,122.35" style="vector-effect: none; fill: none; stroke: rgb(128, 0, 128); stroke-opacity: 1; stroke-width: 2px; opacity: 1;"/></g><g class="points"/><g class="text"/></g><g class="trace scatter trace26e08d" style="stroke-miterlimit: 2; opacity: 1;"><g class="fills"/><g class="errorbars"/><g class="lines"><path class="js-line" d="M0,310.41L4.71,310.53L7.29,309.45L10.37,308.36L13.92,310.65L24.16,306.2L27.72,306.08L32.32,307.04L34.52,306.44L37.96,307.76L41.51,306.32L46.14,303.79L48.33,304.03L65.57,302.71L69.13,300.18L73.74,300.3L75.94,298.02L79.4,297.78L82.94,295.85L87.54,295.37L89.75,293.81L93.18,292.36L96.76,289.11L107.01,284.9L110.55,283.34L117.35,279.37L120.79,279.61L124.35,277.68L128.94,273.71L131.14,272.27L134.59,271.07L138.14,266.61L142.75,262.28L144.98,263.36L148.42,259.03L158.76,241.95L162.2,234.85L170.37,200.68L172.57,195.14L176.03,182.27L179.57,172.76L184.17,164.22L186.37,162.78L189.8,155.08L193.4,155.32L197.98,156.28L200.19,152.91L203.61,151.35L207.17,146.9L211.77,143.53L213.98,135.95L217.42,143.53L220.97,137.75L225.58,130.53L227.78,136.91L231.25,136.07L234.8,119.82L239.38,122.47L241.58,126.2L245.05,125.96L248.59,123.19L253.21,118.14L255.41,117.42L258.86,120.31L262.39,116.21L267.01,113.45L269.18,119.1L276.19,110.32L280.83,111.76L282.99,118.98L286.46,115.25L290,98.41L294.6,88.78L296.79,92.51L300.24,82.16L303.83,60.63L308.41,63.52L310.61,66.04L314.05,58.94L317.63,54.25L322.21,56.54L324.41,62.91L327.84,58.82L336.04,69.41L338.21,80.36L341.66,83.97L345.22,82.16L352.01,89.14L355.46,83.73L359.02,78.68L365.55,114.65L367.04,123.43L370,136.07" style="vector-effect: none; fill: none; stroke: rgb(128, 0, 128); stroke-opacity: 1; stroke-width: 2px; opacity: 1;"/></g><g class="points"/><g class="text"/></g><g class="trace scatter trace33d8c2" style="stroke-miterlimit: 2; opacity: 1;"><g class="fills"/><g class="errorbars"/><g class="lines"><path class="js-line" d="M0,293.44L4.71,302.23L7.29,296.09L10.37,294.29L13.92,294.41L20.73,295.97L24.16,296.09L27.72,297.05L32.32,295.49L34.52,289.11L37.96,287.19L41.51,285.74L46.14,281.05L48.33,275.88L54.41,301.51L57.39,301.99L61.04,298.74L65.57,300.18L69.13,298.38L73.74,298.86L75.94,298.02L87.54,289.96L89.75,289.83L93.18,287.31L96.76,288.03L103.56,285.74L107.01,283.1L110.55,279.73L115.14,277.68L117.35,276.12L120.79,277.08L124.35,276.6L128.94,271.55L131.14,272.27L134.59,269.26L142.75,260.12L144.98,261.92L148.42,259.03L151.96,250.73L156.56,246.76L158.76,243.39L162.2,234.13L165.76,221.37L172.57,199.48L176.03,183.71L179.57,173.13L184.17,166.03L186.37,159.17L189.8,152.91L193.4,154.96L197.98,152.31L200.19,149.3L203.61,145.93L207.17,139.68L211.77,137.75L213.98,130.89L217.42,137.75L220.97,130.17L225.58,124.04L227.78,127.16L231.25,125.6L234.8,109L239.38,114.53L241.58,115.37L245.05,115.49L248.59,112L253.21,109.12L255.41,111.28L258.86,109.12L262.39,108.63L267.01,103.7L269.18,107.19L272.66,97.93L276.19,92.27L280.83,97.69L282.99,107.43L286.46,95.4L294.6,74.34L296.79,80.96L300.24,67L303.83,49.08L308.41,46.55L310.61,49.44L314.05,26.82L317.63,31.87L322.21,34.16L324.41,41.26L327.84,31.03L331.41,34.64L336.04,35.84L338.21,48.6L341.66,50.04L345.22,48.23L349.82,54.97L352.01,53.05L355.46,46.19L359.02,45.83L370,119.1" style="vector-effect: none; fill: none; stroke: rgb(128, 0, 128); stroke-opacity: 1; stroke-width: 2px; opacity: 1;"/></g><g class="points"/><g class="text"/></g><g class="trace scatter trace138d31" style="stroke-miterlimit: 2; opacity: 1;"><g class="fills"/><g class="errorbars"/><g class="lines"><path class="js-line" d="M0,307.76L41.51,306.43L46.14,306.13L65.57,304.29L69.13,303.8L82.94,301.26L87.54,300.12L96.76,297.2L101.36,295.36L110.55,290.67L115.14,287.7L124.35,280.09L128.94,275.28L134.59,268.21L138.14,263.04L144.98,251.23L148.42,244.3L156.56,225.12L158.76,219.3L179.57,161.7L184.17,152.28L189.8,143.99L193.4,140.43L200.19,136.43L203.61,135.34L213.98,133.85L217.42,133.67L245.05,133.38L248.59,133.37L370,133.37" style="vector-effect: none; fill: none; stroke: rgb(255, 0, 0); stroke-opacity: 1; stroke-width: 2px; opacity: 1;"/></g><g class="points"/><g class="text"/></g></g></g></g><g class="zerolinelayer-above"/><path class="xlines-above crisp" d="M52.5,357.25H423.5M52.5,29.75H423.5" style="fill: none; stroke-width: 0.5px; stroke: rgb(0, 0, 0); stroke-opacity: 1;"/><path class="ylines-above crisp" d="M52.75,30V357M423.25,30V357" style="fill: none; stroke-width: 0.5px; stroke: rgb(0, 0, 0); stroke-opacity: 1;"/><g class="overlines-above"/><g class="xaxislayer-above"><path class="xtick ticks crisp" d="M0,357v-5" transform="translate(122.02,0)" style="stroke: rgb(0, 0, 0); stroke-opacity: 1; stroke-width: 0.5px;"/><path class="xtick ticks crisp" d="M0,357v-5" transform="translate(191.04,0)" style="stroke: rgb(0, 0, 0); stroke-opacity: 1; stroke-width: 0.5px;"/><path class="xtick ticks crisp" d="M0,357v-5" transform="translate(260.06,0)" style="stroke: rgb(0, 0, 0); stroke-opacity: 1; stroke-width: 0.5px;"/><path class="xtick ticks crisp" d="M0,357v-5" transform="translate(329.08,0)" style="stroke: rgb(0, 0, 0); stroke-opacity: 1; stroke-width: 0.5px;"/><path class="xtick ticks crisp" d="M0,357v-5" transform="translate(398.1,0)" style="stroke: rgb(0, 0, 0); stroke-opacity: 1; stroke-width: 0.5px;"/><g class="xtick"><text text-anchor="middle" x="0" y="374.3" transform="translate(53,0)" style="font-family: 'Open Sans', verdana, arial, sans-serif; font-size: 14px; fill: rgb(0, 0, 0); fill-opacity: 1; white-space: pre;">0</text></g><g class="xtick"><text text-anchor="middle" x="0" y="374.3" style="font-family: 'Open Sans', verdana, arial, sans-serif; font-size: 14px; fill: rgb(0, 0, 0); fill-opacity: 1; white-space: pre;" transform="translate(122.02,0)">5</text></g><g class="xtick"><text text-anchor="middle" x="0" y="374.3" style="font-family: 'Open Sans', verdana, arial, sans-serif; font-size: 14px; fill: rgb(0, 0, 0); fill-opacity: 1; white-space: pre;" transform="translate(191.04,0)">10</text></g><g class="xtick"><text text-anchor="middle" x="0" y="374.3" style="font-family: 'Open Sans', verdana, arial, sans-serif; font-size: 14px; fill: rgb(0, 0, 0); fill-opacity: 1; white-space: pre;" transform="translate(260.06,0)">15</text></g><g class="xtick"><text text-anchor="middle" x="0" y="374.3" style="font-family: 'Open Sans', verdana, arial, sans-serif; font-size: 14px; fill: rgb(0, 0, 0); fill-opacity: 1; white-space: pre;" transform="translate(329.08,0)">20</text></g><g class="xtick"><text text-anchor="middle" x="0" y="374.3" style="font-family: 'Open Sans', verdana, arial, sans-serif; font-size: 14px; fill: rgb(0, 0, 0); fill-opacity: 1; white-space: pre;" transform="translate(398.1,0)">25</text></g></g><g class="yaxislayer-above"><path class="ytick ticks crisp" d="M53,0h5" transform="translate(0,326.93)" style="stroke: rgb(0, 0, 0); stroke-opacity: 1; stroke-width: 0.5px;"/><path class="ytick ticks crisp" d="M53,0h5" transform="translate(0,290.84)" style="stroke: rgb(0, 0, 0); stroke-opacity: 1; stroke-width: 0.5px;"/><path class="ytick ticks crisp" d="M53,0h5" transform="translate(0,254.74)" style="stroke: rgb(0, 0, 0); stroke-opacity: 1; stroke-width: 0.5px;"/><path class="ytick ticks crisp" d="M53,0h5" transform="translate(0,218.65)" style="stroke: rgb(0, 0, 0); stroke-opacity: 1; stroke-width: 0.5px;"/><path class="ytick ticks crisp" d="M53,0h5" transform="translate(0,182.55)" style="stroke: rgb(0, 0, 0); stroke-opacity: 1; stroke-width: 0.5px;"/><path class="ytick ticks crisp" d="M53,0h5" transform="translate(0,146.45999999999998)" style="stroke: rgb(0, 0, 0); stroke-opacity: 1; stroke-width: 0.5px;"/><path class="ytick ticks crisp" d="M53,0h5" transform="translate(0,110.36)" style="stroke: rgb(0, 0, 0); stroke-opacity: 1; stroke-width: 0.5px;"/><path class="ytick ticks crisp" d="M53,0h5" transform="translate(0,74.25999999999999)" style="stroke: rgb(0, 0, 0); stroke-opacity: 1; stroke-width: 0.5px;"/><path class="ytick ticks crisp" d="M53,0h5" transform="translate(0,38.17)" style="stroke: rgb(0, 0, 0); stroke-opacity: 1; stroke-width: 0.5px;"/><g class="ytick"><text text-anchor="end" x="49.7" y="4.8999999999999995" transform="translate(0,326.93)" style="font-family: 'Open Sans', verdana, arial, sans-serif; font-size: 14px; fill: rgb(0, 0, 0); fill-opacity: 1; white-space: pre;">0.01</text></g><g class="ytick"><text text-anchor="end" x="49.7" y="4.8999999999999995" style="font-family: 'Open Sans', verdana, arial, sans-serif; font-size: 14px; fill: rgb(0, 0, 0); fill-opacity: 1; white-space: pre;" transform="translate(0,290.84)">0.02</text></g><g class="ytick"><text text-anchor="end" x="49.7" y="4.8999999999999995" style="font-family: 'Open Sans', verdana, arial, sans-serif; font-size: 14px; fill: rgb(0, 0, 0); fill-opacity: 1; white-space: pre;" transform="translate(0,254.74)">0.03</text></g><g class="ytick"><text text-anchor="end" x="49.7" y="4.8999999999999995" style="font-family: 'Open Sans', verdana, arial, sans-serif; font-size: 14px; fill: rgb(0, 0, 0); fill-opacity: 1; white-space: pre;" transform="translate(0,218.65)">0.04</text></g><g class="ytick"><text text-anchor="end" x="49.7" y="4.8999999999999995" style="font-family: 'Open Sans', verdana, arial, sans-serif; font-size: 14px; fill: rgb(0, 0, 0); fill-opacity: 1; white-space: pre;" transform="translate(0,182.55)">0.05</text></g><g class="ytick"><text text-anchor="end" x="49.7" y="4.8999999999999995" style="font-family: 'Open Sans', verdana, arial, sans-serif; font-size: 14px; fill: rgb(0, 0, 0); fill-opacity: 1; white-space: pre;" transform="translate(0,146.45999999999998)">0.06</text></g><g class="ytick"><text text-anchor="end" x="49.7" y="4.8999999999999995" style="font-family: 'Open Sans', verdana, arial, sans-serif; font-size: 14px; fill: rgb(0, 0, 0); fill-opacity: 1; white-space: pre;" transform="translate(0,110.36)">0.07</text></g><g class="ytick"><text text-anchor="end" x="49.7" y="4.8999999999999995" style="font-family: 'Open Sans', verdana, arial, sans-serif; font-size: 14px; fill: rgb(0, 0, 0); fill-opacity: 1; white-space: pre;" transform="translate(0,74.25999999999999)">0.08</text></g><g class="ytick"><text text-anchor="end" x="49.7" y="4.8999999999999995" style="font-family: 'Open Sans', verdana, arial, sans-serif; font-size: 14px; fill: rgb(0, 0, 0); fill-opacity: 1; white-space: pre;" transform="translate(0,38.17)">0.09</text></g></g><g class="overaxes-above"/></g></g><g class="polarlayer"/><g class="smithlayer"/><g class="ternarylayer"/><g class="geolayer"/><g class="funnelarealayer"/><g class="pielayer"/><g class="iciclelayer"/><g class="treemaplayer"/><g class="sunburstlayer"/><g class="glimages"/><defs id="topdefs-b9af02"><g class="clips"/><clipPath id="legendb9af02"><rect width="158" height="32" x="0" y="0"/></clipPath></defs><g class="layer-above"><g class="imagelayer"/><g class="shapelayer"/></g><g class="infolayer"><g class="legend" pointer-events="all" transform="translate(430.40000000000003,30)"><rect class="bg" shape-rendering="crispEdges" style="stroke: rgb(68, 68, 68); stroke-opacity: 1; fill: rgb(255, 255, 255); fill-opacity: 1; stroke-width: 0px;" width="158" height="32" x="0" y="0"/><g class="scrollbox" transform="" clip-path="url(#legendb9af02)"><g class="groups"><g class="traces" transform="translate(0,15.6)" style="opacity: 1;"><text class="legendtext" text-anchor="start" x="40" y="5.46" style="font-family: 'Open Sans', verdana, arial, sans-serif; font-size: 14px; fill: rgb(0, 0, 0); fill-opacity: 1; white-space: pre;">Fitted Model (lag)</text><g class="layers" style="opacity: 1;"><g class="legendfill"/><g class="legendlines"><path class="js-line" d="M5,0h30" style="fill: none; stroke: rgb(255, 0, 0); stroke-opacity: 1; stroke-width: 2px;"/></g><g class="legendsymbols"><g class="legendpoints"/></g></g><rect class="legendtoggle" x="0" y="-10.6" width="152.71875" height="21.2" style="fill: rgb(0, 0, 0); fill-opacity: 0;"/></g></g></g><rect class="scrollbar" rx="20" ry="3" width="0" height="0" style="fill: rgb(128, 139, 164); fill-opacity: 1;" x="0" y="0"/></g><g class="g-gtitle"><text class="gtitle" x="30" y="15" text-anchor="start" dy="0em" style="opacity: 1; font-family: 'Open Sans', verdana, arial, sans-serif; font-size: 14px; fill: rgb(0, 0, 0); fill-opacity: 1; white-space: pre;">At - Glucose 5.0 mM</text></g><g class="g-xtitle" transform="translate(0,5.449999999999989)"><text class="xtitle" x="238" y="387.8498046875" text-anchor="middle" style="opacity: 1; font-family: 'Open Sans', verdana, arial, sans-serif; font-size: 14px; fill: rgb(0, 0, 0); fill-opacity: 1; white-space: pre;">Time (hours)</text></g><g class="g-ytitle"><text class="ytitle" transform="rotate(-90,17.3001953125,193.5)" x="17.3001953125" y="193.5" text-anchor="middle" style="opacity: 1; font-family: 'Open Sans', verdana, arial, sans-serif; font-size: 14px; fill: rgb(0, 0, 0); fill-opacity: 1; white-space: pre;">OD</text></g></g></svg>