<svg class="main-svg" xmlns="http://www.w3.org/2000/svg" xmlns:xlink="http://www.w3.org/1999/xlink" width="600" height="400" style="" viewBox="0 0 600 400"><rect x="0" y="0" width="600" height="400" style="fill: rgb(255, 255, 255); fill-opacity: 1;"/><defs id="defs-22aab1"><g class="clips"><clipPath id="clip22aab1xyplot" class="plotclip"><rect width="525" height="327"/></clipPath><clipPath class="axesclip" id="clip22aab1x"><rect x="45" y="0" width="525" height="400"/></clipPath><clipPath class="axesclip" id="clip22aab1y"><rect x="0" y="30" width="600" height="327"/></clipPath><clipPath class="axesclip" id="clip22aab1xy"><rect x="45" y="30" width="525" height="327"/></clipPath></g><g class="gradients"/><g class="patterns"/></defs><g class="bglayer"/><g class="layer-below"><g class="imagelayer"/><g class="shapelayer"/></g><g class="cartesianlayer"><g class="subplot xy"><g class="layer-subplot"><g class="shapelayer"/><g class="imagelayer"/></g><g class="minor-gridlayer"><g class="x"/><g class="y"/></g><g class="gridlayer"><g class="x"><path class="xgrid crisp" transform="translate(124.85,0)" d="M0,30v327" style="stroke: rgb(128, 128, 128); stroke-opacity: 1; stroke-width: 0.2px;"/><path class="xgrid crisp" transform="translate(204.7,0)" d="M0,30v327" style="stroke: rgb(128, 128, 128); stroke-opacity: 1; stroke-width: 0.2px;"/><path class="xgrid crisp" transform="translate(284.53999999999996,0)" d="M0,30v327" style="stroke: rgb(128, 128, 128); stroke-opacity: 1; stroke-width: 0.2px;"/><path class="xgrid crisp" transform="translate(364.39,0)" d="M0,30v327" style="stroke: rgb(128, 128, 128); stroke-opacity: 1; stroke-width: 0.2px;"/><path class="xgrid crisp" transform="translate(444.24,0)" d="M0,30v327" style="stroke: rgb(128, 128, 128); stroke-opacity: 1; stroke-width: 0.2px;"/><path class="xgrid crisp" transform="translate(524.0899999999999,0)" d="M0,30v327" style="stroke: rgb(128, 128, 128); stroke-opacity: 1; stroke-width: 0.2px;"/></g><g class="y"><path class="ygrid crisp" transform="translate(0,341.48)" d="M45,0h525" style="stroke: rgb(128, 128, 128); stroke-opacity: 1; stroke-width: 0.2px;"/><path class="ygrid crisp" transform="translate(0,284.97)" d="M45,0h525" style="stroke: rgb(128, 128, 128); stroke-opacity: 1; stroke-width: 0.2px;"/><path class="ygrid crisp" transform="translate(0,228.46)" d="M45,0h525" style="stroke: rgb(128, 128, 128); stroke-opacity: 1; stroke-width: 0.2px;"/><path class="ygrid crisp" transform="translate(0,171.95)" d="M45,0h525" style="stroke: rgb(128, 128, 128); stroke-opacity: 1; stroke-width: 0.2px;"/><path class="ygrid crisp" transform="translate(0,115.44)" d="M45,0h525" style="stroke: rgb(128, 128, 128); stroke-opacity: 1; stroke-width: 0.2px;"/><path class="ygrid crisp" transform="translate(0,58.93)" d="M45,0h525" style="stroke: rgb(128, 128, 128); stroke-opacity: 1; stroke-width: 0.2px;"/></g></g><g class="zerolinelayer"/><g class="layer-between"><g class="shapelayer"/><g class="imagelayer"/></g><path class="xlines-below"/><path class="ylines-below"/><g class="overlines-below"/><g class="xaxislayer-below"/><g class="yaxislayer-below"/><g class="overaxes-below"/><g class="overplot"><g class="xy" transform="translate(45,30)" clip-path="url(#clip22aab1xyplot)"><g class="scatterlayer mlayer"><g class="trace scatter trace56ed3f" style="stroke-miterlimit: 2; opacity: 1;"><g class="fills"/><g class="errorbars"/><g class="lines"><path class="js-line" d="M0,309.07L8.05,308.31L10.71,308.46L24.01,306.98L26.69,307.81L31.47,306.9L33.19,304.49L34.91,305.9L36.16,304.11L37.93,303.12L39.99,303.62L42.65,302.04L43.93,299.93L45.93,299.46L47.97,297.99L53.9,295.43L55.97,292.1L61.9,273.66L63.94,265.78L67.88,244.55L69.87,238.85L71.93,234.16L74.58,216.03L79.91,210.27L82.57,202.49L85.85,188.38L87.9,186.48L91.84,170.98L93.82,168.74L95.88,164.54L98.54,161.9L99.82,158.87L101.82,160.58L103.87,157.75L106.53,155.76L107.8,153.99L109.79,154.55L111.87,157.85L114.52,156.53L115.79,153.18L117.77,154.03L119.83,155.72L122.5,151.09L123.77,144.36L125.76,148.88L127.82,146.83L130.48,147.04L131.75,145.23L133.76,148.51L135.81,151.63L138.47,150.48L139.74,144.29L141.74,148.75L143.79,153.89L146.46,151.61L147.73,149.6L149.73,151.6L151.78,158L154.45,157.15L155.7,153.93L157.71,152.42L159.76,155.68L162.44,155.51L163.69,153.63L165.7,156.44L167.74,154.29L170.4,160.32L171.68,153.59L173.67,156.7L175.75,155.48L178.4,156.02L181.65,150.73L183.73,153.87L186.38,160.09L187.65,158.34L189.64,159.94L191.7,163.07L194.37,162.82L195.63,160.92L199.69,168.23L202.35,169.32L203.62,159.15L205.61,165.65L207.67,166.1L211.45,168.62L212.3,166.72L214.02,171.22L216.12,169.72L218.59,172.09L219.65,185.24L223.03,191.77L224.76,194.82L226.48,194.17L227.58,189.16L229.56,190.27L234.28,176.86L235.55,177.83L237.55,197.93L239.62,182.68L242.27,191.04L243.54,173.86L245.55,188.65L247.59,182.37L251.53,198.37L253.52,185.39L255.59,202.66L258.24,200.61L259.51,203.32L261.5,197.14L263.56,196.46L266.22,196.65L267.49,191.26L269.49,206.94L271.54,209.4L274.2,208.01L275.49,197.67L277.49,204.15L279.53,190.42L282.19,202.83L283.46,207.33L285.46,205.67L287.52,205.51L290.17,210.55L291.45,195.77L293.46,196.78L295.5,207.45L298.16,209.12L299.43,203.15L301.43,203.15L303.5,206.09L306.16,206.82L307.43,203.32L309.41,211.21L311.49,206.84L314.14,199.27L315.41,203.21L317.4,204.11L319.47,216.34L322.12,212.81L323.4,208.63L325.38,218.71L327.45,213.23L330.1,213.4L331.37,214.7L333.37,206.73L335.43,215.43L338.09,212.59L339.36,211.59L341.35,213.25L343.43,212.44L346.07,210.03L349.33,215.32L351.41,214.64L354.05,213.98L355.33,215.09L357.33,212.89L359.39,219.31L362.05,216.69L363.32,209.69L366.78,226.85L368.48,226.15L370.19,227.98L371.3,222.95L373.29,222.18L375.33,230.82L378,236.4L379.3,236.96L381.27,231.37L383.33,234L386,237.62L387.27,247.64L389.28,241.9L391.32,238.98L393.97,250.58L395.25,246.23L397.25,248.34L399.29,241.31L401.97,252.07L404.93,250.03L406.64,241.92L408.35,245.46L410.16,241.46L411.22,251.81L413.21,256.23L415.26,253.33L417.92,251.52L419.2,255.29L421.2,258.08L423.24,249.34L425.9,253.01L427.2,249.66L429.18,256.19L431.23,254.76L433.9,255.37L435.18,252.5L439.22,246.98L441.87,236.28L443.16,255.74L445.15,258.38L447.2,247.94L449.87,242.67L451.15,242.73L453.13,254.27L455.2,250.71L457.98,243.33L459.14,246.02L461.14,253.86L463.18,232.12L465.84,259.25L467.12,247.62L469.12,254.14L471.16,246.68L473.83,240.58L477.09,261.2L479.14,260.9L483.09,245.02L485.09,260.13L487.13,248.68L489.78,260.09L491.07,254.35L493.06,257.83L497.77,246.12L499.07,254.65L501.06,256.66L503.09,248.32L507.04,259.3L509.03,255.08L511.08,257.81L513.74,251.82L515.02,259L517.02,258.94L519.08,247.47L521.72,261.3L525,242.35" style="vector-effect: none; fill: none; stroke: rgb(128, 0, 128); stroke-opacity: 1; stroke-width: 2px; opacity: 1;"/></g><g class="points"/><g class="text"/></g><g class="trace scatter traceb8e267" style="stroke-miterlimit: 2; opacity: 1;"><g class="fills"/><g class="errorbars"/><g class="lines"><path class="js-line" d="M0,309.97L8.05,309.22L10.71,309.14L19.97,308.43L21.96,307.75L24.01,307.26L26.69,307.98L27.95,307.22L31.47,306.45L33.19,304.49L34.91,306.36L36.16,304L37.93,303.17L42.65,301.99L43.93,300.55L45.93,299.18L47.97,298.84L51.91,295.3L53.9,294.02L55.97,290.91L58.63,284.34L61.9,275.92L63.94,267.59L66.6,258.93L67.88,248.28L74.58,210.16L75.85,207.82L77.85,207.56L79.91,204.9L82.57,198.08L83.86,191.77L87.9,184.79L90.56,174.88L93.82,164.72L95.88,163.29L98.54,157.89L99.82,157L101.82,157.36L103.87,155.1L107.8,155.12L109.79,156.98L111.87,160.62L114.52,158.79L115.79,154.99L117.77,156.46L119.83,157.81L122.5,152.16L123.77,144.93L125.76,150.07L127.82,148.64L130.48,149.92L131.75,146.98L133.76,148.62L135.81,152.03L138.47,151.95L139.74,144.85L141.74,146.32L143.79,152.03L146.46,149.24L147.73,146.32L149.73,148.32L151.78,153.82L154.45,150.77L155.7,144.72L157.71,144L159.76,146.92L162.44,146.64L163.69,143.4L165.7,146.6L167.74,147.34L170.4,153.03L171.68,144.72L173.67,145.62L178.4,146.7L179.67,143.46L181.65,139.71L183.73,143.53L186.38,148.9L187.65,146.36L189.64,147.96L191.7,153.12L194.37,150.45L195.63,147.13L199.69,158.96L202.35,159.71L203.62,148.41L205.61,154.8L207.67,155.65L211.45,158.4L212.3,155.81L214.02,160.37L216.12,159.83L218.59,156.94L219.65,158.34L223.03,181.04L227.58,135.58L229.56,136.36L231.64,126.66L234.28,128.71L235.55,126.02L237.55,140.07L239.62,117.12L242.27,125.04L243.54,101.53L245.55,109.31L247.59,97.72L250.27,111.47L251.53,108.18L253.52,96.1L255.59,110.38L258.24,102.62L259.51,106.46L261.5,92.6L263.56,88.31L266.22,88.78L267.49,80.45L269.49,94.94L271.54,93.45L274.2,93.24L275.49,84.31L277.49,87.8L279.53,74.18L282.19,79.7L283.46,86.29L285.46,77.23L290.17,84.09L291.45,75.06L293.46,69.24L295.5,81.83L298.16,86.89L299.43,80.07L301.43,79.51L303.5,77.36L306.16,75.67L307.43,69.45L309.41,80.45L311.49,82.01L314.14,65.29L315.41,69.9L317.4,71.31L319.47,81.79L322.12,76.06L323.4,76.17L325.38,83.26L327.45,75.97L330.1,79.08L331.37,79.36L333.37,71.28L335.43,75.85L338.09,76.51L339.36,74.5L341.35,74.35L343.43,72.8L346.07,69.2L347.34,65.21L349.33,72.75L351.41,70.82L354.05,74.8L355.33,71.05L357.33,62.74L359.39,76.06L363.32,57L366.78,70.15L368.48,67.08L370.19,74.27L371.3,73.2L373.29,72.6L375.33,78.98L378,83.99L381.27,71.33L383.33,74.82L386,72.73L387.27,80.71L389.28,72.77L391.32,72.9L393.97,77.38L395.25,67.21L397.25,72.03L399.29,66.64L401.97,74.01L404.93,77.96L406.64,61.71L408.35,84.01L410.16,78.15L411.22,94.14L413.21,96.14L415.26,94.65L417.92,83.01L419.2,85.76L421.2,87.65L423.24,87.04L425.9,88.85L427.2,84.59L429.18,92.83L431.23,93.03L433.9,93.3L435.18,80.77L437.18,80.3L439.22,75.65L441.87,65.12L443.16,96.61L445.15,96.48L447.2,84.91L449.87,83.48L451.15,79.7L453.13,97.4L455.2,100.62L459.14,92.66L461.14,99.08L463.18,89.21L465.84,116.45L467.12,100.59L469.12,94.33L471.16,89.08L473.83,85.8L477.09,117.67L479.14,120.99L481.82,106.54L483.09,117.14L485.09,116.71L487.13,115.37L489.78,126.9L491.07,123.59L495.11,117.37L497.77,104.73L501.06,118.44L503.09,105.86L505.77,118.05L507.04,117.18L509.03,111.66L511.08,125.02L513.74,113.88L515.02,118.24L517.02,123.66L519.08,106.82L521.72,117.71L523,113.07L525,105.48" style="vector-effect: none; fill: none; stroke: rgb(128, 0, 128); stroke-opacity: 1; stroke-width: 2px; opacity: 1;"/></g><g class="points"/><g class="text"/></g><g class="trace scatter tracebb1df7" style="stroke-miterlimit: 2; opacity: 1;"><g class="fills"/><g class="errorbars"/><g class="lines"><path class="js-line" d="M0,310.65L24.01,307.88L26.69,309.05L31.47,308.03L33.19,305.85L34.91,307.2L36.16,305.47L37.93,304.02L39.99,305.43L42.65,304.13L43.93,302.25L47.97,299.63L50.64,298.91L53.9,297.8L55.97,293.57L59.9,283.77L61.9,276.65L66.6,257.63L67.88,253.03L75.85,214.66L77.85,212.76L79.91,209.37L82.57,202.43L83.86,195.84L85.85,189.85L87.9,188.63L90.56,174.82L91.84,170.24L93.82,166.59L99.82,156.04L101.82,155.21L103.87,152.16L106.53,150.22L107.8,147.94L109.79,149.86L111.87,153.55L114.52,150.88L115.79,148.37L117.77,150.69L119.83,152.9L122.5,150.97L123.77,144.7L125.76,148.54L127.82,146.72L130.48,147.38L131.75,144.38L133.76,146.42L135.81,151.69L138.47,150.94L139.74,143.67L141.74,144.29L143.79,148.36L146.46,143.87L147.73,138.52L149.73,141.25L151.78,148.22L154.45,147.49L155.7,142.69L157.71,141.18L159.76,144.78L162.44,145.29L163.69,142.67L165.7,145.7L167.74,145.36L170.4,151.78L171.68,144.89L173.67,145.68L175.75,145.59L178.4,142.97L179.67,138.32L181.65,134.57L183.73,140.2L186.38,143.87L187.65,140.65L189.64,142.93L191.7,147.13L194.37,148.07L195.63,143.63L197.62,146.55L199.69,151.56L202.35,150.84L203.62,140.56L205.61,147.39L211.45,150.94L212.3,149.09L214.02,152.91L216.12,153.05L219.65,127.71L223.03,128.43L226.48,106.63L227.58,94.16L229.56,87.82L231.64,72.01L235.55,56.74L237.55,70.22L239.62,48.47L242.27,55.02L243.54,35.92L245.55,44.77L247.59,32.85L250.27,47.56L251.53,53.76L253.52,41.52L255.59,53.7L258.24,48.48L259.51,57.41L261.5,43.78L263.56,41.35L266.22,44.3L267.49,37.16L269.49,52.89L271.54,55.93L274.2,52.55L275.49,41.08L277.49,47.22L279.53,31.74L282.19,49.86L283.46,60.13L285.46,56.21L287.52,47L290.17,50.12L291.45,38.78L293.46,38.9L295.5,50.52L298.16,45.87L299.43,51.82L301.43,38.37L303.5,46.06L306.16,46.06L307.43,49.56L309.41,47.9L311.49,42.97L314.14,32.4L315.41,35.94L317.4,31.98L319.47,42.4L322.12,38.48L323.4,37.41L325.38,52.74L330.1,42.46L331.37,51.78L333.37,36.64L335.43,51.33L338.09,41.82L339.36,58.05L341.35,61.69L343.43,55.57L346.07,48.24L347.34,64.25L349.33,57.6L351.41,59.86L354.05,51.63L355.33,54.1L357.33,56.36L359.39,49.95L362.05,51.07L363.32,32.08L366.78,50.31L368.48,39.44L370.19,50.43L371.3,33.08L373.29,32.64L375.33,41.23L378,44.1L379.3,38.9L381.27,28.27L383.33,29.16L386,26.62L387.27,43.02L389.28,28.41L391.32,22.38L393.97,34.15L395.25,16.35L401.97,72.65L404.93,74.86L406.64,46.34L408.35,63.05L410.16,57.87L411.22,57.98L415.26,69.17L417.92,62.33L419.2,61.52L421.2,67.87L423.24,62.12L425.9,68.06L427.2,70.64L429.18,79.55L431.23,82.3L433.9,76L435.18,76.36L437.18,89.34L439.22,92.71L441.87,79.87L443.16,109.5L445.15,105.75L447.2,90.51L449.87,90.21L451.15,81.96L453.13,100.91L455.2,108.93L457.98,99.23L459.14,98.59L461.14,112.3L463.18,88.19L465.84,116.28L467.12,103.13L469.12,104.33L471.16,98.12L473.83,83.88L477.09,104.05L479.14,124.26L481.82,110.61L483.09,113.92L485.09,115.52L487.13,109.61L489.78,180.7L491.07,171.28L493.06,171.6L495.11,163.03L497.77,156.1L499.07,159.54L501.06,158.85L503.09,150.62L505.77,148.34L507.04,149.22L509.03,149.18L511.08,157.91L513.74,139.48L515.02,156.32L517.02,155.87L519.08,142.37L521.72,151.78L523,138L525,130.35" style="vector-effect: none; fill: none; stroke: rgb(128, 0, 128); stroke-opacity: 1; stroke-width: 2px; opacity: 1;"/></g><g class="points"/><g class="text"/></g></g></g></g><g class="zerolinelayer-above"/><path class="xlines-above crisp" d="M44.5,357.25H570.5M44.5,29.75H570.5" style="fill: none; stroke-width: 0.5px; stroke: rgb(0, 0, 0); stroke-opacity: 1;"/><path class="ylines-above crisp" d="M44.75,30V357M570.25,30V357" style="fill: none; stroke-width: 0.5px; stroke: rgb(0, 0, 0); stroke-opacity: 1;"/><g class="overlines-above"/><g class="xaxislayer-above"><path class="xtick ticks crisp" d="M0,357v-5" transform="translate(124.85,0)" style="stroke: rgb(0, 0, 0); stroke-opacity: 1; stroke-width: 0.5px;"/><path class="xtick ticks crisp" d="M0,357v-5" transform="translate(204.7,0)" style="stroke: rgb(0, 0, 0); stroke-opacity: 1; stroke-width: 0.5px;"/><path class="xtick ticks crisp" d="M0,357v-5" transform="translate(284.53999999999996,0)" style="stroke: rgb(0, 0, 0); stroke-opacity: 1; stroke-width: 0.5px;"/><path class="xtick ticks crisp" d="M0,357v-5" transform="translate(364.39,0)" style="stroke: rgb(0, 0, 0); stroke-opacity: 1; stroke-width: 0.5px;"/><path class="xtick ticks crisp" d="M0,357v-5" transform="translate(444.24,0)" style="stroke: rgb(0, 0, 0); stroke-opacity: 1; stroke-width: 0.5px;"/><path class="xtick ticks crisp" d="M0,357v-5" transform="translate(524.0899999999999,0)" style="stroke: rgb(0, 0, 0); stroke-opacity: 1; stroke-width: 0.5px;"/><g class="xtick"><text text-anchor="middle" x="0" y="374.3" transform="translate(45,0)" style="font-family: 'Open Sans', verdana, arial, sans-serif; font-size: 14px; fill: rgb(0, 0, 0); fill-opacity: 1; white-space: pre;">0</text></g><g class="xtick"><text text-anchor="middle" x="0" y="374.3" style="font-family: 'Open Sans', verdana, arial, sans-serif; font-size: 14px; fill: rgb(0, 0, 0); fill-opacity: 1; white-space: pre;" transform="translate(124.85,0)">10</text></g><g class="xtick"><text text-anchor="middle" x="0" y="374.3" style="font-family: 'Open Sans', verdana, arial, sans-serif; font-size: 14px; fill: rgb(0, 0, 0); fill-opacity: 1; white-space: pre;" transform="translate(204.7,0)">20</text></g><g class="xtick"><text text-anchor="middle" x="0" y="374.3" style="font-family: 'Open Sans', verdana, arial, sans-serif; font-size: 14px; fill: rgb(0, 0, 0); fill-opacity: 1; white-space: pre;" transform="translate(284.53999999999996,0)">30</text></g><g class="xtick"><text text-anchor="middle" x="0" y="374.3" style="font-family: 'Open Sans', verdana, arial, sans-serif; font-size: 14px; fill: rgb(0, 0, 0); fill-opacity: 1; white-space: pre;" transform="translate(364.39,0)">40</text></g><g class="xtick"><text text-anchor="middle" x="0" y="374.3" style="font-family: 'Open Sans', verdana, arial, sans-serif; font-size: 14px; fill: rgb(0, 0, 0); fill-opacity: 1; white-space: pre;" transform="translate(444.24,0)">50</text></g><g class="xtick"><text text-anchor="middle" x="0" y="374.3" style="font-family: 'Open Sans', verdana, arial, sans-serif; font-size: 14px; fill: rgb(0, 0, 0); fill-opacity: 1; white-space: pre;" transform="translate(524.0899999999999,0)">60</text></g></g><g class="yaxislayer-above"><path class="ytick ticks crisp" d="M45,0h5" transform="translate(0,341.48)" style="stroke: rgb(0, 0, 0); stroke-opacity: 1; stroke-width: 0.5px;"/><path class="ytick ticks crisp" d="M45,0h5" transform="translate(0,284.97)" style="stroke: rgb(0, 0, 0); stroke-opacity: 1; stroke-width: 0.5px;"/><path class="ytick ticks crisp" d="M45,0h5" transform="translate(0,228.46)" style="stroke: rgb(0, 0, 0); stroke-opacity: 1; stroke-width: 0.5px;"/><path class="ytick ticks crisp" d="M45,0h5" transform="translate(0,171.95)" style="stroke: rgb(0, 0, 0); stroke-opacity: 1; stroke-width: 0.5px;"/><path class="ytick ticks crisp" d="M45,0h5" transform="translate(0,115.44)" style="stroke: rgb(0, 0, 0); stroke-opacity: 1; stroke-width: 0.5px;"/><path class="ytick ticks crisp" d="M45,0h5" transform="translate(0,58.93)" style="stroke: rgb(0, 0, 0); stroke-opacity: 1; stroke-width: 0.5px;"/><g class="ytick"><text text-anchor="end" x="41.7" y="4.8999999999999995" transform="translate(0,341.48)" style="font-family: 'Open Sans', verdana, arial, sans-serif; font-size: 14px; fill: rgb(0, 0, 0); fill-opacity: 1; white-space: pre;">0</text></g><g class="ytick"><text text-anchor="end" x="41.7" y="4.8999999999999995" style="font-family: 'Open Sans', verdana, arial, sans-serif; font-size: 14px; fill: rgb(0, 0, 0); fill-opacity: 1; white-space: pre;" transform="translate(0,284.97)">0.1</text></g><g class="ytick"><text text-anchor="end" x="41.7" y="4.8999999999999995" style="font-family: 'Open Sans', verdana, arial, sans-serif; font-size: 14px; fill: rgb(0, 0, 0); fill-opacity: 1; white-space: pre;" transform="translate(0,228.46)">0.2</text></g><g class="ytick"><text text-anchor="end" x="41.7" y="4.8999999999999995" style="font-family: 'Open Sans', verdana, arial, sans-serif; font-size: 14px; fill: rgb(0, 0, 0); fill-opacity: 1; white-space: pre;" transform="translate(0,171.95)">0.3</text></g><g class="ytick"><text text-anchor="end" x="41.7" y="4.8999999999999995" style="font-family: 'Open Sans', verdana, arial, sans-serif; font-size: 14px; fill: rgb(0, 0, 0); fill-opacity: 1; white-space: pre;" transform="translate(0,115.44)">0.4</text></g><g class="ytick"><text text-anchor="end" x="41.7" y="4.8999999999999995" style="font-family: 'Open Sans', verdana, arial, sans-serif; font-size: 14px; fill: rgb(0, 0, 0); fill-opacity: 1; white-space: pre;" transform="translate(0,58.93)">0.5</text></g></g><g class="overaxes-above"/></g></g><g class="polarlayer"/><g class="smithlayer"/><g class="ternarylayer"/><g class="geolayer"/><g class="funnelarealayer"/><g class="pielayer"/><g class="iciclelayer"/><g class="treemaplayer"/><g class="sunburstlayer"/><g class="glimages"/><defs id="topdefs-22aab1"><g class="clips"/></defs><g class="layer-above"><g class="imagelayer"/><g class="shapelayer"/></g><g class="infolayer"><g class="g-gtitle"><text class="gtitle" x="30" y="15" text-anchor="start" dy="0em" style="opacity: 1; font-family: 'Open Sans', verdana, arial, sans-serif; font-size: 14px; fill: rgb(0, 0, 0); fill-opacity: 1; white-space: pre;">At - Succinate 15.0 mM</text></g><g class="g-xtitle" transform="translate(0,5.449999999999989)"><text class="xtitle" x="307.5" y="387.8498046875" text-anchor="middle" style="opacity: 1; font-family: 'Open Sans', verdana, arial, sans-serif; font-size: 14px; fill: rgb(0, 0, 0); fill-opacity: 1; white-space: pre;">Time (hours)</text></g><g class="g-ytitle"><text class="ytitle" transform="rotate(-90,17.3001953125,193.5)" x="17.3001953125" y="193.5" text-anchor="middle" style="opacity: 1; font-family: 'Open Sans', verdana, arial, sans-serif; font-size: 14px; fill: rgb(0, 0, 0); fill-opacity: 1; white-space: pre;">OD</text></g></g></svg>