<svg class="main-svg" xmlns="http://www.w3.org/2000/svg" xmlns:xlink="http://www.w3.org/1999/xlink" width="600" height="400" style="" viewBox="0 0 600 400"><rect x="0" y="0" width="600" height="400" style="fill: rgb(255, 255, 255); fill-opacity: 1;"/><defs id="defs-85f222"><g class="clips"><clipPath id="clip85f222xyplot" class="plotclip"><rect width="370" height="327"/></clipPath><clipPath class="axesclip" id="clip85f222x"><rect x="53" y="0" width="370" height="400"/></clipPath><clipPath class="axesclip" id="clip85f222y"><rect x="0" y="30" width="600" height="327"/></clipPath><clipPath class="axesclip" id="clip85f222xy"><rect x="53" y="30" width="370" height="327"/></clipPath></g><g class="gradients"/><g class="patterns"/></defs><g class="bglayer"/><g class="layer-below"><g class="imagelayer"/><g class="shapelayer"/></g><g class="cartesianlayer"><g class="subplot xy"><g class="layer-subplot"><g class="shapelayer"/><g class="imagelayer"/></g><g class="minor-gridlayer"><g class="x"/><g class="y"/></g><g class="gridlayer"><g class="x"><path class="xgrid crisp" transform="translate(122.02,0)" d="M0,30v327" style="stroke: rgb(128, 128, 128); stroke-opacity: 1; stroke-width: 0.2px;"/><path class="xgrid crisp" transform="translate(191.04,0)" d="M0,30v327" style="stroke: rgb(128, 128, 128); stroke-opacity: 1; stroke-width: 0.2px;"/><path class="xgrid crisp" transform="translate(260.06,0)" d="M0,30v327" style="stroke: rgb(128, 128, 128); stroke-opacity: 1; stroke-width: 0.2px;"/><path class="xgrid crisp" transform="translate(329.08,0)" d="M0,30v327" style="stroke: rgb(128, 128, 128); stroke-opacity: 1; stroke-width: 0.2px;"/><path class="xgrid crisp" transform="translate(398.1,0)" d="M0,30v327" style="stroke: rgb(128, 128, 128); stroke-opacity: 1; stroke-width: 0.2px;"/></g><g class="y"><path class="ygrid crisp" transform="translate(0,313.75)" d="M53,0h370" style="stroke: rgb(128, 128, 128); stroke-opacity: 1; stroke-width: 0.2px;"/><path class="ygrid crisp" transform="translate(0,259.95)" d="M53,0h370" style="stroke: rgb(128, 128, 128); stroke-opacity: 1; stroke-width: 0.2px;"/><path class="ygrid crisp" transform="translate(0,206.14)" d="M53,0h370" style="stroke: rgb(128, 128, 128); stroke-opacity: 1; stroke-width: 0.2px;"/><path class="ygrid crisp" transform="translate(0,152.34)" d="M53,0h370" style="stroke: rgb(128, 128, 128); stroke-opacity: 1; stroke-width: 0.2px;"/><path class="ygrid crisp" transform="translate(0,98.54)" d="M53,0h370" style="stroke: rgb(128, 128, 128); stroke-opacity: 1; stroke-width: 0.2px;"/><path class="ygrid crisp" transform="translate(0,44.74)" d="M53,0h370" style="stroke: rgb(128, 128, 128); stroke-opacity: 1; stroke-width: 0.2px;"/></g></g><g class="zerolinelayer"/><g class="layer-between"><g class="shapelayer"/><g class="imagelayer"/></g><path class="xlines-below"/><path class="ylines-below"/><g class="overlines-below"/><g class="xaxislayer-below"/><g class="yaxislayer-below"/><g class="overaxes-below"/><g class="overplot"><g class="xy" transform="translate(53,30)" clip-path="url(#clip85f222xyplot)"><g class="scatterlayer mlayer"><g class="trace scatter trace4e9a91" style="stroke-miterlimit: 2; opacity: 1;"><g class="fills"/><g class="errorbars"/><g class="lines"><path class="js-line" d="M0,305.27L4.71,297.92L6.92,300.97L10.36,298.99L13.92,300.25L18.52,295.59L20.73,296.66L24.16,295.94L27.71,293.25L37.96,286.62L41.51,283.21L48.32,275.5L54.41,266.53L57.38,258.1L60.35,255.59L62.52,250.75L65.57,247.16L75.94,217.03L79.4,214.34L82.94,195.69L87.54,179.73L89.74,169.15L93.18,158.57L96.76,152.47L101.35,148.35L103.56,144.22L107.01,144.04L110.55,142.25L115.14,138.66L117.35,139.92L120.79,138.66L124.34,136.15L128.94,134.72L131.14,132.03L134.59,130.95L144.97,125.03L148.42,125.21L156.56,122.52L158.77,123.42L162.2,121.26L165.76,120.19L170.36,120.73L172.57,123.24L176.03,130.95L179.56,123.24L184.16,123.6L186.37,130.95L189.8,127.54L193.4,129.16L197.98,119.47L200.19,122.52L207.17,120.01L211.77,115.17L213.97,109.61L217.42,109.07L220.97,109.07L225.57,102.97L227.78,104.41L231.25,101.54L234.79,98.85L239.38,78.22L241.58,97.95L245.05,97.23L248.59,99.56L253.21,98.67L255.4,88.27L258.85,92.03L262.39,92.21L267.02,83.24L269.18,81.63L272.65,81.81L276.19,83.96L280.83,91.85L282.99,78.76L286.46,78.94L294.6,78.22L296.79,75.53L300.24,74.46L303.83,81.09L308.41,81.09L310.62,83.24L314.04,75.53L317.62,78.94L324.41,83.78L327.84,79.12L331.41,79.66L336.03,81.99L338.2,83.24L341.65,77.51L345.22,80.55L349.82,71.05L352.01,80.02L355.46,74.1L359.02,76.79L365.55,69.61L367.03,69.61L370,64.77" style="vector-effect: none; fill: none; stroke: rgb(128, 0, 128); stroke-opacity: 1; stroke-width: 2px; opacity: 1;"/></g><g class="points"/><g class="text"/></g><g class="trace scatter tracedc740d" style="stroke-miterlimit: 2; opacity: 1;"><g class="fills"/><g class="errorbars"/><g class="lines"><path class="js-line" d="M0,310.65L6.92,300.43L10.36,301.14L13.92,300.79L18.52,296.66L20.73,291.82L24.16,288.95L27.71,280.34L32.31,282.31L34.52,279.27L37.96,272.63L41.51,272.99L46.14,266.71L48.32,260.43L54.41,254.7L60.35,245.37L62.52,246.98L69.13,231.92L73.73,221.7L75.94,217.57L79.4,213.81L82.94,205.91L87.54,181.88L89.74,172.92L93.18,165.02L96.76,138.48L101.35,140.81L103.56,146.91L107.01,143.5L110.55,132.56L115.14,131.13L117.35,123.78L120.79,122.52L124.34,120.55L128.94,112.66L131.14,107.28L134.59,106.74L138.14,116.96L142.75,112.66L144.97,106.74L148.42,116.06L151.96,122.16L156.56,109.61L158.77,112.12L162.2,109.97L165.76,97.05L170.36,109.97L172.57,114.63L176.03,106.74L179.56,107.1L184.16,101L186.37,120.19L189.8,101.18L193.4,108.71L197.98,112.48L200.19,113.91L203.61,109.61L207.17,97.95L211.77,87.19L213.97,88.62L217.42,68.72L220.97,77.86L225.57,75.53L227.78,74.28L231.25,64.41L234.79,62.26L239.38,51.32L241.58,59.21L245.05,63.34L248.59,65.67L253.21,62.08L255.4,56.52L258.85,59.75L267.02,60.65L269.18,52.58L272.65,51.68L276.19,54.91L280.83,55.27L282.99,50.25L286.46,53.65L290,53.65L296.79,45.4L300.24,54.55L303.83,58.5L308.41,57.96L310.62,47.73L314.04,47.02L317.62,31.06L322.21,34.82L324.41,29.98L327.84,28.01L331.41,26.93L336.03,29.8L338.2,31.06L341.65,25.32L345.22,28.37L349.82,21.55L352.01,33.21L355.46,20.83L359.02,36.44L365.55,16.35L367.03,38.95L370,36.79" style="vector-effect: none; fill: none; stroke: rgb(128, 0, 128); stroke-opacity: 1; stroke-width: 2px; opacity: 1;"/></g><g class="points"/><g class="text"/></g><g class="trace scatter trace13d11c" style="stroke-miterlimit: 2; opacity: 1;"><g class="fills"/><g class="errorbars"/><g class="lines"><path class="js-line" d="M0,305.81L4.71,300.61L6.92,305.27L13.92,300.25L18.52,298.81L20.73,297.74L24.16,294.33L27.71,294.33L32.31,292L34.52,287.34L37.96,288.23L46.14,279.09L48.32,278.19L54.41,269.76L57.38,261.87L62.52,251.83L65.57,247.7L75.94,223.49L79.4,210.58L82.94,202.15L87.54,183.5L89.74,177.76L93.18,163.41L101.35,139.2L103.56,128.62L110.55,100.82L115.14,103.69L117.35,102.79L120.79,103.15L124.34,106.56L128.94,112.12L131.14,114.27L134.59,112.66L138.14,108.35L142.75,114.81L144.97,109.43L148.42,109.07L151.96,108.71L156.56,106.92L158.77,105.66L162.2,102.43L165.76,99.74L170.36,102.97L172.57,107.1L176.03,109.43L179.56,108.17L184.16,112.84L186.37,113.19L189.8,110.33L193.4,106.56L197.98,103.87L200.19,95.62L203.61,90.78L207.17,99.03L211.77,101.18L213.97,87.55L217.42,88.62L220.97,92.39L225.57,92.21L227.78,91.49L231.25,89.16L234.79,89.16L239.38,75.53L241.58,79.12L245.05,75.17L248.59,83.42L253.21,89.52L255.4,64.59L258.85,69.44L262.39,73.38L267.02,67.1L269.18,59.57L272.65,59.75L280.83,81.09L282.99,61.54L286.46,66.03L290,74.1L294.6,74.99L296.79,64.77L300.24,65.31L303.83,82.71L308.41,65.49L310.62,73.56L314.04,69.08L317.62,76.79L322.21,81.63L324.41,75.17L327.84,77.51L331.41,82.89L336.03,77.15L338.2,81.63L341.65,79.12L345.22,82.17L349.82,77.51L352.01,82.17L355.46,78.94L359.02,78.94L370,59.93" style="vector-effect: none; fill: none; stroke: rgb(128, 0, 128); stroke-opacity: 1; stroke-width: 2px; opacity: 1;"/></g><g class="points"/><g class="text"/></g><g class="trace scatter tracefcc5da" style="stroke-miterlimit: 2; opacity: 1;"><g class="fills"/><g class="errorbars"/><g class="lines"><path class="js-line" d="M0,299.89L13.92,299.37L18.52,298.79L24.16,297.4L27.71,295.95L34.52,291.61L37.96,288.63L46.14,279.56L48.32,276.71L57.38,262.93L60.35,257.71L69.13,239.96L73.73,229.13L82.94,203.72L87.54,188.91L96.76,154.33L101.35,134.5L107.01,108.23L110.55,98.16L227.78,98.13L231.25,98.13L370,98.13" style="vector-effect: none; fill: none; stroke: rgb(255, 0, 0); stroke-opacity: 1; stroke-width: 2px; opacity: 1;"/></g><g class="points"/><g class="text"/></g></g></g></g><g class="zerolinelayer-above"/><path class="xlines-above crisp" d="M52.5,357.25H423.5M52.5,29.75H423.5" style="fill: none; stroke-width: 0.5px; stroke: rgb(0, 0, 0); stroke-opacity: 1;"/><path class="ylines-above crisp" d="M52.75,30V357M423.25,30V357" style="fill: none; stroke-width: 0.5px; stroke: rgb(0, 0, 0); stroke-opacity: 1;"/><g class="overlines-above"/><g class="xaxislayer-above"><path class="xtick ticks crisp" d="M0,357v-5" transform="translate(122.02,0)" style="stroke: rgb(0, 0, 0); stroke-opacity: 1; stroke-width: 0.5px;"/><path class="xtick ticks crisp" d="M0,357v-5" transform="translate(191.04,0)" style="stroke: rgb(0, 0, 0); stroke-opacity: 1; stroke-width: 0.5px;"/><path class="xtick ticks crisp" d="M0,357v-5" transform="translate(260.06,0)" style="stroke: rgb(0, 0, 0); stroke-opacity: 1; stroke-width: 0.5px;"/><path class="xtick ticks crisp" d="M0,357v-5" transform="translate(329.08,0)" style="stroke: rgb(0, 0, 0); stroke-opacity: 1; stroke-width: 0.5px;"/><path class="xtick ticks crisp" d="M0,357v-5" transform="translate(398.1,0)" style="stroke: rgb(0, 0, 0); stroke-opacity: 1; stroke-width: 0.5px;"/><g class="xtick"><text text-anchor="middle" x="0" y="374.3" transform="translate(53,0)" style="font-family: 'Open Sans', verdana, arial, sans-serif; font-size: 14px; fill: rgb(0, 0, 0); fill-opacity: 1; white-space: pre;">0</text></g><g class="xtick"><text text-anchor="middle" x="0" y="374.3" style="font-family: 'Open Sans', verdana, arial, sans-serif; font-size: 14px; fill: rgb(0, 0, 0); fill-opacity: 1; white-space: pre;" transform="translate(122.02,0)">5</text></g><g class="xtick"><text text-anchor="middle" x="0" y="374.3" style="font-family: 'Open Sans', verdana, arial, sans-serif; font-size: 14px; fill: rgb(0, 0, 0); fill-opacity: 1; white-space: pre;" transform="translate(191.04,0)">10</text></g><g class="xtick"><text text-anchor="middle" x="0" y="374.3" style="font-family: 'Open Sans', verdana, arial, sans-serif; font-size: 14px; fill: rgb(0, 0, 0); fill-opacity: 1; white-space: pre;" transform="translate(260.06,0)">15</text></g><g class="xtick"><text text-anchor="middle" x="0" y="374.3" style="font-family: 'Open Sans', verdana, arial, sans-serif; font-size: 14px; fill: rgb(0, 0, 0); fill-opacity: 1; white-space: pre;" transform="translate(329.08,0)">20</text></g><g class="xtick"><text text-anchor="middle" x="0" y="374.3" style="font-family: 'Open Sans', verdana, arial, sans-serif; font-size: 14px; fill: rgb(0, 0, 0); fill-opacity: 1; white-space: pre;" transform="translate(398.1,0)">25</text></g></g><g class="yaxislayer-above"><path class="ytick ticks crisp" d="M53,0h5" transform="translate(0,313.75)" style="stroke: rgb(0, 0, 0); stroke-opacity: 1; stroke-width: 0.5px;"/><path class="ytick ticks crisp" d="M53,0h5" transform="translate(0,259.95)" style="stroke: rgb(0, 0, 0); stroke-opacity: 1; stroke-width: 0.5px;"/><path class="ytick ticks crisp" d="M53,0h5" transform="translate(0,206.14)" style="stroke: rgb(0, 0, 0); stroke-opacity: 1; stroke-width: 0.5px;"/><path class="ytick ticks crisp" d="M53,0h5" transform="translate(0,152.34)" style="stroke: rgb(0, 0, 0); stroke-opacity: 1; stroke-width: 0.5px;"/><path class="ytick ticks crisp" d="M53,0h5" transform="translate(0,98.54)" style="stroke: rgb(0, 0, 0); stroke-opacity: 1; stroke-width: 0.5px;"/><path class="ytick ticks crisp" d="M53,0h5" transform="translate(0,44.74)" style="stroke: rgb(0, 0, 0); stroke-opacity: 1; stroke-width: 0.5px;"/><g class="ytick"><text text-anchor="end" x="49.7" y="4.8999999999999995" transform="translate(0,313.75)" style="font-family: 'Open Sans', verdana, arial, sans-serif; font-size: 14px; fill: rgb(0, 0, 0); fill-opacity: 1; white-space: pre;">0.01</text></g><g class="ytick"><text text-anchor="end" x="49.7" y="4.8999999999999995" style="font-family: 'Open Sans', verdana, arial, sans-serif; font-size: 14px; fill: rgb(0, 0, 0); fill-opacity: 1; white-space: pre;" transform="translate(0,259.95)">0.02</text></g><g class="ytick"><text text-anchor="end" x="49.7" y="4.8999999999999995" style="font-family: 'Open Sans', verdana, arial, sans-serif; font-size: 14px; fill: rgb(0, 0, 0); fill-opacity: 1; white-space: pre;" transform="translate(0,206.14)">0.03</text></g><g class="ytick"><text text-anchor="end" x="49.7" y="4.8999999999999995" style="font-family: 'Open Sans', verdana, arial, sans-serif; font-size: 14px; fill: rgb(0, 0, 0); fill-opacity: 1; white-space: pre;" transform="translate(0,152.34)">0.04</text></g><g class="ytick"><text text-anchor="end" x="49.7" y="4.8999999999999995" style="font-family: 'Open Sans', verdana, arial, sans-serif; font-size: 14px; fill: rgb(0, 0, 0); fill-opacity: 1; white-space: pre;" transform="translate(0,98.54)">0.05</text></g><g class="ytick"><text text-anchor="end" x="49.7" y="4.8999999999999995" style="font-family: 'Open Sans', verdana, arial, sans-serif; font-size: 14px; fill: rgb(0, 0, 0); fill-opacity: 1; white-space: pre;" transform="translate(0,44.74)">0.06</text></g></g><g class="overaxes-above"/></g></g><g class="polarlayer"/><g class="smithlayer"/><g class="ternarylayer"/><g class="geolayer"/><g class="funnelarealayer"/><g class="pielayer"/><g class="iciclelayer"/><g class="treemaplayer"/><g class="sunburstlayer"/><g class="glimages"/><defs id="topdefs-85f222"><g class="clips"/><clipPath id="legend85f222"><rect width="158" height="32" x="0" y="0"/></clipPath></defs><g class="layer-above"><g class="imagelayer"/><g class="shapelayer"/></g><g class="infolayer"><g class="legend" pointer-events="all" transform="translate(430.40000000000003,30)"><rect class="bg" shape-rendering="crispEdges" style="stroke: rgb(68, 68, 68); stroke-opacity: 1; fill: rgb(255, 255, 255); fill-opacity: 1; stroke-width: 0px;" width="158" height="32" x="0" y="0"/><g class="scrollbox" transform="" clip-path="url(#legend85f222)"><g class="groups"><g class="traces" transform="translate(0,15.6)" style="opacity: 1;"><text class="legendtext" text-anchor="start" x="40" y="5.46" style="font-family: 'Open Sans', verdana, arial, sans-serif; font-size: 14px; fill: rgb(0, 0, 0); fill-opacity: 1; white-space: pre;">Fitted Model (lag)</text><g class="layers" style="opacity: 1;"><g class="legendfill"/><g class="legendlines"><path class="js-line" d="M5,0h30" style="fill: none; stroke: rgb(255, 0, 0); stroke-opacity: 1; stroke-width: 2px;"/></g><g class="legendsymbols"><g class="legendpoints"/></g></g><rect class="legendtoggle" x="0" y="-10.6" width="152.71875" height="21.2" style="fill: rgb(0, 0, 0); fill-opacity: 0;"/></g></g></g><rect class="scrollbar" rx="20" ry="3" width="0" height="0" style="fill: rgb(128, 139, 164); fill-opacity: 1;" x="0" y="0"/></g><g class="g-gtitle"><text class="gtitle" x="30" y="15" text-anchor="start" dy="0em" style="opacity: 1; font-family: 'Open Sans', verdana, arial, sans-serif; font-size: 14px; fill: rgb(0, 0, 0); fill-opacity: 1; white-space: pre;">At - Succinate 5.0 mM</text></g><g class="g-xtitle" transform="translate(0,5.449999999999989)"><text class="xtitle" x="238" y="387.8498046875" text-anchor="middle" style="opacity: 1; font-family: 'Open Sans', verdana, arial, sans-serif; font-size: 14px; fill: rgb(0, 0, 0); fill-opacity: 1; white-space: pre;">Time (hours)</text></g><g class="g-ytitle"><text class="ytitle" transform="rotate(-90,17.3001953125,193.5)" x="17.3001953125" y="193.5" text-anchor="middle" style="opacity: 1; font-family: 'Open Sans', verdana, arial, sans-serif; font-size: 14px; fill: rgb(0, 0, 0); fill-opacity: 1; white-space: pre;">OD</text></g></g></svg>