<svg class="main-svg" xmlns="http://www.w3.org/2000/svg" xmlns:xlink="http://www.w3.org/1999/xlink" width="700" height="450" style="" viewBox="0 0 700 450"><rect x="0" y="0" width="700" height="450" style="fill: rgb(255, 255, 255); fill-opacity: 1;"/><defs id="defs-733d0c"><g class="clips"><clipPath id="clip733d0cxyplot" class="plotclip"><rect width="500" height="377"/></clipPath><clipPath class="axesclip" id="clip733d0cx"><rect x="53" y="0" width="500" height="450"/></clipPath><clipPath class="axesclip" id="clip733d0cy"><rect x="0" y="30" width="700" height="377"/></clipPath><clipPath class="axesclip" id="clip733d0cxy"><rect x="53" y="30" width="500" height="377"/></clipPath></g><g class="gradients"/><g class="patterns"/></defs><g class="bglayer"/><g class="layer-below"><g class="imagelayer"/><g class="shapelayer"/></g><g class="cartesianlayer"><g class="subplot xy"><g class="layer-subplot"><g class="shapelayer"/><g class="imagelayer"/></g><g class="minor-gridlayer"><g class="x"/><g class="y"/></g><g class="gridlayer"><g class="x"><path class="xgrid crisp" transform="translate(129.05,0)" d="M0,30v377" style="stroke: rgb(128, 128, 128); stroke-opacity: 1; stroke-width: 0.2px;"/><path class="xgrid crisp" transform="translate(205.09,0)" d="M0,30v377" style="stroke: rgb(128, 128, 128); stroke-opacity: 1; stroke-width: 0.2px;"/><path class="xgrid crisp" transform="translate(281.14,0)" d="M0,30v377" style="stroke: rgb(128, 128, 128); stroke-opacity: 1; stroke-width: 0.2px;"/><path class="xgrid crisp" transform="translate(357.18,0)" d="M0,30v377" style="stroke: rgb(128, 128, 128); stroke-opacity: 1; stroke-width: 0.2px;"/><path class="xgrid crisp" transform="translate(433.23,0)" d="M0,30v377" style="stroke: rgb(128, 128, 128); stroke-opacity: 1; stroke-width: 0.2px;"/><path class="xgrid crisp" transform="translate(509.27,0)" d="M0,30v377" style="stroke: rgb(128, 128, 128); stroke-opacity: 1; stroke-width: 0.2px;"/></g><g class="y"><path class="ygrid crisp" transform="translate(0,383.78)" d="M53,0h500" style="stroke: rgb(128, 128, 128); stroke-opacity: 1; stroke-width: 0.2px;"/><path class="ygrid crisp" transform="translate(0,338.27)" d="M53,0h500" style="stroke: rgb(128, 128, 128); stroke-opacity: 1; stroke-width: 0.2px;"/><path class="ygrid crisp" transform="translate(0,292.77)" d="M53,0h500" style="stroke: rgb(128, 128, 128); stroke-opacity: 1; stroke-width: 0.2px;"/><path class="ygrid crisp" transform="translate(0,247.26)" d="M53,0h500" style="stroke: rgb(128, 128, 128); stroke-opacity: 1; stroke-width: 0.2px;"/><path class="ygrid crisp" transform="translate(0,201.75)" d="M53,0h500" style="stroke: rgb(128, 128, 128); stroke-opacity: 1; stroke-width: 0.2px;"/><path class="ygrid crisp" transform="translate(0,156.25)" d="M53,0h500" style="stroke: rgb(128, 128, 128); stroke-opacity: 1; stroke-width: 0.2px;"/><path class="ygrid crisp" transform="translate(0,110.74)" d="M53,0h500" style="stroke: rgb(128, 128, 128); stroke-opacity: 1; stroke-width: 0.2px;"/><path class="ygrid crisp" transform="translate(0,65.22999999999999)" d="M53,0h500" style="stroke: rgb(128, 128, 128); stroke-opacity: 1; stroke-width: 0.2px;"/></g></g><g class="zerolinelayer"/><g class="layer-between"><g class="shapelayer"/><g class="imagelayer"/></g><path class="xlines-below"/><path class="ylines-below"/><g class="overlines-below"/><g class="xaxislayer-below"/><g class="yaxislayer-below"/><g class="overaxes-below"/><g class="overplot"><g class="xy" transform="translate(53,30)" clip-path="url(#clip733d0cxyplot)"><g class="scatterlayer mlayer"><g class="trace scatter trace41a113" style="stroke-miterlimit: 2; opacity: 1;"><g class="fills"/><g class="errorbars"/><g class="lines"><path class="js-line" d="M0,353.72L3.81,353.6L5.71,353.45L11.42,353.08L13.31,352.93L22.87,352.54L25.42,354.96L29.97,355.42L31.61,352.26L33.25,355.81L34.44,353.3L36.12,352.6L38.08,355.42L40.62,355.6L41.83,353.02L43.74,352.9L45.69,353.72L48.23,353.84L49.44,355.48L51.33,357.97L53.31,358.15L57.05,356.66L58.95,356.94L60.9,355.9L63.43,349.05L64.65,351.48L66.54,351.2L68.5,348.02L71.03,340.13L72.24,341.1L74.14,339.95L76.1,335.49L78.64,325.69L79.86,322.81L81.76,310.61L83.71,305.27L86.25,288.68L89.36,263.59L91.32,239.35L93.85,224.27L95.07,235.68L96.98,234.25L98.92,218.14L102.67,223.45L104.56,222.63L106.54,220.75L109.07,226.91L114.13,223.87L116.66,226.79L117.87,222.87L119.77,225.79L121.73,226.21L124.27,229.46L127.39,225.72L129.35,231.67L131.87,227.36L133.08,231.31L134.99,228.85L136.95,229.4L140.7,232.13L142.6,227.24L144.55,230.82L147.1,229.18L148.29,230.64L150.2,227.21L152.15,235.74L154.7,232.55L155.9,230.97L157.81,230.58L159.76,226.48L162.29,232.46L163.5,230.18L165.4,236.28L167.38,236.95L169.9,233.73L171.12,233.34L173,229.12L174.98,229.73L177.5,234.83L178.71,235.65L180.61,234.13L185.12,233.58L186.31,237.44L190.18,237.92L192.71,237.22L193.92,227.39L195.82,232.85L197.78,231.22L201.38,235.55L202.19,232.95L203.83,234.28L205.82,233.58L208.18,207.46L209.19,202.97L212.41,202.12L215.69,170.84L216.74,155.67L218.63,148.18L220.61,119L224.33,102.95L226.23,125.4L228.21,90.08L230.73,98.27L231.95,65.24L233.86,81.41L235.8,59.75L238.35,71.15L239.56,78.22L241.44,58.68L243.42,81.04L245.94,76.92L247.15,84.56L249.05,68.42L251.01,76.52L253.54,68.54L254.75,58.32L256.66,78.56L258.61,70.42L261.14,85.56L262.37,74.37L264.27,82.44L266.22,60.14L268.76,75.22L269.97,84.93L271.87,62.96L273.83,74.43L276.36,75.64L277.57,74.4L279.48,69.58L281.43,85.02L283.96,88.72L285.17,87.66L287.07,82.1L289.05,78.46L291.58,67.18L292.79,66.54L294.68,82.71L299.18,48.82L300.39,58.35L302.28,58.44L304.26,80.31L306.78,63.08L308,64.17L309.88,78.22L311.86,61.66L314.39,52.46L315.59,77.77L317.49,45.64L319.46,66.21L321.99,63.45L323.2,59.02L325.1,60.14L327.07,49.1L329.59,40.94L330.8,61.44L332.7,47L334.68,49.73L337.19,58.32L338.41,54.38L340.32,49.01L342.28,51.8L344.81,48.22L346.02,38.11L349.32,63.02L350.94,56.98L352.56,53.56L353.62,31.71L355.51,58.23L357.46,68.6L360,64.02L361.23,70.03L363.12,60.02L365.07,55.53L367.62,47.25L368.83,57.83L370.74,49.67L372.68,51.71L375.21,62.48L376.43,57.02L380.27,39.18L382.83,55.68L385.65,81.35L387.28,18.85L388.9,47.58L390.63,50.89L391.64,62.99L393.54,58.11L395.49,49.43L398.02,76.73L399.24,90.72L401.14,86.66L403.09,50.1L405.62,65.3L406.86,91.93L408.75,160.35L410.69,149.3L413.24,200.42L414.46,201.64L416.36,196.05L418.3,183.28L420.83,160.68L422.06,205.58L423.96,198.45L428.45,172.69L429.67,179.79L431.56,197.3L433.52,196.84L436.17,176.4L437.28,189.74L439.18,190.62L441.12,146.24L443.66,174L444.88,167.66L446.78,186.98L448.72,169.78L451.27,162.5L452.48,171.21L454.37,196.72L456.33,195.87L458.87,171.78L460.09,168.48L461.99,195.9L463.93,171.36L466.46,193.93L467.68,176.58L469.58,185.19L471.53,200.97L474.07,182.98L475.3,198.91L479.14,179.25L481.68,201.42L482.89,201.67L484.79,180.58L486.74,200.45L489.28,181.61L494.36,162.14L496.88,191.05L500,170.99" style="vector-effect: none; fill: none; stroke: rgb(99, 110, 250); stroke-opacity: 1; stroke-width: 2px; opacity: 1;"/></g><g class="points"/><g class="text"/></g><g class="trace scatter tracea39eab" style="stroke-miterlimit: 2; opacity: 1;"><g class="fills"/><g class="errorbars"/><g class="lines"><path class="js-line" d="M0,352.36L17.8,350.84L19.02,351.96L22.87,350.35L25.42,353.05L26.62,352.57L29.97,353.78L31.61,351.08L33.25,354.27L34.44,352.11L36.12,351.23L38.08,354.15L40.62,353.96L41.83,351.66L43.74,351.17L48.23,352.39L49.44,353.66L51.33,356.42L53.31,356.78L57.05,355.12L58.95,355.12L60.9,354.18L63.43,346.96L64.65,348.75L66.54,348.65L68.5,345.29L71.03,337.76L72.24,338.46L74.14,337.4L76.1,332.85L78.64,322.59L79.86,319.62L81.76,306.24L83.71,302.18L86.25,283.03L87.46,275.02L89.36,253.67L91.32,236.07L93.85,223.45L95.07,234.13L96.98,230.97L98.92,216.5L101.45,219.75L102.67,222.18L104.56,221.27L106.54,219.11L109.07,225.54L110.28,221.05L112.17,220.87L114.13,219.05L116.66,221.6L117.87,217.5L119.77,221.96L124.27,226.73L125.48,225.09L127.39,224.27L129.35,229.85L131.87,226L133.08,229.3L134.99,226.94L136.95,226.85L139.49,229.64L140.7,228.49L142.6,225.33L144.55,229.82L150.2,225.03L152.15,233.1L154.7,231.46L155.9,229.33L157.81,230.03L159.76,224.84L162.29,230.73L163.5,228L165.4,234.74L167.38,235.77L171.12,232.16L173,228.12L174.98,227.91L177.5,233.55L178.71,234.28L180.61,233.13L182.57,232.79L185.12,231.22L186.31,235.89L188.21,236.22L192.71,235.4L193.92,226.12L195.82,232.58L197.78,230.4L201.38,234.83L202.19,231.85L203.83,233.64L205.82,232.31L209.19,196.05L212.41,196.93L216.74,153.31L218.63,143.45L220.61,118.9L223.12,101.37L224.33,99.49L226.23,123.3L228.21,81.53L230.73,89.36L231.95,62.14L233.86,75.67L235.8,53.1L238.35,69.97L239.56,77.58L241.44,50.22L243.42,81.32L245.94,70.18L247.15,86.2L249.05,64.96L251.01,60.87L253.54,60.81L254.75,45.94L256.66,72.09L258.61,66.6L261.14,64.72L262.37,53.34L264.27,64.69L266.22,47.03L268.76,62.93L269.97,79.83L271.87,76.52L273.83,64.87L276.36,71.64L277.57,48.28L279.48,45.46L283.96,76.98L285.17,66.27L289.05,75.55L291.58,73L294.68,92.09L296.65,73.22L299.18,71.3L300.39,75.73L302.28,71.64L304.26,75.31L306.78,89.39L308,81.29L309.88,87.23L311.86,79.4L314.39,58.65L315.59,76.58L317.49,68.48L319.46,76.95L321.99,71.64L323.2,45.27L325.1,58.23L327.07,56.65L329.59,31.02L330.8,58.99L332.7,65.21L334.68,59.93L338.41,23.34L340.32,41.27L342.28,28.5L344.81,44.03L346.02,18.91L349.32,41.36L350.94,36.23L352.56,39.27L353.62,38.18L355.51,34.84L357.46,35.57L360,51.1L361.23,50.19L363.12,39.54L365.07,49.16L367.62,41.88L368.83,62.02L370.74,50.13L372.68,41.42L375.21,63.66L376.43,43.55L378.33,44.49L380.27,144.57L382.83,146.6L385.65,147.97L387.28,127.43L388.9,133.5L390.63,125.34L393.54,155.04L395.49,167.11L398.02,174.48L399.24,184.37L401.14,179.85L403.09,155.95L405.62,169.6L406.86,155.64L408.75,162.71L410.69,157.22L413.24,154.73L414.46,146.66L416.36,150.18L418.3,142.23L420.83,130.37L422.06,176.46L423.96,183.25L425.9,169.45L428.45,143.11L429.67,144.39L431.56,166.99L433.52,159.71L436.17,140.9L437.28,158.98L439.18,163.68L441.12,154.07L443.66,166.17L444.88,152.28L446.78,163.96L448.72,139.11L451.27,157.49L452.48,180.04L454.37,188.26L456.33,153.82L460.09,68.54L461.99,93.42L463.93,76.98L466.46,81.89L467.68,96.58L469.58,101.28L471.53,63.72L474.07,60.29L477.2,96.12L479.14,83.59L481.68,64.45L482.89,76.16L484.79,91.84L486.74,80.41L489.28,60.29L490.5,102.07L492.4,104.16L494.36,75.04L496.88,102.58L498.1,62.45L500,69.33" style="vector-effect: none; fill: none; stroke: rgb(239, 85, 59); stroke-opacity: 1; stroke-width: 2px; opacity: 1;"/></g><g class="points"/><g class="text"/></g><g class="trace scatter tracefbf942" style="stroke-miterlimit: 2; opacity: 1;"><g class="fills"/><g class="errorbars"/><g class="lines"><path class="js-line" d="M0,351.72L17.8,350.29L19.02,350.69L22.87,349.63L25.42,351.87L26.62,351.57L29.97,351.96L31.61,349.08L33.25,352.26L34.44,350.02L36.12,348.96L38.08,351.6L40.62,352.05L41.83,349.29L43.74,348.81L48.23,349.66L49.44,350.84L51.33,353.33L53.31,353.42L57.05,351.2L58.95,351.57L60.9,350.81L63.43,343.86L64.65,346.38L66.54,347.38L68.5,345.65L71.03,339.31L72.24,340.37L74.14,339.58L76.1,335.21L78.64,326.05L79.86,322.44L81.76,309.61L83.71,305.27L86.25,288.4L89.36,262.31L91.32,239.07L93.85,224.45L95.07,235.13L96.98,233.61L98.92,219.51L102.67,222.45L104.56,222.08L106.54,221.11L109.07,225.54L110.28,220.78L112.17,221.51L114.13,219.14L116.66,221.69L117.87,217.69L119.77,223.6L124.27,229L125.48,227.45L127.39,226.27L129.35,230.4L131.87,226.91L133.08,231.31L134.99,228.12L136.95,228.03L139.49,231.64L140.7,230.85L142.6,226.33L144.55,231.37L150.2,226.57L152.15,234.46L154.7,232.1L155.9,229.7L157.81,230.4L159.76,225.48L162.29,231.82L163.5,229.27L165.4,235.28L167.38,235.68L171.12,232.43L173,228.49L174.98,228.55L177.5,234.37L178.71,235.37L180.61,233.67L182.57,232.98L185.12,232.95L186.31,235.98L188.21,236.49L190.18,237.01L192.71,236.77L193.92,227.03L195.82,232.58L197.78,231.03L201.38,235.19L202.19,232.95L203.83,234.46L205.82,232.85L208.18,207.64L209.19,205.34L212.41,205.03L215.69,170.84L216.74,155.77L218.63,150.46L220.61,124.73L223.12,107.65L224.33,107.13L226.23,130.22L228.21,90.17L230.73,95.36L231.95,70.79L233.86,80.95L235.8,58.84L238.35,71.97L239.56,90.24L241.44,57.96L243.42,76.13L245.94,70.27L247.15,88.02L249.05,61.23L251.01,55.86L253.54,57.35L254.75,46.85L256.66,65.9L258.61,70.33L261.14,81.74L262.37,62.45L264.27,70.97L266.22,34.47L268.76,60.02L269.97,83.01L271.87,79.71L273.83,60.96L276.36,74.64L277.57,52.28L279.48,50.46L281.43,68.18L283.96,74.16L285.17,62.54L287.07,46.52L289.05,48.43L291.58,60.26L292.79,53.62L294.68,79.16L296.65,68.66L299.18,47.19L300.39,29.95L302.28,51.98L304.26,51.1L306.78,53.8L308,30.86L309.88,59.47L311.86,38.27L314.39,72.4L315.59,66.94L317.49,59.38L319.46,77.86L321.99,54.71L323.2,71.12L325.1,46.31L327.07,56.65L329.59,40.48L330.8,43.15L332.7,60.29L334.68,46.91L337.19,53.59L338.41,53.74L340.32,65.48L342.28,51.8L344.81,56.95L346.02,21.46L349.32,86.96L350.94,77.65L352.56,72.49L353.62,85.68L355.51,77.52L357.46,126.94L360,123.82L361.23,128.19L363.12,108.07L365.07,105.5L367.62,101.76L368.83,117.45L370.74,99.64L372.68,92.21L375.21,110.62L376.43,95.7L378.33,135.14L380.27,128.83L382.83,127.76L385.65,140.32L387.28,103.86L388.9,121.03L390.63,114.05L391.64,129.98L393.54,139.75L395.49,126.7L398.02,112.59L399.24,129.22L401.14,126.16L403.09,108.71L405.62,103.61L406.86,122.79L408.75,122.12L410.69,105.16L416.36,97.85L418.3,82.53L420.83,78.68L422.06,144.42L423.96,195.45L425.9,179.28L431.56,150.61L433.52,167.08L436.17,131.07L437.28,154.25L439.18,161.41L441.12,142.42L443.66,134.41L444.88,153L446.78,162.68L448.72,133.01L451.27,108.44L452.48,139.99L454.37,155.58L456.33,122.24L458.87,124.55L460.09,95.57L461.99,117.99L463.93,105.1L466.46,110.38L467.68,122.79L469.58,118.02L471.53,127.43L474.07,116.81L475.3,134.2L477.2,136.08L479.14,123.09L481.68,114.32L482.89,138.14L484.79,113.05L486.74,109.62L489.28,87.05L490.5,108.62L492.4,116.45L494.36,85.32L496.88,106.95L498.1,89.75L500,105.56" style="vector-effect: none; fill: none; stroke: rgb(0, 204, 150); stroke-opacity: 1; stroke-width: 2px; opacity: 1;"/></g><g class="points"/><g class="text"/></g><g class="trace scatter tracedf0b7f" style="stroke-miterlimit: 2; opacity: 1;"><g class="fills"/><g class="errorbars"/><g class="lines"><path class="js-line" d="M0,352.6L10.2,351.69L11.42,351.45L17.8,351.26L19.02,351.96L22.87,350.84L25.42,353.3L26.62,353.02L29.97,353.72L31.61,350.81L33.25,353.78L34.44,351.81L36.12,350.93L38.08,353.72L40.62,353.78L41.83,351.32L43.74,350.96L48.23,351.96L49.44,353.33L53.31,353.78L55.83,353.78L60.9,353.63L63.43,346.62L64.65,348.87L66.54,349.08L68.5,346.32L71.03,339.07L72.24,339.98L74.14,338.98L76.1,334.52L78.64,324.78L79.86,321.62L81.76,308.82L83.71,304.24L86.25,286.7L87.46,278.45L89.36,259.85L91.32,238.16L93.85,224.06L95.07,234.98L96.98,232.95L98.92,218.05L101.45,220.96L102.67,222.69L104.56,221.99L106.54,220.32L109.07,226L110.28,222.72L112.17,222.51L114.13,220.69L116.66,223.36L117.87,219.35L119.77,223.78L124.27,228.39L125.48,226.82L127.39,225.42L129.35,230.64L131.87,226.76L133.08,230.64L134.99,227.97L136.95,228.09L139.49,230.97L140.7,230.49L142.6,226.3L144.55,230.67L147.1,228.64L148.29,229.03L150.2,226.27L152.15,234.43L155.9,230L157.81,230.34L159.76,225.6L162.29,231.67L163.5,229.15L165.4,235.43L167.38,236.13L169.9,233.43L171.12,232.64L173,228.58L174.98,228.73L177.5,234.25L178.71,235.1L180.61,233.64L185.12,232.58L186.31,236.43L190.18,236.98L192.71,236.46L193.92,226.85L195.82,232.67L197.78,230.88L201.38,235.19L202.19,232.58L203.83,234.13L205.82,232.91L208.18,205.82L209.19,201.45L212.41,201.36L215.69,169.57L216.74,154.92L218.63,147.36L220.61,120.88L223.12,105.1L224.33,103.19L226.23,126.31L228.21,87.26L230.73,94.33L231.95,66.06L233.86,79.34L235.8,57.23L238.35,71.03L239.56,82.01L241.44,55.62L243.42,79.5L245.94,72.46L247.15,86.26L249.05,64.87L251.01,64.42L253.54,62.23L254.75,50.37L256.66,72.18L258.61,69.12L261.14,77.34L262.37,63.39L264.27,72.7L266.22,47.22L268.76,66.06L269.97,82.59L273.83,66.75L276.36,73.97L277.57,58.32L279.48,55.16L281.43,70.82L283.96,79.95L285.17,72.15L287.07,66.6L289.05,67.48L291.58,66.81L292.79,66.42L294.68,84.65L296.65,69.33L299.18,55.77L300.39,54.68L302.28,60.69L304.26,68.91L306.78,68.76L308,58.77L309.88,74.98L311.86,59.78L314.39,61.17L315.59,73.76L317.49,57.83L319.46,73.67L321.99,63.26L323.2,58.47L325.1,54.89L327.07,54.13L329.59,37.48L330.8,54.53L332.7,57.5L334.68,52.19L337.19,48.67L338.41,43.82L340.32,51.92L342.28,44.03L344.81,49.73L346.02,26.16L349.32,63.78L350.94,56.95L352.56,55.1L353.62,51.86L355.51,56.86L357.46,77.04L360,79.65L361.23,82.8L363.12,69.21L365.07,70.06L367.62,63.63L368.83,79.1L370.74,66.48L372.68,61.78L375.21,78.92L376.43,65.42L378.33,75.89L380.27,104.19L382.83,110.02L385.65,123.21L387.28,83.38L388.9,100.7L390.63,96.76L391.64,110.38L393.54,117.63L395.49,114.41L398.02,121.27L399.24,134.77L401.14,130.89L403.09,104.92L405.62,112.84L406.86,123.46L408.75,148.39L410.69,137.23L413.24,152.28L414.46,149.36L416.36,148.03L420.83,123.24L422.06,175.49L423.96,192.38L425.9,179.1L428.45,160.74L429.67,162.5L431.56,171.63L433.52,174.54L436.17,149.46L437.28,167.66L439.18,171.91L441.12,147.57L443.66,158.19L444.88,157.65L446.78,171.21L448.72,147.3L451.27,142.81L452.48,163.74L454.37,180.19L456.33,157.31L460.09,110.87L461.99,135.77L463.93,117.81L466.46,128.73L467.68,131.98L469.58,134.83L471.53,130.71L474.07,120.03L475.3,135.53L477.2,140.96L479.14,128.64L481.68,126.73L482.89,138.65L484.79,128.49L486.74,130.16L489.28,109.65L490.5,129.1L492.4,130.49L494.36,107.5L496.88,133.53L498.1,111.65L500,115.29" style="vector-effect: none; fill: none; stroke: rgb(171, 99, 250); stroke-opacity: 1; stroke-width: 2px; opacity: 1;"/></g><g class="points"/><g class="text"/></g><g class="trace scatter trace6ee318" style="stroke-miterlimit: 2; opacity: 1;"><g class="fills"/><g class="errorbars"/><g class="lines"><path class="js-line" d="M0,352.6L74.14,352.6L76.1,331.06L78.64,26.16L79.86,26.16L500,26.16" style="vector-effect: none; fill: none; stroke: rgb(255, 161, 90); stroke-opacity: 1; stroke-dasharray: 9px, 9px; stroke-width: 2px; opacity: 1;"/></g><g class="points"/><g class="text"/></g></g></g></g><g class="zerolinelayer-above"/><path class="xlines-above crisp" d="M52.5,407.25H553.5M52.5,29.75H553.5" style="fill: none; stroke-width: 0.5px; stroke: rgb(0, 0, 0); stroke-opacity: 1;"/><path class="ylines-above crisp" d="M52.75,30V407M553.25,30V407" style="fill: none; stroke-width: 0.5px; stroke: rgb(0, 0, 0); stroke-opacity: 1;"/><g class="overlines-above"/><g class="xaxislayer-above"><path class="xtick ticks crisp" d="M0,407v-5" transform="translate(129.05,0)" style="stroke: rgb(0, 0, 0); stroke-opacity: 1; stroke-width: 0.5px;"/><path class="xtick ticks crisp" d="M0,407v-5" transform="translate(205.09,0)" style="stroke: rgb(0, 0, 0); stroke-opacity: 1; stroke-width: 0.5px;"/><path class="xtick ticks crisp" d="M0,407v-5" transform="translate(281.14,0)" style="stroke: rgb(0, 0, 0); stroke-opacity: 1; stroke-width: 0.5px;"/><path class="xtick ticks crisp" d="M0,407v-5" transform="translate(357.18,0)" style="stroke: rgb(0, 0, 0); stroke-opacity: 1; stroke-width: 0.5px;"/><path class="xtick ticks crisp" d="M0,407v-5" transform="translate(433.23,0)" style="stroke: rgb(0, 0, 0); stroke-opacity: 1; stroke-width: 0.5px;"/><path class="xtick ticks crisp" d="M0,407v-5" transform="translate(509.27,0)" style="stroke: rgb(0, 0, 0); stroke-opacity: 1; stroke-width: 0.5px;"/><g class="xtick"><text text-anchor="middle" x="0" y="424.3" transform="translate(53,0)" style="font-family: 'Open Sans', verdana, arial, sans-serif; font-size: 14px; fill: rgb(0, 0, 0); fill-opacity: 1; white-space: pre;">0</text></g><g class="xtick"><text text-anchor="middle" x="0" y="424.3" style="font-family: 'Open Sans', verdana, arial, sans-serif; font-size: 14px; fill: rgb(0, 0, 0); fill-opacity: 1; white-space: pre;" transform="translate(129.05,0)">10</text></g><g class="xtick"><text text-anchor="middle" x="0" y="424.3" style="font-family: 'Open Sans', verdana, arial, sans-serif; font-size: 14px; fill: rgb(0, 0, 0); fill-opacity: 1; white-space: pre;" transform="translate(205.09,0)">20</text></g><g class="xtick"><text text-anchor="middle" x="0" y="424.3" style="font-family: 'Open Sans', verdana, arial, sans-serif; font-size: 14px; fill: rgb(0, 0, 0); fill-opacity: 1; white-space: pre;" transform="translate(281.14,0)">30</text></g><g class="xtick"><text text-anchor="middle" x="0" y="424.3" style="font-family: 'Open Sans', verdana, arial, sans-serif; font-size: 14px; fill: rgb(0, 0, 0); fill-opacity: 1; white-space: pre;" transform="translate(357.18,0)">40</text></g><g class="xtick"><text text-anchor="middle" x="0" y="424.3" style="font-family: 'Open Sans', verdana, arial, sans-serif; font-size: 14px; fill: rgb(0, 0, 0); fill-opacity: 1; white-space: pre;" transform="translate(433.23,0)">50</text></g><g class="xtick"><text text-anchor="middle" x="0" y="424.3" style="font-family: 'Open Sans', verdana, arial, sans-serif; font-size: 14px; fill: rgb(0, 0, 0); fill-opacity: 1; white-space: pre;" transform="translate(509.27,0)">60</text></g></g><g class="yaxislayer-above"><path class="ytick ticks crisp" d="M53,0h5" transform="translate(0,383.78)" style="stroke: rgb(0, 0, 0); stroke-opacity: 1; stroke-width: 0.5px;"/><path class="ytick ticks crisp" d="M53,0h5" transform="translate(0,338.27)" style="stroke: rgb(0, 0, 0); stroke-opacity: 1; stroke-width: 0.5px;"/><path class="ytick ticks crisp" d="M53,0h5" transform="translate(0,292.77)" style="stroke: rgb(0, 0, 0); stroke-opacity: 1; stroke-width: 0.5px;"/><path class="ytick ticks crisp" d="M53,0h5" transform="translate(0,247.26)" style="stroke: rgb(0, 0, 0); stroke-opacity: 1; stroke-width: 0.5px;"/><path class="ytick ticks crisp" d="M53,0h5" transform="translate(0,201.75)" style="stroke: rgb(0, 0, 0); stroke-opacity: 1; stroke-width: 0.5px;"/><path class="ytick ticks crisp" d="M53,0h5" transform="translate(0,156.25)" style="stroke: rgb(0, 0, 0); stroke-opacity: 1; stroke-width: 0.5px;"/><path class="ytick ticks crisp" d="M53,0h5" transform="translate(0,110.74)" style="stroke: rgb(0, 0, 0); stroke-opacity: 1; stroke-width: 0.5px;"/><path class="ytick ticks crisp" d="M53,0h5" transform="translate(0,65.22999999999999)" style="stroke: rgb(0, 0, 0); stroke-opacity: 1; stroke-width: 0.5px;"/><g class="ytick"><text text-anchor="end" x="49.7" y="4.8999999999999995" transform="translate(0,383.78)" style="font-family: 'Open Sans', verdana, arial, sans-serif; font-size: 14px; fill: rgb(0, 0, 0); fill-opacity: 1; white-space: pre;">0</text></g><g class="ytick"><text text-anchor="end" x="49.7" y="4.8999999999999995" style="font-family: 'Open Sans', verdana, arial, sans-serif; font-size: 14px; fill: rgb(0, 0, 0); fill-opacity: 1; white-space: pre;" transform="translate(0,338.27)">0.05</text></g><g class="ytick"><text text-anchor="end" x="49.7" y="4.8999999999999995" style="font-family: 'Open Sans', verdana, arial, sans-serif; font-size: 14px; fill: rgb(0, 0, 0); fill-opacity: 1; white-space: pre;" transform="translate(0,292.77)">0.1</text></g><g class="ytick"><text text-anchor="end" x="49.7" y="4.8999999999999995" style="font-family: 'Open Sans', verdana, arial, sans-serif; font-size: 14px; fill: rgb(0, 0, 0); fill-opacity: 1; white-space: pre;" transform="translate(0,247.26)">0.15</text></g><g class="ytick"><text text-anchor="end" x="49.7" y="4.8999999999999995" style="font-family: 'Open Sans', verdana, arial, sans-serif; font-size: 14px; fill: rgb(0, 0, 0); fill-opacity: 1; white-space: pre;" transform="translate(0,201.75)">0.2</text></g><g class="ytick"><text text-anchor="end" x="49.7" y="4.8999999999999995" style="font-family: 'Open Sans', verdana, arial, sans-serif; font-size: 14px; fill: rgb(0, 0, 0); fill-opacity: 1; white-space: pre;" transform="translate(0,156.25)">0.25</text></g><g class="ytick"><text text-anchor="end" x="49.7" y="4.8999999999999995" style="font-family: 'Open Sans', verdana, arial, sans-serif; font-size: 14px; fill: rgb(0, 0, 0); fill-opacity: 1; white-space: pre;" transform="translate(0,110.74)">0.3</text></g><g class="ytick"><text text-anchor="end" x="49.7" y="4.8999999999999995" style="font-family: 'Open Sans', verdana, arial, sans-serif; font-size: 14px; fill: rgb(0, 0, 0); fill-opacity: 1; white-space: pre;" transform="translate(0,65.22999999999999)">0.35</text></g></g><g class="overaxes-above"/></g></g><g class="polarlayer"/><g class="smithlayer"/><g class="ternarylayer"/><g class="geolayer"/><g class="funnelarealayer"/><g class="pielayer"/><g class="iciclelayer"/><g class="treemaplayer"/><g class="sunburstlayer"/><g class="glimages"/><defs id="topdefs-733d0c"><g class="clips"/><clipPath id="legend733d0c"><rect width="125" height="53" x="0" y="0"/></clipPath></defs><g class="layer-above"><g class="imagelayer"/><g class="shapelayer"/></g><g class="infolayer"><g class="legend" pointer-events="all" transform="translate(563,30)"><rect class="bg" shape-rendering="crispEdges" style="stroke: rgb(68, 68, 68); stroke-opacity: 1; fill: rgb(255, 255, 255); fill-opacity: 1; stroke-width: 0px;" width="125" height="53" x="0" y="0"/><g class="scrollbox" transform="" clip-path="url(#legend733d0c)"><g class="groups"><g class="traces" transform="translate(0,15.6)" style="opacity: 1;"><text class="legendtext" text-anchor="start" x="40" y="5.46" style="font-family: 'Open Sans', verdana, arial, sans-serif; font-size: 14px; fill: rgb(0, 0, 0); fill-opacity: 1; white-space: pre;">mean</text><g class="layers" style="opacity: 1;"><g class="legendfill"/><g class="legendlines"><path class="js-line" d="M5,0h30" style="fill: none; stroke: rgb(171, 99, 250); stroke-opacity: 1; stroke-width: 2px;"/></g><g class="legendsymbols"><g class="legendpoints"/></g></g><rect class="legendtoggle" x="0" y="-10.6" width="119.7099609375" height="21.2" style="fill: rgb(0, 0, 0); fill-opacity: 0;"/></g><g class="traces" transform="translate(0,36.8)" style="opacity: 1;"><text class="legendtext" text-anchor="start" x="40" y="5.46" style="font-family: 'Open Sans', verdana, arial, sans-serif; font-size: 14px; fill: rgb(0, 0, 0); fill-opacity: 1; white-space: pre;">gompertz fit</text><g class="layers" style="opacity: 1;"><g class="legendfill"/><g class="legendlines"><path class="js-line" d="M5,0h30" style="fill: none; stroke: rgb(255, 161, 90); stroke-opacity: 1; stroke-dasharray: 9px, 9px; stroke-width: 2px;"/></g><g class="legendsymbols"><g class="legendpoints"/></g></g><rect class="legendtoggle" x="0" y="-10.6" width="119.7099609375" height="21.2" style="fill: rgb(0, 0, 0); fill-opacity: 0;"/></g></g></g><rect class="scrollbar" rx="20" ry="3" width="0" height="0" style="fill: rgb(128, 139, 164); fill-opacity: 1;" x="0" y="0"/></g><g class="g-gtitle"><text class="gtitle" x="35" y="15" text-anchor="start" dy="0em" style="opacity: 1; font-family: 'Open Sans', verdana, arial, sans-serif; font-size: 14px; fill: rgb(0, 0, 0); fill-opacity: 1; white-space: pre;">Oa – Succinate 15.0 mM (OD)</text></g><g class="g-xtitle" transform="translate(0,5.449999999999989)"><text class="xtitle" x="303" y="437.8498046875" text-anchor="middle" style="opacity: 1; font-family: 'Open Sans', verdana, arial, sans-serif; font-size: 14px; fill: rgb(0, 0, 0); fill-opacity: 1; white-space: pre;">Time (h)</text></g><g class="g-ytitle"><text class="ytitle" transform="rotate(-90,17.3001953125,218.5)" x="17.3001953125" y="218.5" text-anchor="middle" style="opacity: 1; font-family: 'Open Sans', verdana, arial, sans-serif; font-size: 14px; fill: rgb(0, 0, 0); fill-opacity: 1; white-space: pre;">OD600</text></g></g></svg>