<svg class="main-svg" xmlns="http://www.w3.org/2000/svg" xmlns:xlink="http://www.w3.org/1999/xlink" width="700" height="450" style="" viewBox="0 0 700 450"><rect x="0" y="0" width="700" height="450" style="fill: rgb(255, 255, 255); fill-opacity: 1;"/><defs id="defs-44ba78"><g class="clips"><clipPath id="clip44ba78xyplot" class="plotclip"><rect width="508" height="377"/></clipPath><clipPath class="axesclip" id="clip44ba78x"><rect x="45" y="0" width="508" height="450"/></clipPath><clipPath class="axesclip" id="clip44ba78y"><rect x="0" y="30" width="700" height="377"/></clipPath><clipPath class="axesclip" id="clip44ba78xy"><rect x="45" y="30" width="508" height="377"/></clipPath></g><g class="gradients"/><g class="patterns"/></defs><g class="bglayer"/><g class="layer-below"><g class="imagelayer"/><g class="shapelayer"/></g><g class="cartesianlayer"><g class="subplot xy"><g class="layer-subplot"><g class="shapelayer"/><g class="imagelayer"/></g><g class="minor-gridlayer"><g class="x"/><g class="y"/></g><g class="gridlayer"><g class="x"><path class="xgrid crisp" transform="translate(122.26,0)" d="M0,30v377" style="stroke: rgb(128, 128, 128); stroke-opacity: 1; stroke-width: 0.2px;"/><path class="xgrid crisp" transform="translate(199.52,0)" d="M0,30v377" style="stroke: rgb(128, 128, 128); stroke-opacity: 1; stroke-width: 0.2px;"/><path class="xgrid crisp" transform="translate(276.78999999999996,0)" d="M0,30v377" style="stroke: rgb(128, 128, 128); stroke-opacity: 1; stroke-width: 0.2px;"/><path class="xgrid crisp" transform="translate(354.05,0)" d="M0,30v377" style="stroke: rgb(128, 128, 128); stroke-opacity: 1; stroke-width: 0.2px;"/><path class="xgrid crisp" transform="translate(431.31,0)" d="M0,30v377" style="stroke: rgb(128, 128, 128); stroke-opacity: 1; stroke-width: 0.2px;"/><path class="xgrid crisp" transform="translate(508.57,0)" d="M0,30v377" style="stroke: rgb(128, 128, 128); stroke-opacity: 1; stroke-width: 0.2px;"/></g><g class="y"><path class="ygrid crisp" transform="translate(0,389.11)" d="M45,0h508" style="stroke: rgb(128, 128, 128); stroke-opacity: 1; stroke-width: 0.2px;"/><path class="ygrid crisp" transform="translate(0,323.96)" d="M45,0h508" style="stroke: rgb(128, 128, 128); stroke-opacity: 1; stroke-width: 0.2px;"/><path class="ygrid crisp" transform="translate(0,258.81)" d="M45,0h508" style="stroke: rgb(128, 128, 128); stroke-opacity: 1; stroke-width: 0.2px;"/><path class="ygrid crisp" transform="translate(0,193.66)" d="M45,0h508" style="stroke: rgb(128, 128, 128); stroke-opacity: 1; stroke-width: 0.2px;"/><path class="ygrid crisp" transform="translate(0,128.51)" d="M45,0h508" style="stroke: rgb(128, 128, 128); stroke-opacity: 1; stroke-width: 0.2px;"/><path class="ygrid crisp" transform="translate(0,63.36)" d="M45,0h508" style="stroke: rgb(128, 128, 128); stroke-opacity: 1; stroke-width: 0.2px;"/></g></g><g class="zerolinelayer"/><g class="layer-between"><g class="shapelayer"/><g class="imagelayer"/></g><path class="xlines-below"/><path class="ylines-below"/><g class="overlines-below"/><g class="xaxislayer-below"/><g class="yaxislayer-below"/><g class="overaxes-below"/><g class="overplot"><g class="xy" transform="translate(45,30)" clip-path="url(#clip44ba78xyplot)"><g class="scatterlayer mlayer"><g class="trace scatter trace1b33b6" style="stroke-miterlimit: 2; opacity: 1;"><g class="fills"/><g class="errorbars"/><g class="lines"><path class="js-line" d="M0,356.33L3.87,355.65L5.8,356L7.79,355.46L10.36,355.63L21.25,354.22L23.23,353.92L25.82,354.87L27.04,354.39L30.45,353.83L32.12,351.05L33.78,352.68L34.99,350.61L36.7,349.46L38.69,350.05L41.27,348.23L42.5,345.79L44.44,345.25L46.42,343.56L52.15,340.6L54.16,336.76L59.89,315.5L61.87,306.42L65.68,281.95L67.6,275.37L69.6,269.96L72.17,249.07L77.32,242.42L79.9,233.45L83.07,217.19L85.05,214.99L88.86,197.12L90.79,194.54L92.78,189.69L95.35,186.65L96.59,183.16L98.53,185.13L100.5,181.88L103.08,179.57L104.31,177.53L106.23,178.18L108.24,181.99L110.81,180.46L112.05,176.6L113.96,177.58L115.95,179.53L118.53,174.19L119.76,166.44L121.69,171.65L123.68,169.28L126.26,169.52L127.49,167.43L129.43,171.21L131.41,174.82L133.98,173.49L135.21,166.35L137.15,171.5L139.14,177.42L141.72,174.8L142.95,172.47L144.88,174.78L146.86,182.16L149.45,181.18L150.66,177.47L152.61,175.73L154.59,179.49L157.18,179.29L158.39,177.12L160.33,180.36L162.31,177.88L164.89,184.83L166.12,177.08L168.04,180.66L170.05,179.25L172.62,179.88L175.77,173.78L177.78,177.4L180.34,184.57L181.57,182.55L183.5,184.4L185.49,188L188.08,187.72L189.29,185.52L193.22,193.95L195.79,195.21L197.02,183.48L198.95,190.98L200.94,191.5L204.6,194.41L205.43,192.21L207.09,197.4L209.12,195.67L211.51,198.4L212.54,213.56L215.81,221.1L217.48,224.61L219.15,223.85L220.21,218.08L222.13,219.36L226.69,203.9L227.92,205.03L229.85,228.2L231.86,210.61L234.42,220.25L235.66,200.44L237.6,217.49L239.57,210.26L243.39,228.7L245.31,213.73L247.31,233.65L249.88,231.28L251.11,234.41L253.03,227.29L255.02,226.5L257.6,226.72L258.83,220.51L260.76,238.58L262.75,241.42L265.32,239.82L266.57,227.89L268.5,235.36L270.48,219.53L273.06,233.84L274.29,239.03L276.22,237.12L278.21,236.93L280.78,242.75L282.01,225.7L283.95,226.87L285.94,239.16L288.51,241.1L289.74,234.21L291.67,234.21L293.67,237.6L296.25,238.45L297.48,234.41L299.39,243.51L301.4,238.47L303.97,229.74L305.2,234.28L307.12,235.32L309.12,249.42L311.68,245.35L312.93,240.53L314.84,252.15L316.85,245.83L319.42,246.03L320.64,247.53L322.57,238.34L324.57,248.37L327.14,245.09L328.37,243.94L330.3,245.85L332.31,244.92L334.87,242.14L338.02,248.24L340.03,247.46L342.59,246.7L343.82,247.98L345.76,245.44L347.75,252.85L350.33,249.83L351.56,241.75L354.9,261.53L356.55,260.73L358.2,262.84L359.28,257.04L361.2,256.15L363.18,266.12L365.76,272.54L367.01,273.19L368.93,266.74L370.91,269.79L373.5,273.95L374.73,285.51L376.67,278.88L378.65,275.52L381.21,288.9L382.45,283.88L384.38,286.31L386.36,278.21L388.95,290.61L391.82,288.27L393.48,278.91L395.13,282.99L396.88,278.38L397.9,290.31L399.83,295.41L401.81,292.07L404.39,289.98L405.63,294.32L407.56,297.54L409.54,287.46L412.11,291.7L413.37,287.83L415.29,295.37L417.27,293.72L419.85,294.41L421.09,291.11L425,284.75L427.57,272.41L428.81,294.85L430.74,297.89L432.72,285.86L435.31,279.77L436.54,279.84L438.46,293.15L440.46,289.05L443.15,280.53L444.28,283.64L446.21,292.67L448.18,267.61L450.76,298.89L452,285.49L453.93,293L455.9,284.4L458.49,277.36L461.64,301.14L463.63,300.8L467.45,282.49L469.38,299.91L471.36,286.7L473.93,299.86L475.17,293.24L477.09,297.26L481.65,283.75L482.91,293.59L484.83,295.91L486.8,286.29L490.62,298.95L492.55,294.09L494.53,297.23L497.11,290.33L498.34,298.6L500.27,298.54L502.27,285.31L504.83,301.25L508,279.41" style="vector-effect: none; fill: none; stroke: rgb(99, 110, 250); stroke-opacity: 1; stroke-width: 2px; opacity: 1;"/></g><g class="points"/><g class="text"/></g><g class="trace scatter tracefd292e" style="stroke-miterlimit: 2; opacity: 1;"><g class="fills"/><g class="errorbars"/><g class="lines"><path class="js-line" d="M0,357.37L7.79,356.5L10.36,356.41L15.51,355.44L18.09,355.04L19.32,355.59L21.25,354.81L23.23,354.24L25.82,355.07L27.04,354.2L30.45,353.31L32.12,351.05L33.78,353.2L34.99,350.48L36.7,349.53L41.27,348.16L42.5,346.51L44.44,344.92L46.42,344.53L50.23,340.45L52.15,338.97L54.16,335.39L56.73,327.81L59.89,318.1L61.87,308.51L64.45,298.52L65.68,286.25L72.17,242.29L73.4,239.6L75.33,239.3L77.32,236.23L79.9,228.37L81.14,221.1L85.05,213.04L87.63,201.62L90.79,189.91L92.78,188.26L95.35,182.03L96.59,181.01L98.53,181.42L100.5,178.81L104.31,178.84L106.23,180.99L108.24,185.18L110.81,183.07L112.05,178.68L113.96,180.38L115.95,181.94L118.53,175.43L119.76,167.09L121.69,173.02L123.68,171.37L126.26,172.84L127.49,169.45L129.43,171.34L131.41,175.27L133.98,175.19L135.21,167L137.15,168.69L139.14,175.27L141.72,172.06L142.95,168.69L144.88,171L146.86,177.34L149.45,173.82L150.66,166.85L152.61,166.02L154.59,169.39L157.18,169.06L158.39,165.33L160.33,169.02L162.31,169.87L164.89,176.43L166.12,166.85L168.04,167.89L172.62,169.13L173.85,165.39L175.77,161.07L177.78,165.48L180.34,171.67L181.57,168.74L183.5,170.58L185.49,176.53L188.08,173.45L189.29,169.63L193.22,183.27L195.79,184.13L197.02,171.11L198.95,178.47L200.94,179.44L204.6,182.61L205.43,179.64L207.09,184.9L209.12,184.27L211.51,180.94L212.54,182.55L215.81,208.72L220.21,156.32L222.13,157.21L224.14,146.02L226.69,148.39L227.92,145.28L229.85,161.48L231.86,135.03L234.42,144.15L235.66,117.05L237.6,126.02L239.57,112.67L242.16,128.52L243.39,124.72L245.31,110.8L247.31,127.26L249.88,118.31L251.11,122.74L253.03,106.76L255.02,101.81L257.6,102.35L258.83,92.75L260.76,109.45L262.75,107.74L265.32,107.5L266.57,97.2L268.5,101.22L270.48,85.52L273.06,91.88L274.29,99.48L276.22,89.04L280.78,96.94L282.01,86.54L283.95,79.83L285.94,94.34L288.51,100.18L289.74,92.32L291.67,91.67L293.67,89.19L296.25,87.24L297.48,80.07L299.39,92.75L301.4,94.55L303.97,75.27L305.2,80.59L307.12,82.22L309.12,94.29L311.68,87.69L312.93,87.82L314.84,95.99L316.85,87.58L319.42,91.17L320.64,91.49L322.57,82.18L324.57,87.45L327.14,88.21L328.37,85.89L330.3,85.72L332.31,83.93L334.87,79.79L336.09,75.18L338.02,83.87L340.03,81.65L342.59,86.24L343.82,81.91L345.76,72.34L347.75,87.69L351.56,65.71L354.9,80.87L356.55,77.33L358.2,85.63L359.28,84.39L361.2,83.7L363.18,91.06L365.76,96.83L368.93,82.24L370.91,86.26L373.5,83.85L374.73,93.06L376.67,83.89L378.65,84.04L381.21,89.21L382.45,77.48L384.38,83.04L386.36,76.83L388.95,85.32L391.82,89.88L393.48,71.14L395.13,96.86L396.88,90.1L397.9,108.54L399.83,110.84L401.81,109.13L404.39,95.71L405.63,98.88L407.56,101.05L409.54,100.35L412.11,102.44L413.37,97.53L415.29,107.02L417.27,107.26L419.85,107.56L421.09,93.12L423.02,92.58L425,87.21L427.57,75.07L428.81,111.38L430.74,111.23L432.72,97.9L435.31,96.25L436.54,91.88L438.46,112.3L440.46,116.01L444.28,106.82L446.21,114.23L448.18,102.85L450.76,134.25L452,115.97L453.93,108.76L455.9,102.7L458.49,98.92L461.64,135.66L463.63,139.49L466.21,122.83L467.45,135.06L469.38,134.56L471.36,133.01L473.93,146.3L475.17,142.48L479.08,135.32L481.65,120.74L484.83,136.55L486.8,122.05L489.39,136.1L490.62,135.1L492.55,128.74L494.53,144.13L497.11,131.3L498.34,136.32L500.27,142.57L502.27,123.15L504.83,135.71L506.07,130.36L508,121.61" style="vector-effect: none; fill: none; stroke: rgb(239, 85, 59); stroke-opacity: 1; stroke-width: 2px; opacity: 1;"/></g><g class="points"/><g class="text"/></g><g class="trace scatter trace15d0eb" style="stroke-miterlimit: 2; opacity: 1;"><g class="fills"/><g class="errorbars"/><g class="lines"><path class="js-line" d="M0,358.15L23.23,354.96L25.82,356.3L30.45,355.13L32.12,352.61L33.78,354.18L34.99,352.18L36.7,350.51L38.69,352.13L41.27,350.64L42.5,348.46L46.42,345.45L49,344.62L52.15,343.34L54.16,338.45L57.96,327.16L59.89,318.95L64.45,297.02L65.68,291.72L73.4,247.48L75.33,245.29L77.32,241.38L79.9,233.39L81.14,225.79L83.07,218.88L85.05,217.47L87.63,201.55L88.86,196.27L90.79,192.06L96.59,179.9L98.53,178.94L100.5,175.43L103.08,173.19L104.31,170.56L106.23,172.78L108.24,177.03L110.81,173.95L112.05,171.06L113.96,173.73L115.95,176.27L118.53,174.06L119.76,166.83L121.69,171.26L123.68,169.15L126.26,169.91L127.49,166.46L129.43,168.8L131.41,174.88L133.98,174.02L135.21,165.63L137.15,166.35L139.14,171.04L141.72,165.87L142.95,159.7L144.88,162.85L146.86,170.89L149.45,170.04L150.66,164.5L152.61,162.77L154.59,166.91L157.18,167.5L158.39,164.48L160.33,167.98L162.31,167.59L164.89,174.99L166.12,167.04L168.04,167.96L170.05,167.85L172.62,164.83L173.85,159.46L175.77,155.14L177.78,161.64L180.34,165.87L181.57,162.16L183.5,164.79L185.49,169.63L188.08,170.71L189.29,165.59L191.22,168.96L193.22,174.73L195.79,173.91L197.02,162.05L198.95,169.93L204.6,174.02L205.43,171.89L207.09,176.3L209.12,176.45L212.54,147.24L215.81,148.06L219.15,122.94L220.21,108.56L222.13,101.24L224.14,83.02L227.92,65.41L229.85,80.96L231.86,55.88L234.42,63.43L235.66,41.41L237.6,51.62L239.57,37.87L242.16,54.83L243.39,61.98L245.31,47.86L247.31,61.91L249.88,55.9L251.11,66.19L253.03,50.47L255.02,47.67L257.6,51.08L258.83,42.85L260.76,60.98L262.75,64.48L265.32,60.59L266.57,47.36L268.5,54.44L270.48,36.59L273.06,57.48L274.29,69.32L276.22,64.8L278.21,54.18L280.78,57.79L282.01,44.71L283.95,44.84L285.94,58.24L288.51,52.88L289.74,59.74L291.67,44.24L293.67,53.1L296.25,53.1L297.48,57.14L299.39,55.23L301.4,49.54L303.97,37.35L305.2,41.44L307.12,36.87L309.12,48.88L311.68,44.37L312.93,43.13L314.84,60.81L319.42,48.95L320.64,59.7L322.57,42.24L324.57,59.18L327.14,48.21L328.37,66.93L330.3,71.12L332.31,64.06L334.87,55.62L336.09,74.08L338.02,66.41L340.03,69.02L342.59,59.53L343.82,62.37L345.76,64.98L347.75,57.59L350.33,58.87L351.56,36.98L354.9,58.01L356.55,45.47L358.2,58.14L359.28,38.13L361.2,37.63L363.18,47.54L365.76,50.84L367.01,44.84L368.93,32.6L370.91,33.62L373.5,30.69L374.73,49.6L376.67,32.75L378.65,25.8L381.21,39.37L382.45,18.85L388.95,83.76L391.82,86.3L393.48,53.42L395.13,72.69L396.88,66.71L397.9,66.84L401.81,79.74L404.39,71.86L405.63,70.93L407.56,78.24L409.54,71.62L412.11,78.46L413.37,81.44L415.29,91.71L417.27,94.88L419.85,87.63L421.09,88.04L423.02,103L425,106.89L427.57,92.08L428.81,126.24L430.74,121.92L432.72,104.35L435.31,104L436.54,94.49L438.46,116.34L440.46,125.59L443.15,114.4L444.28,113.66L446.21,129.47L448.18,101.68L450.76,134.06L452,118.9L453.93,120.29L455.9,113.12L458.49,96.7L461.64,119.96L463.63,143.26L466.21,127.52L467.45,131.34L469.38,133.19L471.36,126.37L473.93,208.33L475.17,197.47L477.09,197.84L479.08,187.96L481.65,179.97L482.91,183.94L484.83,183.14L486.8,173.65L489.39,171.02L490.62,172.04L492.55,172L494.53,182.05L497.11,160.81L498.34,180.23L500.27,179.7L502.27,164.13L504.83,174.99L506.07,159.1L508,150.28" style="vector-effect: none; fill: none; stroke: rgb(0, 204, 150); stroke-opacity: 1; stroke-width: 2px; opacity: 1;"/></g><g class="points"/><g class="text"/></g><g class="trace scatter trace8de482" style="stroke-miterlimit: 2; opacity: 1;"><g class="fills"/><g class="errorbars"/><g class="lines"><path class="js-line" d="M0,357.28L7.79,356.37L10.36,356.41L18.09,355.33L19.32,355.61L23.23,354.37L25.82,355.41L27.04,354.83L30.45,354.09L32.12,351.57L33.78,353.35L34.99,351.09L36.7,349.83L38.69,350.46L41.27,349.01L42.5,346.92L44.44,345.71L52.15,340.97L54.16,336.87L59.89,317.52L61.87,308.57L69.6,266.96L72.17,248.68L73.4,244.88L75.33,243.51L77.32,240.01L79.9,231.74L81.14,224.07L83.07,217.71L85.05,215.17L87.63,201.79L88.86,196.56L90.79,192.17L96.59,181.36L98.53,181.83L100.5,178.71L103.08,177.34L104.31,175.64L106.23,177.32L108.24,181.4L110.81,179.16L112.05,175.45L113.96,177.23L115.95,179.25L118.53,174.56L119.76,166.78L121.69,171.97L123.68,169.93L126.26,170.76L127.49,167.78L129.43,170.45L131.41,174.99L133.98,174.23L135.21,166.33L137.15,168.85L139.14,174.58L141.72,170.91L142.95,166.96L144.88,169.54L146.86,176.79L149.45,175.01L150.66,169.61L152.61,168.17L154.59,171.93L157.18,171.95L158.39,168.98L160.33,172.45L162.31,171.78L164.89,178.75L166.12,170.32L168.04,172.17L172.62,171.28L173.85,167.43L175.77,163.33L177.78,168.17L180.34,174.04L181.57,171.15L183.5,173.25L185.49,178.05L188.08,177.29L189.29,173.58L193.22,183.98L195.79,184.42L197.02,172.21L198.95,179.79L200.94,180.81L204.6,183.68L205.43,181.25L207.09,186.2L209.12,185.46L211.51,176.82L215.81,192.63L217.48,182.94L219.15,174.47L220.21,160.99L222.13,159.27L224.14,146.83L227.92,138.57L229.85,156.88L231.86,133.84L234.42,142.61L235.66,119.64L237.6,131.71L239.57,120.27L242.16,136.36L243.39,138.46L245.31,124.13L247.31,140.94L249.88,135.16L251.11,141.11L253.03,128.17L255.02,125.33L257.6,126.72L258.83,118.7L260.76,136.34L262.75,137.88L265.32,135.97L266.57,124.15L268.5,130.34L270.48,113.88L273.06,127.74L274.29,135.95L276.22,130.32L278.21,128.08L280.78,132.49L282.01,118.99L283.95,117.18L285.94,130.58L288.51,131.39L291.67,123.37L293.67,126.63L296.25,126.26L297.48,123.87L299.39,130.49L301.4,127.52L303.97,114.12L305.2,118.77L307.12,118.14L309.12,130.86L312.93,123.83L314.84,136.32L316.85,129.91L319.42,128.71L320.64,132.91L322.57,120.92L324.57,131.67L327.14,127.17L328.37,132.25L330.3,134.23L334.87,125.85L336.09,131.39L338.02,132.84L340.03,132.71L343.82,130.76L345.76,127.58L347.75,132.71L350.33,126.96L351.56,114.82L354.9,133.47L356.55,127.85L358.2,135.53L359.28,126.52L361.2,125.83L363.18,134.9L365.76,140.07L368.93,127.19L370.91,129.89L373.5,129.5L374.73,142.72L376.67,131.84L378.65,128.45L381.21,139.16L382.45,126.74L384.38,136.21L386.36,139.66L388.95,153.23L391.82,154.82L393.48,134.49L395.13,150.84L396.88,145.07L397.9,155.23L399.83,160.03L401.81,160.31L404.39,152.52L405.63,154.71L407.56,158.94L409.54,153.15L412.11,157.53L413.37,155.6L415.29,164.7L417.27,165.28L419.85,163.2L421.09,157.42L423.02,161.07L425,159.62L427.57,146.52L428.81,177.49L430.74,177.01L432.72,162.7L435.31,160.01L436.54,155.4L438.46,173.93L440.46,176.88L443.15,168.19L444.28,168.04L446.21,178.79L448.18,157.38L450.76,189.06L452,173.45L453.93,174.02L455.9,166.74L458.49,157.66L459.72,169.74L461.64,185.59L463.63,194.52L466.21,178.99L467.45,182.96L469.38,189.22L471.36,182.03L473.93,218.16L475.17,211.06L477.09,211.22L479.08,204.74L481.65,194.82L482.91,201.96L484.83,205.2L486.8,193.99L490.62,202.03L492.55,198.27L494.53,207.81L497.11,194.15L498.34,205.05L500.27,206.94L502.27,190.87L504.83,203.98L508,183.77" style="vector-effect: none; fill: none; stroke: rgb(171, 99, 250); stroke-opacity: 1; stroke-width: 2px; opacity: 1;"/></g><g class="points"/><g class="text"/></g><g class="trace scatter traceb66761" style="stroke-miterlimit: 2; opacity: 1;"><g class="fills"/><g class="errorbars"/><g class="lines"><path class="js-line" d="M0,355.46L34.99,354.88L36.7,354.47L41.27,352.2L42.5,351.17L46.42,346.34L49,341.66L52.15,334.21L54.16,328.52L59.89,308.82L61.87,301.14L79.9,231.36L81.14,227.33L88.86,205.76L90.79,201.29L96.59,189.82L98.53,186.6L104.31,178.57L106.23,176.36L113.96,169.35L115.95,167.96L123.68,163.73L126.26,162.66L135.21,159.92L137.15,159.49L150.66,157.45L152.61,157.26L173.85,156.13L175.77,156.08L222.13,155.66L224.14,155.66L423.02,155.63L425,155.63L508,155.63" style="vector-effect: none; fill: none; stroke: rgb(255, 161, 90); stroke-opacity: 1; stroke-dasharray: 9px, 9px; stroke-width: 2px; opacity: 1;"/></g><g class="points"/><g class="text"/></g></g></g></g><g class="zerolinelayer-above"/><path class="xlines-above crisp" d="M44.5,407.25H553.5M44.5,29.75H553.5" style="fill: none; stroke-width: 0.5px; stroke: rgb(0, 0, 0); stroke-opacity: 1;"/><path class="ylines-above crisp" d="M44.75,30V407M553.25,30V407" style="fill: none; stroke-width: 0.5px; stroke: rgb(0, 0, 0); stroke-opacity: 1;"/><g class="overlines-above"/><g class="xaxislayer-above"><path class="xtick ticks crisp" d="M0,407v-5" transform="translate(122.26,0)" style="stroke: rgb(0, 0, 0); stroke-opacity: 1; stroke-width: 0.5px;"/><path class="xtick ticks crisp" d="M0,407v-5" transform="translate(199.52,0)" style="stroke: rgb(0, 0, 0); stroke-opacity: 1; stroke-width: 0.5px;"/><path class="xtick ticks crisp" d="M0,407v-5" transform="translate(276.78999999999996,0)" style="stroke: rgb(0, 0, 0); stroke-opacity: 1; stroke-width: 0.5px;"/><path class="xtick ticks crisp" d="M0,407v-5" transform="translate(354.05,0)" style="stroke: rgb(0, 0, 0); stroke-opacity: 1; stroke-width: 0.5px;"/><path class="xtick ticks crisp" d="M0,407v-5" transform="translate(431.31,0)" style="stroke: rgb(0, 0, 0); stroke-opacity: 1; stroke-width: 0.5px;"/><path class="xtick ticks crisp" d="M0,407v-5" transform="translate(508.57,0)" style="stroke: rgb(0, 0, 0); stroke-opacity: 1; stroke-width: 0.5px;"/><g class="xtick"><text text-anchor="middle" x="0" y="424.3" transform="translate(45,0)" style="font-family: 'Open Sans', verdana, arial, sans-serif; font-size: 14px; fill: rgb(0, 0, 0); fill-opacity: 1; white-space: pre;">0</text></g><g class="xtick"><text text-anchor="middle" x="0" y="424.3" style="font-family: 'Open Sans', verdana, arial, sans-serif; font-size: 14px; fill: rgb(0, 0, 0); fill-opacity: 1; white-space: pre;" transform="translate(122.26,0)">10</text></g><g class="xtick"><text text-anchor="middle" x="0" y="424.3" style="font-family: 'Open Sans', verdana, arial, sans-serif; font-size: 14px; fill: rgb(0, 0, 0); fill-opacity: 1; white-space: pre;" transform="translate(199.52,0)">20</text></g><g class="xtick"><text text-anchor="middle" x="0" y="424.3" style="font-family: 'Open Sans', verdana, arial, sans-serif; font-size: 14px; fill: rgb(0, 0, 0); fill-opacity: 1; white-space: pre;" transform="translate(276.78999999999996,0)">30</text></g><g class="xtick"><text text-anchor="middle" x="0" y="424.3" style="font-family: 'Open Sans', verdana, arial, sans-serif; font-size: 14px; fill: rgb(0, 0, 0); fill-opacity: 1; white-space: pre;" transform="translate(354.05,0)">40</text></g><g class="xtick"><text text-anchor="middle" x="0" y="424.3" style="font-family: 'Open Sans', verdana, arial, sans-serif; font-size: 14px; fill: rgb(0, 0, 0); fill-opacity: 1; white-space: pre;" transform="translate(431.31,0)">50</text></g><g class="xtick"><text text-anchor="middle" x="0" y="424.3" style="font-family: 'Open Sans', verdana, arial, sans-serif; font-size: 14px; fill: rgb(0, 0, 0); fill-opacity: 1; white-space: pre;" transform="translate(508.57,0)">60</text></g></g><g class="yaxislayer-above"><path class="ytick ticks crisp" d="M45,0h5" transform="translate(0,389.11)" style="stroke: rgb(0, 0, 0); stroke-opacity: 1; stroke-width: 0.5px;"/><path class="ytick ticks crisp" d="M45,0h5" transform="translate(0,323.96)" style="stroke: rgb(0, 0, 0); stroke-opacity: 1; stroke-width: 0.5px;"/><path class="ytick ticks crisp" d="M45,0h5" transform="translate(0,258.81)" style="stroke: rgb(0, 0, 0); stroke-opacity: 1; stroke-width: 0.5px;"/><path class="ytick ticks crisp" d="M45,0h5" transform="translate(0,193.66)" style="stroke: rgb(0, 0, 0); stroke-opacity: 1; stroke-width: 0.5px;"/><path class="ytick ticks crisp" d="M45,0h5" transform="translate(0,128.51)" style="stroke: rgb(0, 0, 0); stroke-opacity: 1; stroke-width: 0.5px;"/><path class="ytick ticks crisp" d="M45,0h5" transform="translate(0,63.36)" style="stroke: rgb(0, 0, 0); stroke-opacity: 1; stroke-width: 0.5px;"/><g class="ytick"><text text-anchor="end" x="41.7" y="4.8999999999999995" transform="translate(0,389.11)" style="font-family: 'Open Sans', verdana, arial, sans-serif; font-size: 14px; fill: rgb(0, 0, 0); fill-opacity: 1; white-space: pre;">0</text></g><g class="ytick"><text text-anchor="end" x="41.7" y="4.8999999999999995" style="font-family: 'Open Sans', verdana, arial, sans-serif; font-size: 14px; fill: rgb(0, 0, 0); fill-opacity: 1; white-space: pre;" transform="translate(0,323.96)">0.1</text></g><g class="ytick"><text text-anchor="end" x="41.7" y="4.8999999999999995" style="font-family: 'Open Sans', verdana, arial, sans-serif; font-size: 14px; fill: rgb(0, 0, 0); fill-opacity: 1; white-space: pre;" transform="translate(0,258.81)">0.2</text></g><g class="ytick"><text text-anchor="end" x="41.7" y="4.8999999999999995" style="font-family: 'Open Sans', verdana, arial, sans-serif; font-size: 14px; fill: rgb(0, 0, 0); fill-opacity: 1; white-space: pre;" transform="translate(0,193.66)">0.3</text></g><g class="ytick"><text text-anchor="end" x="41.7" y="4.8999999999999995" style="font-family: 'Open Sans', verdana, arial, sans-serif; font-size: 14px; fill: rgb(0, 0, 0); fill-opacity: 1; white-space: pre;" transform="translate(0,128.51)">0.4</text></g><g class="ytick"><text text-anchor="end" x="41.7" y="4.8999999999999995" style="font-family: 'Open Sans', verdana, arial, sans-serif; font-size: 14px; fill: rgb(0, 0, 0); fill-opacity: 1; white-space: pre;" transform="translate(0,63.36)">0.5</text></g></g><g class="overaxes-above"/></g></g><g class="polarlayer"/><g class="smithlayer"/><g class="ternarylayer"/><g class="geolayer"/><g class="funnelarealayer"/><g class="pielayer"/><g class="iciclelayer"/><g class="treemaplayer"/><g class="sunburstlayer"/><g class="glimages"/><defs id="topdefs-44ba78"><g class="clips"/><clipPath id="legend44ba78"><rect width="125" height="53" x="0" y="0"/></clipPath></defs><g class="layer-above"><g class="imagelayer"/><g class="shapelayer"/></g><g class="infolayer"><g class="legend" pointer-events="all" transform="translate(563.16,30)"><rect class="bg" shape-rendering="crispEdges" style="stroke: rgb(68, 68, 68); stroke-opacity: 1; fill: rgb(255, 255, 255); fill-opacity: 1; stroke-width: 0px;" width="125" height="53" x="0" y="0"/><g class="scrollbox" transform="" clip-path="url(#legend44ba78)"><g class="groups"><g class="traces" transform="translate(0,15.6)" style="opacity: 1;"><text class="legendtext" text-anchor="start" x="40" y="5.46" style="font-family: 'Open Sans', verdana, arial, sans-serif; font-size: 14px; fill: rgb(0, 0, 0); fill-opacity: 1; white-space: pre;">mean</text><g class="layers" style="opacity: 1;"><g class="legendfill"/><g class="legendlines"><path class="js-line" d="M5,0h30" style="fill: none; stroke: rgb(171, 99, 250); stroke-opacity: 1; stroke-width: 2px;"/></g><g class="legendsymbols"><g class="legendpoints"/></g></g><rect class="legendtoggle" x="0" y="-10.6" width="119.7099609375" height="21.2" style="fill: rgb(0, 0, 0); fill-opacity: 0;"/></g><g class="traces" transform="translate(0,36.8)" style="opacity: 1;"><text class="legendtext" text-anchor="start" x="40" y="5.46" style="font-family: 'Open Sans', verdana, arial, sans-serif; font-size: 14px; fill: rgb(0, 0, 0); fill-opacity: 1; white-space: pre;">gompertz fit</text><g class="layers" style="opacity: 1;"><g class="legendfill"/><g class="legendlines"><path class="js-line" d="M5,0h30" style="fill: none; stroke: rgb(255, 161, 90); stroke-opacity: 1; stroke-dasharray: 9px, 9px; stroke-width: 2px;"/></g><g class="legendsymbols"><g class="legendpoints"/></g></g><rect class="legendtoggle" x="0" y="-10.6" width="119.7099609375" height="21.2" style="fill: rgb(0, 0, 0); fill-opacity: 0;"/></g></g></g><rect class="scrollbar" rx="20" ry="3" width="0" height="0" style="fill: rgb(128, 139, 164); fill-opacity: 1;" x="0" y="0"/></g><g class="g-gtitle"><text class="gtitle" x="35" y="15" text-anchor="start" dy="0em" style="opacity: 1; font-family: 'Open Sans', verdana, arial, sans-serif; font-size: 14px; fill: rgb(0, 0, 0); fill-opacity: 1; white-space: pre;">At – Succinate 15.0 mM (OD)</text></g><g class="g-xtitle" transform="translate(0,5.449999999999989)"><text class="xtitle" x="299" y="437.8498046875" text-anchor="middle" style="opacity: 1; font-family: 'Open Sans', verdana, arial, sans-serif; font-size: 14px; fill: rgb(0, 0, 0); fill-opacity: 1; white-space: pre;">Time (h)</text></g><g class="g-ytitle"><text class="ytitle" transform="rotate(-90,17.3001953125,218.5)" x="17.3001953125" y="218.5" text-anchor="middle" style="opacity: 1; font-family: 'Open Sans', verdana, arial, sans-serif; font-size: 14px; fill: rgb(0, 0, 0); fill-opacity: 1; white-space: pre;">OD600</text></g></g></svg>