<svg class="main-svg" xmlns="http://www.w3.org/2000/svg" xmlns:xlink="http://www.w3.org/1999/xlink" width="600" height="400" style="" viewBox="0 0 600 400"><rect x="0" y="0" width="600" height="400" style="fill: rgb(255, 255, 255); fill-opacity: 1;"/><defs id="defs-b560ce"><g class="clips"><clipPath id="clipb560cexyplot" class="plotclip"><rect width="439" height="327"/></clipPath><clipPath class="axesclip" id="clipb560cex"><rect x="53" y="0" width="439" height="400"/></clipPath><clipPath class="axesclip" id="clipb560cey"><rect x="0" y="30" width="600" height="327"/></clipPath><clipPath class="axesclip" id="clipb560cexy"><rect x="53" y="30" width="439" height="327"/></clipPath></g><g class="gradients"/><g class="patterns"/></defs><g class="bglayer"/><g class="layer-below"><g class="imagelayer"/><g class="shapelayer"/></g><g class="cartesianlayer"><g class="subplot xy"><g class="layer-subplot"><g class="shapelayer"/><g class="imagelayer"/></g><g class="minor-gridlayer"><g class="x"/><g class="y"/></g><g class="gridlayer"><g class="x"><path class="xgrid crisp" transform="translate(126.78,0)" d="M0,30v327" style="stroke: rgb(128, 128, 128); stroke-opacity: 1; stroke-width: 0.2px;"/><path class="xgrid crisp" transform="translate(200.56,0)" d="M0,30v327" style="stroke: rgb(128, 128, 128); stroke-opacity: 1; stroke-width: 0.2px;"/><path class="xgrid crisp" transform="translate(274.35,0)" d="M0,30v327" style="stroke: rgb(128, 128, 128); stroke-opacity: 1; stroke-width: 0.2px;"/><path class="xgrid crisp" transform="translate(348.13,0)" d="M0,30v327" style="stroke: rgb(128, 128, 128); stroke-opacity: 1; stroke-width: 0.2px;"/><path class="xgrid crisp" transform="translate(421.91,0)" d="M0,30v327" style="stroke: rgb(128, 128, 128); stroke-opacity: 1; stroke-width: 0.2px;"/></g><g class="y"><path class="ygrid crisp" transform="translate(0,335.68)" d="M53,0h439" style="stroke: rgb(128, 128, 128); stroke-opacity: 1; stroke-width: 0.2px;"/><path class="ygrid crisp" transform="translate(0,283.9)" d="M53,0h439" style="stroke: rgb(128, 128, 128); stroke-opacity: 1; stroke-width: 0.2px;"/><path class="ygrid crisp" transform="translate(0,232.13)" d="M53,0h439" style="stroke: rgb(128, 128, 128); stroke-opacity: 1; stroke-width: 0.2px;"/><path class="ygrid crisp" transform="translate(0,180.35)" d="M53,0h439" style="stroke: rgb(128, 128, 128); stroke-opacity: 1; stroke-width: 0.2px;"/><path class="ygrid crisp" transform="translate(0,128.57)" d="M53,0h439" style="stroke: rgb(128, 128, 128); stroke-opacity: 1; stroke-width: 0.2px;"/><path class="ygrid crisp" transform="translate(0,76.78999999999999)" d="M53,0h439" style="stroke: rgb(128, 128, 128); stroke-opacity: 1; stroke-width: 0.2px;"/></g></g><g class="zerolinelayer"/><g class="layer-between"><g class="shapelayer"/><g class="imagelayer"/></g><path class="xlines-below"/><path class="ylines-below"/><g class="overlines-below"/><g class="xaxislayer-below"/><g class="yaxislayer-below"/><g class="overaxes-below"/><g class="overplot"><g class="xy" transform="translate(53,30)" clip-path="url(#clipb560cexyplot)"><g class="scatterlayer mlayer"><g class="trace scatter trace0bc2ce" style="stroke-miterlimit: 2; opacity: 1;"><g class="fills"/><g class="errorbars"/><g class="lines"><path class="js-line" d="M0,305.61L7.39,305.47L11.08,305.3L22.16,304.89L25.82,304.71L44.37,304.26L49.32,307.03L58.16,307.54L61.34,303.95L64.51,307.99L66.83,305.13L70.09,304.33L73.9,307.54L78.82,307.75L81.18,304.82L84.87,304.68L88.66,305.61L93.58,305.75L95.93,307.61L99.61,310.44L103.44,310.65L108.35,308.96L110.7,308.96L114.39,309.27L118.17,308.1L123.09,300.29L125.44,303.06L129.12,302.75L132.92,299.12L137.84,290.15L140.18,291.25L143.88,289.94L147.67,284.87L152.59,273.72L154.97,270.44L158.66,256.56L162.44,250.49L169.72,221.97L173.39,203.06L177.2,175.48L182.11,158.32L184.47,171.3L188.18,169.68L191.95,151.35L196.87,154.84L199.22,157.39L202.9,156.46L206.74,154.32L211.64,161.33L221.46,157.87L226.38,161.19L228.73,156.73L232.42,160.05L236.21,160.53L241.14,164.22L247.2,159.98L250.99,166.74L255.89,161.84L258.24,166.33L261.95,163.53L265.74,164.16L273.02,167.26L276.71,161.71L280.49,165.78L285.44,163.91L287.75,165.57L291.46,161.67L295.25,171.37L300.2,167.75L302.51,165.95L306.22,165.5L310,160.84L314.92,167.64L317.27,165.05L320.95,171.99L324.79,172.75L329.69,169.09L332.04,168.64L335.71,163.85L339.54,164.54L344.44,170.33L346.79,171.27L350.46,169.54L359.22,168.92L361.54,173.3L369.03,173.86L373.95,173.06L376.3,161.88L379.98,168.09L383.79,166.23L390.77,171.16L392.35,168.19L395.53,169.71L399.4,168.92L403.96,139.2L405.93,134.09L412.18,133.12L415.38,117.8L418.55,97.54L420.59,80.28L424.24,71.75L428.08,38.55L432.97,24.08L435.31,20.29L439,45.83" style="vector-effect: none; fill: none; stroke: rgb(128, 128, 128); stroke-opacity: 1; stroke-width: 2px; opacity: 1;"/></g><g class="points"/><g class="text"/></g><g class="trace scatter tracea8c901" style="stroke-miterlimit: 2; opacity: 1;"><g class="fills"/><g class="errorbars"/><g class="lines"><path class="js-line" d="M0,304.06L34.54,302.33L36.9,303.61L44.37,301.78L49.32,304.85L51.65,304.3L58.16,305.68L61.34,302.61L64.51,306.23L66.83,303.78L70.09,302.78L73.9,306.09L78.82,305.89L81.18,303.26L84.87,302.71L93.58,304.09L95.93,305.54L99.61,308.68L103.44,309.1L110.7,307.2L114.39,307.2L118.17,306.13L123.09,297.91L125.44,299.95L129.12,299.85L132.92,296.01L137.84,287.45L140.18,288.25L143.88,287.04L147.67,281.86L152.59,270.19L154.97,266.81L158.66,251.59L162.44,246.96L167.36,225.18L169.72,216.07L173.39,191.77L177.2,171.75L182.11,157.39L184.47,169.54L188.18,165.95L191.95,149.49L196.87,153.18L199.22,155.94L202.9,154.91L206.74,152.45L211.64,159.77L214,154.66L217.65,154.46L221.46,152.39L226.38,155.28L228.73,150.62L232.42,155.7L241.14,161.12L243.49,159.25L247.2,158.32L250.99,164.67L255.89,160.29L258.24,164.05L261.95,161.36L265.74,161.26L270.67,164.43L273.02,163.12L276.71,159.53L280.49,164.64L285.44,162.05L287.75,161.84L291.46,159.19L295.25,168.37L300.2,166.5L302.51,164.09L306.22,164.88L310,158.98L314.92,165.67L317.27,162.57L320.95,170.23L324.79,171.4L332.04,167.3L335.71,162.71L339.54,162.46L344.44,168.88L346.79,169.71L350.46,168.4L354.27,168.02L359.22,166.23L361.54,171.54L365.22,171.92L373.95,170.99L376.3,160.43L379.98,167.78L383.79,165.29L390.77,170.33L392.35,166.95L395.53,168.99L399.4,167.47L403.96,133.4L405.93,126.22L412.18,127.22L415.38,110.86L420.59,77.58L424.24,66.37L428.08,38.44L432.97,18.49L435.31,16.35L439,43.45" style="vector-effect: none; fill: none; stroke: rgb(128, 128, 128); stroke-opacity: 1; stroke-width: 2px; opacity: 1;"/></g><g class="points"/><g class="text"/></g><g class="trace scatter trace6f73d4" style="stroke-miterlimit: 2; opacity: 1;"><g class="fills"/><g class="errorbars"/><g class="lines"><path class="js-line" d="M0,303.33L34.54,301.71L36.9,302.16L44.37,300.95L49.32,303.5L51.65,303.16L58.16,303.61L61.34,300.33L64.51,303.95L66.83,301.4L70.09,300.19L73.9,303.19L78.82,303.71L81.18,300.57L84.87,300.02L93.58,300.98L95.93,302.33L99.61,305.16L103.44,305.27L110.7,302.75L114.39,303.16L118.17,302.3L123.09,294.39L125.44,297.26L129.12,298.4L132.92,296.43L137.84,289.21L140.18,290.42L143.88,289.53L147.67,284.55L152.59,274.13L154.97,270.02L158.66,255.42L162.44,250.49L167.36,231.29L169.72,221.87L173.39,201.61L177.2,175.17L182.11,158.53L184.47,170.68L188.18,168.95L191.95,152.9L196.87,155.66L199.22,156.25L202.9,155.84L206.74,154.73L211.64,159.77L214,154.35L217.65,155.18L221.46,152.49L226.38,155.39L228.73,150.83L232.42,157.56L241.14,163.71L243.49,161.95L247.2,160.6L250.99,165.29L255.89,161.33L258.24,166.33L261.95,162.71L265.74,162.6L270.67,166.71L273.02,165.81L276.71,160.67L280.49,166.4L285.44,163.91L287.75,163.81L291.46,160.95L295.25,169.92L300.2,167.23L302.51,164.5L306.22,165.29L310,159.7L314.92,166.92L317.27,164.02L320.95,170.85L324.79,171.3L332.04,167.61L335.71,163.12L339.54,163.19L344.44,169.82L346.79,170.96L350.46,169.02L354.27,168.23L359.22,168.19L361.54,171.65L365.22,172.23L369.03,172.82L373.95,172.54L376.3,161.46L379.98,167.78L383.79,166.02L390.77,170.75L392.35,168.19L395.53,169.92L399.4,168.09L403.96,139.41L405.93,136.78L412.18,136.44L415.38,119.97L418.55,97.54L420.59,80.38L424.24,74.34L428.08,45.07L432.97,25.64L435.31,25.05L439,51.32" style="vector-effect: none; fill: none; stroke: rgb(128, 128, 128); stroke-opacity: 1; stroke-width: 2px; opacity: 1;"/></g><g class="points"/><g class="text"/></g><g class="trace scatter trace40473c" style="stroke-miterlimit: 2; opacity: 1;"><g class="fills"/><g class="errorbars"/><g class="lines"><path class="js-line" d="M0,303.61L110.7,303L114.39,302.37L125.44,299.44L129.12,297.97L137.84,292.96L140.18,291.13L147.67,283.31L152.59,276.01L158.66,263.66L162.44,253.46L169.72,226.43L173.39,207.89L177.2,184.22L182.11,159.15L439,159.15" style="vector-effect: none; fill: none; stroke: rgb(128, 0, 128); stroke-opacity: 1; stroke-width: 2px; opacity: 1;"/></g><g class="points"/><g class="text"/></g></g></g></g><g class="zerolinelayer-above"/><path class="xlines-above crisp" d="M52.5,357.25H492.5M52.5,29.75H492.5" style="fill: none; stroke-width: 0.5px; stroke: rgb(0, 0, 0); stroke-opacity: 1;"/><path class="ylines-above crisp" d="M52.75,30V357M492.25,30V357" style="fill: none; stroke-width: 0.5px; stroke: rgb(0, 0, 0); stroke-opacity: 1;"/><g class="overlines-above"/><g class="xaxislayer-above"><path class="xtick ticks crisp" d="M0,357v-5" transform="translate(126.78,0)" style="stroke: rgb(0, 0, 0); stroke-opacity: 1; stroke-width: 0.5px;"/><path class="xtick ticks crisp" d="M0,357v-5" transform="translate(200.56,0)" style="stroke: rgb(0, 0, 0); stroke-opacity: 1; stroke-width: 0.5px;"/><path class="xtick ticks crisp" d="M0,357v-5" transform="translate(274.35,0)" style="stroke: rgb(0, 0, 0); stroke-opacity: 1; stroke-width: 0.5px;"/><path class="xtick ticks crisp" d="M0,357v-5" transform="translate(348.13,0)" style="stroke: rgb(0, 0, 0); stroke-opacity: 1; stroke-width: 0.5px;"/><path class="xtick ticks crisp" d="M0,357v-5" transform="translate(421.91,0)" style="stroke: rgb(0, 0, 0); stroke-opacity: 1; stroke-width: 0.5px;"/><g class="xtick"><text text-anchor="middle" x="0" y="374.3" transform="translate(53,0)" style="font-family: 'Open Sans', verdana, arial, sans-serif; font-size: 14px; fill: rgb(0, 0, 0); fill-opacity: 1; white-space: pre;">0</text></g><g class="xtick"><text text-anchor="middle" x="0" y="374.3" style="font-family: 'Open Sans', verdana, arial, sans-serif; font-size: 14px; fill: rgb(0, 0, 0); fill-opacity: 1; white-space: pre;" transform="translate(126.78,0)">5</text></g><g class="xtick"><text text-anchor="middle" x="0" y="374.3" style="font-family: 'Open Sans', verdana, arial, sans-serif; font-size: 14px; fill: rgb(0, 0, 0); fill-opacity: 1; white-space: pre;" transform="translate(200.56,0)">10</text></g><g class="xtick"><text text-anchor="middle" x="0" y="374.3" style="font-family: 'Open Sans', verdana, arial, sans-serif; font-size: 14px; fill: rgb(0, 0, 0); fill-opacity: 1; white-space: pre;" transform="translate(274.35,0)">15</text></g><g class="xtick"><text text-anchor="middle" x="0" y="374.3" style="font-family: 'Open Sans', verdana, arial, sans-serif; font-size: 14px; fill: rgb(0, 0, 0); fill-opacity: 1; white-space: pre;" transform="translate(348.13,0)">20</text></g><g class="xtick"><text text-anchor="middle" x="0" y="374.3" style="font-family: 'Open Sans', verdana, arial, sans-serif; font-size: 14px; fill: rgb(0, 0, 0); fill-opacity: 1; white-space: pre;" transform="translate(421.91,0)">25</text></g></g><g class="yaxislayer-above"><path class="ytick ticks crisp" d="M53,0h5" transform="translate(0,335.68)" style="stroke: rgb(0, 0, 0); stroke-opacity: 1; stroke-width: 0.5px;"/><path class="ytick ticks crisp" d="M53,0h5" transform="translate(0,283.9)" style="stroke: rgb(0, 0, 0); stroke-opacity: 1; stroke-width: 0.5px;"/><path class="ytick ticks crisp" d="M53,0h5" transform="translate(0,232.13)" style="stroke: rgb(0, 0, 0); stroke-opacity: 1; stroke-width: 0.5px;"/><path class="ytick ticks crisp" d="M53,0h5" transform="translate(0,180.35)" style="stroke: rgb(0, 0, 0); stroke-opacity: 1; stroke-width: 0.5px;"/><path class="ytick ticks crisp" d="M53,0h5" transform="translate(0,128.57)" style="stroke: rgb(0, 0, 0); stroke-opacity: 1; stroke-width: 0.5px;"/><path class="ytick ticks crisp" d="M53,0h5" transform="translate(0,76.78999999999999)" style="stroke: rgb(0, 0, 0); stroke-opacity: 1; stroke-width: 0.5px;"/><g class="ytick"><text text-anchor="end" x="49.7" y="4.8999999999999995" transform="translate(0,335.68)" style="font-family: 'Open Sans', verdana, arial, sans-serif; font-size: 14px; fill: rgb(0, 0, 0); fill-opacity: 1; white-space: pre;">0</text></g><g class="ytick"><text text-anchor="end" x="49.7" y="4.8999999999999995" style="font-family: 'Open Sans', verdana, arial, sans-serif; font-size: 14px; fill: rgb(0, 0, 0); fill-opacity: 1; white-space: pre;" transform="translate(0,283.9)">0.05</text></g><g class="ytick"><text text-anchor="end" x="49.7" y="4.8999999999999995" style="font-family: 'Open Sans', verdana, arial, sans-serif; font-size: 14px; fill: rgb(0, 0, 0); fill-opacity: 1; white-space: pre;" transform="translate(0,232.13)">0.1</text></g><g class="ytick"><text text-anchor="end" x="49.7" y="4.8999999999999995" style="font-family: 'Open Sans', verdana, arial, sans-serif; font-size: 14px; fill: rgb(0, 0, 0); fill-opacity: 1; white-space: pre;" transform="translate(0,180.35)">0.15</text></g><g class="ytick"><text text-anchor="end" x="49.7" y="4.8999999999999995" style="font-family: 'Open Sans', verdana, arial, sans-serif; font-size: 14px; fill: rgb(0, 0, 0); fill-opacity: 1; white-space: pre;" transform="translate(0,128.57)">0.2</text></g><g class="ytick"><text text-anchor="end" x="49.7" y="4.8999999999999995" style="font-family: 'Open Sans', verdana, arial, sans-serif; font-size: 14px; fill: rgb(0, 0, 0); fill-opacity: 1; white-space: pre;" transform="translate(0,76.78999999999999)">0.25</text></g></g><g class="overaxes-above"/></g></g><g class="polarlayer"/><g class="smithlayer"/><g class="ternarylayer"/><g class="geolayer"/><g class="funnelarealayer"/><g class="pielayer"/><g class="iciclelayer"/><g class="treemaplayer"/><g class="sunburstlayer"/><g class="glimages"/><defs id="topdefs-b560ce"><g class="clips"/><clipPath id="legendb560ce"><rect width="87" height="53" x="0" y="0"/></clipPath></defs><g class="layer-above"><g class="imagelayer"/><g class="shapelayer"/></g><g class="infolayer"><g class="legend" pointer-events="all" transform="translate(500.78000000000003,30)"><rect class="bg" shape-rendering="crispEdges" style="stroke: rgb(68, 68, 68); stroke-opacity: 1; fill: rgb(255, 255, 255); fill-opacity: 1; stroke-width: 0px;" width="87" height="53" x="0" y="0"/><g class="scrollbox" transform="" clip-path="url(#legendb560ce)"><g class="groups"><g class="traces" transform="translate(0,15.6)" style="opacity: 1;"><text class="legendtext" text-anchor="start" x="40" y="5.46" style="font-family: 'Open Sans', verdana, arial, sans-serif; font-size: 14px; fill: rgb(0, 0, 0); fill-opacity: 1; white-space: pre;">Data</text><g class="layers" style="opacity: 1;"><g class="legendfill"/><g class="legendlines"><path class="js-line" d="M5,0h30" style="fill: none; stroke: rgb(128, 128, 128); stroke-opacity: 1; stroke-width: 2px;"/></g><g class="legendsymbols"><g class="legendpoints"/></g></g><rect class="legendtoggle" x="0" y="-10.6" width="81.078125" height="21.2" style="fill: rgb(0, 0, 0); fill-opacity: 0;"/></g><g class="traces" transform="translate(0,36.8)" style="opacity: 1;"><text class="legendtext" text-anchor="start" x="40" y="5.46" style="font-family: 'Open Sans', verdana, arial, sans-serif; font-size: 14px; fill: rgb(0, 0, 0); fill-opacity: 1; white-space: pre;">Model</text><g class="layers" style="opacity: 1;"><g class="legendfill"/><g class="legendlines"><path class="js-line" d="M5,0h30" style="fill: none; stroke: rgb(128, 0, 128); stroke-opacity: 1; stroke-width: 2px;"/></g><g class="legendsymbols"><g class="legendpoints"/></g></g><rect class="legendtoggle" x="0" y="-10.6" width="81.078125" height="21.2" style="fill: rgb(0, 0, 0); fill-opacity: 0;"/></g></g></g><rect class="scrollbar" rx="20" ry="3" width="0" height="0" style="fill: rgb(128, 139, 164); fill-opacity: 1;" x="0" y="0"/></g><g class="g-gtitle"><text class="gtitle" x="30" y="15" text-anchor="start" dy="0em" style="opacity: 1; font-family: 'Open Sans', verdana, arial, sans-serif; font-size: 14px; fill: rgb(0, 0, 0); fill-opacity: 1; white-space: pre;">Oa on Succinate 15 mM — μ: 0.85 1/h   K: 0.01 mM</text></g><g class="g-xtitle" transform="translate(0,5.449999999999989)"><text class="xtitle" x="272.5" y="387.8498046875" text-anchor="middle" style="opacity: 1; font-family: 'Open Sans', verdana, arial, sans-serif; font-size: 14px; fill: rgb(0, 0, 0); fill-opacity: 1; white-space: pre;">Time (hours)</text></g><g class="g-ytitle"><text class="ytitle" transform="rotate(-90,17.3001953125,193.5)" x="17.3001953125" y="193.5" text-anchor="middle" style="opacity: 1; font-family: 'Open Sans', verdana, arial, sans-serif; font-size: 14px; fill: rgb(0, 0, 0); fill-opacity: 1; white-space: pre;">OD600</text></g></g></svg>