<svg class="main-svg" xmlns="http://www.w3.org/2000/svg" xmlns:xlink="http://www.w3.org/1999/xlink" width="600" height="400" style="" viewBox="0 0 600 400"><rect x="0" y="0" width="600" height="400" style="fill: rgb(255, 255, 255); fill-opacity: 1;"/><defs id="defs-5dcc1e"><g class="clips"><clipPath id="clip5dcc1exyplot" class="plotclip"><rect width="439" height="327"/></clipPath><clipPath class="axesclip" id="clip5dcc1ex"><rect x="53" y="0" width="439" height="400"/></clipPath><clipPath class="axesclip" id="clip5dcc1ey"><rect x="0" y="30" width="600" height="327"/></clipPath><clipPath class="axesclip" id="clip5dcc1exy"><rect x="53" y="30" width="439" height="327"/></clipPath></g><g class="gradients"/><g class="patterns"/></defs><g class="bglayer"/><g class="layer-below"><g class="imagelayer"/><g class="shapelayer"/></g><g class="cartesianlayer"><g class="subplot xy"><g class="layer-subplot"><g class="shapelayer"/><g class="imagelayer"/></g><g class="minor-gridlayer"><g class="x"/><g class="y"/></g><g class="gridlayer"><g class="x"><path class="xgrid crisp" transform="translate(126.78,0)" d="M0,30v327" style="stroke: rgb(128, 128, 128); stroke-opacity: 1; stroke-width: 0.2px;"/><path class="xgrid crisp" transform="translate(200.56,0)" d="M0,30v327" style="stroke: rgb(128, 128, 128); stroke-opacity: 1; stroke-width: 0.2px;"/><path class="xgrid crisp" transform="translate(274.34000000000003,0)" d="M0,30v327" style="stroke: rgb(128, 128, 128); stroke-opacity: 1; stroke-width: 0.2px;"/><path class="xgrid crisp" transform="translate(348.13,0)" d="M0,30v327" style="stroke: rgb(128, 128, 128); stroke-opacity: 1; stroke-width: 0.2px;"/><path class="xgrid crisp" transform="translate(421.91,0)" d="M0,30v327" style="stroke: rgb(128, 128, 128); stroke-opacity: 1; stroke-width: 0.2px;"/></g><g class="y"><path class="ygrid crisp" transform="translate(0,352.15)" d="M53,0h439" style="stroke: rgb(128, 128, 128); stroke-opacity: 1; stroke-width: 0.2px;"/><path class="ygrid crisp" transform="translate(0,310.58)" d="M53,0h439" style="stroke: rgb(128, 128, 128); stroke-opacity: 1; stroke-width: 0.2px;"/><path class="ygrid crisp" transform="translate(0,269.01)" d="M53,0h439" style="stroke: rgb(128, 128, 128); stroke-opacity: 1; stroke-width: 0.2px;"/><path class="ygrid crisp" transform="translate(0,227.45)" d="M53,0h439" style="stroke: rgb(128, 128, 128); stroke-opacity: 1; stroke-width: 0.2px;"/><path class="ygrid crisp" transform="translate(0,185.88)" d="M53,0h439" style="stroke: rgb(128, 128, 128); stroke-opacity: 1; stroke-width: 0.2px;"/><path class="ygrid crisp" transform="translate(0,144.31)" d="M53,0h439" style="stroke: rgb(128, 128, 128); stroke-opacity: 1; stroke-width: 0.2px;"/><path class="ygrid crisp" transform="translate(0,102.74)" d="M53,0h439" style="stroke: rgb(128, 128, 128); stroke-opacity: 1; stroke-width: 0.2px;"/><path class="ygrid crisp" transform="translate(0,61.18)" d="M53,0h439" style="stroke: rgb(128, 128, 128); stroke-opacity: 1; stroke-width: 0.2px;"/></g></g><g class="zerolinelayer"/><g class="layer-between"><g class="shapelayer"/><g class="imagelayer"/></g><path class="xlines-below"/><path class="ylines-below"/><g class="overlines-below"/><g class="xaxislayer-below"/><g class="yaxislayer-below"/><g class="overaxes-below"/><g class="overplot"><g class="xy" transform="translate(53,30)" clip-path="url(#clip5dcc1exyplot)"><g class="scatterlayer mlayer"><g class="trace scatter trace33e50d" style="stroke-miterlimit: 2; opacity: 1;"><g class="fills"/><g class="errorbars"/><g class="lines"><path class="js-line" d="M0,301.92L7.79,300.4L11.08,301.64L19.8,304.83L22.16,303.17L25.82,302.47L29.63,304.83L36.9,304L40.58,304.28L44.38,303.03L49.33,300.54L51.66,302.06L58.17,303.72L61.35,305.11L65.25,303.86L66.83,305.8L70.1,306.35L78.82,306.49L81.18,305.11L88.66,306.77L93.58,305.38L95.94,305.66L99.61,303.17L103.44,305.66L108.35,303.03L110.71,305.94L114.39,304.55L125.45,306.08L129.12,305.52L132.93,306.63L137.84,305.38L140.19,305.38L143.88,306.49L147.67,303.03L152.6,304.69L154.98,305.52L158.65,301.37L162.45,304.28L167.36,302.61L169.72,304.14L173.39,302.61L182.12,299.84L184.48,302.2L199.23,301.09L202.9,302.2L221.46,298.18L226.38,299.7L228.74,298.04L232.42,298.04L236.22,293.05L241.14,293.47L243.5,294.16L247.2,293.19L251,290.28L255.89,290.42L258.24,290.56L261.96,289.45L273.03,286.68L276.71,288.34L280.49,286.96L285.44,287.51L287.75,288.2L291.47,286.68L295.25,288.9L300.21,288.48L302.51,290.56L306.23,289.17L314.92,290.28L317.27,288.76L320.95,287.23L324.79,287.79L332.04,288.62L335.71,287.51L339.54,288.34L344.44,288.06L346.79,287.09L350.46,286.54L354.28,287.37L359.22,286.26L361.54,288.06L365.23,285.99L369.03,286.4L373.95,289.17L376.3,290.28L379.98,286.12L383.79,286.96L390.77,285.99L392.36,286.96L395.53,285.29L399.4,287.09L404,253.42L408.52,67.2L412.17,45.45L415.38,259.8L418.55,256.33L420.59,248.02L424.24,265.76L428.08,260.77L432.97,268.25L435.31,271.02L439,267.7" style="vector-effect: none; fill: none; stroke: rgb(128, 128, 128); stroke-opacity: 1; stroke-width: 2px; opacity: 1;"/></g><g class="points"/><g class="text"/></g><g class="trace scatter trace56d0b4" style="stroke-miterlimit: 2; opacity: 1;"><g class="fills"/><g class="errorbars"/><g class="lines"><path class="js-line" d="M0,304L5.04,305.38L7.79,302.06L11.08,301.64L14.88,302.61L19.8,301.51L22.16,304L25.82,304.55L29.63,304L34.55,303.44L36.9,300.67L44.38,303.86L49.33,303.86L51.66,304.55L58.17,307.88L61.35,308.85L65.25,308.02L70.1,309.68L73.9,306.77L78.82,309.4L81.18,308.02L84.88,307.32L88.66,308.43L93.58,307.05L95.94,308.16L99.61,309.4L103.44,306.49L108.35,309.26L110.71,306.35L114.39,308.29L118.18,304.83L123.08,307.05L125.45,306.08L132.93,308.71L137.84,306.63L140.19,307.46L143.88,310.65L147.67,306.77L152.6,308.43L154.98,308.85L158.65,307.19L167.36,308.02L169.72,307.46L182.12,305.66L184.48,305.52L188.18,304L191.96,304.28L199.23,302.75L202.9,304.69L214,303.44L217.66,302.06L221.46,301.09L226.38,300.95L228.74,300.95L232.42,301.78L241.14,298.04L243.5,297.9L255.89,294.99L258.24,295.13L261.96,293.61L265.74,292.91L270.68,290.42L273.03,292.5L276.71,291.67L280.49,289.87L285.44,290L287.75,291.53L291.47,290L295.25,290.97L300.21,290.56L302.51,292.64L310.01,290.97L314.92,291.53L317.27,291.25L320.95,289.73L324.79,291.11L329.69,291.53L332.04,290.7L335.71,290.42L339.54,291.67L344.44,290.56L350.46,289.03L354.28,291.11L359.22,290.42L361.54,291.39L365.23,289.31L369.03,290.56L373.95,292.08L376.3,294.44L379.98,289.45L383.79,290.7L392.36,291.11L395.53,289.03L399.4,292.08L404,251.76L408.52,75.93L412.17,20.09L415.38,264.37L418.55,267.14L420.59,258.41L424.24,274.07L428.08,269.08L432.97,280.31L435.31,283.08L439,276.01" style="vector-effect: none; fill: none; stroke: rgb(128, 128, 128); stroke-opacity: 1; stroke-width: 2px; opacity: 1;"/></g><g class="points"/><g class="text"/></g><g class="trace scatter trace9cb62a" style="stroke-miterlimit: 2; opacity: 1;"><g class="fills"/><g class="errorbars"/><g class="lines"><path class="js-line" d="M0,300.26L5.04,302.06L7.79,299.98L14.88,301.37L19.8,303.58L25.82,302.06L29.63,304.41L36.9,304L40.58,305.11L51.66,302.47L58.17,302.89L61.35,302.61L65.25,304.28L66.83,303.72L70.1,303.86L78.82,303.58L81.18,304.69L84.88,302.34L88.66,303.44L103.44,303.17L108.35,303.86L114.39,301.23L118.18,303.58L125.45,305.25L129.12,303.86L132.93,308.71L137.84,303.31L140.19,305.38L143.88,302.34L147.67,304.69L152.6,299.29L154.98,300.95L158.65,301.78L162.45,303.03L167.36,302.61L169.72,302.47L173.39,303.03L177.2,299.57L182.12,300.26L184.48,300.95L188.18,298.18L191.96,299.29L196.87,297.76L202.9,301.78L206.74,300.4L211.64,302.34L214,298.46L217.66,301.23L221.46,300.26L226.38,300.95L228.74,299.7L232.42,300.54L236.22,297.63L243.5,297.49L247.2,296.93L258.24,294.3L261.96,293.19L270.68,292.91L273.03,290.84L276.71,293.75L280.49,291.11L287.75,291.53L291.47,290.84L295.25,290.14L300.21,292.22L302.51,293.05L306.23,291.67L314.92,291.11L317.27,291.67L320.95,289.73L324.79,290.28L332.04,290.7L335.71,290.42L339.54,290L344.44,290.56L346.79,288.76L350.46,288.2L354.28,289.03L359.22,288.34L361.54,289.73L365.23,287.23L369.03,290.14L373.95,290L376.3,294.02L379.98,288.62L383.79,289.87L390.77,288.48L392.36,289.45L395.53,286.96L399.4,289.59L404,261.74L408.52,63.46L412.17,16.35L415.38,276.84L418.55,274.62L420.59,265.9L424.24,282.8L428.08,275.73L432.97,286.96L435.31,285.16L439,280.58" style="vector-effect: none; fill: none; stroke: rgb(128, 128, 128); stroke-opacity: 1; stroke-width: 2px; opacity: 1;"/></g><g class="points"/><g class="text"/></g><g class="trace scatter traceb95ad7" style="stroke-miterlimit: 2; opacity: 1;"><g class="fills"/><g class="errorbars"/><g class="lines"><path class="js-line" d="M0,301.37L25.82,292.05L29.63,290.57L58.17,280.05L61.35,279.07L78.82,274.75L81.18,274.31L99.61,271.95L103.44,271.65L129.12,270.57L132.93,270.5L196.87,270.18L199.23,270.18L439,270.17" style="vector-effect: none; fill: none; stroke: rgb(128, 0, 128); stroke-opacity: 1; stroke-width: 2px; opacity: 1;"/></g><g class="points"/><g class="text"/></g></g></g></g><g class="zerolinelayer-above"/><path class="xlines-above crisp" d="M52.5,357.25H492.5M52.5,29.75H492.5" style="fill: none; stroke-width: 0.5px; stroke: rgb(0, 0, 0); stroke-opacity: 1;"/><path class="ylines-above crisp" d="M52.75,30V357M492.25,30V357" style="fill: none; stroke-width: 0.5px; stroke: rgb(0, 0, 0); stroke-opacity: 1;"/><g class="overlines-above"/><g class="xaxislayer-above"><path class="xtick ticks crisp" d="M0,357v-5" transform="translate(126.78,0)" style="stroke: rgb(0, 0, 0); stroke-opacity: 1; stroke-width: 0.5px;"/><path class="xtick ticks crisp" d="M0,357v-5" transform="translate(200.56,0)" style="stroke: rgb(0, 0, 0); stroke-opacity: 1; stroke-width: 0.5px;"/><path class="xtick ticks crisp" d="M0,357v-5" transform="translate(274.34000000000003,0)" style="stroke: rgb(0, 0, 0); stroke-opacity: 1; stroke-width: 0.5px;"/><path class="xtick ticks crisp" d="M0,357v-5" transform="translate(348.13,0)" style="stroke: rgb(0, 0, 0); stroke-opacity: 1; stroke-width: 0.5px;"/><path class="xtick ticks crisp" d="M0,357v-5" transform="translate(421.91,0)" style="stroke: rgb(0, 0, 0); stroke-opacity: 1; stroke-width: 0.5px;"/><g class="xtick"><text text-anchor="middle" x="0" y="374.3" transform="translate(53,0)" style="font-family: 'Open Sans', verdana, arial, sans-serif; font-size: 14px; fill: rgb(0, 0, 0); fill-opacity: 1; white-space: pre;">0</text></g><g class="xtick"><text text-anchor="middle" x="0" y="374.3" style="font-family: 'Open Sans', verdana, arial, sans-serif; font-size: 14px; fill: rgb(0, 0, 0); fill-opacity: 1; white-space: pre;" transform="translate(126.78,0)">5</text></g><g class="xtick"><text text-anchor="middle" x="0" y="374.3" style="font-family: 'Open Sans', verdana, arial, sans-serif; font-size: 14px; fill: rgb(0, 0, 0); fill-opacity: 1; white-space: pre;" transform="translate(200.56,0)">10</text></g><g class="xtick"><text text-anchor="middle" x="0" y="374.3" style="font-family: 'Open Sans', verdana, arial, sans-serif; font-size: 14px; fill: rgb(0, 0, 0); fill-opacity: 1; white-space: pre;" transform="translate(274.34000000000003,0)">15</text></g><g class="xtick"><text text-anchor="middle" x="0" y="374.3" style="font-family: 'Open Sans', verdana, arial, sans-serif; font-size: 14px; fill: rgb(0, 0, 0); fill-opacity: 1; white-space: pre;" transform="translate(348.13,0)">20</text></g><g class="xtick"><text text-anchor="middle" x="0" y="374.3" style="font-family: 'Open Sans', verdana, arial, sans-serif; font-size: 14px; fill: rgb(0, 0, 0); fill-opacity: 1; white-space: pre;" transform="translate(421.91,0)">25</text></g></g><g class="yaxislayer-above"><path class="ytick ticks crisp" d="M53,0h5" transform="translate(0,352.15)" style="stroke: rgb(0, 0, 0); stroke-opacity: 1; stroke-width: 0.5px;"/><path class="ytick ticks crisp" d="M53,0h5" transform="translate(0,310.58)" style="stroke: rgb(0, 0, 0); stroke-opacity: 1; stroke-width: 0.5px;"/><path class="ytick ticks crisp" d="M53,0h5" transform="translate(0,269.01)" style="stroke: rgb(0, 0, 0); stroke-opacity: 1; stroke-width: 0.5px;"/><path class="ytick ticks crisp" d="M53,0h5" transform="translate(0,227.45)" style="stroke: rgb(0, 0, 0); stroke-opacity: 1; stroke-width: 0.5px;"/><path class="ytick ticks crisp" d="M53,0h5" transform="translate(0,185.88)" style="stroke: rgb(0, 0, 0); stroke-opacity: 1; stroke-width: 0.5px;"/><path class="ytick ticks crisp" d="M53,0h5" transform="translate(0,144.31)" style="stroke: rgb(0, 0, 0); stroke-opacity: 1; stroke-width: 0.5px;"/><path class="ytick ticks crisp" d="M53,0h5" transform="translate(0,102.74)" style="stroke: rgb(0, 0, 0); stroke-opacity: 1; stroke-width: 0.5px;"/><path class="ytick ticks crisp" d="M53,0h5" transform="translate(0,61.18)" style="stroke: rgb(0, 0, 0); stroke-opacity: 1; stroke-width: 0.5px;"/><g class="ytick"><text text-anchor="end" x="49.7" y="4.8999999999999995" transform="translate(0,352.15)" style="font-family: 'Open Sans', verdana, arial, sans-serif; font-size: 14px; fill: rgb(0, 0, 0); fill-opacity: 1; white-space: pre;">0</text></g><g class="ytick"><text text-anchor="end" x="49.7" y="4.8999999999999995" style="font-family: 'Open Sans', verdana, arial, sans-serif; font-size: 14px; fill: rgb(0, 0, 0); fill-opacity: 1; white-space: pre;" transform="translate(0,310.58)">0.01</text></g><g class="ytick"><text text-anchor="end" x="49.7" y="4.8999999999999995" style="font-family: 'Open Sans', verdana, arial, sans-serif; font-size: 14px; fill: rgb(0, 0, 0); fill-opacity: 1; white-space: pre;" transform="translate(0,269.01)">0.02</text></g><g class="ytick"><text text-anchor="end" x="49.7" y="4.8999999999999995" style="font-family: 'Open Sans', verdana, arial, sans-serif; font-size: 14px; fill: rgb(0, 0, 0); fill-opacity: 1; white-space: pre;" transform="translate(0,227.45)">0.03</text></g><g class="ytick"><text text-anchor="end" x="49.7" y="4.8999999999999995" style="font-family: 'Open Sans', verdana, arial, sans-serif; font-size: 14px; fill: rgb(0, 0, 0); fill-opacity: 1; white-space: pre;" transform="translate(0,185.88)">0.04</text></g><g class="ytick"><text text-anchor="end" x="49.7" y="4.8999999999999995" style="font-family: 'Open Sans', verdana, arial, sans-serif; font-size: 14px; fill: rgb(0, 0, 0); fill-opacity: 1; white-space: pre;" transform="translate(0,144.31)">0.05</text></g><g class="ytick"><text text-anchor="end" x="49.7" y="4.8999999999999995" style="font-family: 'Open Sans', verdana, arial, sans-serif; font-size: 14px; fill: rgb(0, 0, 0); fill-opacity: 1; white-space: pre;" transform="translate(0,102.74)">0.06</text></g><g class="ytick"><text text-anchor="end" x="49.7" y="4.8999999999999995" style="font-family: 'Open Sans', verdana, arial, sans-serif; font-size: 14px; fill: rgb(0, 0, 0); fill-opacity: 1; white-space: pre;" transform="translate(0,61.18)">0.07</text></g></g><g class="overaxes-above"/></g></g><g class="polarlayer"/><g class="smithlayer"/><g class="ternarylayer"/><g class="geolayer"/><g class="funnelarealayer"/><g class="pielayer"/><g class="iciclelayer"/><g class="treemaplayer"/><g class="sunburstlayer"/><g class="glimages"/><defs id="topdefs-5dcc1e"><g class="clips"/><clipPath id="legend5dcc1e"><rect width="87" height="53" x="0" y="0"/></clipPath></defs><g class="layer-above"><g class="imagelayer"/><g class="shapelayer"/></g><g class="infolayer"><g class="legend" pointer-events="all" transform="translate(500.78000000000003,30)"><rect class="bg" shape-rendering="crispEdges" style="stroke: rgb(68, 68, 68); stroke-opacity: 1; fill: rgb(255, 255, 255); fill-opacity: 1; stroke-width: 0px;" width="87" height="53" x="0" y="0"/><g class="scrollbox" transform="" clip-path="url(#legend5dcc1e)"><g class="groups"><g class="traces" transform="translate(0,15.6)" style="opacity: 1;"><text class="legendtext" text-anchor="start" x="40" y="5.46" style="font-family: 'Open Sans', verdana, arial, sans-serif; font-size: 14px; fill: rgb(0, 0, 0); fill-opacity: 1; white-space: pre;">Data</text><g class="layers" style="opacity: 1;"><g class="legendfill"/><g class="legendlines"><path class="js-line" d="M5,0h30" style="fill: none; stroke: rgb(128, 128, 128); stroke-opacity: 1; stroke-width: 2px;"/></g><g class="legendsymbols"><g class="legendpoints"/></g></g><rect class="legendtoggle" x="0" y="-10.6" width="81.078125" height="21.2" style="fill: rgb(0, 0, 0); fill-opacity: 0;"/></g><g class="traces" transform="translate(0,36.8)" style="opacity: 1;"><text class="legendtext" text-anchor="start" x="40" y="5.46" style="font-family: 'Open Sans', verdana, arial, sans-serif; font-size: 14px; fill: rgb(0, 0, 0); fill-opacity: 1; white-space: pre;">Model</text><g class="layers" style="opacity: 1;"><g class="legendfill"/><g class="legendlines"><path class="js-line" d="M5,0h30" style="fill: none; stroke: rgb(128, 0, 128); stroke-opacity: 1; stroke-width: 2px;"/></g><g class="legendsymbols"><g class="legendpoints"/></g></g><rect class="legendtoggle" x="0" y="-10.6" width="81.078125" height="21.2" style="fill: rgb(0, 0, 0); fill-opacity: 0;"/></g></g></g><rect class="scrollbar" rx="20" ry="3" width="0" height="0" style="fill: rgb(128, 139, 164); fill-opacity: 1;" x="0" y="0"/></g><g class="g-gtitle"><text class="gtitle" x="30" y="15" text-anchor="start" dy="0em" style="opacity: 1; font-family: 'Open Sans', verdana, arial, sans-serif; font-size: 14px; fill: rgb(0, 0, 0); fill-opacity: 1; white-space: pre;">Oa on Glucose 2.5 mM — μ: 0.45 1/h   K: 0.4 mM</text></g><g class="g-xtitle" transform="translate(0,5.449999999999989)"><text class="xtitle" x="272.5" y="387.8498046875" text-anchor="middle" style="opacity: 1; font-family: 'Open Sans', verdana, arial, sans-serif; font-size: 14px; fill: rgb(0, 0, 0); fill-opacity: 1; white-space: pre;">Time (hours)</text></g><g class="g-ytitle"><text class="ytitle" transform="rotate(-90,17.3001953125,193.5)" x="17.3001953125" y="193.5" text-anchor="middle" style="opacity: 1; font-family: 'Open Sans', verdana, arial, sans-serif; font-size: 14px; fill: rgb(0, 0, 0); fill-opacity: 1; white-space: pre;">OD600</text></g></g></svg>