<svg class="main-svg" xmlns="http://www.w3.org/2000/svg" xmlns:xlink="http://www.w3.org/1999/xlink" width="600" height="400" style="" viewBox="0 0 600 400"><rect x="0" y="0" width="600" height="400" style="fill: rgb(255, 255, 255); fill-opacity: 1;"/><defs id="defs-565100"><g class="clips"><clipPath id="clip565100xyplot" class="plotclip"><rect width="439" height="327"/></clipPath><clipPath class="axesclip" id="clip565100x"><rect x="53" y="0" width="439" height="400"/></clipPath><clipPath class="axesclip" id="clip565100y"><rect x="0" y="30" width="600" height="327"/></clipPath><clipPath class="axesclip" id="clip565100xy"><rect x="53" y="30" width="439" height="327"/></clipPath></g><g class="gradients"/><g class="patterns"/></defs><g class="bglayer"/><g class="layer-below"><g class="imagelayer"/><g class="shapelayer"/></g><g class="cartesianlayer"><g class="subplot xy"><g class="layer-subplot"><g class="shapelayer"/><g class="imagelayer"/></g><g class="minor-gridlayer"><g class="x"/><g class="y"/></g><g class="gridlayer"><g class="x"><path class="xgrid crisp" transform="translate(126.78,0)" d="M0,30v327" style="stroke: rgb(128, 128, 128); stroke-opacity: 1; stroke-width: 0.2px;"/><path class="xgrid crisp" transform="translate(200.56,0)" d="M0,30v327" style="stroke: rgb(128, 128, 128); stroke-opacity: 1; stroke-width: 0.2px;"/><path class="xgrid crisp" transform="translate(274.34000000000003,0)" d="M0,30v327" style="stroke: rgb(128, 128, 128); stroke-opacity: 1; stroke-width: 0.2px;"/><path class="xgrid crisp" transform="translate(348.13,0)" d="M0,30v327" style="stroke: rgb(128, 128, 128); stroke-opacity: 1; stroke-width: 0.2px;"/><path class="xgrid crisp" transform="translate(421.91,0)" d="M0,30v327" style="stroke: rgb(128, 128, 128); stroke-opacity: 1; stroke-width: 0.2px;"/></g><g class="y"><path class="ygrid crisp" transform="translate(0,348.34)" d="M53,0h439" style="stroke: rgb(128, 128, 128); stroke-opacity: 1; stroke-width: 0.2px;"/><path class="ygrid crisp" transform="translate(0,289.17)" d="M53,0h439" style="stroke: rgb(128, 128, 128); stroke-opacity: 1; stroke-width: 0.2px;"/><path class="ygrid crisp" transform="translate(0,229.99)" d="M53,0h439" style="stroke: rgb(128, 128, 128); stroke-opacity: 1; stroke-width: 0.2px;"/><path class="ygrid crisp" transform="translate(0,170.82)" d="M53,0h439" style="stroke: rgb(128, 128, 128); stroke-opacity: 1; stroke-width: 0.2px;"/><path class="ygrid crisp" transform="translate(0,111.64)" d="M53,0h439" style="stroke: rgb(128, 128, 128); stroke-opacity: 1; stroke-width: 0.2px;"/><path class="ygrid crisp" transform="translate(0,52.46)" d="M53,0h439" style="stroke: rgb(128, 128, 128); stroke-opacity: 1; stroke-width: 0.2px;"/></g></g><g class="zerolinelayer"/><g class="layer-between"><g class="shapelayer"/><g class="imagelayer"/></g><path class="xlines-below"/><path class="ylines-below"/><g class="overlines-below"/><g class="xaxislayer-below"/><g class="yaxislayer-below"/><g class="overaxes-below"/><g class="overplot"><g class="xy" transform="translate(53,30)" clip-path="url(#clip565100xyplot)"><g class="scatterlayer mlayer"><g class="trace scatter tracefad222" style="stroke-miterlimit: 2; opacity: 1;"><g class="fills"/><g class="errorbars"/><g class="lines"><path class="js-line" d="M0,298.32L5.04,300.2L7.79,300.2L19.8,302.17L22.16,300.98L25.82,301.38L29.63,300.69L36.9,301.58L40.58,302.37L44.38,301.18L49.33,302.37L51.66,301.97L58.17,303.15L61.35,303.55L65.25,302.07L70.1,303.25L73.9,302.66L81.18,302.96L84.88,302.17L88.66,302.96L93.58,302.56L95.94,302.17L99.61,303.35L103.44,302.76L108.35,302.96L118.18,302.46L123.08,301.97L125.45,301.87L129.12,304.44L132.93,304.04L137.84,301.97L143.88,304.24L147.67,303.25L152.6,302.37L154.98,304.14L158.65,302.96L162.45,303.55L167.36,302.66L169.72,303.45L173.39,301.77L177.2,302.56L184.48,302.96L188.18,301.58L191.96,302.96L196.87,300.1L199.23,300.69L202.9,300L211.64,300.69L214,299.7L217.66,299.6L221.46,298.62L228.74,299.41L232.42,300L236.22,297.63L241.14,297.63L247.2,296.55L251,294.48L255.89,294.87L258.24,296.45L261.96,294.48L265.74,293.39L270.68,291.62L273.03,292.21L276.71,293.98L280.49,290.63L287.75,289.45L291.47,288.36L295.25,287.28L300.21,287.28L302.51,288.76L306.23,285.99L314.92,282.34L317.27,282.74L329.69,271.1L332.04,269.03L335.71,264.69L339.54,264.99L346.79,262.32L350.46,260.15L354.28,260.45L359.22,259.36L361.54,260.05L365.23,258.58L373.95,259.96L376.3,259.27L379.98,257.19L383.79,258.08L399.4,258.18L404,240.13L408.52,111.72L412.17,63.69L415.38,100.28L418.55,120.01L420.59,108.76L424.24,192.1L428.08,246.84L432.97,255.12L435.31,222.77L439,252.66" style="vector-effect: none; fill: none; stroke: rgb(128, 128, 128); stroke-opacity: 1; stroke-width: 2px; opacity: 1;"/></g><g class="points"/><g class="text"/></g><g class="trace scatter trace18583a" style="stroke-miterlimit: 2; opacity: 1;"><g class="fills"/><g class="errorbars"/><g class="lines"><path class="js-line" d="M0,303.94L5.04,305.82L7.79,305.52L14.88,306.8L19.8,307.79L22.16,305.72L25.82,307.59L29.63,307.2L34.55,308.28L36.9,307.49L40.58,308.28L44.38,308.87L49.33,307.99L51.66,308.48L58.17,307.89L61.35,308.58L65.25,307.99L66.83,308.18L70.1,310.06L73.9,309.17L78.82,309.27L84.88,308.09L88.66,308.87L95.94,308.38L99.61,308.68L103.44,308.38L108.35,309.17L110.71,310.65L114.39,309.07L129.12,309.76L132.93,310.26L147.67,308.58L152.6,309.76L158.65,306.51L162.45,307.99L167.36,304.73L169.72,305.23L177.2,307.89L182.12,305.72L184.48,305.32L188.18,303.06L191.96,304.73L196.87,292.7L199.23,296.25L202.9,303.25L206.74,305.82L211.64,304.24L214,305.62L217.66,304.93L221.46,303.65L226.38,303.84L228.74,305.92L232.42,305.32L236.22,303.25L241.14,301.48L243.5,302.27L247.2,302.46L251,301.28L255.89,301.68L258.24,299.41L261.96,299.51L270.68,299.31L273.03,299.01L276.71,296.35L280.49,295.66L287.75,295.07L291.47,293.69L302.51,292.6L306.23,290.73L310.01,288.16L314.92,286.49L324.79,279.09L329.69,275.54L335.71,270.9L339.54,270.02L344.44,269.82L346.79,267.06L359.22,265.28L361.54,265.68L365.23,264.49L369.03,265.68L373.95,266.17L376.3,267.55L379.98,263.7L383.79,264.59L390.77,264.79L392.36,264L395.53,263.41L399.4,264.69L404,244.57L408.52,106.99L412.17,52.45L415.38,77.79L418.55,94.26L420.59,82.13L428.08,234.12L432.97,255.12L435.31,219.22L439,253.25" style="vector-effect: none; fill: none; stroke: rgb(128, 128, 128); stroke-opacity: 1; stroke-width: 2px; opacity: 1;"/></g><g class="points"/><g class="text"/></g><g class="trace scatter tracec23088" style="stroke-miterlimit: 2; opacity: 1;"><g class="fills"/><g class="errorbars"/><g class="lines"><path class="js-line" d="M0,300.69L5.04,302.56L7.79,302.56L14.88,303.84L19.8,305.13L22.16,303.94L25.82,304.04L29.63,303.94L34.55,304.73L36.9,304.24L40.58,305.32L44.38,305.03L49.33,302.66L51.66,303.75L58.17,304.04L65.25,305.62L66.83,304.93L70.1,306.21L73.9,305.62L84.88,305.72L88.66,305.32L99.61,305.13L103.44,303.94L110.71,305.32L114.39,305.23L123.08,304.93L125.45,304.83L132.93,306.7L137.84,303.15L140.19,301.97L143.88,304.83L147.67,304.14L152.6,305.62L154.98,306.8L158.65,305.62L169.72,307L173.39,305.03L177.2,305.82L182.12,305.72L188.18,306.31L191.96,305.62L196.87,304.54L199.23,305.13L202.9,305.03L206.74,304.04L214,305.03L217.66,304.34L221.46,303.35L226.38,303.55L232.42,304.73L236.22,302.37L247.2,301.87L251,300.1L258.24,300.29L261.96,299.51L270.68,296.94L273.03,297.53L276.71,296.65L280.49,294.77L285.44,293.69L287.75,294.77L291.47,293.09L295.25,292.31L302.51,291.12L306.23,289.25L310.01,287.28L314.92,285.6L317.27,283.63L320.95,279.29L324.79,277.02L329.69,271.69L332.04,269.92L335.71,265.87L339.54,265.58L344.44,263.9L354.28,261.04L359.22,260.25L361.54,261.24L365.23,260.05L376.3,260.75L379.98,258.38L383.79,258.97L390.77,257.39L392.36,258.97L395.53,258.08L399.4,259.36L404,228.89L408.52,79.47L412.17,16.35L415.38,41.7L418.55,51.66L420.59,38.05L424.24,105.71L428.08,180.56L432.97,246.54L435.31,204.73L439,242.01" style="vector-effect: none; fill: none; stroke: rgb(128, 128, 128); stroke-opacity: 1; stroke-width: 2px; opacity: 1;"/></g><g class="points"/><g class="text"/></g><g class="trace scatter trace9c3800" style="stroke-miterlimit: 2; opacity: 1;"><g class="fills"/><g class="errorbars"/><g class="lines"><path class="js-line" d="M0,306.51L196.87,305.79L199.23,305.73L236.22,304.18L241.14,303.81L261.96,301.49L265.74,300.9L280.49,297.85L285.44,296.52L295.25,293.28L300.21,291.3L310.01,286.68L314.92,284L332.04,273.32L335.71,270.97L346.79,264.7L350.46,263.05L361.54,259.63L365.23,258.95L379.98,257.63L383.79,257.49L432.97,257.22L435.31,257.22L439,257.22" style="vector-effect: none; fill: none; stroke: rgb(128, 0, 128); stroke-opacity: 1; stroke-width: 2px; opacity: 1;"/></g><g class="points"/><g class="text"/></g></g></g></g><g class="zerolinelayer-above"/><path class="xlines-above crisp" d="M52.5,357.25H492.5M52.5,29.75H492.5" style="fill: none; stroke-width: 0.5px; stroke: rgb(0, 0, 0); stroke-opacity: 1;"/><path class="ylines-above crisp" d="M52.75,30V357M492.25,30V357" style="fill: none; stroke-width: 0.5px; stroke: rgb(0, 0, 0); stroke-opacity: 1;"/><g class="overlines-above"/><g class="xaxislayer-above"><path class="xtick ticks crisp" d="M0,357v-5" transform="translate(126.78,0)" style="stroke: rgb(0, 0, 0); stroke-opacity: 1; stroke-width: 0.5px;"/><path class="xtick ticks crisp" d="M0,357v-5" transform="translate(200.56,0)" style="stroke: rgb(0, 0, 0); stroke-opacity: 1; stroke-width: 0.5px;"/><path class="xtick ticks crisp" d="M0,357v-5" transform="translate(274.34000000000003,0)" style="stroke: rgb(0, 0, 0); stroke-opacity: 1; stroke-width: 0.5px;"/><path class="xtick ticks crisp" d="M0,357v-5" transform="translate(348.13,0)" style="stroke: rgb(0, 0, 0); stroke-opacity: 1; stroke-width: 0.5px;"/><path class="xtick ticks crisp" d="M0,357v-5" transform="translate(421.91,0)" style="stroke: rgb(0, 0, 0); stroke-opacity: 1; stroke-width: 0.5px;"/><g class="xtick"><text text-anchor="middle" x="0" y="374.3" transform="translate(53,0)" style="font-family: 'Open Sans', verdana, arial, sans-serif; font-size: 14px; fill: rgb(0, 0, 0); fill-opacity: 1; white-space: pre;">0</text></g><g class="xtick"><text text-anchor="middle" x="0" y="374.3" style="font-family: 'Open Sans', verdana, arial, sans-serif; font-size: 14px; fill: rgb(0, 0, 0); fill-opacity: 1; white-space: pre;" transform="translate(126.78,0)">5</text></g><g class="xtick"><text text-anchor="middle" x="0" y="374.3" style="font-family: 'Open Sans', verdana, arial, sans-serif; font-size: 14px; fill: rgb(0, 0, 0); fill-opacity: 1; white-space: pre;" transform="translate(200.56,0)">10</text></g><g class="xtick"><text text-anchor="middle" x="0" y="374.3" style="font-family: 'Open Sans', verdana, arial, sans-serif; font-size: 14px; fill: rgb(0, 0, 0); fill-opacity: 1; white-space: pre;" transform="translate(274.34000000000003,0)">15</text></g><g class="xtick"><text text-anchor="middle" x="0" y="374.3" style="font-family: 'Open Sans', verdana, arial, sans-serif; font-size: 14px; fill: rgb(0, 0, 0); fill-opacity: 1; white-space: pre;" transform="translate(348.13,0)">20</text></g><g class="xtick"><text text-anchor="middle" x="0" y="374.3" style="font-family: 'Open Sans', verdana, arial, sans-serif; font-size: 14px; fill: rgb(0, 0, 0); fill-opacity: 1; white-space: pre;" transform="translate(421.91,0)">25</text></g></g><g class="yaxislayer-above"><path class="ytick ticks crisp" d="M53,0h5" transform="translate(0,348.34)" style="stroke: rgb(0, 0, 0); stroke-opacity: 1; stroke-width: 0.5px;"/><path class="ytick ticks crisp" d="M53,0h5" transform="translate(0,289.17)" style="stroke: rgb(0, 0, 0); stroke-opacity: 1; stroke-width: 0.5px;"/><path class="ytick ticks crisp" d="M53,0h5" transform="translate(0,229.99)" style="stroke: rgb(0, 0, 0); stroke-opacity: 1; stroke-width: 0.5px;"/><path class="ytick ticks crisp" d="M53,0h5" transform="translate(0,170.82)" style="stroke: rgb(0, 0, 0); stroke-opacity: 1; stroke-width: 0.5px;"/><path class="ytick ticks crisp" d="M53,0h5" transform="translate(0,111.64)" style="stroke: rgb(0, 0, 0); stroke-opacity: 1; stroke-width: 0.5px;"/><path class="ytick ticks crisp" d="M53,0h5" transform="translate(0,52.46)" style="stroke: rgb(0, 0, 0); stroke-opacity: 1; stroke-width: 0.5px;"/><g class="ytick"><text text-anchor="end" x="49.7" y="4.8999999999999995" transform="translate(0,348.34)" style="font-family: 'Open Sans', verdana, arial, sans-serif; font-size: 14px; fill: rgb(0, 0, 0); fill-opacity: 1; white-space: pre;">0</text></g><g class="ytick"><text text-anchor="end" x="49.7" y="4.8999999999999995" style="font-family: 'Open Sans', verdana, arial, sans-serif; font-size: 14px; fill: rgb(0, 0, 0); fill-opacity: 1; white-space: pre;" transform="translate(0,289.17)">0.02</text></g><g class="ytick"><text text-anchor="end" x="49.7" y="4.8999999999999995" style="font-family: 'Open Sans', verdana, arial, sans-serif; font-size: 14px; fill: rgb(0, 0, 0); fill-opacity: 1; white-space: pre;" transform="translate(0,229.99)">0.04</text></g><g class="ytick"><text text-anchor="end" x="49.7" y="4.8999999999999995" style="font-family: 'Open Sans', verdana, arial, sans-serif; font-size: 14px; fill: rgb(0, 0, 0); fill-opacity: 1; white-space: pre;" transform="translate(0,170.82)">0.06</text></g><g class="ytick"><text text-anchor="end" x="49.7" y="4.8999999999999995" style="font-family: 'Open Sans', verdana, arial, sans-serif; font-size: 14px; fill: rgb(0, 0, 0); fill-opacity: 1; white-space: pre;" transform="translate(0,111.64)">0.08</text></g><g class="ytick"><text text-anchor="end" x="49.7" y="4.8999999999999995" style="font-family: 'Open Sans', verdana, arial, sans-serif; font-size: 14px; fill: rgb(0, 0, 0); fill-opacity: 1; white-space: pre;" transform="translate(0,52.46)">0.1</text></g></g><g class="overaxes-above"/></g></g><g class="polarlayer"/><g class="smithlayer"/><g class="ternarylayer"/><g class="geolayer"/><g class="funnelarealayer"/><g class="pielayer"/><g class="iciclelayer"/><g class="treemaplayer"/><g class="sunburstlayer"/><g class="glimages"/><defs id="topdefs-565100"><g class="clips"/><clipPath id="legend565100"><rect width="87" height="53" x="0" y="0"/></clipPath></defs><g class="layer-above"><g class="imagelayer"/><g class="shapelayer"/></g><g class="infolayer"><g class="legend" pointer-events="all" transform="translate(500.78000000000003,30)"><rect class="bg" shape-rendering="crispEdges" style="stroke: rgb(68, 68, 68); stroke-opacity: 1; fill: rgb(255, 255, 255); fill-opacity: 1; stroke-width: 0px;" width="87" height="53" x="0" y="0"/><g class="scrollbox" transform="" clip-path="url(#legend565100)"><g class="groups"><g class="traces" transform="translate(0,15.6)" style="opacity: 1;"><text class="legendtext" text-anchor="start" x="40" y="5.46" style="font-family: 'Open Sans', verdana, arial, sans-serif; font-size: 14px; fill: rgb(0, 0, 0); fill-opacity: 1; white-space: pre;">Data</text><g class="layers" style="opacity: 1;"><g class="legendfill"/><g class="legendlines"><path class="js-line" d="M5,0h30" style="fill: none; stroke: rgb(128, 128, 128); stroke-opacity: 1; stroke-width: 2px;"/></g><g class="legendsymbols"><g class="legendpoints"/></g></g><rect class="legendtoggle" x="0" y="-10.6" width="81.078125" height="21.2" style="fill: rgb(0, 0, 0); fill-opacity: 0;"/></g><g class="traces" transform="translate(0,36.8)" style="opacity: 1;"><text class="legendtext" text-anchor="start" x="40" y="5.46" style="font-family: 'Open Sans', verdana, arial, sans-serif; font-size: 14px; fill: rgb(0, 0, 0); fill-opacity: 1; white-space: pre;">Model</text><g class="layers" style="opacity: 1;"><g class="legendfill"/><g class="legendlines"><path class="js-line" d="M5,0h30" style="fill: none; stroke: rgb(128, 0, 128); stroke-opacity: 1; stroke-width: 2px;"/></g><g class="legendsymbols"><g class="legendpoints"/></g></g><rect class="legendtoggle" x="0" y="-10.6" width="81.078125" height="21.2" style="fill: rgb(0, 0, 0); fill-opacity: 0;"/></g></g></g><rect class="scrollbar" rx="20" ry="3" width="0" height="0" style="fill: rgb(128, 139, 164); fill-opacity: 1;" x="0" y="0"/></g><g class="g-gtitle"><text class="gtitle" x="30" y="15" text-anchor="start" dy="0em" style="opacity: 1; font-family: 'Open Sans', verdana, arial, sans-serif; font-size: 14px; fill: rgb(0, 0, 0); fill-opacity: 1; white-space: pre;">Oa on Glucose 5 mM — μ: 0.8 1/h   K: 0.5 mM</text></g><g class="g-xtitle" transform="translate(0,5.449999999999989)"><text class="xtitle" x="272.5" y="387.8498046875" text-anchor="middle" style="opacity: 1; font-family: 'Open Sans', verdana, arial, sans-serif; font-size: 14px; fill: rgb(0, 0, 0); fill-opacity: 1; white-space: pre;">Time (hours)</text></g><g class="g-ytitle"><text class="ytitle" transform="rotate(-90,17.3001953125,193.5)" x="17.3001953125" y="193.5" text-anchor="middle" style="opacity: 1; font-family: 'Open Sans', verdana, arial, sans-serif; font-size: 14px; fill: rgb(0, 0, 0); fill-opacity: 1; white-space: pre;">OD600</text></g></g></svg>