<svg class="main-svg" xmlns="http://www.w3.org/2000/svg" xmlns:xlink="http://www.w3.org/1999/xlink" width="600" height="400" style="" viewBox="0 0 600 400"><rect x="0" y="0" width="600" height="400" style="fill: rgb(255, 255, 255); fill-opacity: 1;"/><defs id="defs-79f468"><g class="clips"><clipPath id="clip79f468xyplot" class="plotclip"><rect width="439" height="327"/></clipPath><clipPath class="axesclip" id="clip79f468x"><rect x="53" y="0" width="439" height="400"/></clipPath><clipPath class="axesclip" id="clip79f468y"><rect x="0" y="30" width="600" height="327"/></clipPath><clipPath class="axesclip" id="clip79f468xy"><rect x="53" y="30" width="439" height="327"/></clipPath></g><g class="gradients"/><g class="patterns"/></defs><g class="bglayer"/><g class="layer-below"><g class="imagelayer"/><g class="shapelayer"/></g><g class="cartesianlayer"><g class="subplot xy"><g class="layer-subplot"><g class="shapelayer"/><g class="imagelayer"/></g><g class="minor-gridlayer"><g class="x"/><g class="y"/></g><g class="gridlayer"><g class="x"><path class="xgrid crisp" transform="translate(126.78,0)" d="M0,30v327" style="stroke: rgb(128, 128, 128); stroke-opacity: 1; stroke-width: 0.2px;"/><path class="xgrid crisp" transform="translate(200.56,0)" d="M0,30v327" style="stroke: rgb(128, 128, 128); stroke-opacity: 1; stroke-width: 0.2px;"/><path class="xgrid crisp" transform="translate(274.34000000000003,0)" d="M0,30v327" style="stroke: rgb(128, 128, 128); stroke-opacity: 1; stroke-width: 0.2px;"/><path class="xgrid crisp" transform="translate(348.13,0)" d="M0,30v327" style="stroke: rgb(128, 128, 128); stroke-opacity: 1; stroke-width: 0.2px;"/><path class="xgrid crisp" transform="translate(421.91,0)" d="M0,30v327" style="stroke: rgb(128, 128, 128); stroke-opacity: 1; stroke-width: 0.2px;"/></g><g class="y"><path class="ygrid crisp" transform="translate(0,346.54)" d="M53,0h439" style="stroke: rgb(128, 128, 128); stroke-opacity: 1; stroke-width: 0.2px;"/><path class="ygrid crisp" transform="translate(0,300.63)" d="M53,0h439" style="stroke: rgb(128, 128, 128); stroke-opacity: 1; stroke-width: 0.2px;"/><path class="ygrid crisp" transform="translate(0,254.72)" d="M53,0h439" style="stroke: rgb(128, 128, 128); stroke-opacity: 1; stroke-width: 0.2px;"/><path class="ygrid crisp" transform="translate(0,208.8)" d="M53,0h439" style="stroke: rgb(128, 128, 128); stroke-opacity: 1; stroke-width: 0.2px;"/><path class="ygrid crisp" transform="translate(0,162.89)" d="M53,0h439" style="stroke: rgb(128, 128, 128); stroke-opacity: 1; stroke-width: 0.2px;"/><path class="ygrid crisp" transform="translate(0,116.98)" d="M53,0h439" style="stroke: rgb(128, 128, 128); stroke-opacity: 1; stroke-width: 0.2px;"/><path class="ygrid crisp" transform="translate(0,71.07)" d="M53,0h439" style="stroke: rgb(128, 128, 128); stroke-opacity: 1; stroke-width: 0.2px;"/></g></g><g class="zerolinelayer"/><g class="layer-between"><g class="shapelayer"/><g class="imagelayer"/></g><path class="xlines-below"/><path class="ylines-below"/><g class="overlines-below"/><g class="xaxislayer-below"/><g class="yaxislayer-below"/><g class="overaxes-below"/><g class="overplot"><g class="xy" transform="translate(53,30)" clip-path="url(#clip79f468xyplot)"><g class="scatterlayer mlayer"><g class="trace scatter tracece1f9c" style="stroke-miterlimit: 2; opacity: 1;"><g class="fills"/><g class="errorbars"/><g class="lines"><path class="js-line" d="M0,307.21L5.04,307.97L7.79,307.28L11.08,306.82L14.88,307.59L25.82,307.05L29.63,307.44L40.58,308.74L44.38,308.28L49.33,308.74L51.66,308.2L70.1,309.43L73.9,308.97L78.82,310.65L81.18,309.43L84.88,309.27L88.66,310.11L93.58,308.66L95.94,309.27L110.71,310.11L114.39,309.12L123.08,309.58L125.45,308.58L129.12,310.34L132.93,310.27L140.19,309.58L143.88,310.65L147.67,308.28L152.6,308.97L154.98,310.11L158.65,308.97L162.45,310.11L167.36,309.43L173.39,309.2L177.2,309.35L191.96,308.74L196.87,308.81L202.9,308.28L206.74,307.97L211.64,306.98L214,308.05L217.66,306.82L221.46,306.98L226.38,307.82L228.74,306.67L232.42,307.59L236.22,306.44L247.2,304.91L251,305.6L255.89,304.07L258.24,304.6L261.96,302.62L265.74,303.61L270.68,301.54L273.03,302L276.71,302.23L280.49,301.7L285.44,299.02L287.75,298.94L291.47,297.87L295.25,298.41L302.51,297.26L306.23,296.95L314.92,292.74L317.27,292.82L324.79,287L329.69,284.71L335.71,278.59L339.54,276.52L344.44,269.48L346.79,263.21L354.28,249.59L359.22,239.56L361.54,233.44L365.23,221.04L369.03,211.17L373.95,207.88L376.3,203.21L379.98,201.61L383.79,202.53L390.77,197.4L392.36,200.69L395.53,197.25L399.4,195.26L404,175.51L408.52,76.8L412.17,48.26L415.38,76.88L418.55,91.26L420.59,77.49L424.24,127.69L428.08,167.86L432.97,176.59L435.31,153.78L439,172.84" style="vector-effect: none; fill: none; stroke: rgb(128, 128, 128); stroke-opacity: 1; stroke-width: 2px; opacity: 1;"/></g><g class="points"/><g class="text"/></g><g class="trace scatter trace99930c" style="stroke-miterlimit: 2; opacity: 1;"><g class="fills"/><g class="errorbars"/><g class="lines"><path class="js-line" d="M0,304.68L19.8,307.21L22.16,306.98L25.82,306.82L29.63,307.67L51.66,308.2L58.17,307.28L61.35,308.28L65.25,307.82L66.83,307.51L70.1,308.74L73.9,308.28L78.82,308.81L88.66,308.97L93.58,307.97L95.94,308.12L99.61,307.44L103.44,308.12L108.35,307.59L114.39,308.2L118.18,306.98L123.08,309.58L125.45,308.35L132.93,310.04L137.84,307.97L140.19,309.12L143.88,309.04L147.67,308.97L152.6,308.05L154.98,308.74L158.65,307.82L162.45,308.74L167.36,308.51L188.18,307.67L191.96,308.74L199.23,307.9L202.9,307.82L211.64,306.75L214,307.82L221.46,306.29L226.38,306.44L228.74,307.59L232.42,308.05L236.22,306.21L241.14,305.75L243.5,304.99L247.2,305.37L251,305.37L255.89,304.3L261.96,303.07L265.74,303.15L276.71,300.86L280.49,300.55L287.75,298.02L291.47,298.33L300.21,296.8L302.51,296.11L306.23,295.8L310.01,292.9L317.27,290.75L320.95,288.54L324.79,286.09L329.69,281.95L332.04,280.35L335.71,276.29L339.54,273.31L344.44,265.58L354.28,245.22L359.22,231.76L361.54,225.86L365.23,212.78L369.03,208.19L373.95,207.42L376.3,202.98L379.98,199.54L383.79,201.15L390.77,196.71L392.36,200.69L395.53,196.33L399.4,195.03L404,178.04L408.52,70.6L412.17,33.11L415.38,55.99L418.55,66.93L420.59,53.39L424.24,109.32L432.97,178.42L435.31,154.93L439,176.05" style="vector-effect: none; fill: none; stroke: rgb(128, 128, 128); stroke-opacity: 1; stroke-width: 2px; opacity: 1;"/></g><g class="points"/><g class="text"/></g><g class="trace scatter trace8b22d5" style="stroke-miterlimit: 2; opacity: 1;"><g class="fills"/><g class="errorbars"/><g class="lines"><path class="js-line" d="M0,302.39L7.79,303.38L11.08,303.61L19.8,306.06L22.16,306.06L25.82,304.76L29.63,305.6L34.55,305.75L36.9,304.91L40.58,305.75L44.38,305.52L51.66,305.45L58.17,305.68L61.35,306.21L65.25,305.75L70.1,306.9L73.9,306.21L78.82,306.52L81.18,305.29L88.66,306.44L93.58,305.91L95.94,304.91L99.61,306.98L103.44,305.83L108.35,305.29L110.71,306.67L114.39,307.05L118.18,306.29L123.08,306.59L132.93,307.51L137.84,305.68L140.19,307.05L143.88,307.9L147.67,305.52L152.6,305.98L154.98,306.67L158.65,305.06L162.45,305.52L167.36,305.06L169.72,305.22L173.39,304.6L177.2,303.61L182.12,305.37L184.48,305.29L188.18,303.99L191.96,305.98L196.87,301.93L202.9,305.75L206.74,302.92L211.64,304.22L214,303.23L217.66,305.22L221.46,304.91L228.74,303.92L232.42,305.29L251,302.62L255.89,302.23L258.24,302.08L261.96,302.62L273.03,300.86L276.71,301.08L280.49,299.4L285.44,298.56L287.75,299.4L291.47,297.64L302.51,295.88L306.23,293.74L317.27,288.46L320.95,285.55L329.69,280.81L332.04,277.82L339.54,269.41L344.44,262.37L346.79,256.55L350.46,249.59L359.22,229L361.54,223.34L365.23,210.02L369.03,206.35L376.3,200.69L379.98,196.79L383.79,199.54L390.77,195.33L392.36,198.39L395.53,193.57L399.4,192.5L404,177.35L408.52,56.37L412.17,16.35L415.38,37.62L418.55,49.02L420.59,39.84L424.24,94.4L428.08,127.23L432.97,182.32L435.31,152.4L439,179.49" style="vector-effect: none; fill: none; stroke: rgb(128, 128, 128); stroke-opacity: 1; stroke-width: 2px; opacity: 1;"/></g><g class="points"/><g class="text"/></g><g class="trace scatter trace406d39" style="stroke-miterlimit: 2; opacity: 1;"><g class="fills"/><g class="errorbars"/><g class="lines"><path class="js-line" d="M0,300.47L167.36,299.74L169.72,299.7L214,298.08L217.66,297.84L243.5,295.31L247.2,294.78L265.74,291.1L270.68,289.75L280.49,286.38L285.44,284.27L295.25,279L300.21,275.66L306.23,270.85L310.01,267.33L317.27,259.29L320.95,254.49L329.69,240.84L332.04,236.61L350.46,200.72L354.28,195.97L361.54,192.17L365.23,191.69L383.79,191.43L390.77,191.43L439,191.43" style="vector-effect: none; fill: none; stroke: rgb(128, 0, 128); stroke-opacity: 1; stroke-width: 2px; opacity: 1;"/></g><g class="points"/><g class="text"/></g></g></g></g><g class="zerolinelayer-above"/><path class="xlines-above crisp" d="M52.5,357.25H492.5M52.5,29.75H492.5" style="fill: none; stroke-width: 0.5px; stroke: rgb(0, 0, 0); stroke-opacity: 1;"/><path class="ylines-above crisp" d="M52.75,30V357M492.25,30V357" style="fill: none; stroke-width: 0.5px; stroke: rgb(0, 0, 0); stroke-opacity: 1;"/><g class="overlines-above"/><g class="xaxislayer-above"><path class="xtick ticks crisp" d="M0,357v-5" transform="translate(126.78,0)" style="stroke: rgb(0, 0, 0); stroke-opacity: 1; stroke-width: 0.5px;"/><path class="xtick ticks crisp" d="M0,357v-5" transform="translate(200.56,0)" style="stroke: rgb(0, 0, 0); stroke-opacity: 1; stroke-width: 0.5px;"/><path class="xtick ticks crisp" d="M0,357v-5" transform="translate(274.34000000000003,0)" style="stroke: rgb(0, 0, 0); stroke-opacity: 1; stroke-width: 0.5px;"/><path class="xtick ticks crisp" d="M0,357v-5" transform="translate(348.13,0)" style="stroke: rgb(0, 0, 0); stroke-opacity: 1; stroke-width: 0.5px;"/><path class="xtick ticks crisp" d="M0,357v-5" transform="translate(421.91,0)" style="stroke: rgb(0, 0, 0); stroke-opacity: 1; stroke-width: 0.5px;"/><g class="xtick"><text text-anchor="middle" x="0" y="374.3" transform="translate(53,0)" style="font-family: 'Open Sans', verdana, arial, sans-serif; font-size: 14px; fill: rgb(0, 0, 0); fill-opacity: 1; white-space: pre;">0</text></g><g class="xtick"><text text-anchor="middle" x="0" y="374.3" style="font-family: 'Open Sans', verdana, arial, sans-serif; font-size: 14px; fill: rgb(0, 0, 0); fill-opacity: 1; white-space: pre;" transform="translate(126.78,0)">5</text></g><g class="xtick"><text text-anchor="middle" x="0" y="374.3" style="font-family: 'Open Sans', verdana, arial, sans-serif; font-size: 14px; fill: rgb(0, 0, 0); fill-opacity: 1; white-space: pre;" transform="translate(200.56,0)">10</text></g><g class="xtick"><text text-anchor="middle" x="0" y="374.3" style="font-family: 'Open Sans', verdana, arial, sans-serif; font-size: 14px; fill: rgb(0, 0, 0); fill-opacity: 1; white-space: pre;" transform="translate(274.34000000000003,0)">15</text></g><g class="xtick"><text text-anchor="middle" x="0" y="374.3" style="font-family: 'Open Sans', verdana, arial, sans-serif; font-size: 14px; fill: rgb(0, 0, 0); fill-opacity: 1; white-space: pre;" transform="translate(348.13,0)">20</text></g><g class="xtick"><text text-anchor="middle" x="0" y="374.3" style="font-family: 'Open Sans', verdana, arial, sans-serif; font-size: 14px; fill: rgb(0, 0, 0); fill-opacity: 1; white-space: pre;" transform="translate(421.91,0)">25</text></g></g><g class="yaxislayer-above"><path class="ytick ticks crisp" d="M53,0h5" transform="translate(0,346.54)" style="stroke: rgb(0, 0, 0); stroke-opacity: 1; stroke-width: 0.5px;"/><path class="ytick ticks crisp" d="M53,0h5" transform="translate(0,300.63)" style="stroke: rgb(0, 0, 0); stroke-opacity: 1; stroke-width: 0.5px;"/><path class="ytick ticks crisp" d="M53,0h5" transform="translate(0,254.72)" style="stroke: rgb(0, 0, 0); stroke-opacity: 1; stroke-width: 0.5px;"/><path class="ytick ticks crisp" d="M53,0h5" transform="translate(0,208.8)" style="stroke: rgb(0, 0, 0); stroke-opacity: 1; stroke-width: 0.5px;"/><path class="ytick ticks crisp" d="M53,0h5" transform="translate(0,162.89)" style="stroke: rgb(0, 0, 0); stroke-opacity: 1; stroke-width: 0.5px;"/><path class="ytick ticks crisp" d="M53,0h5" transform="translate(0,116.98)" style="stroke: rgb(0, 0, 0); stroke-opacity: 1; stroke-width: 0.5px;"/><path class="ytick ticks crisp" d="M53,0h5" transform="translate(0,71.07)" style="stroke: rgb(0, 0, 0); stroke-opacity: 1; stroke-width: 0.5px;"/><g class="ytick"><text text-anchor="end" x="49.7" y="4.8999999999999995" transform="translate(0,346.54)" style="font-family: 'Open Sans', verdana, arial, sans-serif; font-size: 14px; fill: rgb(0, 0, 0); fill-opacity: 1; white-space: pre;">0</text></g><g class="ytick"><text text-anchor="end" x="49.7" y="4.8999999999999995" style="font-family: 'Open Sans', verdana, arial, sans-serif; font-size: 14px; fill: rgb(0, 0, 0); fill-opacity: 1; white-space: pre;" transform="translate(0,300.63)">0.02</text></g><g class="ytick"><text text-anchor="end" x="49.7" y="4.8999999999999995" style="font-family: 'Open Sans', verdana, arial, sans-serif; font-size: 14px; fill: rgb(0, 0, 0); fill-opacity: 1; white-space: pre;" transform="translate(0,254.72)">0.04</text></g><g class="ytick"><text text-anchor="end" x="49.7" y="4.8999999999999995" style="font-family: 'Open Sans', verdana, arial, sans-serif; font-size: 14px; fill: rgb(0, 0, 0); fill-opacity: 1; white-space: pre;" transform="translate(0,208.8)">0.06</text></g><g class="ytick"><text text-anchor="end" x="49.7" y="4.8999999999999995" style="font-family: 'Open Sans', verdana, arial, sans-serif; font-size: 14px; fill: rgb(0, 0, 0); fill-opacity: 1; white-space: pre;" transform="translate(0,162.89)">0.08</text></g><g class="ytick"><text text-anchor="end" x="49.7" y="4.8999999999999995" style="font-family: 'Open Sans', verdana, arial, sans-serif; font-size: 14px; fill: rgb(0, 0, 0); fill-opacity: 1; white-space: pre;" transform="translate(0,116.98)">0.1</text></g><g class="ytick"><text text-anchor="end" x="49.7" y="4.8999999999999995" style="font-family: 'Open Sans', verdana, arial, sans-serif; font-size: 14px; fill: rgb(0, 0, 0); fill-opacity: 1; white-space: pre;" transform="translate(0,71.07)">0.12</text></g></g><g class="overaxes-above"/></g></g><g class="polarlayer"/><g class="smithlayer"/><g class="ternarylayer"/><g class="geolayer"/><g class="funnelarealayer"/><g class="pielayer"/><g class="iciclelayer"/><g class="treemaplayer"/><g class="sunburstlayer"/><g class="glimages"/><defs id="topdefs-79f468"><g class="clips"/><clipPath id="legend79f468"><rect width="87" height="53" x="0" y="0"/></clipPath></defs><g class="layer-above"><g class="imagelayer"/><g class="shapelayer"/></g><g class="infolayer"><g class="legend" pointer-events="all" transform="translate(500.78000000000003,30)"><rect class="bg" shape-rendering="crispEdges" style="stroke: rgb(68, 68, 68); stroke-opacity: 1; fill: rgb(255, 255, 255); fill-opacity: 1; stroke-width: 0px;" width="87" height="53" x="0" y="0"/><g class="scrollbox" transform="" clip-path="url(#legend79f468)"><g class="groups"><g class="traces" transform="translate(0,15.6)" style="opacity: 1;"><text class="legendtext" text-anchor="start" x="40" y="5.46" style="font-family: 'Open Sans', verdana, arial, sans-serif; font-size: 14px; fill: rgb(0, 0, 0); fill-opacity: 1; white-space: pre;">Data</text><g class="layers" style="opacity: 1;"><g class="legendfill"/><g class="legendlines"><path class="js-line" d="M5,0h30" style="fill: none; stroke: rgb(128, 128, 128); stroke-opacity: 1; stroke-width: 2px;"/></g><g class="legendsymbols"><g class="legendpoints"/></g></g><rect class="legendtoggle" x="0" y="-10.6" width="81.078125" height="21.2" style="fill: rgb(0, 0, 0); fill-opacity: 0;"/></g><g class="traces" transform="translate(0,36.8)" style="opacity: 1;"><text class="legendtext" text-anchor="start" x="40" y="5.46" style="font-family: 'Open Sans', verdana, arial, sans-serif; font-size: 14px; fill: rgb(0, 0, 0); fill-opacity: 1; white-space: pre;">Model</text><g class="layers" style="opacity: 1;"><g class="legendfill"/><g class="legendlines"><path class="js-line" d="M5,0h30" style="fill: none; stroke: rgb(128, 0, 128); stroke-opacity: 1; stroke-width: 2px;"/></g><g class="legendsymbols"><g class="legendpoints"/></g></g><rect class="legendtoggle" x="0" y="-10.6" width="81.078125" height="21.2" style="fill: rgb(0, 0, 0); fill-opacity: 0;"/></g></g></g><rect class="scrollbar" rx="20" ry="3" width="0" height="0" style="fill: rgb(128, 139, 164); fill-opacity: 1;" x="0" y="0"/></g><g class="g-gtitle"><text class="gtitle" x="30" y="15" text-anchor="start" dy="0em" style="opacity: 1; font-family: 'Open Sans', verdana, arial, sans-serif; font-size: 14px; fill: rgb(0, 0, 0); fill-opacity: 1; white-space: pre;">Oa on Glucose 7.5 mM — μ: 0.8 1/h   K: 0.2 mM</text></g><g class="g-xtitle" transform="translate(0,5.449999999999989)"><text class="xtitle" x="272.5" y="387.8498046875" text-anchor="middle" style="opacity: 1; font-family: 'Open Sans', verdana, arial, sans-serif; font-size: 14px; fill: rgb(0, 0, 0); fill-opacity: 1; white-space: pre;">Time (hours)</text></g><g class="g-ytitle"><text class="ytitle" transform="rotate(-90,17.3001953125,193.5)" x="17.3001953125" y="193.5" text-anchor="middle" style="opacity: 1; font-family: 'Open Sans', verdana, arial, sans-serif; font-size: 14px; fill: rgb(0, 0, 0); fill-opacity: 1; white-space: pre;">OD600</text></g></g></svg>