<svg class="main-svg" xmlns="http://www.w3.org/2000/svg" xmlns:xlink="http://www.w3.org/1999/xlink" width="600" height="400" style="" viewBox="0 0 600 400"><rect x="0" y="0" width="600" height="400" style="fill: rgb(255, 255, 255); fill-opacity: 1;"/><defs id="defs-2e2c8d"><g class="clips"><clipPath id="clip2e2c8dxyplot" class="plotclip"><rect width="439" height="327"/></clipPath><clipPath class="axesclip" id="clip2e2c8dx"><rect x="53" y="0" width="439" height="400"/></clipPath><clipPath class="axesclip" id="clip2e2c8dy"><rect x="0" y="30" width="600" height="327"/></clipPath><clipPath class="axesclip" id="clip2e2c8dxy"><rect x="53" y="30" width="439" height="327"/></clipPath></g><g class="gradients"/><g class="patterns"/></defs><g class="bglayer"/><g class="layer-below"><g class="imagelayer"/><g class="shapelayer"/></g><g class="cartesianlayer"><g class="subplot xy"><g class="layer-subplot"><g class="shapelayer"/><g class="imagelayer"/></g><g class="minor-gridlayer"><g class="x"/><g class="y"/></g><g class="gridlayer"><g class="x"><path class="xgrid crisp" transform="translate(126.78,0)" d="M0,30v327" style="stroke: rgb(128, 128, 128); stroke-opacity: 1; stroke-width: 0.2px;"/><path class="xgrid crisp" transform="translate(200.56,0)" d="M0,30v327" style="stroke: rgb(128, 128, 128); stroke-opacity: 1; stroke-width: 0.2px;"/><path class="xgrid crisp" transform="translate(274.35,0)" d="M0,30v327" style="stroke: rgb(128, 128, 128); stroke-opacity: 1; stroke-width: 0.2px;"/><path class="xgrid crisp" transform="translate(348.13,0)" d="M0,30v327" style="stroke: rgb(128, 128, 128); stroke-opacity: 1; stroke-width: 0.2px;"/><path class="xgrid crisp" transform="translate(421.91,0)" d="M0,30v327" style="stroke: rgb(128, 128, 128); stroke-opacity: 1; stroke-width: 0.2px;"/></g><g class="y"><path class="ygrid crisp" transform="translate(0,345.37)" d="M53,0h439" style="stroke: rgb(128, 128, 128); stroke-opacity: 1; stroke-width: 0.2px;"/><path class="ygrid crisp" transform="translate(0,282.77)" d="M53,0h439" style="stroke: rgb(128, 128, 128); stroke-opacity: 1; stroke-width: 0.2px;"/><path class="ygrid crisp" transform="translate(0,220.18)" d="M53,0h439" style="stroke: rgb(128, 128, 128); stroke-opacity: 1; stroke-width: 0.2px;"/><path class="ygrid crisp" transform="translate(0,157.59)" d="M53,0h439" style="stroke: rgb(128, 128, 128); stroke-opacity: 1; stroke-width: 0.2px;"/><path class="ygrid crisp" transform="translate(0,95)" d="M53,0h439" style="stroke: rgb(128, 128, 128); stroke-opacity: 1; stroke-width: 0.2px;"/><path class="ygrid crisp" transform="translate(0,32.41)" d="M53,0h439" style="stroke: rgb(128, 128, 128); stroke-opacity: 1; stroke-width: 0.2px;"/></g></g><g class="zerolinelayer"/><g class="layer-between"><g class="shapelayer"/><g class="imagelayer"/></g><path class="xlines-below"/><path class="ylines-below"/><g class="overlines-below"/><g class="xaxislayer-below"/><g class="yaxislayer-below"/><g class="overaxes-below"/><g class="overplot"><g class="xy" transform="translate(53,30)" clip-path="url(#clip2e2c8dxyplot)"><g class="scatterlayer mlayer"><g class="trace scatter trace4b42bd" style="stroke-miterlimit: 2; opacity: 1;"><g class="fills"/><g class="errorbars"/><g class="lines"><path class="js-line" d="M0,309.73L7.39,309.86L11.08,307.27L14.88,309.06L19.79,309.11L34.54,309.15L36.9,308.69L51.65,308.69L58.16,308.23L73.9,308.69L78.82,308.44L84.87,309.48L88.66,308.02L99.61,307.77L103.44,307.23L118.17,305.48L123.09,303.64L129.12,299.76L132.92,296.42L143.88,280.19L147.67,272.68L158.66,263.71L162.44,261.5L169.72,259.53L173.39,259.28L177.2,257.66L182.11,258.41L188.18,259.53L191.95,257.49L196.87,257.7L199.22,260.04L202.9,258.49L206.74,258.87L211.64,256.49L214,257.7L221.46,256.86L226.38,257.49L228.73,255.45L232.42,256.07L250.99,255.45L255.89,254.78L258.24,256.11L261.95,254.69L270.67,254.9L273.02,253.98L276.71,255.11L280.49,255.28L287.75,253.94L291.46,254.61L310,254.57L314.92,254.65L317.27,253.78L320.95,253.78L324.79,253.82L329.69,252.07L332.04,252.32L335.71,251.9L339.54,253.19L344.44,253.57L346.79,252.44L350.46,253.36L354.27,252.73L359.22,251.15L361.54,251.69L365.22,251.48L369.03,252.19L373.95,250.48L379.98,250.31L383.79,250.06L390.77,246.89L392.35,248.77L399.4,248.6L403.96,212.51L405.93,178.67L412.18,173.54L415.38,149.92L418.55,112.78L428.08,74.18L432.97,65L435.31,48.52L439,34.5" style="vector-effect: none; fill: none; stroke: rgb(128, 128, 128); stroke-opacity: 1; stroke-width: 2px; opacity: 1;"/></g><g class="points"/><g class="text"/></g><g class="trace scatter trace69f99c" style="stroke-miterlimit: 2; opacity: 1;"><g class="fills"/><g class="errorbars"/><g class="lines"><path class="js-line" d="M0,310.23L5.03,309.77L7.39,310.36L11.08,310.65L14.88,310.19L22.16,310.23L25.82,309.94L36.9,309.06L40.58,309.27L58.16,309.73L61.34,309.27L66.83,309.57L70.09,309.98L78.82,309.19L81.18,309.23L84.87,309.48L88.66,308.77L108.35,307.77L110.7,307.19L123.09,304.27L125.44,302.81L129.12,300.39L132.92,295.92L147.67,272.18L152.59,267.17L162.44,261.62L167.36,260.45L173.39,259.41L177.2,258.16L188.18,259.91L191.95,258.12L196.87,258.7L199.22,260.04L202.9,258.87L206.74,259.24L211.64,256.99L214,257.45L226.38,256.99L228.73,255.82L236.21,256.2L241.14,255.4L250.99,255.07L255.89,254.53L258.24,255.49L261.95,254.94L270.67,254.53L273.02,253.86L280.49,255.15L285.44,254.32L291.46,253.61L295.25,254.24L302.51,254.28L306.22,253.94L314.92,253.9L317.27,253.28L320.95,253.53L324.79,252.57L329.69,251.06L332.04,252.07L339.54,252.44L344.44,252.69L346.79,251.56L350.46,251.48L354.27,252.23L359.22,249.39L361.54,251.19L365.22,250.86L369.03,251.56L373.95,249.48L376.3,250.44L379.98,250.19L390.77,247.64L392.35,248.52L399.4,247.73L403.96,187.22L405.93,147.12L412.18,146.75L420.59,82.15L424.24,71.93L428.08,54.03L432.97,43.1L439,16.35" style="vector-effect: none; fill: none; stroke: rgb(128, 128, 128); stroke-opacity: 1; stroke-width: 2px; opacity: 1;"/></g><g class="points"/><g class="text"/></g><g class="trace scatter tracee9bcc2" style="stroke-miterlimit: 2; opacity: 1;"><g class="fills"/><g class="errorbars"/><g class="lines"><path class="js-line" d="M0,309.61L7.39,309.11L11.08,309.02L19.79,307.73L22.16,308.1L34.54,308.4L36.9,307.56L44.37,307.35L49.32,307.52L51.65,306.94L58.16,307.35L66.83,306.81L70.09,307.35L73.9,306.56L78.82,306.31L81.18,305.73L84.87,306.23L88.66,305.14L93.58,304.68L95.93,303.22L99.61,303.39L103.44,304.1L108.35,301.14L110.7,300.68L114.39,300.89L123.09,297.76L125.44,296.55L129.12,295L132.92,291.16L140.18,284.45L143.88,279.56L147.67,274.18L152.59,270.43L154.97,268.17L158.66,266.46L167.36,263.08L169.72,262.66L173.39,262.29L177.2,260.66L182.11,261.04L184.47,262.5L188.18,263.29L191.95,260.49L196.87,261.08L199.22,262.79L202.9,260.74L206.74,261.5L211.64,259.99L214,260.33L221.46,259.37L226.38,259.49L228.73,258.32L232.42,258.32L243.49,257.11L247.2,257.7L250.99,257.95L255.89,256.78L261.95,257.07L265.74,256.86L270.67,257.16L273.02,255.61L276.71,256.99L280.49,257.41L285.44,257.07L287.75,256.07L291.46,256.74L295.25,256.61L302.51,256.66L306.22,256.57L310,256.07L314.92,256.66L317.27,255.9L320.95,256.03L329.69,253.57L332.04,254.44L335.71,253.78L339.54,255.19L344.44,255.32L346.79,253.57L350.46,255.11L354.27,254.86L359.22,253.03L361.54,253.44L365.22,252.73L369.03,253.82L376.3,252.44L379.98,252.19L383.79,252.44L390.77,250.15L392.35,251.52L395.53,250.52L399.4,250.6L403.96,191.85L405.93,152.38L412.18,154.51L415.38,129.89L418.55,98.64L420.59,84.78L424.24,74.81L428.08,61.04L432.97,51.36L435.31,36.75L439,22.86" style="vector-effect: none; fill: none; stroke: rgb(128, 128, 128); stroke-opacity: 1; stroke-width: 2px; opacity: 1;"/></g><g class="points"/><g class="text"/></g><g class="trace scatter traceb86598" style="stroke-miterlimit: 2; opacity: 1;"><g class="fills"/><g class="errorbars"/><g class="lines"><path class="js-line" d="M0,306.6L118.17,306.54L123.09,303.63L129.12,298.96L132.92,295.36L143.88,282.58L147.67,277.86L154.97,269.83L158.66,266.75L162.44,264.35L167.36,262.28L173.39,260.88L177.2,260.4L196.87,259.71L199.22,259.7L344.44,259.66L346.79,259.66L439,259.66" style="vector-effect: none; fill: none; stroke: rgb(128, 0, 128); stroke-opacity: 1; stroke-width: 2px; opacity: 1;"/></g><g class="points"/><g class="text"/></g></g></g></g><g class="zerolinelayer-above"/><path class="xlines-above crisp" d="M52.5,357.25H492.5M52.5,29.75H492.5" style="fill: none; stroke-width: 0.5px; stroke: rgb(0, 0, 0); stroke-opacity: 1;"/><path class="ylines-above crisp" d="M52.75,30V357M492.25,30V357" style="fill: none; stroke-width: 0.5px; stroke: rgb(0, 0, 0); stroke-opacity: 1;"/><g class="overlines-above"/><g class="xaxislayer-above"><path class="xtick ticks crisp" d="M0,357v-5" transform="translate(126.78,0)" style="stroke: rgb(0, 0, 0); stroke-opacity: 1; stroke-width: 0.5px;"/><path class="xtick ticks crisp" d="M0,357v-5" transform="translate(200.56,0)" style="stroke: rgb(0, 0, 0); stroke-opacity: 1; stroke-width: 0.5px;"/><path class="xtick ticks crisp" d="M0,357v-5" transform="translate(274.35,0)" style="stroke: rgb(0, 0, 0); stroke-opacity: 1; stroke-width: 0.5px;"/><path class="xtick ticks crisp" d="M0,357v-5" transform="translate(348.13,0)" style="stroke: rgb(0, 0, 0); stroke-opacity: 1; stroke-width: 0.5px;"/><path class="xtick ticks crisp" d="M0,357v-5" transform="translate(421.91,0)" style="stroke: rgb(0, 0, 0); stroke-opacity: 1; stroke-width: 0.5px;"/><g class="xtick"><text text-anchor="middle" x="0" y="374.3" transform="translate(53,0)" style="font-family: 'Open Sans', verdana, arial, sans-serif; font-size: 14px; fill: rgb(0, 0, 0); fill-opacity: 1; white-space: pre;">0</text></g><g class="xtick"><text text-anchor="middle" x="0" y="374.3" style="font-family: 'Open Sans', verdana, arial, sans-serif; font-size: 14px; fill: rgb(0, 0, 0); fill-opacity: 1; white-space: pre;" transform="translate(126.78,0)">5</text></g><g class="xtick"><text text-anchor="middle" x="0" y="374.3" style="font-family: 'Open Sans', verdana, arial, sans-serif; font-size: 14px; fill: rgb(0, 0, 0); fill-opacity: 1; white-space: pre;" transform="translate(200.56,0)">10</text></g><g class="xtick"><text text-anchor="middle" x="0" y="374.3" style="font-family: 'Open Sans', verdana, arial, sans-serif; font-size: 14px; fill: rgb(0, 0, 0); fill-opacity: 1; white-space: pre;" transform="translate(274.35,0)">15</text></g><g class="xtick"><text text-anchor="middle" x="0" y="374.3" style="font-family: 'Open Sans', verdana, arial, sans-serif; font-size: 14px; fill: rgb(0, 0, 0); fill-opacity: 1; white-space: pre;" transform="translate(348.13,0)">20</text></g><g class="xtick"><text text-anchor="middle" x="0" y="374.3" style="font-family: 'Open Sans', verdana, arial, sans-serif; font-size: 14px; fill: rgb(0, 0, 0); fill-opacity: 1; white-space: pre;" transform="translate(421.91,0)">25</text></g></g><g class="yaxislayer-above"><path class="ytick ticks crisp" d="M53,0h5" transform="translate(0,345.37)" style="stroke: rgb(0, 0, 0); stroke-opacity: 1; stroke-width: 0.5px;"/><path class="ytick ticks crisp" d="M53,0h5" transform="translate(0,282.77)" style="stroke: rgb(0, 0, 0); stroke-opacity: 1; stroke-width: 0.5px;"/><path class="ytick ticks crisp" d="M53,0h5" transform="translate(0,220.18)" style="stroke: rgb(0, 0, 0); stroke-opacity: 1; stroke-width: 0.5px;"/><path class="ytick ticks crisp" d="M53,0h5" transform="translate(0,157.59)" style="stroke: rgb(0, 0, 0); stroke-opacity: 1; stroke-width: 0.5px;"/><path class="ytick ticks crisp" d="M53,0h5" transform="translate(0,95)" style="stroke: rgb(0, 0, 0); stroke-opacity: 1; stroke-width: 0.5px;"/><path class="ytick ticks crisp" d="M53,0h5" transform="translate(0,32.41)" style="stroke: rgb(0, 0, 0); stroke-opacity: 1; stroke-width: 0.5px;"/><g class="ytick"><text text-anchor="end" x="49.7" y="4.8999999999999995" transform="translate(0,345.37)" style="font-family: 'Open Sans', verdana, arial, sans-serif; font-size: 14px; fill: rgb(0, 0, 0); fill-opacity: 1; white-space: pre;">0</text></g><g class="ytick"><text text-anchor="end" x="49.7" y="4.8999999999999995" style="font-family: 'Open Sans', verdana, arial, sans-serif; font-size: 14px; fill: rgb(0, 0, 0); fill-opacity: 1; white-space: pre;" transform="translate(0,282.77)">0.05</text></g><g class="ytick"><text text-anchor="end" x="49.7" y="4.8999999999999995" style="font-family: 'Open Sans', verdana, arial, sans-serif; font-size: 14px; fill: rgb(0, 0, 0); fill-opacity: 1; white-space: pre;" transform="translate(0,220.18)">0.1</text></g><g class="ytick"><text text-anchor="end" x="49.7" y="4.8999999999999995" style="font-family: 'Open Sans', verdana, arial, sans-serif; font-size: 14px; fill: rgb(0, 0, 0); fill-opacity: 1; white-space: pre;" transform="translate(0,157.59)">0.15</text></g><g class="ytick"><text text-anchor="end" x="49.7" y="4.8999999999999995" style="font-family: 'Open Sans', verdana, arial, sans-serif; font-size: 14px; fill: rgb(0, 0, 0); fill-opacity: 1; white-space: pre;" transform="translate(0,95)">0.2</text></g><g class="ytick"><text text-anchor="end" x="49.7" y="4.8999999999999995" style="font-family: 'Open Sans', verdana, arial, sans-serif; font-size: 14px; fill: rgb(0, 0, 0); fill-opacity: 1; white-space: pre;" transform="translate(0,32.41)">0.25</text></g></g><g class="overaxes-above"/></g></g><g class="polarlayer"/><g class="smithlayer"/><g class="ternarylayer"/><g class="geolayer"/><g class="funnelarealayer"/><g class="pielayer"/><g class="iciclelayer"/><g class="treemaplayer"/><g class="sunburstlayer"/><g class="glimages"/><defs id="topdefs-2e2c8d"><g class="clips"/><clipPath id="legend2e2c8d"><rect width="87" height="53" x="0" y="0"/></clipPath></defs><g class="layer-above"><g class="imagelayer"/><g class="shapelayer"/></g><g class="infolayer"><g class="legend" pointer-events="all" transform="translate(500.78000000000003,30)"><rect class="bg" shape-rendering="crispEdges" style="stroke: rgb(68, 68, 68); stroke-opacity: 1; fill: rgb(255, 255, 255); fill-opacity: 1; stroke-width: 0px;" width="87" height="53" x="0" y="0"/><g class="scrollbox" transform="" clip-path="url(#legend2e2c8d)"><g class="groups"><g class="traces" transform="translate(0,15.6)" style="opacity: 1;"><text class="legendtext" text-anchor="start" x="40" y="5.46" style="font-family: 'Open Sans', verdana, arial, sans-serif; font-size: 14px; fill: rgb(0, 0, 0); fill-opacity: 1; white-space: pre;">Data</text><g class="layers" style="opacity: 1;"><g class="legendfill"/><g class="legendlines"><path class="js-line" d="M5,0h30" style="fill: none; stroke: rgb(128, 128, 128); stroke-opacity: 1; stroke-width: 2px;"/></g><g class="legendsymbols"><g class="legendpoints"/></g></g><rect class="legendtoggle" x="0" y="-10.6" width="81.078125" height="21.2" style="fill: rgb(0, 0, 0); fill-opacity: 0;"/></g><g class="traces" transform="translate(0,36.8)" style="opacity: 1;"><text class="legendtext" text-anchor="start" x="40" y="5.46" style="font-family: 'Open Sans', verdana, arial, sans-serif; font-size: 14px; fill: rgb(0, 0, 0); fill-opacity: 1; white-space: pre;">Model</text><g class="layers" style="opacity: 1;"><g class="legendfill"/><g class="legendlines"><path class="js-line" d="M5,0h30" style="fill: none; stroke: rgb(128, 0, 128); stroke-opacity: 1; stroke-width: 2px;"/></g><g class="legendsymbols"><g class="legendpoints"/></g></g><rect class="legendtoggle" x="0" y="-10.6" width="81.078125" height="21.2" style="fill: rgb(0, 0, 0); fill-opacity: 0;"/></g></g></g><rect class="scrollbar" rx="20" ry="3" width="0" height="0" style="fill: rgb(128, 139, 164); fill-opacity: 1;" x="0" y="0"/></g><g class="g-gtitle"><text class="gtitle" x="30" y="15" text-anchor="start" dy="0em" style="opacity: 1; font-family: 'Open Sans', verdana, arial, sans-serif; font-size: 14px; fill: rgb(0, 0, 0); fill-opacity: 1; white-space: pre;">Oa on Succinate 7.5 mM — μ: 1.8 1/h   K: 2 mM</text></g><g class="g-xtitle" transform="translate(0,5.449999999999989)"><text class="xtitle" x="272.5" y="387.8498046875" text-anchor="middle" style="opacity: 1; font-family: 'Open Sans', verdana, arial, sans-serif; font-size: 14px; fill: rgb(0, 0, 0); fill-opacity: 1; white-space: pre;">Time (hours)</text></g><g class="g-ytitle"><text class="ytitle" transform="rotate(-90,17.3001953125,193.5)" x="17.3001953125" y="193.5" text-anchor="middle" style="opacity: 1; font-family: 'Open Sans', verdana, arial, sans-serif; font-size: 14px; fill: rgb(0, 0, 0); fill-opacity: 1; white-space: pre;">OD600</text></g></g></svg>