<svg class="main-svg" xmlns="http://www.w3.org/2000/svg" xmlns:xlink="http://www.w3.org/1999/xlink" width="600" height="400" style="" viewBox="0 0 600 400"><rect x="0" y="0" width="600" height="400" style="fill: rgb(255, 255, 255); fill-opacity: 1;"/><defs id="defs-a36cb3"><g class="clips"><clipPath id="clipa36cb3xyplot" class="plotclip"><rect width="362" height="327"/></clipPath><clipPath class="axesclip" id="clipa36cb3x"><rect x="61" y="0" width="362" height="400"/></clipPath><clipPath class="axesclip" id="clipa36cb3y"><rect x="0" y="30" width="600" height="327"/></clipPath><clipPath class="axesclip" id="clipa36cb3xy"><rect x="61" y="30" width="362" height="327"/></clipPath></g><g class="gradients"/><g class="patterns"/></defs><g class="bglayer"/><g class="layer-below"><g class="imagelayer"/><g class="shapelayer"/></g><g class="cartesianlayer"><g class="subplot xy"><g class="layer-subplot"><g class="shapelayer"/><g class="imagelayer"/></g><g class="minor-gridlayer"><g class="x"/><g class="y"/></g><g class="gridlayer"><g class="x"><path class="xgrid crisp" transform="translate(128.53,0)" d="M0,30v327" style="stroke: rgb(128, 128, 128); stroke-opacity: 1; stroke-width: 0.2px;"/><path class="xgrid crisp" transform="translate(196.06,0)" d="M0,30v327" style="stroke: rgb(128, 128, 128); stroke-opacity: 1; stroke-width: 0.2px;"/><path class="xgrid crisp" transform="translate(263.58000000000004,0)" d="M0,30v327" style="stroke: rgb(128, 128, 128); stroke-opacity: 1; stroke-width: 0.2px;"/><path class="xgrid crisp" transform="translate(331.11,0)" d="M0,30v327" style="stroke: rgb(128, 128, 128); stroke-opacity: 1; stroke-width: 0.2px;"/><path class="xgrid crisp" transform="translate(398.64,0)" d="M0,30v327" style="stroke: rgb(128, 128, 128); stroke-opacity: 1; stroke-width: 0.2px;"/></g><g class="y"><path class="ygrid crisp" transform="translate(0,301.55)" d="M61,0h362" style="stroke: rgb(128, 128, 128); stroke-opacity: 1; stroke-width: 0.2px;"/><path class="ygrid crisp" transform="translate(0,220.11)" d="M61,0h362" style="stroke: rgb(128, 128, 128); stroke-opacity: 1; stroke-width: 0.2px;"/><path class="ygrid crisp" transform="translate(0,138.66)" d="M61,0h362" style="stroke: rgb(128, 128, 128); stroke-opacity: 1; stroke-width: 0.2px;"/><path class="ygrid crisp" transform="translate(0,57.21)" d="M61,0h362" style="stroke: rgb(128, 128, 128); stroke-opacity: 1; stroke-width: 0.2px;"/></g></g><g class="zerolinelayer"/><g class="layer-between"><g class="shapelayer"/><g class="imagelayer"/></g><path class="xlines-below"/><path class="ylines-below"/><g class="overlines-below"/><g class="xaxislayer-below"/><g class="yaxislayer-below"/><g class="overaxes-below"/><g class="overplot"><g class="xy" transform="translate(61,30)" clip-path="url(#clipa36cb3xyplot)"><g class="scatterlayer mlayer"><g class="trace scatter tracebda24c" style="stroke-miterlimit: 2; opacity: 1;"><g class="fills"/><g class="errorbars"/><g class="lines"><path class="js-line" d="M0,242.78L4.61,253.09L7.13,253.09L10.14,256.35L13.62,258.52L18.12,263.95L20.28,257.44L23.63,259.61L27.12,255.81L31.62,256.89L33.78,260.7L37.14,265.04L40.61,258.52L45.15,265.04L47.28,262.87L56.15,271.55L59.72,263.41L61.16,266.12L64.15,269.93L67.64,266.67L72.14,268.84L74.3,268.3L77.68,263.95L81.15,268.3L85.65,266.12L87.81,263.95L91.17,270.47L94.67,267.21L99.16,268.3L104.7,264.5L108.16,265.58L114.82,262.32L118.18,276.44L121.66,274.27L126.15,262.87L131.68,275.36L135.15,269.93L139.66,265.04L141.84,274.81L145.21,268.3L148.68,271.55L153.17,266.67L155.33,271.01L158.7,261.78L162.18,266.12L168.84,268.3L172.23,260.7L175.69,268.3L180.19,252.55L182.34,255.81L185.7,252.01L189.22,254.72L193.7,255.81L195.86,250.38L199.21,249.84L202.69,244.41L207.19,245.49L209.35,248.75L212.72,252.01L216.19,238.98L220.7,238.98L222.86,235.17L226.25,233L229.72,221.6L234.2,223.77L236.35,232.46L239.76,221.6L243.22,215.63L247.74,205.85L249.89,209.11L253.26,218.88L256.72,200.42L261.24,197.71L270.22,181.96L274.76,181.96L276.87,190.11L280.27,174.9L283.73,167.3L288.23,154.81L290.38,156.98L293.74,136.35L297.26,120.6L301.74,92.91L303.9,81.51L307.26,57.62L310.76,59.25L315.24,51.64L320.76,32.64L324.25,34.27L328.77,28.3L330.9,32.1L334.27,23.95L337.75,25.58L342.25,31.55L344.4,27.75L347.77,16.35L351.26,21.24L357.65,20.69L359.1,19.61L362,17.98" style="vector-effect: none; fill: none; stroke: rgb(128, 0, 128); stroke-opacity: 1; stroke-width: 2px; opacity: 1;"/></g><g class="points"/><g class="text"/></g><g class="trace scatter traced92b6c" style="stroke-miterlimit: 2; opacity: 1;"><g class="fills"/><g class="errorbars"/><g class="lines"><path class="js-line" d="M0,273.73L4.61,284.04L7.13,282.41L10.14,287.3L13.62,289.47L18.12,294.9L20.28,283.5L23.63,293.82L27.12,291.65L31.62,297.62L33.78,293.27L37.14,297.62L40.61,300.88L45.15,295.99L47.28,298.7L53.24,295.45L56.15,299.25L59.72,295.99L61.16,297.08L64.15,307.39L67.64,302.51L72.14,303.05L74.3,299.25L77.68,296.53L81.15,300.88L85.65,297.08L87.81,298.16L91.17,299.79L94.67,298.16L99.16,302.51L101.32,310.65L104.7,301.96L108.16,303.05L112.65,300.33L114.82,301.42L118.18,305.76L121.66,308.48L128.31,303.59L131.68,299.79L135.15,299.25L139.66,305.76L145.21,287.84L148.68,295.99L153.17,278.07L155.33,280.79L158.7,286.22L162.18,295.45L166.68,283.5L168.84,281.33L172.23,268.84L175.69,278.07L180.19,211.83L182.34,231.37L185.7,269.93L189.22,284.04L193.7,275.36L195.86,282.96L199.21,279.16L202.69,272.1L207.19,273.18L209.35,284.59L212.72,281.33L216.19,269.93L220.7,260.15L222.86,264.5L226.25,265.58L229.72,259.07L234.2,261.24L236.35,248.75L243.22,249.84L247.74,248.21L249.89,246.58L253.26,231.92L256.72,228.12L261.24,225.4L263.36,224.86L266.76,217.26L274.76,211.28L276.87,211.28L280.27,200.97L283.73,186.85L288.23,177.62L290.38,166.76L293.74,154.27L297.26,136.89L307.26,91.83L310.76,86.94L315.24,85.85L317.4,70.65L320.76,66.85L324.25,65.22L328.77,60.88L330.9,63.05L334.27,56.53L337.75,63.05L342.25,65.76L344.4,73.36L347.77,52.19L351.26,57.07L357.65,58.16L359.1,53.82L362,50.56" style="vector-effect: none; fill: none; stroke: rgb(128, 0, 128); stroke-opacity: 1; stroke-width: 2px; opacity: 1;"/></g><g class="points"/><g class="text"/></g><g class="trace scatter traceb805c2" style="stroke-miterlimit: 2; opacity: 1;"><g class="fills"/><g class="errorbars"/><g class="lines"><path class="js-line" d="M0,255.81L4.61,266.12L7.13,266.12L10.14,267.75L13.62,273.18L18.12,280.24L20.28,273.73L23.63,274.27L27.12,273.73L31.62,278.07L33.78,275.36L37.14,281.33L40.61,279.7L45.15,266.67L47.28,272.64L53.24,274.27L56.15,278.07L59.72,282.96L61.16,279.16L64.15,286.22L67.64,282.96L72.14,283.5L74.3,286.22L81.15,281.33L85.65,282.41L87.81,283.5L91.17,280.24L94.67,273.73L99.16,281.33L104.7,280.79L108.16,278.61L112.65,279.16L114.82,278.61L118.18,284.59L121.66,288.93L128.31,262.87L131.68,278.61L135.15,274.81L139.66,282.96L141.84,289.47L145.21,282.96L148.68,284.59L153.17,289.47L155.33,290.56L158.7,279.7L162.18,284.04L166.68,283.5L172.23,286.76L175.69,282.96L180.19,276.98L182.34,280.24L185.7,279.7L189.22,274.27L193.7,280.24L195.86,279.7L199.21,275.9L202.69,270.47L207.19,271.55L209.35,273.18L212.72,278.07L216.19,265.04L222.86,262.87L226.25,262.32L229.72,252.55L234.2,254.72L236.35,253.64L239.76,249.29L243.22,241.69L247.74,235.17L249.89,238.43L253.26,233.55L256.72,223.23L261.24,217.26L263.36,223.23L266.76,214L274.76,203.14L276.87,203.14L283.73,181.96L288.23,172.73L290.38,161.87L293.74,137.98L297.26,125.49L301.74,96.17L303.9,86.4L307.26,64.13L310.76,62.5L315.24,53.27L324.25,37.53L328.77,33.18L330.9,38.61L334.27,32.1L342.25,36.44L344.4,35.9L347.77,22.87L351.26,26.12L357.65,17.44L359.1,26.12L362,21.24" style="vector-effect: none; fill: none; stroke: rgb(128, 0, 128); stroke-opacity: 1; stroke-width: 2px; opacity: 1;"/></g><g class="points"/><g class="text"/></g><g class="trace scatter tracec15698" style="stroke-miterlimit: 2; opacity: 1;"><g class="fills"/><g class="errorbars"/><g class="lines"><path class="js-line" d="M0,271.55L185.7,270.89L189.22,270.72L207.19,268.92L209.35,268.53L220.7,265.46L222.86,264.62L229.72,261.16L234.2,258.13L239.76,253.35L243.22,249.71L249.89,241.07L253.26,235.82L261.24,220.89L263.36,216.31L270.22,199.79L274.76,187.48L283.73,160.43L288.23,145.84L307.26,84.47L310.76,74.78L317.4,59.1L320.76,52.65L324.25,47.02L328.77,41.25L334.27,36.23L337.75,33.95L344.4,31.03L347.77,30.06L359.1,28.3L362,28.06" style="vector-effect: none; fill: none; stroke: rgb(255, 0, 0); stroke-opacity: 1; stroke-width: 2px; opacity: 1;"/></g><g class="points"/><g class="text"/></g></g></g></g><g class="zerolinelayer-above"/><path class="xlines-above crisp" d="M60.5,357.25H423.5M60.5,29.75H423.5" style="fill: none; stroke-width: 0.5px; stroke: rgb(0, 0, 0); stroke-opacity: 1;"/><path class="ylines-above crisp" d="M60.75,30V357M423.25,30V357" style="fill: none; stroke-width: 0.5px; stroke: rgb(0, 0, 0); stroke-opacity: 1;"/><g class="overlines-above"/><g class="xaxislayer-above"><path class="xtick ticks crisp" d="M0,357v-5" transform="translate(128.53,0)" style="stroke: rgb(0, 0, 0); stroke-opacity: 1; stroke-width: 0.5px;"/><path class="xtick ticks crisp" d="M0,357v-5" transform="translate(196.06,0)" style="stroke: rgb(0, 0, 0); stroke-opacity: 1; stroke-width: 0.5px;"/><path class="xtick ticks crisp" d="M0,357v-5" transform="translate(263.58000000000004,0)" style="stroke: rgb(0, 0, 0); stroke-opacity: 1; stroke-width: 0.5px;"/><path class="xtick ticks crisp" d="M0,357v-5" transform="translate(331.11,0)" style="stroke: rgb(0, 0, 0); stroke-opacity: 1; stroke-width: 0.5px;"/><path class="xtick ticks crisp" d="M0,357v-5" transform="translate(398.64,0)" style="stroke: rgb(0, 0, 0); stroke-opacity: 1; stroke-width: 0.5px;"/><g class="xtick"><text text-anchor="middle" x="0" y="374.3" transform="translate(61,0)" style="font-family: 'Open Sans', verdana, arial, sans-serif; font-size: 14px; fill: rgb(0, 0, 0); fill-opacity: 1; white-space: pre;">0</text></g><g class="xtick"><text text-anchor="middle" x="0" y="374.3" style="font-family: 'Open Sans', verdana, arial, sans-serif; font-size: 14px; fill: rgb(0, 0, 0); fill-opacity: 1; white-space: pre;" transform="translate(128.53,0)">5</text></g><g class="xtick"><text text-anchor="middle" x="0" y="374.3" style="font-family: 'Open Sans', verdana, arial, sans-serif; font-size: 14px; fill: rgb(0, 0, 0); fill-opacity: 1; white-space: pre;" transform="translate(196.06,0)">10</text></g><g class="xtick"><text text-anchor="middle" x="0" y="374.3" style="font-family: 'Open Sans', verdana, arial, sans-serif; font-size: 14px; fill: rgb(0, 0, 0); fill-opacity: 1; white-space: pre;" transform="translate(263.58000000000004,0)">15</text></g><g class="xtick"><text text-anchor="middle" x="0" y="374.3" style="font-family: 'Open Sans', verdana, arial, sans-serif; font-size: 14px; fill: rgb(0, 0, 0); fill-opacity: 1; white-space: pre;" transform="translate(331.11,0)">20</text></g><g class="xtick"><text text-anchor="middle" x="0" y="374.3" style="font-family: 'Open Sans', verdana, arial, sans-serif; font-size: 14px; fill: rgb(0, 0, 0); fill-opacity: 1; white-space: pre;" transform="translate(398.64,0)">25</text></g></g><g class="yaxislayer-above"><path class="ytick ticks crisp" d="M61,0h5" transform="translate(0,301.55)" style="stroke: rgb(0, 0, 0); stroke-opacity: 1; stroke-width: 0.5px;"/><path class="ytick ticks crisp" d="M61,0h5" transform="translate(0,220.11)" style="stroke: rgb(0, 0, 0); stroke-opacity: 1; stroke-width: 0.5px;"/><path class="ytick ticks crisp" d="M61,0h5" transform="translate(0,138.66)" style="stroke: rgb(0, 0, 0); stroke-opacity: 1; stroke-width: 0.5px;"/><path class="ytick ticks crisp" d="M61,0h5" transform="translate(0,57.21)" style="stroke: rgb(0, 0, 0); stroke-opacity: 1; stroke-width: 0.5px;"/><g class="ytick"><text text-anchor="end" x="57.7" y="4.8999999999999995" transform="translate(0,301.55)" style="font-family: 'Open Sans', verdana, arial, sans-serif; font-size: 14px; fill: rgb(0, 0, 0); fill-opacity: 1; white-space: pre;">0.005</text></g><g class="ytick"><text text-anchor="end" x="57.7" y="4.8999999999999995" style="font-family: 'Open Sans', verdana, arial, sans-serif; font-size: 14px; fill: rgb(0, 0, 0); fill-opacity: 1; white-space: pre;" transform="translate(0,220.11)">0.01</text></g><g class="ytick"><text text-anchor="end" x="57.7" y="4.8999999999999995" style="font-family: 'Open Sans', verdana, arial, sans-serif; font-size: 14px; fill: rgb(0, 0, 0); fill-opacity: 1; white-space: pre;" transform="translate(0,138.66)">0.015</text></g><g class="ytick"><text text-anchor="end" x="57.7" y="4.8999999999999995" style="font-family: 'Open Sans', verdana, arial, sans-serif; font-size: 14px; fill: rgb(0, 0, 0); fill-opacity: 1; white-space: pre;" transform="translate(0,57.21)">0.02</text></g></g><g class="overaxes-above"/></g></g><g class="polarlayer"/><g class="smithlayer"/><g class="ternarylayer"/><g class="geolayer"/><g class="funnelarealayer"/><g class="pielayer"/><g class="iciclelayer"/><g class="treemaplayer"/><g class="sunburstlayer"/><g class="glimages"/><defs id="topdefs-a36cb3"><g class="clips"/><clipPath id="legenda36cb3"><rect width="158" height="32" x="0" y="0"/></clipPath></defs><g class="layer-above"><g class="imagelayer"/><g class="shapelayer"/></g><g class="infolayer"><g class="legend" pointer-events="all" transform="translate(430.24,30)"><rect class="bg" shape-rendering="crispEdges" style="stroke: rgb(68, 68, 68); stroke-opacity: 1; fill: rgb(255, 255, 255); fill-opacity: 1; stroke-width: 0px;" width="158" height="32" x="0" y="0"/><g class="scrollbox" transform="" clip-path="url(#legenda36cb3)"><g class="groups"><g class="traces" transform="translate(0,15.6)" style="opacity: 1;"><text class="legendtext" text-anchor="start" x="40" y="5.46" style="font-family: 'Open Sans', verdana, arial, sans-serif; font-size: 14px; fill: rgb(0, 0, 0); fill-opacity: 1; white-space: pre;">Fitted Model (lag)</text><g class="layers" style="opacity: 1;"><g class="legendfill"/><g class="legendlines"><path class="js-line" d="M5,0h30" style="fill: none; stroke: rgb(255, 0, 0); stroke-opacity: 1; stroke-width: 2px;"/></g><g class="legendsymbols"><g class="legendpoints"/></g></g><rect class="legendtoggle" x="0" y="-10.6" width="152.71875" height="21.2" style="fill: rgb(0, 0, 0); fill-opacity: 0;"/></g></g></g><rect class="scrollbar" rx="20" ry="3" width="0" height="0" style="fill: rgb(128, 139, 164); fill-opacity: 1;" x="0" y="0"/></g><g class="g-gtitle"><text class="gtitle" x="30" y="15" text-anchor="start" dy="0em" style="opacity: 1; font-family: 'Open Sans', verdana, arial, sans-serif; font-size: 14px; fill: rgb(0, 0, 0); fill-opacity: 1; white-space: pre;">Oa - Glucose 5.0 mM</text></g><g class="g-xtitle" transform="translate(0,5.449999999999989)"><text class="xtitle" x="242" y="387.8498046875" text-anchor="middle" style="opacity: 1; font-family: 'Open Sans', verdana, arial, sans-serif; font-size: 14px; fill: rgb(0, 0, 0); fill-opacity: 1; white-space: pre;">Time (hours)</text></g><g class="g-ytitle"><text class="ytitle" transform="rotate(-90,17.3001953125,193.5)" x="17.3001953125" y="193.5" text-anchor="middle" style="opacity: 1; font-family: 'Open Sans', verdana, arial, sans-serif; font-size: 14px; fill: rgb(0, 0, 0); fill-opacity: 1; white-space: pre;">OD</text></g></g></svg>